<svg id="Ñëîé_1" data-name="Ñëîé 1" xmlns="http://www.w3.org/2000/svg" xmlns:xlink="http://www.w3.org/1999/xlink" viewBox="0 0 65 65"><defs><style>.cls-1{fill:#fff;}.cls-2{fill:url(#linear-gradient);}.cls-3{mask:url(#mask);}.cls-4{opacity:0.15;}</style><linearGradient id="linear-gradient" y1="32.5" x2="65" y2="32.5" gradientUnits="userSpaceOnUse"><stop offset="0" stop-color="#40ff2a"/><stop offset="1" stop-color="#00944c"/></linearGradient><mask id="mask" x="0" y="0" width="66.5" height="66.4" maskUnits="userSpaceOnUse"><g transform="translate(-160 -6)"><polygon class="cls-1" points="214.94 21.87 181.86 55.08 199.18 72.4 223.65 69.92 226.5 33.42 214.94 21.87"/></g></mask></defs><circle class="cls-2" cx="32.5" cy="32.5" r="32.5"/><g class="cls-3"><circle class="cls-4" cx="32.5" cy="32.5" r="32.5"/></g><path class="cls-1" d="M215.06,22l-.11-.12a4.94,4.94,0,0,0-6.94,0L185.39,44.49,177,36.08a4.94,4.94,0,0,0-6.94,0l-.11.12a4.91,4.91,0,0,0,0,6.93l12,12a4.93,4.93,0,0,0,6.93,0l26.2-26.21A4.91,4.91,0,0,0,215.06,22Z" transform="translate(-160 -6)"/></svg>