<svg xmlns="http://www.w3.org/2000/svg" xmlns:xlink="http://www.w3.org/1999/xlink" viewBox="0 0 65 65"><defs><style>.cls-1{fill:#fff;}.cls-2{isolation:isolate;}.cls-3{fill:url(#linear-gradient);}.cls-4{mask:url(#mask);}.cls-5{opacity:0.15;mix-blend-mode:multiply;}</style><linearGradient id="linear-gradient" x1="83" y1="38.5" x2="148" y2="38.5" gradientUnits="userSpaceOnUse"><stop offset="0" stop-color="#fff53f"/><stop offset="1" stop-color="#d48e00"/></linearGradient><mask id="mask" x="0" y="0" width="65" height="65" maskUnits="userSpaceOnUse"><g transform="translate(-83 -6)"><path class="cls-1" d="M147.47,46.06,119,17.58,112.5,42.4l6.12,6.13L112,55.16l14.48,14.48A28.53,28.53,0,0,0,135.06,65S145.89,57.16,147.47,46.06Z"/></g></mask></defs><g class="cls-2"><g id="Ñëîé_1" data-name="Ñëîé 1"><path class="cls-3" d="M148,38A32.5,32.5,0,1,1,115,6,32.5,32.5,0,0,1,148,38Z" transform="translate(-83 -6)"/><g class="cls-4"><path class="cls-5" d="M148,38A32.5,32.5,0,1,1,115,6,32.5,32.5,0,0,1,148,38Z" transform="translate(-83 -6)"/></g><path class="cls-1" d="M115.5,46.59a5,5,0,1,0,5,5A5,5,0,0,0,115.5,46.59Z" transform="translate(-83 -6)"/><path class="cls-1" d="M119.66,39.63c.47-9.5.28-5.42.83-18.42,0-6.54-10-6.52-10,0,.55,13,.36,8.92.83,18.42C111.57,44.9,119.43,44.91,119.66,39.63Z" transform="translate(-83 -6)"/></g></g></svg>