<svg id="Ñëîé_1" data-name="Ñëîé 1" xmlns="http://www.w3.org/2000/svg" xmlns:xlink="http://www.w3.org/1999/xlink" viewBox="0 0 65 65"><defs><style>.cls-1{fill:#fff;}.cls-2{fill:url(#linear-gradient);}.cls-3{mask:url(#mask);}.cls-4{opacity:0.15;}</style><linearGradient id="linear-gradient" y1="32.5" x2="65" y2="32.5" gradientUnits="userSpaceOnUse"><stop offset="0" stop-color="#ff2a3c"/><stop offset="1" stop-color="#d48e00"/></linearGradient><mask id="mask" x="0" y="0" width="65.95" height="65.98" maskUnits="userSpaceOnUse"><g transform="translate(-6 -6)"><polygon class="cls-1" points="55.08 21.95 21.99 55.13 38.84 71.98 69.56 69.63 71.95 38.8 55.08 21.95"/></g></mask></defs><circle class="cls-2" cx="32.5" cy="32.5" r="32.5"/><g class="cls-3"><circle class="cls-4" cx="32.5" cy="32.5" r="32.5"/></g><path class="cls-1" d="M45.55,38.5l9.58-9.58a4.91,4.91,0,0,0,0-6.93L55,21.87a4.91,4.91,0,0,0-6.93,0L38.5,31.45l-9.58-9.58a4.91,4.91,0,0,0-6.93,0l-.12.12a4.92,4.92,0,0,0,0,6.93l9.58,9.58-9.58,9.58a4.92,4.92,0,0,0,0,6.93l.12.12a4.91,4.91,0,0,0,6.93,0l9.58-9.58,9.58,9.58a4.91,4.91,0,0,0,6.93,0l.12-.12a4.91,4.91,0,0,0,0-6.93Z" transform="translate(-6 -6)"/></svg>