<svg id="Layer_1" data-name="Layer 1" xmlns="http://www.w3.org/2000/svg" viewBox="0 0 979 979"><defs><style>.cls-1{fill:#eabd00;}.cls-2{fill:#d19a00;}.cls-3{fill:#fff;stroke:#fffdfd;stroke-miterlimit:10;stroke-width:17px;}</style></defs><circle class="cls-1" cx="489.5" cy="489.5" r="489.5"/><path class="cls-2" d="M2174.2,2322.13l-436.7-381.88-53,17v636s2-2-70,56l153.66,138.2C1993.43,2748.9,2166.14,2556.43,2174.2,2322.13Z" transform="translate(-1195.5 -1815.5)"/><path class="cls-3" d="M1691.07,1934.73c-.83,0-1.65,0-2.47,0-55,.43-96.93,49.75-90,104.35l47.22,370.4a58,58,0,0,0,5.59,20.39c5.13,10.41,15.14,18.1,32.59,21h.48c21.72.27,43.71-14.43,46.11-36l41.18-376c4.23-67.64-35-100.23-80.74-104.06Z" transform="translate(-1195.5 -1815.5)"/><ellipse class="cls-3" cx="1684.68" cy="2593.73" rx="82.06" ry="83.26" transform="translate(-2135.16 2414.82) rotate(-88.94)"/></svg>