<svg xmlns="http://www.w3.org/2000/svg" viewBox="0 0 1500 1500"><defs><style>.cls-1{isolation:isolate;}.cls-2{fill:#fff;}.cls-3{fill:#128537;}.cls-4{opacity:0.1;}.cls-14,.cls-4{mix-blend-mode:multiply;}.cls-5{fill:#e88e01;}.cls-6{fill:#c9b01d;}.cls-7{fill:#f8e443;}.cls-8{fill:#f0e8d1;}.cls-9{fill:#fada25;}.cls-10{fill:#dbbf20;}.cls-11{fill:#16a142;}.cls-12{opacity:0.11;}.cls-12,.cls-13,.cls-16{mix-blend-mode:screen;}.cls-13{opacity:0.5;}.cls-14{fill:#e6c323;opacity:0.45;}.cls-15{fill:#15993f;}.cls-16{opacity:0.26;}</style></defs><g class="cls-1"><g id="ƒŒƒCƒ__6" data-name="ƒŒƒCƒ„[_6"><rect class="cls-2" width="1500" height="1500" rx="418.14"/><path class="cls-3" d="M999.66,196.61C988.38,230,882.44,274.42,850.24,287.23l-10.31-7.72L824.61,268c57.7-23,136.92-61.59,147.07-77.25-4.45-2.06-17.76-6.12-53.16-6.21h-1c-27.35,0-52.59,2.33-56.51,2.77l-.75.09c-20.93,1.41-66.16,27.23-89.75,43.16l-10.21-13.34L754,209.07c6.89-4.66,68.06-45.4,103.84-48,7.3-.83,114.21-12.34,137.45,13.87A21.37,21.37,0,0,1,999.66,196.61Z" transform="translate(-4 -4)"/><g class="cls-4"><path class="cls-5" d="M979.48,186.84c0,3.09-1.75,5.94-3.47,8.56-8,12.13-17.48,23.56-29.11,32.74-15.25,12.1-33.67,20-51.84,27.79l-50.75,21.73c-1.44.62-2.91,1.24-4.38,1.85L824.61,268c57.7-23,136.92-61.59,147.07-77.25-4.45-2.06-17.76-6.12-53.16-6.21h-1c-27.35,0-52.59,2.33-56.51,2.77l-.75.09c-20.93,1.41-66.16,27.23-89.75,43.16l-10.21-13.34c20-21.26,56.2-34.21,84.08-42a234,234,0,0,1,118.37-2C970.43,175.21,979.54,179.36,979.48,186.84Z" transform="translate(-4 -4)"/></g><path class="cls-6" d="M1026.44,745.93v39c-14.25,16.13-11.81,30.2,0,43.13v39c-14.13,13.8-9.87,28.37,0,43.15v39c-16.26,16.4-14,30.5,0,43.13v48.4a6.07,6.07,0,0,1,2.22,1.44c3.51,3.15,10,13,10.28,42.34,0,.76,0,1.56,0,2.35,0,34,3.94,132.1-4.64,190.13-18,14.77-28.5,41.24-14.66,44.39-18.82,31.94-39.62,47.87-84.07,61.35a273.23,273.23,0,0,1-34.81,8.13,361.48,361.48,0,0,1-43.07,4.3l.06.82H821c-12.72.06-26.53,0-41.82,0H702.73c-19.17,0-36.12.09-51.47,0H614.52l.06-.82c-28.16-1.33-51.91-4.57-77.88-12.43-45.2-13.72-66-30-85-63,5.86-8.59,1-29-13.94-44.66-8.27-58.26-4.39-154.62-4.39-188.18,0-1.38,0-2.74,0-4,.79-38.86,12.5-42.1,12.5-42.1v-50c17.92-13.22,16.29-27.76,0-43.33V908.58c12.6-14,15.35-28.29,0-43.36V826.45c16.17-12.34,14.91-26.94,0-43.34v-38.8c13.41-13,13.5-27.47,0-43.34V650.16s-18-11.86-20.58-46.57q-.28-4-.28-8.39C430.76,515,492,436,545.57,381.29q9.21-9.36,17.95-17.7c5.36-5.12,10.56-9.95,15.5-14.45,28-25.41,48.53-40.48,48.53-40.48h217.2s15.57,11.45,38.09,31.18c7.93,6.94,16.7,14.89,25.94,23.75C965.67,418,1040.88,505.85,1047.3,595.2c0,3.88-.19,7.5-.5,10.92-3.23,32.77-20.36,44-20.36,44V702.8C1007.86,718.17,1012.69,732.27,1026.44,745.93Z" transform="translate(-4 -4)"/><path class="cls-7" d="M987.41,693.7c-16.1,15-11.91,28.8,0,42.13V774c-12.34,15.75-10.25,29.49,0,42.12v38.1c-12.25,13.48-8.55,27.7,0,42.16V934.4c-14.1,16-12.13,29.8,0,42.13v47.31a4.87,4.87,0,0,1,1.91,1.38c3,3.1,8.61,12.66,8.89,41.37,0,.76,0,1.53,0,2.29,0,33.18,3.41,129.07-4,185.77-15.64,14.43-24.69,40.27-12.69,43.36-16.32,31.21-34.3,46.75-72.77,59.94-22.49,7.69-43,10.84-67.41,12.13l.06.8H809.61c-1.82,0-3.64,0-5.52,0-11.81.06-24.68,0-39,0H707.21c-16.57,0-31.27.09-44.55,0H630.87l.06-.8c-24.37-1.29-44.92-4.44-67.41-12.13-39.13-13.39-57.11-29.29-73.61-61.58,5.07-8.39.9-28.3-12.06-43.63-7.18-56.91-3.8-151.06-3.8-183.86,0-1.32,0-2.65,0-3.91.65-38,10.8-41.13,10.8-41.13V975c15.51-12.92,14.1-27.14,0-42.33V894.75c10.9-13.63,13.28-27.65,0-42.37V814.49c14-12,12.91-26.31,0-42.33V734.27c11.59-12.75,11.69-26.85,0-42.33V642.27s-15.56-11.57-17.82-45.48c-.16-2.59-.22-5.33-.22-8.22,9-141.87,175.29-279.91,175.29-279.91h188s166.27,138,175.29,279.91c0,3.8-.16,7.36-.44,10.69-2.79,32-17.6,43-17.6,43Z" transform="translate(-4 -4)"/><path class="cls-8" d="M844.72,297.86v10.77a682.18,682.18,0,0,1-77.53,8.48,612.61,612.61,0,0,1-139.64-8.48V297.86a1203.76,1203.76,0,0,0,132.56,4.65Q802.46,301.67,844.72,297.86Z" transform="translate(-4 -4)"/><rect class="cls-8" x="632.16" y="249.2" width="199.95" height="24.52"/><path class="cls-6" d="M761.24,603.76c-6.51,4.45-14.78,7-25.12,7-84.33,0-30.42-166.83-17.57-188.82a48,48,0,0,1,2.78-4.27,29.51,29.51,0,0,1,6.08-6.42,13.37,13.37,0,0,1,17.45,0c2.69,2,5.76,5.42,8.83,10.66C765,441.14,807.92,572,761.24,603.76Z" transform="translate(-4 -4)"/><path class="cls-6" d="M645.78,594.52c-8.43,6-19,8.6-32.3,6.48-82.48-13.13.91-166.93,18.64-188.24a2.15,2.15,0,0,1,.34-.44c4-4.71,7.74-7.57,10.78-9.13a15.39,15.39,0,0,1,9.21-1.85,14.42,14.42,0,0,1,8,4.59c2.25,2.41,4.63,6.21,6.64,11.86C674.16,437.67,690.2,562.9,645.78,594.52Z" transform="translate(-4 -4)"/><path class="cls-6" d="M535.42,566c-11.09,8.51-24.59,11.6-40.88,6.24-72.45-23.81,16.51-143,47.9-176a84,84,0,0,1,7.08-6.86c4.91-4,9.08-6.24,12.37-7.3a15.68,15.68,0,0,1,9.43-.38,13.69,13.69,0,0,1,7,5.77c1.76,2.71,3.39,6.86,4.26,12.75C585.54,419.74,578.3,533.26,535.42,566Z" transform="translate(-4 -4)"/><path class="cls-6" d="M877.33,594.17A46.23,46.23,0,0,1,858.79,601c-83,13.22-62-159.54-53.63-183.21a41.88,41.88,0,0,1,3.66-7.86,24.38,24.38,0,0,1,3-4,14.6,14.6,0,0,1,8-4.59,15.39,15.39,0,0,1,9.21,1.85c3,1.56,6.73,4.42,10.74,9.1C855.12,430.13,927.08,560.78,877.33,594.17Z" transform="translate(-4 -4)"/><path class="cls-6" d="M989.91,566.38a47.55,47.55,0,0,1-12.18,5.85c-79.25,26.06-91.78-147.37-88-172a35.79,35.79,0,0,1,3.14-10.75,20.35,20.35,0,0,1,1.13-2,13.73,13.73,0,0,1,7-5.74,15.41,15.41,0,0,1,9.43.35c3.29,1.06,7.45,3.3,12.34,7.27C941.86,405,1043.73,529.87,989.91,566.38Z" transform="translate(-4 -4)"/><path class="cls-9" d="M764.88,598.35a41.58,41.58,0,0,1-3.64,5.41c-6.51,4.45-14.78,7-25.12,7-84.33,0-30.42-166.83-17.57-188.82a48,48,0,0,1,2.78-4.27,14.39,14.39,0,0,1,4.86-1.68,7.57,7.57,0,0,1,1.6-.15,15.12,15.12,0,0,1,8.74,3.27,36,36,0,0,1,8.83,10.66C755.41,446.91,790.78,553.25,764.88,598.35Z" transform="translate(-4 -4)"/><path class="cls-9" d="M649.76,589.1a57.36,57.36,0,0,1-4,5.42c-8.43,6-19,8.6-32.3,6.48-82.48-13.13.91-166.93,18.64-188.24a23.08,23.08,0,0,1,2.79-1.74,16.49,16.49,0,0,1,1.88-.85,12.93,12.93,0,0,1,15.28,3.59c2.26,2.41,4.67,6.21,6.68,11.89C665,443.38,678.48,545,649.76,589.1Z" transform="translate(-4 -4)"/><path class="cls-9" d="M539.65,560.75c-1.35,1.83-2.76,3.59-4.23,5.24-11.09,8.51-24.59,11.6-40.88,6.24-72.45-23.81,16.51-143,47.9-176,1.25-1,2.44-1.82,3.6-2.59a33.36,33.36,0,0,1,7.52-3.74,15.41,15.41,0,0,1,9.43-.35,13.87,13.87,0,0,1,7,5.74c1.75,2.74,3.38,6.86,4.29,12.75C576.89,425.51,571.41,517.83,539.65,560.75Z" transform="translate(-4 -4)"/><path class="cls-9" d="M880.68,588.84a38.52,38.52,0,0,1-3.35,5.33A46.23,46.23,0,0,1,858.79,601c-83,13.22-62-159.54-53.63-183.21a41.88,41.88,0,0,1,3.66-7.86,10.75,10.75,0,0,1,2.64-.76,10.35,10.35,0,0,1,2.75-.06A16.62,16.62,0,0,1,820.7,411a38.34,38.34,0,0,1,10.74,9.13C845.19,436.13,904.52,542.91,880.68,588.84Z" transform="translate(-4 -4)"/><path class="cls-9" d="M993,561.31a32.15,32.15,0,0,1-3.1,5.07,47.55,47.55,0,0,1-12.18,5.85c-79.25,26.06-91.78-147.37-88-172a35.79,35.79,0,0,1,3.14-10.75,14.35,14.35,0,0,1,6.29-.29,18.62,18.62,0,0,1,2.89.7,39.75,39.75,0,0,1,12.34,7.3C931.68,411.35,1016.45,514.53,993,561.31Z" transform="translate(-4 -4)"/><path class="cls-10" d="M764.88,598.35a46.65,46.65,0,0,1-19.8,3.94c-81.7,0-33.65-156.62-18.89-186.35a7.57,7.57,0,0,1,1.6-.15,15.12,15.12,0,0,1,8.74,3.27,36,36,0,0,1,8.83,10.66C755.41,446.91,790.78,553.25,764.88,598.35Z" transform="translate(-4 -4)"/><path class="cls-10" d="M649.76,589.1c-7.52,3.8-16.54,5.18-27.32,3.48-77.06-12.28-9.3-147.38,14.35-182.41a12.93,12.93,0,0,1,15.28,3.59c2.26,2.41,4.67,6.21,6.68,11.89C665,443.38,678.48,545,649.76,589.1Z" transform="translate(-4 -4)"/><path class="cls-10" d="M539.65,560.75c-10.12,6-22.08,7.69-36.15,3.06C434.8,541.23,511.17,433,546,393.65a33.36,33.36,0,0,1,7.52-3.74,15.41,15.41,0,0,1,9.43-.35,13.87,13.87,0,0,1,7,5.74c1.75,2.74,3.38,6.86,4.29,12.75C576.89,425.51,571.41,517.83,539.65,560.75Z" transform="translate(-4 -4)"/><path class="cls-10" d="M880.68,588.84a51.05,51.05,0,0,1-12.93,3.77c-83,13.22-62-159.54-53.63-183.21l.09-.26A16.62,16.62,0,0,1,820.7,411a38.34,38.34,0,0,1,10.74,9.13C845.19,436.13,904.52,542.91,880.68,588.84Z" transform="translate(-4 -4)"/><path class="cls-10" d="M993,561.31a54.74,54.74,0,0,1-6.32,2.5c-79.26,26.06-91.79-147.37-88-172,.13-.92.29-1.8.47-2.62a18.62,18.62,0,0,1,2.89.7,39.75,39.75,0,0,1,12.34,7.3C931.68,411.35,1016.45,514.53,993,561.31Z" transform="translate(-4 -4)"/><path class="cls-9" d="M1046.8,606.12a82.75,82.75,0,0,1-5.76,23.82c-6.14,14.66-14.6,20.22-14.6,20.22v11.16a2950.05,2950.05,0,0,1-580.58-2v-9.19s-9.08-6-15.25-21.93a84.42,84.42,0,0,1-5.33-24.64C632.46,631.11,839.62,631.38,1046.8,606.12Z" transform="translate(-4 -4)"/><path class="cls-9" d="M1014.28,724.35c.35,7.39,5.05,14.54,12.16,21.58a3617.5,3617.5,0,0,1-580.58-1.62Q456.26,734.25,456,723q-.29-10.51-10.09-22.06,290.29,29.37,580.58,1.83C1017.45,710.25,1013.94,717.4,1014.28,724.35Z" transform="translate(-4 -4)"/><path class="cls-9" d="M1016.63,806.37c-.09,7.65,3.54,14.84,9.81,21.7a3617.5,3617.5,0,0,1-580.58-1.62c8.49-6.48,12.16-13.57,11.59-21.2-.5-7-4.48-14.34-11.59-22.14,193.53,19.58,387,19.81,580.58,1.83C1019.73,792.5,1016.73,799.63,1016.63,806.37Z" transform="translate(-4 -4)"/><path class="cls-9" d="M1017.48,888.42c.56,7.18,4.07,14.45,9,21.78a3615.19,3615.19,0,0,1-580.58-1.62c6.3-7,10.15-14.07,10.46-21.28s-2.78-14.54-10.46-22.08q290.29,29.37,580.58,1.83C1019.33,874,1016.88,881.15,1017.48,888.42Z" transform="translate(-4 -4)"/><path class="cls-9" d="M1015.1,970.7c-.25,7.72,3.85,14.87,11.34,21.61a3615.19,3615.19,0,0,1-580.58-1.62C455,984,459,976.91,458.67,969.55c-.34-7.15-4.82-14.54-12.81-22.19q290.29,29.35,580.58,1.82C1018.86,956.84,1015.29,964,1015.1,970.7Z" transform="translate(-4 -4)"/><path class="cls-9" d="M1038.94,1084.49a3616.62,3616.62,0,0,1-605.58-1.68,131.54,131.54,0,0,1,2-21.34c3.54-18.82,10.52-20.76,10.52-20.76v-.18c194.28,19.67,388.56,19.82,582.8,1.62,2.45,2.18,6.3,7.6,8.52,20.61A135.35,135.35,0,0,1,1038.94,1084.49Z" transform="translate(-4 -4)"/><path class="cls-9" d="M1016.88,1299.13c-5.1,10.69-5.26,20.41,2.79,22.23a3614.53,3614.53,0,0,1-568-1.68c3.19-4.71,3.22-12.92.09-22a63.19,63.19,0,0,0-14-22.67c198.88,20.7,397.76,21,596.61,2A66.38,66.38,0,0,0,1016.88,1299.13Z" transform="translate(-4 -4)"/><path class="cls-10" d="M1041,629.94a54.37,54.37,0,0,1-10.78,16.89,24.4,24.4,0,0,1-3.82,3.33v11.16a2950.05,2950.05,0,0,1-580.58-2v-9.19a29.74,29.74,0,0,1-5.39-5.09,57,57,0,0,1-9.86-16.84A4531.73,4531.73,0,0,0,1041,629.94Z" transform="translate(-4 -4)"/><path class="cls-10" d="M1026.44,745.93a3617.5,3617.5,0,0,1-580.58-1.62A41.92,41.92,0,0,0,450.5,739,25.5,25.5,0,0,0,456,723a5563.25,5563.25,0,0,0,558.33,1.32c.25,5.42,2.85,10.75,7.05,16A70.26,70.26,0,0,0,1026.44,745.93Z" transform="translate(-4 -4)"/><path class="cls-10" d="M1026.44,828.07a3617.5,3617.5,0,0,1-580.58-1.62,37,37,0,0,0,5.67-5.21c4.45-5,6.33-10.37,5.92-16a5571.25,5571.25,0,0,0,559.18,1.12c-.06,5.59,1.85,10.92,5.33,16A48.46,48.46,0,0,0,1026.44,828.07Z" transform="translate(-4 -4)"/><path class="cls-10" d="M1026.44,910.2a3615.19,3615.19,0,0,1-580.58-1.62,57.16,57.16,0,0,0,4.29-5.32c3.73-5.27,6-10.57,6.17-16a5557.38,5557.38,0,0,0,561.16,1.12c.41,5.3,2.44,10.66,5.45,16A66.49,66.49,0,0,0,1026.44,910.2Z" transform="translate(-4 -4)"/><path class="cls-10" d="M1026.44,992.31a3615.19,3615.19,0,0,1-580.58-1.62,43.92,43.92,0,0,0,6-5.21c4.91-5.12,7.07-10.45,6.82-15.93q278.22,14.58,556.43,1.15c-.19,5.6,1.94,10.9,6,16A46.55,46.55,0,0,0,1026.44,992.31Z" transform="translate(-4 -4)"/><path class="cls-10" d="M1038.94,1084.49a3616.62,3616.62,0,0,1-605.58-1.68c0-1.83.1-3.56.19-5.21a119.1,119.1,0,0,1,1.79-16.13,5570.59,5570.59,0,0,0,601.84,1.29,119.88,119.88,0,0,1,1.6,16.19C1038.87,1080.72,1038.91,1082.54,1038.94,1084.49Z" transform="translate(-4 -4)"/><path class="cls-10" d="M1019.67,1321.36a3614.53,3614.53,0,0,1-568-1.68,13.87,13.87,0,0,0,2.1-5.59c.78-4.54.12-10.28-2-16.4a5557,5557,0,0,0,565.13,1.44c-3,6.3-4.29,12.28-3.19,16.49A7.47,7.47,0,0,0,1019.67,1321.36Z" transform="translate(-4 -4)"/><path class="cls-8" d="M908.77,363.59a1173.68,1173.68,0,0,1-345.26,0c35.59-34,64-54.94,64-54.94,70.82,12.69,143.29,12.15,217.21,0C844.75,308.65,873.19,329.55,908.77,363.59Z" transform="translate(-4 -4)"/><ellipse class="cls-11" cx="732.14" cy="188.6" rx="102.33" ry="10.3"/><path class="cls-6" d="M1030.26,646.83a24.4,24.4,0,0,1-3.82,3.33v11.16a2950.05,2950.05,0,0,1-580.58-2v-9.19a29.74,29.74,0,0,1-5.39-5.09A4309.15,4309.15,0,0,0,1030.26,646.83Z" transform="translate(-4 -4)"/><path class="cls-6" d="M1026.44,745.93a3617.5,3617.5,0,0,1-580.58-1.62A41.92,41.92,0,0,0,450.5,739a5281.63,5281.63,0,0,0,570.83,1.27A70.26,70.26,0,0,0,1026.44,745.93Z" transform="translate(-4 -4)"/><path class="cls-6" d="M1026.44,828.07a3617.5,3617.5,0,0,1-580.58-1.62,37,37,0,0,0,5.67-5.21A5281.91,5281.91,0,0,0,1022,822.41,48.46,48.46,0,0,0,1026.44,828.07Z" transform="translate(-4 -4)"/><path class="cls-6" d="M1026.44,910.2a3615.19,3615.19,0,0,1-580.58-1.62,57.16,57.16,0,0,0,4.29-5.32,5281.86,5281.86,0,0,0,572.78,1.2A66.49,66.49,0,0,0,1026.44,910.2Z" transform="translate(-4 -4)"/><path class="cls-6" d="M1026.44,992.31a3615.19,3615.19,0,0,1-580.58-1.62,43.92,43.92,0,0,0,6-5.21,5275.11,5275.11,0,0,0,569.23,1.21A46.55,46.55,0,0,0,1026.44,992.31Z" transform="translate(-4 -4)"/><path class="cls-6" d="M1038.94,1084.49a3616.62,3616.62,0,0,1-605.58-1.68c0-1.83.1-3.56.19-5.21a5287.85,5287.85,0,0,0,605.23,1.35C1038.87,1080.72,1038.91,1082.54,1038.94,1084.49Z" transform="translate(-4 -4)"/><path class="cls-6" d="M1019.67,1321.36a3614.53,3614.53,0,0,1-568-1.68,13.87,13.87,0,0,0,2.1-5.59,5271.29,5271.29,0,0,0,559.93,1.53A7.47,7.47,0,0,0,1019.67,1321.36Z" transform="translate(-4 -4)"/><g class="cls-4"><path class="cls-5" d="M853.21,1115.75c4,67.92,16.2,139.22-12.69,201.61-9.08,19.57-21.73,37.18-36.43,53.52-7.8,8.71-16.16,17-24.87,25.08H702.73c-19.17,0-36.12.09-51.47,0H614.52l.06-.82c-28.16-1.33-51.91-4.57-77.88-12.43-45.2-13.72-66-30-85-63,5.86-8.59,1-29-13.94-44.66-8.27-58.26-4.39-154.62-4.39-188.18,0-1.38,0-2.74,0-4,.79-38.86,12.5-42.1,12.5-42.1v-50c17.92-13.22,16.29-27.76,0-43.33V908.58c12.6-14,15.35-28.29,0-43.36V826.45c16.17-12.34,14.91-26.94,0-43.34v-38.8c13.41-13,13.5-27.47,0-43.34V650.16s-18-11.86-20.58-46.57q-.28-4-.28-8.39c6.42-89.35,81.63-177.23,138.52-231.61,35.58-34,64-54.93,64-54.93H773.93q5.36,19.6,11.06,39.16c30.85,106.27,67.59,212,78.34,322.27C877.8,818.17,844.5,967.23,853.21,1115.75Z" transform="translate(-4 -4)"/></g><g class="cls-4"><path class="cls-5" d="M724.37,1391.78c-.09,1.41-.28,2.8-.5,4.18H702.73c-19.17,0-36.12.09-51.47,0H614.52l.06-.82c-28.16-1.33-51.91-4.57-77.88-12.43-45.2-13.72-66-30-85-63,5.86-8.59,1-29-13.94-44.66-8.27-58.26-4.39-154.62-4.39-188.18,0-1.38,0-2.74,0-4,.79-38.86,12.5-42.1,12.5-42.1v-50c17.92-13.22,16.29-27.76,0-43.33V908.58c12.6-14,15.35-28.29,0-43.36V826.45c16.17-12.34,14.91-26.94,0-43.34v-38.8c13.41-13,13.5-27.47,0-43.34V650.16s-18-11.86-20.58-46.57q-.28-4-.28-8.39c6.42-89.35,81.63-177.23,138.52-231.61,35.58-34,64-54.93,64-54.93H692a594.16,594.16,0,0,1-31.38,94.41c-27.73,64-69.07,124.74-76.28,193.48-4.38,41.69,4.17,83.46,9.24,125.09,21.68,178.7-19.67,369.74,61.62,532.57,16.54,33.15,37.74,64,55.94,96.33a135.69,135.69,0,0,1,9.78,20.34A51.09,51.09,0,0,1,724.37,1391.78Z" transform="translate(-4 -4)"/></g><g class="cls-12"><path class="cls-7" d="M943.14,499.72c2.58-2.73,17.11-23.39,20.5-25.17,8.65-4.53,15.33,15.16,17.75,26.11s5.28,17.9,4.18,27.15c-.39,3.28-5.66,6.89-8.44,8.91-2.13,1.54-5,1.78-7.7,1.71-16.39-.45-37-18.95-37-26S943.14,499.72,943.14,499.72Z" transform="translate(-4 -4)"/></g><g class="cls-12"><path class="cls-7" d="M838.57,540.48c13.4-5.53,20.51-27,28.42-23.55s5.29,28.79,2.3,43c-.63,3-1.47,6-3.49,8.4-3.34,3.94-9.4,5.17-14.64,4.09s-9.8-4.08-13.85-7.38c-5.14-4.2-13.64-10.09-13.64-14.23S838.57,540.48,838.57,540.48Z" transform="translate(-4 -4)"/></g><g class="cls-12"><path class="cls-7" d="M745.09,583.18c5.55-2.59,9.16-7.73,12.31-12.74,5.76-9.18,11-19,11.81-29.66s-3.61-35.4-13.18-27.72-30.5,39.28-33.83,42.57C706.7,571,724.78,592.7,745.09,583.18Z" transform="translate(-4 -4)"/></g><g class="cls-13"><path class="cls-7" d="M917.34,607.77c3,1.34,6.58,1.16,9.93,1l40.82-2.53c6.62-.41,13.41-.87,19.42-3.5s11.16-8,11.31-14.21c.06-2.11-.72-4.54-2.8-5.35-1.72-.67-3.67,0-5.42.61a62.9,62.9,0,0,1-44.91-1.87c-10.29-4.52-19-11.74-29.05-16.67a8.07,8.07,0,0,0-4.56-1.13c-2.75.38-4.28,3.19-5,5.72C904.68,578.2,907.86,603.59,917.34,607.77Z" transform="translate(-4 -4)"/></g><g class="cls-13"><path class="cls-7" d="M981,685a39.87,39.87,0,0,0-13.65-5.42c-14.81-3.37-35.1-2.88-52.81-1.89-26.7,1.49-25,8.49-5,15.05C924.48,697.57,987.51,689.39,981,685Z" transform="translate(-4 -4)"/></g><g class="cls-13"><path class="cls-7" d="M882.06,1020.74a34.43,34.43,0,0,0,12.39,5.42c13.41,3.38,31.76,2.89,47.78,1.91,24.13-1.48,22.58-8.48,4.41-15C933.12,1008.14,876.17,1016.31,882.06,1020.74Z" transform="translate(-4 -4)"/></g><g class="cls-13"><path class="cls-7" d="M954.46,780c6.11-.63,12.46-1.38,17.49-4.12s8.18-8.11,5.43-12.35a7.64,7.64,0,0,0-1.09-1.33c-2.62-2.58-7.15-3.87-11.43-4.55-14.79-2.36-64.2-4.84-64.13,10.44C900.83,788.52,940.75,781.39,954.46,780Z" transform="translate(-4 -4)"/></g><g class="cls-13"><path class="cls-7" d="M952.9,863.27c6.1-.6,12.46-1.33,17.48-4s8.18-7.9,5.44-12a7.51,7.51,0,0,0-1.1-1.3c-2.61-2.51-7.15-3.77-11.43-4.43-14.79-2.3-64.2-4.72-64.12,10.17C899.26,871.58,939.18,864.64,952.9,863.27Z" transform="translate(-4 -4)"/></g><g class="cls-13"><path class="cls-7" d="M940.73,947c6.41-.47,13.09-1,18.36-3.13s8.59-6.17,5.71-9.39a6.7,6.7,0,0,0-1.15-1c-2.74-2-7.51-2.94-12-3.46-15.53-1.8-67.43-3.69-67.35,7.94C884.39,953.49,926.32,948.07,940.73,947Z" transform="translate(-4 -4)"/></g><g class="cls-13"><path class="cls-7" d="M896.62,1272.41c7.6,3.26,16.45.67,24.33-1.94,16.73-5.56,34.31-11.64,45.66-24.47,7-7.9,11-17.74,14.1-27.59a191.74,191.74,0,0,0,7.6-79.1c-1.35-11.93-5.18-25.46-16.73-30.56-5.13-2.27-11-2.43-16.68-2.55-11.58-.25-38.47-6.17-45.9,4.39s-1.37,37.14-1.64,49.37C907.13,1170,895.07,1271.77,896.62,1272.41Z" transform="translate(-4 -4)"/></g><path class="cls-14" d="M857.72,1395.14l.06.82H821c-12.72.06-26.53,0-41.82,0H702.73c-19.17,0-36.12.09-51.47,0H614.52l.06-.82c-28.16-1.33-51.91-4.57-77.88-12.43-45.2-13.72-66-30-85-63,5.86-8.59,1-29-13.94-44.66-8.27-58.26-4.39-154.62-4.39-188.18,0-1.38,0-2.74,0-4,.79-38.86,12.5-42.1,12.5-42.1v-50c17.92-13.22,16.29-27.76,0-43.33V908.58c12.6-14,15.35-28.29,0-43.36V826.45c16.17-12.34,14.91-26.94,0-43.34v-38.8c13.41-13,13.5-27.47,0-43.34V650.16s-18-11.86-20.58-46.57q-.28-4-.28-8.39C430.76,515,492,436,545.57,381.29c5.11,23.31-.85,53.84-7.77,72.48-10.93,29.56-32.2,55.61-38.4,86.38-6.77,33.64,5.48,67.74,14.22,101,33.11,125.92,16.85,258,.5,386.84-7.36,58-14.41,118.62,7.52,173.23,16.41,40.89,48,75.07,83.67,103.09,40.15,31.53,87,56.68,138.2,67,38.28,7.71,77.88,7,116.69,11.78a279.64,279.64,0,0,1,40.59,7.74A361.48,361.48,0,0,1,857.72,1395.14Z" transform="translate(-4 -4)"/><g class="cls-4"><path class="cls-5" d="M882.84,339.84c-22.89-4.57-46.58-5.54-70-6-70-1.24-140.65,2-210.06,11.22-6.24.82-14.44,2.41-23.72,4.06,28-25.41,48.53-40.48,48.53-40.48h217.2S860.32,320.11,882.84,339.84Z" transform="translate(-4 -4)"/></g><g class="cls-4"><path class="cls-5" d="M760.52,304.39c.91,3.56,4.23,8.3,6.67,12.72a612.61,612.61,0,0,1-139.64-8.48V297.86a1203.76,1203.76,0,0,0,132.56,4.65C760.21,303.13,760.36,303.77,760.52,304.39Z" transform="translate(-4 -4)"/></g><g class="cls-4"><path class="cls-5" d="M760.93,277.72H636.16V253.2H774.71C768.54,260.64,763.59,268.71,760.93,277.72Z" transform="translate(-4 -4)"/></g><path class="cls-15" d="M838.46,192.61V253.2a814.59,814.59,0,0,1-93.7,6.38q-29.79.36-59.54-1.53-25.71-1.64-51.41-4.85V192.61q33.36,4.06,66.69,5.44,28.38,1.24,56.79.51Q797.9,197.58,838.46,192.61Z" transform="translate(-4 -4)"/><path class="cls-15" d="M859.23,276.84v10.65c0,5.83-4.8,10.75-11,11.19q-33.16,2.38-66.35,3.39-41.34,1.23-82.66.23-37.54-.89-75.15-3.62c-6.23-.44-11-5.36-11-11.19V276.84c0-6.81,6.36-12,13.54-11.1q38.25,4.59,76.43,6,42.11,1.55,84.17-.82,29.28-1.63,58.45-5.15C852.84,264.85,859.23,270,859.23,276.84Z" transform="translate(-4 -4)"/><g class="cls-4"><path class="cls-5" d="M779.13,287c-.41,4.12,1.72,9.81,2.75,15.11q-41.34,1.23-82.66.23-37.54-.89-75.15-3.62c-6.23-.44-11-5.36-11-11.19V276.84c0-6.81,6.36-12,13.54-11.1q38.25,4.59,76.43,6,42.11,1.55,84.17-.82a8.78,8.78,0,0,0-1,.82A25.27,25.27,0,0,0,779.13,287Z" transform="translate(-4 -4)"/></g><g class="cls-4"><path class="cls-5" d="M699.22,302.3q-37.54-.89-75.15-3.62c-6.23-.44-11-5.36-11-11.19V276.84c0-6.81,6.36-12,13.54-11.1q38.25,4.59,76.43,6a34.44,34.44,0,0,0-4.64,9.42C696.3,288,696.9,295.38,699.22,302.3Z" transform="translate(-4 -4)"/></g><g class="cls-4"><path class="cls-5" d="M736.4,220.22c-2.63,5.68-2.07,12.28-.59,18.34a70.41,70.41,0,0,0,8.8,20.79c.06.09.09.15.15.23a814.66,814.66,0,0,1-111-6.38V192.61a840,840,0,0,0,123.48,5.95c-3.82,3.47-7.64,7-11.43,10.45S738.44,215.81,736.4,220.22Z" transform="translate(-4 -4)"/></g><g class="cls-4"><path class="cls-5" d="M680.05,226.17c-3.26,11-.82,22.31,5.17,31.88q-25.71-1.64-51.41-4.85V192.61q33.36,4.06,66.69,5.44C691.32,206,683.37,215,680.05,226.17Z" transform="translate(-4 -4)"/></g><g class="cls-16"><path class="cls-7" d="M781.28,222.29c-.82,4.6.15,9.75,3.71,13a21.06,21.06,0,0,0,7.17,3.86A95.3,95.3,0,0,0,805,242.88c3.09.66,6.38,1.15,9.36.18,5.88-1.92,8.16-8.45,9.66-14.13,1.08-4.1,2.16-8.28,1.9-12.5s-2.1-8.56-5.8-11c-4.56-3-10.79-2.37-16-.66C792.68,208.52,783.52,209.7,781.28,222.29Z" transform="translate(-4 -4)"/></g><g class="cls-16"><path class="cls-7" d="M818.9,290.7l17.7-2c4.31-.48,9.89-2.31,9.56-6.38s-5.88-5.07-10.1-5.1c-6.85,0-31.28-3.95-34.93,2.91C795.65,290.45,812.49,291.42,818.9,290.7Z" transform="translate(-4 -4)"/></g></g></g></svg>