<svg id="Ñëîé_1" data-name="Ñëîé 1" xmlns="http://www.w3.org/2000/svg" xmlns:xlink="http://www.w3.org/1999/xlink" viewBox="0 0 987.51 987.51"><defs><style>.cls-1{fill:url(#linear-gradient);}</style><linearGradient id="linear-gradient" x1="4097.18" y1="1081.94" x2="5084.69" y2="1081.94" gradientUnits="userSpaceOnUse"><stop offset="0" stop-color="#00b827"/><stop offset="1" stop-color="#00ff6d"/></linearGradient></defs><path class="cls-1" d="M4995.7,962.24H4724.88A14.24,14.24,0,0,1,4710.64,948V677.18a89,89,0,0,0-89-89h-61.42a89,89,0,0,0-89,89V948A14.24,14.24,0,0,1,4457,962.24H4186.18a89,89,0,0,0-89,89v61.41a89,89,0,0,0,89,89H4457a14.23,14.23,0,0,1,14.24,14.24V1486.7a89,89,0,0,0,89,89h61.42a89,89,0,0,0,89-89V1215.88a14.23,14.23,0,0,1,14.24-14.24H4995.7a89,89,0,0,0,89-89v-61.41A89,89,0,0,0,4995.7,962.24Z" transform="translate(-4097.18 -588.18)"/></svg>