<svg xmlns="http://www.w3.org/2000/svg" xmlns:xlink="http://www.w3.org/1999/xlink" viewBox="0 0 1500 1500"><defs><style>.cls-1{fill:none;}.cls-2{isolation:isolate;}.cls-3{fill:#fff;}.cls-4{fill:#a8dcff;}.cls-5{fill:#72c2f7;}.cls-6{clip-path:url(#clip-path);}.cls-7{fill:#0c8ae0;}.cls-8{mix-blend-mode:screen;}.cls-9{fill:#85b5d6;}.cls-10,.cls-18{mix-blend-mode:multiply;}.cls-11{fill:#2e9be6;}.cls-12{fill:#e3f4ff;}.cls-13{fill:#52a5d9;}.cls-14{fill:#f0f9ff;}.cls-15{clip-path:url(#clip-path-2);}.cls-16{fill:#f5fbff;}.cls-17{fill:#9ad6fc;}.cls-18{fill:#b8e2ff;}.cls-19{fill:#0e6eb0;}</style><clipPath id="clip-path" transform="translate(-4 -4)"><path class="cls-1" d="M1244.77,811.87c23.21-19.47,45.88-60,53.72-117s-46-126.67-46-126.67l8.07-18.42-100.36-44-8.07,18.42s-87.76,7.64-124.33,52-51,88.52-49.62,118.78,12.59,49.44-3.59,80.77-55.19,45-77,94.72L751.45,1203.89c-11.3,25.79,31.58,42.39,107.53,75.68l36.72,16.09c75.95,33.29,117.21,53.57,128.52,27.78L1170.34,990c21.8-49.73,5.39-87.66,17.47-120.79S1221.55,831.33,1244.77,811.87Z"/></clipPath><clipPath id="clip-path-2" transform="translate(-4 -4)"><polygon class="cls-1" points="914.55 1085.92 305 1085.92 305 723.18 913.66 725.61 914.55 1085.92"/></clipPath></defs><g class="cls-2"><g id="ƒŒƒCƒ__6" data-name="ƒŒƒCƒ„[_6"><rect class="cls-3" width="1500" height="1500" rx="418.14"/><path class="cls-4" d="M1244.77,811.87c23.21-19.47,45.88-60,53.72-117s-46-126.67-46-126.67l8.07-18.42-100.36-44-8.07,18.42s-87.76,7.64-124.33,52-51,88.52-49.62,118.78,12.59,49.44-3.59,80.77-55.19,45-77,94.72L751.45,1203.89c-11.3,25.79,31.58,42.39,107.53,75.68l36.72,16.09c75.95,33.29,117.21,53.57,128.52,27.78L1170.34,990c21.8-49.73,5.39-87.66,17.47-120.79S1221.55,831.33,1244.77,811.87Z" transform="translate(-4 -4)"/><path class="cls-5" d="M1232.39,799.3c15.81-13.26,34.56-41.93,44.44-85l-248.65-109c-25,36.45-33.36,69.67-32.39,90.29a202.62,202.62,0,0,0,2.53,21.82c3,19.49,6.08,39.64-7.73,66.38-8.09,15.68-20.29,26.87-33.21,38.73C941.59,837,925.26,852,914,877.69l-146.13,333.4c-.75,1.73-1.7,3.88,8.06,10.79,12.89,9.12,36,19.53,62.62,31.2l26.89,11.75,36.72,16.1c4.9,2.14,22.79,10,26.87,11.81,26.63,11.67,49.93,21.6,65.38,24.89,11.69,2.5,12.63.35,13.39-1.38l146.12-333.4c11.27-25.7,11.21-47.85,11.16-69.28,0-17.53-.07-34.09,6-50.67,10.3-28.27,27.22-39.65,43.57-50.66A202.43,202.43,0,0,0,1232.39,799.3Z" transform="translate(-4 -4)"/><g class="cls-6"><rect class="cls-7" x="821.55" y="899.6" width="339.13" height="290.94" transform="translate(498.88 -313.96) rotate(23.67)"/></g><ellipse class="cls-3" cx="984.67" cy="1039.32" rx="74.41" ry="82.92" transform="translate(-366.5 1519.96) rotate(-66.33)"/><path class="cls-7" d="M1001.13,999s-78,50.37-31.08,70.91S1001.13,999,1001.13,999Z" transform="translate(-4 -4)"/><rect class="cls-3" x="953.83" y="924.98" width="160.6" height="18.77" rx="4.67" transform="translate(458.06 -340.54) rotate(23.67)"/><rect class="cls-3" x="865.83" y="1125.76" width="160.6" height="18.77" rx="4.67" transform="translate(531.26 -288.33) rotate(23.67)"/><g class="cls-8"><path class="cls-9" d="M1038.39,626.15a16.13,16.13,0,0,1-2.12-1.14c-6.5-4.13-8.56-12.13-4.62-17.86,4.16-6,8.74-12.08,13.6-18,20.79-25.22,64.26-36.95,88.32-41.69,7.29-1.44,14.94,3,17.07,9.92s-2.05,13.69-9.34,15.13c-34.65,6.83-62.21,19.24-73.71,33.19-4.45,5.4-8.63,10.92-12.41,16.41C1051.65,627.25,1044.51,628.83,1038.39,626.15Z" transform="translate(-4 -4)"/><path class="cls-9" d="M856,1054.79c-7.07-3.1-10.55-10.76-7.77-17.1l69.43-158.41c11-25.08,27.06-39.82,42.6-54.08,13.14-12.05,25.54-23.43,33.91-39.63,14.28-27.66,11.11-48.35,8-68.36a198.13,198.13,0,0,1-2.49-21.47c-.6-12.7,2.27-27.92,8.29-44,2.43-6.5,10.24-9.51,17.44-6.73s11.07,10.31,8.64,16.8c-6.57,17.6-7.13,29.4-6.87,34.87a179.28,179.28,0,0,0,2.23,18.93c3.3,21.5,7.41,48.25-10.28,82.51-10.23,19.79-25.41,33.72-38.8,46-15,13.8-28,25.71-37.09,46.4L873.8,1048.91C871,1055.26,863,1057.89,856,1054.79Z" transform="translate(-4 -4)"/><path class="cls-9" d="M803.48,1174.52c-7.08-3.1-10.56-10.76-7.77-17.11l29.87-68.15c2.78-6.35,10.77-9,17.84-5.88s10.55,10.76,7.77,17.11l-29.87,68.15C818.54,1175,810.55,1177.62,803.48,1174.52Z" transform="translate(-4 -4)"/></g><g class="cls-10"><path class="cls-4" d="M850.55,1275.87l-30.66-13.44c10.59,4.72,22.27,9.78,34.87,15.29Z" transform="translate(-4 -4)"/><path class="cls-4" d="M1244.77,811.87c23.21-19.47,45.88-60,53.72-117s-46-126.67-46-126.67l8.07-18.42L1215.38,530l-8.07,18.42s53.86,69.72,46,126.67-30.5,97.52-53.72,117-44.88,24.25-56.95,57.38,4.33,71.07-17.47,120.8l-146.13,333.4c-9.18,20.95-38.15,11.49-89.42-10.64l6.06,2.65c75.95,33.29,117.21,53.57,128.52,27.78L1170.34,990c21.8-49.73,5.39-87.66,17.47-120.79S1221.55,831.33,1244.77,811.87Z" transform="translate(-4 -4)"/></g><path class="cls-11" d="M1163.09,459.63h121.7a6.75,6.75,0,0,1,6.75,6.75v73.79a0,0,0,0,1,0,0h-135.2a0,0,0,0,1,0,0V466.38A6.75,6.75,0,0,1,1163.09,459.63Z" transform="translate(299.62 -453.28) rotate(23.67)"/><path class="cls-4" d="M849,384.56,790.3,347.41c-40.75-25.8-65.06-68.19-65.06-113.46H496.85c0,45.27-24.31,87.66-65.06,113.46L373.1,384.56c-40.75,25.8-65.05,68.19-65.05,113.46V1266.6c0,33,29.31,59.77,65.47,59.77H851.61c34.48,0,62.43-25.52,62.43-57V498C914,452.75,889.73,410.36,849,384.56Z" transform="translate(-4 -4)"/><path class="cls-12" d="M340.25,491.25Q340,494.63,340,498V1266.6c0,16.86,15,30.58,33.5,30.58H851.61c16.8,0,30.46-12.47,30.46-27.8V498q0-3.39-.24-6.77Z" transform="translate(-4 -4)"/><rect class="cls-13" x="304.55" y="719.18" width="605.99" height="362.75"/><path class="cls-14" d="M760.26,803.79H443.56c-8.69,0-15.74-6.43-15.74-14.36h0c0-7.94,7.05-14.37,15.74-14.37h316.7c8.69,0,15.73,6.43,15.73,14.37h0C776,797.36,769,803.79,760.26,803.79Z" transform="translate(-4 -4)"/><path class="cls-14" d="M676,865.87H514.61c-8.69,0-15.73-6.43-15.73-14.37h0c0-7.93,7-14.36,15.73-14.36H676c8.69,0,15.73,6.43,15.73,14.36h0C691.74,859.44,684.7,865.87,676,865.87Z" transform="translate(-4 -4)"/><g class="cls-15"><path class="cls-16" d="M287.24,1025.23s54.81-112.11,168.5-71.34,137,68.56,208.09,32.43,140.08-49.11,187.78-7.41S977.48,992.8,977.48,992.8L993.72,1072l-71.56,62.54s-255.8,36.13-293.86,37.52-236,1.39-287.77,1.39-88.31-1.39-88.31-1.39Z" transform="translate(-4 -4)"/></g><ellipse class="cls-14" cx="451.23" cy="914.68" rx="23.35" ry="21.31"/><ellipse class="cls-14" cx="663.38" cy="928.58" rx="18.27" ry="16.68"/><ellipse class="cls-14" cx="824.77" cy="843.34" rx="26.39" ry="24.09"/><path class="cls-14" d="M835.88,926.09c0,7.68-6.82,13.9-15.23,13.9s-15.22-6.22-15.22-13.9,6.81-13.9,15.22-13.9S835.88,918.42,835.88,926.09Z" transform="translate(-4 -4)"/><g class="cls-8"><path class="cls-17" d="M373.52,548.71c-11.75,0-21.27-8.69-21.27-19.41,0-51.61,27.74-100,74.21-129.4L457,380.57a191.12,191.12,0,0,0,32.45-25.81c7.95-7.89,21.41-8.4,30.05-1.14A18.24,18.24,0,0,1,520.73,381a233.13,233.13,0,0,1-39.51,31.43l-30.53,19.32c-35,22.17-55.91,58.62-55.91,97.51C394.78,540,385.26,548.71,373.52,548.71Z" transform="translate(-4 -4)"/><path class="cls-17" d="M373.52,1226.25c-11.75,0-21.27-8.69-21.27-19.41V645.35c0-10.72,9.52-19.41,21.27-19.41s21.26,8.69,21.26,19.41v561.49C394.78,1217.56,385.26,1226.25,373.52,1226.25Z" transform="translate(-4 -4)"/></g><path class="cls-18" d="M849,384.56,790.3,347.41c-40.75-25.8-65.06-68.19-65.06-113.46H624.52c0,45.27,24.31,87.66,65.06,113.46l58.68,37.15C789,410.36,813.32,452.75,813.32,498v771.36c0,31.47-28,57-62.42,57H851.61c34.48,0,62.43-25.52,62.43-57V498C914,452.75,889.73,410.36,849,384.56Z" transform="translate(-4 -4)"/><path class="cls-19" d="M483.87,179.92H725a22.17,22.17,0,0,1,22.17,22.17v80.68a0,0,0,0,1,0,0H460.87a0,0,0,0,1,0,0V202.92A23,23,0,0,1,483.87,179.92Z"/></g></g></svg>