<svg xmlns="http://www.w3.org/2000/svg" xmlns:xlink="http://www.w3.org/1999/xlink" viewBox="0 0 1500 1500"><defs><style>.cls-1{fill:#fff;}.cls-2{opacity:0.22;}.cls-3{fill:url(#linear-gradient);}.cls-4{fill:url(#linear-gradient-2);}.cls-5{fill:url(#linear-gradient-3);}.cls-6{fill:url(#linear-gradient-4);}</style><linearGradient id="linear-gradient" x1="462.61" y1="499.49" x2="1682.82" y2="499.49" gradientUnits="userSpaceOnUse"><stop offset="0" stop-color="#414042"/><stop offset="1" stop-color="#808285"/></linearGradient><linearGradient id="linear-gradient-2" x1="742.79" y1="499.49" x2="1402.64" y2="499.49" gradientUnits="userSpaceOnUse"><stop offset="0" stop-color="#27aae1"/><stop offset="1" stop-color="#1c75bc"/></linearGradient><linearGradient id="linear-gradient-3" x1="730.65" y1="501.29" x2="1417.53" y2="501.29" xlink:href="#linear-gradient-2"/><linearGradient id="linear-gradient-4" x1="723.52" y1="501.29" x2="1424.83" y2="501.29" xlink:href="#linear-gradient-2"/></defs><g id="Layer_1" data-name="Layer 1"><rect class="cls-1" width="1500" height="1500" rx="336.29"/><g class="cls-2"><polygon class="cls-1" points="706.46 164.06 827.17 413.57 880.63 413.57 766.15 164.06 706.46 164.06"/></g><g class="cls-2"><polygon class="cls-1" points="805.8 164.39 926.5 413.89 1028.23 413.9 913.75 164.39 805.8 164.39"/></g><path class="cls-3" d="M1679.54,437.66a55.89,55.89,0,0,0-51.12-49.81c-68.83-5.45-133.86-42.81-171-105.78a208.69,208.69,0,0,1-8.05-197.91A53.77,53.77,0,0,0,1432,17.07,613.91,613.91,0,0,0,1320.3-46.28c-24.41-10.65-53.23-2.8-68.49,18.84-39.23,55.63-104.81,92.1-179.1,92.1S932.85,28.19,893.62-27.44c-15.27-21.64-44.08-29.49-68.5-18.84A614.16,614.16,0,0,0,713.45,17.07a53.75,53.75,0,0,0-17.39,67.09,208.69,208.69,0,0,1-8,197.91C650.87,345,585.84,382.4,517,387.85a55.91,55.91,0,0,0-51.13,49.81,586.09,586.09,0,0,0,0,123.65A55.9,55.9,0,0,0,517,611.12c68.83,5.45,133.86,42.81,171,105.78a208.69,208.69,0,0,1,8,197.91,53.75,53.75,0,0,0,17.39,67.09,614.16,614.16,0,0,0,111.67,63.35c24.42,10.66,53.23,2.8,68.5-18.84,39.23-55.63,104.81-92.09,179.09-92.09s139.87,36.46,179.1,92.09c15.26,21.64,44.07,29.5,68.49,18.84A613.91,613.91,0,0,0,1432,981.9a53.76,53.76,0,0,0,17.39-67.09,208.69,208.69,0,0,1,8.05-197.91c37.14-63,102.17-100.33,171-105.78a55.89,55.89,0,0,0,51.12-49.81,584.31,584.31,0,0,0,0-123.65ZM1072.71,690.48c-107.58,0-195.11-85.68-195.11-191s87.53-191,195.11-191,195.12,85.68,195.12,191S1180.3,690.48,1072.71,690.48Z" transform="translate(-322.71 246.93)"/><path class="cls-4" d="M1072.71,176.53c-181.92,0-329.92,144.88-329.92,323s148,323,329.92,323,329.93-144.88,329.93-323S1254.64,176.53,1072.71,176.53Zm0,632.31c-174.26,0-316-138.77-316-309.35s141.77-309.36,316-309.36,316,138.78,316,309.36S1247,808.84,1072.71,808.84Z" transform="translate(-322.71 246.93)"/><path class="cls-5" d="M1074.09,168C884.72,168,730.65,317.49,730.65,501.3s154.07,333.33,343.44,333.33S1417.53,685.1,1417.53,501.3,1263.47,168,1074.09,168Zm0,652.63c-181.4,0-329-143.23-329-319.29S892.69,182,1074.09,182s329,143.23,329,319.3S1255.49,820.59,1074.09,820.59Z" transform="translate(-322.71 246.93)"/><path class="cls-6" d="M1074.17,155.41c-193.35,0-350.65,155.16-350.65,345.89s157.3,345.88,350.65,345.88S1424.83,692,1424.83,501.3,1267.53,155.41,1074.17,155.41Zm0,677.2C889,832.61,738.28,684,738.28,501.3S889,170,1074.17,170,1410.06,318.6,1410.06,501.3,1259.38,832.61,1074.17,832.61Z" transform="translate(-322.71 246.93)"/></g></svg>