<svg xmlns="http://www.w3.org/2000/svg" viewBox="0 0 1500 1500"><defs><style>.cls-1,.cls-12,.cls-15{fill:#fff;}.cls-2{fill:#ad1f27;}.cls-3{fill:#460405;}.cls-4{fill:#6d0006;}.cls-5{fill:#9e0035;}.cls-6{fill:#cc003f;}.cls-7{fill:#890035;}.cls-8{fill:#7c0116;}.cls-9{fill:#590009;}.cls-10{fill:#7f000c;}.cls-11{fill:#ffba7b;}.cls-12{opacity:0.3;}.cls-13{fill:#e1f3fd;}.cls-14{fill:#c5eaff;}.cls-15{opacity:0.72;}</style></defs><g id="ƒŒƒCƒ__6" data-name="ƒŒƒCƒ„[_6"><rect class="cls-1" width="1500" height="1500" rx="418.14"/><path class="cls-2" d="M805.73,696c12.79-68.62-1.86-135-44.68-199.26-13.48-20.23-28.23-40-41.93-60.1-5.37-7.89-11.27-16.06-9.77-25.16,6.62-40.11,11.7-80.53,20.74-120.14,8.91-39,4.62-80.63,27.71-117.13,7.82-12.37,6.59-29,8-43.83.67-7.1-2.2-13.81-14.86-15.12C707,110.67,663.67,102,620.27,93.93c-24.15-4.47-29.87-4.65-33.35,14.15-9.3,50.16,2.8,36.07.54,54.91-8.58,71.63-23.34,146.92-35.22,218.11-1.51,9.09-6.24,16.11-14.42,21.9-20.35,14.42-41.05,28.55-60.82,43.45C415.88,492.5,378.93,549,368.05,617.89,351.61,722,332.63,825.59,315.46,929.53c-11.55,69.93-25.27,139.49-34.38,209.85-4.67,36-13.42,71.49-19.67,107.32-6.55,37.56,18.71,65.24,66.58,73.44q141.61,24.25,283.29,48.22c7.81,1.32,15.55,2.77,23.64,2.33,35.79-1.94,59.16-20,64.42-50.82Q731.71,1130,763.83,940c7-41.3,14.19-83.38,21.11-124l.23,0C791.72,777.58,798.29,735.92,805.73,696Z" transform="translate(-4 -4)"/><path class="cls-2" d="M751.53,126.4c4.08-19.56.27-29.94-11.33-32-37.15-6.51-74.35-12.76-111.54-19-12.13-2-19.71,5.89-22.23,26.79C654.64,112.21,702.54,121,751.53,126.4Z" transform="translate(-4 -4)"/><path class="cls-3" d="M791,686.32c12.58-67.83-.42-133.07-39.66-196.06-12.34-19.82-25.89-39.09-38.44-58.83-4.92-7.73-10.34-15.71-8.85-24.7,6.55-39.63,11.67-79.55,20.48-118.72,8.67-38.59,5.09-79.6,26.93-115.83,7.4-12.28,6.42-28.65,7.88-43.32.7-7-1.91-13.6-13.68-14.77-40.84-4.06-81.1-12.23-121.42-19.72-22.44-4.17-27.76-4.3-31.18,14.29-9.15,49.58,2.25,35.56,0,54.16-8.69,70.76-23.16,145.19-34.91,215.54-1.5,9-6,16-13.64,21.75-19.08,14.43-38.49,28.57-57,43.46-57.34,46-92.28,102.16-103.08,170.22-16.33,102.83-35,205.27-52,308-11.44,69.11-24.88,137.88-34.05,207.38-4.7,35.61-13.19,70.67-19.36,106.08-6.46,37.12,16.78,64.19,61.25,71.81q131.58,22.55,263.21,44.8c7.26,1.23,14.45,2.58,22,2.07,33.33-2.27,55.26-20.26,60.46-50.78q32-187.64,63.78-375.63c6.93-40.82,14.35-84.28,20.9-122.75l.21,0C777.25,766.32,783.66,725.81,791,686.32Z" transform="translate(-4 -4)"/><path class="cls-3" d="M746.07,125.12c4-19.34.55-29.55-10.23-31.44C701.33,87.63,666.77,81.83,632.21,76c-11.27-1.9-18.4,6-21,26.65C656,112.06,700.53,120.31,746.07,125.12Z" transform="translate(-4 -4)"/><path class="cls-4" d="M566.69,297.68l21-140.31s-7.45-16.05-6.64-30.59,5.85-34.33,5.85-34.33,2.62-5.64,20.29-3.77c0,0,1.93-19.45,26.32-15.3l108,18.38s18.66,3.13,15.83,24c0,0,14,2.45,13.12,9.65S769,158,764.24,170.64a46.56,46.56,0,0,1-15,19.86L725.82,324.76S666.24,329.31,566.69,297.68Z" transform="translate(-4 -4)"/><path class="cls-5" d="M391.31,733.6l-84.47,496.11s-7,42.45,27.08,54.85L612.4,1332s37.72.24,47.39-41l84.67-497.29Z" transform="translate(-4 -4)"/><path class="cls-6" d="M388.7,733.33s42.39,36.74,174.89,60.52,182.32.3,182.32.3-22.68-26-173.76-53S388.7,733.33,388.7,733.33Z" transform="translate(-4 -4)"/><path class="cls-7" d="M305.37,1228.88s-5.37,45.5,28.55,55.68l280.5,47.76s40.49-3.68,47-41.89C661.41,1290.43,472.08,1221.47,305.37,1228.88Z" transform="translate(-4 -4)"/><path class="cls-8" d="M744.43,793.89,660,1289.83s-.36,41.39-45.57,42.49l-279.74-47.63S576,1328.2,608.2,1264.84s91.36-461.95,91.36-461.95S730.42,798.24,744.43,793.89Z" transform="translate(-4 -4)"/><path class="cls-9" d="M726.62,324.91l23.07-134.32s12.11-7.25,16.16-24.48,4.69-40.54,4.69-40.54.56-7.4-13.15-9.76c0,0,3.48-20.75-15.89-24l-12.91-2.2S742,92.28,744,99.74s.55,17.86.55,17.86,10.79,3.27,9.13,14.69-2.85,38.78-10.28,42.1-87.77-9.19-120.78-13.67c0,0,77.94,18.56,93.81,21.26s.36,103.55-9.44,118.86-16.87,24.32-66.91,15.86C640.1,316.7,703.17,327.18,726.62,324.91Z" transform="translate(-4 -4)"/><path class="cls-10" d="M590.5,128.42s6.78-28.45,5.82-30.91,4.21-6.85,21.19-4.19,89.35,16.59,89.35,16.59S599.86,99.49,590.5,128.42Z" transform="translate(-4 -4)"/><path class="cls-10" d="M572.92,290.18,593,164.4s8.32-3.4,34.22.55S668.44,174,668.44,174s-43.93.09-49.63,9.22-27.17,109.18-6.68,118.87C612.13,302.13,584.12,297.59,572.92,290.18Z" transform="translate(-4 -4)"/><path class="cls-10" d="M614,89.84s5.07-14.53,17.31-12.45L693.43,88s-53.53-9.11-61.32,5Z" transform="translate(-4 -4)"/><path class="cls-11" d="M352.73,817H732.07a7.87,7.87,0,0,1,7.87,7.87v200.5a7.88,7.88,0,0,1-7.88,7.88H352.73a7.87,7.87,0,0,1-7.87-7.87V824.92a7.87,7.87,0,0,1,7.87-7.87Z" transform="translate(158.98 -81.91) rotate(9.66)"/><path class="cls-12" d="M324.88,1232.78l104-610.56s28.54-136.6,119.84-182.87c0,0,33.85,2,15,32.76-4,6.44-67.62,43-91.09,164.13C359,1222.23,324.88,1232.78,324.88,1232.78Z" transform="translate(-4 -4)"/><path class="cls-12" d="M553,431.79s25.07-26.93,29.72-47.71c0,0,15.19,1.24,12.51,22.89a51.4,51.4,0,0,1-5.76,17.56,108.46,108.46,0,0,1-12.83,19.55S574.94,434.92,553,431.79Z" transform="translate(-4 -4)"/><path class="cls-12" d="M720.5,689.79S625.68,1240.18,630.14,1253s21,19.7,21,19.7,82.5-510.59,91.74-538.84S720.5,689.79,720.5,689.79Z" transform="translate(-4 -4)"/><path class="cls-12" d="M739.94,575.6s-20.21,98.89-14.13,102.24,22.76,25,22.76,25,10.66-68.88,10.57-75.61C759,613.42,739.94,575.6,739.94,575.6Z" transform="translate(-4 -4)"/><path class="cls-13" d="M1117.33,1267.91c-31,2-60.46,3.11-66-1.16-8.23-6.28-22.21-47.23-42.32-133.7-1-4.23-1.66-7.18-2-8.46l-.34-1.35c-15.14-59-13.25-94-7.17-110.31,6.53-17.53,17.21-24.21,35.87-37.77,21.05-15.31,44.91-32.65,64.06-63.4,27.27-43.76,29.17-87.91,5.81-135-13-26.11-86.37-144-87.09-145.11l-.72-1.1L867.23,669.06,717,706.69l-.1,1.32c-.1,1.33-8.48,139.91-7.46,169C711.26,929.53,734,967.45,778.79,993c31.47,17.92,60.72,21.81,86.53,25.25,22.86,3,37.4,6.13,51.49,18.44,13.11,11.46,31.46,36.26,46.26,95.39l.33,1.34c.33,1.28,1.13,4.21,2.28,8.4,23.48,85.6,34.2,128.78,30,138.22-2.88,6.41-29.83,20.17-58.35,33.22-38.69,17.71-75,39.14-76.17,51.41a6.41,6.41,0,0,0,2.22,5.65c15.62,14.17,121.95-8.46,171-19.86l0,.16,4.53-1.22,3.37-.81,2.34-.67v-.06c38.32-10.48,152.72-43.38,160-64a5.49,5.49,0,0,0-1.44-5.87C1195,1269.43,1159.46,1265.15,1117.33,1267.91Z" transform="translate(-4 -4)"/><path class="cls-14" d="M1107.21,1275.88c-28.54,1.39-59.54,2.93-64.77-1.44-7.7-6.44-25.05-56.36-45.35-143-1-4.24-1.69-7.19-2-8.48l-.35-1.35c-15.16-59.21-15.28-94.92-10-111.07,5.65-17.35,26-25.3,42.85-38.44,19.07-14.82,40.67-31.63,57.65-61.89,24.19-43.09,25-87.07,2.53-134.48-12.48-26.31-78.23-128.58-78.92-129.72l-.68-1.12L870.71,680.11l-137.52,34.4-.07,1.31c-.06,1.33-9.15,122.55-7.6,151.63,2.8,52.38,24.47,90.67,66.27,117.06,29.35,18.52,56.35,23,80.17,27,21.11,3.52,43.22,3.8,56.44,16.37,12.31,11.7,28.76,40.2,43.61,99.49l.34,1.35c.33,1.28,1.13,4.22,2.27,8.42,23.39,85.87,34,138.2,30.29,147.53-2.52,6.33-29.75,18.74-55.73,31.16-35.24,16.86-71.31,29.81-73.86,41.11-.49,2.16.51,4.06,2.16,5.68,14.67,14.46,112.07-5.89,157-16.24l0,.15,4.15-1.11,3.07-.74,2.15-.62,0-.06c35.06-9.66,139.67-40.09,145.9-60.46a3.73,3.73,0,0,0-1-4C1181.13,1270.77,1145.93,1274,1107.21,1275.88Z" transform="translate(-4 -4)"/><path class="cls-5" d="M738.69,859.27s5.93,98,78.72,127.09c56.32,22.5,118.3,18.57,134.37,13.49,20.26-6.4,71.79-21,109.69-72.3S1083.11,800,1070.78,778Z" transform="translate(-4 -4)"/><path class="cls-6" d="M738.69,859.27s9.32-22.2,161-60.89S1070.78,778,1070.78,778s15.34,20.63-159.92,64.82C736.52,886.74,738.69,859.27,738.69,859.27Z" transform="translate(-4 -4)"/><path class="cls-8" d="M951.78,999.85s83.43-19.9,117.7-84.94,1.3-136.95,1.3-136.95,8.14,14.48-70,39.14c0,0,46.25,2.84,44,47.38S1036.57,967.57,951.78,999.85Z" transform="translate(-4 -4)"/><path class="cls-15" d="M772.54,806.53S762.44,869.38,795,929.74s127.4,66.38,127.4,66.38-80.5-17-103.32-72.48-18.35-109.7-18.35-109.7S780.21,799.55,772.54,806.53Z" transform="translate(-4 -4)"/><path class="cls-15" d="M776.16,722.32l-4.09,70.36s24.91-.16,29.7,13.44c0,0-.94-49-3.93-66.09S776.16,722.32,776.16,722.32Z" transform="translate(-4 -4)"/><path class="cls-1" d="M1011.2,1268.24s12.51,16.12-10.47,29.21-114.31,45.64-115.72,57,101-.7,161.61-16.9,77.13-24.28,77.13-24.28-78.34,23.47-138.59,29.23-57.41,3.64-56.76-.44,73.82-30.72,84.25-41.46c0,0,16.62,3.05,35.17-8.91,0,0-24.62,9.31-26.43.82S1011.2,1268.24,1011.2,1268.24Z" transform="translate(-4 -4)"/><path class="cls-15" d="M1031.58,761.61s34.81,49.6,31.07,106.73-36.9,85.94-36.9,85.94,8.25-2.07,30.42-26.34,23.67-79.6,16.62-112.76a197.43,197.43,0,0,0-21.87-57.07S1043.3,753.33,1031.58,761.61Z" transform="translate(-4 -4)"/><path class="cls-15" d="M997.67,714.29s27.07,39,29.52,42c0,0,13.91-6.32,22-2.48,0,0-19.89-27.95-26.2-35.58S998.11,708,997.67,714.29Z" transform="translate(-4 -4)"/><path class="cls-1" d="M963.2,1080.07s38.51,137.84,45.07,177.92c0,0,6.07-7.5-5-50.54s-28.65-113.13-28.65-113.13S965.38,1078,963.2,1080.07Z" transform="translate(-4 -4)"/><path class="cls-1" d="M930.16,1020.61s20.63,12.64,30.21,48.25c0,0,8.27,2.94,10.53,10.75C970.9,1079.61,955.8,1032.19,930.16,1020.61Z" transform="translate(-4 -4)"/></g></svg>