<svg id="Layer_1" data-name="Layer 1" xmlns="http://www.w3.org/2000/svg" xmlns:xlink="http://www.w3.org/1999/xlink" viewBox="0 0 342 361.4"><defs><style>.cls-1{fill:url(#linear-gradient);}.cls-2{fill:url(#linear-gradient-2);}</style><linearGradient id="linear-gradient" x1="129" y1="326.05" x2="471" y2="326.05" gradientUnits="userSpaceOnUse"><stop offset="0" stop-color="red"/><stop offset="1" stop-color="#f15a24"/></linearGradient><linearGradient id="linear-gradient-2" x1="277.72" y1="218.38" x2="322.28" y2="218.38" xlink:href="#linear-gradient"/></defs><path class="cls-1" d="M407,176.32a22.28,22.28,0,0,0-27.91,34.73,126.44,126.44,0,1,1-158.22,0A22.28,22.28,0,1,0,193,176.32,170.32,170.32,0,0,0,129,309.7c0,94.29,76.71,171,171,171S471,404,471,309.7A170.29,170.29,0,0,0,407,176.32Z" transform="translate(-129 -119.3)"/><path class="cls-2" d="M300,317.46a22.29,22.29,0,0,0,22.28-22.28V141.58a22.28,22.28,0,1,0-44.56,0v153.6A22.29,22.29,0,0,0,300,317.46Z" transform="translate(-129 -119.3)"/></svg>