<svg id="Ñëîé_1" data-name="Ñëîé 1" xmlns="http://www.w3.org/2000/svg" xmlns:xlink="http://www.w3.org/1999/xlink" viewBox="0 0 186.83 314.02"><defs><style>.cls-1{fill-rule:evenodd;fill:url(#linear-gradient);}</style><linearGradient id="linear-gradient" x1="103.3" y1="50.38" x2="290.13" y2="50.38" gradientUnits="userSpaceOnUse"><stop offset="0" stop-color="#00d1ff"/><stop offset="1" stop-color="#0090d4"/></linearGradient></defs><path class="cls-1" d="M238.82-96.74,111.56,30.51a28,28,0,0,0,0,39.72L238.82,197.5c11.47,11.46,27.26,13.87,38.75,2.39l4.78-4.78c9.1-10.06,11-22,1.43-31.12-31.56-31.09-62.66-62.67-94.24-93.76a28,28,0,0,1,0-39.72C221.12-1,252.22-32.15,283.78-63.26c7.87-7.45,8-16.86,2.73-25.82a34,34,0,0,0-6.68-8l-2.26-2c-11.49-11.48-27.28-9.08-38.75,2.39Z" transform="translate(-103.3 106.63)"/></svg>