<svg xmlns="http://www.w3.org/2000/svg" xmlns:xlink="http://www.w3.org/1999/xlink" viewBox="0 0 1500 1500"><defs><style>.cls-1{fill:#fff;}.cls-2{opacity:0.22;}.cls-3{fill:url(#linear-gradient);}.cls-4{opacity:0.65;}.cls-5{fill:#ed1c24;opacity:0.49;}.cls-6{opacity:0.26;}.cls-7{fill:#f26522;}.cls-8{fill:url(#linear-gradient-2);}.cls-9{fill:url(#linear-gradient-3);}.cls-10{fill:url(#linear-gradient-4);}.cls-11{fill:url(#linear-gradient-5);}.cls-12{fill:url(#linear-gradient-6);}.cls-13{fill:url(#linear-gradient-7);}</style><linearGradient id="linear-gradient" x1="795.86" y1="675.42" x2="1336.94" y2="675.42" gradientUnits="userSpaceOnUse"><stop offset="0" stop-color="#ed1c24"/><stop offset="1" stop-color="#f7941e"/></linearGradient><linearGradient id="linear-gradient-2" x1="710.58" y1="1023.57" x2="1422.22" y2="1023.57" gradientUnits="userSpaceOnUse"><stop offset="0" stop-color="#414042"/><stop offset="1" stop-color="#6d6e71"/></linearGradient><linearGradient id="linear-gradient-3" x1="997.9" y1="153.91" x2="1134.92" y2="-83.41" xlink:href="#linear-gradient"/><linearGradient id="linear-gradient-4" x1="1524.74" y1="629.86" x2="1611.51" y2="479.58" xlink:href="#linear-gradient"/><linearGradient id="linear-gradient-5" x1="608.06" y1="629.86" x2="521.29" y2="479.58" xlink:href="#linear-gradient"/><linearGradient id="linear-gradient-6" x1="1348.13" y1="316.75" x2="1502.36" y2="49.61" xlink:href="#linear-gradient"/><linearGradient id="linear-gradient-7" x1="677.28" y1="235.64" x2="737.85" y2="130.72" xlink:href="#linear-gradient"/></defs><g id="Layer_1" data-name="Layer 1"><rect class="cls-1" width="1500" height="1500" rx="336.29"/><g class="cls-2"><polygon class="cls-1" points="706.46 164.06 827.17 413.57 880.63 413.57 766.15 164.06 706.46 164.06"/></g><g class="cls-2"><polygon class="cls-1" points="805.8 164.39 926.5 413.89 1028.23 413.9 913.75 164.39 805.8 164.39"/></g><path class="cls-3" d="M1253.87,1036.74H878.93c-49.87,0-88.5-45.19-82.44-96.45l61.15-517C865,360.94,916.13,314.1,976.78,314.1H1156c60.64,0,111.76,46.84,119.13,109.17l61.15,517C1342.37,991.55,1303.75,1036.74,1253.87,1036.74Z" transform="translate(-322.71 246.93)"/><path class="cls-1" d="M869.63,829.33a7.65,7.65,0,0,1-1.06-.07,8.86,8.86,0,0,1-7.51-9.94l9.35-79.13a8.78,8.78,0,0,1,9.62-7.78,8.87,8.87,0,0,1,7.51,10l-9.35,79.11A8.74,8.74,0,0,1,869.63,829.33Z" transform="translate(-322.71 246.93)"/><g class="cls-4"><ellipse class="cls-5" cx="760.81" cy="912.42" rx="156.45" ry="158.9"/></g><path class="cls-1" d="M888.62,684.54a9.55,9.55,0,0,1-1.06-.06,8.89,8.89,0,0,1-7.52-10l29.85-252.34a8.76,8.76,0,0,1,9.61-7.78,8.87,8.87,0,0,1,7.51,10L897.17,676.7A8.73,8.73,0,0,1,888.62,684.54Z" transform="translate(-322.71 246.93)"/><g class="cls-6"><path class="cls-7" d="M1083.53,506.83V824.15c1.52.05,3,.24,4.53.24,85.69,0,155.15-71.14,155.15-158.9S1173.75,506.6,1088.06,506.6C1086.53,506.6,1085.05,506.78,1083.53,506.83Z" transform="translate(-322.71 246.93)"/></g><path class="cls-8" d="M1401.3,1119.54H731.5c-12.9,0-22.73-12-20.64-25.16l15-94.62c6.59-41.62,41.33-72.17,82.06-72.17h517c40.73,0,75.47,30.55,82.06,72.17l15,94.62C1424,1107.56,1414.2,1119.54,1401.3,1119.54Z" transform="translate(-322.71 246.93)"/><path class="cls-9" d="M1066.41-119.54c-12.59,0-22.81,10.57-22.81,23.61V166.43c0,13,10.22,23.61,22.81,23.61s22.8-10.57,22.8-23.61V-95.93C1089.21-109,1079-119.54,1066.41-119.54Z" transform="translate(-322.71 246.93)"/><path class="cls-10" d="M1694.82,531.11h-253.4c-12.59,0-22.8,10.56-22.8,23.61s10.21,23.61,22.8,23.61h253.4c12.6,0,22.81-10.57,22.81-23.61S1707.42,531.11,1694.82,531.11Z" transform="translate(-322.71 246.93)"/><path class="cls-11" d="M691.38,531.11H438c-12.59,0-22.81,10.56-22.81,23.61s10.22,23.61,22.81,23.61h253.4c12.59,0,22.8-10.57,22.8-23.61S704,531.11,691.38,531.11Z" transform="translate(-322.71 246.93)"/><path class="cls-12" d="M1535,69.51a22.26,22.26,0,0,0-32.25,0l-187.33,194a24.2,24.2,0,0,0,0,33.39,22.25,22.25,0,0,0,32.25,0L1535,102.9A24.2,24.2,0,0,0,1535,69.51Z" transform="translate(-322.71 246.93)"/><path class="cls-13" d="M630,69.51a22.26,22.26,0,0,0-32.25,0,24.2,24.2,0,0,0,0,33.39l187.31,194a22.25,22.25,0,0,0,32.25,0,24.2,24.2,0,0,0,0-33.39Z" transform="translate(-322.71 246.93)"/></g></svg>