<svg xmlns="http://www.w3.org/2000/svg" viewBox="0 0 1500 1500"><defs><style>.cls-1,.cls-20,.cls-9{fill:#fff;}.cls-2{fill:#7f6e65;opacity:0.11;}.cls-3{fill:#f4c092;}.cls-12,.cls-4,.cls-5{fill:#e28140;}.cls-4{opacity:0.41;}.cls-17,.cls-5{opacity:0.63;}.cls-6{fill:#b53c3c;}.cls-7{fill:#3f2f29;}.cls-8{fill:#ed3737;opacity:0.23;}.cls-9{opacity:0.32;}.cls-10{fill:#bc7646;}.cls-11{fill:#a55e2f;}.cls-12{opacity:0.19;}.cls-13{fill:#c7f2dc;}.cls-14,.cls-17{fill:#a4ddbe;}.cls-15{fill:#e6fff1;}.cls-16{fill:#a2f2e3;}.cls-18{fill:#f9d6bb;opacity:0.52;}.cls-19{fill:#a0e8f2;}.cls-20{opacity:0.34;}.cls-21{fill:#68d0e6;}.cls-22{fill:#acebf2;}.cls-23{fill:#ffde62;}</style></defs><g id="ƒŒƒCƒ__6" data-name="ƒŒƒCƒ„[_6"><rect class="cls-1" width="1500" height="1500" rx="418.14"/><ellipse class="cls-2" cx="741.31" cy="1338.88" rx="562.3" ry="88.6"/><path class="cls-3" d="M858.49,1209.66c-6.09,40.57,25.3,63.47,109.23,72.63s131.7,14.4,141.94,12.44,15-7.85,16.38-18.65-5.46-17,0-26.83,13-14.4,13.3-27.48-1.78-29.11,3.37-29.28h0a4.27,4.27,0,0,0-3.48.44c-5.46,2.62-19.79,27.64-21.84,25.67s-102.58-69.79-121-72.41a138.75,138.75,0,0,1-30.93-7.85s-133.17-70.89-158.32-40.14c-3.92,4.8-7.94,13.2-12,24,33.37,1.45,63.31,3.08,63.31,3.08S864.59,1169.09,858.49,1209.66Z" transform="translate(-4 -4)"/><path class="cls-3" d="M1077.33,1302.58s36.88,2.43,46.43,2,16.61-34.68,20.7-72.63c3.14-29.08,1.6-38-1.75-39.42h0c-5.15.17-3,16.19-3.37,29.28s-7.84,17.66-13.3,27.48,1.36,16,0,26.83-6.14,16.68-16.38,18.65-58-3.27-141.94-12.44-115.32-32.06-109.23-72.63,0-84.41,0-84.41-29.94-1.63-63.31-3.08c-21.68,58.34-42.71,186.12-42.71,186.12Z" transform="translate(-4 -4)"/><path class="cls-4" d="M1077.33,1302.58s36.88,2.43,46.43,2,16.61-34.68,20.7-72.63c3.14-29.08,1.6-38-1.75-39.42h0c-5.15.17-3,16.19-3.37,29.28s-7.84,17.66-13.3,27.48,1.36,16,0,26.83-6.14,16.68-16.38,18.65-58-3.27-141.94-12.44-115.32-32.06-109.23-72.63,0-84.41,0-84.41-29.94-1.63-63.31-3.08c-21.68,58.34-42.71,186.12-42.71,186.12Z" transform="translate(-4 -4)"/><path class="cls-3" d="M729.74,786.79s55.78,23.06,102.87,47.92,83.93,31,111.91,14,43-66.72,43-66.72-17.74-29.69-13.31-37.54,10.92-5.89,10.92-5.89,16-37.62,26.62-37.3,10.57,12.11,10.57,12.11,18.77-6.54,24.23,2.94,0,15.05,0,15.05,11.94-1.3,16.72,4.91,3.41,10.47,3.41,10.47,9.55,2.62,10.58,14.72-7.17,25.2-16.72,33.05-14.33,8.83-13.65,17.34,8.19,142-99,179.3-151.18-2.62-151.18-2.62Z" transform="translate(-4 -4)"/><path class="cls-3" d="M590.3,724.78s4.09,39.26-13.65,51-83.94,49.08-113.28,108-35,155.08-35,200.45S407,1208.13,512.73,1257s254.08,9.6,305-61.07-.91-177.11-6.37-199.8,2.73-69.8-10-115.17-75.52-91.61-85.53-111.67-14.56-50.61-14.56-50.61Z" transform="translate(-4 -4)"/><path class="cls-3" d="M812.3,483s4.1,25.58,11.83,41.93,40.49,48.22,17.74,102.73S748.61,732.24,648.3,741.68,491.35,705.2,468.83,684.44s-32.75-34-32.75-34-10.24,20.12-30,20.12-59.37-12-76.43-54.72,11.6-53.46,19.79-59.12,14.33-5.66,14.33-5.66-100.08-81.56-64.6-207.36S513,151.69,660.36,207s152.85,161.86,151,192S809,466.86,812.3,483Z" transform="translate(-4 -4)"/><path class="cls-5" d="M355.78,621.6s-12-12.74.26-27.5,45.95,9,52.27,23.88-2.56,31.64-21.08,18-19.62-22.38-19.17-29.19,2.16-8.81,2.16-8.81a11.41,11.41,0,0,0-12.94,6.74A23.48,23.48,0,0,0,355.78,621.6Z" transform="translate(-4 -4)"/><path class="cls-5" d="M587.67,758.77s13.55,24,60.86,23.16,61.62-26.68,61.62-26.68l-6.39-23.55s-16.69,5.38-51.09,9.54a250.36,250.36,0,0,1-62.15-.23Z" transform="translate(-4 -4)"/><path class="cls-5" d="M671.33,559.66s-9-9.92,15.07-16.79c22.92-6.54,29.09-2.78,29.77,1.47s5.07,4.86,5.89,3.76c1.59-2.12,3-2.12-3-11.56s-32.87-7.74-46,1.75-12.68,18.27-7.57,21.37S671.33,559.66,671.33,559.66Z" transform="translate(-4 -4)"/><path class="cls-6" d="M693.63,618.32c-21.75,0-35.86-9.91-41.81-15.16a3.77,3.77,0,0,1,.18-5.83l.07-.06a4.18,4.18,0,0,1,5.32.14c6.31,5.58,24.59,18.25,54.06,10.7,28.72-7.36,31.06-27.11,30.78-35.05a3.93,3.93,0,0,1,3.33-3.95h0a4,4,0,0,1,4.77,3.78c.14,10.1-3.18,34.2-36.77,42.81A80.25,80.25,0,0,1,693.63,618.32Z" transform="translate(-4 -4)"/><path class="cls-7" d="M754.89,445.36s-15.24,2.18-15.69,23.77,1.36,45.81,16.6,48.64,26.84-14.18,26.84-32.28-2.95-35.77-13-38.83S754.89,445.36,754.89,445.36Z" transform="translate(-4 -4)"/><path class="cls-5" d="M491.41,501.65s3.92-30.92,16.55-39.43,29.17-10,31.22-12,1.36-10.47-5.12-11.62S501.82,449,493.29,465.49,490.09,509.21,491.41,501.65Z" transform="translate(-4 -4)"/><path class="cls-5" d="M785.86,428.36s-6.14-18.16-23.71-22.09-24.4,3.22-29.17,2.89-7.85-8.94-5-11.07,28.83-8.18,45,4.26S787.4,431.86,785.86,428.36Z" transform="translate(-4 -4)"/><path class="cls-8" d="M570.37,579.63s-41.14,6.59-45,21,24.36,13.33,42.93,9.09,36.22-10.21,35.75-23.07S578.19,578.08,570.37,579.63Z" transform="translate(-4 -4)"/><path class="cls-8" d="M791.54,522.67s-33.67,6.46-36.76,20.91,20,13.4,35.19,9.22,29.62-10.1,29.2-23S797.94,521.15,791.54,522.67Z" transform="translate(-4 -4)"/><path class="cls-9" d="M776.19,462.43c-.77,5.43-8.24,8.94-16.69,7.84s-14.67-6.39-13.91-11.82,8.24-8.95,16.69-7.85S777,457,776.19,462.43Z" transform="translate(-4 -4)"/><ellipse class="cls-1" cx="767.14" cy="463.62" rx="7.96" ry="7.64"/><ellipse class="cls-1" cx="764.8" cy="477.47" rx="2.33" ry="2.24"/><path class="cls-7" d="M520.41,546.14s-12.28-17-6.14-35.33,38.21-21.6,50.5,11.45,3.41,45.15-8.87,48.42S527.27,562.06,520.41,546.14Z" transform="translate(-4 -4)"/><path class="cls-9" d="M544.46,505.34c2.57,4.9-1.52,11.85-9.13,15.52s-15.87,2.69-18.44-2.2,1.51-11.85,9.13-15.52S541.89,500.45,544.46,505.34Z" transform="translate(-4 -4)"/><path class="cls-1" d="M542.83,520.41A7.58,7.58,0,0,1,548,510.8a8,8,0,0,1,10,4.94,7.58,7.58,0,0,1-5.15,9.6A8,8,0,0,1,542.83,520.41Z" transform="translate(-4 -4)"/><path class="cls-1" d="M550.39,532.63a2.21,2.21,0,0,1,1.51-2.81,2.35,2.35,0,0,1,2.94,1.44,2.23,2.23,0,0,1-1.51,2.82A2.37,2.37,0,0,1,550.39,532.63Z" transform="translate(-4 -4)"/><path class="cls-10" d="M495.5,268.69S501.12,231,525,219.62s65.26,3.49,79.05-49.74-39.69-49.73-45.71-36.64-5.76,20.94-5.76,20.94-35.19-48.86,35-58.46,105.73,78.53,70.24,129.13-82.78,26.67-110.54,24.21C521.22,246.75,495.5,268.69,495.5,268.69Z" transform="translate(-4 -4)"/><path class="cls-11" d="M619.7,131.93s40.94,49.73-7.28,79.4-60.5,13.08-83.48,22.46-33.44,34.9-33.44,34.9l7-5.18s26.89-30.37,43-29.28,54.82,5.67,82.34-24.21S632.21,140.66,619.7,131.93Z" transform="translate(-4 -4)"/><path class="cls-11" d="M657.91,200.31s-3.45,52.72-47.44,55.81-47-7.34-72.2-5.31-40.82,16.45-40.82,16.45S508,241,529.17,236.19s42.91,4.67,77.79,5.46S656.55,211.76,657.91,200.31Z" transform="translate(-4 -4)"/><path class="cls-5" d="M796.36,943.74a10.24,10.24,0,0,1-9.21,11.3,10.5,10.5,0,0,1-11.79-8.83,10.24,10.24,0,0,1,9.22-11.3A10.48,10.48,0,0,1,796.36,943.74Z" transform="translate(-4 -4)"/><path class="cls-5" d="M582,953.86a10.24,10.24,0,0,1-9.22,11.3A10.49,10.49,0,0,1,561,956.33a10.24,10.24,0,0,1,9.21-11.3A10.5,10.5,0,0,1,582,953.86Z" transform="translate(-4 -4)"/><path class="cls-12" d="M575.45,1009.9S627,978.49,694.28,982,796.75,995.8,796.75,995.8s-40.6-47-119.76-40S539.43,1012.51,575.45,1009.9Z" transform="translate(-4 -4)"/><path class="cls-5" d="M783.73,846.73s22.95,36,27.5,78.28-4.05,58.11.16,71.11S881.28,1007,881.28,1007s-30.74-15.27-41.3-40.14-12.83-46.67-26-75S783.73,846.73,783.73,846.73Z" transform="translate(-4 -4)"/><path class="cls-5" d="M938.75,855.2s-23.35,4.38-33.35,22.7-1.86,38.39-1.86,38.39-15.4-18.32-3.13-41.44S938.75,855.2,938.75,855.2Z" transform="translate(-4 -4)"/><path class="cls-13" d="M430.6,1051.51c-5-3-11.57-.18-12.47,5.41-5.39,33.36-16.13,124.81,14.59,190,38.22,81.14,221.1,115.17,338.47,52.35s83.49-191.07,78.6-217.25c-1.52-8.11-3-14.84-4.41-20.26-1.55-6.13-9.56-8.08-14-3.45-15.73,16.29-59.78,40.3-182.45,36.8C511.89,1091.24,452.09,1064.69,430.6,1051.51Z" transform="translate(-4 -4)"/><path class="cls-14" d="M857.68,1120.54s-20.3,52.76-195.67,51.13-250.14-56.55-250.14-56.55l2.43-21.21L858.05,1114Z" transform="translate(-4 -4)"/><path class="cls-15" d="M412.1,1106.38s41.78,52.78,227.39,55S858.05,1114,858.05,1114s-.88-63.62-20.32-62.26-39.24,35.62-192.1,30.18-205.4-46.22-227.24-38.06S412.1,1106.38,412.1,1106.38Z" transform="translate(-4 -4)"/><path class="cls-16" d="M413.47,1047.05s26.08,18.59,90.9,32.18,100.32,13.6,102.36,18.49,4.78,51.66-8.18,54.38-85-5.87-129.89-20.85S410,1097.48,410,1097.48s-8.39-9.55-5.2-31.12S413.47,1047.05,413.47,1047.05Z" transform="translate(-4 -4)"/><path class="cls-16" d="M845.14,1055s-18.45,19.36-44.38,25.52-34.57,8.34-34.57,12.69-.46,51.11,9.55,50.75,39.83-8.7,56.77-17.4,25.54-18.85,25.54-18.85S862.19,1064,845.14,1055Z" transform="translate(-4 -4)"/><path class="cls-3" d="M554.85,789.87S508.7,805.05,465,830.35s-73.43,48-114.51,41-64.62-47.66-71-62.49-15-39.92-15-39.92l-49.47,18s-15.7,163.73,87.12,211.76,174.69-6.07,174.69-6.07Z" transform="translate(-4 -4)"/><path class="cls-3" d="M264.44,778.33s3.36-6.89,4.33-8.23,12.39-12.5,17.29-21.14,7.09-23.06,4.12-25.43-10.67-.51-12.83,5.32-9.68,14.84-14.16,14.83-5.68-3.86-5.87-12.73-2.17-40.42-5-45.24S239,680,238,689.11s-.18,34.82-1.63,38.42-6.8,1-8.22-3.11-12.43-33.52-13.78-37.27-9.77-4.8-13.65-.31,2.08,22.5,4.21,28.68,3.89,16.5,2,17-28.17-30.19-30.57-30.41-12.94,3.47-4,15.89,18.13,21.31,16.26,23.51-27.32-13-31-12.32-10.59,7.35-.09,15.7,22.42,12.46,24.35,14.93,7,13.86,20,24.27,19.44,11.8,21.8,14.83,4,5.71,4,5.71L266.29,783Z" transform="translate(-4 -4)"/><path class="cls-5" d="M432.06,1012.64s28-5.5,57.64-36.91,42-76.24,42-76.24-6.82,87-45.72,114.52-56.31,28.8-56.31,28.8Z" transform="translate(-4 -4)"/><path class="cls-5" d="M367.21,872.62s33.55,7.46,39.53,35.38,0,38.83,0,38.83,14.72-24.33.51-51.48S367.21,872.62,367.21,872.62Z" transform="translate(-4 -4)"/><path class="cls-5" d="M1022.94,1158.43s2.33,10.88-9.27,15.46-20.24,3-20.24,3,22.06,5.24,32.52-.87,5.49-12.77,5.49-12.77Z" transform="translate(-4 -4)"/><path class="cls-17" d="M847,1215.23s-24,50.49-111.79,69.25-126.92-.88-129.2-3.49.46-38.39-34.57-81.58S504,1152.6,504,1152.6l74.7,175.52s88.64,19.74,178.85-19.83C831.7,1275.75,847,1215.23,847,1215.23Z" transform="translate(-4 -4)"/><path class="cls-3" d="M363.06,1259.55a302.1,302.1,0,0,0,4.15,56.77c10,61.31,40.88,84.52,67.13,93.56l-61.21-100.1S365.24,1282.17,363.06,1259.55Z" transform="translate(-4 -4)"/><path class="cls-3" d="M426.57,1274c18.87,27.92,22.53,40.57,41.64,57.81s30,23.55,34.12,25.73,43.22-18.79,69.6-62.41c20.77-34.33,15.42-55.44,12.2-62.88-7.61-15.1-18.27-36.27-37.67-52-86.83-70.58-134.62-29.09-134.62-29.09-21.53,9-40.64,38.24-46.8,83.51C373.79,1218.42,407.71,1246.1,426.57,1274Z" transform="translate(-4 -4)"/><path class="cls-4" d="M365,1234.64c-2.76,5.13-3,14.49-2,24.91a231,231,0,0,1,2-24.92Z" transform="translate(-4 -4)"/><path class="cls-3" d="M578.69,1328.12s31.84-43.41,5.44-95.86c3.22,7.44,8.57,28.55-12.2,62.88-26.38,43.62-65.51,64.59-69.6,62.41s-15-8.48-34.12-25.73-22.77-29.89-41.64-57.81-52.78-55.59-61.53-39.38a231,231,0,0,0-2,24.92c2.18,22.62,10.07,50.23,10.07,50.23l61.21,100.1c13,4.46,20.74-4.13,28.41-3.69C486,1407.5,578.69,1328.12,578.69,1328.12Z" transform="translate(-4 -4)"/><path class="cls-4" d="M578.69,1328.12s31.84-43.41,5.44-95.86c3.22,7.44,8.57,28.55-12.2,62.88-26.38,43.62-65.51,64.59-69.6,62.41s-15-8.48-34.12-25.73-22.77-29.89-41.64-57.81-52.78-55.59-61.53-39.38a231,231,0,0,0-2,24.92c2.18,22.62,10.07,50.23,10.07,50.23l61.21,100.1c13,4.46,20.74-4.13,28.41-3.69C486,1407.5,578.69,1328.12,578.69,1328.12Z" transform="translate(-4 -4)"/><path class="cls-4" d="M383.05,1178.62s13.16-18.69,36.37-8.87,19.79,28.18,19.79,28.18-3.86-16.24-22.55-23-38.77,13.51-38.77,13.51Z" transform="translate(-4 -4)"/><path class="cls-3" d="M420.77,1415.06c1.91,0,38.74,2.9,43.58-23.8s-41.16-62.1-43.58-72.55-20-39.47-36.92-54-25.43-13.35-34.51,0-37.52,55.72-12.1,92.29S407.63,1415.28,420.77,1415.06Z" transform="translate(-4 -4)"/><path class="cls-18" d="M451.06,1360.82s18.58,10.66,12.38,33.56-37.17,17-45.34,12.3-19.66-27.14-3.74-41.13S451.06,1360.82,451.06,1360.82Z" transform="translate(-4 -4)"/><path class="cls-18" d="M391.68,1283.6s16.08,15.38,9.72,22.92-17.55,12.89-27.84,32.57,1.51,31.86-6.66,33-28.15-9.79-22.7-37.4S377.72,1265.6,391.68,1283.6Z" transform="translate(-4 -4)"/><path class="cls-4" d="M348.15,1266.5s-2.13,4.47,2.4,11.87,13.62,7.11,14.23,6.68,4.84-1.74,1.82,1.45-6.21,6.53-7.42,6.38-.61-2.9-4.32-5.66-8.45-6.58-11.11-8-4.55,2-4.55,2Z" transform="translate(-4 -4)"/><path class="cls-4" d="M336.13,1287.29a10,10,0,0,0,3.07,8.2c3.79,3.63,13,6.68,13,6.68s2,.14,1.22,1.6-1.07,4.93-3.34,3.62-13.6-12.37-15.89-11.17a5.66,5.66,0,0,0-2.82,2.73Z" transform="translate(-4 -4)"/><path class="cls-4" d="M329.16,1306.51a16.52,16.52,0,0,0,5.35,6.69,36.13,36.13,0,0,0,9.54,4.93c1.06.29,3.63-1.31,2.57.87s-.45,5.81-2.57,3.48-5.3-4.2-8.32-6a13.22,13.22,0,0,0-7.42-1.66c-.78.19-1.39,1.23-1.39,1.23Z" transform="translate(-4 -4)"/><path class="cls-4" d="M326.92,1328.53a22.37,22.37,0,0,0,7.14,5.42c4.69,2.32,8.26-.65,8.44.76s.94,6.49-1.18,5.62-13.49-5.85-13.49-5.85Z" transform="translate(-4 -4)"/><path class="cls-4" d="M332.33,1348.57s3.4,5.4,6.12,6.71,5.9-.16,6.51,2.53,2.49,12.06,2.49,12.06S335.15,1355.78,332.33,1348.57Z" transform="translate(-4 -4)"/><path class="cls-4" d="M531.67,1241.72s25.76,25.19,24.23,51.37-16.79,41.79-16.79,41.79l25.1-28.07s4.65-10.12-3.88-30.4S531.67,1241.72,531.67,1241.72Z" transform="translate(-4 -4)"/><path class="cls-19" d="M969.81,559.52c12.13,15,9.3,36.55-6.32,48.18s-38.11,8.91-50.24-6.07-9.29-36.54,6.33-48.17S957.69,544.55,969.81,559.52Z" transform="translate(-4 -4)"/><path class="cls-20" d="M916.72,561c1.81-4.07,14.3-12.82,26.47-11.81s20.26,7.5,19.35,12-1,9.22-14.73,6.34-27.66.19-29.38-1.25S916.72,561,916.72,561Z" transform="translate(-4 -4)"/><path class="cls-20" d="M960.76,572.28c1.22-2,6.93-6.52,9.07-2.12s5.88,11.12,3,18.74-4.33,8.67-5.67,4.22-2.48-9-4.49-13.26A18,18,0,0,1,960.76,572.28Z" transform="translate(-4 -4)"/><path class="cls-21" d="M999.37,488.72c12.12,15,9.29,36.55-6.33,48.17s-38.11,8.92-50.24-6.06-9.29-36.55,6.33-48.17S987.24,473.74,999.37,488.72Z" transform="translate(-4 -4)"/><path class="cls-20" d="M946.27,490.19c1.82-4.07,14.31-12.83,26.47-11.82s20.26,7.5,19.36,12-1.06,9.22-14.73,6.34-27.66.18-29.39-1.25S946.27,490.19,946.27,490.19Z" transform="translate(-4 -4)"/><path class="cls-20" d="M990.32,501.48c1.22-2,6.92-6.52,9.06-2.12s5.89,11.12,3,18.74-4.33,8.66-5.66,4.21-2.49-9-4.49-13.25A18,18,0,0,1,990.32,501.48Z" transform="translate(-4 -4)"/><path class="cls-22" d="M1054.46,540c12.13,15,9.3,36.54-6.32,48.17s-38.11,8.91-50.24-6.07-9.29-36.54,6.33-48.17S1042.34,525,1054.46,540Z" transform="translate(-4 -4)"/><path class="cls-20" d="M1001.37,541.43c1.82-4.07,14.31-12.82,26.47-11.81s20.26,7.5,19.36,12-1,9.22-14.73,6.34-27.66.19-29.39-1.25S1001.37,541.43,1001.37,541.43Z" transform="translate(-4 -4)"/><path class="cls-20" d="M1045.42,552.72c1.22-2,6.92-6.51,9.06-2.12s5.89,11.13,3,18.74-4.33,8.67-5.66,4.22-2.49-9-4.49-13.26A18,18,0,0,1,1045.42,552.72Z" transform="translate(-4 -4)"/><path class="cls-23" d="M1069.92,792a38.73,38.73,0,0,1-13.74,6.26c-41.75,10.6-50.22-17.32-57.69-42-4-13.11-3.23-29.24-2.44-46.31.81-17.62,1.65-35.83-2.4-52.83-5.71-24-16.27-36.67-21.26-41.55-6.95,5.71-24.12,17-44.7,9.91C913.35,620.58,902,610.93,896.62,599c-5.19-11.45-4.86-24.36,1-37.33,8.86-19.74,23.61-26.27,32.84-28.42a118.55,118.55,0,0,1-6.9-11.07c-3.94-7.18-3-27,7.53-41.72,6.9-9.69,20.35-20.67,45.17-18,14.54,1.58,25.63,7.21,32.95,16.74,8.94,11.62,10,26.2,9.62,35.13,6.18-1.51,15.92-1.62,30.14,4,12.55,5,21.44,15.72,24.42,29.5,3.35,15.56-1.66,31.76-13.41,43.36a52.66,52.66,0,0,1-5.4,4.65,46.28,46.28,0,0,1-30.31,9.11,53.62,53.62,0,0,1-10.76-1.64c.47,5,1.5,13.24,3.72,25.11,2.91,15.54,18.37,38.58,32,58.91,5.52,8.23,10.74,16,15,23.05,6.19,10.24,25.59,45.5,15.22,69.48A29.34,29.34,0,0,1,1069.92,792ZM969,606.65a4.72,4.72,0,0,1,6-.57h0c.78.54,19.1,13.57,27.55,49.11,4.32,18.15,3.45,37,2.62,55.17-.76,16.33-1.47,31.75,2.09,43.47s7.18,23.68,14,30.79c4.44,4.63,12.65,10.19,32.55,5.14,8.64-2.19,14.24-6.51,17.13-13.19,7-16.1-3-42.44-14.67-61.72-4.16-6.87-9.32-14.56-14.78-22.7-14.11-21-30.1-44.84-33.33-62.11-4.28-22.88-4.27-32.6-4.27-33h0a4.56,4.56,0,0,1,6.58-3.9h0c1,.46,23.91,10.73,42.88-8a38.4,38.4,0,0,0,11-35.46c-2.35-10.89-9.26-19.33-19-23.17-20-7.94-28.06-2.25-28.77-1.7l-1.87,1.13c-3.49,2.11-7.68-1.5-5.86-5.05h0c0-.21,4.08-21.9-7.16-36.47-5.76-7.46-14.7-11.9-26.6-13.19-16.29-1.77-28.6,3-36.58,14.2-9.15,12.83-9.05,28.93-7,32.69a102.8,102.8,0,0,0,10.55,15.7h0a4.37,4.37,0,0,1-3.64,7.17h0c-.85,0-21.7,0-32.54,24.17-4.8,10.69-5.14,21.19-1,30.36,4.4,9.69,13.79,17.61,25.76,21.72,20.75,7.11,38.05-10.41,38.22-10.59Z" transform="translate(-4 -4)"/><path class="cls-23" d="M980,613.78s3.43-6.26,14.16-9.62,14.94-.94,14.94-.94l.31,7.33s-5.55-3.27-13.61-.51a35.7,35.7,0,0,0-12.76,7.49Z" transform="translate(-4 -4)"/><path class="cls-23" d="M997,645.7l17.51-6.39,2.12,6.59-18.8,6.59C998.25,652.36,997,645.7,997,645.7Z" transform="translate(-4 -4)"/><path class="cls-23" d="M1024.55,653.45s13.07-5.71,22.38,6.18-6.8,21.41-6.8,21.41l-2.42-5s8-7.78,3.55-13.75-14.37-3.19-14.37-3.19Z" transform="translate(-4 -4)"/><path class="cls-23" d="M1041.5,677.56s13.06-5.72,22.37,6.17-6.8,21.42-6.8,21.42l-2.42-5s8-7.77,3.55-13.75-14.37-3.18-14.37-3.18Z" transform="translate(-4 -4)"/><path class="cls-23" d="M1056.46,702.52s13.07-5.72,22.37,6.17-6.79,21.42-6.79,21.42l-2.43-5s8-7.77,3.55-13.75-14.37-3.18-14.37-3.18Z" transform="translate(-4 -4)"/><path class="cls-23" d="M1072.18,727.5s14.13-2.48,20.12,11.23-12,19.17-12,19.17l-1.09-5.4s9.7-5.67,7-12.5-13.13-6.46-13.13-6.46Z" transform="translate(-4 -4)"/><path class="cls-23" d="M1081.15,753.31s14,3.14,13.77,18-19,13-19,13l1.26-5.37s11.25-1.49,11.57-8.8-9.34-10.94-9.34-10.94Z" transform="translate(-4 -4)"/><path class="cls-23" d="M1079.33,781.72s6.63,12.21-5.28,21.74-22.65-5.4-22.65-5.4l5.06-2.58s8.51,7.22,14.51,2.69,2.58-13.92,2.58-13.92Z" transform="translate(-4 -4)"/><path class="cls-23" d="M1054.94,798.25s-.84,13.69-14.81,15.51-15-16.27-15-16.27l5.22.46s3.09,10.47,10,9.78,8.86-10.35,8.86-10.35Z" transform="translate(-4 -4)"/><path class="cls-23" d="M1029,798.87s-9.51,10.24-21.65,3.35-1.24-21.69-1.24-21.69l3.79,3.46s-4.35,10,1.51,13.62,13.64-2.85,13.64-2.85Z" transform="translate(-4 -4)"/><path class="cls-23" d="M1010.44,782.56s-13.76,3.71-20.12-8.35,11.13-18.93,11.13-18.93l1.25,4.88s-9.3,6.22-6.37,12.25,13.1,4.65,13.1,4.65Z" transform="translate(-4 -4)"/><path class="cls-23" d="M999.89,759.86s-14.27.83-17.82-12.26,15.06-16.23,15.06-16.23l.15,5s-10.47,4.19-8.94,10.68,11.77,7.2,11.77,7.2Z" transform="translate(-4 -4)"/><path class="cls-23" d="M997.66,734.15s-14.26-1-15.93-14.45,17.21-14.13,17.21-14.13l-.57,5s-11,2.79-10.35,9.43,10.64,8.66,10.64,8.66Z" transform="translate(-4 -4)"/><path class="cls-23" d="M997.48,706.8s-14.26-1-15.93-14.45,17.21-14.13,17.21-14.13l-.57,5s-11,2.79-10.35,9.42,10.64,8.66,10.64,8.66Z" transform="translate(-4 -4)"/><path class="cls-3" d="M1006.86,703.25S976.69,736.47,984.44,749s17.18,4.32,17.18,4.32-12.51,11.77-5.29,19.1,13.12,1.77,13.12,1.77-7.88,12.45,0,18.38a15.64,15.64,0,0,0,15.61,2.2s-9.29,7.7,8.79,9.84,34.86-17.17,37.12-28S1006.86,703.25,1006.86,703.25Z" transform="translate(-4 -4)"/></g></svg>