<svg id="_àð_1" data-name="˜àð_1" xmlns="http://www.w3.org/2000/svg" xmlns:xlink="http://www.w3.org/1999/xlink" viewBox="0 0 1438.53 1620.29"><defs><style>.cls-1{fill:#f7ac48;}.cls-2{fill:url(#ƒðàä_íò_áåç_íàçâè_61);}.cls-3{fill:none;}.cls-4{fill:url(#linear-gradient);}.cls-5{fill:#f89338;}.cls-6{fill:#fff;}.cls-7{fill:url(#linear-gradient-2);}.cls-8{fill:url(#linear-gradient-3);}</style><linearGradient id="ƒðàä_íò_áåç_íàçâè_61" x1="686.53" y1="1444.92" x2="686.53" y2="1585.63" gradientUnits="userSpaceOnUse"><stop offset="0" stop-color="#6f310e"/><stop offset="0.36" stop-color="#87441e"/><stop offset="0.72" stop-color="#97522a"/><stop offset="1" stop-color="#9d572e"/></linearGradient><linearGradient id="linear-gradient" x1="1922.87" y1="786.3" x2="1922.87" y2="1961.96" gradientUnits="userSpaceOnUse"><stop offset="0" stop-color="#ffcc52"/><stop offset="1" stop-color="#ff9f37"/></linearGradient><linearGradient id="linear-gradient-2" x1="0" y1="1354.27" x2="1373.06" y2="1354.27" xlink:href="#linear-gradient"/><linearGradient id="linear-gradient-3" x1="891.79" y1="434.21" x2="1438.53" y2="434.21" gradientUnits="userSpaceOnUse"><stop offset="0" stop-color="#ffcc52"/><stop offset="0.04" stop-color="red"/><stop offset="1" stop-color="#ff9f37"/></linearGradient></defs><path class="cls-1" d="M2044,799.28a121.09,121.09,0,0,0-242.16,0,480.37,480.37,0,0,1,242.16,0Z" transform="translate(-1236.34 -680.04)"/><circle class="cls-2" cx="686.53" cy="1381.61" r="238.69"/><path class="cls-3" d="M1652,1428.76q-3.73-4.12-7.39-8.31Q1648.25,1424.64,1652,1428.76Z" transform="translate(-1236.34 -680.04)"/><path class="cls-4" d="M2513.71,1938.53a617.26,617.26,0,0,1-47.4-174.81q-1-8.6-1.81-17.23-2.57-28.12-2.57-56.61v-294c0-1.42,0-2.84,0-4.25,0-2.22,0-4.44-.08-6.65q-.06-4.77-.2-9.53c0-1.21-.07-2.43-.12-3.65s-.09-2.67-.14-4-.11-2.66-.17-4q-.18-4-.41-8c-.07-1.32-.15-2.65-.23-4s-.17-2.65-.26-4-.18-2.65-.28-4-.2-2.65-.31-4-.2-2.55-.31-3.82l-.36-4.1q-.27-2.89-.55-5.79c-.16-1.58-.32-3.15-.49-4.73-.06-.59-.12-1.17-.19-1.74q-.27-2.54-.57-5.07c-.18-1.59-.37-3.19-.57-4.78,0-.38-.09-.75-.14-1.11q-.35-2.8-.72-5.6t-.79-5.73c-.32-2.27-.66-4.53-1-6.78-.49-3.21-1-6.42-1.54-9.62q-1.84-11-4-21.93c-.18-.9-.36-1.8-.55-2.69q-.78-3.78-1.6-7.55c-.27-1.26-.55-2.51-.83-3.77-.41-1.86-.84-3.72-1.27-5.58-.31-1.34-.62-2.67-.95-4q-.64-2.71-1.32-5.42c-.17-.71-.35-1.43-.54-2.15-.27-1.12-.56-2.24-.85-3.36q-.78-3-1.59-6.07c-.4-1.5-.8-3-1.22-4.49-.23-.85-.46-1.69-.7-2.53-.68-2.48-1.39-5-2.11-7.4-.32-1.11-.65-2.22-1-3.33q-1.2-4-2.45-8l-1.05-3.34q-1.15-3.67-2.37-7.32c-.36-1.11-.73-2.21-1.1-3.31q-.9-2.73-1.86-5.45c-.39-1.16-.79-2.32-1.2-3.47q-3-8.43-6.14-16.77c-28-73.34-67.93-139-118.65-195.19-49.8-55.16-107.44-98.3-171.33-128.22A488.63,488.63,0,0,0,2044,799.28a480.37,480.37,0,0,0-242.16,0,488,488,0,0,0-83.85,30.38c-63.88,29.92-121.53,73.07-171.33,128.22a601.72,601.72,0,0,0-60,78.7A634.75,634.75,0,0,0,1428,1153.07,670.27,670.27,0,0,0,1386.7,1332q-2.88,31.63-2.88,63.87v294q0,28.45-2.57,56.61-.78,8.64-1.81,17.23A617.76,617.76,0,0,1,1332,1938.54c-17,38.9,11.79,82.48,54.26,82.48H2459.45C2501.93,2021,2530.76,1977.44,2513.71,1938.53ZM1644.6,1420.45q3.66,4.18,7.39,8.31Q1648.26,1424.64,1644.6,1420.45Zm421.27,217.66c3.8.39,7.62.73,11.44,1.05C2073.48,1638.84,2069.67,1638.5,2065.87,1638.11Z" transform="translate(-1236.34 -680.04)"/><polygon class="cls-5" points="1225.59 870 1225.59 659.88 951.63 604.91 1225.59 870"/><path class="cls-6" d="M2077.31,1639.16c-3.82-.32-7.64-.66-11.44-1.05C2069.67,1638.5,2073.48,1638.84,2077.31,1639.16Z" transform="translate(-1236.34 -680.04)"/><rect class="cls-7" y="1261.33" width="1373.06" height="185.88" rx="92.94"/><circle class="cls-8" cx="1165.16" cy="434.21" r="273.37"/><path class="cls-6" d="M2444.81,997.18V1235a21.45,21.45,0,0,1-21.45,21.46h-22.05a21.46,21.46,0,0,1-21.46-21.46V1049.31a21.45,21.45,0,0,0-21.45-21.45h0A21.45,21.45,0,0,1,2337,1006.4v-9.22a21.45,21.45,0,0,1,21.45-21.45h65A21.45,21.45,0,0,1,2444.81,997.18Z" transform="translate(-1236.34 -680.04)"/></svg>