<svg xmlns="http://www.w3.org/2000/svg" xmlns:xlink="http://www.w3.org/1999/xlink" viewBox="0 0 225.02 220.06"><defs><style>.cls-1{fill:url(#linear-gradient);}.cls-2{fill:url(#linear-gradient-2);}</style><linearGradient id="linear-gradient" x1="318.85" y1="932.02" x2="539.93" y2="932.02" gradientUnits="userSpaceOnUse"><stop offset="0" stop-color="#00ceff"/><stop offset="1" stop-color="#0090d4"/></linearGradient><linearGradient id="linear-gradient-2" x1="316.88" y1="932.02" x2="541.9" y2="932.02" xlink:href="#linear-gradient"/></defs><g id="Layer_1" data-name="Layer 1"><path class="cls-1" d="M537.83,920.78l-72.56-23.5a3,3,0,0,0-1.5-.09l-3.29.62h0V880.94h16.78a4.61,4.61,0,0,0,3.69-1.71,4.4,4.4,0,0,0-.38-5.79L432.5,825.36a4.41,4.41,0,0,0-6.22,0L378.2,873.44a4.4,4.4,0,0,0-.37,5.79,4.61,4.61,0,0,0,3.69,1.71H398.3v16.87h0l-3.3-.62a3.06,3.06,0,0,0-1.5.09l-72.39,23.45a3.17,3.17,0,0,0-2.21,2.36,3,3,0,0,0,2.42,3.57l28.55,5.4,0,.19-25.86,19.64a3,3,0,0,0-1,1.3,3.06,3.06,0,0,0,1.8,4L353,967.35h0v44.18a4.5,4.5,0,0,0,3.08,4.27L428,1039.73a4.5,4.5,0,0,0,2.78,0l71.91-23.93a4.5,4.5,0,0,0,3.09-4.27V967.35h0l28.13-10.13a3,3,0,0,0,.86-5.3l-26.1-19.81h0l28.78-5.45a3,3,0,0,0,.38-5.88Zm-164.24,7.5,24.71-8.12h0v9a4.49,4.49,0,0,0,3.48,4.47,4.4,4.4,0,0,0,5.31-4.3h0V876.55a4.4,4.4,0,0,0-4.4-4.4H391.92l37.47-37.47h0l37.47,37.47H456.09a4.4,4.4,0,0,0-4.4,4.4v52.78h0a4.29,4.29,0,0,0,2.51,4,4.42,4.42,0,0,0,6.28-4v-9.17h0l31.21,10.25h0l-62.3,20.72h0l-62.3-20.72h0Zm-11.8,80.16V970.51h0l35.49,12.78a3.09,3.09,0,0,0,1,.17,3,3,0,0,0,2-.71l26.08-21.88h0v69.05h0l-64.56-21.48Zm70.64,21.48V960.87h0l26.08,21.88a3,3,0,0,0,2,.71,3.09,3.09,0,0,0,1-.17L497,970.51h0v37.93h0l-64.56,21.48ZM358,933.78l65.31,21.73h0L397.7,977h0l-65.55-23.59h0L358,933.78ZM461.08,977l-25.57-21.46h0l65.31-21.73h0l25.8,19.6h0L461.08,977Zm-66.44-73.66,3.66.69h0v9.76h0l-31.69,10.4-9.42,3.09h0l-23-4.35h0l60.48-19.59Zm107,23.94-41.11-13.49h0V904h0l3.66-.69h0l60.48,19.59h0l-23,4.35Z" transform="translate(-316.88 -821.99)"/><path class="cls-2" d="M539.76,920.56l-73.85-23.95a3.14,3.14,0,0,0-1.52-.1l-3.36.64h0V880h17.08a4.7,4.7,0,0,0,3.76-1.74,4.49,4.49,0,0,0-.39-5.9l-48.93-49a4.46,4.46,0,0,0-6.32,0l-48.94,49a4.49,4.49,0,0,0-.38,5.9,4.69,4.69,0,0,0,3.76,1.74h17.07v17.2h0l-3.35-.64a3.13,3.13,0,0,0-1.52.1l-73.69,23.9a3.25,3.25,0,0,0-2.25,2.41,3.11,3.11,0,0,0,2.47,3.64l29.05,5.5.05.2-26.33,20a3,3,0,0,0-1,1.32,3.13,3.13,0,0,0,1.83,4.09L351.64,968h0v45a4.6,4.6,0,0,0,3.14,4.36l73.2,24.39a4.44,4.44,0,0,0,2.82,0l73.2-24.39a4.6,4.6,0,0,0,3.14-4.36V968h0l28.63-10.32a3.09,3.09,0,0,0,.87-5.41l-26.56-20.19h0l29.3-5.55a3.11,3.11,0,0,0,.38-6ZM372.59,928.2l25.15-8.26h0v9.17a4.58,4.58,0,0,0,3.55,4.55,4.48,4.48,0,0,0,5.4-4.38h0V875.47a4.48,4.48,0,0,0-4.47-4.48h-11l38.14-38.19h0L467.53,871h-11a4.48,4.48,0,0,0-4.47,4.48v53.81h0a4.35,4.35,0,0,0,2.55,4.06,4.5,4.5,0,0,0,6.39-4.07v-9.34h0l31.77,10.44h0L429.39,951.5h0L366,930.38h0Zm-12,81.72V971.26h0l36.12,13a3.18,3.18,0,0,0,1.05.18,3.12,3.12,0,0,0,2-.72l26.54-22.32h0v70.39h0l-65.7-21.89Zm71.9,21.89V961.42h0L459,983.74a3.1,3.1,0,0,0,2,.72,3.18,3.18,0,0,0,1.05-.18l36.12-13h0v38.66h0l-65.7,21.89Zm-75.8-98L423.16,956h0l-26,21.88h0l-66.71-24.05h0l26.27-20Zm105,44-26-21.88h0l66.47-22.14h0l26.27,20h0l-66.71,24.05ZM394,902.76l3.72.7h0v9.95h0L365.5,924l-9.59,3.15h0l-23.45-4.44h0l61.56-20Zm108.85,24.4L461,913.41h0v-9.95h0l3.73-.7h0l61.56,20h0l-23.45,4.44Z" transform="translate(-316.88 -821.99)"/></g></svg>