<?xml version="1.0" encoding="utf-8"?>
<!-- Generator: Adobe Illustrator 25.0.0, SVG Export Plug-In . SVG Version: 6.00 Build 0)  -->
<svg version="1.1" id="Layer_1" xmlns="http://www.w3.org/2000/svg" xmlns:xlink="http://www.w3.org/1999/xlink" x="0px" y="0px"
	 viewBox="0 0 1500 1500" style="enable-background:new 0 0 1500 1500;" xml:space="preserve">
<style type="text/css">
	.st0{fill:#FFFFFF;}
	.st1{fill:url(#SVGID_1_);}
	.st2{fill:url(#SVGID_2_);}
	.st3{clip-path:url(#SVGID_4_);}
	.st4{fill:none;stroke:#9B9B9B;stroke-width:7.4812;stroke-miterlimit:10;}
	.st5{fill:none;stroke:#9B9B9B;stroke-width:3.7406;stroke-miterlimit:10;}
	.st6{fill:none;stroke:#9B9B9B;stroke-width:1.2469;stroke-miterlimit:10;}
	.st7{fill:#9B9B9B;}
	.st8{opacity:0.71;fill:#FFFFFF;}
</style>
<g id="ƒŒƒCƒ__6">
	<path class="st0" d="M336.3,0h827.4C1349.4,0,1500,150.6,1500,336.3v827.4c0,185.7-150.6,336.3-336.3,336.3H336.3
		C150.6,1500,0,1349.4,0,1163.7V336.3C0,150.6,150.6,0,336.3,0z"/>
</g>
<linearGradient id="SVGID_1_" gradientUnits="userSpaceOnUse" x1="258.8119" y1="750" x2="1241.1881" y2="750">
	<stop  offset="0" style="stop-color:#00AEEF"/>
	<stop  offset="1" style="stop-color:#1B75BC"/>
</linearGradient>
<path class="st1" d="M707,151.5L355.7,276.5c-56,10-96.9,58.9-96.9,116.1v424.9c0,68.7,28.7,134.3,79,180.9l361.6,334.2
	c28.6,26.4,72.5,26.4,101.1,0l361.6-334.2c50.4-46.6,79-112.1,79-180.9V392.5c0-57.1-40.8-106-96.9-116.1L793,151.5
	C764.6,146.4,735.4,146.4,707,151.5z"/>
<linearGradient id="SVGID_2_" gradientUnits="userSpaceOnUse" x1="287.4217" y1="746.8096" x2="1215.8898" y2="746.8096">
	<stop  offset="0" style="stop-color:#6AECFF"/>
	<stop  offset="1" style="stop-color:#00AEEF"/>
</linearGradient>
<path class="st2" d="M711,179.9L379,298.3c-53,9.5-91.6,55.8-91.6,109.9v402.5c0,65.1,27.1,127.2,74.7,171.3l341.7,316.5
	c27,25,68.6,25,95.6,0L1141.2,982c47.6-44.1,74.7-106.2,74.7-171.3V408.2c0-54.1-38.6-100.4-91.6-109.9L792.3,179.9
	C765.4,175.1,737.9,175.1,711,179.9z"/>
<g>
	<g>
		<g>
			<g>
				<g>
					<g>
						<defs>
							<path id="SVGID_3_" d="M711,179.9L379,298.3c-53,9.5-91.6,55.8-91.6,109.9v402.5c0,65.1,27.1,127.2,74.7,171.3l341.7,316.5
								c27,25,68.6,25,95.6,0L1141.2,982c47.6-44.1,74.7-106.2,74.7-171.3V408.2c0-54.1-38.6-100.4-91.6-109.9L792.3,179.9
								C765.4,175.1,737.9,175.1,711,179.9z"/>
						</defs>
						<clipPath id="SVGID_4_">
							<use xlink:href="#SVGID_3_"  style="overflow:visible;"/>
						</clipPath>
						<g class="st3">
							<g>
								<g>
									<polyline class="st4" points="334.3,338.6 268.8,404.5 268.8,676.3 420.1,828.5 420.1,1136.5 									"/>
									<polyline class="st4" points="720.8,500.1 923.4,500.1 1002.3,579.4 1328.6,579.4 1412.7,664 									"/>
									<polyline class="st4" points="1066.8,607.9 1311.4,607.9 1346.9,643.5 									"/>
									<polyline class="st4" points="296.7,426.5 296.7,655.6 419.5,779.1 									"/>
									<polyline class="st4" points="879.4,921.9 956.4,999.3 956.4,1210.5 									"/>
									<polyline class="st4" points="1480.3,264.9 1425.9,319.6 1066.8,319.6 									"/>
									<polyline class="st4" points="1480.3,762.1 1419.2,823.5 1419.2,1012.1 1336.2,1095.5 									"/>
									<polyline class="st4" points="205.9,824.9 205.9,984.7 143.3,1047.8 143.3,1228.8 									"/>
									<polyline class="st4" points="434.7,271 619.8,271 672.3,323.8 672.3,411.3 									"/>
									<polyline class="st5" points="474.6,240.3 647,240.3 797.3,391.4 917.9,391.4 1010.1,484.1 1157.1,484.1 									"/>
									<polyline class="st5" points="917.9,1026.6 917.9,1234 967.4,1283.7 1224.3,1283.7 1276.2,1231.5 1498.4,1231.5 									
										"/>
									<polyline class="st5" points="460.1,987.6 519.3,1047.1 519.3,1170.7 426.9,1263.6 213.2,1263.6 									"/>
									<polyline class="st5" points="224.1,411.3 224.1,547.9 154.5,617.9 154.5,741.5 93.7,802.7 									"/>
									<polyline class="st5" points="625.3,625.2 692,692.3 692,836.6 745.1,889.9 									"/>
									<polyline class="st4" points="656.1,708.5 656.1,1005.8 736.8,1087 736.8,1191 									"/>
									<polyline class="st4" points="38.6,110.6 163.2,235.9 163.2,342.8 									"/>
									<polyline class="st4" points="1727.1,218.9 1585.8,361 1585.8,546.3 1512,620.6 									"/>
									<polyline class="st4" points="1727.1,1263.6 1587.6,1123.3 1587.6,895 1523.9,830.8 									"/>
									<polyline class="st5" points="118.8,276.5 118.8,472.6 75.1,516.6 75.1,725.1 									"/>
									<polyline class="st5" points="1625.5,387.2 1625.5,692.3 1662.6,729.7 1662.6,1027.1 									"/>
									<polyline class="st6" points="400.2,341.1 482.3,423.7 482.3,641.8 577.1,737.3 577.1,1181.6 753.3,1358.8 									"/>
									<polyline class="st6" points="824.9,582.4 1012.9,771.5 1315.1,771.5 1366.5,823.2 1366.5,989.5 1181.1,1176 									"/>
									<polyline class="st6" points="519.3,204.6 1039.1,204.6 1095.9,261.7 1273.5,261.7 1470.9,63.2 									"/>
									<polyline class="st6" points="247.7,769 247.7,1070.4 187.2,1131.2 									"/>
									<polyline class="st6" points="163.2,865.2 70.3,958.7 70.3,1126.2 108.3,1164.5 108.3,1280.3 									"/>
									<polyline class="st5" points="956.4,813.9 1293.3,813.9 1328.7,849.5 1328.7,972.1 1115.9,1186.1 									"/>
									<polyline class="st5" points="576.8,489.6 805.1,719.3 805.1,1000 850.2,1045.4 850.2,1380.6 									"/>
									<polyline class="st5" points="306,122.7 189.4,240 189.4,315.1 									"/>
									<polyline class="st5" points="1128.1,354.2 1356.8,354.2 1461,459 1461,577.4 									"/>
									<polyline class="st5" points="1255.2,1191 1523.9,1191 1694.6,1362.7 									"/>
									<polyline class="st6" points="174.6,391.1 282.3,282.8 282.3,233.3 405.2,109.7 									"/>
									<polyline class="st6" points="995.1,851.1 1088.2,944.7 1208.2,944.7 1279.9,872.6 									"/>
									<polyline class="st6" points="1461,853 1461,1089.1 1748.9,1378.6 									"/>
									<polyline class="st6" points="1736.2,162.4 1543.3,356.5 1543.3,525.9 									"/>
									<polyline class="st6" points="187.2,489.6 124.6,552.7 124.6,701.4 									"/>
									<polyline class="st6" points="736.8,240.3 805.1,308.9 937.5,308.9 1053,425.1 1294.6,425.1 									"/>
									<polyline class="st6" points="956.4,933.3 1004.4,981.6 1004.4,1108.9 1049.3,1154 1049.3,1234 									"/>
									<g>
										<ellipse class="st7" cx="732.7" cy="452" rx="6.1" ry="6.1"/>
										<ellipse class="st7" cx="774.3" cy="452" rx="6.1" ry="6.1"/>
										<ellipse class="st7" cx="815.9" cy="452" rx="6.1" ry="6.1"/>
										<ellipse class="st7" cx="857.5" cy="452" rx="6.1" ry="6.1"/>
										<ellipse class="st7" cx="899" cy="452" rx="6.1" ry="6.1"/>
									</g>
									<g>
										<path class="st7" d="M1434.9,220.5c0,3.4-2.7,6.1-6.1,6.1c-3.4,0-6.1-2.7-6.1-6.1c0-3.4,2.7-6.1,6.1-6.1
											C1432.2,214.4,1434.9,217.1,1434.9,220.5z"/>
										<ellipse class="st7" cx="1470.4" cy="220.5" rx="6.1" ry="6.1"/>
										<ellipse class="st7" cx="1512" cy="220.5" rx="6.1" ry="6.1"/>
										<ellipse class="st7" cx="1553.6" cy="220.5" rx="6.1" ry="6.1"/>
										<ellipse class="st7" cx="1595.1" cy="220.5" rx="6.1" ry="6.1"/>
									</g>
									<g>
										<ellipse class="st7" cx="247.1" cy="1223.7" rx="6.1" ry="6.1"/>
										<ellipse class="st7" cx="288.7" cy="1223.7" rx="6.1" ry="6.1"/>
										<ellipse class="st7" cx="330.3" cy="1223.7" rx="6.1" ry="6.1"/>
										<ellipse class="st7" cx="371.8" cy="1223.7" rx="6.1" ry="6.1"/>
										<path class="st7" d="M419.5,1223.7c0,3.4-2.7,6.1-6.1,6.1c-3.4,0-6.1-2.7-6.1-6.1c0-3.4,2.7-6.1,6.1-6.1
											C416.8,1217.6,419.5,1220.3,419.5,1223.7z"/>
									</g>
									<g>
										<path class="st7" d="M1562.6,796c3.4,0,6.1,2.7,6.1,6.1s-2.7,6.1-6.1,6.1c-3.4,0-6.1-2.7-6.1-6.1S1559.2,796,1562.6,796z"
											/>
										<ellipse class="st7" cx="1562.6" cy="760.3" rx="6.1" ry="6.1"/>
										<ellipse class="st7" cx="1562.6" cy="718.5" rx="6.1" ry="6.1"/>
										<ellipse class="st7" cx="1562.6" cy="676.7" rx="6.1" ry="6.1"/>
										<path class="st7" d="M1562.6,628.7c3.4,0,6.1,2.7,6.1,6.1s-2.7,6.1-6.1,6.1c-3.4,0-6.1-2.7-6.1-6.1
											S1559.2,628.7,1562.6,628.7z"/>
									</g>
									<g>
										<ellipse class="st7" cx="619.2" cy="927" rx="6.1" ry="6.1"/>
										<path class="st7" d="M619.2,879.1c3.4,0,6.1,2.7,6.1,6.1c0,3.4-2.7,6.1-6.1,6.1c-3.4,0-6.1-2.7-6.1-6.1
											C613.1,881.8,615.8,879.1,619.2,879.1z"/>
										<ellipse class="st7" cx="619.2" cy="843.4" rx="6.1" ry="6.1"/>
										<ellipse class="st7" cx="619.2" cy="801.6" rx="6.1" ry="6.1"/>
										<ellipse class="st7" cx="619.2" cy="759.7" rx="6.1" ry="6.1"/>
									</g>
									<g>
										<g>
											<path class="st7" d="M1093.7,1019.5c0,2.3-1.9,4.2-4.1,4.2c-2.3,0-4.1-1.9-4.1-4.2c0-2.3,1.9-4.2,4.1-4.2
												C1091.8,1015.3,1093.7,1017.2,1093.7,1019.5z"/>
											<path class="st7" d="M1115.6,1019.5c0,2.3-1.9,4.2-4.1,4.2c-2.3,0-4.1-1.9-4.1-4.2c0-2.3,1.9-4.2,4.1-4.2
												C1113.7,1015.3,1115.6,1017.2,1115.6,1019.5z"/>
											<path class="st7" d="M1137.5,1019.5c0,2.3-1.9,4.2-4.1,4.2c-2.3,0-4.1-1.9-4.1-4.2c0-2.3,1.9-4.2,4.1-4.2
												C1135.6,1015.3,1137.5,1017.2,1137.5,1019.5z"/>
										</g>
										<g>
											<path class="st7" d="M1093.7,1041.5c0,2.3-1.9,4.2-4.1,4.2c-2.3,0-4.1-1.9-4.1-4.2c0-2.3,1.9-4.2,4.1-4.2
												C1091.8,1037.3,1093.7,1039.2,1093.7,1041.5z"/>
											<path class="st7" d="M1115.6,1041.5c0,2.3-1.9,4.2-4.1,4.2c-2.3,0-4.1-1.9-4.1-4.2c0-2.3,1.9-4.2,4.1-4.2
												C1113.7,1037.3,1115.6,1039.2,1115.6,1041.5z"/>
											<path class="st7" d="M1137.5,1041.5c0,2.3-1.9,4.2-4.1,4.2c-2.3,0-4.1-1.9-4.1-4.2c0-2.3,1.9-4.2,4.1-4.2
												C1135.6,1037.3,1137.5,1039.2,1137.5,1041.5z"/>
										</g>
										<g>
											<path class="st7" d="M1093.7,1063.5c0,2.3-1.9,4.2-4.1,4.2c-2.3,0-4.1-1.9-4.1-4.2c0-2.3,1.9-4.2,4.1-4.2
												C1091.8,1059.4,1093.7,1061.2,1093.7,1063.5z"/>
											<path class="st7" d="M1115.6,1063.5c0,2.3-1.9,4.2-4.1,4.2c-2.3,0-4.1-1.9-4.1-4.2c0-2.3,1.9-4.2,4.1-4.2
												C1113.7,1059.4,1115.6,1061.2,1115.6,1063.5z"/>
											<path class="st7" d="M1137.5,1063.5c0,2.3-1.9,4.2-4.1,4.2c-2.3,0-4.1-1.9-4.1-4.2c0-2.3,1.9-4.2,4.1-4.2
												C1135.6,1059.4,1137.5,1061.2,1137.5,1063.5z"/>
										</g>
									</g>
									<g>
										<g>
											<path class="st7" d="M364.3,510.5c0,2.3-1.9,4.2-4.1,4.2s-4.1-1.9-4.1-4.2c0-2.3,1.9-4.2,4.1-4.2
												S364.3,508.2,364.3,510.5z"/>
											<path class="st7" d="M386.1,510.5c0,2.3-1.9,4.2-4.1,4.2s-4.1-1.9-4.1-4.2c0-2.3,1.9-4.2,4.1-4.2
												S386.1,508.2,386.1,510.5z"/>
											<path class="st7" d="M408,510.5c0,2.3-1.9,4.2-4.1,4.2c-2.3,0-4.1-1.9-4.1-4.2c0-2.3,1.9-4.2,4.1-4.2
												C406.2,506.4,408,508.2,408,510.5z"/>
										</g>
										<g>
											<path class="st7" d="M364.3,532.5c0,2.3-1.9,4.2-4.1,4.2s-4.1-1.9-4.1-4.2c0-2.3,1.9-4.2,4.1-4.2
												S364.3,530.2,364.3,532.5z"/>
											<path class="st7" d="M386.1,532.5c0,2.3-1.9,4.2-4.1,4.2s-4.1-1.9-4.1-4.2c0-2.3,1.9-4.2,4.1-4.2
												S386.1,530.2,386.1,532.5z"/>
											<path class="st7" d="M408,532.5c0,2.3-1.9,4.2-4.1,4.2c-2.3,0-4.1-1.9-4.1-4.2c0-2.3,1.9-4.2,4.1-4.2
												C406.2,528.4,408,530.2,408,532.5z"/>
										</g>
										<g>
											<path class="st7" d="M364.3,554.6c0,2.3-1.9,4.2-4.1,4.2s-4.1-1.9-4.1-4.2c0-2.3,1.9-4.2,4.1-4.2
												S364.3,552.3,364.3,554.6z"/>
											<path class="st7" d="M386.1,554.6c0,2.3-1.9,4.2-4.1,4.2s-4.1-1.9-4.1-4.2c0-2.3,1.9-4.2,4.1-4.2
												S386.1,552.3,386.1,554.6z"/>
											<path class="st7" d="M408,554.6c0,2.3-1.9,4.2-4.1,4.2c-2.3,0-4.1-1.9-4.1-4.2c0-2.3,1.9-4.2,4.1-4.2
												C406.2,550.4,408,552.3,408,554.6z"/>
										</g>
									</g>
									<g>
										<g>
											<path class="st7" d="M1345.3,478.8c0,2.3-1.9,4.2-4.1,4.2c-2.3,0-4.1-1.9-4.1-4.2c0-2.3,1.9-4.2,4.1-4.2
												C1343.5,474.6,1345.3,476.5,1345.3,478.8z"/>
											<path class="st7" d="M1367.2,478.8c0,2.3-1.9,4.2-4.1,4.2c-2.3,0-4.1-1.9-4.1-4.2c0-2.3,1.9-4.2,4.1-4.2
												C1365.4,474.6,1367.2,476.5,1367.2,478.8z"/>
											<path class="st7" d="M1389.1,478.8c0,2.3-1.9,4.2-4.1,4.2c-2.3,0-4.1-1.9-4.1-4.2c0-2.3,1.9-4.2,4.1-4.2
												C1387.3,474.6,1389.1,476.5,1389.1,478.8z"/>
										</g>
										<g>
											<path class="st7" d="M1345.3,500.8c0,2.3-1.9,4.2-4.1,4.2c-2.3,0-4.1-1.9-4.1-4.2s1.9-4.2,4.1-4.2
												C1343.5,496.6,1345.3,498.5,1345.3,500.8z"/>
											<path class="st7" d="M1367.2,500.8c0,2.3-1.9,4.2-4.1,4.2c-2.3,0-4.1-1.9-4.1-4.2s1.9-4.2,4.1-4.2
												C1365.4,496.6,1367.2,498.5,1367.2,500.8z"/>
											<path class="st7" d="M1389.1,500.8c0,2.3-1.9,4.2-4.1,4.2c-2.3,0-4.1-1.9-4.1-4.2s1.9-4.2,4.1-4.2
												C1387.3,496.6,1389.1,498.5,1389.1,500.8z"/>
										</g>
										<g>
											<path class="st7" d="M1345.3,522.8c0,2.3-1.9,4.2-4.1,4.2c-2.3,0-4.1-1.9-4.1-4.2c0-2.3,1.9-4.2,4.1-4.2
												C1343.5,518.6,1345.3,520.5,1345.3,522.8z"/>
											<path class="st7" d="M1367.2,522.8c0,2.3-1.9,4.2-4.1,4.2c-2.3,0-4.1-1.9-4.1-4.2c0-2.3,1.9-4.2,4.1-4.2
												C1365.4,518.6,1367.2,520.5,1367.2,522.8z"/>
											<path class="st7" d="M1389.1,522.8c0,2.3-1.9,4.2-4.1,4.2c-2.3,0-4.1-1.9-4.1-4.2c0-2.3,1.9-4.2,4.1-4.2
												C1387.3,518.6,1389.1,520.5,1389.1,522.8z"/>
										</g>
									</g>
									<g>
										<g>
											<path class="st7" d="M776.5,1231.3c0,2.3-1.9,4.2-4.1,4.2c-2.3,0-4.1-1.9-4.1-4.2c0-2.3,1.9-4.2,4.1-4.2
												C774.6,1227.2,776.5,1229,776.5,1231.3z"/>
											<path class="st7" d="M798.4,1231.3c0,2.3-1.9,4.2-4.1,4.2c-2.3,0-4.1-1.9-4.1-4.2c0-2.3,1.9-4.2,4.1-4.2
												C796.5,1227.2,798.4,1229,798.4,1231.3z"/>
											<path class="st7" d="M820.3,1231.3c0,2.3-1.9,4.2-4.1,4.2c-2.3,0-4.1-1.9-4.1-4.2c0-2.3,1.9-4.2,4.1-4.2
												C818.4,1227.2,820.3,1229,820.3,1231.3z"/>
										</g>
										<g>
											<path class="st7" d="M776.5,1253.3c0,2.3-1.9,4.2-4.1,4.2c-2.3,0-4.1-1.9-4.1-4.2c0-2.3,1.9-4.2,4.1-4.2
												C774.6,1249.2,776.5,1251,776.5,1253.3z"/>
											<path class="st7" d="M798.4,1253.3c0,2.3-1.9,4.2-4.1,4.2c-2.3,0-4.1-1.9-4.1-4.2c0-2.3,1.9-4.2,4.1-4.2
												C796.5,1249.2,798.4,1251,798.4,1253.3z"/>
											<path class="st7" d="M820.3,1253.3c0,2.3-1.9,4.2-4.1,4.2c-2.3,0-4.1-1.9-4.1-4.2c0-2.3,1.9-4.2,4.1-4.2
												C818.4,1249.2,820.3,1251,820.3,1253.3z"/>
										</g>
										<g>
											<path class="st7" d="M776.5,1275.4c0,2.3-1.9,4.2-4.1,4.2c-2.3,0-4.1-1.9-4.1-4.2c0-2.3,1.9-4.2,4.1-4.2
												C774.6,1271.2,776.5,1273.1,776.5,1275.4z"/>
											<path class="st7" d="M798.4,1275.4c0,2.3-1.9,4.2-4.1,4.2c-2.3,0-4.1-1.9-4.1-4.2c0-2.3,1.9-4.2,4.1-4.2
												C796.5,1271.2,798.4,1273.1,798.4,1275.4z"/>
											<path class="st7" d="M820.3,1275.4c0,2.3-1.9,4.2-4.1,4.2c-2.3,0-4.1-1.9-4.1-4.2c0-2.3,1.9-4.2,4.1-4.2
												C818.4,1271.2,820.3,1273.1,820.3,1275.4z"/>
										</g>
									</g>
									<g>
										<g>
											<path class="st7" d="M518.9,1231.9c0,2.3-1.9,4.2-4.1,4.2c-2.3,0-4.1-1.9-4.1-4.2c0-2.3,1.9-4.2,4.1-4.2
												C517,1227.7,518.9,1229.6,518.9,1231.9z"/>
											<path class="st7" d="M540.7,1231.9c0,2.3-1.9,4.2-4.1,4.2c-2.3,0-4.1-1.9-4.1-4.2c0-2.3,1.9-4.2,4.1-4.2
												C538.9,1227.7,540.7,1229.6,540.7,1231.9z"/>
											<path class="st7" d="M562.6,1231.9c0,2.3-1.9,4.2-4.1,4.2c-2.3,0-4.1-1.9-4.1-4.2c0-2.3,1.9-4.2,4.1-4.2
												C560.8,1227.7,562.6,1229.6,562.6,1231.9z"/>
										</g>
										<g>
											<path class="st7" d="M518.9,1253.9c0,2.3-1.9,4.2-4.1,4.2c-2.3,0-4.1-1.9-4.1-4.2s1.9-4.2,4.1-4.2
												C517,1249.7,518.9,1251.6,518.9,1253.9z"/>
											<path class="st7" d="M540.7,1253.9c0,2.3-1.9,4.2-4.1,4.2c-2.3,0-4.1-1.9-4.1-4.2s1.9-4.2,4.1-4.2
												C538.9,1249.7,540.7,1251.6,540.7,1253.9z"/>
											<path class="st7" d="M562.6,1253.9c0,2.3-1.9,4.2-4.1,4.2c-2.3,0-4.1-1.9-4.1-4.2s1.9-4.2,4.1-4.2
												C560.8,1249.7,562.6,1251.6,562.6,1253.9z"/>
										</g>
										<g>
											<path class="st7" d="M518.9,1275.9c0,2.3-1.9,4.2-4.1,4.2c-2.3,0-4.1-1.9-4.1-4.2c0-2.3,1.9-4.2,4.1-4.2
												C517,1271.7,518.9,1273.6,518.9,1275.9z"/>
											<path class="st7" d="M540.7,1275.9c0,2.3-1.9,4.2-4.1,4.2c-2.3,0-4.1-1.9-4.1-4.2c0-2.3,1.9-4.2,4.1-4.2
												C538.9,1271.7,540.7,1273.6,540.7,1275.9z"/>
											<path class="st7" d="M562.6,1275.9c0,2.3-1.9,4.2-4.1,4.2c-2.3,0-4.1-1.9-4.1-4.2c0-2.3,1.9-4.2,4.1-4.2
												C560.8,1271.7,562.6,1273.6,562.6,1275.9z"/>
										</g>
									</g>
									<polyline class="st5" points="364.3,625.7 486.3,748.5 486.3,936.4 542,992.4 									"/>
									<polyline class="st5" points="282.6,737.7 282.6,1113.4 344.9,1176.1 									"/>
									<polyline class="st5" points="801.3,240.3 935.7,240.3 1012.1,317.2 									"/>
									<polyline class="st5" points="467.3,305.4 506.6,344.8 576.8,344.8 617.2,385.5 									"/>
									<g>
										<ellipse class="st7" cx="1012.2" cy="682.8" rx="9.4" ry="9.4"/>
										<ellipse class="st7" cx="1047.1" cy="682.8" rx="9.4" ry="9.4"/>
									</g>
									<g>
										<path class="st7" d="M343.7,274.3c0,5.2-4.2,9.4-9.4,9.4s-9.4-4.2-9.4-9.4c0-5.2,4.2-9.4,9.4-9.4S343.7,269.1,343.7,274.3
											z"/>
										<path class="st7" d="M378.5,274.3c0,5.2-4.2,9.4-9.4,9.4s-9.4-4.2-9.4-9.4c0-5.2,4.2-9.4,9.4-9.4S378.5,269.1,378.5,274.3
											z"/>
									</g>
									<g>
										<g>
											<ellipse class="st7" cx="340.7" cy="910" rx="9.4" ry="9.4"/>
											<ellipse class="st7" cx="375.5" cy="910" rx="9.4" ry="9.4"/>
										</g>
										<g>
											<ellipse class="st7" cx="340.7" cy="941.3" rx="9.4" ry="9.4"/>
											<ellipse class="st7" cx="375.5" cy="941.3" rx="9.4" ry="9.4"/>
										</g>
										<g>
											<ellipse class="st7" cx="340.7" cy="972.5" rx="9.4" ry="9.4"/>
											<ellipse class="st7" cx="375.5" cy="972.5" rx="9.4" ry="9.4"/>
										</g>
										<g>
											<ellipse class="st7" cx="340.7" cy="1003.8" rx="9.4" ry="9.4"/>
											<ellipse class="st7" cx="375.5" cy="1003.8" rx="9.4" ry="9.4"/>
										</g>
									</g>
									<g>
										<g>
											<ellipse class="st7" cx="1506.5" cy="918.9" rx="9.4" ry="9.4"/>
											<ellipse class="st7" cx="1541.3" cy="918.9" rx="9.4" ry="9.4"/>
										</g>
										<g>
											<ellipse class="st7" cx="1506.5" cy="950.2" rx="9.4" ry="9.4"/>
											<ellipse class="st7" cx="1541.3" cy="950.2" rx="9.4" ry="9.4"/>
										</g>
										<g>
											<ellipse class="st7" cx="1506.5" cy="981.5" rx="9.4" ry="9.4"/>
											<ellipse class="st7" cx="1541.3" cy="981.5" rx="9.4" ry="9.4"/>
										</g>
										<g>
											<ellipse class="st7" cx="1506.5" cy="1012.7" rx="9.4" ry="9.4"/>
											<ellipse class="st7" cx="1541.3" cy="1012.7" rx="9.4" ry="9.4"/>
										</g>
									</g>
									<g>
										<ellipse class="st7" cx="1289.2" cy="682.8" rx="9.4" ry="9.4"/>
										<ellipse class="st7" cx="1324" cy="682.8" rx="9.4" ry="9.4"/>
									</g>
									<g>
										<path class="st7" d="M1265.4,292.2c0,5.2-4.2,9.4-9.4,9.4s-9.4-4.2-9.4-9.4c0-5.2,4.2-9.4,9.4-9.4
											S1265.4,287,1265.4,292.2z"/>
										<path class="st7" d="M1300.3,292.2c0,5.2-4.2,9.4-9.4,9.4c-5.2,0-9.4-4.2-9.4-9.4c0-5.2,4.2-9.4,9.4-9.4
											C1296.1,282.8,1300.3,287,1300.3,292.2z"/>
									</g>
									<g>
										<ellipse class="st7" cx="125.9" cy="972.5" rx="9.4" ry="9.4"/>
										<ellipse class="st7" cx="160.7" cy="972.5" rx="9.4" ry="9.4"/>
									</g>
									<polyline class="st4" points="585.3,452.9 834.6,703.6 834.6,966.9 									"/>
									<polyline class="st5" points="753.3,525.9 899,525.9 1001.2,628.7 									"/>
									<polyline class="st5" points="1095.7,656.7 1161.7,723 1412.7,723 									"/>
									<polyline class="st5" points="519.3,518.6 519.3,615.6 607.1,703.9 									"/>
									<polyline class="st5" points="619.2,1026.8 674.1,1082 674.1,1223.7 722,1271.9 									"/>
									<polyline class="st5" points="334.3,385.5 373.2,385.5 446.6,459.4 446.6,651 529.6,734.4 529.6,910 									"/>
									<polyline class="st5" points="1059.6,977.4 894.2,811.1 894.2,694.1 									"/>
									<polyline class="st5" points="1263.6,837.3 1204,897.2 1158,897.2 1128.5,926.8 									"/>
									<polyline class="st4" points="1045,843.4 1070.2,868.7 1176.5,868.7 									"/>
									<polyline class="st5" points="1306.4,902.3 1255.4,953.6 1255.4,987.8 1191.7,1051.9 									"/>
									<polyline class="st5" points="1042.5,1015.3 1042.5,1095.5 1093.8,1147.2 									"/>
								</g>
								<g>
									<ellipse class="st7" cx="879.4" cy="921.9" rx="11.2" ry="11.3"/>
									<ellipse class="st7" cx="656.1" cy="708.5" rx="11.2" ry="11.3"/>
									<ellipse class="st7" cx="585.3" cy="452.9" rx="11.2" ry="11.3"/>
									<ellipse class="st7" cx="834.6" cy="966.9" rx="11.2" ry="11.3"/>
									<ellipse class="st7" cx="334.3" cy="338.6" rx="11.2" ry="11.3"/>
									<ellipse class="st7" cx="163.2" cy="342.8" rx="11.2" ry="11.3"/>
									<ellipse class="st7" cx="434.7" cy="271" rx="11.2" ry="11.3"/>
									<ellipse class="st7" cx="1346.9" cy="643.5" rx="11.2" ry="11.3"/>
									<ellipse class="st7" cx="1412.7" cy="664" rx="11.2" ry="11.3"/>
									<ellipse class="st7" cx="1477.2" cy="264.9" rx="11.2" ry="11.3"/>
									<ellipse class="st7" cx="1523.9" cy="830.8" rx="11.2" ry="11.3"/>
									<ellipse class="st7" cx="1047.1" cy="844.5" rx="11.2" ry="11.3"/>
									<ellipse class="st7" cx="1336.2" cy="1095.5" rx="11.2" ry="11.3"/>
									<path class="st7" d="M761.6,525.9c0,4.4-3.5,8-7.9,8s-7.9-3.6-7.9-8c0-4.4,3.5-8,7.9-8S761.6,521.5,761.6,525.9z"/>
									<ellipse class="st7" cx="801.3" cy="240.3" rx="7.9" ry="8"/>
									<ellipse class="st7" cx="1012.2" cy="319.6" rx="7.9" ry="8"/>
									<ellipse class="st7" cx="1128.1" cy="354.2" rx="7.9" ry="8"/>
									<path class="st7" d="M1468.9,576.2c0,4.4-3.5,8-7.9,8s-7.9-3.6-7.9-8c0-4.4,3.5-8,7.9-8S1468.9,571.8,1468.9,576.2z"/>
									<ellipse class="st7" cx="1625.5" cy="387.2" rx="7.9" ry="8"/>
									<ellipse class="st5" cx="948.5" cy="813.9" rx="7.9" ry="8"/>
									<ellipse class="st5" cx="1662.6" cy="1035" rx="7.9" ry="8"/>
									<ellipse class="st5" cx="1110.4" cy="1192.3" rx="7.9" ry="8"/>
									<ellipse class="st5" cx="917.9" cy="1018.6" rx="7.9" ry="8"/>
									<ellipse class="st7" cx="824.9" cy="582.4" rx="5" ry="5"/>
									<ellipse class="st7" cx="400.8" cy="341.1" rx="5" ry="5"/>
									<path class="st7" d="M524.3,204.4c0,2.8-2.2,5-5,5c-2.8,0-5-2.2-5-5c0-2.8,2.2-5,5-5C522.1,199.4,524.3,201.6,524.3,204.4z
										"/>
									<path class="st7" d="M741.8,240.3c0,2.8-2.2,5-5,5c-2.8,0-5-2.2-5-5c0-2.8,2.2-5,5-5C739.6,235.3,741.8,237.5,741.8,240.3z
										"/>
									<path class="st7" d="M1299.5,425.1c0,2.8-2.2,5-5,5s-5-2.2-5-5c0-2.8,2.2-5,5-5S1299.5,422.3,1299.5,425.1z"/>
									<ellipse class="st7" cx="124.6" cy="697.2" rx="5" ry="5"/>
									<path class="st7" d="M252.7,769c0,2.8-2.2,5-5,5c-2.8,0-5-2.2-5-5c0-2.8,2.2-5,5-5C250.4,764,252.7,766.3,252.7,769z"/>
									<ellipse class="st7" cx="163.2" cy="865.2" rx="5" ry="5"/>
									<path class="st7" d="M192.2,1131.2c0,2.8-2.2,5-5,5c-2.8,0-5-2.2-5-5c0-2.8,2.2-5,5-5
										C190,1126.2,192.2,1128.4,192.2,1131.2z"/>
									<path class="st7" d="M113.4,1280.3c0,2.8-2.2,5-5,5s-5-2.2-5-5c0-2.8,2.2-5,5-5S113.4,1277.5,113.4,1280.3z"/>
									<path class="st7" d="M192.2,489.6c0,2.8-2.2,5-5,5c-2.8,0-5-2.2-5-5c0-2.8,2.2-5,5-5C190,484.6,192.2,486.9,192.2,489.6z"
										/>
									<ellipse class="st6" cx="170.8" cy="394.5" rx="5" ry="5"/>
									<ellipse class="st7" cx="1279.9" cy="872.6" rx="5" ry="5"/>
									<path class="st7" d="M961.4,933.1c0,2.8-2.2,5-5,5c-2.8,0-5-2.2-5-5s2.2-5,5-5C959.2,928.1,961.4,930.4,961.4,933.1z"/>
									<path class="st7" d="M1466,853c0,2.8-2.2,5-5,5s-5-2.2-5-5c0-2.8,2.2-5,5-5S1466,850.2,1466,853z"/>
									<path class="st7" d="M1548.3,525.9c0,2.8-2.2,5-5,5s-5-2.2-5-5c0-2.8,2.2-5,5-5S1548.3,523.1,1548.3,525.9z"/>
									<ellipse class="st6" cx="992" cy="847.3" rx="5" ry="5"/>
									<path class="st6" d="M1054.3,1239c0,2.8-2.2,5-5,5s-5-2.2-5-5s2.2-5,5-5S1054.3,1236.2,1054.3,1239z"/>
									<path class="st7" d="M1186.2,1176c0,2.8-2.2,5-5,5c-2.8,0-5-2.2-5-5c0-2.8,2.2-5,5-5
										C1183.9,1170.9,1186.2,1173.2,1186.2,1176z"/>
									<ellipse class="st7" cx="296.7" cy="426.5" rx="7.9" ry="8"/>
									<path class="st7" d="M232,411.3c0,4.4-3.5,8-7.9,8c-4.4,0-7.9-3.6-7.9-8c0-4.4,3.5-8,7.9-8
										C228.5,403.3,232,406.9,232,411.3z"/>
									<ellipse class="st7" cx="617.2" cy="385.5" rx="7.9" ry="8"/>
									<ellipse class="st7" cx="1157.1" cy="484.1" rx="7.9" ry="8"/>
									<path class="st7" d="M83,725.1c0,4.4-3.5,8-7.9,8c-4.4,0-7.9-3.6-7.9-8c0-4.4,3.5-8,7.9-8C79.4,717.1,83,720.7,83,725.1z"
										/>
									<ellipse class="st7" cx="282.6" cy="739.5" rx="7.9" ry="8"/>
									<ellipse class="st7" cx="419.5" cy="779.1" rx="7.9" ry="8"/>
									<ellipse class="st7" cx="609.3" cy="705.2" rx="7.9" ry="8"/>
									<ellipse class="st7" cx="529.6" cy="910" rx="7.9" ry="8"/>
									<path class="st7" d="M213.9,824.9c0,4.4-3.5,8-7.9,8c-4.4,0-7.9-3.6-7.9-8c0-4.4,3.5-8,7.9-8
										C210.3,816.9,213.9,820.5,213.9,824.9z"/>
									<ellipse class="st7" cx="213.2" cy="1263.6" rx="7.9" ry="8"/>
									<path class="st7" d="M372.2,625.7c0,4.4-3.5,8-7.9,8c-4.4,0-7.9-3.6-7.9-8c0-4.4,3.5-8,7.9-8
										C368.6,617.7,372.2,621.3,372.2,625.7z"/>
									<ellipse class="st7" cx="745.1" cy="889.9" rx="7.9" ry="8"/>
									<ellipse class="st7" cx="619.8" cy="1026.6" rx="7.9" ry="8"/>
									<ellipse class="st7" cx="542" cy="992.4" rx="7.9" ry="8"/>
									<path class="st7" d="M352.4,1176.1c0,4.4-3.5,8-7.9,8c-4.4,0-7.9-3.6-7.9-8c0-4.4,3.5-8,7.9-8
										C348.8,1168.1,352.4,1171.7,352.4,1176.1z"/>
									<ellipse class="st5" cx="455.2" cy="982.4" rx="7.9" ry="8"/>
									<path class="st5" d="M735.4,1278.4c0,4.4-3.5,8-7.9,8c-4.4,0-7.9-3.6-7.9-8s3.5-8,7.9-8
										C731.9,1270.5,735.4,1274,735.4,1278.4z"/>
									<ellipse class="st5" cx="571.8" cy="484.6" rx="7.9" ry="8"/>
									<ellipse class="st5" cx="519.3" cy="511.3" rx="7.9" ry="8"/>
									<ellipse class="st5" cx="326.4" cy="385.4" rx="7.9" ry="8"/>
									<path class="st5" d="M628,619.7c0,4.4-3.5,8-7.9,8s-7.9-3.6-7.9-8c0-4.4,3.5-8,7.9-8S628,615.3,628,619.7z"/>
									<ellipse class="st5" cx="1268.2" cy="831.7" rx="7.9" ry="8"/>
									<ellipse class="st5" cx="1090.8" cy="650.9" rx="7.9" ry="8"/>
									<ellipse class="st5" cx="1311.9" cy="895.6" rx="7.9" ry="8"/>
									<ellipse class="st5" cx="1065.3" cy="984.1" rx="7.9" ry="8"/>
									<path class="st7" d="M1009.2,628.7c0,4.4-3.5,8-7.9,8c-4.4,0-7.9-3.6-7.9-8c0-4.4,3.5-8,7.9-8
										C1005.6,620.7,1009.2,624.3,1009.2,628.7z"/>
									<ellipse class="st7" cx="1412.7" cy="723" rx="7.9" ry="8"/>
									<path class="st7" d="M1137.5,925.2c0,4.4-3.5,8-7.9,8s-7.9-3.6-7.9-8c0-4.4,3.5-8,7.9-8S1137.5,920.8,1137.5,925.2z"/>
									<ellipse class="st7" cx="894" cy="691.3" rx="7.9" ry="8"/>
									<ellipse class="st7" cx="1189.8" cy="1052.6" rx="7.9" ry="8"/>
									<ellipse class="st7" cx="1042.5" cy="1013.3" rx="7.9" ry="8"/>
									<ellipse class="st7" cx="1092.8" cy="1147.8" rx="7.9" ry="8"/>
									<path class="st7" d="M1501.5,1231.6c0,4.4-3.5,8-7.9,8s-7.9-3.6-7.9-8c0-4.4,3.5-8,7.9-8S1501.5,1227.2,1501.5,1231.6z"/>
									<ellipse class="st5" cx="118.8" cy="268.5" rx="7.9" ry="8"/>
									<ellipse class="st5" cx="89" cy="807.4" rx="7.9" ry="8"/>
									<ellipse class="st5" cx="461.6" cy="299.8" rx="7.9" ry="8"/>
									<ellipse class="st5" cx="467.3" cy="240.3" rx="7.9" ry="8"/>
									<ellipse class="st5" cx="189.4" cy="323" rx="7.9" ry="8"/>
									<path class="st7" d="M1263.1,1191c0,4.4-3.5,8-7.9,8s-7.9-3.6-7.9-8c0-4.4,3.5-8,7.9-8S1263.1,1186.6,1263.1,1191z"/>
									<ellipse class="st4" cx="709.6" cy="500.1" rx="11.2" ry="11.3"/>
									<ellipse class="st4" cx="1055.5" cy="319.6" rx="11.2" ry="11.3"/>
									<ellipse class="st4" cx="672.3" cy="422.6" rx="11.2" ry="11.3"/>
									<ellipse class="st4" cx="420.1" cy="1147.8" rx="11.2" ry="11.3"/>
									<ellipse class="st4" cx="143.3" cy="1242.6" rx="11.2" ry="11.3"/>
									<ellipse class="st4" cx="1058.3" cy="607.9" rx="11.2" ry="11.3"/>
									<ellipse class="st4" cx="1488.4" cy="754.2" rx="11.2" ry="11.3"/>
									<ellipse class="st4" cx="1186.5" cy="869.3" rx="11.2" ry="11.3"/>
									<ellipse class="st4" cx="1504.3" cy="628.7" rx="11.2" ry="11.3"/>
									<ellipse class="st4" cx="736.8" cy="1200.3" rx="11.2" ry="11.3"/>
									<ellipse class="st7" cx="956.4" cy="1210.5" rx="11.2" ry="11.3"/>
								</g>
							</g>
						</g>
					</g>
				</g>
			</g>
		</g>
	</g>
</g>
<path class="st8" d="M944.8,609h-9.9v-66.2c0-103.3-82.8-187.1-184.9-187.1h0c-102.1,0-184.9,83.8-184.9,187.1V609h-9.9
	c-24.6,0-44.5,20.1-44.5,45v280.4c0,24.9,19.9,45,44.5,45h389.6c24.6,0,44.5-20.1,44.5-45V654C989.3,629.1,969.4,609,944.8,609z
	 M618.9,538.8c0-73.3,58.7-132.7,131.1-132.7h0c72.4,0,131.1,59.4,131.1,132.7V609H618.9V538.8z M769.9,799.9V851
	c0,11.1-8.9,20.2-19.9,20.2l0,0c-11,0-19.9-9-19.9-20.2v-51.1c-13.9-7.3-23.3-22-23.3-38.9c0-24.2,19.4-43.8,43.3-43.8
	s43.3,19.6,43.3,43.8C793.3,777.9,783.8,792.6,769.9,799.9z"/>
</svg>
