<svg xmlns="http://www.w3.org/2000/svg" viewBox="0 0 490.88 490.88"><defs><style>.cls-1{isolation:isolate;}.cls-2{fill:#ed2f37;}.cls-3{fill:#a7a9ac;mix-blend-mode:multiply;}.cls-4{fill:#fff;}</style></defs><g class="cls-1"><g id="Ñëîé_1" data-name="Ñëîé 1"><path class="cls-2" d="M650,557.28a246.89,246.89,0,0,1-2.06,31.9c-14.28,110-101.44,197.2-211.48,211.48a246.89,246.89,0,0,1-31.9,2.06c-135.55,0-245.44-109.89-245.44-245.44S269,311.84,404.56,311.84,650,421.73,650,557.28Z" transform="translate(-159.12 -311.84)"/><path class="cls-3" d="M645.93,602A245.66,245.66,0,0,1,449.26,798.65a24,24,0,0,1-21.39-6.58L292.66,656.86a23.92,23.92,0,0,1,0-33.84L470.3,445.38a23.92,23.92,0,0,1,33.84,0L639.35,580.59A24,24,0,0,1,645.93,602Z" transform="translate(-159.12 -311.84)"/><path class="cls-4" d="M518.61,459.84,502,443.23a20.9,20.9,0,0,0-29.55,0l-53.12,53.12a20.88,20.88,0,0,1-29.54,0l-53.12-53.12a20.88,20.88,0,0,0-29.54,0l-16.62,16.61a20.9,20.9,0,0,0,0,29.55l53.12,53.12a20.88,20.88,0,0,1,0,29.54l-53.12,53.12a20.9,20.9,0,0,0,0,29.55l16.62,16.61a20.88,20.88,0,0,0,29.54,0l53.12-53.12a20.88,20.88,0,0,1,29.54,0l53.12,53.12a20.9,20.9,0,0,0,29.55,0l16.61-16.61a20.9,20.9,0,0,0,0-29.55l-53.12-53.12a20.88,20.88,0,0,1,0-29.54l53.12-53.12A20.9,20.9,0,0,0,518.61,459.84Z" transform="translate(-159.12 -311.84)"/></g></g></svg>