<svg id="Ebene_1" data-name="Ebene 1" xmlns="http://www.w3.org/2000/svg" viewBox="0 0 279.07 217.1"><path d="M115.78,936.86,56.5,996.14a17.54,17.54,0,0,0,0,24.73,18.12,18.12,0,0,0,25.22,0l30.81-30.33v141.8a15.73,15.73,0,0,0,4.61,11.4c.08.08-.18.18-.08.27a16.74,16.74,0,0,0,4.39,3.09,1.07,1.07,0,0,0,.19.13,19,19,0,0,0,6.77,1.61l.71,0,1.37,0c9.21-.44,17-7.69,17-16.5V992l0,.22.2.15.09.29,27.89,28.26a17.15,17.15,0,0,0,24.42,0,17.54,17.54,0,0,0,0-24.73l-59.3-59.28A17.4,17.4,0,0,0,129,931.77q-.75,0-1.5,0A17.42,17.42,0,0,0,115.78,936.86Z" transform="translate(-51.4 -931.76)"/><path d="M266.08,1143.75l59.29-59.27a17.45,17.45,0,0,0-24.62-24.74l-30.21,30.33V948.27a16.3,16.3,0,0,0-5.21-11.39,2.61,2.61,0,0,0-.22-.27,17.81,17.81,0,0,0-4.54-3.1l-.27-.12a19,19,0,0,0-6.8-1.62H252c-9.21.45-16.43,7.7-16.43,16.5v140.39l-.56-.21-.5-.15-.25-.29-27.95-28.27a17.23,17.23,0,0,0-24.47,0,17.54,17.54,0,0,0,0,24.74l59.29,59.27a17.39,17.39,0,0,0,11.72,5.1h1.5A17.37,17.37,0,0,0,266.08,1143.75Z" transform="translate(-51.4 -931.76)"/></svg>