<svg xmlns="http://www.w3.org/2000/svg" viewBox="0 0 1500 1500"><defs><style>.cls-1,.cls-15,.cls-18,.cls-8,.cls-9{fill:#fff;}.cls-2{fill:#c11910;}.cls-3{fill:#ce2e1d;}.cls-4{fill:#a8180c;}.cls-5{fill:#ffd6d2;}.cls-6{fill:#dd2f2f;}.cls-7{fill:#ffc2b6;}.cls-8{opacity:0.3;}.cls-9{opacity:0.26;}.cls-10{fill:#f0c6b6;}.cls-11{fill:#ffd5c5;}.cls-12{opacity:0.44;}.cls-13{fill:#ff8080;}.cls-14{fill:#ffe9d4;}.cls-15{opacity:0.55;}.cls-16{fill:#d62424;}.cls-17{fill:#ff9480;}.cls-18{opacity:0.11;}.cls-19{fill:#ff6b6b;}.cls-20{fill:#d11d1d;}</style></defs><g id="ƒŒƒCƒ__6" data-name="ƒŒƒCƒ„[_6"><rect class="cls-1" width="1500" height="1500" rx="418.14"/><path class="cls-2" d="M1135.3,637.49c4.46-46.23,3.83-93.91-5.19-139s-27.22-86.25-53.67-115.6c-31-34.41-69.51-53-107.84-64.5-43.48-13.07-88.12-16.72-132.47-18.48-43.23-1.71-86.63-3.22-129.85-.29a434.14,434.14,0,0,0-124.9,27c-40.51,15.31-79.86,35.94-118.95,57.11Q335.59,452.32,208.9,521.53c-19.34,10.52-38.63,21.26-58.52,29.62a6.77,6.77,0,0,0-1.37.78c-2.28-7.09-9.71-3.13-11.36,6.61-9.66,57.09-14.34,111.59-10.05,170,3.74,51,10.3,108.17,44,137.45,30.91,26.84,70.94,24.12,105.51,17.31,40.25-7.93,79.36-23.89,119.26-34.4C546.07,809.44,700.69,886.43,851,891.11c93.88,2.91,203.26,17.43,254.27-117.7C1121.12,731.5,1130.79,684.33,1135.3,637.49Z" transform="translate(-4 -4)"/><path class="cls-3" d="M245.88,668.94c8.71-42-40.82-54.9-38.94-98.57q1-24.69,2.82-49.3l-.86.47c-19.34,10.51-38.64,21.26-58.52,29.62a6.33,6.33,0,0,0-1.37.78c-2.28-7.1-9.71-3.14-11.36,6.6-9.67,57.09-14.34,111.6-10.05,170,3.74,51,10.3,108.17,44,137.45,17.87,15.51,38.77,21.13,59.9,21.82C228.06,798.26,235.6,718.47,245.88,668.94Z" transform="translate(-4 -4)"/><path class="cls-4" d="M1135.3,637.49c4.46-46.23,3.83-93.91-5.19-139s-27.22-86.25-53.67-115.6c-31-34.41-69.51-53-107.84-64.5-43.48-13.07-88.12-16.72-132.47-18.48-43.23-1.71-86.63-3.22-129.85-.29q-11.4.76-22.73,2.12a399.9,399.9,0,0,1,65.67,13.45c38.33,11.51,76.81,30.08,107.83,64.5C883.5,409,901.7,450,910.73,495.24s9.64,92.82,5.19,139c-4.51,46.84-14.19,94-30,135.92-26.68,70.68-69.34,100.41-117.39,112.28,27.61,4.51,55.13,7.76,82.51,8.62,93.88,2.91,203.26,17.43,254.27-117.7C1121.12,731.5,1130.79,684.33,1135.3,637.49Z" transform="translate(-4 -4)"/><path class="cls-5" d="M1114.32,434a322.71,322.71,0,0,0-94.23-128.37c-44.63-36.62-94.65-58.41-144.8-76.41-96.53-34.66-196.8-56.47-295.9-41.54-99.27,15-194.49,66.59-280.59,137.14C242.87,370.67,189,426.58,155.07,503.71c-24,54.52-34.43,120.43-8.73,176.55,23.79,51.91,65.87,73.15,109.3,66.38,44.63-7,84.09-45,128.34-55.7,104.18-25.2,229.94-20.39,341.61,17.25,90.22,30.41,185.44,67.14,274,28.35,39.1-17.12,74.92-48.86,102.27-91.44,13.91-21.66,25.83-46.63,31-74.81,6.55-35.94,1.52-74.44-8.79-108.62Q1119.74,447.42,1114.32,434Z" transform="translate(-4 -4)"/><path class="cls-5" d="M234.19,748.55c-37.34-2.31-69.46-26.53-88.37-67.82-30.78-67.18-7.75-140,8.72-177.48,37.73-85.79,100.22-143.33,143.94-179.16,94.21-77.18,188.69-123.36,280.84-137.25C666,173.78,760.09,187,875.45,228.4c45.47,16.32,98.25,38.18,145,76.5a323.37,323.37,0,0,1,94.45,128.71c3.65,9,6.93,18.36,9.75,27.72,8.16,27.08,16.32,68,8.81,109.18-4.58,25.13-14.75,49.72-31.1,75.17C1075,688.26,1039.51,720,999.77,737.37c-83.47,36.56-172.31,6.35-258.23-22.87q-8.07-2.75-16.1-5.46c-109.55-36.93-234-43.22-341.36-17.24-20.69,5-40.67,16.2-60,27-21.92,12.27-44.58,25-68.37,28.68A99.89,99.89,0,0,1,234.19,748.55ZM674.82,184.69a449.25,449.25,0,0,0-95.36,3.89c-92,13.86-186.29,60-280.35,137-43.6,35.73-105.92,93.11-143.5,178.57-16.32,37.1-39.15,109.24-8.74,175.62,22.21,48.46,62.84,73.12,108.71,66,23.61-3.68,46.19-16.33,68-28.57,19.39-10.86,39.44-22.09,60.26-27.12,107.54-26,232.15-19.73,341.87,17.26q8,2.7,16.1,5.46c85.75,29.16,174.42,59.32,257.55,22.91,39.53-17.31,74.79-48.85,102-91.19,16.21-25.24,26.29-49.59,30.82-74.44,7.42-40.71-.67-81.24-8.76-108.07-2.8-9.31-6.06-18.57-9.68-27.55a321.87,321.87,0,0,0-94-128c-46.57-38.22-99.25-60-144.63-76.32C800.75,203.39,735.21,188.42,674.82,184.69Z" transform="translate(-4 -4)"/><path class="cls-6" d="M1101.92,436.56a310.8,310.8,0,0,0-92.59-121.34c-43.72-34.8-92.62-55.75-141.62-73.16-94.33-33.5-192.23-55-288.79-42.05C482.19,213,389.61,260.4,306,325.63,251.73,368,163.53,468,150.38,551.15c-12,75.67,69,161.68,111.34,155.79,43.48-6.05,86.25-27.64,129.34-37.21C492.53,647.2,615.2,653,724.3,689.5,812.45,719,905.51,754.39,991.65,719c38-15.64,72.81-45,99.25-84.65,13.45-20.15,24.93-43.44,29.79-69.8,6.2-33.63,1.08-69.77-9.15-101.93Q1107.28,449.17,1101.92,436.56Z" transform="translate(-4 -4)"/><path class="cls-7" d="M1066.7,483.2c-3.5-42.08-16.64-82.93-37.75-112.6-12.89-18.12-58.68-72.52-77.71-45a24.82,24.82,0,0,0-4.13,13.12c-8.55,5.69-15.64,15.22-23.52,22.58C913,371.27,900.77,376.79,889,383.43s-22.67,14.9-33.42,24c-20.88,17.66-41.49,37-66.35,41-23.2,3.73-46.4-2.23-69.4-5.95-3-.49-6-.93-9-1.33-1.28-15.15-10-27.72-19.69-35.41A79.94,79.94,0,0,0,669,393.52,47.24,47.24,0,0,0,681.26,373a43.11,43.11,0,0,0-6.09-36.07,53.23,53.23,0,0,0-11.32-11.4c-4.13-3.18-9.69-5-13.24-9.41-4.07-5-1.29-11.6,2.48-15.24,4.53-4.39,10.76-5.16,16-6.51,9.93-2.55,20.83-8.22,21.66-24.52s-8.73-27.39-19-31.82c-11.23-4.87-23.68-6.63-35.3-9-79.3-15.82-181.77,32.49-251,83.53-49.08,36.2-91.18,69.75-131.24,124.51-18.61,25.44-35.07,74.82-30.63,110.9.42,3.39,1.06,6.92,2.72,9.39s4.62,3.43,6.49,1.24a11.83,11.83,0,0,0,1.75-3.5C246.23,524,260.47,485.19,278.09,459c80.83-110.25,179.17-156.87,282.5-197.63a79.89,79.89,0,0,1,35.4-5.47h.18l17.45,1.28c1.56.11,14.18-.63,14.8,1.74C629.47,263,622.7,269,621,271.06A36.94,36.94,0,0,0,613,288c-2.07,11.75,1,24.15,5.77,33.81,5.22,10.53,13.19,18.78,16.2,31.21,2.77,11.42,1.11,24.15-4.1,33.58a117.64,117.64,0,0,0-46.93,9.23,6.67,6.67,0,0,0-.82.22c-39.93,13.78-81.71-7-121.39,11-32,14.48-57.52,46.6-85.71,70.9-8.66,7.47-17.68,14.14-27.15,19q-12.92,4.57-26,8.25c-7.65,2.14-5.15,19.54,2.49,18.64a80.84,80.84,0,0,0,26.88-8.4,420.28,420.28,0,0,0,61.29-27.08c26.33-14.22,52.13-34.9,80.41-40.54a64.54,64.54,0,0,1,26.12-.16,56.14,56.14,0,0,0,1.53,26.08c5.66,18.55,15.93,28.52,28.18,33.51-4.91,5.32-10.7,9.82-14.29,14.34-9,11.39-27.66,61.85-39,73.86-10.36,11-22,19.23-28.39,35.81-2.33,6,.54,11.82,4.61,13.79,15.88,7.68,30.43-7.95,39.71-24.6,12.59-22.57,21.71-32.66,31.94-57.36,5-12.07,9.95-24.33,17.08-34.26a59.38,59.38,0,0,1,19.86-17.29c12.75-.59,25.42-3,35.93-4.4,18.75-2.48,37.55-6.32,55.63-13.87a87.53,87.53,0,0,0,18.39-10,163,163,0,0,1,25.58,1.41c21.48,2.92,43.1,7.92,64.74,5.12,18.34-2.38,36.09-9.73,52.56-21.15a143.17,143.17,0,0,0,23.81-20.89c7.58-8.27,13.81-18.62,21.31-26.89,8.23-9.05,18.66-9.72,28.72-10s19.95-.53,29.72-4.22c15-5.67,28.28-17.78,38.39-33.95,58,40.92,74.55,143.89,52.07,224-2,7.06-3.81,16.56.59,21,4.67,4.72,10.92-1.72,14.48-8C1063.24,574,1070.41,527.91,1066.7,483.2Z" transform="translate(-4 -4)"/><path class="cls-5" d="M938.78,646.65c-22.15-10.12-45.47-7.3-68.39-7.84-24.19-.57-47.61-8.46-71.16-15.43-38.91-11.52-82.49-19-117.65,13.12-6,5.51-2.53,17.33,4.07,17.59l60.45,2.38c29.85,9,59.8,18.11,90,23.61,34.75,6.32,71,6.2,103.34-15C945.68,661,945.53,649.73,938.78,646.65Z" transform="translate(-4 -4)"/><path class="cls-7" d="M723.55,259.5a452.47,452.47,0,0,1,100.61,30.42c8.42,3.64,30.67-16.36,6.14-29.2-32.21-16.86-69.71-13.85-103.84-19.9C717.79,239.28,714.79,258,723.55,259.5Z" transform="translate(-4 -4)"/><path class="cls-1" d="M677.88,445.74c.07-18.79-28.6-34.23-64-34.48s-64.2,14.77-64.27,33.56,28.59,34.22,64,34.48S677.81,464.53,677.88,445.74Z" transform="translate(-4 -4)"/><path class="cls-8" d="M841.19,255.76c-14.27-7.55-29.32-13.1-44.23-17.72-30.82-9.55-82.33-24.94-113.86-25.59C576.86,210.28,500.81,223.59,403,280.5c-81,47.12-195.26,140.84-223.3,270.67-7.9,36.57,39.95,116.61,74.77,119.65,14,1.23,28.35,1.32,42.06-3.08,51.76-16.58,71.18-91.47,101-142.08,69.62-118.29,177.09-183.1,286.78-205A525.3,525.3,0,0,1,772.9,311c15.42-.42,30.89-.48,46.2-3.07,11.59-2,27.18-4,34.4-18.08C861.17,274.91,851.48,261.21,841.19,255.76Z" transform="translate(-4 -4)"/><path class="cls-9" d="M1064.39,400.13c-14.45-23.86-31.55-44.19-49.93-62.24-18.53-18.19-39-38.37-62.43-40.6-19.55-1.86-39.9,11.32-46.38,37.55-3.76,15.22-3.3,31.83-6.28,47.37a193.42,193.42,0,0,1-13.39,42C863,475.83,823.57,513.34,785.26,541.62a348.54,348.54,0,0,1-38.38,24.63l-56.68,13.2L651,588.57c-11.17,2.6-23,4.23-33.48,10.24-8,4.6-19.85,14.08-16.83,28.45,2.82,13.45,18.11,17.75,26.77,20.09,12.22,3.3,24.79,3.43,37.18,4.42q19.86,1.58,39.62,4.84a521.49,521.49,0,0,1,78.33,19.22c25.33,8.32,50.16,19.66,75.74,26.49,48.38,12.92,97.86-.41,143.65-22.18,41-19.5,81-55.73,93.76-115.32C1108.06,507.4,1091.62,445.08,1064.39,400.13Z" transform="translate(-4 -4)"/><path class="cls-6" d="M871.13,1423.59c-2.59-7.79-5.53-15.48-8.24-23.24q-8.05-23.08-15.6-46.32-15.18-46.77-28.28-94.12c-6.66-24.06-13.38-49.07-28.78-69.87a88.82,88.82,0,0,0-29.73-25.66c-7.18-3.84-14.77-7.07-21.89-11a195.12,195.12,0,0,1-17.88-11.33c-11.64-8.17-22.68-17-35-24.44a121,121,0,0,0-18.54-9.25c-6.1-2.37-12.6-4.42-19.43-4.53-5.28-.09-10.58,1.11-14.44,4.45-.12-.62-1.22-.83-1.41-.1-1.89,7.58.24,15,2.81,22,2.7,7.43,5.35,14.86,7.56,22.43a364,364,0,0,1,10,45.52c2.47,15.6,4.16,31.32,5.57,47.07,1.38,15.48,1.9,31.14,4.17,46.51a90.15,90.15,0,0,0,5.86,22c2.89,6.85,142.6,106.14,156.83,111.15q10.6,3.72,21.34,7.18c5.71,1.84,11.8,4.29,18.16,3.45a9.48,9.48,0,0,0,6.41-3.26C872.66,1429.66,872.07,1426.42,871.13,1423.59Z" transform="translate(-4 -4)"/><path class="cls-10" d="M1190.2,750l26.49,7.33a.52.52,0,0,1,.36.7,289.3,289.3,0,0,1-22.76,50.1A422,422,0,0,1,1163,854.87c-11.6,15.2-24.08,29.89-37,44.24s-26.4,28.46-39.94,42.45c-15.23,15.73-30.44,31.49-46.17,46.84l-3.76,3.64,1.25.59c.71.32,0,1.25-.74.93l-.55-.26-1.65.38-.69.66a.58.58,0,1,1-.8-.83l1.17-1.13c-4.21-2-8.34-4.07-12.37-6.31-2.45-1.37-4.86-2.77-7.23-4.23a60.16,60.16,0,0,1-6.31-4.14,7.33,7.33,0,0,1-3.09-5.19c-.11-1.88,115.58-90.32,184.24-222.18A.7.7,0,0,1,1190.2,750Z" transform="translate(-4 -4)"/><path class="cls-11" d="M1190.2,750l13.85,3.83c-68.68,131.6-184.09,219.83-184,221.71a7.33,7.33,0,0,0,3.09,5.19,60,60,0,0,0,6.3,4.14c2.38,1.46,4.79,2.86,7.24,4.22l1.62.89-2.16,2.08,1.25.59c.71.32,0,1.25-.74.93l-.55-.26-1.65.38-.69.66a.58.58,0,1,1-.8-.83l1.17-1.13c-4.21-2-8.34-4.07-12.37-6.31-2.45-1.37-4.86-2.77-7.23-4.23a60.16,60.16,0,0,1-6.31-4.14,7.33,7.33,0,0,1-3.09-5.19c-.11-1.88,115.58-90.32,184.24-222.18A.7.7,0,0,1,1190.2,750Z" transform="translate(-4 -4)"/><g class="cls-12"><path class="cls-1" d="M1182.85,770.89c-.61,1.07-1.22,2.14-1.84,3.21q-7.62,13.21-16,26.13t-17.41,25.49q-9,12.54-18.72,24.69t-20.11,24c-.83.94-1.67,1.89-2.52,2.83a30.21,30.21,0,0,0-2.42,2.79c-.92,1.35-1.79,3.77.35,4.5,7.67,2.61,22.52-22.92,25.93-27.3q8.4-10.8,16.46-21.79t15.69-22.1q7.7-11.17,15-22.55,1.83-2.82,3.63-5.67c1.14-1.8,2.37-3.58,3.36-5.44,1.5-2.85,2.71-6.91-.51-9A.69.69,0,0,0,1182.85,770.89Zm-74.37,110.94,0,0,0,.07S1108.53,882,1108.48,881.83Zm.57.14h0Z" transform="translate(-4 -4)"/><path class="cls-1" d="M1096.36,894.48a3.41,3.41,0,0,1-.86,2.49c-.57.84-1.15,1.68-1.74,2.51a159.05,159.05,0,0,1-15.83,18.94q-3.48,3.55-7.19,6.93l0,0A122.51,122.51,0,0,1,1058.15,936a34.74,34.74,0,0,1-3.76,2.27.66.66,0,0,1-.84-.24,5.3,5.3,0,0,1,.33-5.11,15.45,15.45,0,0,1,4.25-4.32,90.05,90.05,0,0,0,9.24-8c5.72-5.71,10.72-11.91,16.2-17.79a110.3,110.3,0,0,1,8.62-8.39c.7-.59,1.49-1.45,2.54-1.37A1.85,1.85,0,0,1,1096.36,894.48Z" transform="translate(-4 -4)"/></g><path class="cls-10" d="M1249.74,771.31l27.09,7.5a.54.54,0,0,1,.38.72,296.34,296.34,0,0,1-23.29,51.26,430.21,430.21,0,0,1-32,47.83c-11.86,15.56-24.62,30.58-37.86,45.26s-27,29.12-40.86,43.43c-15.58,16.09-31.14,32.22-47.23,47.93l-3.86,3.72c.43.2.86.41,1.29.6.72.33,0,1.28-.76,1l-.56-.26-1.7.39-.69.67a.59.59,0,1,1-.83-.85l1.2-1.15q-6.46-3-12.65-6.46-3.77-2.1-7.4-4.33a63,63,0,0,1-6.46-4.23,7.51,7.51,0,0,1-3.16-5.31c-.11-1.92,118.25-92.41,188.49-227.31A.72.72,0,0,1,1249.74,771.31Z" transform="translate(-4 -4)"/><path class="cls-11" d="M1249.74,771.31l14.17,3.92c-70.28,134.64-188.35,224.91-188.24,226.82a7.52,7.52,0,0,0,3.16,5.31,61.45,61.45,0,0,0,6.46,4.24c2.43,1.49,4.89,2.93,7.4,4.33l1.65.9-2.21,2.13c.43.2.86.41,1.29.6.72.33,0,1.28-.76,1l-.56-.26-1.7.39-.69.67a.59.59,0,1,1-.83-.85l1.2-1.15q-6.46-3-12.65-6.46-3.77-2.1-7.4-4.33a63,63,0,0,1-6.46-4.23,7.51,7.51,0,0,1-3.16-5.31c-.11-1.92,118.25-92.41,188.49-227.31A.72.72,0,0,1,1249.74,771.31Z" transform="translate(-4 -4)"/><g class="cls-12"><path class="cls-1" d="M1245,787.57l-1.88,3.28q-7.79,13.53-16.32,26.73T1209,843.66q-9.23,12.83-19.15,25.26t-20.57,24.51l-2.58,2.9a30.12,30.12,0,0,0-2.48,2.85c-.94,1.39-1.83,3.86.36,4.61,7.85,2.66,23-23.46,26.53-27.93q8.6-11.05,16.84-22.29T1224,831q7.88-11.44,15.37-23.07,1.86-2.89,3.71-5.81c1.17-1.83,2.43-3.66,3.43-5.56,1.54-2.92,2.78-7.07-.51-9.25A.71.71,0,0,0,1245,787.57Zm-76.08,113.49s0,0,0,0a.28.28,0,0,0,0,.08S1169,901.2,1168.94,901.06Zm.58.14h0Z" transform="translate(-4 -4)"/><path class="cls-1" d="M1156.53,914a3.53,3.53,0,0,1-.87,2.56c-.59.86-1.18,1.71-1.79,2.56a162.87,162.87,0,0,1-16.19,19.38q-3.56,3.64-7.36,7.09l0,0c-4.12,3.75-8.16,7.64-12.84,10.86a34.09,34.09,0,0,1-3.86,2.33.67.67,0,0,1-.85-.25,5.43,5.43,0,0,1,.34-5.23,15.72,15.72,0,0,1,4.35-4.41,94.26,94.26,0,0,0,9.45-8.21c5.85-5.84,11-12.19,16.57-18.2a111.81,111.81,0,0,1,8.82-8.58c.71-.61,1.52-1.48,2.59-1.41A1.88,1.88,0,0,1,1156.53,914Z" transform="translate(-4 -4)"/></g><path class="cls-10" d="M1326.86,798l28.4,8.33a.57.57,0,0,1,.37.77,313.12,313.12,0,0,1-25.56,53.71,456.93,456.93,0,0,1-34.66,50c-12.81,16.23-26.56,31.87-40.8,47.16s-29,30.3-43.93,45.17c-16.74,16.74-33.45,33.51-50.73,49.83l-4.13,3.87,1.34.65c.75.36-.06,1.35-.82,1l-.58-.29-1.8.38c-.25.24-.49.47-.75.7a.62.62,0,1,1-.85-.9l1.29-1.2q-6.75-3.3-13.2-7-3.92-2.27-7.71-4.67a64.43,64.43,0,0,1-6.71-4.58,7.86,7.86,0,0,1-3.23-5.65c-.08-2,126.44-95.63,203.17-236.86A.77.77,0,0,1,1326.86,798Z" transform="translate(-4 -4)"/><path class="cls-11" d="M1326.86,798l14.85,4.36c-76.75,140.94-203,234.32-202.89,236.35a7.85,7.85,0,0,0,3.22,5.65,65.43,65.43,0,0,0,6.71,4.57q3.8,2.41,7.71,4.68l1.73,1-2.37,2.22,1.34.65c.75.36-.06,1.35-.82,1l-.58-.29-1.8.38c-.25.24-.49.47-.75.7a.62.62,0,1,1-.85-.9l1.29-1.2q-6.75-3.3-13.2-7-3.92-2.27-7.71-4.67a64.43,64.43,0,0,1-6.71-4.58,7.86,7.86,0,0,1-3.23-5.65c-.08-2,126.44-95.63,203.17-236.86A.77.77,0,0,1,1326.86,798Z" transform="translate(-4 -4)"/><g class="cls-12"><path class="cls-1" d="M1323.24,815.12c-.67,1.15-1.35,2.29-2,3.43q-8.49,14.16-17.74,28t-19.29,27.24q-10,13.38-20.7,26.34t-22.17,25.54c-.92,1-1.84,2-2.77,3a32.39,32.39,0,0,0-2.67,3c-1,1.45-2,4,.29,4.87,8.21,2.93,24.75-24.39,28.51-29.06q9.28-11.5,18.19-23.25t17.37-23.6q8.52-11.94,16.66-24.1c1.35-2,2.69-4,4-6.06s2.63-3.83,3.72-5.82c1.68-3.05,3.07-7.42-.35-9.76A.75.75,0,0,0,1323.24,815.12ZM1240.8,933.67l0,0,0,.09S1240.84,933.81,1240.8,933.67Zm.61.16h0Z" transform="translate(-4 -4)"/><path class="cls-1" d="M1227.47,947.13a3.76,3.76,0,0,1-1,2.68c-.63.9-1.28,1.79-1.93,2.68a173,173,0,0,1-17.46,20.19c-2.54,2.52-5.18,5-7.89,7.36l0,0c-4.42,3.9-8.76,7.93-13.75,11.26a36.46,36.46,0,0,1-4.11,2.4.72.72,0,0,1-.9-.28,5.73,5.73,0,0,1,.47-5.51,16.48,16.48,0,0,1,4.67-4.59,100.21,100.21,0,0,0,10.13-8.51c6.27-6.07,11.8-12.69,17.82-18.94A117.88,117.88,0,0,1,1223,947c.76-.63,1.63-1.54,2.76-1.44A2,2,0,0,1,1227.47,947.13Z" transform="translate(-4 -4)"/></g><path class="cls-13" d="M1235.56,1042.42c-24.2-1.51-55.21-4.53-64.82-27.4a.74.74,0,0,0-.81-.31c-27.63,8.17-59.19-9.47-62-34.63a.68.68,0,0,0-.68-.48c-11.67,1.21-24.45,2.6-35.31-1.67-9.31-3.66-17.09-12.37-14.72-22,.21-.82-1.18-1.19-1.39-.36l-.06.27-1.16.14a.8.8,0,0,0-1.24-.37,948.53,948.53,0,0,1-99.14,61.84,734.52,734.52,0,0,1-107.7,47.68,574.09,574.09,0,0,1-113.62,27.15q-15,1.93-30,3c-6.84.47-18-.64-21.86,6-3.69,6.28.92,14.77,3.56,20.49a105.76,105.76,0,0,0,13,21c21.35,27.24,53.12,45.65,83.75,63.9,16.7,10,33.37,20.08,48.28,32.07,15.31,12.29,27.22,27.2,41.42,40.4s31.63,23.38,49.1,33.14c15.94,8.91,34.4,18.31,54.51,14.88,17.93-3.06,32.06-15.23,44.18-26.72,15.32-14.53,30.1-29.49,44.56-44.68,28.77-30.25,56.09-61.54,82.82-93.18q20.12-23.8,39.92-47.81c12.83-15.48,26.08-30.84,37-47.44a163.19,163.19,0,0,0,13.19-24C1236.4,1042.83,1236,1042.44,1235.56,1042.42Z" transform="translate(-4 -4)"/><path class="cls-7" d="M1042.6,943c4.14,4.58,7.85,9.31,12.68,13.32-14.89,11.82-29.64,23.81-45,35.09-27.41,20-57.58,36.32-89.14,50.46s-63.54,28.24-96.52,39.76c-31.58,11-64.15,19.29-97.56,23.22-25.29,3-51.08,3.88-76.3,1.68,1-8.36,6-15.77,12.45-22a84.87,84.87,0,0,1,10.5-8.89c3.84-2.69,7.53-3.1,12-1.9a121.78,121.78,0,0,0,16.54,3.51,127.29,127.29,0,0,0,15.89.94,228.76,228.76,0,0,0,33.22-2.82,478.72,478.72,0,0,0,65.58-14.53c43.13-12.71,84.23-31,122.88-52.54,19.56-10.9,38.52-22.67,56.92-35.09q13.78-9.32,27.16-19.1c4.1-3,8.12-6.05,12.11-9.16C1037.46,943.79,1041,941.2,1042.6,943Z" transform="translate(-4 -4)"/><path class="cls-14" d="M891.27,1227.94A121.29,121.29,0,0,1,878.35,1242a177.81,177.81,0,0,1-14.82,12.58c-9,6.85-20,14.84-29.7,20.87-8.8,5.5-16.65,11.27-27.62,12.61-.43,0-.67-.39-.35-.66a128.05,128.05,0,0,0,14-14.5,141,141,0,0,1,13.49-14.2,52.22,52.22,0,0,1,16.44-10.11,65.93,65.93,0,0,1,10.32-2.45,34,34,0,0,0,5.55-1.44,27,27,0,0,0,4.75-2.38c3.09-1.92,5.92-4.18,8.81-6.33l9.21-6.85,2.26-1.69c.4-.29.68.17.68.41Z" transform="translate(-4 -4)"/><path class="cls-15" d="M677,1083c-.3.42,41.89,4.45,77.88-1.19,58.28-9.12,133.27-42.06,136-37.68,1.93,3.11-56.23,25.6-94.22,38.1-29.59,9.74-60.43,17.18-91.71,19.64-8.26.65-33,.81-39.56-2.44S671.72,1088.4,677,1083Z" transform="translate(-4 -4)"/><path class="cls-7" d="M1098.45,968.82c4.23,4.68,8,9.52,13,13.62-15.23,12.1-30.31,24.36-46.09,35.9-28,20.52-58.9,37.17-91.19,51.63s-65,28.89-98.75,40.68c-32.31,11.29-65.64,19.73-99.81,23.75-25.88,3-52.26,4-78.07,1.72,1-8.56,6.19-16.13,12.74-22.54a85.71,85.71,0,0,1,10.75-9.1c3.93-2.76,7.7-3.17,12.29-2a125.89,125.89,0,0,0,16.92,3.6,131.42,131.42,0,0,0,16.26,1,233.63,233.63,0,0,0,34-2.89,491.18,491.18,0,0,0,67.09-14.86c44.13-13,86.18-31.71,125.72-53.75,20-11.16,39.41-23.2,58.23-35.91q14.12-9.52,27.79-19.54c4.2-3.06,8.31-6.19,12.39-9.37C1093.18,969.59,1096.75,966.94,1098.45,968.82Z" transform="translate(-4 -4)"/><path class="cls-14" d="M943.62,1260.3a123.54,123.54,0,0,1-13.22,14.39,182.45,182.45,0,0,1-15.16,12.87c-9.18,7-20.51,15.18-30.39,21.35-9,5.63-17,11.53-28.26,12.9-.44,0-.68-.39-.35-.68a131.35,131.35,0,0,0,14.28-14.83,144.09,144.09,0,0,1,13.8-14.52,53.38,53.38,0,0,1,16.82-10.35,67.88,67.88,0,0,1,10.56-2.51,34.59,34.59,0,0,0,5.68-1.47,27.62,27.62,0,0,0,4.86-2.44c3.16-2,6.06-4.27,9-6.47l9.42-7,2.32-1.73c.4-.3.69.17.69.42Z" transform="translate(-4 -4)"/><path class="cls-15" d="M724.41,1112c-.31.44,42.86,4.55,79.68-1.21,59.62-9.33,136.35-43,139.15-38.55,2,3.18-57.53,26.19-96.4,39-30.27,10-61.82,17.58-93.83,20.09-8.44.66-33.73.84-40.46-2.49S719,1117.54,724.41,1112Z" transform="translate(-4 -4)"/><path class="cls-7" d="M1162.83,1003.79c4.37,5,8.27,10.17,13.39,14.57-16.3,12.53-32.44,25.23-49.29,37.16-30,21.2-62.81,38.28-97.11,53S960.74,1138,925,1149.92c-34.27,11.41-69.54,19.78-105.63,23.48-27.33,2.81-55.14,3.37-82.28.59,1.25-9,6.84-16.92,13.87-23.58a91.43,91.43,0,0,1,11.51-9.43c4.19-2.85,8.18-3.23,13-1.86a133.61,133.61,0,0,0,17.75,4.06,139.38,139.38,0,0,0,17.12,1.27,246.49,246.49,0,0,0,35.86-2.52,517.61,517.61,0,0,0,71-14.62c46.75-13,91.43-32.09,133.54-54.73,21.3-11.46,42-23.86,62.07-37q15.06-9.83,29.67-20.18c4.48-3.16,8.88-6.4,13.24-9.69C1157.27,1004.52,1161.08,1001.78,1162.83,1003.79Z" transform="translate(-4 -4)"/><path class="cls-14" d="M993.83,1308.89a133.67,133.67,0,0,1-14.22,15,194.06,194.06,0,0,1-16.23,13.34c-9.81,7.24-21.92,15.69-32.45,22-9.6,5.79-18.18,11.89-30,13.16-.47,0-.72-.43-.36-.72,5.7-4.67,10.54-10,15.35-15.42a153.12,153.12,0,0,1,14.83-15.11,56.63,56.63,0,0,1,17.93-10.65,71.58,71.58,0,0,1,11.17-2.48,36.35,36.35,0,0,0,6-1.47,29,29,0,0,0,5.17-2.49c3.38-2,6.48-4.42,9.63-6.69l10.07-7.25,2.47-1.78c.43-.31.73.19.72.45Z" transform="translate(-4 -4)"/><path class="cls-14" d="M832.94,1226.44a354.92,354.92,0,0,0-13.45,38.76c-.79,2.8-1.54,5.61-2.27,8.43l-.06,1.94a7.17,7.17,0,0,1-.52,3.36c-1.13,1.9-3.73.94-4.6-.76a7.38,7.38,0,0,1-.54-3.6c0-1.38.13-2.75.21-4.12.14-2.66.31-5.31.56-8,.93-9.8,3.11-19.73,8.81-27.65a28.25,28.25,0,0,1,10.92-9.32A.72.72,0,0,1,832.94,1226.44Z" transform="translate(-4 -4)"/><path class="cls-15" d="M765.88,1149c-.34.46,45.06,5.48,84,0,63-8.91,144.52-43.26,147.38-38.48,2,3.39-61.14,26.73-102.34,39.61-32.1,10-65.49,17.57-99.26,19.71-8.91.57-35.56.35-42.58-3.27S760.06,1154.73,765.88,1149Z" transform="translate(-4 -4)"/><path class="cls-16" d="M845.87,1229.88a75.45,75.45,0,0,1,14-14.42,117.12,117.12,0,0,1,20.24-12.2c7.56-3.74,15.27-7.24,22.93-10.82l12-5.61a58.25,58.25,0,0,1,8.51-3.34c4.9-1.41,11.15-2.2,15.06,1.16,2.57,2.21,3,5.5,2.85,8.6a34.52,34.52,0,0,1-1.85,9,49.68,49.68,0,0,1-9.57,16.15,78.83,78.83,0,0,1-15.77,13.71,145.91,145.91,0,0,1-15,8.71q-7.68,6-14.67,12.6a186.36,186.36,0,0,0-14,14.82,179.66,179.66,0,0,0-12.09,15.91,168.71,168.71,0,0,0-10.12,17.05c-1.43,2.77-2.68,5.63-4.3,8.34a18.15,18.15,0,0,1-6.13,6.57c-2.72,1.59-6.49,2.45-9,.38-2.1-1.71-2.53-4.56-2.61-7-.11-3.5.06-7,.16-10.54.11-3.68.28-7.36.54-11a152.6,152.6,0,0,1,3-21.92,102.81,102.81,0,0,1,6.15-19.22A86.86,86.86,0,0,1,845.87,1229.88Z" transform="translate(-4 -4)"/><path class="cls-10" d="M1410.26,833.14l28.77,9.73a.59.59,0,0,1,.35.81,329,329,0,0,1-29,54.4,479.13,479.13,0,0,1-38.19,50.18c-14,16.23-28.94,31.82-44.36,47s-31.41,30.1-47.48,44.86c-18.07,16.6-36.11,33.24-54.7,49.38l-4.45,3.83,1.34.73c.76.4-.13,1.38-.89,1l-.59-.32-1.86.32-.8.69a.64.64,0,1,1-.83-1l1.38-1.18q-6.77-3.69-13.21-7.77-3.92-2.49-7.69-5.14a64.83,64.83,0,0,1-6.66-5,8,8,0,0,1-3-6c0-2.09,134.89-93.61,221-236.27A.78.78,0,0,1,1410.26,833.14Z" transform="translate(-4 -4)"/><path class="cls-11" d="M1410.26,833.14l15,5.09c-86.14,142.36-220.68,233.67-220.7,235.76a8,8,0,0,0,3,6,64.68,64.68,0,0,0,6.67,5q3.78,2.64,7.68,5.14l1.73,1.07-2.55,2.2,1.34.73c.76.4-.13,1.38-.89,1l-.59-.32-1.86.32-.8.69a.64.64,0,1,1-.83-1l1.38-1.18q-6.77-3.69-13.21-7.77-3.92-2.49-7.69-5.14a64.83,64.83,0,0,1-6.66-5,8,8,0,0,1-3-6c0-2.09,134.89-93.61,221-236.27A.78.78,0,0,1,1410.26,833.14Z" transform="translate(-4 -4)"/><path class="cls-17" d="M1231.33,1039.07c4.75,6,8.89,12.19,14.94,17.3a2.27,2.27,0,0,1,.21.25c2,3.72,6.26,5.73,10.35,7.41,2.88,1.19,6.33,2.16,8.65,4.14,5.73,4.89-2.34,12.1-6.48,15.62-8.66,7.38-17.69,14.52-26.78,21.48-5,3.87-10.35,7.48-15.41,11.33a153.57,153.57,0,0,0-14.1,12.4c-8.1,7.92-16.51,15.88-22.89,25-6.5,9.24-11.31,19.27-15.82,29.31-9.58,21.33-18.76,42.79-29.45,63.75-19.75,38.7-46.37,75.24-82.13,104.68-43.1,35.49-96.9,62.77-127.11,77.23-10.7,5.12-22.14,9.37-34,11.31a75.51,75.51,0,0,1-33.11-2.31,47.7,47.7,0,0,1-14.66-6.56c-3.59-2.54-7.61-5.66-9.7-9.36s-2.87-8-4.1-12c-1.66-5.43-3.72-10.76-5.5-16.15-7.24-21.95-13.19-44.33-16.2-67.21a261.35,261.35,0,0,1-2.24-34.82c0-12.23.61-24.7-2.78-36.53-2.89-10.08-8.31-19.31-12.62-28.89-3.93-8.75-7.16-18.2-5.63-27.9s7.82-17.84,15.62-24.63c3.81-3.32,37.55-6.91,43.81-5.77a139.93,139.93,0,0,0,17.53,2,252.83,252.83,0,0,0,37-1.17,533.16,533.16,0,0,0,73.73-12.25c48.73-11.57,95.63-29.45,140.08-51.13,22.49-11,44.39-22.93,65.71-35.66q16-9.54,31.54-19.63c4.77-3.09,9.45-6.25,14.11-9.48C1225.57,1039.6,1229.63,1036.93,1231.33,1039.07Z" transform="translate(-4 -4)"/><path class="cls-6" d="M1229.87,1088c2.3,1.79-49.14,36.31-74.57,70.77-16.63,22.53-28.07,95.12-70.82,141.54-16.13,17.52-60.54,51.85-66.92,46.35-2.13-1.83,27.94-28.84,35.83-36.57a233.06,233.06,0,0,0,58.41-94.6c7.06-21.92,11.23-45.34,26.62-63.91,9.75-11.77,24-19.78,36.68-29.2C1201.05,1103,1227.24,1085.92,1229.87,1088Z" transform="translate(-4 -4)"/><path class="cls-6" d="M869.26,1298.6a285.34,285.34,0,0,1,11.46-32.55,57.53,57.53,0,0,1,8.6-14.46,56.08,56.08,0,0,1,11.45-10.1c8.93-6.07,19.24-10.26,29.43-14.26q19.24-7.56,38.51-15.07,38.84-15.21,77.67-30.4c18.11-7,58.87-25.8,58.5,4.34-.34,28.21-13.57,55.3-29.57,79.79-8.12,12.43-17.11,24.4-26.25,36.27-28.49,37-73.66,61.8-122,73.71-12.12,3-25.23,5.24-37.58,3.41-10.09-1.5-19.85-6.17-24.84-14.19-2.95-4.74-3.66-10.26-3.69-15.69a136.78,136.78,0,0,1,1-16.9A204.81,204.81,0,0,1,869.26,1298.6Z" transform="translate(-4 -4)"/><path class="cls-6" d="M865.11,1382.25a54,54,0,0,1,6.72,1.36c2.24.55,4.5,1,6.77,1.46a130.86,130.86,0,0,0,27.8,2.11,135.56,135.56,0,0,0,27.84-3.77c2.32-.57,4.62-1.21,6.9-1.9a6.63,6.63,0,0,1,3.23-.4,2.85,2.85,0,0,1,1.85,1.32c5,8.43-11,18.59-17.33,22.86-12.1,8.13-24.51,16-39.82,17.6-8.28.87-16.91,0-24.12-3.55a27.57,27.57,0,0,1-13.71-14.44,20.77,20.77,0,0,1-1.39-9.39,17,17,0,0,1,3.76-9.47,10.81,10.81,0,0,1,4.9-3.31A15.67,15.67,0,0,1,865.11,1382.25Z" transform="translate(-4 -4)"/><path class="cls-6" d="M885.9,1207.53a70.8,70.8,0,0,1,9.9,1.18,17.38,17.38,0,0,1,7.32,3.12,6.94,6.94,0,0,1,2.67,6.33c-.36,2.57-2.15,4.86-4.1,6.75a89.47,89.47,0,0,1-7,5.69,175.78,175.78,0,0,0-14.2,12.55c-8.8,8.69-16.54,18.32-22.09,28.86-5.41,10.25-8.62,21.39-8.4,32.55.14,6.88-.17,13.78.86,20.61,2.09,13.76-14.21,19.22-16.89,18.74a11.31,11.31,0,0,1-7-4.84,54.74,54.74,0,0,1-4.74-8.48,90.32,90.32,0,0,1-4-9.55,94.11,94.11,0,0,1-4.74-20.16c-.83-6.93-.84-13.93-1-20.91s-.53-14-2.09-20.88a50.84,50.84,0,0,0-3.28-9.75c-1.42-3.11-3.06-6.22-3.46-9.63-.66-5.59,2.18-11.23,6.45-15.45,4.79-4.75,11.37-7.73,18-9.89a152.39,152.39,0,0,1,46-7.21Q880,1207.12,885.9,1207.53Z" transform="translate(-4 -4)"/><path class="cls-6" d="M845.45,1351.07a5.4,5.4,0,0,1,3,3.52,15.08,15.08,0,0,1,.44,3.31,90.59,90.59,0,0,1,1.38,9.42c.2,2.15.33,4.31.37,6.47a35.66,35.66,0,0,1-.21,5.56c-.45,3.33-1.56,7.33-5.21,8.78-8.22,3.28-13.34-17.85-13.71-22.22-.19-2.22-.37-4.45-.56-6.67-.14-1.7-.59-3.68.2-5.35s2.78-2.24,4.58-2.69a25.24,25.24,0,0,1,5.1-.83A10.17,10.17,0,0,1,845.45,1351.07Z" transform="translate(-4 -4)"/><path class="cls-6" d="M1113.12,1144.33c.75.06.69.9.13,1.18q-17.34,8.94-35.19,17t-36.17,15.21q-18.3,7.15-37,13.38t-37.54,11.46q-18.93,5.26-38.14,9.57l-4.85,1.07a.55.55,0,0,1-.73-.6c-3.14.16-6.14-.48-8.47-2.71a6.05,6.05,0,0,1-1.94-6.16,2,2,0,0,1,.79-1.28,14.2,14.2,0,0,1,2.7-.66l6-1.47q23.58-5.82,47-12.32t46.55-13.64q23.08-7.12,45.91-14.88,11.47-3.88,22.87-8c3.78-1.34,7.55-2.73,11.34-4.07a55.08,55.08,0,0,1,11.23-3A27,27,0,0,1,1113.12,1144.33Z" transform="translate(-4 -4)"/><path class="cls-7" d="M1230.75,1038.44c4.23,5.34,8,10.83,13,15.57-17.39,12.28-34.63,24.74-52.57,36.37-31.87,20.68-66.53,37-102.55,50.84-36.18,13.91-72.53,27.63-109.92,38.49-35.82,10.4-72.52,17.63-109.81,20-28.23,1.8-56.85,1.27-84.61-2.68,1.74-9.26,7.9-17.19,15.47-23.79,3.81-3.31,37.55-6.9,43.81-5.77a140.14,140.14,0,0,0,17.53,2,254.22,254.22,0,0,0,37-1.16,534.67,534.67,0,0,0,73.73-12.25c48.73-11.58,95.63-29.46,140.08-51.14,22.5-11,44.39-22.93,65.71-35.66q16-9.54,31.54-19.63c4.77-3.09,9.46-6.25,14.11-9.47C1225,1039,1229.05,1036.3,1230.75,1038.44Z" transform="translate(-4 -4)"/><path class="cls-7" d="M1041.37,1346.5a139,139,0,0,1-15.39,14.88,200.91,200.91,0,0,1-17.37,13.11c-10.46,7.09-23.33,15.32-34.48,21.46-10.17,5.6-19.31,11.54-31.55,12.38-.49,0-.72-.47-.34-.76,6.1-4.59,11.36-10,16.57-15.3a160.61,160.61,0,0,1,16-15,59,59,0,0,1,19-10.27,74.57,74.57,0,0,1,11.61-2.11,37,37,0,0,0,6.26-1.27,30,30,0,0,0,5.44-2.37c3.57-2,6.88-4.3,10.24-6.52l10.72-7.07,2.64-1.74c.46-.31.73.22.72.5A.27.27,0,0,0,1041.37,1346.5Z" transform="translate(-4 -4)"/><path class="cls-7" d="M847,1412c4.51,9.63,15.82,15.8,27.64,17.35a65.4,65.4,0,0,0,18.26-.4c5.78-.88,11.79-3.56,17.43-4-.79,11.23-31.25,12.22-39,10.19-8-2.1-14.32-7.33-19.77-12.83-3-3.06-6.08-6.92-4.89-11C846.77,1411.57,846.87,1411.8,847,1412Z" transform="translate(-4 -4)"/><path class="cls-7" d="M1162.53,1124.71a.6.6,0,0,1,.29,1.1c-7.88,6.89-15.74,13.81-23,21.22a130.37,130.37,0,0,0-18.85,23.54c-1.42,2.36-2.62,11.45-6.6,15.48-4.29,4.33-2.92-13.51-7.67-17.39a18.06,18.06,0,0,0-4.9-2.84.58.58,0,0,1-.12-1q11.61-8.76,23.44-17.28T1149,1130.7c2.17-1.49,4.31-3.1,6.63-4.42C1157.69,1125.11,1160.11,1124.19,1162.53,1124.71Z" transform="translate(-4 -4)"/><path class="cls-7" d="M1167.41,1150.89a80,80,0,0,1,8.71-9.34,212.89,212.89,0,0,1,20.4-16.39l2.64-1.93c.62-.46,1.47.3.95.86q-8.82,9.42-16.74,19.46t-14.8,20.53q-6.93,10.55-12.85,21.56T1145,1207.93c-3.22,7.56-6.82,9.72-4.68,2.71q3.82-12.57,8.77-24.89a200.24,200.24,0,0,1,11.06-24A81.06,81.06,0,0,1,1167.41,1150.89Z" transform="translate(-4 -4)"/><path class="cls-7" d="M880.2,1255a370.65,370.65,0,0,0-15.82,39.46c-1,2.85-1.87,5.73-2.76,8.61,0,.66-.11,1.33-.17,2a7.58,7.58,0,0,1-.7,3.44c-1.26,1.92-3.89.82-4.69-1a7.52,7.52,0,0,1-.37-3.74c.12-1.41.28-2.83.42-4.24.29-2.74.6-5.47,1-8.19,1.46-10.08,4.21-20.23,10.48-28.17a29.51,29.51,0,0,1,11.7-9.19A.74.74,0,0,1,880.2,1255Z" transform="translate(-4 -4)"/><g class="cls-12"><path class="cls-1" d="M1409.78,844.74c-.75,1.16-1.51,2.31-2.27,3.46q-9.45,14.26-19.68,28.13t-21.23,27.34Q1355.65,917.08,1344,930t-24.1,25.47l-3,3a33.67,33.67,0,0,0-2.9,3c-1.13,1.45-2.28,4.09,0,5,8.3,3.36,26.7-24.17,30.8-28.84q10.14-11.5,19.9-23.26t19.06-23.66q9.38-12,18.36-24.2,2.25-3,4.45-6.1c1.4-1.93,2.9-3.84,4.14-5.85,1.88-3.08,3.53-7.53.13-10.09A.77.77,0,0,0,1409.78,844.74Zm-90.83,119v0a.36.36,0,0,0,0,.09S1319,963.92,1319,963.77Zm.61.19h0Z" transform="translate(-4 -4)"/><path class="cls-1" d="M1304.55,977.12a3.89,3.89,0,0,1-1.14,2.73c-.7.91-1.41,1.8-2.12,2.69a180.84,180.84,0,0,1-19,20.13c-2.75,2.51-5.58,4.93-8.49,7.29l0,0c-4.74,3.85-9.41,7.84-14.71,11.08a39.15,39.15,0,0,1-4.35,2.3.7.7,0,0,1-.9-.32,5.92,5.92,0,0,1,.76-5.66,17.51,17.51,0,0,1,5-4.56,101.33,101.33,0,0,0,10.85-8.38c6.76-6,12.78-12.61,19.29-18.82a121.76,121.76,0,0,1,10.2-8.82c.81-.62,1.75-1.53,2.9-1.38A2,2,0,0,1,1304.55,977.12Z" transform="translate(-4 -4)"/></g><path class="cls-7" d="M1228,1096.94l0,0c4.08-3.18,7.81-6.69,11.62-10.12,1.89-1.7,3.8-3.38,5.78-5a53.41,53.41,0,0,1,6-4.38,15.76,15.76,0,0,1,7.79-2.51c.63,0,1,.5.62,1-6.27,8.65-13.37,12.37-18.73,16.37l-22.88,17-12.84,9.58c-.62.46-1.5-.31-1-.86a248.78,248.78,0,0,1,19-17.45Q1225.73,1098.74,1228,1096.94Z" transform="translate(-4 -4)"/><path class="cls-7" d="M1247.88,1064.94c8.73,3.87-4.2,11.86-8.56,14.15-6.42,3.37-10,4.7-14.07,6.66-5.17,2.5-10.26,5.16-15.16,8.06-4.73,2.8-9.16,6-13.75,8.92-4.85,3.15-10,6-15.87,7.28-.58.13-1-.6-.61-1a285.35,285.35,0,0,1,29.93-24.36q7.88-5.58,16.15-10.65,4.14-2.54,8.37-5c1.43-.82,2.87-1.64,4.33-2.42a19.84,19.84,0,0,1,4.57-1.86A7.52,7.52,0,0,1,1247.88,1064.94Z" transform="translate(-4 -4)"/><path class="cls-15" d="M815.23,1172.41c-.37.46,46,7.46,86.32,3.34,65.22-6.67,150.78-38.86,153.48-33.81,1.9,3.57-64.22,25.13-107.25,36.77-33.51,9.07-68.22,15.52-103,16.38-9.18.23-36.57-1.06-43.61-5.08S809,1178.08,815.23,1172.41Z" transform="translate(-4 -4)"/><path class="cls-16" d="M893.32,1259.05a78.33,78.33,0,0,1,15.13-14.31A121.51,121.51,0,0,1,929.88,1233c8-3.56,16.07-6.86,24.12-10.25l12.58-5.31a59.22,59.22,0,0,1,8.92-3.11c5.11-1.25,11.57-1.82,15.42,1.81,2.52,2.38,2.85,5.79,2.49,9a36.57,36.57,0,0,1-2.36,9.19,52,52,0,0,1-10.67,16.27,82.56,82.56,0,0,1-16.92,13.52,152,152,0,0,1-15.82,8.39c-5.47,3.9-10.73,8-15.73,12.41a197.63,197.63,0,0,0-15.18,14.73,189.56,189.56,0,0,0-13.24,15.94,176.84,176.84,0,0,0-11.28,17.18c-1.62,2.81-3.05,5.71-4.86,8.44a18.89,18.89,0,0,1-6.63,6.54c-2.88,1.53-6.8,2.26-9.3,0-2.07-1.85-2.37-4.81-2.32-7.33.06-3.61.41-7.26.7-10.87.3-3.79.66-7.58,1.12-11.36a158.31,158.31,0,0,1,4.23-22.5,107.76,107.76,0,0,1,7.31-19.59A90.91,90.91,0,0,1,893.32,1259.05Z" transform="translate(-4 -4)"/><path class="cls-16" d="M868.73,1216.82c4.65-.19,9.77.44,12,4.39a5.1,5.1,0,0,1,.16,5.1c-1,1.82-3.14,2.83-5.25,3.44-2.66.77-5.44,1.24-8.16,1.83L861,1233a43.72,43.72,0,0,0-13,10.49,76,76,0,0,0-8.55,12.81c-2.63,4.76-5,9.62-7.51,14.45L823,1288.09c-.29.56-1.28.47-1.34-.15q-1.59-15.95-3.19-31.89c-.49-4.9-1.15-10,.33-14.84a25.09,25.09,0,0,1,6.54-10.45c7-6.9,16.75-10.47,26.68-12.19A129.94,129.94,0,0,1,868.73,1216.82Z" transform="translate(-4 -4)"/><path class="cls-18" d="M1112.67,1271c3.49,7-25.26,38.21-26.82,40.38-9.43,13.09-24,24.47-36.87,35.24-28.33,23.76-59.45,45.27-94.13,61.07-17.5,8-36.7,14.6-55.91,13.14a70.38,70.38,0,0,1-47.06-23.64c-11.3-12.94-17.17-29.26-18.69-45.82-1.08-11.89,4.15-19,18.09-21.26,42.49-6.91,85.65-8,128-15.6,21.27-3.82,42.35-9.3,62-17.9C1059.81,1288.49,1109.47,1264.54,1112.67,1271Z" transform="translate(-4 -4)"/><path class="cls-19" d="M852.68,1193.57a49.64,49.64,0,0,0-4.76-5.42c-2.58-2.68-5.38-5.18-8-7.85-13.41-13.88-43-17.7-46.17-19-12.49-5.32-19.75-25.58-33.54-27.62-22.6-3.34-19.53-20.39-32.48-25.27-16.16-6.09-17.68-5.59-25.31-18.44-3.44-5.81-11.67-13.7-18.8-15.81a29.26,29.26,0,0,0-21,1.36,49.5,49.5,0,0,0-8.58,5.41,10.91,10.91,0,0,0-3.9,2.36,47.22,47.22,0,0,0-5.06,5,86.71,86.71,0,0,0-10,13.68,40.06,40.06,0,0,0-3.09,6.27,8.21,8.21,0,0,0-.7,4.52,8.73,8.73,0,0,0,2,3.24,23.12,23.12,0,0,0,4.24,3.82,111.17,111.17,0,0,0,10.81,6.33,495.79,495.79,0,0,1,46.46,30c15.53,11.09,30.59,22.67,45.67,34.22,14.54,11.14,29.08,22.29,44.11,32.92,1.75,1.24,3.52,2.47,5.29,3.69a.81.81,0,0,0,.89-.09,124.11,124.11,0,0,1,11.95-9.75,127.15,127.15,0,0,1,29.14-16.42,73.54,73.54,0,0,1,17.75-4.56c.75-.09,1.51-.16,2.27-.22a2.56,2.56,0,0,0,.92-.13.83.83,0,0,0,.49-.74A2.64,2.64,0,0,0,852.68,1193.57Z" transform="translate(-4 -4)"/><path class="cls-20" d="M796.45,1334.64c-.92-13.38-.22-26.84-.23-40.26,0-11.9-.53-24-4.52-35.34a53.62,53.62,0,0,0-9.72-17A217.52,217.52,0,0,0,757.41,1218c-9.13-7.75-18.78-15-28.61-22.06-10.26-7.35-20.73-14.46-31.17-21.61q-7.93-5.43-15.81-10.92c-4.82-3.37-9.47-7-14.41-10.23-6.93-4.56-14.72-8.07-22.25-11.8l-.86-.44a.78.78,0,0,0-.23-.21.84.84,0,0,0-.19-.07h0a1.45,1.45,0,0,0-.3-.05l-.21,0a.89.89,0,0,0-.34.16.67.67,0,0,0-.24.46.57.57,0,0,0,.08.34.76.76,0,0,0,.11.14l.12.09c5.17,16.31,9,33,13.76,49.38,1.24,4.31,2.52,8.62,3.95,12.88,1.25,3.7,2.85,7.36,5.87,10.18s7.14,4.82,11,6.76c4.17,2.07,8.4,4,12.65,6,16.57,7.67,33.36,15.23,47.33,26.31,12.7,10.08,23,22.26,31.73,35.22,8.86,13.16,16.17,27.12,23.12,41.19l2.55,5.2C795.33,1335.51,796.49,1335.28,796.45,1334.64Z" transform="translate(-4 -4)"/><path class="cls-7" d="M686.81,1102.36a18.72,18.72,0,0,0,4.72-3.26,5.72,5.72,0,0,0,1.77-5,11.71,11.71,0,0,0-2.84-5.25,23.75,23.75,0,0,0-9.75-6.83,26,26,0,0,0-6.08-1.54,9.91,9.91,0,0,0-4.66.29.52.52,0,0,0-.16.06,4.37,4.37,0,0,0-1.51,1,2.1,2.1,0,0,0-.24.27c-3.38,2.53-6.74,5.09-9.95,7.81a73,73,0,0,0-10.17,10.1,12.67,12.67,0,0,0-3,5.85,6.39,6.39,0,0,0,1.94,5.36,22.43,22.43,0,0,0,5.23,3.67,54.42,54.42,0,0,0,6.73,3.16c2.08.81,4.37,1.74,6.64.63,1.91-.93,3.15-2.69,4.53-4.12a59.47,59.47,0,0,1,10.84-8.86C682.8,1104.51,684.81,1103.44,686.81,1102.36Z" transform="translate(-4 -4)"/><path class="cls-7" d="M725.77,1121.35a21,21,0,0,0,4.36-3,5.74,5.74,0,0,0,.61-.71.88.88,0,0,0,0-1.16c-.51-.78-1-1.57-1.56-2.34a16.29,16.29,0,0,0-3.47-3.77,17.31,17.31,0,0,0-5.58-2.7,21.55,21.55,0,0,0-13.69.41,13.78,13.78,0,0,0-2.08,1,44.11,44.11,0,0,0-6.5,3.21,56.57,56.57,0,0,0-11.53,8.91,48,48,0,0,0-4.59,5.32c-.69.92-1.34,1.87-2,2.84a17.83,17.83,0,0,0-1.66,3,3.27,3.27,0,0,0,.25,3.14,12.91,12.91,0,0,0,2.59,2.34,28.45,28.45,0,0,0,6.46,4.13,15.9,15.9,0,0,0,7.48,1.33,13.54,13.54,0,0,0,6.75-2.62,75.6,75.6,0,0,0,6-5.13l6.63-5.89a62,62,0,0,1,5.85-4.94C721.94,1123.51,723.87,1122.45,725.77,1121.35Z" transform="translate(-4 -4)"/><path class="cls-7" d="M767.94,1152.29a8.87,8.87,0,0,0,1.6-6.55c-.7-4.52-4.8-8.44-9.71-9.67l-.53-.11c-3.56-2.37-8.58-1.29-12.5.12a67.12,67.12,0,0,0-10.69,5.26c-2.9,1.67-5.83,3.3-8.74,5a49.91,49.91,0,0,0-8.12,5.16,11.41,11.41,0,0,0-4.23,7,7.22,7.22,0,0,0,3.12,6.64c2.1,1.62,4.77,2.56,6.76,4.31a11.42,11.42,0,0,0,2.94,1.76,15.61,15.61,0,0,0,3.44,1.46c3.15.6,6-1.13,8.21-3,1.21-1.05,2.36-2.13,3.63-3.12a41,41,0,0,1,4-2.71,55.66,55.66,0,0,1,8.09-3.77,61.66,61.66,0,0,0,7.29-3.2A15.86,15.86,0,0,0,767.94,1152.29Z" transform="translate(-4 -4)"/><path class="cls-7" d="M821.3,1176.74a14.5,14.5,0,0,0-9-8.71c-9.94-3.77-21,.41-29.74,5.41-8.1,4.64-16.29,11-19,19.45a5.49,5.49,0,0,0-.18,3.37.53.53,0,0,0,.22.45,73,73,0,0,0,6.32,4.13c1.07.67,2.13,1.35,3.12,2.11s1.88,1.47,2.88,2.14a12.87,12.87,0,0,0,6.85,2.47,15.66,15.66,0,0,0,7.42-2.09c2.58-1.33,5-2.85,7.55-4.3l7.92-4.57c2.35-1.36,4.75-2.68,7-4.12a29.08,29.08,0,0,0,5.59-4.33,12.35,12.35,0,0,0,3.23-5.51A10.76,10.76,0,0,0,821.3,1176.74Z" transform="translate(-4 -4)"/></g></svg>