<svg id="Calque_1" data-name="Calque 1" xmlns="http://www.w3.org/2000/svg" viewBox="0 0 577.88 542.28"><defs><style>.cls-1{fill:#fff;}</style></defs><path class="cls-1" d="M1275.6,563.11a14.08,14.08,0,1,1-14.07,14.07,14.09,14.09,0,0,1,14.07-14.07m0-27.24a41.32,41.32,0,1,0,41.32,41.31,41.31,41.31,0,0,0-41.32-41.31Z" transform="translate(-774.43 -76.22)"/><path class="cls-1" d="M1001.84,563.11a14.08,14.08,0,1,1-14.07,14.07,14.09,14.09,0,0,1,14.07-14.07m0-27.24a41.32,41.32,0,1,0,41.32,41.31,41.31,41.31,0,0,0-41.32-41.31Z" transform="translate(-774.43 -76.22)"/><path class="cls-1" d="M1347.14,212.67c-4.41-4.84-11.11-6.2-22.26-6.66L946.7,198.15l-8-.16h-2c-1.92.4-4.56-2.58-5.86-6.62l-23.74-74c-5-14.71-14.89-20.6-25.92-22.57L818.64,83.93a25.83,25.83,0,1,0-5.56,40.51L862,133a14.06,14.06,0,0,1,10,8.68l96,299.12a20.62,20.62,0,0,1-1.35,14.12l-24.06,43.87a69.11,69.11,0,0,0-5.5,14.28,17.87,17.87,0,0,0,12.25,20.71,69.32,69.32,0,0,0,15.17,2H1312.2c17.87,0,28.15-9.15,28.15-20.43s-8.57-20.43-28.15-20.43H999c-4.25,0-6.05-3.05-4-6.77l9.71-17.72a14.66,14.66,0,0,1,11.4-7.54l300.91-30c10.76-1.6,25.06-9.43,26.45-27.76l8.75-169.81C1352.83,223.27,1350.86,216.76,1347.14,212.67Z" transform="translate(-774.43 -76.22)"/></svg>