<svg id="Layer_1" data-name="Layer 1" xmlns="http://www.w3.org/2000/svg" viewBox="0 0 4000 1775.7"><defs><style>.cls-1,.cls-15,.cls-19,.cls-30{fill:#fff;}.cls-2{fill:#e3923b;}.cls-3{opacity:0.15;}.cls-4{fill:#822c2c;}.cls-5{fill:#fbd4aa;}.cls-6{fill:#bf7b5e;}.cls-7{fill:#d5eef2;}.cls-8{fill:#0093b0;}.cls-9{fill:#97d3df;}.cls-10{fill:#f12b04;}.cls-11{fill:#ffb016;}.cls-12{fill:#f4fcfb;}.cls-13{fill:#093b6b;}.cls-14{fill:#cceaef;}.cls-15{opacity:0.08;}.cls-16{fill:#c5deda;}.cls-17{fill:#eb7600;}.cls-18{fill:#a0c91d;}.cls-19{opacity:0.4;}.cls-20,.cls-38{fill:#92bc72;}.cls-21{fill:#b6d79f;}.cls-22{fill:#9dba9e;}.cls-23{fill:#4d9f63;}.cls-24{fill:#844637;}.cls-25{fill:#f45536;}.cls-26,.cls-28{fill:#5b4436;}.cls-27{fill:#ffc045;}.cls-28,.cls-30,.cls-38{opacity:0.5;}.cls-29{fill:#3a6289;}.cls-31{fill:#f14c2b;}.cls-32{fill:#65a45a;}.cls-33{fill:#9cbc82;}.cls-34{opacity:0.06;}.cls-35{fill:#3a784b;}.cls-36{opacity:0.1;}.cls-37{fill:#78523a;}.cls-39{opacity:0.05;}.cls-40{fill:#cf6700;}</style></defs><rect class="cls-1" y="1570.57" width="4000" height="205.13"/><path class="cls-2" d="M2300.92,584.54c-24.29-37-98.86-100.95-135.88-76.66s-28.73,62.18-4.44,99.2l341,519.72c24.29,37,55.75,59.69,92.77,35.4s15.41-106.93-8.88-143.94Z" transform="translate(0 -224.3)"/><g class="cls-3"><path class="cls-4" d="M2432.28,784.71c-9.18,7.34-20.62,9.75-32.19,11.08a117.8,117.8,0,0,1-42.64-3c-28.37-7.37-51.37-26.5-71.76-46.69-21-20.79-38.73-45.4-54.42-70.37-31.36-49.91-54.65-104.38-77.27-158.64a1.59,1.59,0,0,0-.07-.2c-23.76,24.09-14.8,57.49,6.67,90.2l341,519.72c24.29,37,55.75,59.69,92.77,35.4s15.41-106.93-8.88-143.94Z" transform="translate(0 -224.3)"/></g><path class="cls-5" d="M2531.23,935.5s-16.69,74.58,9.29,117.2,25.37-64.38,25.37-64.38Z" transform="translate(0 -224.3)"/><path class="cls-5" d="M2456.42,821.5s-16.68,74.59,9.3,117.21,25.37-64.38,25.37-64.38Z" transform="translate(0 -224.3)"/><path class="cls-5" d="M2381.62,707.51s-16.68,74.59,9.3,117.21,25.37-64.38,25.37-64.38Z" transform="translate(0 -224.3)"/><path class="cls-5" d="M2306.82,593.52s-16.68,74.59,9.29,117.21,25.38-64.38,25.38-64.38Z" transform="translate(0 -224.3)"/><polygon class="cls-6" points="2650.2 560.35 2618.98 542.68 2598.28 571.99 2567.07 554.32 2546.37 583.62 2515.15 565.95 2494.45 595.25 2463.24 577.58 2442.54 606.88 2411.32 589.21 2390.62 618.51 2359.4 600.84 2338.71 630.14 2307.49 612.47 2286.79 641.77 2255.57 624.1 2378.18 1171.34 2793.5 1078.29 2670.89 531.05 2650.2 560.35"/><rect class="cls-7" x="2800.59" y="675.22" width="302.73" height="176.75" transform="translate(1760.59 3346.04) rotate(-81.5)"/><rect class="cls-8" x="2833.21" y="713.08" width="302.73" height="110.79" transform="translate(1783.57 3382.45) rotate(-81.5)"/><path class="cls-1" d="M2984.14,778.07c-33.27,18.9-45.48-6.79-45.48-6.79L2921.5,886.19l90.94,13.59,17.17-114.91S3022.29,756.41,2984.14,778.07Z" transform="translate(0 -224.3)"/><path class="cls-8" d="M3030.33,543.64l-89-13.3a10.36,10.36,0,0,0-11.79,8.73l-1.92,12.83,109.57,16.37,1.92-12.83A10.38,10.38,0,0,0,3030.33,543.64Z" transform="translate(0 -224.3)"/><polygon class="cls-1" points="2927.57 327.6 2919.53 381.41 2996.49 392.91 3061.72 402.65 3037.14 343.97 2927.57 327.6"/><polygon class="cls-9" points="2886.91 376.54 2952.15 386.28 2927.57 327.6 2886.91 376.54"/><rect class="cls-1" x="2989.78" y="606.77" width="24.39" height="89.08" transform="translate(1914.28 3299.81) rotate(-81.5)"/><rect class="cls-10" x="2753.6" y="861.13" width="212.5" height="154.39" transform="translate(1110.89 3163.58) rotate(-72.64)"/><rect class="cls-11" x="2790.87" y="911.84" width="106.25" height="154.39" transform="translate(1051.37 3184.03) rotate(-72.64)"/><path class="cls-12" d="M2968,842,2825.8,797.54a9,9,0,0,0-11.25,5.89h0a9,9,0,0,0,5.89,11.25l142.23,44.47a9,9,0,0,0,11.25-5.89h0A9,9,0,0,0,2968,842Z" transform="translate(0 -224.3)"/><path class="cls-12" d="M2900.48,1058.05l-142.22-44.47a9,9,0,0,0-5.36,17.14l142.22,44.47a9,9,0,1,0,5.36-17.14Z" transform="translate(0 -224.3)"/><ellipse class="cls-12" cx="2859.85" cy="938.32" rx="33.66" ry="61.67" transform="translate(1110.89 3163.59) rotate(-72.64)"/><path class="cls-8" d="M2681.48,673.18l-20-1.14c-36.58-2.1-68.25,26.69-70.39,64l-2.38,41.46c-2.14,37.29,26,69.52,62.62,71.62l20,1.14c36.58,2.1,68.25-26.69,70.39-64l2.38-41.47C2746.24,707.51,2718.06,675.28,2681.48,673.18Z" transform="translate(0 -224.3)"/><path class="cls-8" d="M2673.35,815l-20-1.14c-36.58-2.1-68.26,26.69-70.39,64l-13.73,239.37c-1.06,18.53,12.94,34.55,31.12,35.59l86.87,5c18.19,1,33.94-13.27,35-31.81L2736,886.6C2738.11,849.31,2709.93,817.09,2673.35,815Z" transform="translate(0 -224.3)"/><rect class="cls-8" x="2644.43" y="773.78" width="35.42" height="124" transform="translate(1675.32 3221.4) rotate(-86.72)"/><path class="cls-8" d="M2628.82,1162.23l15.24-22-67.4-2.21C2581,1141.94,2594.61,1181.66,2628.82,1162.23Z" transform="translate(0 -224.3)"/><path class="cls-8" d="M2656.69,1163.83c31.77,23.21,49.8-14.7,54.58-18l-67.21-5.51Z" transform="translate(0 -224.3)"/><path class="cls-8" d="M2611.47,1119.73l17.35,42.5s11.15-6,27.87,1.6l16.34-11.12-27.9-31Z" transform="translate(0 -224.3)"/><rect class="cls-8" x="2662.02" y="648.77" width="18.96" height="47.19" transform="translate(1847.29 3076.69) rotate(-86.72)"/><path class="cls-13" d="M2700.36,655.63l-55.61-3.19a3.84,3.84,0,0,0-4,3.64l-.06,1.16a3.82,3.82,0,0,0,3.55,4.06l55.61,3.19a3.83,3.83,0,0,0,4-3.63l.07-1.16A3.84,3.84,0,0,0,2700.36,655.63Z" transform="translate(0 -224.3)"/><rect class="cls-13" x="2588.53" y="884.7" width="132.82" height="153.24" transform="translate(1562.02 3340.54) rotate(-87.13)"/><polygon class="cls-14" points="2581.02 676.81 2575.26 788.25 2728.32 795.92 2734.08 684.47 2581.02 676.81"/><path class="cls-15" d="M2668.38,675.21c-1-.49-.56-2.2-.82-3.3l-19.6-1.12-.12,2.08c-30.49,4.71-54.88,30.77-56.74,63.31l-2.38,41.49a68.19,68.19,0,0,0,12.18,43l-.91,16A68.19,68.19,0,0,0,2583,878l-13.73,239.37a33.85,33.85,0,0,0,11.73,27.55c4,6.59,10.19,16.06,19.66,20.4-9-16.12-13.86-34.65-12.8-53.16,4.33-75.55,29.83-275.82,63.38-273.89l.78-13.6c2.16-2.27,4.44-4.46,6.7-6.65,4.13-4,19.25-20.56,24.65-44.91C2694.43,723.1,2677.07,679.47,2668.38,675.21Z" transform="translate(0 -224.3)"/><path class="cls-13" d="M2696.72,631.28l-45.57-2.61a4.45,4.45,0,0,0-4.71,4.2l-1.38,24,54.48,3.13,1.38-24A4.46,4.46,0,0,0,2696.72,631.28Z" transform="translate(0 -224.3)"/><path class="cls-13" d="M2639.08,975.43a18.6,18.6,0,1,0,37.14,2.13c.59-10.26-16.48-37.41-16.48-37.41S2639.67,965.17,2639.08,975.43Z" transform="translate(0 -224.3)"/><path class="cls-1" d="M3099.62,953.09a28.41,28.41,0,0,0-33.93-21.51l-120.13,26.91a28.41,28.41,0,0,0-21.5,33.93l43.31,193.31a28.4,28.4,0,0,0,33.92,21.51l120.13-26.92a28.39,28.39,0,0,0,21.51-33.92Z" transform="translate(0 -224.3)"/><path class="cls-16" d="M3085.46,966.62a28.41,28.41,0,0,0-33.93-21.51l-87.39,19.58a28.41,28.41,0,0,0-21.51,33.93l38.75,173a28.41,28.41,0,0,0,33.93,21.51l87.39-19.58a28.41,28.41,0,0,0,21.51-33.93Z" transform="translate(0 -224.3)"/><rect class="cls-1" x="3004.1" y="1189.56" width="115.88" height="14.51" transform="translate(-187.58 474.06) rotate(-12.63)"/><rect class="cls-1" x="2946.56" y="932.73" width="115.88" height="14.51" transform="translate(-132.82 455.26) rotate(-12.63)"/><path class="cls-10" d="M2945.75,912.4H3056a9.94,9.94,0,0,1,9.94,9.94v2.93a9.93,9.93,0,0,1-9.93,9.93H2945.75a9.94,9.94,0,0,1-9.94-9.94v-2.93a9.94,9.94,0,0,1,9.94-9.94Z" transform="translate(-129.37 454.11) rotate(-12.63)"/><rect class="cls-17" x="2960.83" y="999.98" width="146.08" height="145.07" transform="translate(-161.08 464.92) rotate(-12.63)"/><path class="cls-1" d="M3027.35,1042.87c-34.1,7.64-58.36,29-54.18,47.6s35.21,27.57,69.31,19.93,58.36-29,54.18-47.6S3061.45,1035.23,3027.35,1042.87Z" transform="translate(0 -224.3)"/><path class="cls-18" d="M2995.3,1067.75s5,38.66,45.53,25C3040.83,1092.71,3034.2,1059,2995.3,1067.75Z" transform="translate(0 -224.3)"/><path class="cls-18" d="M3040.76,1092.72c42.48-4.89,30.53-42,30.53-42C3032.4,1059.43,3040.76,1092.72,3040.76,1092.72Z" transform="translate(0 -224.3)"/><path class="cls-19" d="M3001.18,973.28a26.58,26.58,0,0,0-51.88,11.62l44.11,196.86a26.58,26.58,0,1,0,51.87-11.62Z" transform="translate(0 -224.3)"/><path class="cls-20" d="M2937.85,1068.62c-26.77-10.54-59.49.94-84.57,17.05-19.55,12.57-33.74,26.09-41.51,46.31-17.75,46.17,11.59,91.82,59.23,110.57s95.52,3.51,113.26-42.66c10.26-26.69,4.95-56.29-7.1-83.38C2968.38,1096.75,2957.94,1076.53,2937.85,1068.62Z" transform="translate(0 -224.3)"/><path class="cls-20" d="M2927.27,1066.27s-16-22.68-36.48-10.72-3.88,33.06.43,40.22c0,0-24.19,3.22-3.27,31.48s23.37,31,21.29,50.26c0,0-9.49,1.72-9.12,23.71s-7.43,47.55-7.43,47.55l2.73.45c57.44-49.15,30.47-111,23.42-137.47A54,54,0,0,1,2927.27,1066.27Z" transform="translate(0 -224.3)"/><path class="cls-21" d="M2927.27,1066.27s-38.24,12.25-10.79,74-21.06,108.92-21.06,108.92c46.46-29,46.52-97.07,44.93-115.9s-13.89-32.78-13.89-32.78c-.95-11.3,12.24-4.28,16.76-29.81S2927.27,1066.27,2927.27,1066.27Z" transform="translate(0 -224.3)"/><path class="cls-20" d="M2856.38,1170.91a17.4,17.4,0,0,0-4.15.69,23.37,23.37,0,0,0-4,1.48,29.09,29.09,0,0,0-3.77,2.12,51,51,0,0,0-12.24,12.15,92.61,92.61,0,0,0-8.91,14.74c-.19.39-.35.79-.54,1.18.07,1.19.15,2.39.23,3.58,1.19,1.61,2.43,3.19,3.74,4.74.78-2.27,1.6-4.52,2.49-6.74a119.88,119.88,0,0,1,7.11-14.64,69.14,69.14,0,0,1,4.48-6.7,40,40,0,0,1,2.56-3.09,37.65,37.65,0,0,1,2.82-2.83,35.51,35.51,0,0,1,3.12-2.46,22.27,22.27,0,0,1,3.44-2,21.74,21.74,0,0,1,3.76-1.39,22.36,22.36,0,0,1,4-.68A22.81,22.81,0,0,0,2856.38,1170.91Z" transform="translate(0 -224.3)"/><path class="cls-20" d="M2849.83,1114.78a56.3,56.3,0,0,0-13.19,10,65.32,65.32,0,0,0-10.14,13.48,80.51,80.51,0,0,0-6.82,15.48,98,98,0,0,0-3.95,16.36,137.08,137.08,0,0,0-1.64,16.63c-.05,1.78,0,3.55,0,5.33a86.6,86.6,0,0,0,7.75,13.18c.32-.67.61-1.36.93-2l0-.49c-.26-5.26-.28-10.52,0-15.77a151.08,151.08,0,0,1,1.34-15.64,135,135,0,0,1,3.12-15.27,95,95,0,0,1,5.34-14.53,71.61,71.61,0,0,1,8-13.14,66.7,66.7,0,0,1,10.95-11,76.71,76.71,0,0,1,13.44-8.36,59.32,59.32,0,0,0-7.69,2.29A52,52,0,0,0,2849.83,1114.78Z" transform="translate(0 -224.3)"/><path class="cls-22" d="M2821.82,1205.29l1.16,1.56c-.08-1.19-.16-2.39-.23-3.58C2822.43,1203.93,2822.14,1204.62,2821.82,1205.29Z" transform="translate(0 -224.3)"/><path class="cls-20" d="M2978.74,1160.51c-.25-1-.5-1.92-.74-2.87a47.81,47.81,0,0,0-1.7-5.47,42.26,42.26,0,0,0-2-5,36,36,0,0,0-2.25-4.48,72.63,72.63,0,0,0-4.69-7.35c-1.63-2-3-3.76-4.26-5.13l-4.06-4.12,3.78,4.37c1.13,1.45,2.41,3.29,3.89,5.36a69.44,69.44,0,0,1,4.14,7.53,33,33,0,0,1,1.92,4.51,42,42,0,0,1,1.66,5,45,45,0,0,1,1.3,5.38l.54,2.81.33,2.91A76.68,76.68,0,0,1,2977,1176a94.17,94.17,0,0,1-1.51,12.42c-.14.84-.36,1.67-.54,2.51a54.18,54.18,0,0,0-1.68-7.62l-1.4-3.77c-.56-1.16-1.1-2.29-1.63-3.36s-1.22-2-1.79-2.91-1.27-1.68-1.85-2.45a42.58,42.58,0,0,0-3.33-3.63c-2.07-1.77-3.27-2.74-3.27-2.74s1.12,1.08,3,3a45.07,45.07,0,0,1,3,3.86c.49.8,1.08,1.61,1.58,2.54l1.49,2.95,1.28,3.36,1,3.72a49.48,49.48,0,0,1,1,8.23,58,58,0,0,1-.29,8.89c-.05.46-.13.93-.19,1.39-1.06,3.3-2.2,6.53-3.46,9.6-1.45,3.65-3.06,7.11-4.63,10.35s-3.19,6.25-4.74,9c-1.15,2-2.24,3.86-3.3,5.58a72.73,72.73,0,0,0,8.14-6.48,73.51,73.51,0,0,0,6.51-6.79c.93-1.11,1.83-2.24,2.71-3.41.63-2.81,1.17-5.68,1.59-8.59,1-3.15,1.92-6.39,2.72-9.73a113.76,113.76,0,0,0,2.32-12.86,98.56,98.56,0,0,0,.75-13,79.72,79.72,0,0,0-1.18-12.55C2979.1,1162.49,2978.92,1161.5,2978.74,1160.51Z" transform="translate(0 -224.3)"/><path class="cls-23" d="M2786.06,1124.88c-9.22,23.89,2.81,50.78,2.81,50.78s27-11.84,36.2-35.72-2.81-50.78-2.81-50.78S2795.28,1101,2786.06,1124.88Z" transform="translate(0 -224.3)"/><path class="cls-24" d="M2772.08,1110.17a4.81,4.81,0,1,0-6.1,7.43c19.54,16.05,14.58,44.92,14.52,45.21a4.81,4.81,0,1,0,9.46,1.72C2790.22,1163.12,2795.94,1129.77,2772.08,1110.17Z" transform="translate(0 -224.3)"/><path class="cls-10" d="M2820.33,1131.58c-8.91,1.68-16.32,7.75-21.69,16.74-1.27,1.63-7.46,12.45-7.46,12.45s-8.57-5.66-13.34-8.45c-8.3-6.46-17.44-9.44-26.37-7.76-23.46,4.43-46.35,23.84-39.07,62.4s54.59,77.73,78,73.31a21.65,21.65,0,0,0,13.35-7.8l.19.2a15.5,15.5,0,0,1,14.49-2.76,21.64,21.64,0,0,0,15,2.25c23.46-4.43,53.26-58.14,46-96.7S2843.78,1127.15,2820.33,1131.58Z" transform="translate(0 -224.3)"/><path class="cls-25" d="M2771.22,1160.5s-15.9-9.42-33.44,4.93-18.49,49.71,4,72.71-4.41-25.6,29.66-56.57C2784.86,1169.33,2771.22,1160.5,2771.22,1160.5Z" transform="translate(0 -224.3)"/><polygon class="cls-7" points="2460.14 832.11 2456.28 843.45 2445.03 839.36 2441.16 850.7 2429.91 846.61 2426.05 857.95 2414.79 853.87 2410.93 865.2 2399.67 861.12 2395.82 872.46 2384.56 868.37 2380.7 879.71 2369.44 875.62 2369.43 875.66 2369.39 875.65 2365.53 886.99 2354.27 882.9 2350.41 894.24 2339.15 890.16 2335.29 901.49 2324.03 897.41 2320.18 908.74 2308.92 904.66 2305.06 916 2293.8 911.91 2289.94 923.25 2278.69 919.16 2274.83 930.5 2281.31 944.02 2372.07 900.48 2387.13 893.25 2477.88 849.71 2471.4 836.19 2460.14 832.11"/><polygon class="cls-7" points="2492.61 1113.11 2477.55 1120.34 2386.79 1163.88 2393.28 1177.4 2404.54 1181.48 2408.39 1170.14 2419.65 1174.23 2423.51 1162.89 2434.77 1166.98 2438.63 1155.64 2449.89 1159.73 2453.74 1148.39 2465 1152.47 2468.86 1141.14 2480.12 1145.22 2483.98 1133.88 2495.24 1137.97 2495.25 1137.92 2495.29 1137.94 2499.15 1126.6 2510.41 1130.69 2514.27 1119.35 2525.53 1123.44 2529.38 1112.1 2540.64 1116.18 2544.5 1104.85 2555.76 1108.93 2559.62 1097.59 2570.88 1101.68 2574.73 1090.34 2585.99 1094.43 2589.85 1083.09 2583.37 1069.57 2492.61 1113.11"/><path class="cls-10" d="M2477.88,1074l-196.57,94.31s37.15,96,49.58,121.87c39.56,82.45,55.9,98,55.9,98l196.58-94.31s2.74-12.8-38.45-98.66C2531.74,1167.73,2477.88,1074,2477.88,1074Z" transform="translate(0 -224.3)"/><path class="cls-1" d="M2418,1195.56c-39.06,18.74-63.32,49.37-54.18,68.41s48.21,19.3,87.27.56,63.32-49.38,54.19-68.42S2457.06,1176.81,2418,1195.56Z" transform="translate(0 -224.3)"/><path class="cls-11" d="M2709.64,1235.72c-16.54,4.58-20.37,11.87-61.85,11.8-29.87,0-53.9-1.42-93.47-40.25-12.88-12.64-23.6-30-37.87-33.69l7.23-36.63s-4-9.36-16.81-.6c0,0,.18,21.41-7.6,41.82-3.78,3.76-7.31,10-7.79,20.42-1.07,23.45,17.72,78.2,93.79,102.06s129.19-8.11,144.09-25.9,16.66-26.89,16.66-26.89l-5.92-11.46A53.5,53.5,0,0,0,2709.64,1235.72Z" transform="translate(0 -224.3)"/><path class="cls-26" d="M2506.87,1136.35s0,2.08-.2,5.57a16.13,16.13,0,0,1,3-1.1,49,49,0,0,1,13.52-1.54l.46-2.33S2519.66,1127.59,2506.87,1136.35Z" transform="translate(0 -224.3)"/><path class="cls-27" d="M2647.79,1247.52c-29.87,0-53.9-1.42-93.47-40.25-12.88-12.64-23.6-30-37.87-33.68a19.62,19.62,0,0,1-2.14.66q-.55,2.32-1,4.65c6.5,7.94,9.9,18,16.72,25.75,48.77,55.11,78.31,56.75,133.4,50.58,38.16-4.27,52.35-19.52,55.63-21.19a50.68,50.68,0,0,0-9.4,1.68C2693.1,1240.3,2689.27,1247.59,2647.79,1247.52Z" transform="translate(0 -224.3)"/><path class="cls-26" d="M2741.79,1234.45c-.67-.17-3.26-1.1-1.69,2l5.92,11.46s2.11.71,2.2-2.37S2742.46,1234.63,2741.79,1234.45Z" transform="translate(0 -224.3)"/><path class="cls-28" d="M2699,1281.62c-2.06.88-3.2,2.84-2.54,4.36s2.85,2.06,4.91,1.18,3.19-2.84,2.54-4.37S2701,1280.74,2699,1281.62Z" transform="translate(0 -224.3)"/><path class="cls-28" d="M2657.86,1292.26c-1.59.68-2.48,2.2-2,3.38s2.21,1.6,3.81.91,2.48-2.2,2-3.38S2659.46,1291.57,2657.86,1292.26Z" transform="translate(0 -224.3)"/><path class="cls-28" d="M2708.68,1259.24c-2.06.88-3.19,2.83-2.54,4.36s2.85,2.05,4.91,1.17,3.19-2.83,2.54-4.36S2710.74,1258.36,2708.68,1259.24Z" transform="translate(0 -224.3)"/><path class="cls-28" d="M2676,1270.38c-2,.88-3.19,2.83-2.54,4.36s2.86,2,4.91,1.17,3.2-2.83,2.54-4.36S2678,1269.5,2676,1270.38Z" transform="translate(0 -224.3)"/><ellipse class="cls-13" cx="2364.27" cy="1722" rx="72.36" ry="72.45" transform="translate(-345.74 397.28) rotate(-13.97)"/><ellipse class="cls-29" cx="2364.27" cy="1722" rx="46.5" ry="46.56" transform="translate(-346.11 398.2) rotate(-13.99)"/><path class="cls-1" d="M3120.63,915.94l-874.58,167.65a8.5,8.5,0,0,0,1.59,16.85,8.85,8.85,0,0,0,1.61-.15l874.58-167.65a8.5,8.5,0,0,0-3.2-16.7Z" transform="translate(0 -224.3)"/><path class="cls-1" d="M3139.14,1054.66,2314,1255.21a8.5,8.5,0,0,0,2,16.76,8.78,8.78,0,0,0,2-.24l825.13-200.55a8.5,8.5,0,0,0-4-16.52Z" transform="translate(0 -224.3)"/><rect class="cls-1" x="2414.68" y="921.5" width="16" height="459.54" transform="translate(-259.23 973.21) rotate(-26.41)"/><rect class="cls-1" x="2535.98" y="901.61" width="16" height="447.05" transform="translate(-237.58 874.42) rotate(-23.31)"/><rect class="cls-1" x="2657.29" y="881.03" width="16" height="435.93" transform="translate(-215.26 756.39) rotate(-20.06)"/><rect class="cls-1" x="2778.59" y="859.71" width="16" height="426.3" transform="translate(-190.52 618.55) rotate(-16.64)"/><rect class="cls-1" x="2899.89" y="837.59" width="16" height="418.25" transform="translate(-161.42 460.81) rotate(-13.08)"/><rect class="cls-1" x="3021.2" y="814.64" width="16" height="411.87" transform="translate(-125.93 283.65) rotate(-9.39)"/><path class="cls-1" d="M3153.43,1415.9l-774.65,172.56-14.11-63,30.8-74.85,363.67-97.74a17,17,0,0,0-8.83-32.84l-379.89,102.1-41.27,100.31L2353,1629l807.8-180a17,17,0,1,0-7.4-33.18Z" transform="translate(0 -224.3)"/><path class="cls-1" d="M2419.55,1599.76l-69.38,15.55,3.24,14.45-17.58,3.94a9.63,9.63,0,0,0-7.29,11.5l18.28,81.59a16.38,16.38,0,0,0,19.55,12.39h0a16.38,16.38,0,0,0,12.62-13.64l8.12-80.88,35.93-8.05a4.65,4.65,0,0,0,3.52-5.55Z" transform="translate(0 -224.3)"/><ellipse class="cls-13" cx="3049.75" cy="1568.43" rx="72.36" ry="72.45" transform="translate(-288.72 559.55) rotate(-13.99)"/><ellipse class="cls-29" cx="3049.75" cy="1568.43" rx="46.5" ry="46.56" transform="translate(-288.36 558.04) rotate(-13.96)"/><path class="cls-1" d="M3105,1446.19l-69.38,15.54,3.24,14.45-17.58,3.94a9.63,9.63,0,0,0-7.29,11.5l18.28,81.59a16.36,16.36,0,0,0,32.16-1.24l8.13-80.89,35.93-8a4.65,4.65,0,0,0,3.52-5.55Z" transform="translate(0 -224.3)"/><path class="cls-1" d="M3125,790.29a17,17,0,0,0-19.88-14.67L2172.43,942.79,2117.3,835.53a16.65,16.65,0,0,0-1.41-2.28,104.88,104.88,0,0,0-62.78-40.64L1933.54,767a17,17,0,1,0-7.13,33.24L2046,825.86a70.94,70.94,0,0,1,41.71,26.46l288.86,562.11a17,17,0,0,0,15.12,9.23,16.66,16.66,0,0,0,4.51-.61l765.57-210.63a17,17,0,0,0,12.36-18.45ZM2400.5,1386.61,2188.68,974.42l904.73-162.17,45.2,371.28Z" transform="translate(0 -224.3)"/><path class="cls-10" d="M1911.21,750.31a30.64,30.64,0,1,0,36.59,23.2A30.63,30.63,0,0,0,1911.21,750.31Z" transform="translate(0 -224.3)"/><path class="cls-10" d="M1894.18,774h0a21,21,0,0,0,15.32,25.37l91.67,20.82,10-40.69-91.67-20.82A21,21,0,0,0,1894.18,774Z" transform="translate(0 -224.3)"/><polygon class="cls-30" points="1823.15 930.4 2155.27 900.05 2141.49 875.95 1823.15 930.4"/><polygon class="cls-30" points="1884.92 982.14 2188.4 954.37 2173.9 930.37 1884.92 982.14"/><polygon class="cls-30" points="1954.32 1030.81 2223.37 1011.26 2208.87 987.27 1954.32 1030.81"/><path class="cls-31" d="M2162.36,920.8c-52.08,39.31-108.21,69.91-166.83,90.93a584.13,584.13,0,0,1-144.52,32c-66.86,6-121.15-1.49-140.51-6.32a10.07,10.07,0,0,0-4.9,19.53c1.88.47,37.59,9.23,94.87,9.23,15.62,0,32.85-.65,51.44-2.3a604.06,604.06,0,0,0,149.84-33c60.75-21.72,118.87-53.35,172.74-94a10.07,10.07,0,1,0-12.13-16.07Z" transform="translate(0 -224.3)"/><path class="cls-32" d="M2483.14,503.94c2.88-6.86-6.86-37.69-11.9-43.83s-10.89-19.18-34.65-20.1-24.17,12.71-35.45,18.75-23.89-5.53-34.87,16.49-18.74,17.93-10.6,54.2a86.94,86.94,0,0,1,2.14,11.18c.38,3.66,10.94,6.47,11.45,6.9,3.37,2.76-10.71.41-10.7,1.4.1,10.82-4.77,6.45,2.76,23.57,17,38.77,87.64,35.28,87.64,35.28l10.57,2.38s-19.48-32.21-.13-38.6C2525,549.92,2480.25,510.8,2483.14,503.94Z" transform="translate(0 -224.3)"/><path class="cls-33" d="M2456,567.44c-.3-1.33-.82-2.64-1.26-4.08s-.91-3-1.56-4.46l-1.94-4.73-2.39-4.85a80.55,80.55,0,0,0-6-9.77,85.25,85.25,0,0,0-7.77-9c-2.85-2.75-5.74-5.53-8.79-8a112.53,112.53,0,0,0-9.25-7c-3.13-2.14-6.27-4.06-9.37-5.77a108,108,0,0,0-17.36-7.74,84.2,84.2,0,0,0-17.57-4.39l-.12.93a102.56,102.56,0,0,1,16.81,6.63,126.51,126.51,0,0,1,33.19,23.38,109,109,0,0,1,7.6,8.48q3.48,4.53,6.64,9c2.13,2.92,4.08,5.83,6,8.57s3.54,5.52,5.06,8.09,2.87,5,4.08,7.13,2.23,4.09,3.05,5.71c1.62,3.24,2.69,5.08,2.69,5.08l.72-.32s-.22-2.21-.87-6.06C2457.19,572.33,2456.59,570.08,2456,567.44Z" transform="translate(0 -224.3)"/><path class="cls-33" d="M2454,530.3c-.2-1.47-.35-3-.64-4.48s-.67-3-1-4.48c-.65-3-1.48-6-2.3-9s-1.75-5.9-2.59-8.8-2-5.62-3-8.26-2-5.18-3.13-7.5-2.08-4.52-3.07-6.51c-2-4-3.72-7.19-5-9.36s-2.11-3.38-2.11-3.38l-.64.52s.63,1.33,1.59,3.73,2.33,5.81,3.77,10,3,9.19,4.44,14.54c.72,2.69,1.37,5.5,2.08,8.32.56,2.88,1.31,5.73,1.75,8.68s1,5.85,1.17,8.77c.14,1.46.26,2.9.43,4.31s.23,2.81.34,4.18.29,2.71.51,4,.24,2.6.42,3.85c.28,2.51.67,4.89.83,7.1s.48,4.27.72,6.11.28,3.44.45,4.78c.3,2.69.61,4.3.61,4.3l.76.15s.58-1.43,1.36-4.07q.6-2,1.31-4.82c.31-1.89.66-4,.93-6.43.12-1.19.34-2.43.37-3.72s0-2.62.07-4,.05-2.79,0-4.23S2454.1,531.78,2454,530.3Z" transform="translate(0 -224.3)"/><path class="cls-33" d="M2436.36,541a21.33,21.33,0,0,0-3.91-2.3q-2.23-1-4.88-2.09a10.6,10.6,0,0,0-2.76-.81c-.95-.22-1.94-.36-2.95-.54a15.62,15.62,0,0,0-3.08-.28l-3.19.23a27.92,27.92,0,0,0-6.43,1.21,12.72,12.72,0,0,0-3.14,1.13c-1,.48-2.05.89-3,1.41a32.34,32.34,0,0,0-5.34,4,30.68,30.68,0,0,0-4.28,4.83,42.11,42.11,0,0,0-3,5.13,43.5,43.5,0,0,0-2,4.67,38.36,38.36,0,0,0-1.17,3.78,28.37,28.37,0,0,0-.73,3.4l.5.16a26.15,26.15,0,0,1,1.07-3.16c.38-1,.89-2.14,1.51-3.45a37.47,37.47,0,0,1,2.34-4.14,35.67,35.67,0,0,1,3.24-4.34,30.24,30.24,0,0,1,4.23-3.9,27.14,27.14,0,0,1,5-3.05c.9-.35,1.85-.61,2.77-.92a9.6,9.6,0,0,1,2.83-.68,20.59,20.59,0,0,1,5.75-.26,32,32,0,0,1,5.58.67c1.81.37,3.59.33,5.26.79s3.27.72,4.77,1a36.12,36.12,0,0,1,4.07,1c1.22.3,2.29.54,3.2.7,1.8.35,2.88.46,2.88.46l.2-.58s-.84-.78-2.41-2C2438.45,542.45,2437.49,541.75,2436.36,541Z" transform="translate(0 -224.3)"/><path class="cls-32" d="M2636,551.11c-.66-1.77-15.17,2.26-15.24.63s14.27-8.9,14.38-10.5c.45-6.44.82-13.07-11.89-23.5-19-15.59-52.68-8.72-61.33-9.05s-31.76,13.09-34.87,18.49-67.92-5.21-34.22,50c9.95,16.29-30.06,19.28-30.06,19.28l10,6s59.43,57.44,102.67,49.5c26-4.78,3.33-5.08,37.76-17.79s28.22-32.69,36.86-51.15S2640,561.77,2636,551.11Z" transform="translate(0 -224.3)"/><path class="cls-33" d="M2630.57,588.29c-2.45-1-5.18-2.19-8.26-3.26s-6.42-2.31-10-3.36-7.5-2-11.51-3c-4.05-.84-8.28-1.64-12.61-2.27-4.36-.45-8.78-1.21-13.28-1.26l-6.72-.34c-2.25,0-4.48.09-6.71.11s-4.45,0-6.62.22-4.31.57-6.42.86a62.32,62.32,0,0,0-6.14,1.15c-2,.56-3.87,1.12-5.71,1.72l-5.37,1.69-4.75,2.17c-3,1.43-5.79,2.7-8.08,4.06s-4.15,2.8-5.69,3.92c-3.09,2.21-4.71,3.59-4.71,3.59l.49.72s2.21-.52,5.84-1.64c1.82-.54,4-1.25,6.43-2.09s5.4-1.32,8.42-2.19l4.73-1.29,5.17-1c1.77-.33,3.57-.72,5.4-1.14s3.77-.59,5.7-.91,3.89-.67,5.87-1.08,4-.51,6.09-.79,4.14-.56,6.24-.69l6.35-.22c4.25-.27,8.5.16,12.7.27,4.19.3,8.31.77,12.29,1.28,3.95.67,7.81,1.21,11.4,2s7,1.52,10.13,2.34,5.92,1.7,8.44,2.43,4.66,1.52,6.4,2.19c3.55,1.25,5.49,2.13,5.49,2.13l.45-.75s-1.84-1.1-5.23-2.75C2635.09,590.27,2633,589.38,2630.57,588.29Z" transform="translate(0 -224.3)"/><path class="cls-33" d="M2600.24,534.18c-2.63.65-6.33,1.75-10.71,3.23-2.2.74-4.57,1.57-7,2.53s-5,2.07-7.7,3.2-5.34,2.48-8,3.86-5.42,2.84-8,4.49-5.33,3.13-7.85,4.84c-1.28.83-2.56,1.65-3.78,2.5s-2.31,1.84-3.44,2.74a41.53,41.53,0,0,0-5.8,5.85,42.58,42.58,0,0,0-4.44,5.81c-1.24,1.89-2.26,3.67-3.15,5.24s-1.35,3.13-1.8,4.34a38.18,38.18,0,0,0-1.26,3.86l.81.42s1.31-.93,3.3-2.64c1-.85,2.15-1.91,3.44-3.11s2.95-2.42,4.53-3.86,3.43-2.9,5.27-4.5c1-.77,1.87-1.62,2.83-2.46s2-1.66,3-2.52c1.93-1.81,4-3.65,6.08-5.53s4.38-3.66,6.65-5.46,4.78-3.33,7.14-5,4.83-3.09,7.22-4.52c4.78-2.8,9.35-5.34,13.39-7.32s7.48-3.52,9.9-4.58,3.86-1.57,3.86-1.57l-.29-.82S2602.86,533.51,2600.24,534.18Z" transform="translate(0 -224.3)"/><path class="cls-33" d="M2587,602.61c-.62-1-1.34-2.05-2-3.09a15.58,15.58,0,0,0-2.3-3,39,39,0,0,0-5.42-5.26l-2.92-2.35a25.85,25.85,0,0,0-3.13-1.9c-1.07-.56-2.11-1.13-3.17-1.63l-1.55-.76c-.52-.2-1.07-.36-1.6-.54-2.1-.7-4.1-1.32-6-1.83a29.78,29.78,0,0,0-5.17-1c-1.56-.22-2.92-.38-4-.49-2.24-.21-3.53-.23-3.53-.23l-.16.55s1.1.66,3,1.64c1,.5,2.15,1.06,3.51,1.68s2.92,1.21,4.49,2.1,3.32,1.71,5.17,2.56,3.56,2.06,5.53,3c.94.52,2,.94,2.93,1.54l2.82,1.79a29.48,29.48,0,0,1,5.35,4.11,13.07,13.07,0,0,1,2.29,2.42c.69.85,1.43,1.68,2.08,2.56,1,1.87,2.31,3.63,2.87,5.6a28.86,28.86,0,0,1,1.6,5.68,32.12,32.12,0,0,1,.37,5.32,30.92,30.92,0,0,1-.37,4.55c-.24,1.34-.47,2.53-.73,3.48a20.19,20.19,0,0,1-1,3l.58.23a21.68,21.68,0,0,0,1.44-2.91,32.21,32.21,0,0,0,2.26-8.19,33.26,33.26,0,0,0,.36-5.71,29,29,0,0,0-1.06-6.38C2589.14,606.92,2587.94,604.84,2587,602.61Z" transform="translate(0 -224.3)"/><path class="cls-20" d="M2558.32,468.09c-22.65-15.4-55.44-11.6-82.1-1.89-20.78,7.57-36.79,17.14-48.24,34.29-26.16,39.15-8.48,87.68,31.81,115.08s87.94,23.28,114.1-15.87c15.12-22.63,16.39-51.23,10.89-78.9C2580.77,500.61,2575.32,479.65,2558.32,468.09Z" transform="translate(0 -224.3)"/><path class="cls-20" d="M2517.37,446.1c-21.53,6.81-10.54,29.88-8,37.43,0,0-23.13-2.08-9.63,28.54s15.19,33.73,9.23,51.12c0,0-9.17-.39-13.44,20.11s-16.86,42.58-16.86,42.58l2.43,1c63.64-33.6,51.57-96.71,50.57-122.72A51.35,51.35,0,0,1,2549,463.7S2538.89,439.29,2517.37,446.1Z" transform="translate(0 -224.3)"/><path class="cls-21" d="M2549,463.7s-38.08,3.35-25.54,66.47-42.39,96.71-42.39,96.71c49.23-17.22,63.54-80.38,66-98.2s-6-33.33-6-33.33c1.49-10.69,12.26-1.41,21.81-24.17S2549,463.7,2549,463.7Z" transform="translate(0 -224.3)"/><path class="cls-20" d="M2457.23,545.75a23.19,23.19,0,0,0-4,.54,28.71,28.71,0,0,0-3.94,1.17,48.53,48.53,0,0,0-13.91,8.72A88.19,88.19,0,0,0,2424,568c-.25.32-.49.66-.74,1-.19,1.12-.36,2.25-.54,3.37.77,1.75,1.59,3.48,2.48,5.19,1.2-1.94,2.43-3.87,3.73-5.74a113.34,113.34,0,0,1,9.66-12.1,66,66,0,0,1,5.57-5.28c1-.81,2-1.63,3-2.33a36.15,36.15,0,0,1,3.21-2,35.69,35.69,0,0,1,3.42-1.63,20.67,20.67,0,0,1,3.61-1.12,19.11,19.11,0,0,1,3.78-.51,21.9,21.9,0,0,1,3.87.21,21.9,21.9,0,0,0-3.8-1A16.74,16.74,0,0,0,2457.23,545.75Z" transform="translate(0 -224.3)"/><path class="cls-20" d="M2466.92,492.5a53.61,53.61,0,0,0-14.35,6.57,61.9,61.9,0,0,0-12.24,10.39,76.94,76.94,0,0,0-9.58,12.94,93.4,93.4,0,0,0-7.09,14.36,127.77,127.77,0,0,0-5,15.1c-.43,1.64-.78,3.29-1.14,4.94a81.52,81.52,0,0,0,4.44,13.86c.43-.56.84-1.13,1.28-1.68,0-.16.05-.31.07-.46.87-4.93,1.95-9.83,3.28-14.65a141.76,141.76,0,0,1,4.52-14.23,126.76,126.76,0,0,1,6.11-13.53,89.52,89.52,0,0,1,8-12.37,68.64,68.64,0,0,1,10.21-10.52,55.34,55.34,0,0,1,6-4.3,51.86,51.86,0,0,1,6.49-3.6,72.56,72.56,0,0,1,14.23-4.95,57.75,57.75,0,0,0-7.63.51A51.46,51.46,0,0,0,2466.92,492.5Z" transform="translate(0 -224.3)"/><path class="cls-22" d="M2422.69,572.35c.18-1.12.35-2.25.54-3.37-.44.55-.85,1.12-1.28,1.68C2422.18,571.23,2422.44,571.79,2422.69,572.35Z" transform="translate(0 -224.3)"/><path class="cls-20" d="M2576.5,553.73a41.41,41.41,0,0,0-.83-5.06,34.42,34.42,0,0,0-1.16-4.63,69.38,69.38,0,0,0-2.81-7.81c-1.1-2.2-2-4.13-2.88-5.66l-2.91-4.67,2.59,4.85c.76,1.58,1.55,3.56,2.5,5.79a68.47,68.47,0,0,1,2.26,7.86,33.53,33.53,0,0,1,.84,4.58,39.45,39.45,0,0,1,.5,5,41.9,41.9,0,0,1,.07,5.27c0,.9-.05,1.81-.08,2.72l-.3,2.77a73.08,73.08,0,0,1-2.19,11.3,89.32,89.32,0,0,1-4,11.22c-.31.75-.69,1.48-1,2.22a52.79,52.79,0,0,0,0-7.43c-.18-1.3-.35-2.57-.51-3.79l-.81-3.47c-.37-1.07-.72-2.1-1.06-3.07s-.82-1.83-1.19-2.66a43.56,43.56,0,0,0-2.34-4.08c-1.55-2.08-2.46-3.22-2.46-3.22s.81,1.24,2.16,3.42a41.36,41.36,0,0,1,1.94,4.21c.29.85.67,1.72.94,2.68s.49,2,.76,3.06.32,2.22.49,3.39.11,2.4.16,3.66a47.42,47.42,0,0,1-.75,7.87,56.23,56.23,0,0,1-2.14,8.19c-.14.42-.32.83-.47,1.25-1.68,2.83-3.41,5.59-5.22,8.18-2.11,3.09-4.33,6-6.47,8.64s-4.27,5.14-6.28,7.35c-1.5,1.64-2.9,3.11-4.23,4.49a70.07,70.07,0,0,0,16.38-9.26c1.09-.83,2.17-1.69,3.23-2.59,1.17-2.47,2.27-5,3.27-7.64,1.59-2.72,3.13-5.54,4.57-8.47a108.59,108.59,0,0,0,4.85-11.45,95.17,95.17,0,0,0,3.43-11.94,76.81,76.81,0,0,0,1.53-11.9c0-1,.09-1.93.13-2.89s-.06-1.89-.09-2.82A43.26,43.26,0,0,0,2576.5,553.73Z" transform="translate(0 -224.3)"/><path class="cls-23" d="M2267.14,225s-1.62,29,15.26,47.71,45.85,20.14,45.85,20.14,1.62-29-15.26-47.7S2267.14,225,2267.14,225Z" transform="translate(0 -224.3)"/><path class="cls-24" d="M2328.91,231.39a4.73,4.73,0,1,0-8.22-4.7c-15.07,26.41,1.92,55.09,2.65,56.29a4.73,4.73,0,0,0,4.89,2.21,4.92,4.92,0,0,0,1.61-.6,4.75,4.75,0,0,0,1.6-6.51C2331.28,277.83,2316.57,253,2328.91,231.39Z" transform="translate(0 -224.3)"/><path class="cls-10" d="M2351.74,251.09c-8.81,1.59-16.18,7.54-21.54,16.4-3.41,4.24-9.3,12.46-9.3,12.46s-9.5-7.78-11.24-8.83c-8.1-6.38-17-9.37-25.84-7.78-23.13,4.17-45.81,23.11-39,61.14s53.15,77,76.28,72.8a21.25,21.25,0,0,0,13-7.33,15.28,15.28,0,0,1,14.31-2.56l.1-.24a21.3,21.3,0,0,0,15,2.48c23.13-4.17,52.9-56.84,46-94.87S2374.87,246.91,2351.74,251.09Z" transform="translate(0 -224.3)"/><g class="cls-34"><path d="M2334,368.47c-1-.08-2-.17-3-.28-24.78-2.78-49.16-11.17-63.95-32.51-7.53-10.86-9.66-23.55-8-36a71.8,71.8,0,0,1-.24-24.5c-11.22,10-18.06,26.06-13.87,49.29,6.86,38,53.15,77,76.28,72.8a21.25,21.25,0,0,0,13-7.33,15.28,15.28,0,0,1,14.31-2.56l.1-.24a21.3,21.3,0,0,0,15,2.48c10.31-1.86,21.94-13.36,31-28.9a109.85,109.85,0,0,1-11.38,5A83.8,83.8,0,0,1,2334,368.47Z" transform="translate(0 -224.3)"/></g><path class="cls-25" d="M2371.66,265.47c-21.18-7-32.5,7.22-32.5,7.22s-9.45,12.92,7.24,19.45c42.22,16.52,34.61,70.66,47.17,41.61S2392.83,272.51,2371.66,265.47Z" transform="translate(0 -224.3)"/><path class="cls-35" d="M2090.68,623.44c-48.73-18.43-97.34-65-118.79-99.66-21.72-35.08-43-34.78-55.32-22.75-7.9,7.69-15.78,33.8,14.25,70.19,24.4,29.58,94.27,114.25,162.88,115.29C2148.45,687.34,2133,639.46,2090.68,623.44Z" transform="translate(0 -224.3)"/><path class="cls-36" d="M2076.31,654.87c-24.37-7.24-48.42-17.33-68.94-31.87-15-10.62-27.93-22.64-38.11-38a94.47,94.47,0,0,1-10.73-22.19c-15-19.18-27.41-40.46-34.53-63.52a28.58,28.58,0,0,1-.74-3,27.28,27.28,0,0,0-6.69,4.82c-7.9,7.69-15.78,33.8,14.25,70.19,24.4,29.58,94.27,114.25,162.88,115.29,22.47.34,33.11-7.52,34.93-18a155.29,155.29,0,0,1-41.86-9.44C2083.25,657.75,2079.76,656.33,2076.31,654.87Z" transform="translate(0 -224.3)"/><path class="cls-37" d="M1911.42,461.63a3.94,3.94,0,0,0-7.88-.28c-.91,25.5,16.06,42.32,16.78,43a4,4,0,0,0,2.87,1.11,3.88,3.88,0,0,0,2.7-1.19,3.94,3.94,0,0,0-.07-5.57C1925.67,498.58,1910.63,483.68,1911.42,461.63Z" transform="translate(0 -224.3)"/><path class="cls-38" d="M2121.08,677.9a45.39,45.39,0,0,1-9-.37,113.2,113.2,0,0,1-13.77-2.7,167.65,167.65,0,0,1-17.35-5.42c-1.56-.58-3.13-1.21-4.72-1.87-.8-.33-1.59-.68-2.37-1s-1.61-.74-2.41-1.15c-3.22-1.6-6.55-3.24-9.91-5.05-6.74-3.59-13.69-7.67-20.68-12.19s-14-9.48-21-14.78-13.84-10.91-20.49-16.8-13.19-11.93-19.39-18.12-12.19-12.4-17.81-18.58-10.94-12.26-15.91-18.1q-3.7-4.43-7.2-8.57l-6.78-8A56.33,56.33,0,0,1,1923,530a48.11,48.11,0,0,1-3.29-13.45,43.94,43.94,0,0,1,.07-9,23.67,23.67,0,0,1,.55-3.16,22.92,22.92,0,0,0-.86,3.11,40.1,40.1,0,0,0-.89,9.12,46.66,46.66,0,0,0,2.37,14.13,55.33,55.33,0,0,0,8.79,16.49l6.37,8.33c2.2,2.87,4.5,5.84,6.89,8.87,4.77,6.07,9.9,12.4,15.47,18.74s11.41,12.82,17.67,19.11,12.76,12.54,19.55,18.48,13.82,11.61,21,16.92,14.43,10.14,21.64,14.57,14.47,8.25,21.43,11.66c1.76.82,3.46,1.7,5.19,2.45l5.1,2.22c.83.37,1.69.72,2.51,1s1.69.66,2.52,1q2.51.92,4.93,1.69a151.58,151.58,0,0,0,17.91,4.52,106.08,106.08,0,0,0,14.11,1.77,42.77,42.77,0,0,0,9.14-.39,18,18,0,0,0,2.35-.53l.78-.24-.8.18A18.78,18.78,0,0,1,2121.08,677.9Z" transform="translate(0 -224.3)"/><path class="cls-38" d="M2127.37,668a20.3,20.3,0,0,0-5.41-6.69c-5.6-4.95-14.81-10.35-26.13-16-5.65-2.86-11.84-5.81-18.4-8.87S2064,630.08,2057,626.5a89.52,89.52,0,0,1-10.1-6c-3.24-2.41-6.59-4.76-9.88-7.23-6.54-5-13.11-10.2-19.34-15.77s-12.37-11.25-18.12-17.13-11.12-12-16.17-18l-3.69-4.52c-1.2-1.5-2.36-3-3.52-4.51s-2.3-3-3.41-4.45-2.22-2.92-3.27-4.39c-4.28-5.8-8.09-11.46-11.69-16.64A149.66,149.66,0,0,0,1947.51,514a56.61,56.61,0,0,0-9.67-9.32,16.55,16.55,0,0,0-7.87-3.5,5.9,5.9,0,0,0-2.27.22,2.36,2.36,0,0,0-.7.33,2.38,2.38,0,0,1,.72-.26,5.53,5.53,0,0,1,2.21,0c1.92.32,4.52,1.66,7.28,4a60.38,60.38,0,0,1,8.78,9.73c3.07,4.07,6.11,8.89,9.46,14.28s7.08,11.12,11.21,17.1,8.64,12.21,13.63,18.39,10.32,12.46,16.15,18.44,11.89,11.93,18.29,17.49,13,10.84,19.7,15.87c3.35,2.49,6.75,4.85,10.08,7.21a93.11,93.11,0,0,0,10.7,6.06c7.15,3.55,14.18,6.55,20.82,9.42s12.93,5.56,18.68,8.14c11.47,5.16,20.87,9.91,26.67,14.36a20.53,20.53,0,0,1,5.77,6.1,8.34,8.34,0,0,1,.77,2.09c.07.5.11.76.11.76s0-.26-.05-.77A8.12,8.12,0,0,0,2127.37,668Z" transform="translate(0 -224.3)"/><ellipse class="cls-17" cx="1767.06" cy="624.97" rx="74.82" ry="78.06" transform="translate(442.23 1726.53) rotate(-64.5)"/><path class="cls-39" d="M1704.6,633.64c-7.09-10-10.49-21.5-11.53-33.34-11.41,35.32,5.92,75.1,41.77,92.2,37.4,17.84,81.31,4.49,100.46-29.68-12.55,8.6-28.69,12.06-43.65,12.47C1758.32,676.19,1724,661,1704.6,633.64Z" transform="translate(0 -224.3)"/><path class="cls-35" d="M1790.43,570.24a53.27,53.27,0,0,0-21,1.28,32.33,32.33,0,0,0-3.41,1.15,13.54,13.54,0,0,0-1.28.58,13.33,13.33,0,0,0,1.34.41,30.19,30.19,0,0,0,3.52.74,51.44,51.44,0,0,0,10.58.42,50.43,50.43,0,0,0,10.45-1.68A32,32,0,0,0,1794,572a13.54,13.54,0,0,0,1.28-.58A13.33,13.33,0,0,0,1794,571,32.09,32.09,0,0,0,1790.43,570.24Z" transform="translate(0 -224.3)"/><path class="cls-35" d="M1788,579.34a53.2,53.2,0,0,0-13.79-15.92,32.78,32.78,0,0,0-3-2c-.76-.45-1.24-.67-1.24-.67a14,14,0,0,0,.49,1.32,31.36,31.36,0,0,0,1.55,3.25,53.39,53.39,0,0,0,13.81,15.91,31.52,31.52,0,0,0,3,2c.76.45,1.24.67,1.24.67a14,14,0,0,0-.49-1.32A29.77,29.77,0,0,0,1788,579.34Z" transform="translate(0 -224.3)"/><path class="cls-35" d="M1782.75,566.56c-4.22-2-8.72-1.4-10,1.38s1,6.66,5.25,8.68,8.72,1.39,10-1.38S1787,568.57,1782.75,566.56Z" transform="translate(0 -224.3)"/><path class="cls-40" d="M1704.82,643.72a2.13,2.13,0,1,0,1.77,2.44A2.13,2.13,0,0,0,1704.82,643.72Z" transform="translate(0 -224.3)"/><path class="cls-40" d="M1720.65,641.39a2.13,2.13,0,1,0,1.24,2.74A2.12,2.12,0,0,0,1720.65,641.39Z" transform="translate(0 -224.3)"/><path class="cls-40" d="M1720.44,656.34a2.13,2.13,0,1,0,1.24,2.75A2.12,2.12,0,0,0,1720.44,656.34Z" transform="translate(0 -224.3)"/><path class="cls-40" d="M1737.39,646.77a2.13,2.13,0,1,0,1.24,2.74A2.13,2.13,0,0,0,1737.39,646.77Z" transform="translate(0 -224.3)"/><path class="cls-40" d="M1743,664.86a2.13,2.13,0,1,0,1.25,2.75A2.13,2.13,0,0,0,1743,664.86Z" transform="translate(0 -224.3)"/><path class="cls-40" d="M1726.08,670.72a2.13,2.13,0,1,0,1.24,2.75A2.14,2.14,0,0,0,1726.08,670.72Z" transform="translate(0 -224.3)"/><path class="cls-40" d="M1709.16,659.79a2.13,2.13,0,1,0,1.24,2.74A2.13,2.13,0,0,0,1709.16,659.79Z" transform="translate(0 -224.3)"/><path class="cls-40" d="M1723.22,609.05a2.13,2.13,0,1,0,1.77,2.44A2.13,2.13,0,0,0,1723.22,609.05Z" transform="translate(0 -224.3)"/><path class="cls-40" d="M1745.12,609.05a2.13,2.13,0,1,0,1.24,2.74A2.12,2.12,0,0,0,1745.12,609.05Z" transform="translate(0 -224.3)"/><path class="cls-40" d="M1748.85,628.15a2.13,2.13,0,1,0,1.24,2.74A2.13,2.13,0,0,0,1748.85,628.15Z" transform="translate(0 -224.3)"/><path class="cls-40" d="M1761.86,614.42a2.13,2.13,0,1,0,1.24,2.75A2.14,2.14,0,0,0,1761.86,614.42Z" transform="translate(0 -224.3)"/><path class="cls-40" d="M1766.32,626.11a2.13,2.13,0,1,0,1.24,2.74A2.13,2.13,0,0,0,1766.32,626.11Z" transform="translate(0 -224.3)"/><path class="cls-40" d="M1751.57,646.18a2.13,2.13,0,1,0,1.25,2.74A2.12,2.12,0,0,0,1751.57,646.18Z" transform="translate(0 -224.3)"/><path class="cls-40" d="M1726.87,624.9a2.13,2.13,0,1,0,1.24,2.74A2.12,2.12,0,0,0,1726.87,624.9Z" transform="translate(0 -224.3)"/><path class="cls-40" d="M1754.28,659.78a2.13,2.13,0,1,0,1.77,2.44A2.14,2.14,0,0,0,1754.28,659.78Z" transform="translate(0 -224.3)"/><path class="cls-40" d="M1773,644.69a2.13,2.13,0,1,0,1.24,2.75A2.14,2.14,0,0,0,1773,644.69Z" transform="translate(0 -224.3)"/><path class="cls-40" d="M1772.83,659.65a2.13,2.13,0,1,0,1.24,2.74A2.13,2.13,0,0,0,1772.83,659.65Z" transform="translate(0 -224.3)"/><path class="cls-40" d="M1778,615.22a2.13,2.13,0,1,0,1.24,2.74A2.13,2.13,0,0,0,1778,615.22Z" transform="translate(0 -224.3)"/><path class="cls-40" d="M1712.81,624.15a2.13,2.13,0,1,0,1.24,2.74A2.13,2.13,0,0,0,1712.81,624.15Z" transform="translate(0 -224.3)"/><path class="cls-40" d="M1789.53,632.43a2.13,2.13,0,1,0,1.24,2.75A2.14,2.14,0,0,0,1789.53,632.43Z" transform="translate(0 -224.3)"/><path class="cls-40" d="M1767.93,672.62a2.13,2.13,0,1,0,1.25,2.74A2.12,2.12,0,0,0,1767.93,672.62Z" transform="translate(0 -224.3)"/><path class="cls-40" d="M1711,603.64a2.13,2.13,0,1,0,1.25,2.75A2.15,2.15,0,0,0,1711,603.64Z" transform="translate(0 -224.3)"/><path class="cls-40" d="M1698.73,620.21A2.13,2.13,0,1,0,1700,623,2.12,2.12,0,0,0,1698.73,620.21Z" transform="translate(0 -224.3)"/><path class="cls-40" d="M1724.37,591a2.13,2.13,0,1,0,1.24,2.75A2.14,2.14,0,0,0,1724.37,591Z" transform="translate(0 -224.3)"/><path class="cls-40" d="M1752.87,587.32a2.13,2.13,0,1,0,1,2.16A2.13,2.13,0,0,0,1752.87,587.32Z" transform="translate(0 -224.3)"/><path class="cls-40" d="M1774.2,592.85a2.14,2.14,0,1,0,1,2.16A2.16,2.16,0,0,0,1774.2,592.85Z" transform="translate(0 -224.3)"/><path class="cls-40" d="M1791.88,670.21a2.13,2.13,0,1,0,1.77,2.44A2.13,2.13,0,0,0,1791.88,670.21Z" transform="translate(0 -224.3)"/><path class="cls-40" d="M1813.82,650.31a2.13,2.13,0,1,0,1.24,2.74A2.13,2.13,0,0,0,1813.82,650.31Z" transform="translate(0 -224.3)"/><path class="cls-40" d="M1818.17,671.3a2.13,2.13,0,1,0,1.24,2.74A2.12,2.12,0,0,0,1818.17,671.3Z" transform="translate(0 -224.3)"/><path class="cls-40" d="M1786.44,651.92a2.13,2.13,0,0,0-1.5,4,2.13,2.13,0,1,0,1.5-4Z" transform="translate(0 -224.3)"/><path class="cls-40" d="M1792.52,687.3a2.13,2.13,0,1,0,1.24,2.74A2.12,2.12,0,0,0,1792.52,687.3Z" transform="translate(0 -224.3)"/><path class="cls-40" d="M1774.55,684.45a2.13,2.13,0,1,0,1.24,2.74A2.13,2.13,0,0,0,1774.55,684.45Z" transform="translate(0 -224.3)"/><path class="cls-40" d="M1803.29,678.22a2.13,2.13,0,1,0,1.24,2.75A2.13,2.13,0,0,0,1803.29,678.22Z" transform="translate(0 -224.3)"/><path class="cls-40" d="M1815.35,635.58a2.13,2.13,0,1,0,1.77,2.44A2.13,2.13,0,0,0,1815.35,635.58Z" transform="translate(0 -224.3)"/><path class="cls-40" d="M1839.25,627.48a2.13,2.13,0,1,0,1.24,2.74A2.12,2.12,0,0,0,1839.25,627.48Z" transform="translate(0 -224.3)"/><path class="cls-40" d="M1839,642.43a2.13,2.13,0,1,0,1.24,2.75A2.12,2.12,0,0,0,1839,642.43Z" transform="translate(0 -224.3)"/><path class="cls-40" d="M1795.57,607.93a2.13,2.13,0,1,0,1.24,2.74A2.13,2.13,0,0,0,1795.57,607.93Z" transform="translate(0 -224.3)"/><path class="cls-40" d="M1739.61,682.09a2.13,2.13,0,1,0,1.24,2.75A2.13,2.13,0,0,0,1739.61,682.09Z" transform="translate(0 -224.3)"/><path class="cls-40" d="M1779.38,669.2a2.13,2.13,0,1,0,1.24,2.75A2.14,2.14,0,0,0,1779.38,669.2Z" transform="translate(0 -224.3)"/><path class="cls-40" d="M1827.76,645.88a2.13,2.13,0,1,0,1.24,2.74A2.13,2.13,0,0,0,1827.76,645.88Z" transform="translate(0 -224.3)"/><path class="cls-40" d="M1757.05,688.72a2.13,2.13,0,1,0,1.77,2.43A2.13,2.13,0,0,0,1757.05,688.72Z" transform="translate(0 -224.3)"/><path class="cls-40" d="M1810.28,589.7a2.13,2.13,0,1,0,1.24,2.74A2.12,2.12,0,0,0,1810.28,589.7Z" transform="translate(0 -224.3)"/><path class="cls-40" d="M1706,588.06a2.13,2.13,0,1,0,1.24,2.74A2.12,2.12,0,0,0,1706,588.06Z" transform="translate(0 -224.3)"/><path class="cls-40" d="M1735.82,568.43a2.13,2.13,0,1,0,1.24,2.75A2.14,2.14,0,0,0,1735.82,568.43Z" transform="translate(0 -224.3)"/><path class="cls-40" d="M1805.87,661.93a2.13,2.13,0,1,0,1.24,2.74A2.13,2.13,0,0,0,1805.87,661.93Z" transform="translate(0 -224.3)"/><path class="cls-40" d="M1827.65,658.23a2.13,2.13,0,0,0-1.5,4,2.15,2.15,0,0,0,2.75-1.25A2.12,2.12,0,0,0,1827.65,658.23Z" transform="translate(0 -224.3)"/><path class="cls-40" d="M1755.31,675.35a2.13,2.13,0,1,0,1.24,2.75A2.14,2.14,0,0,0,1755.31,675.35Z" transform="translate(0 -224.3)"/><path class="cls-40" d="M1805.15,622.08a2.13,2.13,0,1,0,1.25,2.74A2.12,2.12,0,0,0,1805.15,622.08Z" transform="translate(0 -224.3)"/><path class="cls-40" d="M1798.31,646a2.13,2.13,0,1,0,1.24,2.74A2.12,2.12,0,0,0,1798.31,646Z" transform="translate(0 -224.3)"/><path class="cls-40" d="M1823.49,618.46a2.13,2.13,0,1,0,1.24,2.75A2.13,2.13,0,0,0,1823.49,618.46Z" transform="translate(0 -224.3)"/><path class="cls-40" d="M1834.43,606.37a2.14,2.14,0,1,0,1,2.16A2.16,2.16,0,0,0,1834.43,606.37Z" transform="translate(0 -224.3)"/><path class="cls-35" d="M2766.7,409.14c-2.51-1.34-11.11,9.75-12.45,12.24l-4.41,8.15c-3.72-6.06-12.66-24-10.44-35.68a5.13,5.13,0,1,0-10.08-1.91c-3,15.74,7.71,35.91,11,41.58l-8.58-2.29c-2.78-.59-19.46-.94-20,1.83s16.92,13,19.69,13.59l17-.57a5.16,5.16,0,0,0,3.09-.32,5,5,0,0,0,2.48-2.26l12.34-17.23C2767.64,423.78,2769.19,410.49,2766.7,409.14Z" transform="translate(0 -224.3)"/><path class="cls-10" d="M2667.4,474.25c5.65,42.53,45.25,66.06,52,78.71s15.15,52.59,32.13,59c15.08,5.65,35.45-1.2,40.36-22.93L2722,450.75S2662.57,438,2667.4,474.25Z" transform="translate(0 -224.3)"/><path class="cls-25" d="M2718.86,474c-1.94-13.16-16.85-20.48-28.15-13.47-5.05,3.13-8.17,8.35-7,16.8,4.64,35,37.21,54.32,42.74,64.73s12.46,43.25,26.43,48.49a25,25,0,0,0,9.31,1.54c12-12.65-11.74-24.22-16.18-37.2A241.65,241.65,0,0,1,2718.86,474Z" transform="translate(0 -224.3)"/><path class="cls-10" d="M2827.07,405.58c-19.23-31.12-54.65,23.5-54.65,23.5l52.32,145.77c19.16,11.38,38.13,1.31,44.4-13.52,7.06-16.71-16.13-50.29-20.69-63.88S2849,441.13,2827.07,405.58Z" transform="translate(0 -224.3)"/><path class="cls-10" d="M2794.84,451.12c-13.45-34.3-51.64-20.6-51.64-20.6s-36.23,18.31-20.6,51.67,33.23,38.09,39,54.46,18.25,71.2,51.69,56.8,2.23-61.16-5.69-76.59S2808.3,485.41,2794.84,451.12Z" transform="translate(0 -224.3)"/><path class="cls-25" d="M2788.88,458.05c-9.68-24.69-37.18-14.82-37.18-14.82s-26.08,13.18-14.83,37.19,23.92,27.42,28.07,39.2,14.67,59.82,38.74,49.45.08-52.58-5.63-63.69S2798.57,482.74,2788.88,458.05Z" transform="translate(0 -224.3)"/><path class="cls-25" d="M2820.59,418.3c-4.94-7-10.77-8.64-16.6-7.49-13,2.57-19,18.09-11.42,29a241.7,241.7,0,0,1,35.3,77.67c5.6,12.52-3.86,37.15,13.51,38.24a24.87,24.87,0,0,0,5.77-7.47c6.65-13.36-10.68-42.1-13.72-53.49S2841,447.06,2820.59,418.3Z" transform="translate(0 -224.3)"/></svg>