<svg id="Ñëîé_1" data-name="Ñëîé 1" xmlns="http://www.w3.org/2000/svg" xmlns:xlink="http://www.w3.org/1999/xlink" viewBox="0 0 793.86 793.84"><defs><style>.cls-1{fill:url(#linear-gradient);}</style><linearGradient id="linear-gradient" x1="5845.99" y1="476.25" x2="6833.51" y2="476.25" gradientTransform="matrix(0.71, -0.71, -0.71, -0.71, -1903.55, 5757.21)" gradientUnits="userSpaceOnUse"><stop offset="0" stop-color="#be1622"/><stop offset="1" stop-color="#f39200"/></linearGradient></defs><path class="cls-1" d="M2444.14,566.72l-191.5,191.5a14.24,14.24,0,0,1-20.14,0L2041,566.72a89,89,0,0,0-125.86,0l-43.43,43.43a89,89,0,0,0,0,125.87l191.5,191.5a14.24,14.24,0,0,1,0,20.12l-191.5,191.5a89,89,0,0,0,0,125.86l43.43,43.43a89,89,0,0,0,125.86,0l191.5-191.5a14.23,14.23,0,0,1,20.12,0l0,0,191.49,191.49a89,89,0,0,0,125.86,0h0l43.43-43.43a89,89,0,0,0,0-125.86h0l-191.49-191.5a14.24,14.24,0,0,1,0-20.13h0L2613.42,736a89,89,0,0,0,0-125.86h0L2570,566.72A89,89,0,0,0,2444.14,566.72Z" transform="translate(-1845.64 -540.65)"/></svg>