<svg xmlns="http://www.w3.org/2000/svg" xmlns:xlink="http://www.w3.org/1999/xlink" viewBox="0 0 436.64 410.3"><defs><style>.cls-1{fill:url(#linear-gradient);}</style><linearGradient id="linear-gradient" x1="1896.9" y1="719.12" x2="2333.55" y2="719.12" gradientUnits="userSpaceOnUse"><stop offset="0" stop-color="#00e6ff"/><stop offset="1" stop-color="#0090d4"/></linearGradient></defs><g id="HASHTAG_ICON" data-name="HASHTAG ICON"><g id="hashtag_white" data-name="hashtag white"><path class="cls-1" d="M2305.55,676.33a28,28,0,0,0,0-56h-71.36l13-73.49a28,28,0,0,0-55.15-9.73l-14.68,83.22H2088l13-73.49a28,28,0,1,0-55.15-9.73l-14.68,83.22h-85.31a28,28,0,0,0,0,56h75.44l-15.91,90.22H1924.9a28,28,0,0,0,0,56h70.55l-12.14,68.85a28,28,0,1,0,55.15,9.73l13.85-78.58h89.36l-12.14,68.85a28,28,0,1,0,55.14,9.73l13.86-78.58h86.13a28,28,0,0,0,0-56H2208.4l15.91-90.22Zm-154,90.22h-89.35l15.9-90.22h89.36Z" transform="translate(-1896.9 -513.97)"/></g></g></svg>