<svg xmlns="http://www.w3.org/2000/svg" viewBox="0 0 1500 1500"><defs><style>.cls-1{fill:#fff;}.cls-2{fill:#3fa9f5;}.cls-3{fill:#3598db;}</style></defs><g id="ƒŒƒCƒ__6" data-name="ƒŒƒCƒ„[_6"><rect class="cls-1" width="1500" height="1500" rx="418.14"/><path class="cls-2" d="M1312.84,452.22c-1.56-4-6.43-6.29-10.88-5.17L1270.39,455l2.75-16.52c.67-4-2.53-8-7.23-8.84s-9,1.76-9.67,5.8l-4,24.13L1230.68,465l7.06-44c.65-4-2.62-8-7.28-8.81s-9,1.8-9.64,5.85l-8.26,51.55-21.42,5.38,5.12-30.4c.68-4-2.55-8-7.22-8.84s-9,1.74-9.68,5.78l-6.4,38-21.47,5.4,2.55-15.32a6.5,6.5,0,0,0,.51-5.39,8.06,8.06,0,0,0-2.78-3.79,9.55,9.55,0,0,0-4.55-2.12,9.19,9.19,0,0,0-6.06.92L1124,462.8l4.23-19.31,42.48-9c4.51-.95,7.06-5,5.7-9s-6.14-6.5-10.65-5.55l-34,7.16,4.21-19.25,57.61-11.79c4.52-.92,7.11-4.93,5.77-8.95s-6.08-6.54-10.61-5.61l-49.21,10.06,4.24-19.36,27-5.65c4.52-1,7.08-5,5.72-9s-6.12-6.51-10.64-5.56l-18.45,3.86,6.21-28.38c.87-4-2.17-8.06-6.81-9.08s-9.1,1.41-10,5.41l-6.21,28.38L1115.5,341c-3.7-2.75-9.07-2.47-12,.61s-2.28,7.81,1.43,10.55l22.13,16.39-4.24,19.37-40.5-29.7c-3.72-2.73-9.09-2.43-12,.66s-2.23,7.82,1.49,10.55l47.43,34.78-4.21,19.25-27.86-20.69c-3.71-2.75-9.08-2.49-12,.59s-2.28,7.81,1.42,10.56l34.86,25.88-4.23,19.3-13.51-10a9.07,9.07,0,0,0-5.4-3.82,9.68,9.68,0,0,0-5.13.05,8.11,8.11,0,0,0-4.26,2.3,6.47,6.47,0,0,0-1.72,5.6l-4,14.4-17.2-13.93,10.24-37.19c1.09-3.95-1.75-8.13-6.34-9.32s-9.19,1-10.27,5l-8.19,29.73L1024.34,428l14.25-50.23c1.12-3.94-1.69-8.13-6.27-9.35s-9.2,1-10.32,4.92l-12.17,42.9-17.25-14,6.53-23.57c1.1-3.95-1.73-8.12-6.32-9.33s-9.19,1-10.28,5L978,390.49,952.75,370c-3.57-2.89-9-2.84-12,.11s-2.7,7.68.87,10.57l25.28,20.48-17.91,5.25c-4.38,1.29-6.53,5.51-4.79,9.43a9,9,0,0,0,6.36,4.92,9.49,9.49,0,0,0,4.73-.14L981.4,413l17.25,14-47.59,14.2c-4.38,1.3-6.5,5.54-4.73,9.45a9,9,0,0,0,6.34,4.89,9.54,9.54,0,0,0,4.77-.16l55.72-16.62,17.15,13.9-33,9.62c-4.39,1.27-6.54,5.49-4.81,9.42a9,9,0,0,0,6.37,4.93,9.53,9.53,0,0,0,4.71-.14l41.28-12,17.2,13.94-16.62,4.87a8.59,8.59,0,0,0-5.63,2,7.27,7.27,0,0,0-1.83,8.2,8.62,8.62,0,0,0,4.26,4.2l13,11.42-21.49,5.37-32.3-28.34c-3.43-3-8.84-3.16-12.07-.33s-3.07,7.55.36,10.56l25.82,22.65-21.43,5.35L950.68,485.7c-3.41-3-8.81-3.21-12.07-.4s-3.13,7.53.28,10.56l37.1,33-21.55,5.38-20.46-18c-3.43-3-8.83-3.18-12.07-.35s-3.09,7.55.34,10.56l14,12.32-31.6,7.89c-4.45,1.11-6.81,5.24-5.27,9.21a9,9,0,0,0,6.49,5.24,9.68,9.68,0,0,0,4.38-.05l31.6-7.89-2.79,16.51c-.67,3.94,2.38,7.8,6.85,8.78l.36.07c4.67.85,9-1.74,9.68-5.78L960,548.6l21.56-5.38-7.17,44c-.63,3.93,2.41,7.76,6.87,8.74l.4.08c4.67.82,9-1.79,9.64-5.83l8.39-51.53,21.43-5.35L1016,563.73c-.67,3.93,2.38,7.8,6.86,8.78l.34.07c4.67.86,9-1.73,9.7-5.77l6.48-38,21.49-5.37-2.59,15.32a6.5,6.5,0,0,0-.52,5.39,8,8,0,0,0,2.67,3.69,9.59,9.59,0,0,0,4.29,2.16l.36.07a9.26,9.26,0,0,0,6.06-.91l17.13-3.56L1084,564.88l-42.51,8.89c-4.51.94-7.07,5-5.72,9a8.85,8.85,0,0,0,6.6,5.54,9.64,9.64,0,0,0,4,0l34-7.1-4.25,19.24-57.65,11.68c-4.52.92-7.12,4.93-5.79,9a8.84,8.84,0,0,0,6.62,5.59,9.69,9.69,0,0,0,4,0l49.24-10-4.29,19.35-27,5.6c-4.51.94-7.08,5-5.73,9a8.84,8.84,0,0,0,6.6,5.55,9.6,9.6,0,0,0,4,0l18.46-3.83-6.27,28.37c-.89,4,2.15,8.07,6.78,9.09h0c4.62,1,9.09-1.4,10-5.39l6.28-28.37,15.12,11.24a9.61,9.61,0,0,0,3.7,1.68,8.86,8.86,0,0,0,8.3-2.27c2.92-3.07,2.29-7.8-1.42-10.55L1085,639.79l4.28-19.35,40.44,29.77a9.7,9.7,0,0,0,3.67,1.64,8.83,8.83,0,0,0,8.32-2.29c2.9-3.09,2.24-7.81-1.48-10.55l-47.35-34.85,4.26-19.24,27.81,20.73a9.5,9.5,0,0,0,3.71,1.68,8.84,8.84,0,0,0,8.29-2.25c2.93-3.07,2.3-7.8-1.4-10.55l-34.8-25.95,4.27-19.29,14,10.43a9.24,9.24,0,0,0,5.11,3.38l.39.09a9.57,9.57,0,0,0,4.77-.16,8,8,0,0,0,4-2.22,6.48,6.48,0,0,0,1.8-5.11l4.12-15,17.22,13.91-10.16,37.21c-1.08,3.95,1.77,8.12,6.36,9.31l.38.08c4.46,1,8.84-1.24,9.89-5.09L1171,566.4l17.17,13.87-14.13,50.26c-1.11,4,1.7,8.13,6.29,9.34l.43.11c4.43,1,8.8-1.23,9.87-5.05L1202.73,592,1220,606l-6.48,23.59c-1.09,4,1.75,8.13,6.34,9.32l.39.09c4.45,1,8.83-1.24,9.88-5.08l4.44-16.15,25.33,20.45a9.57,9.57,0,0,0,4,1.89,8.9,8.9,0,0,0,8.06-2c3.08-3,2.68-7.69-.89-10.57L1245.73,607l17.9-5.28c4.38-1.29,6.52-5.52,4.77-9.44s-6.71-6-11.09-4.76l-26.15,7.72-17.28-14L1261.44,567c4.37-1.31,6.48-5.54,4.71-9.46s-6.75-6-11.12-4.71l-55.68,16.72-17.18-13.87,33-9.68c4.38-1.28,6.52-5.5,4.78-9.43s-6.71-6.06-11.09-4.77l-41.25,12.11L1150.36,530l16.59-4.89a8.57,8.57,0,0,0,5.64-2,7.26,7.26,0,0,0,1.81-8.2,8.6,8.6,0,0,0-4.26-4.19l-13-11.41,21.47-5.4L1211,522.18a9.65,9.65,0,0,0,4.25,2.12,9,9,0,0,0,7.82-1.81c3.23-2.83,3.06-7.56-.38-10.56l-25.86-22.61,21.41-5.38,43.53,38.52a9.53,9.53,0,0,0,4.29,2.15,9,9,0,0,0,7.78-1.77c3.25-2.81,3.11-7.54-.3-10.56l-37.18-32.9,21.54-5.42,20.5,18a9.54,9.54,0,0,0,4.26,2.13,9,9,0,0,0,7.81-1.8c3.23-2.83,3.07-7.56-.37-10.57l-14-12.29,31.57-7.95C1312.05,460.32,1314.39,456.19,1312.84,452.22ZM1123,507.9l16-4,11.48,10.06-14.64,4.32Zm-2.48-28.77,15.1-3.17-2.25,13.52-16,4Zm-19.92,10.65-12.76-10.34,3.63-13.07,12.27,9.08Zm-11.12,10.72-16,4L1062,494.41l14.66-4.29Zm5.6,14.39-3.18,14.38-15.11,3.13,2.28-13.51Zm26,27.28-12.38-9.2,3.18-14.38L1124.63,529Z" transform="translate(-4 -4)"/><path class="cls-3" d="M726,404.14H879.84c14.16,0,25.65-10.41,25.65-23.26S894,357.62,879.84,357.62H725.9v46.51Z" transform="translate(-4 -4)"/><path class="cls-3" d="M726,520.45H828.55c14.16,0,25.64-10.42,25.64-23.26s-11.48-23.26-25.64-23.26H725.9v46.52Z" transform="translate(-4 -4)"/><path class="cls-3" d="M726,636.75H879.84c14.16,0,25.65-10.41,25.65-23.26S894,590.23,879.84,590.23H725.9v46.51Z" transform="translate(-4 -4)"/><path class="cls-3" d="M726,753.07H828.55c14.16,0,25.64-10.42,25.64-23.26s-11.48-23.26-25.64-23.26H725.9v46.51Z" transform="translate(-4 -4)"/><path class="cls-3" d="M726,869.36H879.84c14.16,0,25.65-10.41,25.65-23.26S894,822.84,879.84,822.84H725.9v46.51Z" transform="translate(-4 -4)"/><path class="cls-3" d="M572,975.36V706.54H495.08V975.37c-59.17,15.19-102.57,64.5-102.57,123.08,0,70.65,63.18,127.9,141,127.9s141-57.25,141-127.9C674.58,1039.86,631.23,990.54,572,975.36Z" transform="translate(-4 -4)"/><path class="cls-3" d="M533.55,1319.38c-134.33,0-243.61-99.1-243.61-220.92,0-72.25,38.08-138.66,102.56-180.15V311.11c0-70.54,63.28-127.92,141.06-127.92s141.05,57.38,141.05,127.92V918.28c64.47,41.46,102.54,107.88,102.54,180.18C777.15,1220.28,667.87,1319.38,533.55,1319.38Zm0-1089.67c-49.5,0-89.77,36.51-89.77,81.4V943.62l-12,6.84c-56.68,32.16-90.51,87.49-90.51,148,0,96.17,86.27,174.41,192.31,174.41s192.3-78.24,192.3-174.41c0-60.55-33.82-115.89-90.48-148l-12-6.83V311.11C623.32,266.22,583.05,229.71,533.56,229.71Z" transform="translate(-4 -4)"/></g></svg>