<svg xmlns="http://www.w3.org/2000/svg" xmlns:xlink="http://www.w3.org/1999/xlink" viewBox="0 0 1500 1500"><defs><style>.cls-1{fill:#663915;}.cls-2{fill:none;}.cls-3{isolation:isolate;}.cls-4{fill:#fff;}.cls-5{fill:#c22b37;}.cls-6{clip-path:url(#clip-path);}.cls-7{fill:#42240e;}.cls-15,.cls-8{fill:#f2c983;}.cls-9{clip-path:url(#clip-path-2);}.cls-10{fill:#ba2b37;}.cls-11{clip-path:url(#clip-path-3);}.cls-12{fill:#a1111c;}.cls-13{fill:#634413;}.cls-14{clip-path:url(#clip-path-4);}.cls-15{mix-blend-mode:multiply;}.cls-16{mix-blend-mode:screen;}.cls-17{fill:#8c682b;}</style><clipPath id="clip-path" transform="translate(-4 -4)"><path class="cls-1" d="M1102.91,435.94,1081,420.69a37.71,37.71,0,0,0-21.46-6.53H419.65l-22.54,15.7c-17.52,12.21-30.63,28.41-37.84,46.75l-58,147.75a60,60,0,0,0-4.21,22v541.28a62.09,62.09,0,0,0,13.1,37.72l91.66,120.32c14.88,19.53,40.26,31.3,67.47,31.3H1022c27.22,0,52.59-11.77,67.47-31.3l91.66-120.32a62.09,62.09,0,0,0,13.1-37.72V646.38a60,60,0,0,0-4.21-22l-61.63-156.88C1123.58,455.11,1114.73,444.18,1102.91,435.94Z"/></clipPath><clipPath id="clip-path-2" transform="translate(-4 -4)"><path class="cls-2" d="M1102.91,435.94,1081,420.69a37.71,37.71,0,0,0-21.46-6.53H419.65l-22.54,15.7c-17.52,12.21-30.63,28.41-37.84,46.75l-58,147.75a60,60,0,0,0-4.21,22v541.28a62.09,62.09,0,0,0,13.1,37.72l91.66,120.32c14.88,19.53,40.26,31.3,67.47,31.3H1022c27.22,0,52.59-11.77,67.47-31.3l91.66-120.32a62.09,62.09,0,0,0,13.1-37.72V646.38a60,60,0,0,0-4.21-22l-61.63-156.88C1123.58,455.11,1114.73,444.18,1102.91,435.94Z"/></clipPath><clipPath id="clip-path-3" transform="translate(-4 -4)"><path class="cls-2" d="M1050.53,144.47H440.77A44.65,44.65,0,0,0,414.21,153l-10.56,7.87c-8.84,6.59-13.91,16.13-13.91,26.16v82.08c0,10,5.07,19.58,13.91,26.16l2.09,1.56c8.83,6.59,13.91,16.13,13.91,26.16v91.19h652V323c0-10,5.07-19.57,13.91-26.16l2.09-1.56c8.83-6.58,13.91-16.12,13.91-26.16V187c0-10-5.08-19.57-13.91-26.16L1077.09,153A44.7,44.7,0,0,0,1050.53,144.47Z"/></clipPath><clipPath id="clip-path-4" transform="translate(-4 -4)"><rect class="cls-2" x="253.31" y="626.16" width="1044.69" height="577.33"/></clipPath></defs><g class="cls-3"><g id="ƒŒƒCƒ__6" data-name="ƒŒƒCƒ„[_6"><rect class="cls-4" width="1500" height="1500" rx="418.14"/><path class="cls-5" d="M1049.39,144.47H441.9a48,48,0,0,0-28.55,9.15l-8.66,6.46c-9.5,7.07-14.95,17.33-14.95,28.12v79.71c0,10.78,5.45,21,14.95,28.12h0c9.5,7.08,15,17.34,15,28.13v87.39a2.85,2.85,0,0,0,3,2.61h645.92a2.85,2.85,0,0,0,3-2.61V324.16c0-10.79,5.45-21.05,14.95-28.13h0c9.5-7.08,15-17.34,15-28.12V188.2c0-10.79-5.46-21-15-28.12l-8.66-6.46A47.94,47.94,0,0,0,1049.39,144.47Z" transform="translate(-4 -4)"/><path class="cls-1" d="M1102.91,435.94,1081,420.69a37.71,37.71,0,0,0-21.46-6.53H419.65l-22.54,15.7c-17.52,12.21-30.63,28.41-37.84,46.75l-58,147.75a60,60,0,0,0-4.21,22v541.28a62.09,62.09,0,0,0,13.1,37.72l91.66,120.32c14.88,19.53,40.26,31.3,67.47,31.3H1022c27.22,0,52.59-11.77,67.47-31.3l91.66-120.32a62.09,62.09,0,0,0,13.1-37.72V646.38a60,60,0,0,0-4.21-22l-61.63-156.88C1123.58,455.11,1114.73,444.18,1102.91,435.94Z" transform="translate(-4 -4)"/><g class="cls-6"><path class="cls-7" d="M1194.27,635.07,1121,448.55h0l-49.35-34.39H953.9a37.76,37.76,0,0,1,21.46,6.53l40,27.86,73.28,186.52h0v573.12L983.84,1345.7c-14.87,19.53-40.25,31.3-67.46,31.3h149.29l128.6-168.81V635.07Z" transform="translate(-4 -4)"/><rect class="cls-8" x="249.31" y="622.16" width="1044.69" height="577.33"/></g><g class="cls-9"><rect class="cls-10" x="271.24" y="640.95" width="996.84" height="37.58"/><rect class="cls-10" x="271.24" y="1139.71" width="996.84" height="37.58" rx="6.57"/></g><g class="cls-11"><rect class="cls-12" x="381.46" y="280.11" width="725.17" height="30.74"/></g><path class="cls-10" d="M752.32,1114.39c-70.6,3.18-137.38-20.51-184.69-65.52-35.18-33.47-56-76.59-58.8-121.57-3.71-60.49,23.94-117.7,76.47-158.24,39.06-30.14,89.4-48,141.9-50.38,70.61-3.18,137.39,20.51,184.7,65.52,35.19,33.47,56.05,76.6,58.8,121.58,3.71,60.49-23.94,117.7-76.48,158.24C855.16,1094.16,804.82,1112,752.32,1114.39Zm1.43-380.71c-128.93-7.06-235.66,84.37-227.41,194.83,6.81,91.3,92.88,165,199.45,170.88,128.92,7.06,235.65-84.37,227.41-194.83C946.39,813.26,860.31,739.52,753.75,733.68Z" transform="translate(-4 -4)"/><path class="cls-13" d="M742.09,1059.73c1.07-2,1.87-4.26,2.94-6.65.12-.31.26-.61.38-.92l.33-1c.21-.64.44-1.29.67-2s.46-1.33.7-2,.4-1.39.62-2.1.39-1.43.6-2.16.44-1.46.57-2.23c.29-1.52.64-3.07,1-4.65s.45-3.24.69-4.92.28-3.4.42-5.15a95.56,95.56,0,0,0-1.61-22.5,162,162,0,0,0-6.81-24.8c-3.05-8.56-6.77-17.37-10.78-26.37s-8.38-18.2-12.65-27.55c-2.13-4.67-4.27-9.39-6.33-14.14-1-2.39-2-4.75-3-7.15l-1.47-3.59c-.48-1.22-1-2.45-1.44-3.66-1-2.48-1.8-4.81-2.66-7.15l-.32-.87-.16-.44-.11-.32-.08-.25-.62-2-1.44-4.61c-.29-.95-.49-1.9-.69-2.86-.31-1.44-.73-2.85-.95-4.29-.47-2.62-1-5.21-1.22-7.81-.14-1.29-.3-2.58-.42-3.87s-.13-2.57-.19-3.84c-.19-2.55,0-5.07,0-7.56A101.76,101.76,0,0,1,699.55,836c.22-1.15.41-2.31.66-3.44s.54-2.25.8-3.36c.14-.56.27-1.11.41-1.66s.31-1.09.47-1.63c.34-1.15.68-2.3,1-3.43s.66-2,1-3,.68-2,1.07-2.94c.79-2,1.56-3.93,2.42-5.8a117.94,117.94,0,0,1,11.09-19.5c1-1.37,1.9-2.69,2.89-3.93s1.89-2.44,2.82-3.58c1.84-2.26,3.68-4.25,5.31-6a103.25,103.25,0,0,1,8.3-7.83c1.49-1.24,2.52-2,3-2.34-70.69.35-127.9,67.25-127.9,149.73,0,81.56,55.94,147.89,125.53,149.7C739.46,1065,740.75,1062.57,742.09,1059.73Z" transform="translate(-4 -4)"/><path class="cls-13" d="M741.35,767.54l.28.17s-.54,1.2-1.49,3.45-2.3,5.53-3.81,9.71c-.78,2.08-1.58,4.4-2.41,6.91-.42,1.25-.84,2.55-1.24,3.91s-.82,2.76-1.24,4.2a173.42,173.42,0,0,0-4.36,19.37c-.34,1.76-.52,3.57-.8,5.39s-.4,3.7-.61,5.58q-.1,1.41-.21,2.85c0,.48-.07,1-.1,1.44L725.3,832c0,1-.08,1.94-.12,2.92s0,2,0,3c0,2,.09,4,.14,6,0,1,.12,2,.21,3.06s.12,2,.24,3.06.25,2,.38,3.07c.07.51.1,1,.18,1.54s.17,1,.26,1.54l.51,3.1c.22,1,.44,2.06.65,3.1.38,2.06,1,4.09,1.51,6.15.26,1.06.6,2.1.94,3.14s.63,2.1,1,3.14.76,2.06,1.15,3.09l.56,1.55.07.2v0l0,.08.17.43.34.87c.46,1.16.93,2.32,1.39,3.49l1.38,3.38c.45,1.12.9,2.24,1.36,3.36s1,2.29,1.43,3.43c.93,2.3,1.92,4.61,2.88,6.93q3,7,5.92,14c4,9.44,7.86,19,11.34,28.73a240.29,240.29,0,0,1,8.57,29.22,134.57,134.57,0,0,1,3.26,28.71,91.37,91.37,0,0,1-3.63,26c-.64,2-1.24,3.88-1.93,5.72l-2.22,5.33c-.84,1.7-1.66,3.34-2.49,4.92-.38.8-.88,1.54-1.32,2.29s-.9,1.47-1.34,2.19-.83,1.44-1.32,2.1l-1.41,2-1.37,1.88-.66.91c-.23.29-.48.58-.71.86-1.89,2.26-3.56,4.33-5.33,6s-3.25,3.28-4.62,4.56c70.31-.84,127.1-67.55,127.1-149.72C869.8,834.57,812.29,767.54,741.35,767.54Z" transform="translate(-4 -4)"/><g class="cls-14"><path class="cls-15" d="M1190.06,624.36l-61.63-156.89c-4.86-12.36-13.7-23.29-25.52-31.53L1081,420.69a37.71,37.71,0,0,0-21.46-6.53H953.9a37.76,37.76,0,0,1,21.46,6.53l21.89,15.25c11.81,8.24,20.66,19.17,25.52,31.53l61.63,156.89a60.23,60.23,0,0,1,4.21,22v541.29a62.15,62.15,0,0,1-13.1,37.72L983.84,1345.7c-14.87,19.53-40.25,31.3-67.46,31.3H1022c27.22,0,52.59-11.77,67.47-31.3l91.66-120.32a62.09,62.09,0,0,0,13.1-37.72V646.37A60,60,0,0,0,1190.06,624.36Z" transform="translate(-4 -4)"/></g><g class="cls-16"><polygon class="cls-17" points="400.41 616.96 340.27 599.62 386.61 481.64 446.75 498.98 400.41 616.96"/><rect class="cls-17" x="326.09" y="686.19" width="63.45" height="497.47"/></g></g></g></svg>