<svg xmlns="http://www.w3.org/2000/svg" viewBox="0 0 1500 1500"><defs><style>.cls-1{fill:#fff;}.cls-2{fill:#0081bf;}.cls-3{fill:#e6e6e6;}.cls-4{fill:#f1f2f2;}.cls-5{fill:#0075b0;}.cls-6{fill:#414042;}.cls-7{fill:#3a393b;}.cls-8{fill:#bcbec0;}.cls-9{fill:#808285;}</style></defs><g id="ƒŒƒCƒ__6" data-name="ƒŒƒCƒ„[_6"><rect class="cls-1" width="1500" height="1500" rx="418.14"/><rect class="cls-2" x="480.52" y="347.04" width="258.8" height="219.5"/><path class="cls-2" d="M789.86,1319c30.77,0,60-10.56,80-29s28.69-42.73,23.83-66.61C876,1136.57,853.75,1006,853.75,899.37c0-93.55,17.12-177,33.25-234.92,14.5-52-10.89-106-65-138.06l-78.69-46.65H484.68L406,526.39c-54.1,32.08-79.49,86-65,138.06,16.13,57.9,33.24,141.37,33.24,234.92,0,106.67-22.24,237.2-39.92,324.07-4.86,23.88,3.85,48.22,23.83,66.61s49.22,29,80,29Z" transform="translate(-4 -4)"/><path class="cls-3" d="M468.89,184H751a4.42,4.42,0,0,1,4.42,4.42V456.79a0,0,0,0,1,0,0H464.47a0,0,0,0,1,0,0V188.42a4.42,4.42,0,0,1,4.42-4.42Z"/><path class="cls-4" d="M671.31,832.17c-32.42,0-26.16,10.93-60.77,11.52s-26.36-11.52-60.78-11.52c-33.57,0-60.78,19.39-60.78,59.27,0,35.81,23.93,58.13,26.48,67.12,0,0,9.87,91.7,46.24,132.14,2.6,2.89,8.55-2.15,9.85-5.54,0,0,8.57-101.42,39-101.42s39,101.42,39,101.42c1.3,3.39,7.25,8.43,9.85,5.54,36.37-40.44,46.24-132.14,46.24-132.14,2.55-9,26.48-31.31,26.48-67.12C732.09,851.56,704.88,832.17,671.31,832.17Z" transform="translate(-4 -4)"/><path class="cls-1" d="M732.84,852.4a213.51,213.51,0,0,1,27.41,47,254.61,254.61,0,0,1-40-41,214,214,0,0,1-27.41-47A254.61,254.61,0,0,1,732.84,852.4Z" transform="translate(-4 -4)"/><path class="cls-1" d="M730.34,860.3a346,346,0,0,1-59.78,21.54,299.83,299.83,0,0,1,52.22-31.41,346,346,0,0,1,59.78-21.54A299.83,299.83,0,0,1,730.34,860.3Z" transform="translate(-4 -4)"/><path class="cls-1" d="M730.31,856.1a109.64,109.64,0,0,1-12.07,25.56,98.83,98.83,0,0,1,4.57-27,109.9,109.9,0,0,1,12.08-25.56A99.14,99.14,0,0,1,730.31,856.1Z" transform="translate(-4 -4)"/><path class="cls-1" d="M725.63,858.31a185.74,185.74,0,0,1-32.53-9.49,198.84,198.84,0,0,1,34.39,3.6A185.4,185.4,0,0,1,760,861.91,198.84,198.84,0,0,1,725.63,858.31Z" transform="translate(-4 -4)"/><path class="cls-5" d="M333.76,1227.61c-3.09,22.52,5.57,45.12,24.39,62.44,20,18.39,49.22,29,80,29H789.86c30.77,0,60-10.56,80-29s28.69-42.73,23.83-66.61c-15.09-74.16-33.46-180.08-38.53-275.86C743.76,1065.17,570.68,1195.63,333.76,1227.61Z" transform="translate(-4 -4)"/><path class="cls-6" d="M1228.94,620.05l-187.08-78.28-29.67,70.91c-4.82,11.53,24.65,93.16,10.62,126.7l-22.31,53.31,78.77,33,22.3-53.31c14-33.54,92.87-69.85,97.69-81.38Z" transform="translate(-4 -4)"/><path class="cls-7" d="M1224.46,630.76c-55.24-26.29-137.77-60.14-195-59.3l-17.25,41.22a8.73,8.73,0,0,0-.31,1.76l79.5,33.27c19.69,8.24,55.23,30,24,65.51-13.37,15.22-44.13,46.37-46.9,84.42-.47,6.51,11.3,12.87,15.28,17.24l17.8-42.54c14-33.54,92.87-69.85,97.69-81.38Z" transform="translate(-4 -4)"/><path class="cls-2" d="M924.63,1219.53A51.88,51.88,0,0,1,897,1248.2a50.4,50.4,0,0,1-39.43.29l-2.53-1.06a50.38,50.38,0,0,1-27.47-28.28,51.9,51.9,0,0,1,1-39.83L1006.2,779.08,1085,812Z" transform="translate(-4 -4)"/><rect class="cls-5" x="954.73" y="529.87" width="355.78" height="115.4" rx="5" transform="translate(310.61 -395.67) rotate(22.71)"/><rect class="cls-8" x="988.52" y="551.67" width="288.18" height="71.81" transform="translate(310.61 -395.67) rotate(22.71)"/><rect class="cls-9" x="994.51" y="569.89" width="288.18" height="6.77" transform="translate(305.55 -399.09) rotate(22.71)"/><rect class="cls-9" x="983.56" y="596.05" width="288.18" height="6.77" transform="translate(314.8 -392.84) rotate(22.71)"/><path class="cls-5" d="M924.63,1219.53,1085,812l-16.47-14.4c-28,75.69-139.36,380.09-239.6,380.87l-.36.81a51.9,51.9,0,0,0-1,39.83A50.38,50.38,0,0,0,855,1247.43l2.53,1.06a50.44,50.44,0,0,0,39.43-.28A51.93,51.93,0,0,0,924.63,1219.53Z" transform="translate(-4 -4)"/><rect class="cls-7" x="994" y="773.71" width="104.2" height="41.21" rx="1.33" transform="translate(383.71 -346.25) rotate(22.71)"/></g></svg>