<svg id="Ñëîé_1" data-name="Ñëîé 1" xmlns="http://www.w3.org/2000/svg" xmlns:xlink="http://www.w3.org/1999/xlink" viewBox="0 0 65 65"><defs><style>.cls-1{fill:url(#linear-gradient);}.cls-2{fill:#fff;}</style><linearGradient id="linear-gradient" x1="83" y1="38.5" x2="148" y2="38.5" gradientUnits="userSpaceOnUse"><stop offset="0" stop-color="#ffab15"/><stop offset="1" stop-color="#ffdc2a"/></linearGradient></defs><path class="cls-1" d="M148,38A32.5,32.5,0,1,1,115,6,32.5,32.5,0,0,1,148,38Z" transform="translate(-83 -6)"/><path class="cls-2" d="M115.5,46.59a5,5,0,1,0,5,5A5,5,0,0,0,115.5,46.59Z" transform="translate(-83 -6)"/><path class="cls-2" d="M119.66,39.63c.47-9.5.28-5.42.83-18.42,0-6.54-10-6.52-10,0,.55,13,.36,8.92.83,18.42C111.57,44.9,119.43,44.91,119.66,39.63Z" transform="translate(-83 -6)"/></svg>