<svg xmlns="http://www.w3.org/2000/svg" viewBox="0 0 127.07 169.94"><defs><style>.cls-1{fill:#fff;}</style></defs><g id="ƒŒƒCƒ__6" data-name="ƒŒƒCƒ„[_6"><path class="cls-1" d="M1776.28,136.28H1669.37a4.09,4.09,0,0,0-4.08,4.39l7.83,107.05a15.33,15.33,0,0,0,15.28,14h68.85a15.33,15.33,0,0,0,15.28-14l7.83-107A4.09,4.09,0,0,0,1776.28,136.28Zm-81.09,107.56h-.12a3.77,3.77,0,0,1-3.76-3.65l-2.81-87.7a3.76,3.76,0,1,1,7.52-.24l2.81,87.7A3.77,3.77,0,0,1,1695.19,243.84Zm31.4-3.77a3.77,3.77,0,1,1-7.53,0v-87.7a3.77,3.77,0,0,1,7.53,0Zm27.75.11a3.77,3.77,0,0,1-3.76,3.66h-.11a3.76,3.76,0,0,1-3.65-3.87l2.5-87.7a3.8,3.8,0,0,1,3.87-3.66,3.77,3.77,0,0,1,3.66,3.87Z" transform="translate(-1659.32 -91.75)"/><path class="cls-1" d="M1775,111.08h-17.18v-3.5A15.85,15.85,0,0,0,1742,91.75h-36.69a15.85,15.85,0,0,0-15.83,15.83v3.5h-18.69a11.43,11.43,0,0,0-11.42,11.42v2.15a4.1,4.1,0,0,0,4.1,4.1H1782.3a4.09,4.09,0,0,0,4.09-4.1V122.5A11.42,11.42,0,0,0,1775,111.08Zm-26.59,0h-49.55v-3.5a6.44,6.44,0,0,1,6.43-6.43H1742a6.44,6.44,0,0,1,6.43,6.43Z" transform="translate(-1659.32 -91.75)"/></g></svg>