<svg xmlns="http://www.w3.org/2000/svg" xmlns:xlink="http://www.w3.org/1999/xlink" viewBox="0 0 1500 1500"><defs><style>.cls-1{fill:#fff;}.cls-2{opacity:0.22;}.cls-3{fill:url(#linear-gradient);}.cls-4{fill:url(#linear-gradient-2);}.cls-5{fill:url(#linear-gradient-3);}.cls-6{fill:url(#linear-gradient-4);}.cls-7{fill:url(#linear-gradient-5);}</style><linearGradient id="linear-gradient" x1="490.93" y1="276.73" x2="1615.58" y2="276.73" gradientUnits="userSpaceOnUse"><stop offset="0" stop-color="#ff3736"/><stop offset="1" stop-color="#ff7715"/></linearGradient><linearGradient id="linear-gradient-2" x1="1410.61" y1="846.19" x2="1608.38" y2="846.19" xlink:href="#linear-gradient"/><linearGradient id="linear-gradient-3" x1="1109.48" y1="794.54" x2="1307.25" y2="794.54" xlink:href="#linear-gradient"/><linearGradient id="linear-gradient-4" x1="507.24" y1="678.32" x2="704.99" y2="678.32" xlink:href="#linear-gradient"/><linearGradient id="linear-gradient-5" x1="808.36" y1="727.85" x2="1006.12" y2="727.85" xlink:href="#linear-gradient"/></defs><g id="Layer_1" data-name="Layer 1"><rect class="cls-1" width="1500" height="1500" rx="336.29"/><g class="cls-2"><polygon class="cls-1" points="706.46 164.06 827.17 413.57 880.63 413.57 766.15 164.06 706.46 164.06"/></g><g class="cls-2"><polygon class="cls-1" points="805.8 164.39 926.5 413.89 1028.23 413.9 913.75 164.39 805.8 164.39"/></g><path class="cls-3" d="M1563.9,539.94H1342.64c-28.55,0-51.69-21.12-51.69-47.22s23.14-47.23,51.69-47.23h96.5L1140.83,172.9,903.08,390.11c-20.19,18.45-52.89,18.45-73.08,0l-323.92-296c-20.19-18.45-20.19-48.33,0-66.78a55.19,55.19,0,0,1,73.08,0L866.54,290,1104.28,72.74c20.19-18.44,52.9-18.44,73.09,0l334.85,306V290.5c0-26.1,23.14-47.22,51.68-47.22s51.68,21.12,51.68,47.22V492.72C1615.58,518.82,1592.44,539.94,1563.9,539.94Z" transform="translate(-322.71 246.93)"/><path class="cls-4" d="M1443.55,706.94h131.9c18.18,0,32.93,16.66,32.93,37.2V948.22c0,20.56-14.75,37.22-32.93,37.22h-131.9c-18.19,0-32.94-16.66-32.94-37.22V744.14C1410.61,723.6,1425.36,706.94,1443.55,706.94Z" transform="translate(-322.71 246.93)"/><path class="cls-5" d="M1142.42,603.64h131.9c18.18,0,32.93,19.25,32.93,43V942.45c0,23.74-14.75,43-32.93,43h-131.9c-18.19,0-32.94-19.25-32.94-43V646.61C1109.48,622.89,1124.23,603.64,1142.42,603.64Z" transform="translate(-322.71 246.93)"/><path class="cls-6" d="M540.17,371.21H672.06c18.19,0,32.93,16.51,32.93,36.87V948.55c0,20.37-14.74,36.89-32.93,36.89H540.17c-18.19,0-32.93-16.52-32.93-36.89V408.08C507.24,387.72,522,371.21,540.17,371.21Z" transform="translate(-322.71 246.93)"/><path class="cls-7" d="M841.29,470.26h131.9c18.19,0,32.93,17.71,32.93,39.55V945.88c0,21.85-14.74,39.56-32.93,39.56H841.29c-18.18,0-32.93-17.71-32.93-39.56V509.81C808.36,488,823.11,470.26,841.29,470.26Z" transform="translate(-322.71 246.93)"/></g></svg>