<svg xmlns="http://www.w3.org/2000/svg" xmlns:xlink="http://www.w3.org/1999/xlink" viewBox="0 0 639.24 605.3"><defs><style>.cls-1{isolation:isolate;}.cls-12,.cls-2,.cls-3{fill:#d1d3d4;}.cls-2{opacity:0.49;}.cls-12,.cls-14,.cls-2,.cls-8,.cls-9{mix-blend-mode:multiply;}.cls-4{fill:#fff;}.cls-5{fill:url(#linear-gradient);}.cls-6{fill:#414042;}.cls-7{fill:#546885;}.cls-8{fill:#f1f2f2;}.cls-9{fill:#e6e7e8;}.cls-10{fill:#b2bdcf;}.cls-11{opacity:0.81;fill:url(#linear-gradient-2);}.cls-13{fill:url(#linear-gradient-3);}</style><linearGradient id="linear-gradient" x1="313.25" y1="329.14" x2="862.04" y2="329.14" gradientUnits="userSpaceOnUse"><stop offset="0" stop-color="#ed1c24"/><stop offset="1" stop-color="#f26522"/></linearGradient><linearGradient id="linear-gradient-2" x1="219.68" y1="475.34" x2="274.65" y2="475.34" xlink:href="#linear-gradient"/><linearGradient id="linear-gradient-3" x1="243.82" y1="538.88" x2="455.34" y2="538.88" xlink:href="#linear-gradient"/></defs><g class="cls-1"><g id="Ñëîé_1" data-name="Ñëîé 1"><path class="cls-2" d="M824.64,273.59H817v-34a12.05,12.05,0,0,0-12-12h-6a12,12,0,0,0-12,12v34H720.35v-34a12,12,0,0,0-12-12h-6a12,12,0,0,0-12,12v34H623.69v-34a12.07,12.07,0,0,0-12-12h-6a12,12,0,0,0-12,12v34H527v-34a12,12,0,0,0-12-12h-6a12,12,0,0,0-12,12v34H430.36v-34a12.05,12.05,0,0,0-12-12h-6a12,12,0,0,0-12,12v34h-7.62A58.42,58.42,0,0,0,334.27,332V753.45a58.41,58.41,0,0,0,58.42,58.42h432a58.42,58.42,0,0,0,58.42-58.42V332A58.43,58.43,0,0,0,824.64,273.59Z" transform="translate(-243.82 -206.58)"/><rect class="cls-3" x="69.43" y="56.5" width="548.79" height="527.77" rx="58.42"/><rect class="cls-4" x="69.43" y="46" width="548.79" height="527.77" rx="58.42"/><path class="cls-5" d="M862,311v94.72H313.25V311a58.43,58.43,0,0,1,58.42-58.42h432A58.42,58.42,0,0,1,862,311Z" transform="translate(-243.82 -206.58)"/><circle class="cls-6" cx="394.32" cy="286.14" r="16.53" transform="translate(-284.38 -140.08) rotate(-9.17)"/><rect class="cls-7" x="135.47" width="30.05" height="90.34" rx="12.02"/><path class="cls-8" d="M409.34,218.6v66.3a12,12,0,0,1-12,12h-3V206.58h3A12,12,0,0,1,409.34,218.6Z" transform="translate(-243.82 -206.58)"/><circle class="cls-6" cx="490.98" cy="286.14" r="16.53" transform="translate(-269.55 -156.97) rotate(-5.64)"/><rect class="cls-7" x="232.14" width="30.05" height="90.34" rx="12.02"/><path class="cls-8" d="M506,218.6v66.3a12,12,0,0,1-12,12h-3V206.58h3A12,12,0,0,1,506,218.6Z" transform="translate(-243.82 -206.58)"/><circle class="cls-6" cx="587.65" cy="286.14" r="16.53" transform="translate(-274.27 -132.93) rotate(-6.99)"/><rect class="cls-7" x="328.8" width="30.05" height="90.34" rx="12.02"/><path class="cls-8" d="M602.67,218.6v66.3a12,12,0,0,1-12,12h-3V206.58h3A12,12,0,0,1,602.67,218.6Z" transform="translate(-243.82 -206.58)"/><circle class="cls-6" cx="684.31" cy="286.14" r="16.53" transform="matrix(0.87, -0.49, 0.49, 0.87, -295.81, 169.03)"/><rect class="cls-7" x="425.47" width="30.05" height="90.34" rx="12.02"/><path class="cls-8" d="M699.34,218.6v66.3a12,12,0,0,1-12,12h-3V206.58h3A12,12,0,0,1,699.34,218.6Z" transform="translate(-243.82 -206.58)"/><circle class="cls-6" cx="780.97" cy="286.14" r="16.53" transform="translate(-265.44 -138.68) rotate(-4.91)"/><rect class="cls-7" x="522.13" width="30.05" height="90.34" rx="12.02"/><path class="cls-8" d="M796,218.6v66.3a12,12,0,0,1-12,12h-3V206.58h3A12,12,0,0,1,796,218.6Z" transform="translate(-243.82 -206.58)"/><rect class="cls-9" x="69.43" y="189.94" width="548.79" height="9.19"/><rect class="cls-9" x="69.43" y="199.13" width="548.79" height="9.19"/><rect class="cls-10" x="123.02" y="252.39" width="54.97" height="54.97" rx="15.55"/><rect class="cls-10" x="219.68" y="252.39" width="54.97" height="54.97" rx="15.55"/><rect class="cls-10" x="316.34" y="252.39" width="54.97" height="54.97" rx="15.55"/><rect class="cls-10" x="413.01" y="252.39" width="54.97" height="54.97" rx="15.55"/><rect class="cls-10" x="509.67" y="252.39" width="54.97" height="54.97" rx="15.55"/><rect class="cls-10" x="123.02" y="350.13" width="54.97" height="54.97" rx="15.55"/><rect class="cls-10" x="219.68" y="350.13" width="54.97" height="54.97" rx="15.55"/><rect class="cls-10" x="316.34" y="350.13" width="54.97" height="54.97" rx="15.55"/><rect class="cls-10" x="413.01" y="350.13" width="54.97" height="54.97" rx="15.55"/><rect class="cls-10" x="509.67" y="350.13" width="54.97" height="54.97" rx="15.55"/><rect class="cls-10" x="123.02" y="447.86" width="54.97" height="54.97" rx="15.55"/><rect class="cls-11" x="219.68" y="447.86" width="54.97" height="54.97" rx="15.55"/><rect class="cls-10" x="316.34" y="447.86" width="54.97" height="54.97" rx="15.55"/><rect class="cls-10" x="413.01" y="447.86" width="54.97" height="54.97" rx="15.55"/><rect class="cls-10" x="509.67" y="447.86" width="54.97" height="54.97" rx="15.55"/><path class="cls-12" d="M463.58,648.66,451,593.92a106.15,106.15,0,1,0-47.62,45.42l52.4,16.55A6.13,6.13,0,0,0,463.58,648.66Z" transform="translate(-243.82 -206.58)"/><path class="cls-13" d="M455.18,640.25l-12.61-54.74A106.07,106.07,0,1,0,395,630.94l52.39,16.54A6.14,6.14,0,0,0,455.18,640.25Z" transform="translate(-243.82 -206.58)"/><g class="cls-14"><path class="cls-3" d="M343.94,555.08l-3.32-49.62q-.93-14.49-.93-20.82,0-8.59,4.51-13.41a15.47,15.47,0,0,1,11.86-4.82q8.91,0,11.91,6.16t3,17.77a136.47,136.47,0,0,1-.72,13.88l-4.46,51.07q-.72,9.12-3.1,14a8.15,8.15,0,0,1-7.88,4.87c-3.72,0-6.32-1.57-7.76-4.71S344.56,561.5,343.94,555.08Z" transform="translate(-243.82 -206.58)"/><path class="cls-3" d="M355.44,616.55a16.36,16.36,0,0,1-11-4.09q-4.71-4.1-4.71-11.45a14.86,14.86,0,0,1,4.51-10.93,15,15,0,0,1,11-4.51,15.35,15.35,0,0,1,11.13,4.51A14.69,14.69,0,0,1,371,601q0,7.25-4.66,11.39A15.87,15.87,0,0,1,355.44,616.55Z" transform="translate(-243.82 -206.58)"/></g><path class="cls-4" d="M338.68,549.83l-3.31-49.62q-.93-14.5-.93-20.82,0-8.59,4.5-13.42a15.49,15.49,0,0,1,11.86-4.81q8.91,0,11.92,6.16t3,17.76A133.88,133.88,0,0,1,365,499L360.54,550q-.72,9.12-3.11,14a8.13,8.13,0,0,1-7.87,4.87q-5.6,0-7.77-4.72T338.68,549.83Z" transform="translate(-243.82 -206.58)"/><path class="cls-4" d="M350.18,611.29a16.28,16.28,0,0,1-11-4.09q-4.71-4.1-4.71-11.45A15.38,15.38,0,0,1,350,580.32a15.34,15.34,0,0,1,11.14,4.51,14.7,14.7,0,0,1,4.61,10.92q0,7.26-4.66,11.4A15.89,15.89,0,0,1,350.18,611.29Z" transform="translate(-243.82 -206.58)"/></g></g></svg>