<svg id="Layer_1" data-name="Layer 1" xmlns="http://www.w3.org/2000/svg" viewBox="0 0 3085.67 4725"><defs><style>.cls-1{fill:#1a1a1a;}</style></defs><path class="cls-1" d="M1988.69,1739.76c-58.5-89.64-33.25-209.73,56.39-268.22L2508.69,1169c89.64-58.49,209.72-33.24,268.22,56.4l167.15,256.16-788.22,514.34Z" transform="translate(-1957.16 -1137.5)"/><path class="cls-1" d="M3395.25,3902.43c2.17,1.34,504.88,309,772.44,472.81,65.32,40,147.78-13.81,137.49-89.71-42.15-310.85-121.35-894.93-121.7-897.45-38.26-58.63-1096.71-1687.81-1109.72-1707.75l-788.22,514.35C2342.17,2281.47,3244.49,3671.39,3395.25,3902.43Zm202.66-130,385-251.22a39.15,39.15,0,0,1,48.7,31.43l88.46,533.85c5.55,33.49-31.51,57.73-60,39.14l-453-296A39.16,39.16,0,0,1,3597.91,3772.47Z" transform="translate(-1957.16 -1137.5)"/><path class="cls-1" d="M4318.82,4469.12c389.66,62.24,580.27,230,544.5,335.44-13,37.56-51.81,68.63-85.95,89-83.28,50.26-235.11,96.48-450.81,88.92-676-27.93-1196.54-16.2-1444.25.37-361.24,24.14-675.42,193.39-696.8,439.4-9.7,108.91,41,204.51,123.65,275.32,139.33,118.61,353.35,163.08,536.89,164.91,119.25,1.34,731-52.25,1007.5-88.54-266.21-32.57-633-59.6-901.69-77.17-320.79-19.5-517.49-153.63-520.26-232.72-.86-24.55,20.7-49,39.2-65.13,44.6-39.12,111.18-67,168.29-84,96.64-28.85,164-36.64,305.72-37.13,217.08-.74,335,2.8,519.91-.24,288.27-4.87,816.63-19,905.88-26.29,149.06-12.09,303.32-50.27,431.47-120.91,337.27-186.67,310.6-502.27-19.92-625.29C4640.1,4452.89,4468.8,4443.88,4318.82,4469.12Z" transform="translate(-1957.16 -1137.5)"/></svg>