<svg xmlns="http://www.w3.org/2000/svg" viewBox="0 0 144.23 71.22"><defs><style>.cls-1{fill:#ffbf0d;}.cls-2{fill:#f3aa06;}.cls-3{fill:#fece40;}.cls-4{fill:#fff;}</style></defs><g id="Layer_3" data-name="Layer 3"><path class="cls-1" d="M55.46,0h79.62a9.16,9.16,0,0,1,9.16,9.16V62.07a9.15,9.15,0,0,1-9.15,9.15H55.45a9.15,9.15,0,0,1-9.15-9.15V9.16A9.16,9.16,0,0,1,55.46,0Z"/><path class="cls-1" d="M55.46,0h79.62a9.16,9.16,0,0,1,9.16,9.16V62.07a9.15,9.15,0,0,1-9.15,9.15H55.45a9.15,9.15,0,0,1-9.15-9.15V9.16A9.16,9.16,0,0,1,55.46,0Z"/><path class="cls-2" d="M529,248.53H444.86a6.67,6.67,0,0,0-6.65,6.68v2.3a2.49,2.49,0,0,0,.94,1.94l75.69,59.77a2.52,2.52,0,0,0,1.54.53H529a6.66,6.66,0,0,0,6.64-6.67V255.21A6.66,6.66,0,0,0,529,248.53Z" transform="translate(-391.42 -248.53)"/><path class="cls-3" d="M488.1,292.06l46.49-32.34a2.45,2.45,0,0,0,1.06-2h0a9.16,9.16,0,0,0-9.15-9.16H446.88a9.16,9.16,0,0,0-9.16,9.16h0a2.46,2.46,0,0,0,1.07,2l46.48,32.34A2.48,2.48,0,0,0,488.1,292.06Z" transform="translate(-391.42 -248.53)"/><path class="cls-4" d="M391.42,273v-1.34a8,8,0,0,1,8-8h8a8,8,0,0,1,8,8V273Z" transform="translate(-391.42 -248.53)"/><path class="cls-4" d="M398.11,254.25a5.35,5.35,0,1,0,5.35-5.35A5.35,5.35,0,0,0,398.11,254.25Z" transform="translate(-391.42 -248.53)"/></g></svg>