<svg xmlns="http://www.w3.org/2000/svg" viewBox="0 0 1500 1500"><defs><style>.cls-1{fill:#fff;}.cls-2{fill:#d5d8db;}.cls-3{fill:#f9d128;}.cls-4{fill:#f7f7f7;}.cls-5{fill:#f4ac2c;}.cls-6{fill:#222a33;}</style></defs><g id="ƒŒƒCƒ__6" data-name="ƒŒƒCƒ„[_6"><rect class="cls-1" width="1500" height="1500" rx="418.14"/><path class="cls-2" d="M1164.63,309.8h-458a23,23,0,0,0-20.49,12.58L422.38,843.45a23,23,0,0,0,20.49,33.33l156.25-.06a23,23,0,0,1,20.48,33.33L423.08,1297.6c-11.81,23.29,18.24,45.08,36.71,26.62l718.88-718.64c14.48-14.47,4.19-39.24-16.29-39.19l-97.79.23c-18.92,0-29.77-21.53-18.45-36.69L1183,346.48A23,23,0,0,0,1164.63,309.8Z" transform="translate(-4 -4)"/><polygon class="cls-3" points="908.89 540.48 1100.7 283.45 648.3 283.45 380.9 811.7 611.93 811.61 388.74 1251.76 1100.7 540.04 908.89 540.48"/><path class="cls-4" d="M748.51,307.31,501,743.58a13.3,13.3,0,0,0,11.44,19.86l175.05,1.65a13.3,13.3,0,0,1,11.11,20.41L550.52,1019.29c-8.89,14-30.3,2.35-23.3-12.72l79.93-172.06a13.29,13.29,0,0,0-12.06-18.89l-188.55.07a13.29,13.29,0,0,1-11.87-19.3L648.61,294.74a13.31,13.31,0,0,1,11.87-7.29h76.46A13.3,13.3,0,0,1,748.51,307.31Z" transform="translate(-4 -4)"/><path class="cls-5" d="M1082.88,287.45h-84a10.94,10.94,0,0,0-9.29,5.17l-178,286.93a10.94,10.94,0,0,0,9.29,16.7H938.87A10.93,10.93,0,0,1,947,614.49l-322,358c-9.38,10.43,5.54,24.91,15.69,15.21L1085,562.88a10.94,10.94,0,0,0-7.56-18.84H934.71A10.93,10.93,0,0,1,926,526.56l165.67-221.63A10.93,10.93,0,0,0,1082.88,287.45Z" transform="translate(-4 -4)"/><path class="cls-6" d="M379.84,1223,555.37,876.88A28.84,28.84,0,0,0,529.64,835l-137.12,0a28.83,28.83,0,0,1-25.73-41.85L624.61,283.9a28.84,28.84,0,0,1,25.73-15.81H1093c23.72,0,37.29,27.05,23.1,46.07L993.25,478.8c-14.21,19-.58,46.13,23.18,46.08l71.81-.17c25.72-.06,38.64,31,20.45,49.23L425.94,1256.46C402.74,1279.65,365,1252.29,379.84,1223Zm275.42-426.8-167.85,331L1051.3,563.53,867,564,1058.9,306.82H672L424.2,796.32Z" transform="translate(-4 -4)"/></g></svg>