<svg id="Ñëîé_1" data-name="Ñëîé 1" xmlns="http://www.w3.org/2000/svg" viewBox="0 0 36.12 36.12"><defs><style>.cls-1{fill:#c00;}</style></defs><path class="cls-1" d="M99.55,35.36l9.58-9.58a4.91,4.91,0,0,0,0-6.93l-.12-.12a4.91,4.91,0,0,0-6.93,0L92.5,28.31l-9.58-9.58a4.91,4.91,0,0,0-6.93,0l-.12.12a4.92,4.92,0,0,0,0,6.93l9.58,9.58-9.58,9.58a4.92,4.92,0,0,0,0,6.93L76,52a4.93,4.93,0,0,0,6.93,0l9.58-9.58L102.08,52A4.93,4.93,0,0,0,109,52l.12-.12a4.91,4.91,0,0,0,0-6.93Z" transform="translate(-74.44 -17.3)"/></svg>