<svg id="Layer_1" data-name="Layer 1" xmlns="http://www.w3.org/2000/svg" xmlns:xlink="http://www.w3.org/1999/xlink" viewBox="0 0 192.72 355.59"><defs><style>.cls-1{fill:url(#linear-gradient);}</style><linearGradient id="linear-gradient" x1="2060.27" y1="1660.1" x2="2051.04" y2="2029.54" gradientUnits="userSpaceOnUse"><stop offset="0" stop-color="#71a5f3"/><stop offset="0.1" stop-color="#62a4f4"/><stop offset="0.21" stop-color="#5d9cf0"/><stop offset="0.32" stop-color="#5893ee"/><stop offset="0.43" stop-color="#538be9"/><stop offset="0.56" stop-color="#4f84e5"/><stop offset="0.67" stop-color="#487ae2"/><stop offset="0.9" stop-color="#4364d5"/><stop offset="0.99" stop-color="#385bab"/></linearGradient></defs><path class="cls-1" d="M2120.52,1667.81l-2.26-.14c-4.25-.26-8.5-.45-12.93-.47a111.83,111.83,0,0,0-16.14,1c-14,1.85-27.83,6.86-39.15,15.65a73.8,73.8,0,0,0-23.38,31.83,106.9,106.9,0,0,0-6.88,36.16c0,.93,0,1.86,0,2.79l-.57,23.47-.57,23.46-27.92-.1-27.92-.13q-.29,12-.58,24-.5,19.95-1,39.92l15.58.06,15.78.07,12.14,0,12.33.06-1.41,57.94q-1.17,48.3-2.35,96.58a218.45,218.45,0,0,0,34.19,2.83,222.1,222.1,0,0,0,34.44-2.54q.72-29,1.42-58,.47-19.32.94-38.63.7-29,1.42-58l14.19,0,13.89.07c3.74,0,7.47,0,11.2,0l11.82.06q5.73-31.92,11.39-63.84l-18.51-.07-18.69-.08-11.61,0-12.13-.06q.18-7.32.35-14.65t.37-14.66q.11-4.87.23-9.77c0-.5,0-1,0-1.52a50.47,50.47,0,0,1,1.3-10.6c1.61-6.8,5.25-13.31,10.91-17.56,6.14-4.74,13.94-6.64,21.49-6.93l2.63,0c3.44,0,6.89,0,10.68,0l3,0,3.11,0,3.23,0,2.94,0h5.14q.14-5.09.25-10.17l.57-23.72q.26-10.17.51-20.34C2143.12,1670.05,2132.21,1668.69,2120.52,1667.81Z" transform="translate(-1961.21 -1667.19)"/></svg>