<svg id="Ñëîé_1" data-name="Ñëîé 1" xmlns="http://www.w3.org/2000/svg" xmlns:xlink="http://www.w3.org/1999/xlink" viewBox="0 0 65 65"><defs><style>.cls-1{fill:url(#linear-gradient);}.cls-2{fill:#fff;}</style><linearGradient id="linear-gradient" y1="32.5" x2="65" y2="32.5" gradientUnits="userSpaceOnUse"><stop offset="0" stop-color="#ff1515"/><stop offset="1" stop-color="#e96100"/></linearGradient></defs><circle class="cls-1" cx="32.5" cy="32.5" r="32.5"/><path class="cls-2" d="M199.55,38.5l9.58-9.58a4.91,4.91,0,0,0,0-6.93l-.12-.12a4.93,4.93,0,0,0-6.93,0l-9.58,9.58-9.58-9.58a4.93,4.93,0,0,0-6.93,0l-.12.12a4.92,4.92,0,0,0,0,6.93l9.58,9.58-9.58,9.58a4.92,4.92,0,0,0,0,6.93l.12.12a4.91,4.91,0,0,0,6.93,0l9.58-9.58,9.58,9.58a4.91,4.91,0,0,0,6.93,0l.12-.12a4.91,4.91,0,0,0,0-6.93Z" transform="translate(-160 -6)"/></svg>