<svg xmlns="http://www.w3.org/2000/svg" viewBox="0 0 1500 1500"><defs><style>.cls-1{isolation:isolate;}.cls-2,.cls-8{fill:#fff;}.cls-3{fill:#f22c2c;}.cls-4{fill:#eff1f7;}.cls-5{fill:#d41010;}.cls-6{fill:#d5dae3;}.cls-7{mix-blend-mode:multiply;}.cls-8{opacity:0;}.cls-9{fill:#fbfcfc;opacity:0.03;}.cls-10{fill:#f6f8f9;opacity:0.06;}.cls-11{fill:#f2f5f6;opacity:0.1;}.cls-12{fill:#eef2f2;opacity:0.13;}.cls-13{fill:#eaeeef;opacity:0.16;}.cls-14{fill:#e5ebec;opacity:0.19;}.cls-15{fill:#e1e8e9;opacity:0.23;}.cls-16{fill:#dde4e6;opacity:0.26;}.cls-17{fill:#d9e1e3;opacity:0.29;}.cls-18{fill:#d4dde0;opacity:0.32;}.cls-19{fill:#d0dadd;opacity:0.35;}.cls-20{fill:#ccd7d9;opacity:0.39;}.cls-21{fill:#c8d3d6;opacity:0.42;}.cls-22{fill:#c3d0d3;opacity:0.45;}.cls-23{fill:#bfcdd0;opacity:0.48;}.cls-24{fill:#bbc9cd;opacity:0.52;}.cls-25{fill:#b7c6ca;opacity:0.55;}.cls-26{fill:#b2c3c7;opacity:0.58;}.cls-27{fill:#aebfc4;opacity:0.61;}.cls-28{fill:#aabcc0;opacity:0.65;}.cls-29{fill:#a6b9bd;opacity:0.68;}.cls-30{fill:#a1b5ba;opacity:0.71;}.cls-31{fill:#9db2b7;opacity:0.74;}.cls-32{fill:#99aeb4;opacity:0.77;}.cls-33{fill:#95abb1;opacity:0.81;}.cls-34{fill:#90a8ae;opacity:0.84;}.cls-35{fill:#8ca4ab;opacity:0.87;}.cls-36{fill:#88a1a7;opacity:0.9;}.cls-37{fill:#849ea4;opacity:0.94;}.cls-38{fill:#7f9aa1;opacity:0.97;}.cls-39{fill:#7b979e;}</style></defs><g class="cls-1"><g id="ƒŒƒCƒ__6" data-name="ƒŒƒCƒ„[_6"><rect class="cls-2" width="1500" height="1500" rx="418.14"/><path class="cls-3" d="M347.27,895.78,356.54,985c1.76,17.05-11.33,32.67-29.27,34.89s-33.91-9.82-35.67-26.86l-9.28-89.29c-1.76-17,11.37-32.55,29.29-34.77S345.51,878.74,347.27,895.78Z" transform="translate(-4 -4)"/><path class="cls-3" d="M945.51,821.83l9.25,89.3c1.77,17.08-11.33,32.66-29.29,34.89s-33.9-9.82-35.67-26.86l-9.27-89.29c-1.77-17,11.36-32.55,29.28-34.77S943.75,804.87,945.51,821.83Z" transform="translate(-4 -4)"/><path class="cls-3" d="M714.89,354.92c-18.1,2.22-34.27-9.93-36.06-27.1-6.44-62.15-65-106.14-130.6-98S434.6,295,441,357.19c1.78,17.18-11.49,33-29.6,35.21s-34.28-9.93-36.05-27.09c-10-96.49,64.64-185.25,166.39-197.82S734.5,223.21,744.51,319.71C746.28,336.87,733,352.67,714.89,354.92Z" transform="translate(-4 -4)"/><path class="cls-4" d="M300.86,981.32c-69.05,8.53-130.72-37.75-137.52-103.25L122.61,485.22c-6.79-65.44,43.83-125.63,112.88-134.16L878,271.69c69-8.52,130.69,37.78,137.48,103.25l40.76,392.85C1063,833.26,1012.36,893.43,943.32,902Z" transform="translate(-4 -4)"/><path class="cls-3" d="M751.63,465.58,398.34,509.23c-18,2.22-31.24,17.88-29.45,35L391.33,760.5c1.77,17.12,17.85,29.18,35.86,27l353.29-43.66c18-2.22,31.17-17.89,29.39-35L787.45,492.53C785.67,475.41,769.68,463.35,751.63,465.58Z" transform="translate(-4 -4)"/><path class="cls-5" d="M541.78,167.49l6.47,62.28c65.56-8.09,124.14,35.9,130.58,98,1.79,17.17,18,29.32,36.06,27.1s31.39-18.05,29.62-35.21C734.5,223.21,643.55,154.92,541.78,167.49Z" transform="translate(-4 -4)"/><path class="cls-6" d="M878,271.69,556.73,311.37l65.35,630.27L943.32,902c69-8.53,119.68-68.7,112.89-134.17l-40.76-392.85C1008.66,309.47,947,263.17,878,271.69Z" transform="translate(-4 -4)"/><path class="cls-5" d="M751.63,465.58,575,487.42l28.87,278.22,176.64-21.83c18-2.22,31.17-17.89,29.39-35L787.45,492.53C785.67,475.41,769.68,463.35,751.63,465.58Z" transform="translate(-4 -4)"/><path class="cls-2" d="M663.57,649.89,622.44,655l4,39c1.6,15.57-10.4,29.82-26.8,31.83s-31-8.94-32.56-24.46l-4.06-39.07-41.14,5.07c-16.4,2.05-31-8.89-32.64-24.44s10.39-29.82,26.8-31.87L557.23,606l-4.05-39c-1.61-15.51,10.35-29.76,26.73-31.78s31,8.94,32.64,24.45l4.06,39,41.14-5.06c16.37-2,31,8.94,32.58,24.49S680,647.88,663.57,649.89Z" transform="translate(-4 -4)"/><path class="cls-4" d="M657.74,593.58l-41.13,5.1-4.06-39c-1.61-15.51-16.21-26.48-32.62-24.46l19.78,190.66c16.41-2,28.38-16.26,26.78-31.83l-4-39,41.13-5.1c16.39-2,28.37-16.26,26.76-31.78S674.12,591.57,657.74,593.58Z" transform="translate(-4 -4)"/><g class="cls-7"><path class="cls-8" d="M1355.71,1142.13c16.06,50.41-5.68,106.56-48.59,125.44L984.05,1409.78c-42.9,18.88-90.69-6.68-106.76-57.09h0c-16-50.38,5.67-106.54,48.59-125.44L1249,1085.06c42.91-18.88,90.69,6.71,106.76,57.07Z" transform="translate(-4 -4)"/><path class="cls-9" d="M1351.87,1137.62c16.07,50.4-5.68,106.56-48.59,125.44L980.21,1405.27c-42.9,18.88-90.69-6.68-106.76-57.09h0c-16.05-50.38,5.67-106.55,48.59-125.44l323.07-142.19c42.91-18.88,90.69,6.71,106.76,57.07Z" transform="translate(-4 -4)"/><path class="cls-10" d="M1348,1133.11c16.07,50.4-5.67,106.56-48.59,125.44L976.37,1400.76c-42.9,18.88-90.69-6.69-106.76-57.09h0c-16.05-50.38,5.67-106.55,48.59-125.44L1241.27,1076c42.91-18.87,90.69,6.72,106.76,57.08Z" transform="translate(-4 -4)"/><path class="cls-11" d="M1344.19,1128.6c16.07,50.4-5.67,106.56-48.59,125.44L972.53,1396.25c-42.89,18.88-90.69-6.69-106.76-57.09h0c-16-50.38,5.68-106.55,48.59-125.45l323.07-142.19c42.91-18.87,90.69,6.72,106.76,57.08Z" transform="translate(-4 -4)"/><path class="cls-12" d="M1340.35,1124.09c16.07,50.4-5.67,106.56-48.59,125.44L968.69,1391.74c-42.89,18.88-90.69-6.69-106.76-57.09h0c-16-50.38,5.68-106.55,48.59-125.45L1233.59,1067c42.92-18.87,90.69,6.71,106.76,57.08Z" transform="translate(-4 -4)"/><path class="cls-13" d="M1336.51,1119.58c16.07,50.4-5.67,106.56-48.59,125.44L964.85,1387.23c-42.89,18.88-90.69-6.69-106.75-57.09h0c-16.06-50.38,5.67-106.55,48.58-125.45l323.07-142.19c42.92-18.88,90.7,6.71,106.76,57.08Z" transform="translate(-4 -4)"/><path class="cls-14" d="M1332.67,1115.07c16.07,50.4-5.67,106.56-48.58,125.44L961,1382.72c-42.89,18.88-90.69-6.69-106.75-57.09h0c-16-50.39,5.67-106.55,48.58-125.45L1225.91,1058c42.92-18.88,90.7,6.71,106.76,57.08Z" transform="translate(-4 -4)"/><path class="cls-15" d="M1328.83,1110.56c16.07,50.4-5.67,106.56-48.58,125.44L957.18,1378.21c-42.9,18.88-90.69-6.69-106.76-57.09h0c-16-50.39,5.67-106.55,48.58-125.45l323.07-142.19c42.92-18.88,90.7,6.71,106.76,57.08Z" transform="translate(-4 -4)"/><path class="cls-16" d="M1325,1106c16.07,50.41-5.66,106.57-48.58,125.45l-323.07,142.2c-42.9,18.88-90.69-6.68-106.76-57.08h0c-16.05-50.39,5.67-106.55,48.58-125.45L1218.23,1049c42.92-18.88,90.7,6.71,106.76,57.07Z" transform="translate(-4 -4)"/><path class="cls-17" d="M1321.15,1101.53c16.07,50.41-5.66,106.56-48.58,125.45L949.5,1369.18c-42.9,18.88-90.69-6.68-106.76-57.08h0c-16-50.39,5.67-106.55,48.58-125.45l323.07-142.19c42.92-18.88,90.7,6.71,106.76,57.07Z" transform="translate(-4 -4)"/><path class="cls-18" d="M1317.31,1097c16.07,50.4-5.66,106.56-48.58,125.45l-323.07,142.2c-42.9,18.88-90.69-6.68-106.76-57.08h0c-16-50.39,5.68-106.55,48.59-125.45L1210.55,1040c42.92-18.88,90.7,6.71,106.76,57.07Z" transform="translate(-4 -4)"/><path class="cls-19" d="M1313.48,1092.51c16.06,50.4-5.67,106.56-48.59,125.45l-323.07,142.2c-42.9,18.88-90.69-6.69-106.76-57.08h0c-16-50.39,5.68-106.56,48.59-125.45l323.07-142.19c42.91-18.88,90.7,6.71,106.76,57.07Z" transform="translate(-4 -4)"/><path class="cls-20" d="M1309.64,1088c16.06,50.4-5.67,106.56-48.59,125.45L938,1355.65c-42.9,18.88-90.69-6.69-106.75-57.08h0c-16.06-50.39,5.67-106.56,48.58-125.45l323.07-142.2c42.91-18.87,90.7,6.72,106.76,57.08Z" transform="translate(-4 -4)"/><path class="cls-21" d="M1305.8,1083.49c16.06,50.4-5.67,106.56-48.58,125.45l-323.08,142.2c-42.9,18.88-90.69-6.69-106.75-57.08h0c-16.06-50.39,5.67-106.56,48.58-125.45L1199,1026.41c42.91-18.87,90.7,6.71,106.76,57.08Z" transform="translate(-4 -4)"/><path class="cls-22" d="M1302,1079c16.07,50.4-5.67,106.56-48.58,125.45L930.3,1346.63c-42.9,18.88-90.68-6.69-106.75-57.08h0c-16.06-50.39,5.67-106.56,48.58-125.45l323.07-142.2c42.91-18.88,90.7,6.71,106.76,57.08Z" transform="translate(-4 -4)"/><path class="cls-23" d="M1298.12,1074.47c16.07,50.4-5.66,106.56-48.58,125.45l-323.08,142.2c-42.9,18.88-90.68-6.69-106.75-57.08h0c-16.06-50.39,5.67-106.56,48.58-125.45l323.07-142.2c42.91-18.88,90.7,6.71,106.76,57.08Z" transform="translate(-4 -4)"/><path class="cls-24" d="M1294.28,1070c16.07,50.4-5.66,106.56-48.58,125.45l-323.08,142.2c-42.89,18.88-90.68-6.69-106.75-57.08h0c-16.06-50.39,5.67-106.56,48.58-125.45l323.07-142.2c42.92-18.88,90.7,6.71,106.76,57.08Z" transform="translate(-4 -4)"/><path class="cls-25" d="M1290.44,1065.45c16.07,50.4-5.66,106.56-48.58,125.45L918.78,1333.09C875.89,1352,828.1,1326.41,812,1276h0c-16-50.39,5.68-106.56,48.58-125.45l323.07-142.2c42.92-18.88,90.7,6.71,106.76,57.08Z" transform="translate(-4 -4)"/><path class="cls-26" d="M1286.6,1060.94c16.07,50.4-5.66,106.56-48.58,125.45L914.94,1328.58c-42.89,18.88-90.68-6.68-106.75-57.07h0c-16.05-50.39,5.68-106.56,48.58-125.45l323.07-142.2c42.92-18.88,90.71,6.71,106.76,57.08Z" transform="translate(-4 -4)"/><path class="cls-27" d="M1282.76,1056.43c16.07,50.39-5.66,106.55-48.58,125.45L911.1,1324.07c-42.89,18.88-90.68-6.68-106.74-57.07h0c-16.06-50.39,5.67-106.56,48.57-125.45L1176,999.35c42.92-18.88,90.71,6.71,106.76,57.08Z" transform="translate(-4 -4)"/><path class="cls-28" d="M1278.92,1051.92c16.07,50.39-5.66,106.55-48.57,125.45L907.27,1319.56c-42.9,18.88-90.69-6.69-106.75-57.08h0c-16.06-50.38,5.67-106.56,48.57-125.44l323.07-142.2c42.92-18.88,90.71,6.71,106.76,57.08Z" transform="translate(-4 -4)"/><path class="cls-29" d="M1275.08,1047.41c16.07,50.39-5.65,106.55-48.57,125.45L903.43,1315.05c-42.9,18.88-90.68-6.69-106.75-57.08h0c-16.06-50.38,5.67-106.56,48.57-125.44l323.07-142.2c42.92-18.88,90.71,6.7,106.76,57.08Z" transform="translate(-4 -4)"/><path class="cls-30" d="M1271.24,1042.9c16.07,50.39-5.65,106.55-48.57,125.44l-323.08,142.2c-42.9,18.88-90.68-6.69-106.75-57.08h0c-16.06-50.38,5.67-106.56,48.57-125.44l323.08-142.21c42.91-18.88,90.7,6.71,106.75,57.09Z" transform="translate(-4 -4)"/><path class="cls-31" d="M1267.4,1038.39c16.07,50.39-5.65,106.55-48.57,125.44L895.75,1306c-42.9,18.88-90.68-6.69-106.75-57.08h0c-16.06-50.38,5.67-106.56,48.58-125.44L1160.65,981.3c42.91-18.88,90.7,6.71,106.75,57.09Z" transform="translate(-4 -4)"/><path class="cls-32" d="M1263.57,1033.88c16.06,50.39-5.66,106.55-48.58,125.44l-323.08,142.2c-42.9,18.88-90.68-6.69-106.75-57.08h0c-16.06-50.38,5.68-106.56,48.58-125.44l323.07-142.21c42.91-18.88,90.71,6.71,106.76,57.09Z" transform="translate(-4 -4)"/><path class="cls-33" d="M1259.73,1029.37c16.06,50.39-5.66,106.55-48.58,125.44L888.07,1297c-42.9,18.88-90.68-6.69-106.75-57.08h0c-16.06-50.38,5.68-106.56,48.58-125.44L1153,972.28c42.91-18.88,90.71,6.71,106.76,57.09Z" transform="translate(-4 -4)"/><path class="cls-34" d="M1255.89,1024.86c16.07,50.39-5.66,106.55-48.58,125.44L884.23,1292.5c-42.9,18.88-90.68-6.69-106.75-57.08h0c-16.06-50.38,5.68-106.56,48.58-125.44l323.07-142.21c42.91-18.88,90.71,6.71,106.76,57.09Z" transform="translate(-4 -4)"/><path class="cls-35" d="M1252.05,1020.35c16.07,50.38-5.66,106.55-48.57,125.44L880.39,1288c-42.9,18.89-90.68-6.68-106.74-57.07h0c-16.07-50.38,5.67-106.56,48.57-125.45l323.07-142.2c42.92-18.88,90.71,6.71,106.76,57.09Z" transform="translate(-4 -4)"/><path class="cls-36" d="M1248.21,1015.84c16.07,50.38-5.65,106.54-48.57,125.44L876.55,1283.47c-42.9,18.88-90.67-6.69-106.74-57.07h0c-16.07-50.38,5.67-106.56,48.57-125.45l323.07-142.2c42.92-18.88,90.71,6.71,106.76,57.09Z" transform="translate(-4 -4)"/><path class="cls-37" d="M1244.37,1011.33c16.07,50.38-5.65,106.54-48.57,125.44L872.71,1279c-42.89,18.88-90.67-6.69-106.74-57.07h0c-16.06-50.38,5.67-106.56,48.57-125.45l323.07-142.2c42.92-18.88,90.71,6.71,106.76,57.09Z" transform="translate(-4 -4)"/><path class="cls-38" d="M1240.53,1006.82c16.07,50.38-5.65,106.54-48.57,125.44L868.87,1274.45c-42.89,18.88-90.67-6.69-106.74-57.07h0c-16.06-50.39,5.67-106.57,48.57-125.45l323.07-142.2c42.92-18.88,90.71,6.7,106.76,57.09Z" transform="translate(-4 -4)"/><path class="cls-39" d="M1236.69,1002.31c16.07,50.38-5.65,106.54-48.57,125.44L865,1269.94c-42.89,18.88-90.67-6.69-106.74-57.07h0c-16.06-50.39,5.68-106.57,48.57-125.45l323.07-142.2c42.92-18.89,90.72,6.7,106.76,57.09Z" transform="translate(-4 -4)"/></g><path class="cls-4" d="M1236.69,1002.31c16.07,50.38-5.65,106.54-48.57,125.44L865,1269.94c-42.89,18.88-90.67-6.69-106.74-57.07h0c-16.06-50.39,5.68-106.57,48.57-125.45l323.07-142.2c42.92-18.89,90.72,6.7,106.76,57.09Z" transform="translate(-4 -4)"/><path class="cls-3" d="M968.41,1016.32l-161.55,71.1c-42.89,18.88-64.63,75.06-48.57,125.45s63.85,76,106.74,57.07l161.55-71.11Z" transform="translate(-4 -4)"/><path class="cls-6" d="M1026.58,1198.83l161.54-71.08c42.92-18.9,64.64-75.06,48.57-125.44L997.5,1107.58Z" transform="translate(-4 -4)"/><path class="cls-5" d="M865,1269.94l161.55-71.11-29.08-91.25L758.29,1212.87C774.36,1263.25,822.14,1288.82,865,1269.94Z" transform="translate(-4 -4)"/><path class="cls-2" d="M940.53,1072.14c2.93,9.21-1,19.56-8.9,23l-96.2,42.33c-7.85,3.48-16.66-1.25-19.58-10.47s1-19.58,8.9-23.06l96.19-42.33C928.78,1058.17,937.57,1062.88,940.53,1072.14Z" transform="translate(-4 -4)"/></g></g></svg>