<svg xmlns="http://www.w3.org/2000/svg" viewBox="0 0 1500 1500"><defs><style>.cls-1{fill:#fff;}.cls-2{fill:#f55a96;}</style></defs><g id="ƒŒƒCƒ__6" data-name="ƒŒƒCƒ„[_6"><rect class="cls-1" width="1500" height="1500" rx="418.14"/><path class="cls-2" d="M1146,561.92c0-223.62-189.45-404.53-418.76-395.6-208.91,8.13-378,174.69-385.94,380.2-7.91,203.9,141.9,375.62,338.81,406.39v136.6H550.21v124.7h129.9V1342H806.89V1214.21h129.9v-124.7H806.89V952.91C998.81,922.92,1146,759,1146,561.92Zm-678.23,0c0-149.55,123.69-271.22,275.73-271.22s275.72,121.67,275.72,271.22S895.53,833.14,743.5,833.14,467.77,711.47,467.77,561.92Z" transform="translate(-4 -4)"/></g></svg>