<svg xmlns="http://www.w3.org/2000/svg" xmlns:xlink="http://www.w3.org/1999/xlink" viewBox="0 0 1500 1500"><defs><style>.cls-1{fill:none;}.cls-2{fill:#fff;}.cls-3{fill:#e84831;}.cls-4{fill:#e5001a;}.cls-5{fill:#ea6143;}.cls-6{fill:#f5ad54;}.cls-7{fill:#df0012;}.cls-8{clip-path:url(#clip-path);}.cls-9{fill:#1faa39;}.cls-10{fill:#6fb92c;}.cls-11{fill:#009844;}.cls-12{fill:#fad9c7;}.cls-13{fill:#9e6034;}.cls-14{fill:#ceda00;}.cls-15{fill:#a9cd36;}.cls-16{fill:#7cbc28;}.cls-17{fill:#8dc220;}.cls-18{fill:#9cc716;}.cls-19{fill:#edf0af;}</style><clipPath id="clip-path" transform="translate(-4 -4)"><path class="cls-1" d="M570.48,1181c-101.06-2.57-257.72-113.17-366.55-399.76C72.29,434.51,252.3,234.87,593.38,243.54S1104.5,460.75,956.09,800.32C833.41,1081,664.69,1183.35,570.48,1181Z"/></clipPath></defs><g id="ƒŒƒCƒ__6" data-name="ƒŒƒCƒ„[_6"><rect class="cls-2" width="1500" height="1500" rx="418.14"/><path class="cls-3" d="M570.48,1181c-101.06-2.57-257.72-113.17-366.55-399.76C72.29,434.51,252.3,234.87,593.38,243.54S1104.5,460.75,956.09,800.32C833.41,1081,664.69,1183.35,570.48,1181Z" transform="translate(-4 -4)"/><path class="cls-4" d="M927.57,361.1c-2.46,63-19.57,133.57-53.42,211-122.68,280.71-291.41,383-385.61,380.64C401.46,950.56,273.12,868,169.65,661.92c7.07,37.55,18.35,77.31,34.28,119.28C312.76,1067.79,469.42,1178.39,570.48,1181c94.21,2.39,262.93-99.94,385.61-380.64C1040.42,607.38,1021.83,456.81,927.57,361.1Z" transform="translate(-4 -4)"/><path class="cls-5" d="M316.85,909.23c-11.82,0-26.08-10.27-37.21-26.8-21-31.13-37.27-77.07-27.85-104.66a38.66,38.66,0,0,1,4.2-8.69,50.32,50.32,0,0,0,4.34-46.8c-.67-1.62-1.3-3.27-1.89-5-11.17-32.24-14.85-76.29-.27-98.13,6.23-9.33,14.93-14.07,26.59-14.49l1.66,0c11.5,0,20.66,4.46,27.21,13.24,3.86,5.18,6.84,11.91,8.82,20A48.71,48.71,0,0,0,368,675.35c9.93.31,18.4,4.37,25.91,12.41,22.91,24.56,26.74,77.72,25.56,102.41-1.18,24.46-10.4,42.53-23.5,46a18.29,18.29,0,0,1-4.77.61h-1.31c-23.51,0-43.63,17.21-47.74,40.82-1.36,7.82-6,26.51-19.77,30.8A18.27,18.27,0,0,1,316.85,909.23Z" transform="translate(-4 -4)"/><path class="cls-6" d="M272.69,697.78c3.89,11.23,10.45,17,16,16.81s11.69-6.44,14.79-17.92c5.69-21,6.78-57.21-17.37-56.34C262.94,641.17,265.55,677.2,272.69,697.78Z" transform="translate(-4 -4)"/><path class="cls-6" d="M290.33,855c6.61,9.82,14.41,13.66,19.72,12s9.66-9.31,9.74-21.22c.14-21.83-8-57.05-31.1-49.82C266.52,802.85,278.21,837,290.33,855Z" transform="translate(-4 -4)"/><path class="cls-6" d="M365.73,779.63c6.2,10.09,13.84,14.27,19.21,12.84s10-8.89,10.6-20.79c1-21.8-5.63-57.34-29-51.1C344.09,726.56,354.36,761.14,365.73,779.63Z" transform="translate(-4 -4)"/><path class="cls-7" d="M653.62,1133.1c10.52,3.42,26.27-2.24,41.11-14.76,27.94-23.59,56.12-62.64,55.94-91.65a40.2,40.2,0,0,0-1.15-9.5,53.29,53.29,0,0,1,10.06-45.85c1.08-1.35,2.14-2.74,3.17-4.19,19.54-27.48,35.92-68.38,29.44-93.41-2.76-10.7-9.1-17.73-19.35-21.51l-1.47-.5c-10.24-3.34-19.72-1.74-28.17,4.73-5,3.82-9.63,9.37-13.8,16.5-11.07,18.94-32.2,28.13-51.71,22.49-8.93-2.57-17.68-1.16-26.76,4.33C623.21,916.54,604,966.09,597.69,990c-6.24,23.65-3.4,43.54,7.22,50.65a16.12,16.12,0,0,0,4.07,2l1.17.37c20.93,6.81,33.72,29,30.35,52.71-1.11,7.85-2.53,27,8.44,35.07A16.28,16.28,0,0,0,653.62,1133.1Z" transform="translate(-4 -4)"/><path class="cls-7" d="M882.16,763.94c10.11-1.33,21-13.11,28.48-30.75,14.06-33.22,22.27-80.61,10.77-106.92a41.43,41.43,0,0,0-4.68-8.16c-9.49-12.72-13.08-30-9.55-45.93.37-1.68.71-3.39,1-5.14,5.54-33.23,3.19-77.33-12-97.36-6.49-8.56-14.52-12.29-24.54-11.4l-1.42.16c-9.84,1.29-17.12,6.73-21.63,16.17-2.65,5.58-4.36,12.58-5,20.82-1.82,21.89-15.82,39.15-34.29,42.25-8.45,1.42-15.19,6.39-20.61,15.22-16.54,26.92-13.18,80.08-9.09,104.43,4.05,24.13,14.2,41,25.83,43a14.12,14.12,0,0,0,4.16.07l1.12-.16c20.1-2.63,39.46,12.19,45.92,35.14C858.72,743,865,761,877.33,763.74A13.92,13.92,0,0,0,882.16,763.94Z" transform="translate(-4 -4)"/><path class="cls-6" d="M751.49,944.92c-6.67,9.78-14.5,13.57-19.79,11.88s-9.6-9.37-9.61-21.28c0-21.83,8.33-57,31.39-49.62C775.6,893,763.72,927,751.49,944.92Z" transform="translate(-4 -4)"/><path class="cls-6" d="M680.81,1076c-8.6,8-17,10-21.85,7.17s-7.37-11.28-4.83-22.9c4.66-21.31,20.34-53.77,41.26-41.43C715.47,1030.7,696.58,1061.27,680.81,1076Z" transform="translate(-4 -4)"/><path class="cls-6" d="M640.51,998.67c-8.6,8.05-17,10-21.86,7.18s-7.36-11.28-4.82-22.9c4.66-21.31,20.33-53.77,41.26-41.43C675.17,953.35,656.28,983.92,640.51,998.67Z" transform="translate(-4 -4)"/><g class="cls-8"><path class="cls-4" d="M758.16,494.59a28.45,28.45,0,0,1-7.11-.89c-9.13-2.3-88.58-23.85-124.57-82.92-38,57.29-117.6,75.77-126.76,77.73a29.41,29.41,0,0,1-33.09-17.31,195.15,195.15,0,0,1-11.92-42.15,115.16,115.16,0,0,1-11.95,1.06c-43.7,1.56-91.85-16.8-122.78-46.73-22.81-22.08-35.14-48.84-35.65-77.38a30,30,0,0,1,23.46-30.06c20-4.3,40.76-2.17,60.83-.11,19.78,2,38.46,3.94,54.48-.16,8.34-2.12,19.29-7.16,30.88-12.49,27.14-12.48,65.53-30.13,96.48-14.17,2-.95,4.08-1.83,6.1-2.64-8.24-14.28-26.52-26.44-36-32.07a53.3,53.3,0,0,1-4.92-3.23,30.49,30.49,0,0,1,2.45-49.67l55.43-34.76a29.06,29.06,0,0,1,33.12,1.5c7.4,5.61,64,50.42,74.85,114.78a102.43,102.43,0,0,1,22.93,7.76c30.76-11,65.07,7.18,91.37,21.12,11.28,6,21.93,11.62,30.13,14.22h0c15.75,5,34.51,4.12,54.37,3.22,20.18-.93,41-1.87,60.74,3.55a30.1,30.1,0,0,1,21.78,31.39c-2.11,28.46-15.92,54.46-39.93,75.22-32.55,28.11-81.72,43.73-125.16,39.7l-.4,0a191.49,191.49,0,0,1-12.55,38.45A29.49,29.49,0,0,1,758.16,494.59ZM653.3,303.46a30.48,30.48,0,0,1,4.43,15.7c0,16.63,6.52,37.7,17.79,57.79C689,401,718.14,417,739.57,426.06a128.55,128.55,0,0,0,3.13-24.81,30.31,30.31,0,0,1,13.14-24.37,29.11,29.11,0,0,1,27.11-3A74.36,74.36,0,0,0,803,379c27.61,2.55,61.21-8,81.64-25.67q2.39-2,4.47-4.16l-6.2.27c-22.92,1-48.91,2.25-74.53-5.86h0c-13.25-4.19-26.79-11.37-39.88-18.31-11.37-6-38-20.16-44.78-17.47a29.29,29.29,0,0,1-35.23,2.58c-13.76-9-22.7-9.54-25.85-8.52a28.81,28.81,0,0,1-9.36,1.56ZM481.67,359.91a29.16,29.16,0,0,1,17,5.48,30.36,30.36,0,0,1,12.54,26.28,125.5,125.5,0,0,0,2.26,29.77c22.93-8.81,51.91-24.24,65.49-46.71,11.78-19.48,18.9-40.16,19.52-56.74A30.31,30.31,0,0,1,612.6,293.4,29,29,0,0,1,628.06,289a30.7,30.7,0,0,1-4.17-18.62c1.91-19.9-6-38.85-16.3-54.43,13.52,23.5,13.5,44.9,11,58.87a29.73,29.73,0,0,1-28.47,24.79c-6.86.14-16.42,4-26.23,10.62a29.17,29.17,0,0,1-39.37-6.35,3.86,3.86,0,0,0-.61-.66c-6.65-3-33,9.12-45.67,14.94-13.45,6.19-27.36,12.59-40.82,16-26,6.63-51.9,4-74.74,1.65l-6.28-.64c1.31,1.5,2.73,3,4.24,4.44,19.4,18.77,52.21,31.18,80.05,30.21,8.54-.3,18.71-2.91,29.43-7.54A29,29,0,0,1,481.67,359.91Z" transform="translate(-4 -4)"/><path class="cls-4" d="M817.16,314.82C781.84,303.65,732.8,260.33,704.42,285c-18.32-11.94-36.59-16.65-51.12-11.7C659.66,207,592.51,155,589,152.32l-55.44,34.77c2.53,2,64.58,33.79,56,82.36-12.86.27-27.4,5.85-41.9,15.6-25.9-33.09-80,10.34-117.36,19.87-39.28,10-83-6.65-116.4.53,1,57.62,71.85,96.5,127.86,94.52,12.68-.45,26.46-4.08,39.94-9.9-1.93,36.84,12,68.93,12,68.93S573,442,604.1,390.57c15.15-25.06,23.11-50.4,23.89-71.43l.18.09c.05,21.11,7.23,46.92,21.7,72.7,29.53,52.6,108.28,72.5,108.28,72.5s13.33-28.21,14.1-62.47a102.86,102.86,0,0,0,28.12,7.11c55.81,5.14,128.71-29.69,133-87.16C900.39,312.85,855.81,327.05,817.16,314.82Z" transform="translate(-4 -4)"/></g><path class="cls-9" d="M604.56,248.91l-56.64-26.08c43.44-63.36-41.55-106.76-44.52-109.07L558.84,79C563.19,82.3,664.84,161,604.56,248.91Z" transform="translate(-4 -4)"/><path class="cls-10" d="M411.59,326.65c-56,2-126.84-36.9-127.87-94.52,33.42-7.18,77.13,9.5,116.41-.53S497.27,174,521.31,217.45,467.6,324.67,411.59,326.65Z" transform="translate(-4 -4)"/><path class="cls-9" d="M770.22,335.75c55.81,5.13,128.71-29.7,133-87.17-33-9.05-77.53,5.14-116.19-7.08s-93.75-63-120.2-21S714.4,330.61,770.22,335.75Z" transform="translate(-4 -4)"/><path class="cls-11" d="M558.25,173.22c3.92,14.52,2.3,31.19-10.33,49.61l56.64,26.08c22.2-32.39,22.41-63.5,13.63-90.06C601,166.56,580.53,171.69,558.25,173.22Z" transform="translate(-4 -4)"/><path class="cls-9" d="M574,317.24c-31.12,51.47-110.44,68.43-110.44,68.43s-28.87-66.49,2.26-118,80.56-82.1,110.44-68.43S605.07,265.77,574,317.24Z" transform="translate(-4 -4)"/><path class="cls-10" d="M619.72,318.6C649.24,371.2,728,391.11,728,391.11s30.88-65.38,1.36-118-78-85.06-108.28-72.5S590.2,266,619.72,318.6Z" transform="translate(-4 -4)"/><ellipse class="cls-12" cx="252.36" cy="505.76" rx="79.2" ry="47.84" transform="translate(-316.51 521.84) rotate(-65.52)"/><path class="cls-6" d="M900.83,537.38c-1.4,11.82-6.56,18.92-12,20s-12.79-3.67-18.28-14.18c-10.07-19.26-18.88-54.31,4.87-58.85C898.2,480,903.38,515.7,900.83,537.38Z" transform="translate(-4 -4)"/><path class="cls-6" d="M898.77,687c-3.89,11.23-10.44,17-16,16.81s-11.69-6.43-14.8-17.91c-5.7-21-6.79-57.21,17.36-56.34C908.51,630.37,905.9,666.4,898.77,687Z" transform="translate(-4 -4)"/><path class="cls-6" d="M827.58,638c-3.89,11.23-10.44,17-16,16.81s-11.69-6.43-14.8-17.91c-5.7-21-6.79-57.21,17.36-56.34C837.32,581.39,834.71,617.42,827.58,638Z" transform="translate(-4 -4)"/><polygon class="cls-13" points="1374.05 609.88 1181.18 533.53 1159.4 565.91 1236.31 596.35 1174.86 738.1 1213.22 754.15 1275 611.66 1352.27 642.25 1374.05 609.88"/><ellipse class="cls-14" cx="1235.2" cy="760.55" rx="77.39" ry="84.71" transform="translate(109.79 1676.66) rotate(-70.99)"/><ellipse class="cls-14" cx="937.65" cy="761.77" rx="109.37" ry="119.73" transform="translate(-91.98 1396.18) rotate(-70.99)"/><ellipse class="cls-15" cx="1272.05" cy="933.4" rx="109.37" ry="119.73" transform="translate(-28.78 1828.05) rotate(-70.99)"/><ellipse class="cls-15" cx="882.49" cy="896.36" rx="109.37" ry="119.73" transform="translate(-256.43 1434.77) rotate(-70.99)"/><path class="cls-16" d="M1372.84,880.56a103.07,103.07,0,0,1-11.17,15.24c-40.81,45.57-115.47,49.59-166.76,9A122.09,122.09,0,0,1,1168,875.11c-27.25,44.82-15.73,104.49,30.14,140.8,51.29,40.61,125.95,36.58,166.75-9C1397,971.12,1398.48,920.38,1372.84,880.56Z" transform="translate(-4 -4)"/><path class="cls-16" d="M1000.9,897c-41.54,41.56-113,44.2-162.66,4.88-27.75-22-42.85-52.52-44.51-83.14-1.37,1.37-2.8,2.66-4.1,4.11-40.81,45.57-32.31,115.43,19,156s125.95,36.58,166.76-9A100.11,100.11,0,0,0,1000.9,897Z" transform="translate(-4 -4)"/><ellipse class="cls-17" cx="1214.81" cy="1074.33" rx="109.37" ry="119.73" transform="translate(-200.6 1868.99) rotate(-70.99)"/><ellipse class="cls-17" cx="885.48" cy="1087.64" rx="109.37" ry="119.73" transform="translate(-435.26 1566.57) rotate(-70.99)"/><ellipse class="cls-16" cx="1050.38" cy="1180.94" rx="109.37" ry="119.73" transform="translate(-412.29 1785.39) rotate(-70.99)"/><ellipse class="cls-15" cx="1117.47" cy="686.88" rx="94.21" ry="103.14" transform="translate(100.06 1515.68) rotate(-70.99)"/><ellipse class="cls-18" cx="943.01" cy="1217.4" rx="94.21" ry="103.14" transform="translate(-519.16 1708.45) rotate(-70.99)"/><ellipse class="cls-17" cx="1104.87" cy="854.25" rx="109.37" ry="119.73" transform="translate(-66.67 1616.62) rotate(-70.99)"/><ellipse class="cls-14" cx="1051.53" cy="983.63" rx="109.37" ry="119.73" transform="translate(-224.97 1653.42) rotate(-70.99)"/><path class="cls-18" d="M1163.44,953.11c-.12.22-.21.45-.34.67-30.9,52.14-102.8,68.69-160.61,37-27.34-15-46.51-38.17-56-63.9-30.32,52.06-8.49,119.6,49.08,151.19,57.8,31.73,129.7,15.18,160.6-37C1172.47,1013.6,1174,981.76,1163.44,953.11Z" transform="translate(-4 -4)"/><path class="cls-19" d="M927.24,712.15c-17.86,7.65-38.15,3.11-45.3-10.13s1.54-30.19,19.41-37.84,38.15-3.12,45.3,10.13S945.11,704.49,927.24,712.15Z" transform="translate(-4 -4)"/><path class="cls-19" d="M1052,943.21c-17.87,7.65-38.15,3.11-45.3-10.13s1.53-30.19,19.4-37.84,38.15-3.12,45.3,10.13S1069.84,935.55,1052,943.21Z" transform="translate(-4 -4)"/><path class="cls-19" d="M1113.7,654.28c-15.53,6.65-33.16,2.71-39.38-8.8s1.34-26.24,16.87-32.89,33.16-2.71,39.37,8.8S1129.22,647.63,1113.7,654.28Z" transform="translate(-4 -4)"/><path class="cls-19" d="M1102.12,802.23c-15.53,6.65-33.16,2.71-39.37-8.81s1.33-26.23,16.86-32.88,33.16-2.71,39.37,8.8S1117.65,795.58,1102.12,802.23Z" transform="translate(-4 -4)"/></g></svg>