<svg xmlns="http://www.w3.org/2000/svg" xmlns:xlink="http://www.w3.org/1999/xlink" viewBox="0 0 1500 1500"><defs><style>.cls-1{isolation:isolate;}.cls-15,.cls-2,.cls-27,.cls-4,.cls-5,.cls-7{fill:#fff;}.cls-16,.cls-20,.cls-3,.cls-6{fill:#1c1c1c;}.cls-3{opacity:0.9;}.cls-13,.cls-14,.cls-15,.cls-16,.cls-20,.cls-27,.cls-3,.cls-4,.cls-5,.cls-6,.cls-7{mix-blend-mode:overlay;}.cls-4{opacity:0.35;}.cls-11,.cls-5{opacity:0.5;}.cls-20,.cls-7{opacity:0.7;}.cls-8{fill:url(#linear-gradient);}.cls-9{fill:#ffd488;}.cls-10{fill:#cbab90;}.cls-11{fill:#824f29;}.cls-12{fill:url(#linear-gradient-2);}.cls-13{fill:#28180d;}.cls-13,.cls-16,.cls-27{opacity:0.4;}.cls-14{fill:#301c0c;opacity:0.6;}.cls-15{opacity:0.2;}.cls-17{fill:#edb498;}.cls-18{fill:#ffe3d7;}.cls-19{fill:url(#linear-gradient-3);}.cls-21{fill:url(#linear-gradient-4);}.cls-22{fill:#e08f36;}.cls-23{fill:#c97520;opacity:0.3;mix-blend-mode:multiply;}.cls-24{fill:url(#linear-gradient-5);}.cls-25{fill:url(#linear-gradient-6);}.cls-26{fill:#603412;}</style><linearGradient id="linear-gradient" x1="984.62" y1="1380.7" x2="984.62" y2="1137.07" gradientTransform="translate(467.36 -339.86) rotate(24.7)" gradientUnits="userSpaceOnUse"><stop offset="0" stop-color="#f8c36f"/><stop offset="1" stop-color="#f1a758"/></linearGradient><linearGradient id="linear-gradient-2" x1="1151.75" y1="384.4" x2="875.01" y2="1103.4" gradientTransform="translate(467.36 -339.86) rotate(24.7)" gradientUnits="userSpaceOnUse"><stop offset="0" stop-color="#904d38"/><stop offset="1" stop-color="#663123"/></linearGradient><linearGradient id="linear-gradient-3" x1="725.81" y1="319.92" x2="361.49" y2="817.27" gradientUnits="userSpaceOnUse"><stop offset="0" stop-color="#ffefda"/><stop offset="1" stop-color="#f4dab5"/></linearGradient><linearGradient id="linear-gradient-4" x1="686.59" y1="1124.1" x2="386.63" y2="962.82" gradientTransform="matrix(1, 0, 0, 1, 0, 0)" xlink:href="#linear-gradient"/><linearGradient id="linear-gradient-5" x1="834.52" y1="794.32" x2="260.36" y2="858.47" gradientTransform="matrix(1, 0, 0, 1, 0, 0)" xlink:href="#linear-gradient"/><linearGradient id="linear-gradient-6" x1="514.03" y1="748" x2="208.46" y2="709.41" gradientUnits="userSpaceOnUse"><stop offset="0" stop-color="#ffd488"/><stop offset="1" stop-color="#f8c36f"/></linearGradient></defs><g class="cls-1"><g id="ƒŒƒCƒ__6" data-name="ƒŒƒCƒ„[_6"><rect class="cls-2" width="1500" height="1500" rx="418.14"/><path class="cls-3" d="M658.81,443.36a84.17,84.17,0,0,1-3.42,27.23c-27.6,29.47-77.89,24.68-77.89,24.68C638.45,487.69,658.81,443.36,658.81,443.36Z" transform="translate(-4 -4)"/><path class="cls-3" d="M721,605c-43.34,30.38-176.8,38.81-176.8,38.81,96.34-30.2,157.23-60.82,163.93-100.9.18,17.46-3.77,34.38-9.28,46.08A53.33,53.33,0,0,1,721,605Z" transform="translate(-4 -4)"/><path class="cls-4" d="M508.07,1038.38c-30.15,30.76-26.14,157.87-11.18,177.34s66.72,14.8,82.23-20.55,35.61-166.25,28.81-180.68S538.21,1007.61,508.07,1038.38Z" transform="translate(-4 -4)"/><path class="cls-5" d="M733.56,748.38c2.32,6.25-24.3,20.85-53.25,28.23s-78.89,16.12-78.89,3.79,35.73-12.76,63.42-18S731.24,742.13,733.56,748.38Z" transform="translate(-4 -4)"/><path class="cls-6" d="M447,342.69c-7.18,2.2-12,3.92-13.58,10.27s5.3,21.19,25.09,25.91c29.61,7.06,33.44-18.14,28.39-23S454.12,340.5,447,342.69Z" transform="translate(-4 -4)"/><path class="cls-6" d="M594.29,709.18s-20,15.54-12.53,28.61,32.74,11.28,39.29-4.68-.75-21.77-.75-21.77Z" transform="translate(-4 -4)"/><path class="cls-6" d="M500.64,476.21c-.38.38-13.85,14.86-7.49,25.12s15.84,9.37,23.2,2.92,16.09-13.77,12.35-24.88S500.64,476.21,500.64,476.21Z" transform="translate(-4 -4)"/><path class="cls-6" d="M514.79,616.18s-15.9,4.07-14.68,16.86,12.91,13.93,21.51,12,17.59-8.72,17-17.91S514.79,616.18,514.79,616.18Z" transform="translate(-4 -4)"/><path class="cls-6" d="M459.33,673.51S440.26,674,441,689.82s28.56,21.86,40.41,17.69,9.48-19,9.48-19Z" transform="translate(-4 -4)"/><path class="cls-7" d="M644.88,519.32c-4-2.46-11.62-1.41-12.88,1s10.43,14.76,14.6,11.4S648.9,521.78,644.88,519.32Z" transform="translate(-4 -4)"/><path class="cls-7" d="M534.16,610c-5.24-.95-10.67,3.32-7.77,9s13.19,8.15,14.41,3S539.4,611,534.16,610Z" transform="translate(-4 -4)"/><path class="cls-7" d="M466.57,138.66c-10.48,7.58,49.89,52.05,46.4,95S447.61,266,449.11,306.43,519,365.55,549.89,341.8s20-84.89.5-119.26S477.05,131.08,466.57,138.66Z" transform="translate(-4 -4)"/><path class="cls-7" d="M558.39,381.84c-32.19,4.93-44.15,17.56-36.68,32.59s53.25,10,71.59,9.23S617.79,456.5,631.24,454s11-48.76-10.36-65.31S558.39,381.84,558.39,381.84Z" transform="translate(-4 -4)"/><path class="cls-8" d="M852,1097.06l-97.68,168.28c-13.09,22.05-.14,51.11,28.23,63.35h0c28.34,12.23,60.28,2.56,69.63-21.08l72.87-179L852,1097.06" transform="translate(-4 -4)"/><path class="cls-9" d="M851.13,1310.26l-.33.51c-35.56-20.94-46.81-44.14-12.53-107.23,26.18-48.37,8.28-74.11-.07-82.6l2.42-4.11c8.78,7.91,31.58,35.38,2.53,89-32.61,60-23.37,81.31,9.53,100.84l-.4,1c-.38.94-.73,1.81-1.15,2.66" transform="translate(-4 -4)"/><path class="cls-9" d="M913.05,1158.12c-27.33-18-32.56-37-32.57-48.81l5.13,2.22c.41,10.54,5.76,26.61,29.16,42.44l-1.72,4.15" transform="translate(-4 -4)"/><polyline class="cls-10" points="921.1 1124.57 881.61 1107.54 881.61 1107.54 921.1 1124.57 910.76 1149.96 910.76 1149.96 921.1 1124.57"/><path class="cls-10" d="M914.13,1155.52l-.08.19-4.4,10.83h0l4.48-11m-33.65-46.19L852,1097.06l-57,98.22h0l57-98.21,28.44,12.27h0" transform="translate(-4 -4)"/><path class="cls-11" d="M925.1,1128.57,852,1097.06l-57,98.21c.13-.14,69.61-45.1,114.62-28.73Z" transform="translate(-4 -4)"/><path class="cls-12" d="M1361.49,426.05l-226.28-97.6c-55.72-24-120.18-6.14-146.66,40.72L683.51,909c-28.5,50.43-2.08,114.46,57.89,140.33l292.91,126.34c60,25.87,129,3,151.27-50.11L1424,557C1444.68,507.63,1417.21,450.08,1361.49,426.05Z" transform="translate(-4 -4)"/><path class="cls-13" d="M1161.58,1159c-31.62,28-82,36.23-127.23,16.72l-293-126.36c-60-25.87-86.41-89.88-57.87-140.31l305-539.82c17.2-30.48,50.45-48.71,87-51.12,0,0-28,21.38-51.73,60.65C933.52,528,785.51,867.79,795.65,933.56,808.46,1016.64,1097.92,1181.11,1161.58,1159Z" transform="translate(-4 -4)"/><path class="cls-14" d="M1013.78,1166.78,741.42,1049.31c-60-25.89-86.43-89.87-57.89-140.32l305-539.79a93.1,93.1,0,0,1,19.13-23.64c-21,32.53-312.06,550.22-285.76,628.47S988.14,1149.15,1013.78,1166.78Z" transform="translate(-4 -4)"/><path class="cls-15" d="M1262.29,942.64C990.19,713.81,1179,347.36,1179,347.36l182.49,78.72c55.73,24,83.17,81.55,62.5,130.93Z" transform="translate(-4 -4)"/><path class="cls-7" d="M1131.07,363.22c-6.33,12.91,22.13,34.56,46.61,45.13s41.19,13.38,48.71,1-29.29-33.22-40.58-37.49S1137.4,350.32,1131.07,363.22Z" transform="translate(-4 -4)"/><path class="cls-16" d="M1141.41,542.48c9.49-2.16,2.52-51.51-22-45.76S1131.92,544.65,1141.41,542.48Z" transform="translate(-4 -4)"/><path class="cls-16" d="M1181.4,477.46c9.48,4,43-32.77,18.36-43.06S1171.93,473.43,1181.4,477.46Z" transform="translate(-4 -4)"/><path class="cls-16" d="M1139.41,579.29c-3,7.93,46.66,38.06,54.19,17.44S1142.38,571.36,1139.41,579.29Z" transform="translate(-4 -4)"/><path class="cls-16" d="M1105.75,716.79c-9.48,2.16-2.51,51.51,22,45.75S1115.24,714.62,1105.75,716.79Z" transform="translate(-4 -4)"/><path class="cls-16" d="M1027.74,769c-9.47-4-43,32.77-18.36,43.06S1037.22,773.06,1027.74,769Z" transform="translate(-4 -4)"/><path class="cls-16" d="M1069.74,667.2c3-7.93-46.66-38.06-54.2-17.44S1066.76,675.13,1069.74,667.2Z" transform="translate(-4 -4)"/><path class="cls-16" d="M980.11,965.44c4.63,8.1,61.12,2.53,49-18.4S975.48,957.34,980.11,965.44Z" transform="translate(-4 -4)"/><path class="cls-16" d="M930.22,1030.39c-3,7.93,46.66,38.06,54.19,17.44S933.19,1022.46,930.22,1030.39Z" transform="translate(-4 -4)"/><path class="cls-17" d="M1147.29,531.87c6-1.36,1.58-32.52-13.89-28.88S1141.3,533.24,1147.29,531.87Z" transform="translate(-4 -4)"/><path class="cls-17" d="M1194.93,467.9c6,2.54,27.13-20.68,11.59-27.18S1189,465.36,1194.93,467.9Z" transform="translate(-4 -4)"/><path class="cls-17" d="M1159.8,580.69c-1.88,5,29.45,24,34.21,11S1161.67,575.68,1159.8,580.69Z" transform="translate(-4 -4)"/><path class="cls-17" d="M1034.74,775.46c-6-2.54-27.13,20.68-11.59,27.18S1040.73,778,1034.74,775.46Z" transform="translate(-4 -4)"/><path class="cls-17" d="M1069.88,662.67c1.88-5-29.46-24-34.21-11S1068,667.68,1069.88,662.67Z" transform="translate(-4 -4)"/><path class="cls-17" d="M950.61,1031.79c-1.88,5,29.45,24,34.21,11S952.48,1026.78,950.61,1031.79Z" transform="translate(-4 -4)"/><path class="cls-18" d="M1143.79,519.88c2.39-.55.63-13-5.56-11.56S1141.39,520.43,1143.79,519.88Z" transform="translate(-4 -4)"/><path class="cls-18" d="M1203.87,457.28c2.39,1,10.85-8.27,4.64-10.87S1201.48,456.27,1203.87,457.28Z" transform="translate(-4 -4)"/><path class="cls-18" d="M1175,582.18c-.76,2,11.78,9.61,13.68,4.4S1175.78,580.18,1175,582.18Z" transform="translate(-4 -4)"/><path class="cls-18" d="M1034.35,778.27c-2.39-1-10.85,8.27-4.64,10.87S1036.74,779.28,1034.35,778.27Z" transform="translate(-4 -4)"/><path class="cls-19" d="M850,657.68c-5.09-34.39-17.89-65.7-47.28-76.31,15.23-30.39,19-96.43-37.94-114.17-2.69-.83-5.12-1.51-7.44-2.12,9.8-29.75,1.4-81.43-44-98.91a64.45,64.45,0,0,0-24.84-4.58C694.18,335,685.57,271,649.94,203.2,609.17,125.63,484.66,88.5,484.66,88.5S508.86,197.44,440,227.75s-56.5,82.33-56.5,82.33l2.23,2.62c-.45,0-.87,0-1.33.09-72,8-98,86.54-88.12,130.79.05.24.16.5.23.74a41,41,0,0,0-7.86,3.46C231.81,481,249.34,547.22,255,566.24c0,0-39.12,24.94-48.71,81s11.37,85.21,11.37,85.21l311.39,178L836.61,729.3S855.52,695.09,850,657.68Z" transform="translate(-4 -4)"/><path class="cls-20" d="M657.48,762.53c-38.61,2.26-214.6-5.17-249.39-35.29s-8.25-64.47-8.25-64.47,74.24,7,123.13,1.08c-50.85-4.09-158.55-30.51-146-107.41,3.4-20.91,12.38-50.48,97.39-36.59s133.47-8.26,148.57-11.29c-102.14,7.69-214.37-42.69-204.66-99.94,4.33-25.5,17.93-30.9,29.39-38.79,3.2,2.26,28.53,16.09,54.66,22,31.47,7.14,64.34,6.32,64.34,6.32s-102.47-32.37-88-85.58,69.27-73.44,67.66-101.54c-3.57-61.61-59.08-119.9-61.58-122.52l-.06-.06s24.21,109-44.62,139.25-56.51,82.34-56.51,82.34,1,.95,2.71,2.61c-.62.05-1.22.06-1.85.13-72,8-98,86.51-88.11,130.8.1.46.35.93.5,1.39a25.3,25.3,0,0,0-8.13,2.78c-56.82,33.28-39.3,99.42-33.61,118.47,0,0-39.11,25-48.75,81s11.39,85.26,11.39,85.26L305,782.42l327.66,67.09,75.1-44.29C692.4,781.82,674.12,761.52,657.48,762.53Z" transform="translate(-4 -4)"/><path class="cls-21" d="M302.36,898.09l58.22,295.71a38.27,38.27,0,0,0,21.36,27c23.79,11.35,71.4,28.18,144.66,28.18s120.88-16.83,144.67-28.18a38.27,38.27,0,0,0,21.36-27l58.22-295.71Z" transform="translate(-4 -4)"/><path class="cls-22" d="M748.05,898.11H706.37l-21.65,23.4-21.59-23.4H621.45l-21.65,23.4-21.59-23.4H536.53l-21.65,23.4-21.59-23.4H451.62L430,921.51l-21.65-23.4H366.7L345,921.51l-21.65-23.4h-21l1.07,5.48,23.28,25.18,5.82,6.26-18.9,20.36,2.38,12,.5,2.56,1.5,7.74,2.88-3L345,948.54l24.22,26.14,5.76,6.19-30,32.33-25.4-27.39,3.63,18.46,3.12,15.83.38.42,5.76,6.19-4,4.29,2.38,12,2.06,10.3,12.08-13.1,24.16,26.14,5.82,6.25-30,32.33-2.44-2.62,3.63,18.4,3.13,15.89,19.9,21.49,5.76,6.2-16.65,18,2.26,11.55a1.42,1.42,0,0,0,.12.47,35.56,35.56,0,0,0,3.13,9l23.65-25.54L411.69,1204l5.76,6.25-17,18.39q4.79,1.8,10.13,3.58c2.88.89,5.89,1.84,9,2.74l10.39-11.2,16.46,17.8c4.26.84,8.7,1.61,13.27,2.39,9,1.42,18.58,2.61,28.85,3.57,1.37.06,2.69.18,4.06.29l22.28-24,23.34,25.19a16.67,16.67,0,0,1,1.76-.06c11.64-.36,22.53-1.13,32.79-2.21l6.51-.71,20.52-22.21,14.9,16.08c3.25-.72,6.38-1.49,9.45-2.26,3.75-1,7.32-2,10.76-3l-22.59-24.35,5.76-6.25,24.21-26.14L666.45,1204l5.76,6.25-15.71,17c5.69-2.21,10.57-4.41,14.77-6.37a38.24,38.24,0,0,0,21.4-27l1.44-7.27-9.39,10.12-29.91-32.38,5.76-6.2L684.72,1132l16.59,17.92,2.06-10.3,2.32-12-8.45-9.11,5.82-6.25,7.19-7.8,3.13-15.89,7.2-36.56-23.34-25.24,5.75-6.19,24.22-26.14,3.88,4.17,2-10.24L740,953.6l-12.77,13.75-30-32.32,5.75-6.26,24.22-26.13L746,922.94l2-10.3,2.38-12Zm-130,30.66,24.21-26.13,24.16,26.13,5.76,6.26-29.92,32.32-30-32.32ZM405.74,974.68,430,948.54l24.16,26.08,5.82,6.25-30,32.33-30-32.33Zm85-.06,24.15-26.08,24.22,26.14,5.76,6.19-30,32.33L485,980.87Zm84.92.06,24.15-26.14L624,974.68l5.76,6.19-30,32.33-29.91-32.33ZM442.48,1118.45l5.82-6.25,24.15-26.07,24.16,26.13,5.76,6.19-29.92,32.33Zm59.89-91.74-29.92,32.39-30-32.39,5.76-6.19,24.21-26.14,24.16,26.14Zm-17.4,45.9,5.76-6.25,24.15-26.14,24.22,26.14,5.76,6.25-30,32.33Zm42.43-45.9,5.76-6.19,24.21-26.14,24.16,26.14,5.76,6.19-29.92,32.39Zm-121.59,39.65L430,1040.22l24.16,26.14,5.82,6.25-30,32.33-30-32.33Zm-.07,91.74L430,1132l24.22,26.13,5.76,6.2-30,32.38-30-32.38Zm79.23,6.2,5.76-6.2L514.88,1132l24.22,26.13,5.76,6.2-30,32.38Zm42.43-45.85,5.76-6.19,24.21-26.13,24.16,26.07,5.76,6.25-29.92,32.33Zm42.49-45.84,5.76-6.25,24.15-26.14L624,1066.36l5.82,6.25-30,32.33Zm42.43-45.9,5.76-6.19,24.21-26.14,24.16,26.14,5.76,6.19-29.92,32.39Zm-79.16-97.94,24.21-26.13,24.16,26.13,5.76,6.26-29.92,32.32L527.4,935Zm-84.86,0,24.15-26.13,24.16,26.13,5.76,6.26-29.92,32.32-30-32.32Zm-85,0,24.21-26.13,24.16,26.13,5.76,6.26-29.92,32.32-30-32.32Zm0,91.75,24.21-26.14,24.16,26.14,5.76,6.19-29.92,32.39-30-32.39Zm.06,91.68,24.15-26.07,24.16,26.07,5.76,6.25-29.92,32.33-30-32.33Zm79.1,98,5.76-6.25,24.21-26.14L496.61,1204l5.76,6.25-29.92,32.33Zm84.92,0,5.82-6.25,24.15-26.14L581.53,1204l5.76,6.25-29.92,32.33Zm72.4-13.52-29.91-32.38,5.76-6.2L599.8,1132,624,1158.1l5.76,6.2Zm42.49-45.9-30-32.33,5.82-6.25,24.15-26.07,24.16,26.07,5.76,6.25Zm42.43-45.84-29.91-32.33,5.76-6.25,24.15-26.14,24.16,26.14,5.82,6.25Zm0-91.74-29.91-32.33,5.76-6.19,24.15-26.14,24.22,26.14,5.76,6.19Z" transform="translate(-4 -4)"/><path class="cls-9" d="M727.21,954.91,703,928.77l-5.75-6.25,22.65-24.41H694.8L684.72,909l-10.07-10.9h-25l22.59,24.41-5.76,6.25-24.16,26.14-24.21-26.14-5.76-6.25L635,898.11H609.88L599.8,909l-10.07-10.9h-25l22.59,24.41-5.76,6.25-24.16,26.14-24.21-26.14-5.76-6.25,22.65-24.41H525L514.88,909l-10.07-10.9h-25l22.59,24.41-5.76,6.25-24.16,26.08L448.3,928.77l-5.82-6.25,22.65-24.41H440L430,909l-10.07-10.9h-25l22.59,24.41-5.76,6.25-24.16,26.14-24.21-26.14-5.76-6.25,22.65-24.41H355.12L345,909,335,898.11h-25.1l22.66,24.41-5.82,6.25-15.08,16.32,2,10.3,2.38,12L345,936l30,32.39-5.76,6.25L345,1000.75l-24.15-26.13-4.38-4.71,1.5,7.74,1.63,8.16,3.63,18.46,9.26,10-5.76,6.25-.25.24,2,10.24,2.38,12L345,1027.78l30,32.33-5.82,6.25L345,1092.44l-5.57-6,3.13,15.9,3.63,18.4L375,1151.85l-5.76,6.25L356.31,1172l2.06,10.24,2.26,11.55a1.42,1.42,0,0,0,.12.47l26.78-28.93,29.92,32.33-5.76,6.25L392,1225.26c2.63,1.07,5.44,2.2,8.45,3.33q4.79,1.8,10.13,3.58l19.4-21,30,32.39-.25.3c9,1.42,18.58,2.61,28.85,3.57L485,1243.6l29.91-32.39,30,32.33-4.88,5.3c11.64-.36,22.53-1.13,32.79-2.21l-2.88-3.09,29.91-32.33,24.35,26.32c3.75-1,7.32-2,10.76-3,8.13-2.38,15.33-4.94,21.59-7.38,5.69-2.21,10.57-4.41,14.77-6.37a38.24,38.24,0,0,0,21.4-27l1.44-7.27,3.13-15.83-12.52,13.45-24.15-26.08-5.76-6.25,29.91-32.38,18.65,20.12,2.32-12,2.06-10.3-4.69-5.06-5.82-6.25,16.14-17.44,7.2-36.56,2.06-10.3L703,1020.52l-5.75-6.25,30-32.33,5.88,6.37L740,953.6l3.07-15.84ZM624,1158.1l-24.22,26.08-24.15-26.08-5.76-6.25,29.91-32.38,30,32.38Zm-84.92,0-24.22,26.08-24.15-26.08-5.76-6.25,29.91-32.32,30,32.32Zm-84.92,0L430,1184.18l-24.22-26.08-5.75-6.25,30-32.38,30,32.38Zm133.11-143.83-5.76,6.25-24.16,26.08-24.21-26.08-5.76-6.25,30-32.33ZM527.4,1106l30-32.39L587.29,1106l-5.76,6.25-24.16,26.14-24.21-26.08Zm-84.92-.06,30-32.33L502.37,1106l-5.76,6.25-24.16,26.08L448.3,1112.2Zm102.38-45.84-5.76,6.25-24.22,26.14-24.15-26.14-5.76-6.25,29.91-32.33Zm-42.49-45.84-5.76,6.25-24.16,26.08-24.21-26.08-5.76-6.25,30-32.39Zm-42.43,45.84-5.82,6.25L430,1092.44l-24.15-26.08-5.82-6.25,30-32.33Zm164,6.25-24.16,26.08-24.15-26.08-5.76-6.25,29.91-32.33,30,32.33Zm42.49-45.84-24.16,26.08-24.21-26.08-5.76-6.25,30-32.33,29.92,32.33ZM599.8,936l30,32.39L624,974.68l-24.22,26.07-24.15-26.07-5.76-6.25Zm-84.92,0,30,32.39-5.76,6.25-24.22,26.07-24.15-26.13L485,968.37ZM430,936l30,32.33-5.82,6.25L430,1000.75l-24.22-26.07L400,968.43Zm-42.43,45.9,29.92,32.33-5.76,6.25-24.16,26.08-24.21-26.08-5.76-6.25Zm0,91.68L417.45,1106l-5.76,6.25-24.16,26.14-24.15-26.14-5.82-6.25ZM496.61,1204l-24.16,26.13L448.24,1204l-5.76-6.25,30-32.33,29.92,32.33Zm84.92,0L557.37,1230,533.22,1204l-5.82-6.25,30-32.33,29.92,32.33Zm84.92,0-24.16,26.13L618.08,1204l-5.76-6.25,30-32.33,29.92,32.33Zm0-91.75-24.16,26.14-24.15-26.14-5.82-6.25,30-32.33L672.21,1106Zm42.43-45.84-24.16,26.08-24.15-26.08-5.76-6.25,29.91-32.33,30,32.33Zm.06-91.68-24.22,26.07-24.15-26.07-5.76-6.25L684.72,936l30,32.39Zm25.59-76.57L748,912.64l2.38-12,.5-2.56Zm0,0L748,912.64l2.38-12,.5-2.56Zm-7.32,56.8L703,928.77l-5.75-6.25,22.65-24.41H694.8L684.72,909l-10.07-10.9h-25l22.59,24.41-5.76,6.25-24.16,26.14-24.21-26.14-5.76-6.25L635,898.11H609.88L599.8,909l-10.07-10.9h-25l22.59,24.41-5.76,6.25-24.16,26.14-24.21-26.14-5.76-6.25,22.65-24.41H525L514.88,909l-10.07-10.9h-25l22.59,24.41-5.76,6.25-24.16,26.08L448.3,928.77l-5.82-6.25,22.65-24.41H440L430,909l-10.07-10.9h-25l22.59,24.41-5.76,6.25-24.16,26.14-24.21-26.14-5.76-6.25,22.65-24.41H355.12L345,909,335,898.11h-25.1l22.66,24.41-5.82,6.25-15.08,16.32,2,10.3,2.38,12L345,936l30,32.39-5.76,6.25L345,1000.75l-24.15-26.13-4.38-4.71,1.5,7.74,1.63,8.16,3.63,18.46,9.26,10-5.76,6.25-.25.24,2,10.24,2.38,12L345,1027.78l30,32.33-5.82,6.25L345,1092.44l-5.57-6,3.13,15.9,3.63,18.4L375,1151.85l-5.76,6.25L356.31,1172l2.06,10.24,2.26,11.55a1.42,1.42,0,0,0,.12.47l26.78-28.93,29.92,32.33-5.76,6.25L392,1225.26c2.63,1.07,5.44,2.2,8.45,3.33q4.79,1.8,10.13,3.58l19.4-21,30,32.39-.25.3c9,1.42,18.58,2.61,28.85,3.57L485,1243.6l29.91-32.39,30,32.33-4.88,5.3c11.64-.36,22.53-1.13,32.79-2.21l-2.88-3.09,29.91-32.33,24.35,26.32c3.75-1,7.32-2,10.76-3,8.13-2.38,15.33-4.94,21.59-7.38,5.69-2.21,10.57-4.41,14.77-6.37a38.24,38.24,0,0,0,21.4-27l1.44-7.27,3.13-15.83-12.52,13.45-24.15-26.08-5.76-6.25,29.91-32.38,18.65,20.12,2.32-12,2.06-10.3-4.69-5.06-5.82-6.25,16.14-17.44,7.2-36.56,2.06-10.3L703,1020.52l-5.75-6.25,30-32.33,5.88,6.37L740,953.6l3.07-15.84ZM624,1158.1l-24.22,26.08-24.15-26.08-5.76-6.25,29.91-32.38,30,32.38Zm-84.92,0-24.22,26.08-24.15-26.08-5.76-6.25,29.91-32.32,30,32.32Zm-84.92,0L430,1184.18l-24.22-26.08-5.75-6.25,30-32.38,30,32.38Zm133.11-143.83-5.76,6.25-24.16,26.08-24.21-26.08-5.76-6.25,30-32.33ZM527.4,1106l30-32.39L587.29,1106l-5.76,6.25-24.16,26.14-24.21-26.08Zm-84.92-.06,30-32.33L502.37,1106l-5.76,6.25-24.16,26.08L448.3,1112.2Zm102.38-45.84-5.76,6.25-24.22,26.14-24.15-26.14-5.76-6.25,29.91-32.33Zm-42.49-45.84-5.76,6.25-24.16,26.08-24.21-26.08-5.76-6.25,30-32.39Zm-42.43,45.84-5.82,6.25L430,1092.44l-24.15-26.08-5.82-6.25,30-32.33Zm164,6.25-24.16,26.08-24.15-26.08-5.76-6.25,29.91-32.33,30,32.33Zm42.49-45.84-24.16,26.08-24.21-26.08-5.76-6.25,30-32.33,29.92,32.33ZM599.8,936l30,32.39L624,974.68l-24.22,26.07-24.15-26.07-5.76-6.25Zm-84.92,0,30,32.39-5.76,6.25-24.22,26.07-24.15-26.13L485,968.37ZM430,936l30,32.33-5.82,6.25L430,1000.75l-24.22-26.07L400,968.43Zm-42.43,45.9,29.92,32.33-5.76,6.25-24.16,26.08-24.21-26.08-5.76-6.25Zm0,91.68L417.45,1106l-5.76,6.25-24.16,26.14-24.15-26.14-5.82-6.25ZM496.61,1204l-24.16,26.13L448.24,1204l-5.76-6.25,30-32.33,29.92,32.33Zm84.92,0L557.37,1230,533.22,1204l-5.82-6.25,30-32.33,29.92,32.33Zm84.92,0-24.16,26.13L618.08,1204l-5.76-6.25,30-32.33,29.92,32.33Zm0-91.75-24.16,26.14-24.15-26.14-5.82-6.25,30-32.33L672.21,1106Zm42.43-45.84-24.16,26.08-24.15-26.08-5.76-6.25,29.91-32.33,30,32.33Zm.06-91.68-24.22,26.07-24.15-26.07-5.76-6.25L684.72,936l30,32.39Zm25.59-76.57L748,912.64l2.38-12,.5-2.56Zm-7.32,56.8L703,928.77l-5.75-6.25,22.65-24.41H694.8L684.72,909l-10.07-10.9h-25l22.59,24.41-5.76,6.25-24.16,26.14-24.21-26.14-5.76-6.25L635,898.11H609.88L599.8,909l-10.07-10.9h-25l22.59,24.41-5.76,6.25-24.16,26.14-24.21-26.14-5.76-6.25,22.65-24.41H525L514.88,909l-10.07-10.9h-25l22.59,24.41-5.76,6.25-24.16,26.08L448.3,928.77l-5.82-6.25,22.65-24.41H440L430,909l-10.07-10.9h-25l22.59,24.41-5.76,6.25-24.16,26.14-24.21-26.14-5.76-6.25,22.65-24.41H355.12L345,909,335,898.11h-25.1l22.66,24.41-5.82,6.25-15.08,16.32,2,10.3,2.38,12L345,936l30,32.39-5.76,6.25L345,1000.75l-24.15-26.13-4.38-4.71,1.5,7.74,1.63,8.16,3.63,18.46,9.26,10-5.76,6.25-.25.24,2,10.24,2.38,12L345,1027.78l30,32.33-5.82,6.25L345,1092.44l-5.57-6,3.13,15.9,3.63,18.4L375,1151.85l-5.76,6.25L356.31,1172l2.06,10.24,2.26,11.55a1.42,1.42,0,0,0,.12.47l26.78-28.93,29.92,32.33-5.76,6.25L392,1225.26c2.63,1.07,5.44,2.2,8.45,3.33q4.79,1.8,10.13,3.58l19.4-21,30,32.39-.25.3c9,1.42,18.58,2.61,28.85,3.57L485,1243.6l29.91-32.39,30,32.33-4.88,5.3c11.64-.36,22.53-1.13,32.79-2.21l-2.88-3.09,29.91-32.33,24.35,26.32c3.75-1,7.32-2,10.76-3,8.13-2.38,15.33-4.94,21.59-7.38,5.69-2.21,10.57-4.41,14.77-6.37a38.24,38.24,0,0,0,21.4-27l1.44-7.27,3.13-15.83-12.52,13.45-24.15-26.08-5.76-6.25,29.91-32.38,18.65,20.12,2.32-12,2.06-10.3-4.69-5.06-5.82-6.25,16.14-17.44,7.2-36.56,2.06-10.3L703,1020.52l-5.75-6.25,30-32.33,5.88,6.37L740,953.6l3.07-15.84ZM624,1158.1l-24.22,26.08-24.15-26.08-5.76-6.25,29.91-32.38,30,32.38Zm-84.92,0-24.22,26.08-24.15-26.08-5.76-6.25,29.91-32.32,30,32.32Zm-84.92,0L430,1184.18l-24.22-26.08-5.75-6.25,30-32.38,30,32.38Zm133.11-143.83-5.76,6.25-24.16,26.08-24.21-26.08-5.76-6.25,30-32.33ZM527.4,1106l30-32.39L587.29,1106l-5.76,6.25-24.16,26.14-24.21-26.08Zm-84.92-.06,30-32.33L502.37,1106l-5.76,6.25-24.16,26.08L448.3,1112.2Zm102.38-45.84-5.76,6.25-24.22,26.14-24.15-26.14-5.76-6.25,29.91-32.33Zm-42.49-45.84-5.76,6.25-24.16,26.08-24.21-26.08-5.76-6.25,30-32.39Zm-42.43,45.84-5.82,6.25L430,1092.44l-24.15-26.08-5.82-6.25,30-32.33Zm164,6.25-24.16,26.08-24.15-26.08-5.76-6.25,29.91-32.33,30,32.33Zm42.49-45.84-24.16,26.08-24.21-26.08-5.76-6.25,30-32.33,29.92,32.33ZM599.8,936l30,32.39L624,974.68l-24.22,26.07-24.15-26.07-5.76-6.25Zm-84.92,0,30,32.39-5.76,6.25-24.22,26.07-24.15-26.13L485,968.37ZM430,936l30,32.33-5.82,6.25L430,1000.75l-24.22-26.07L400,968.43Zm-42.43,45.9,29.92,32.33-5.76,6.25-24.16,26.08-24.21-26.08-5.76-6.25Zm0,91.68L417.45,1106l-5.76,6.25-24.16,26.14-24.15-26.14-5.82-6.25ZM496.61,1204l-24.16,26.13L448.24,1204l-5.76-6.25,30-32.33,29.92,32.33Zm84.92,0L557.37,1230,533.22,1204l-5.82-6.25,30-32.33,29.92,32.33Zm84.92,0-24.16,26.13L618.08,1204l-5.76-6.25,30-32.33,29.92,32.33Zm0-91.75-24.16,26.14-24.15-26.14-5.82-6.25,30-32.33L672.21,1106Zm42.43-45.84-24.16,26.08-24.15-26.08-5.76-6.25,29.91-32.33,30,32.33Zm.06-91.68-24.22,26.07-24.15-26.07-5.76-6.25L684.72,936l30,32.39Z" transform="translate(-4 -4)"/><path class="cls-23" d="M411.35,997.23c-7.82,29.76-9,152.53,55.28,202.14s152.74,39,156.49,38.38c-24.84,6.37-57,11.25-96.49,11.25-73.28,0-120.91-16.85-144.69-28.22a38,38,0,0,1-21.34-27L302.34,898.1H750.85l-5.2,26.43s-30,25.78-148.9,48.11S415.54,981.3,411.35,997.23Z" transform="translate(-4 -4)"/><path class="cls-23" d="M750.85,898.09C639,961.92,404.28,950.37,366,951.85c-37.36,1.43-37.49,75.49-37.49,79L302.34,898.09Z" transform="translate(-4 -4)"/><path class="cls-24" d="M526.6,791.8,219.45,759.67S235.81,826.88,252.82,865a46.91,46.91,0,0,0,23.31,23.31c28.52,13.21,99.84,36.24,250.47,36.24s222-23,250.48-36.24A46.91,46.91,0,0,0,800.39,865c17-38.08,33.37-105.29,33.37-105.29Z" transform="translate(-4 -4)"/><path class="cls-23" d="M766.24,892.85c-34.11,13.34-105.32,31.68-239.61,31.68-150.63,0-222-23-250.51-36.26A47.18,47.18,0,0,1,252.84,865c-17-38.1-33.41-105.32-33.41-105.32L355.72,774s-6.94,75.69,57.2,106.45S680,909.76,766.24,892.85Z" transform="translate(-4 -4)"/><path class="cls-23" d="M833.76,759.67s-1.06,4.41-2.94,11.61c0,0-91,29.75-260.93,40.17S227.6,790.91,227.6,790.91l-8.17-31.24,307.2,32.15Z" transform="translate(-4 -4)"/><path class="cls-25" d="M834.93,727.79c-32.39,17.08-190.12,42.55-308.33,42.55s-275.93-25.47-308.32-42.55c-6.3-3.33-13.95,1.23-13.63,8.08l.24,5.37a20.61,20.61,0,0,0,8.82,15.83C236.84,773.5,378.24,802,526.6,802s289.77-28.47,312.9-44.9a20.6,20.6,0,0,0,8.81-15.83l.25-5.37C848.88,729,841.23,724.46,834.93,727.79Z" transform="translate(-4 -4)"/><path class="cls-4" d="M603.35,1022.57c-31.5,30.2-27.32,155-11.68,174.11s69.74,14.54,86-20.17,37.22-163.23,30.11-177.4S634.86,992.36,603.35,1022.57Z" transform="translate(-4 -4)"/><path class="cls-6" d="M539.47,339.52c-7.5,2.16-12.55,3.85-14.19,10.08s5.54,20.81,26.22,25.44c31,6.93,35-17.81,29.68-22.57S547,337.36,539.47,339.52Z" transform="translate(-4 -4)"/><path class="cls-6" d="M595.59,470.61c-.4.37-14.48,14.59-7.83,24.66s16.56,9.2,24.25,2.87,16.82-13.51,12.91-24.43S595.59,470.61,595.59,470.61Z" transform="translate(-4 -4)"/><path class="cls-6" d="M610.38,608S593.76,612,595,624.6s13.5,13.67,22.49,11.81,18.38-8.56,17.8-17.58S610.38,608,610.38,608Z" transform="translate(-4 -4)"/><path class="cls-6" d="M552.42,664.33s-19.94.51-19.16,16,29.86,21.45,42.25,17.36,9.9-18.6,9.9-18.6Z" transform="translate(-4 -4)"/><path class="cls-26" d="M536.48,340.58c-4.65,7.87,28.13,31.37,37.42,26.17s13.11-23.38,0-30.14S541.12,332.71,536.48,340.58Z" transform="translate(-4 -4)"/><path class="cls-7" d="M557,337.78c-2.32,4.42,16.8,19.1,20.21,13.38s-3.27-11.43-7.1-13.38S559.28,333.36,557,337.78Z" transform="translate(-4 -4)"/><path class="cls-26" d="M599,464c-8.86,9.85-10.43,27.72.52,30.94S629,478.29,628.44,469,607.83,454.13,599,464Z" transform="translate(-4 -4)"/><path class="cls-26" d="M548.54,666.08c-7,7.63,4.89,31.63,26.21,27.91s14.08-19.54,6.65-25.49S555.58,658.45,548.54,666.08Z" transform="translate(-4 -4)"/><path class="cls-7" d="M557.58,666.55c-2.05,3.25,15.35,19.35,20.73,16.18s3.23-10.14-3-14.69S559.63,663.29,557.58,666.55Z" transform="translate(-4 -4)"/><path class="cls-27" d="M836.63,729.31s-70.39,30.36-258.51,39.62c10.64.06,100.9-15.78,100-67.87s-43.64-65.88-43.64-65.88,49.71-1.34,53.19-63.86-46.56-74.91-46.56-74.91,35.14-21.34,23.61-67.48S604.52,387,604.52,387s40.87-30.48,17.4-134c-23-101.39-132.85-162.18-137.17-164.5,3.82,1.13,125,38.28,165.21,114.67C685.56,271,694.2,335,688.44,361.62a64.89,64.89,0,0,1,24.85,4.52c45.43,17.51,53.81,69.18,44.05,98.95,2.32.6,4.76,1.25,7.45,2.09,57,17.74,53.13,83.82,37.92,114.19C832.12,592,844.89,623.28,850,657.69,855.53,695.08,836.63,729.31,836.63,729.31Z" transform="translate(-4 -4)"/><path class="cls-7" d="M560,139.2c-11,7.44,52.15,51.1,48.5,93.27s-68.32,31.75-66.75,71.44,73,58,105.34,34.73,20.86-83.35.52-117.09S570.93,131.75,560,139.2Z" transform="translate(-4 -4)"/><path class="cls-7" d="M759.55,476.31c-16.38,1.87-19.77,33.37-85.22,46.52S565.6,530.27,565.6,543.29s35.29,19.45,71,17.86c34.22-1.52,67.38-9.3,69.57-5.39s-31.83,7.25-31.83,17.49,41.07,14.88,79.59-5.21,39.31-45.59,37-63.45S775.93,474.45,759.55,476.31Z" transform="translate(-4 -4)"/><path class="cls-7" d="M812.53,628.63c-25.3-8.69-46.39,11.56-119.87,23.2s-139.58.41-139.58,18.35,95.75,23,138.07,20.09,84.11-11.42,91.65-7.07c17.21,9.92,12.78,36.77,30.51,35S837.82,637.31,812.53,628.63Z" transform="translate(-4 -4)"/></g></g></svg>