<svg xmlns="http://www.w3.org/2000/svg" viewBox="0 0 1500 1500"><defs><style>.cls-1{fill:#fff;}.cls-2{fill:#fca100;}.cls-11,.cls-12,.cls-15,.cls-16,.cls-17,.cls-19,.cls-2,.cls-20,.cls-23,.cls-24,.cls-25,.cls-26,.cls-27,.cls-28,.cls-29,.cls-3,.cls-30,.cls-31,.cls-32,.cls-33,.cls-34,.cls-35,.cls-36,.cls-37,.cls-38,.cls-4,.cls-5,.cls-6,.cls-7,.cls-8,.cls-9{fill-rule:evenodd;}.cls-3{fill:#d8d9d9;}.cls-13,.cls-4{fill:#c3c4c4;}.cls-5{fill:#c34b11;}.cls-10,.cls-6{fill:#ebebeb;}.cls-7{fill:#dfe1e1;}.cls-8{fill:#fdfdfd;}.cls-9{fill:#a93100;}.cls-11{fill:#ff8b0e;}.cls-12{fill:#fb8000;}.cls-14,.cls-17{fill:#2a383d;}.cls-15,.cls-18{fill:#39474b;}.cls-16{fill:#f30d2c;}.cls-19,.cls-39{fill:#fff9dc;}.cls-20,.cls-21{fill:#ebe6c4;}.cls-22{fill:#d4ceac;}.cls-23{fill:#0090a2;}.cls-24{fill:#008496;}.cls-25{fill:#00b0c5;}.cls-26{fill:#ff6e00;}.cls-27{fill:#ff7f00;}.cls-28{fill:#ff9729;}.cls-29{fill:#dd2400;}.cls-30{fill:#f73f00;}.cls-31{fill:#828070;}.cls-32{fill:#00b6c6;}.cls-33{fill:#00abba;}.cls-34{fill:#00d3e3;}.cls-35{fill:#ff5913;}.cls-36{fill:#ff641d;}.cls-37{fill:#fcca8d;}.cls-38{fill:#ffd699;}</style></defs><g id="ƒŒƒCƒ__6" data-name="ƒŒƒCƒ„[_6"><rect class="cls-1" width="1500" height="1500" rx="418.14"/><path class="cls-2" d="M297.2,1223.29c104.53,0,189.28,15.83,189.28,35.23s-84.75,35.24-189.28,35.24S108,1278,108,1258.52s84.76-35.23,189.2-35.23Z" transform="translate(-4 -4)"/><path class="cls-2" d="M398.68,1250.32c64.28,0,116.37,10.43,116.37,23.26s-52.09,23.27-116.37,23.27-116.29-10.43-116.29-23.27,52.09-23.26,116.29-23.26Z" transform="translate(-4 -4)"/><path class="cls-2" d="M523,1203.5c86.76,0,157,14,157,31.37s-70.29,31.38-157,31.38-157-14.1-157-31.38S436.31,1203.5,523,1203.5Z" transform="translate(-4 -4)"/><path class="cls-2" d="M734.65,1228.89c78.83,0,142.68,13.22,142.68,29.44s-63.85,29.35-142.68,29.35S592,1274.55,592,1258.33s63.94-29.44,142.68-29.44Z" transform="translate(-4 -4)"/><path class="cls-2" d="M1043.27,1237.67c64.72.87,116.12,14.68,116.12,31.57,0,17.57-54.88,31.76-122.56,31.76s-122.65-14.19-122.65-31.76c0-5,4.62-9.85,12.89-14.09-18.73,1.06-38.5,1.73-59,1.73-114,0-206.53-18.34-206.53-40.83s92.51-40.74,206.53-40.74,206.53,18.25,206.53,40.74c0,7.91-11.5,15.35-31.36,21.62Z" transform="translate(-4 -4)"/><path class="cls-2" d="M1234.13,1222.32c98.25,0,177.87,14.1,177.87,31.67s-79.62,31.66-177.87,31.66-178-14.19-178-31.66,79.7-31.67,178-31.67Z" transform="translate(-4 -4)"/><polygon class="cls-3" points="579.96 592.2 624.64 597.51 620.11 644.62 575.43 639.31 579.96 592.2"/><path class="cls-4" d="M584,596.2l2.35.29-1,10.81c-1.22,12.16,6.8,23.26,17.86,24.52h0c11,1.35,21-7.63,22.12-19.79l1-10.81,2.35.29-4.53,47.11-44.68-5.31Z" transform="translate(-4 -4)"/><polygon class="cls-5" points="635.53 691.73 618.11 872.92 533.79 862.98 551.3 681.78 635.53 691.73"/><path class="cls-6" d="M569.5,588.47l17.33,2-2.09,22.3c-1.22,12.16,6.79,23.27,17.86,24.52h0c11,1.35,21-7.63,22.12-19.79l2.18-22.3,17.33,2a5.35,5.35,0,0,1,4.27,5.89l-9,92.58-84.23-10,8.88-92.58c.35-2.89,2.7-5.11,5.32-4.73Z" transform="translate(-4 -4)"/><path class="cls-7" d="M640.31,688.39l-.78,7.34-84.23-10,7.84-81.67s-7.41,82,77.17,84.28Z" transform="translate(-4 -4)"/><path class="cls-8" d="M605.21,610a4,4,0,0,1,3.31,4.44c-.26,2.32-2.09,4-4.09,3.67a4,4,0,0,1-3.31-4.54,3.8,3.8,0,0,1,4.09-3.57Z" transform="translate(-4 -4)"/><polygon class="cls-9" points="635.53 691.73 633.79 709.87 549.55 699.93 551.3 681.78 635.53 691.73"/><path class="cls-6" d="M460.79,672.94h50.43a3.1,3.1,0,0,1,3,3.28v18.83H457.82V676.22a3.11,3.11,0,0,1,3-3.28Z" transform="translate(-4 -4)"/><rect class="cls-10" x="470.81" y="634" width="22.39" height="34.95"/><path class="cls-6" d="M497.2,638c8-1.07,8.45-5.41,8.36-13.23H475.51c-17.42,0-18.38-5.31-38.77,3.67-2.61,1.35-1.48,5.89,1.75,4.34,9.06-5.88,24.82-2,36.32,5.22Z" transform="translate(-4 -4)"/><path class="cls-11" d="M454,695.05h64c9.32,0,16.89,8.49,16.89,18.82v99.24H437.09V713.87c0-10.33,7.58-18.82,16.9-18.82Z" transform="translate(-4 -4)"/><path class="cls-12" d="M454,695.05h64a16.19,16.19,0,0,1,7.92,2.22c-47.56,3.38-76.48,26.64-88.85,58.6v-42c0-10.33,7.58-18.82,16.9-18.82Z" transform="translate(-4 -4)"/><polygon class="cls-3" points="470.81 641.62 493.2 637.86 493.2 634 470.81 634 470.81 641.62"/><path class="cls-13" d="M466,678.93h-.17a1.86,1.86,0,0,0-1.83,1.93v14.19h3.74V680.86A1.85,1.85,0,0,0,466,678.93Z" transform="translate(-4 -4)"/><path class="cls-13" d="M476,678.93h-.17a1.85,1.85,0,0,0-1.75,1.93v14.19h3.75V680.86A1.92,1.92,0,0,0,476,678.93Z" transform="translate(-4 -4)"/><path class="cls-13" d="M496.15,678.93H496a1.86,1.86,0,0,0-1.83,1.93v14.19h3.74V680.86A1.85,1.85,0,0,0,496.15,678.93Z" transform="translate(-4 -4)"/><path class="cls-13" d="M506.17,678.93H506a1.85,1.85,0,0,0-1.74,1.93v14.19H508V680.86A1.87,1.87,0,0,0,506.17,678.93Z" transform="translate(-4 -4)"/><path class="cls-13" d="M486.13,678.93h-.26a1.85,1.85,0,0,0-1.74,1.93v14.19h3.75V680.86A1.85,1.85,0,0,0,486.13,678.93Z" transform="translate(-4 -4)"/><path class="cls-14" d="M1173.15,1172.71V433.63c0-35.62-13.15-68-34.32-91.42s-50.35-38-82.49-38-61.24,14.57-82.4,38-34.32,55.8-34.32,91.42v739.08H898.85V433.63c0-48.07,17.77-91.71,46.25-123.37S1013.05,259,1056.34,259s82.75,19.69,111.24,51.26,46.25,75.3,46.25,123.37v739.08Z" transform="translate(-4 -4)"/><path class="cls-15" d="M894.15,947.3h50.26a2,2,0,0,1,1.83,2.12v56h-54v-56a2,2,0,0,1,1.92-2.12Z" transform="translate(-4 -4)"/><polygon class="cls-16" points="696.85 443.53 722.99 448.65 637.71 987.03 611.58 981.91 696.85 443.53"/><path class="cls-15" d="M698.33,447.05l31.1,6.08a1.22,1.22,0,0,0,1.39-1.06l11.41-71.92-33.45-6.56-11.41,72a1.28,1.28,0,0,0,1,1.45Z" transform="translate(-4 -4)"/><path class="cls-15" d="M650.94,362.39l149.13,29a3,3,0,0,0,3.4-2.61l2-12.55L650.59,346.07l-2,12.46a3.37,3.37,0,0,0,2.35,3.86Z" transform="translate(-4 -4)"/><polygon class="cls-17" points="704.78 369.59 738.23 376.15 735.36 394.2 701.91 387.74 704.78 369.59"/><path class="cls-3" d="M805.47,376.19c4-18.43,8.88-36.29,15.85-52.7l-15.68-3-12.1,25.39,7.4-26.35-17.07-3.28L779,332.56l1.74-17-21-4.06-9.41,35.82,2.61-37.17-11.76-2.22-6.88,20.18-.61-21.63-16.55-3.28-6.27,16.7.44-17.85-20.56-4-4.7,29.63.78-30.41L669.32,294l-1.83,20.75-2.7-21.62-13-2.51c1.48,17.95.61,36.58-1.22,55.5q77.35,15.06,154.88,30.12Z" transform="translate(-4 -4)"/><path class="cls-6" d="M808.52,363.16a263.46,263.46,0,0,1,12.8-39.67l-15.68-3-12.1,25.39,7.4-26.35-17.07-3.28L779,332.56l1.74-17-21-4.06-9.41,35.82,2.61-37.17-11.76-2.22-6.88,20.18-.61-21.63-16.55-3.28-6.27,16.7.44-17.85-20.56-4-4.7,29.63.78-30.41L669.32,294l-1.83,20.75-2.7-21.62-13-2.51a284.42,284.42,0,0,1-.08,42.09A490.14,490.14,0,0,0,729.16,354a482.54,482.54,0,0,0,79.36,9.17Z" transform="translate(-4 -4)"/><path class="cls-18" d="M379.43,558c-.87-7.14-6.8-12.07-13.33-11.1s-10.89,7.62-10,14.77l21.69,172.12a17.23,17.23,0,0,0,1.48,4.83l58.63,129c2.87,6.47,9.93,9.07,15.76,5.79s8.19-11.1,5.23-17.47l-58-127.82Z" transform="translate(-4 -4)"/><polygon class="cls-19" points="372.38 718.37 313.75 734.88 291.63 559.09 352.08 557.83 372.38 718.37"/><path class="cls-20" d="M376.38,722.37,357,727.87c4.36-24.62,4.79-57.63.35-93.35-3.48-27.32-9.32-52.22-16.37-72.4l15.15-.29Z" transform="translate(-4 -4)"/><polygon class="cls-21" points="354.96 580.23 294.59 582.64 295.46 589.49 355.48 584.76 354.96 580.23"/><polygon class="cls-21" points="358.27 606.58 298.07 610.54 299.03 617.78 358.79 610.73 358.27 606.58"/><polygon class="cls-21" points="368.98 691.63 309.75 703.02 310.79 710.94 369.59 696.36 368.98 691.63"/><polygon class="cls-21" points="365.32 662.86 306.09 674.25 306.96 680.82 365.85 666.91 365.32 662.86"/><polygon class="cls-21" points="361.4 631.39 301.65 638.82 302.52 645.77 361.84 635.35 361.4 631.39"/><path class="cls-22" d="M360.35,673.14l9.49-2.23-.52-4-9.14,1.74C360.18,670.14,360.26,671.69,360.35,673.14Z" transform="translate(-4 -4)"/><path class="cls-22" d="M359,584.23l-11.15.38c.43,1.64.78,3.28,1.22,4.93l10.45-.78Z" transform="translate(-4 -4)"/><path class="cls-22" d="M362.27,610.58l-8.63.58c.35,1.54.61,3.09.87,4.54l8.28-1Z" transform="translate(-4 -4)"/><path class="cls-22" d="M365.4,635.39l-7.92,1c.17,1.44.34,2.89.52,4.34l7.84-1.35Z" transform="translate(-4 -4)"/><path class="cls-22" d="M373,695.63l-12.89,2.51c-.09,1.93-.18,3.76-.26,5.6l13.76-3.38Z" transform="translate(-4 -4)"/><path class="cls-23" d="M368.1,822.19H707.56c-4.35,76.26-8.62,148.56-12.54,217.3q-5.76,98-10.89,187.08c-.35,5.5-4.62,9.85-9.58,9.85H401c-4.88,0-9.15-4.35-9.49-9.85q-5.1-89.05-10.81-187.08-6-103.11-12.63-217.3Z" transform="translate(-4 -4)"/><path class="cls-24" d="M628.64,1071.92s-66.29,58.7-196.16,26.74l9.58-37,19.25,9.94L510.09,1083l41.64,2.61,60.45-12.55Z" transform="translate(-4 -4)"/><path class="cls-24" d="M368.1,822.19h82.06l5.92,414.23H401c-4.88,0-9.15-4.35-9.49-9.85q-5.1-89.05-10.81-187.08-6-103.11-12.63-217.3Z" transform="translate(-4 -4)"/><path class="cls-24" d="M368.1,822.19H707.56l-1,16.7H369.06Z" transform="translate(-4 -4)"/><path class="cls-23" d="M356.78,822.19H719c2.44,0,4.44-2.32,4.44-5v-38a4.72,4.72,0,0,0-4.44-4.92H356.78a4.79,4.79,0,0,0-4.53,4.92v38a4.88,4.88,0,0,0,4.53,5Z" transform="translate(-4 -4)"/><path class="cls-25" d="M654.34,850h28.48c-3.39,66-6.7,128.58-9.75,188.14q-4.44,84.86-8.45,162c-.26,4.73-3.57,8.5-7.41,8.5H635.35a8.79,8.79,0,0,0,.43-2.32q4.19-79.93,8.72-167.88Z" transform="translate(-4 -4)"/><path class="cls-24" d="M352.25,782.7H339.71c-7.32,0-13.24,6.66-13.24,14.68h0c0,8.11,5.92,14.67,13.24,14.67h12.54Z" transform="translate(-4 -4)"/><path class="cls-24" d="M352.25,782.7H339.71c-7.32,0-13.24,6.66-13.24,14.68h0c0,8.11,5.92,14.67,13.24,14.67h12.54Z" transform="translate(-4 -4)"/><path class="cls-24" d="M723.41,782.7h12.64c7.23,0,13.15,6.66,13.15,14.68h0c0,8.11-5.92,14.67-13.15,14.67H723.41Z" transform="translate(-4 -4)"/><path class="cls-18" d="M730.12,800.66c0-3.86,2.79-6.95,6.19-6.95s6.27,3.09,6.27,6.95V869.1c0,107.35-53.22,176.08-121.26,206.2a207.15,207.15,0,0,1-167,0c-68-30.12-121.17-98.85-121.17-206.2V800.66c0-3.86,2.79-6.95,6.19-6.95s6.27,3.09,6.27,6.95V869.1c0,100.88,49.65,165.27,113.33,193.46a196.66,196.66,0,0,0,157.75,0C680.38,1034.37,730.12,970,730.12,869.1Z" transform="translate(-4 -4)"/><path class="cls-17" d="M768,1062.85c48.26,0,87.37,43.34,87.37,96.82S816.27,1256.5,768,1256.5s-87.37-43.35-87.37-96.83,39.12-96.82,87.37-96.82Z" transform="translate(-4 -4)"/><path class="cls-26" d="M652.33,948.07H818.8c114,0,207.31,103.39,207.31,229.75h0c0,21.24-15.59,38.52-34.67,38.52H545.72c-19.69,0-35.81-17.86-35.81-39.68V1105.9c0-86.88,64.12-157.83,142.42-157.83Z" transform="translate(-4 -4)"/><path class="cls-27" d="M662.26,948.07H818.8c114,0,207.31,103.39,207.31,229.75h0c0,21.24-15.59,38.52-34.67,38.52H571.67c-11.93-6.66-20.21-20.66-20.21-36.78v-73c0-77,47.57-142,110.8-158.51Z" transform="translate(-4 -4)"/><path class="cls-28" d="M817.93,948.07h.87c82.05,0,153.39,53.57,186.93,130.71a119.85,119.85,0,0,1-57.32,14.67c-72,0-130.48-64.78-130.48-144.61Z" transform="translate(-4 -4)"/><path class="cls-29" d="M1023.5,1141.23a253.77,253.77,0,0,1,2.61,36.59h0c0,21.24-15.59,38.52-34.67,38.52H545.72c-19.69,0-35.81-17.86-35.81-39.68v-35.43Z" transform="translate(-4 -4)"/><path class="cls-30" d="M1023.5,1141.23a253.77,253.77,0,0,1,2.61,36.59h0c0,21.24-15.59,38.52-34.67,38.52H571.67c-11.93-6.66-20.21-20.66-20.21-36.78v-38.33Z" transform="translate(-4 -4)"/><path class="cls-15" d="M675.07,1062.85c48.26,0,87.37,43.34,87.37,96.82s-39.11,96.83-87.37,96.83-87.37-43.35-87.37-96.83,39.11-96.82,87.37-96.82Z" transform="translate(-4 -4)"/><path class="cls-31" d="M675.07,1123.57c18,0,32.58,16.22,32.58,36.1s-14.55,36.2-32.58,36.2-32.58-16.21-32.58-36.2,14.55-36.1,32.58-36.1Z" transform="translate(-4 -4)"/><path class="cls-28" d="M1155.82,1142.88h75.34a3.89,3.89,0,0,1,3.66,4v46.53h-82.66v-46.53a3.89,3.89,0,0,1,3.66-4Z" transform="translate(-4 -4)"/><path class="cls-30" d="M1024.81,1216h337.36a3.94,3.94,0,0,1,3.75,4.15v21.53a4,4,0,0,1-3.75,4.25H1024.81a4,4,0,0,1-3.75-4.25V1220.1a3.94,3.94,0,0,1,3.75-4.15Z" transform="translate(-4 -4)"/><path class="cls-27" d="M1193.53,1172.71c73.26,0,136.41,17.76,164.55,43.24H1029c28-25.48,91.2-43.24,164.54-43.24Z" transform="translate(-4 -4)"/><path class="cls-32" d="M1020.54,835.89h55.83c37,120.77,70.3,303.32,24.31,421h-163c-13.76-87.36-29.27-191.43,66.55-240.66,18.55-67.77,24-110.05,16.29-180.33Z" transform="translate(-4 -4)"/><path class="cls-33" d="M958.78,1256.88H937.7c-12.28-78.29-26.05-169.9,40.16-223.57-39.73,43.34-42.08,149.43-19.08,223.57Z" transform="translate(-4 -4)"/><path class="cls-33" d="M1020.54,835.89h10.8c9.06,52.52,7.67,105.42-6,158.51,16.2,3.09,30.05,9.75,41.38,20.37-20.82-4.73-41.64-5.11-62.46,1.45,18.55-67.77,24-110.05,16.29-180.33Z" transform="translate(-4 -4)"/><path class="cls-3" d="M989.44,803.75c-8.27,22.49-20.38,41.89-34.67,59.46-.43,2.8,2.18,5.51,4.79,4.35,17.6-14.87,33.8-31.47,45.65-53-5.23-3.57-10.46-7.24-15.77-10.81Z" transform="translate(-4 -4)"/><path class="cls-8" d="M1076.37,835.89c0-28.76,1.4-30.11,34.59-30.11V790c-8.1-11.39-22.3-18.92-38.85-20.27H954.77V790c26,4.83,47.13,21.91,65.77,45.85Z" transform="translate(-4 -4)"/><path class="cls-6" d="M965.57,769.77h-10.8V790c26,4.83,47.13,21.91,65.77,45.85h10.8c-9.23-18.63-24.83-35.71-53.57-49.61l81.53-5.41H965.57Z" transform="translate(-4 -4)"/><path class="cls-34" d="M1072.45,850.86c43.3,171.64,43,296.55,18,395h-17.51c30-122.41,31-253.7-.44-395Z" transform="translate(-4 -4)"/><path class="cls-30" d="M261.74,887c1.57,35,2.79,65.45,3.92,91.9,1,23.36,1.92,44,2.7,62.56a13.42,13.42,0,0,0,4.36,9.17,14.6,14.6,0,0,0,9.67,3.57,14.36,14.36,0,0,0,9.58-3.57,13.14,13.14,0,0,0,4.44-9.17c.79-18.54,1.66-39.2,2.62-62.56,1.13-26.45,2.44-56.86,4-91.9C304.69,846.8,260.09,846.71,261.74,887Zm28.05,15.74c0,4.53-3.31,8.2-7.4,8.2s-7.4-3.67-7.4-8.2V883.39c0-4.54,3.31-8.21,7.4-8.21s7.4,3.67,7.4,8.21Z" transform="translate(-4 -4)"/><path class="cls-35" d="M282.39,1250.32h122.3c0-298.39-244.69-298.49-244.69,0Z" transform="translate(-4 -4)"/><path class="cls-29" d="M282.39,1250.32H398.24c0-265.18-231.7-265.28-231.7,0Z" transform="translate(-4 -4)"/><path class="cls-30" d="M282.39,1250.32H398.24c0-31.86-3.31-59.85-9.23-84.08-43.38-129.84-169.86-129.94-213.24,0-5.92,24.23-9.23,52.22-9.23,84.08Z" transform="translate(-4 -4)"/><path class="cls-36" d="M282.39,1250.32H398.24c0-8.3-.17-16.31-.61-24.13H167.15c-.44,7.82-.61,15.83-.61,24.13Z" transform="translate(-4 -4)"/><path class="cls-37" d="M330.91,1169.23H471.15c26.13,0,26.13,100.78,0,100.78H330.91c-26.13,0-26.13-100.78,0-100.78Z" transform="translate(-4 -4)"/><path class="cls-38" d="M343.89,1173.86H458.17c21.34,0,21.34,82.15,0,82.15H343.89c-21.26,0-21.26-82.15,0-82.15Z" transform="translate(-4 -4)"/><path class="cls-39" d="M363.31,1206.11a2.39,2.39,0,0,1,2.62-2.61q2.86,0,2.87,3.47h6.62c0-6.56-3.57-10.42-9.41-10.42s-9.32,4-9.32,9.36c0,10.72,12.55,11.49,12.55,17.28a3,3,0,0,1-3.23,3.19c-2.09,0-3.31-1.26-3.31-4.06H356c0,7.15,3.84,11,9.94,11,6.35,0,10-4.25,10-10C375.94,1212,363.31,1211.61,363.31,1206.11Z" transform="translate(-4 -4)"/><path class="cls-39" d="M435.52,1197.22h-9.23v35.43h6.45v-11.39h2.78c6.62,0,10.54-4.44,10.54-12S442.14,1197.22,435.52,1197.22Zm-.08,17.19h-2.7v-10.33h2.7q3.92,0,3.92,5.21C439.36,1212.67,438.05,1214.41,435.44,1214.41Z" transform="translate(-4 -4)"/><path class="cls-39" d="M389.27,1196.65c-6.45,0-10.37,4.53-10.37,12.06v12.46c0,7.53,3.92,12.06,10.37,12.06s10.37-4.53,10.37-12.06v-12.46C399.64,1201.18,395.72,1196.65,389.27,1196.65Zm3.66,24.52c0,3.28-1.22,5.11-3.66,5.11s-3.66-1.83-3.66-5.11v-12.46c0-3.28,1.22-5.11,3.66-5.11s3.66,1.83,3.66,5.11Z" transform="translate(-4 -4)"/><path class="cls-39" d="M408.69,1197.22,401,1232.65h6.71l1-5.89h6.8l1,5.89h6.71l-7.67-35.43Zm1.4,22.69.7-4.05c.52-2.51.95-6.76,1.3-9.66h.18c.34,2.9.87,7.15,1.3,9.66l.7,4.05Z" transform="translate(-4 -4)"/></g></svg>