<svg xmlns="http://www.w3.org/2000/svg" xmlns:xlink="http://www.w3.org/1999/xlink" viewBox="0 0 1500 1500"><defs><style>.cls-1{fill:none;}.cls-2{isolation:isolate;}.cls-3{fill:#fff;}.cls-4,.cls-8{fill:#c7b3af;}.cls-4{opacity:0.5;}.cls-5{fill:#a8938e;}.cls-10,.cls-16,.cls-6{opacity:0.3;}.cls-10,.cls-16,.cls-17,.cls-6{mix-blend-mode:multiply;}.cls-10,.cls-17,.cls-7{fill:#b3a19d;}.cls-9{fill:#d6cac7;}.cls-11{clip-path:url(#clip-path);}.cls-12{fill:#ffa740;}.cls-13{fill:#f09c3c;}.cls-14{fill:#ffb85c;}.cls-15{fill:#ffca85;opacity:0.75;}.cls-16{fill:#eb9a3c;}.cls-17{opacity:0.52;}</style><clipPath id="clip-path" transform="translate(-4 -4)"><path class="cls-1" d="M1358.41,1013.23l-40.65-192.07c-2.94-13.88-31.25-143.45-63.14-143.45H248.26c-31.89,0-60.2,129.57-63.14,143.45l-40.65,192.07c-3.41,16.11,22.14,29.36,57,29.36H1301.41C1336.26,1042.59,1361.82,1029.34,1358.41,1013.23Z"/></clipPath></defs><g class="cls-2"><g id="ƒŒƒCƒ__6" data-name="ƒŒƒCƒ„[_6"><rect class="cls-3" width="1500" height="1500" rx="418.14"/><path class="cls-4" d="M1244.1,981H282.65c-40.35,0-76.13,14.08-80,31.67l-40.24,184.05C158,1217.16,190.24,1234,234.62,1234H1292.13c44.38,0,76.67-16.84,72.19-37.33l-40.25-184.05c-3.84-17.59-39.63-31.67-80-31.67Z" transform="translate(-4 -4)"/><path class="cls-5" d="M1234.87,1150c19.34-44.57,29.14-148.18,23.31-192.71s-223.79-44.54-229.62,0,4,148.14,23.31,192.71l.05.13a22.64,22.64,0,0,0,20.8,13.42H1214a22.63,22.63,0,0,0,20.79-13.42Z" transform="translate(-4 -4)"/><path class="cls-5" d="M996.9,957.33c-5.83-44.54-223.8-44.54-229.63,0s4,148.14,23.31,192.71l0,.13a22.64,22.64,0,0,0,20.8,13.42H952.74a22.63,22.63,0,0,0,20.79-13.42l.06-.13C992.92,1105.47,1002.72,1001.86,996.9,957.33Z" transform="translate(-4 -4)"/><path class="cls-5" d="M735.61,957.33c-5.83-44.54-223.8-44.54-229.63,0s4,148.14,23.31,192.71l.06.13a22.63,22.63,0,0,0,20.79,13.42H691.45a22.63,22.63,0,0,0,20.79-13.42l.06-.13C731.63,1105.47,741.43,1001.86,735.61,957.33Z" transform="translate(-4 -4)"/><path class="cls-5" d="M474.32,957.33c-5.83-44.54-223.8-44.54-229.63,0s4,148.14,23.31,192.71l.06.13a22.63,22.63,0,0,0,20.79,13.42H430.16A22.63,22.63,0,0,0,451,1150.17l.06-.13C470.34,1105.47,480.15,1001.86,474.32,957.33Z" transform="translate(-4 -4)"/><g class="cls-6"><path class="cls-7" d="M1258.18,956.36c-5.82-44.54-223.79-44.54-229.62,0s4,148.14,23.31,192.71l.05.13a22.64,22.64,0,0,0,20.8,13.42H1214a22.63,22.63,0,0,0,20.79-13.42l0-.13C1254.21,1104.5,1264,1000.89,1258.18,956.36Z" transform="translate(-4 -4)"/><path class="cls-7" d="M767.27,956.36c-5.83,44.53,4,148.14,23.31,192.71l0,.13a22.64,22.64,0,0,0,20.8,13.42H952.74a22.63,22.63,0,0,0,20.79-13.42l.06-.13c19.33-44.57,29.13-148.18,23.31-192.71S773.1,911.82,767.27,956.36Z" transform="translate(-4 -4)"/><path class="cls-7" d="M506,956.36c-5.83,44.53,4,148.14,23.31,192.71l.06.13a22.63,22.63,0,0,0,20.79,13.42H691.45a22.63,22.63,0,0,0,20.79-13.42l.06-.13c19.33-44.57,29.13-148.18,23.31-192.71S511.81,911.82,506,956.36Z" transform="translate(-4 -4)"/><path class="cls-7" d="M244.69,956.36c-5.83,44.53,4,148.14,23.31,192.71l.06.13a22.63,22.63,0,0,0,20.79,13.42H430.16A22.63,22.63,0,0,0,451,1149.2l.06-.13c19.33-44.57,29.14-148.18,23.31-192.71S250.52,911.82,244.69,956.36Z" transform="translate(-4 -4)"/></g><path class="cls-7" d="M1276.1,1212.47l0,.14a24.56,24.56,0,0,1-22.57,14.56H1100.12a24.56,24.56,0,0,1-22.57-14.56l-.06-.14c-21-48.37-31.62-160.81-25.3-209.15s242.89-48.33,249.21,0S1297.09,1164.1,1276.1,1212.47ZM768.62,1003.32c-6.32,48.34,4.31,160.78,25.3,209.15l.06.14a24.55,24.55,0,0,0,22.57,14.56H969.91a24.55,24.55,0,0,0,22.56-14.56l.06-.14c21-48.37,31.63-160.81,25.3-209.15S775,955,768.62,1003.32Zm-283.57,0c-6.33,48.34,4.31,160.78,25.3,209.15a.78.78,0,0,0,0,.14A24.56,24.56,0,0,0,533,1227.17H686.33a24.56,24.56,0,0,0,22.57-14.56l.06-.14c21-48.37,31.62-160.81,25.3-209.15S491.37,955,485.05,1003.32Zm-283.58,0c-6.32,48.34,4.32,160.78,25.3,209.15l.06.14a24.56,24.56,0,0,0,22.57,14.56H402.76a24.56,24.56,0,0,0,22.57-14.56l.05-.14c21-48.37,31.63-160.81,25.3-209.15S207.8,955,201.47,1003.32Z" transform="translate(-4 -4)"/><path class="cls-8" d="M1236.11,1184.53c-22.71-31.68-48.83-51.27-76.91-51.27s-46.67,15.28-69.38,47c-3.32,4.7-14,28.31-12.33,32.25l.06.14a24.56,24.56,0,0,0,22.57,14.56h153.36C1255.72,1227.17,1244.77,1196.78,1236.11,1184.53Z" transform="translate(-4 -4)"/><path class="cls-8" d="M952.54,1184.53c-22.72-31.68-48.83-51.27-76.92-51.27s-45.39,8.14-68.1,39.82c-3.33,4.7-15.31,35.45-13.6,39.39l.06.14a24.55,24.55,0,0,0,22.57,14.56H969.91C972.15,1227.17,961.2,1196.78,952.54,1184.53Z" transform="translate(-4 -4)"/><path class="cls-8" d="M669,1184.53c-22.71-31.68-48.83-51.27-76.91-51.27s-47.69,11-70.4,42.64c-3.32,4.71-13,32.63-11.3,36.57a.78.78,0,0,0,0,.14A24.56,24.56,0,0,0,533,1227.17H686.33C688.58,1227.17,677.62,1196.78,669,1184.53Z" transform="translate(-4 -4)"/><path class="cls-8" d="M385.39,1184.53c-22.71-31.68-48.83-51.27-76.91-51.27s-45.48,8.24-68.19,39.91c-3.33,4.71-15.23,35.36-13.52,39.3l.06.14a24.56,24.56,0,0,0,22.57,14.56H402.76C405,1227.17,394.05,1196.78,385.39,1184.53Z" transform="translate(-4 -4)"/><path class="cls-9" d="M1253.11,963.73H249.77c-42.1,0-121.78,36.89-125.8,55.24l.34,55.38c-4.68,21.39,29,39,75.34,39H1303.23c46.31,0,80-17.57,75.34-39l.43-57.41C1375,998.59,1253.11,963.73,1253.11,963.73Z" transform="translate(-4 -4)"/><path class="cls-5" d="M1303.23,1052.18H199.65c-46.32,0-77-31.49-68.68-69.4l29.42-134.56c7.33-33.53,47.28-60.11,89.38-60.11H1253.11c42.1,0,82,26.58,89.38,60.11l29.42,134.56C1380.2,1020.69,1349.54,1052.18,1303.23,1052.18Z" transform="translate(-4 -4)"/><path class="cls-10" d="M1303.23,1052.18H199.65c-46.32,0-77-31.49-68.68-69.4l29.42-134.56c7.33-33.53,47.28-60.11,89.38-60.11H1253.11c42.1,0,82,26.58,89.38,60.11l29.42,134.56C1380.2,1020.69,1349.54,1052.18,1303.23,1052.18Z" transform="translate(-4 -4)"/><path class="cls-8" d="M1254.62,796.09c31.89,0,60.2,11.19,63.14,25.07l40.65,192.07c3.41,16.11-22.15,29.36-57,29.36H201.47c-34.86,0-60.41-13.25-57-29.36l40.65-192.07c2.94-13.88,31.25-25.07,63.14-25.07H1254.62m-1.51-8H249.77c-42.1,0-79.45,14.69-83.46,33l-42,192.07c-4.68,21.38,29,39,75.34,39H1303.23c46.31,0,80-17.57,75.34-39l-42-192.07c-4-18.36-41.36-33-83.46-33Z" transform="translate(-4 -4)"/><rect class="cls-5" x="169.53" y="234.85" width="1155.81" height="556.46" rx="77.96"/><rect class="cls-7" x="257.57" y="302.78" width="979.75" height="420.61" rx="65.52"/><path class="cls-4" d="M526.51,643.83c-183.6-41.94-224.75-111-264.94-143.47V663.81c0,35.11,28.68,63.58,64.07,63.58h851.6c35.39,0,64.07-28.47,64.07-63.58v-38c-51.19,23.8-146.14,41.5-199.29,44.18C921.73,676.08,742.06,693.06,526.51,643.83Z" transform="translate(-4 -4)"/><path class="cls-10" d="M1253.11,238.85H249.77c-42.1,0-76.24,33.87-76.24,75.65v62.67c65.36-50.66,266-44.83,417.05-44.83,390.82,0,674.16-28.25,674.16,296.93,0,41.07,9.49,129.17-14.48,166h2.85c42.1,0,76.23-33.86,76.23-75.64V314.5C1329.34,272.72,1295.21,238.85,1253.11,238.85Z" transform="translate(-4 -4)"/><path class="cls-8" d="M1253.11,257.28c31.79,0,57.65,25.67,57.65,57.22V719.67c0,31.54-25.86,57.21-57.65,57.21H249.77c-31.79,0-57.66-25.67-57.66-57.21V314.5c0-31.55,25.87-57.22,57.66-57.22H1253.11m0-18.43H249.77c-42.1,0-76.24,33.87-76.24,75.65V719.67c0,41.78,34.14,75.64,76.24,75.64H1253.11c42.1,0,76.23-33.86,76.23-75.64V314.5c0-41.78-34.13-75.65-76.23-75.65Z" transform="translate(-4 -4)"/><g class="cls-11"><path class="cls-12" d="M456.34,873.31c6.21,47.42-2.54,90.36-24.82,121.43a119.52,119.52,0,0,1-194.88,0c-22.28-31.07-31-74-24.82-121.43s24.83-90.36,46.8-121.44c22.28-31.08,47.91-50.3,75.46-50.3s53.18,19.22,75.46,50.3C431.51,783,450.13,825.88,456.34,873.31Z" transform="translate(-4 -4)"/><path class="cls-13" d="M453.68,870.07c-6-45.76-24-87.19-45.16-117.17,10.18,22.66,28.62,46.09,33.16,99.69,7.41,87.45-41.74,165-124.5,158.32C256,1006,216,951.22,216.66,880.24c-3.56,41.7,5.14,79.25,25,107a115.33,115.33,0,0,0,188,0C451.23,957.25,459.66,915.82,453.68,870.07Z" transform="translate(-4 -4)"/><path class="cls-14" d="M399.18,849.55C393.3,909.32,352.81,954.31,308.74,950s-75-56.18-69.14-115.94S288.1,707.71,332.16,712,405.06,789.79,399.18,849.55Z" transform="translate(-4 -4)"/><ellipse class="cls-15" cx="315.41" cy="788.73" rx="46.07" ry="59.85"/><path class="cls-16" d="M456.34,873.31c-5.84-44.59-22.65-85.21-42.89-115.74-10.38,11.44-20.25,39.1-35.29,45.49-13.69,5.83-32.64-5.72-44.08-7.66-18.3-3.1-54.84,7.31-69.91,18.08-16.2,11.57-48.73,32.17-52.35,59.83-6.21,47.42,2.54,90.36,24.82,121.43a119.52,119.52,0,0,0,194.88,0C453.8,963.67,462.55,920.73,456.34,873.31Z" transform="translate(-4 -4)"/><path class="cls-12" d="M734.58,873.31c6.21,47.42-2.54,90.36-24.82,121.43a119.52,119.52,0,0,1-194.88,0c-22.28-31.07-31-74-24.82-121.43s24.83-90.36,46.8-121.44c22.28-31.08,47.91-50.3,75.46-50.3s53.18,19.22,75.46,50.3C709.75,783,728.37,825.88,734.58,873.31Z" transform="translate(-4 -4)"/><path class="cls-13" d="M731.91,870.07c-6-45.76-23.95-87.19-45.15-117.17,10.18,22.66,28.62,46.09,33.16,99.69,7.41,87.45-41.74,165-124.5,158.32-61.16-4.91-101.2-59.69-100.52-130.67-3.56,41.7,5.14,79.25,25,107a115.33,115.33,0,0,0,188,0C729.47,957.25,737.9,915.82,731.91,870.07Z" transform="translate(-4 -4)"/><path class="cls-14" d="M677.42,849.55C671.54,909.32,631.05,954.31,587,950s-75-56.18-69.14-115.94S566.34,707.71,610.4,712,683.3,789.79,677.42,849.55Z" transform="translate(-4 -4)"/><ellipse class="cls-15" cx="593.65" cy="788.73" rx="46.07" ry="59.85"/><path class="cls-16" d="M734.58,873.31c6.21,47.42-2.54,90.36-24.82,121.43a119.52,119.52,0,0,1-194.88,0c-22.28-31.07-31-74-24.82-121.43s24.83-90.36,46.8-121.44c22.28-31.08,47.91-50.3,75.46-50.3s53.18,19.22,75.46,50.3C709.75,783,728.37,825.88,734.58,873.31Z" transform="translate(-4 -4)"/><path class="cls-16" d="M734.58,873.31c-5.8-44.32-22.44-84.71-42.52-115.17,1.93,19.73-18.55,53.46-44,37-22.49-14.55-65.12-9.41-89.81,8-16.63,11.71-29.25-22.78-34-31.44a280.89,280.89,0,0,0-34.24,101.69c-6.21,47.42,2.54,90.36,24.82,121.43a119.52,119.52,0,0,0,194.88,0C732,963.67,740.79,920.73,734.58,873.31Z" transform="translate(-4 -4)"/><path class="cls-12" d="M1012.82,873.31c6.21,47.42-2.54,90.36-24.82,121.43a119.52,119.52,0,0,1-194.88,0c-22.28-31.07-31-74-24.82-121.43S793.13,783,815.09,751.87c22.29-31.08,47.91-50.3,75.47-50.3s53.18,19.22,75.46,50.3C988,783,1006.61,825.88,1012.82,873.31Z" transform="translate(-4 -4)"/><path class="cls-13" d="M1010.15,870.07c-6-45.76-23.95-87.19-45.15-117.17,10.18,22.66,28.62,46.09,33.16,99.69,7.4,87.45-41.74,165-124.5,158.32-61.16-4.91-101.2-59.69-100.52-130.67-3.56,41.7,5.14,79.25,25,107a115.32,115.32,0,0,0,188,0C1007.7,957.25,1016.14,915.82,1010.15,870.07Z" transform="translate(-4 -4)"/><path class="cls-14" d="M955.66,849.55c-5.88,59.77-46.37,104.76-90.44,100.49s-75-56.18-69.14-115.94S844.58,707.71,888.64,712,961.54,789.79,955.66,849.55Z" transform="translate(-4 -4)"/><ellipse class="cls-15" cx="871.89" cy="788.73" rx="46.07" ry="59.85"/><path class="cls-16" d="M1012.82,873.31c6.21,47.42-2.54,90.36-24.82,121.43a119.52,119.52,0,0,1-194.88,0c-22.28-31.07-31-74-24.82-121.43S793.13,783,815.09,751.87c22.29-31.08,47.91-50.3,75.47-50.3s53.18,19.22,75.46,50.3C988,783,1006.61,825.88,1012.82,873.31Z" transform="translate(-4 -4)"/><path class="cls-16" d="M1012.82,873.31A279.62,279.62,0,0,0,972,760.7c5.59,17.17-14,42.9-27.71,37.61-37.63-14.56-78.7-3-108,4.75-11.73,2.92-30.31-16.4-27.35-41.94A279.54,279.54,0,0,0,768.3,873.31c-6.21,47.42,2.54,90.36,24.82,121.43a119.52,119.52,0,0,0,194.88,0C1010.28,963.67,1019,920.73,1012.82,873.31Z" transform="translate(-4 -4)"/><path class="cls-12" d="M1291.06,873.31c6.2,47.42-2.54,90.36-24.82,121.43a119.52,119.52,0,0,1-194.88,0c-22.29-31.07-31-74-24.82-121.43s24.83-90.36,46.79-121.44c22.29-31.08,47.91-50.3,75.47-50.3s53.18,19.22,75.46,50.3C1266.23,783,1284.85,825.88,1291.06,873.31Z" transform="translate(-4 -4)"/><path class="cls-13" d="M1288.39,870.07c-6-45.76-24-87.19-45.15-117.17,10.18,22.66,28.62,46.09,33.16,99.69,7.4,87.45-41.74,165-124.5,158.32-61.16-4.91-101.2-59.69-100.53-130.67-3.55,41.7,5.15,79.25,25.05,107a115.32,115.32,0,0,0,188,0C1285.94,957.25,1294.38,915.82,1288.39,870.07Z" transform="translate(-4 -4)"/><path class="cls-14" d="M1233.9,849.55c-5.88,59.77-46.37,104.76-90.44,100.49s-75-56.18-69.14-115.94,48.5-126.39,92.56-122.12S1239.78,789.79,1233.9,849.55Z" transform="translate(-4 -4)"/><ellipse class="cls-15" cx="1150.13" cy="788.73" rx="46.07" ry="59.85"/><path class="cls-16" d="M1291.06,873.31c6.2,47.42-2.54,90.36-24.82,121.43a119.52,119.52,0,0,1-194.88,0c-22.29-31.07-31-74-24.82-121.43s24.83-90.36,46.79-121.44c22.29-31.08,47.91-50.3,75.47-50.3s53.18,19.22,75.46,50.3C1266.23,783,1284.85,825.88,1291.06,873.31Z" transform="translate(-4 -4)"/><path class="cls-16" d="M1206.83,790.55c-31.29-6.8-52.08,2.81-84.33,8.73-20.31,3.72-38.85-31.2-39.33-31.76a280.37,280.37,0,0,0-36.63,105.79c-6.21,47.42,2.53,90.36,24.82,121.43a119.52,119.52,0,0,0,194.88,0c22.28-31.07,31-74,24.82-121.43C1286.69,839.94,1219.54,793.46,1206.83,790.55Z" transform="translate(-4 -4)"/><path class="cls-7" d="M527.7,1052.18H399.07c-18.62,0-32.92-14-30.27-29.58l41.62-244.73c2.16-12.75,15.06-22.21,30.26-22.21h45.41c15.2,0,28.1,9.46,30.26,22.21L558,1022.6C560.62,1038.21,546.32,1052.18,527.7,1052.18Z" transform="translate(-4 -4)"/><path class="cls-8" d="M450.82,1051.23l-61.15-3.76c-8.85-.55-14.49-14.42-11.94-29.37l40-234.38c2.09-12.2,9-20.93,16.23-20.48l21.58,1.33c7.23.44,12.58,9.93,12.55,22.26l-.46,236.81C467.63,1038.74,459.68,1051.78,450.82,1051.23Z" transform="translate(-4 -4)"/><path class="cls-17" d="M528.27,848c-17.28,30.22-40,48.57-64.89,48.57S415.78,878.19,398.5,848L368.8,1022.6c-2.65,15.61,11.65,29.58,30.27,29.58H527.7c18.62,0,32.92-14,30.27-29.58Z" transform="translate(-4 -4)"/><path class="cls-7" d="M811.27,1052.18H682.64c-18.62,0-32.92-14-30.27-29.58L694,777.87c2.17-12.75,15.06-22.21,30.27-22.21h45.4c15.2,0,28.1,9.46,30.27,22.21l41.61,244.73C844.19,1038.21,829.9,1052.18,811.27,1052.18Z" transform="translate(-4 -4)"/><path class="cls-8" d="M734.4,1051.23l-61.15-3.76c-8.86-.55-14.5-14.42-12-29.37l40-234.38c2.09-12.2,9-20.93,16.23-20.48l21.58,1.33c7.23.44,12.58,9.93,12.56,22.26l-.47,236.81C751.2,1038.74,743.25,1051.78,734.4,1051.23Z" transform="translate(-4 -4)"/><path class="cls-17" d="M811.85,848c-17.29,30.22-40,48.57-64.89,48.57S699.35,878.19,682.07,848l-29.7,174.63c-2.65,15.61,11.65,29.58,30.27,29.58H811.27c18.63,0,32.92-14,30.27-29.58Z" transform="translate(-4 -4)"/><path class="cls-7" d="M1094.85,1052.18H966.21c-18.62,0-32.92-14-30.26-29.58l41.61-244.73c2.17-12.75,15.06-22.21,30.27-22.21h45.4c15.21,0,28.1,9.46,30.27,22.21l41.61,244.73C1127.77,1038.21,1113.47,1052.18,1094.85,1052.18Z" transform="translate(-4 -4)"/><path class="cls-8" d="M1018,1051.23l-61.15-3.76c-8.85-.55-14.5-14.42-11.94-29.37l40-234.38c2.08-12.2,9-20.93,16.22-20.48l21.59,1.33c7.23.44,12.57,9.93,12.55,22.26l-.46,236.81C1034.78,1038.74,1026.82,1051.78,1018,1051.23Z" transform="translate(-4 -4)"/><path class="cls-17" d="M1095.42,848c-17.28,30.22-40,48.57-64.89,48.57S982.92,878.19,965.64,848L936,1022.6c-2.66,15.61,11.64,29.58,30.26,29.58h128.64c18.62,0,32.92-14,30.26-29.58Z" transform="translate(-4 -4)"/><path class="cls-12" d="M450.68,978.1c6.33,48.33-2.58,92.09-25.3,123.76a121.81,121.81,0,0,1-198.61,0c-22.71-31.67-31.62-75.43-25.3-123.76s25.31-92.1,47.7-123.77c22.71-31.67,48.83-51.27,76.91-51.27s54.2,19.6,76.91,51.27C425.38,886,444.36,929.76,450.68,978.1Z" transform="translate(-4 -4)"/><path class="cls-13" d="M448,974.8c-6.11-46.64-24.42-88.86-46-119.42,10.37,23.1,29.16,47,33.79,101.6,7.55,89.13-42.54,168.14-126.88,161.36-62.34-5-103.14-60.84-102.45-133.18-3.63,42.51,5.24,80.77,25.52,109.05a117.52,117.52,0,0,0,191.63,0C445.47,1063.65,454.07,1021.43,448,974.8Z" transform="translate(-4 -4)"/><path class="cls-14" d="M392.43,953.89c-6,60.91-47.26,106.76-92.17,102.41s-76.46-57.25-70.47-118.17,49.43-128.8,94.34-124.45S398.42,893,392.43,953.89Z" transform="translate(-4 -4)"/><ellipse class="cls-15" cx="307.13" cy="891.98" rx="46.96" ry="61"/><path class="cls-12" d="M734.26,978.1c6.32,48.33-2.59,92.09-25.3,123.76a121.81,121.81,0,0,1-198.61,0c-22.72-31.67-31.63-75.43-25.3-123.76s25.3-92.1,47.69-123.77c22.71-31.67,48.83-51.27,76.91-51.27s54.2,19.6,76.91,51.27C709,886,727.93,929.76,734.26,978.1Z" transform="translate(-4 -4)"/><path class="cls-13" d="M731.54,974.8c-6.1-46.64-24.42-88.86-46-119.42,10.38,23.1,29.17,47,33.79,101.6,7.55,89.13-42.54,168.14-126.88,161.36-62.34-5-103.14-60.84-102.45-133.18-3.62,42.51,5.24,80.77,25.52,109.05a117.52,117.52,0,0,0,191.63,0C729,1063.65,737.64,1021.43,731.54,974.8Z" transform="translate(-4 -4)"/><path class="cls-14" d="M676,953.89c-6,60.91-47.26,106.76-92.17,102.41s-76.46-57.25-70.47-118.17,49.43-128.8,94.34-124.45S682,893,676,953.89Z" transform="translate(-4 -4)"/><ellipse class="cls-15" cx="590.7" cy="891.98" rx="46.96" ry="61"/><path class="cls-12" d="M1017.83,978.1c6.32,48.33-2.59,92.09-25.3,123.76a121.81,121.81,0,0,1-198.61,0c-22.71-31.67-31.62-75.43-25.3-123.76s25.31-92.1,47.69-123.77c22.72-31.67,48.83-51.27,76.92-51.27s54.19,19.6,76.91,51.27C992.52,886,1011.5,929.76,1017.83,978.1Z" transform="translate(-4 -4)"/><path class="cls-13" d="M1015.11,974.8c-6.1-46.64-24.41-88.86-46-119.42,10.37,23.1,29.16,47,33.79,101.6,7.55,89.13-42.54,168.14-126.89,161.36-62.33-5-103.13-60.84-102.45-133.18-3.62,42.51,5.25,80.77,25.52,109.05a117.52,117.52,0,0,0,191.63,0C1012.62,1063.65,1021.22,1021.43,1015.11,974.8Z" transform="translate(-4 -4)"/><path class="cls-14" d="M959.57,953.89c-6,60.91-47.26,106.76-92.17,102.41s-76.46-57.25-70.46-118.17,49.42-128.8,94.33-124.45S965.56,893,959.57,953.89Z" transform="translate(-4 -4)"/><ellipse class="cls-15" cx="874.28" cy="891.98" rx="46.96" ry="61"/><path class="cls-12" d="M1301.4,978.1c6.33,48.33-2.58,92.09-25.3,123.76a121.81,121.81,0,0,1-198.61,0c-22.71-31.67-31.62-75.43-25.3-123.76s25.31-92.1,47.7-123.77c22.71-31.67,48.83-51.27,76.91-51.27s54.2,19.6,76.91,51.27C1276.1,886,1295.08,929.76,1301.4,978.1Z" transform="translate(-4 -4)"/><path class="cls-13" d="M1298.69,974.8c-6.11-46.64-24.42-88.86-46-119.42,10.37,23.1,29.16,47,33.79,101.6,7.55,89.13-42.54,168.14-126.88,161.36-62.34-5-103.14-60.84-102.46-133.18-3.62,42.51,5.25,80.77,25.53,109.05a117.52,117.52,0,0,0,191.63,0C1296.19,1063.65,1304.79,1021.43,1298.69,974.8Z" transform="translate(-4 -4)"/><path class="cls-14" d="M1243.15,953.89c-6,60.91-47.26,106.76-92.17,102.41s-76.46-57.25-70.47-118.17,49.43-128.8,94.34-124.45S1249.14,893,1243.15,953.89Z" transform="translate(-4 -4)"/><ellipse class="cls-15" cx="1157.85" cy="891.98" rx="46.96" ry="61"/></g></g></g></svg>