<svg xmlns="http://www.w3.org/2000/svg" viewBox="0 0 572.58 682.73"><defs><style>.cls-1{isolation:isolate;}.cls-2{fill:#fff;}.cls-3{fill:#161616;}.cls-4{fill:#ccc;}.cls-5{fill:#f29c6b;}.cls-6{fill:#f7af7f;}.cls-7{opacity:0.22;}.cls-10,.cls-7{mix-blend-mode:multiply;}.cls-8{fill:#ea8654;}.cls-9{fill:#bcbcbc;}.cls-10{fill:#b3b3b3;opacity:0.55;}.cls-11{fill:#efefef;}.cls-12{fill:#230d16;fill-rule:evenodd;}</style></defs><g class="cls-1"><g id="Ñëîé_1" data-name="Ñëîé 1"><rect class="cls-2" x="0.6" width="571.98" height="620.67"/><path class="cls-3" d="M828.4,2181.82a389.87,389.87,0,0,0-102.34-47.6A420.8,420.8,0,0,0,486,2132.43a390,390,0,0,0-103,46.08C312.43,2222.65,318.59,2344,318.59,2344l285.92-.78,285.82-.79S898.21,2227,828.4,2181.82Z" transform="translate(-318.45 -1661.3)"/><polygon class="cls-3" points="224.16 511.13 240.93 620.67 332.69 620.67 350.35 512.07 290.38 473.43 224.16 511.13"/><polygon class="cls-4" points="199.1 432.95 376.57 434.27 287.71 478.51 199.1 432.95"/><path class="cls-5" d="M673.12,2030.09c-73.33,7.64-68.26,5.86-135.76-.88,1.18,15.18,1.71,64.72-5.4,82.4-.75,1.86,37.33,36.55,74.28,36.83s81.58-25.86,75.32-39.43c-4.87-10.56-4.67-56.2-2.92-72.18C681.68,2017.42,673.42,2030.06,673.12,2030.09Z" transform="translate(-318.45 -1661.3)"/><path class="cls-6" d="M738.58,1889h0a9.93,9.93,0,0,0-6,.15,18.49,18.49,0,0,0-8.72,6.45c1.52-73.79-18.6-149.54-104.41-151.63l-20.09-.15c-87.32.83-106,77.75-104.71,152.75a54.06,54.06,0,0,0-12.13-1.72h0a12.79,12.79,0,0,0-4.77.44c-16.12,4.66-10.13,64.11,24.68,73.82,2.13,15.75,10.13,36,12.36,42.14,4,11,36.1,45.71,50.52,54,17.55,10.11,68.73,10.87,86.53.63,14.43-8.3,44.23-44.32,48.35-55.25,2.31-6.13,14-39.76,14-39.76C749.82,1962.31,752.62,1893.17,738.58,1889Z" transform="translate(-318.45 -1661.3)"/><g class="cls-7"><path class="cls-8" d="M678.25,2041.06c-9.35,10.73-19.61,20.85-26.43,24.78-17.8,10.24-69,9.47-86.53-.64-6.8-3.91-17.52-13.69-27.38-24.09.15,5.75.26,7.23.14,14.4,8,12.4,21.86,25,28.83,28.83,20.86,11.56,66.92,10.12,84.72-.12,6.51-3.75,19.38-15.19,26-26.92C677.62,2049.08,677.83,2046.79,678.25,2041.06Z" transform="translate(-318.45 -1661.3)"/></g><path class="cls-9" d="M615.78,2129.14l-5.08,19.21h3.23a45.14,45.14,0,0,0,13.4-2l2.4-.76Z" transform="translate(-318.45 -1661.3)"/><polygon class="cls-10" points="401 472.22 376.57 434.27 297.33 467.84 341.47 532.98 401 472.22"/><path class="cls-9" d="M596.29,2129l7.18,19.44-6.28-.45a38.15,38.15,0,0,1-11.1-2.51l-3.16-1.24Z" transform="translate(-318.45 -1661.3)"/><polygon class="cls-11" points="401.03 467.21 376.57 434.27 297.33 467.84 341.57 519.84 401.03 467.21"/><path class="cls-12" d="M664,1728.87c-94.77-35.56-136-2.63-151.86,19.15a137,137,0,0,1-20.87,22.39c-31.49,27.5-6.45,109.32.67,130.33a7.31,7.31,0,0,0,6.92,5H499a7.33,7.33,0,0,0,7.31-7.18l.8-44.33c.38-21.23,10.61-33.09,31.54-44.48a81.61,81.61,0,0,1,41.08-9.75l53.25,1.36c30.51.78,63,11.47,70.38,35.69v0a40.63,40.63,0,0,1,1.55,8.47c.91,10.94,4,47.79,4.73,51.46a7.22,7.22,0,0,0,3.28,5.26h0a6.63,6.63,0,0,0,6.64.49,5.87,5.87,0,0,0,2-1.3h0a5.83,5.83,0,0,0,1.74-3.65l6.46-70S734.14,1757.56,664,1728.87Z" transform="translate(-318.45 -1661.3)"/><polygon class="cls-10" points="174.12 470.54 199.1 432.95 277.84 467.69 232.73 532.17 174.12 470.54"/><polygon class="cls-11" points="174.16 465.52 199.1 432.95 277.84 467.69 232.83 519.04 174.16 465.52"/></g></g></svg>