<?xml version="1.0" encoding="utf-8"?>
<!-- Generator: Adobe Illustrator 25.0.0, SVG Export Plug-In . SVG Version: 6.00 Build 0)  -->
<svg version="1.1" id="Layer_1" xmlns="http://www.w3.org/2000/svg" xmlns:xlink="http://www.w3.org/1999/xlink" x="0px" y="0px"
	 viewBox="0 0 1500 1500" style="enable-background:new 0 0 1500 1500;" xml:space="preserve">
<style type="text/css">
	.st0{fill:#FFFFFF;}
	.st1{opacity:0.5;fill:#93908C;enable-background:new    ;}
	.st2{fill:#4B4C46;}
	.st3{fill:#2A2B27;}
	.st4{fill:#8B8C89;}
	.st5{fill:#C7C9C7;}
	.st6{fill:#161614;}
	.st7{fill:#3A3A35;}
	.st8{fill:url(#SVGID_1_);}
	.st9{fill:url(#SVGID_2_);}
	.st10{fill:#617C8E;}
	.st11{fill:#48606D;}
	.st12{fill:#26363D;}
	.st13{fill:#A3BECC;}
	.st14{fill:#405763;}
	.st15{fill:#8DBCCC;}
	.st16{fill:#8E9BA3;}
	.st17{fill:#69767C;}
	.st18{fill:#C9D1D3;}
	.st19{fill:#AFBBBC;}
	.st20{fill:#93A0A3;}
	.st21{fill:#E4E9EA;}
	.st22{fill:#F9F9F9;}
	.st23{fill:#AAB5BA;}
	.st24{fill:#E6EDEF;}
	.st25{fill:url(#SVGID_3_);}
	.st26{fill:#7795A5;}
	.st27{opacity:0.5;fill:#26363D;enable-background:new    ;}
	.st28{opacity:0.5;fill:#101D21;enable-background:new    ;}
	.st29{fill:url(#SVGID_4_);}
	.st30{fill:#5C8945;}
	.st31{fill:#E29F17;}
	.st32{fill:#F6F9EA;}
	.st33{fill:#FFC931;}
	.st34{fill:#C17F0A;}
	.st35{fill:#D4D8C3;}
	.st36{fill:url(#SVGID_5_);}
	.st37{fill:url(#SVGID_6_);}
	.st38{fill:#EFB420;}
	.st39{fill:#FFC33E;}
	.st40{fill:url(#SVGID_7_);}
	.st41{fill:#FFDB27;}
	.st42{fill:#FFF097;}
	.st43{fill:#A06B00;}
	.st44{fill:url(#SVGID_8_);}
	.st45{fill:url(#SVGID_9_);}
	.st46{opacity:0.3;}
	.st47{fill:url(#SVGID_10_);}
	.st48{fill:url(#SVGID_11_);}
	.st49{fill:url(#SVGID_12_);}
	.st50{fill:url(#SVGID_13_);}
	.st51{fill:url(#SVGID_14_);}
	.st52{fill:url(#SVGID_15_);}
	.st53{fill:url(#SVGID_16_);}
	.st54{fill:url(#SVGID_17_);}
	.st55{opacity:0.3;fill:url(#SVGID_18_);}
	.st56{fill:url(#SVGID_19_);}
	.st57{opacity:0.5;fill:#3D616D;enable-background:new    ;}
</style>
<g id="Layer_1_1_">
	<path class="st0" d="M336.3,0h827.4C1349.4,0,1500,150.6,1500,336.3v827.4c0,185.7-150.6,336.3-336.3,336.3H336.3
		C150.6,1500,0,1349.4,0,1163.7V336.3C0,150.6,150.6,0,336.3,0z"/>
	<path class="st1" d="M1174.9,1316.3H264.4c-12.3,0-17.8-16.1-8.2-24.1l33.6-27.9c2.3-1.9,5.2-3,8.1-3h842.1c2.9,0,5.7,1,8,2.8
		l34.8,27.9C1192.7,1299.9,1187.3,1316.3,1174.9,1316.3z"/>
	<polygon class="st2" points="1339.8,661.5 1339.8,768 1334.8,774.7 1330,781.1 1296.7,781.1 1296.7,649.9 1328.4,649.9 	"/>
	<path class="st3" d="M1339.8,715.6V768l-5,6.6c-6.8,0.3-16.2,2.1-23.3,6.4h-14.7V649.9h10.2c0.8,17.7,2.4,46.6,5.6,56.7
		c2,6.4,7.4,8.5,13.7,9.1c1.3,11.9,2,34.7,2,34.7s3.6-29.8,8.1-34.7L1339.8,715.6z"/>
	<path class="st4" d="M1339.8,661.5v27c-1.1,1.1-2,2.3-2.8,3.6c-2.1,3.7-7.4,13.1-7.4,13.1s-2.2-30.4-4.1-42.1
		c-0.7-4.6-2.4-9.1-4.8-13.1h7.8l10,10.2L1339.8,661.5z"/>
	<path class="st5" d="M1338.4,660.1c-1.3-0.5-2.7-0.8-4.2-0.8c-4,0-2.3,9.4-4.1,24.2c0-15.5-1.5-29.8-3.3-33.6h1.5L1338.4,660.1z"/>
	<rect x="1295.8" y="653.9" class="st6" width="29.5" height="2.6"/>
	<rect x="1295.8" y="661.1" class="st6" width="29.5" height="2.6"/>
	<rect x="1295.8" y="668.3" class="st6" width="29.5" height="2.6"/>
	<rect x="1295.8" y="675.5" class="st6" width="29.5" height="2.6"/>
	<rect x="1295.8" y="682.7" class="st6" width="29.5" height="2.6"/>
	<rect x="1295.8" y="689.9" class="st6" width="29.5" height="2.6"/>
	<rect x="1295.8" y="697.1" class="st6" width="29.5" height="2.6"/>
	<rect x="1295.8" y="704.3" class="st6" width="29.5" height="2.6"/>
	<path class="st7" d="M1325.4,653.9v2.6h-18.1c0-0.9-0.1-1.8-0.1-2.6H1325.4z"/>
	<path class="st7" d="M1325.4,661.1v2.6h-17.7c0-0.9-0.1-1.8-0.1-2.6H1325.4z"/>
	<path class="st7" d="M1325.4,668.3v2.6h-17.3c0-0.9-0.1-1.7-0.2-2.6H1325.4z"/>
	<path class="st7" d="M1325.4,675.5v2.6h-16.8c-0.1-0.9-0.1-1.8-0.2-2.6H1325.4z"/>
	<path class="st7" d="M1325.4,682.7v2.6h-16.1c-0.1-0.9-0.2-1.7-0.2-2.6H1325.4z"/>
	<path class="st7" d="M1325.4,689.9v2.6H1310c-0.1-0.9-0.2-1.7-0.3-2.6H1325.4z"/>
	<path class="st7" d="M1325.4,697.1v2.6H1311c-0.1-0.8-0.3-1.7-0.4-2.6H1325.4z"/>
	<path class="st7" d="M1325.4,704.3v2.6h-12.7c0-0.1-0.1-0.2-0.1-0.3c-0.2-0.7-0.4-1.5-0.6-2.3H1325.4z"/>
	<rect x="1295.8" y="711.5" class="st6" width="29.5" height="2.6"/>
	<path class="st7" d="M1325.4,711.5v2.6h-6c-1.5-0.6-2.8-1.5-3.9-2.6H1325.4z"/>
	<rect x="1295.8" y="718.7" class="st6" width="29.5" height="2.6"/>
	<rect x="1295.8" y="725.9" class="st6" width="29.5" height="2.6"/>
	<rect x="1295.8" y="733.1" class="st6" width="29.5" height="2.6"/>
	<rect x="1295.8" y="740.3" class="st6" width="29.5" height="2.6"/>
	<rect x="1295.8" y="747.5" class="st6" width="29.5" height="2.6"/>
	<rect x="1295.8" y="754.7" class="st6" width="29.5" height="2.6"/>
	<rect x="1295.8" y="761.9" class="st6" width="29.5" height="2.6"/>
	<rect x="1295.8" y="769.1" class="st6" width="29.5" height="2.6"/>
	<rect x="1295.8" y="776.3" class="st6" width="29.5" height="2.6"/>
	
		<linearGradient id="SVGID_1_" gradientUnits="userSpaceOnUse" x1="1279.14" y1="784.875" x2="1298.8" y2="784.875" gradientTransform="matrix(1 0 0 -1 0 1500)">
		<stop  offset="0" style="stop-color:#2AFFCC"/>
		<stop  offset="1" style="stop-color:#00ADFF"/>
	</linearGradient>
	<polygon class="st8" points="1298.8,536.5 1298.8,895.8 1291.7,905 1279.1,905 1279.1,525.3 1289.3,525.3 	"/>
	
		<linearGradient id="SVGID_2_" gradientUnits="userSpaceOnUse" x1="1279.14" y1="784.875" x2="1298.8" y2="784.875" gradientTransform="matrix(1 0 0 -1 0 1500)">
		<stop  offset="0" style="stop-color:#0084E9"/>
		<stop  offset="1" style="stop-color:#005094"/>
	</linearGradient>
	<polygon class="st9" points="1298.8,895.8 1291.7,905 1279.1,905 1279.1,525.3 1282.7,525.3 1282.7,802 1289,683 1292.8,878.5 	"/>
	<rect x="341.9" y="1213.9" class="st10" width="758.3" height="94.8"/>
	<polygon class="st11" points="1100.2,1213.9 1100.2,1308.7 1075.6,1308.7 1066.1,1285.1 369.7,1267.6 357.2,1308.7 341.9,1308.7 
		341.9,1213.9 	"/>
	<polygon class="st12" points="1100.2,1213.9 1100.2,1284.9 1088.1,1261.3 353.3,1255.5 341.9,1276.2 341.9,1213.9 	"/>
	<path class="st13" d="M1213,332.1v798.1c0,62.2-48.6,112.7-108.6,112.7H335.7c-60,0-108.6-50.5-108.6-112.7V332.1
		c0-62.2,48.6-112.7,108.6-112.7h768.7C1164.4,219.4,1213,269.8,1213,332.1z"/>
	<path class="st14" d="M1213,459.6v670.5c0.1,28-10,55.1-28.5,76.1c-14.4,16.5-33.5,28.2-54.7,33.5c-8.3,2.1-16.8,3.1-25.4,3.1
		H335.7c-37.7,0-70.8-19.9-90.3-50.1c-12-18.7-18.3-40.4-18.3-62.6v-279c18.1,65.6,45.1,89.5,110.3,148.8
		c101.4,92.2,818.2-236.8,824.2-327.1C1165.5,616.7,1190.2,533.8,1213,459.6z"/>
	<path class="st15" d="M1184.6,1206.3c-19.8,22.5-48.4,36.6-80.1,36.6H335.7c-37.7,0-70.8-19.9-90.3-50.1c25,16,57.8,20,125.9,24.6
		c132.3,9,709.8-16.5,749.8-10.7C1141.5,1209.6,1163.6,1210.4,1184.6,1206.3z"/>
	<path class="st16" d="M1354.1,640.9c0,0-1.7,30.9-5.8,25.2c-0.4-0.5-0.9-1-1.5-1.3c-1.4-0.8-2.9-1.3-4.5-1.8
		c-4.8-1.3-11.8-2.2-19.1-2.8c-9.3-0.7-19.2-1-26.2-0.9h-1.7c-5.2,0.1-9.7-4.8-11.4-11.8c-0.4-1.8-0.7-3.6-0.7-5.5
		c0-0.8,0-1.6,0.1-2.4c0.7-8.5,5.5-15.2,11.4-15.3c2.2,0,4.9-0.1,7.8-0.3c2-0.1,4.1-0.2,6.3-0.4c2.4-0.2,4.8-0.4,7.3-0.6
		c5.7-0.5,11.4-1.2,16.4-2.1c7.5-1.3,13.4-3.1,14.9-5.3c0.5-0.7,1-0.9,1.4-0.6C1352,617.3,1354.1,640.9,1354.1,640.9z"/>
	<path class="st17" d="M1354.1,640.9c0,0-1.7,30.9-5.8,25.2c-0.4-0.5-0.9-1-1.5-1.3c-1.8-5.3-2.6-9-9.4-10.2
		c-9-1.5-13.5-0.7-13.5,3.2c0,0.8-0.3,1.6-0.7,2.4c-9.3-0.7-19.2-1-26.2-0.9h-0.1c-5.4-3.9-10.5-7.8-12.9-11.8
		c-1.4-2.2-2-4.5-1.2-6.6c0.2-0.4,0.4-0.8,0.6-1.2c3.6-5.7,18.2-12.7,25.5-15.9c2.6-1.2,4.3-1.8,4.3-1.8c1.1,0.2,2.1,0.6,3,1.3
		c3.3,2.4,4.8,7.6,6,15.4c1.5,9.8,11.7,10.8,16.8,9.7c5.1-1,3.3-4.7,4.2-15.3c0.8-9.5,3.2-14.8,5.7-17.8
		C1352,617.3,1354.1,640.9,1354.1,640.9z"/>
	<path class="st18" d="M1320.4,641c0.1,11.6-3.2,22.9-9.5,32.6c-0.5,0.8-1.1,1.6-1.7,2.3c-5.5,7.2-12.6,12.3-20.6,14.3
		c-2.6,0.7-5.2,1-7.8,1c-12.9,0-24.4-7.8-31.6-20c-5.3-9.2-8.1-19.6-8-30.3c0-6.8,1.1-13.6,3.3-20.1c6.1-17.8,20.1-30.2,36.3-30.2
		c11.6,0,22.1,6.3,29.3,16.4l0,0C1316.5,616.2,1320.4,628,1320.4,641z"/>
	<path class="st19" d="M1310.9,673.6c-7.3,10.8-18.1,17.7-30.2,17.7c-12.9,0-24.4-7.8-31.6-20c-1.7-19.7-4.5-36.7-4.7-50.3
		c6.1-17.8,20.1-30.2,36.3-30.2c11.6,0,22.1,6.3,29.3,16.4l0,0c1.1,5,0.2,7.9-3.4,9.7c-5,2.5-8.3,5.5-13.9,2.8s-4.1-9.5-7.1,1.8
		s1.1,38,1.7,42.3s-0.4,3.6,5.4,0s14,0.9,16.2,6.4C1309.5,671.3,1310.1,672.5,1310.9,673.6z"/>
	<path class="st20" d="M1306.7,668.3c1.9,2,2.8,4.8,2.5,7.6c-5.5,7.2-12.6,12.3-20.6,14.3c-2.6,0-5.2-0.1-7.8-0.4
		c-14-1.3-13.7-0.9-16.8-14.4s0.8-27.9,2.5-57.5s5.8-18.2,10.5-23s4.5-2.7,8.4-2.7s9.5,2.5,15.4,6.9c6,4.4,10,8.1,8.3,12
		c-1.7,3.9-5,7.3-11,7.3s-8.6-5.1-12.7-9.3s-4,1.5-2.9,8c0,0-11.2,5.1-13,18s6.1,26.5,8.1,33.9s8,2.5,12.5-2.2
		S1303.3,664.8,1306.7,668.3z"/>
	<path class="st16" d="M1365.1,528.1c0,0.6,0,1.3-0.1,1.9c-1.8,11.4-16.5,21.6-16.5,21.6c-0.8-1.9-3.1-2-6.2-1l-1,0.4l0,0
		c-1.1,0.5-2.3,1-3.5,1.7c-9.9,5.4-24,22.6-27,36.8c-0.1,0.4-0.2,0.9-0.2,1.3c-0.8,4.8-1.3,8.6-1.7,11.7
		c-1.4,10.3-1.6,12.2-7.6,13.2c-7.8,1.4-15.6-8.8-17.2-14.1c-1.3-4.4,5.6-28.4,21-44.4c0.2-0.2,0.5-0.5,0.7-0.7
		c3.1-3.2,6.7-6,10.5-8.3c19.2-11.3,26.7-20.5,29.3-25.9c0.4-0.9,0.8-1.8,1-2.8C1347.4,515.2,1364.7,518.2,1365.1,528.1z"/>
	<path class="st17" d="M1365.1,528.1c0,0.6,0,1.3-0.1,1.9c-1.8,11.4-16.5,21.6-16.5,21.6c-0.8-1.9-3.1-2-6.2-1
		c-5.7-0.7-11.2,2.2-19.9,11.3c-12.4,12.9-15.2,28.7-15.2,35.8c0.1,1.7,0.7,3.3,1.6,4.8c-1.4,10.3-1.6,12.2-7.6,13.2
		c-7.8,1.4-15.6-8.8-17.2-14.1c-1.3-4.4,5.6-28.4,21-44.4c-6.4,8.3-9.9,18.4-10,28.8c0,15.2,6,7.5,9.9-4.5s11.7-26.5,25.3-33.7
		s12.4-17.7,16.2-23.6C1348.8,520.3,1356.8,523.2,1365.1,528.1z"/>
	<path class="st16" d="M1346.5,763.8c-0.6-2.7-3.2-7.9-10.7-14.7l0,0c-6-5.3-12.6-10-19.5-14c-15.8-9.3-25.8-28.2-30-41
		c-2-6-2.7-10.7-2.2-12.5c1.6-5.4,9.4-15.5,17.2-14.1c3.2,0.6,4.8,1.4,5.7,3.5c0.5,1.3,0.9,2.7,1.1,4.1c0.6,3.6,1.1,9,2.5,17.3
		c2.4,14.5,17,32.5,27.2,38c0.4,0.2,0.9,0.5,1.3,0.7c1.3,0.7,2.7,1.3,4.1,1.7c2.7,0.8,4.7,0.5,5.4-1.2c0,0,14.7,10.2,16.5,21.6
		S1347.4,768.1,1346.5,763.8z"/>
	<path class="st17" d="M1346.5,763.8c-0.6-2.7-3.2-7.9-10.7-14.7l0,0c-1.1-2.7-2.7-5.2-4.6-7.4c-8.2-8.5-23.3-14.9-31-24.1
		c-5.6-6.6-8.8-18.7-13.9-23.5c-2-6-2.7-10.7-2.2-12.4c1.6-5.4,9.4-15.5,17.2-14.1c3.2,0.6,4.8,1.3,5.7,3.5
		c-2.7,0.7-6.6-1.8-11.8,5.8c-6.2,9.1-2,26.2,4.9,34.8s14,19.5,21.9,19.5s14.8,3.6,19.2,6c1.9,1.1,2-1.2,1.9-4.3
		c2.7,0.8,4.7,0.5,5.4-1.2c0,0,14.7,10.2,16.5,21.6S1347.4,768.1,1346.5,763.8z"/>
	<path class="st18" d="M1390.2,521.7v239c0,11.8-9.3,21.5-20.7,21.5h-2.4c-11.4,0-20.7-9.6-20.7-21.5v-239c0-4,1.1-7.9,3.2-11.4
		c3.7-6.2,10.3-10,17.5-10.1h2.4C1380.9,500.2,1390.2,509.8,1390.2,521.7z"/>
	<path class="st21" d="M1351.5,533.1c11.1,33.6,6.5,98.2,9.4,134.3c2.9,36,17.4,9.3,17.4-26.4s-0.5-103.2,1.6-117.8
		c2.1-14.5,0.6-20.8-11.7-21.9S1345.6,515.2,1351.5,533.1z"/>
	<path class="st19" d="M1385.9,712.8c0,13.6,2,40.4,0.4,49.1s-7.7,15.3-15.2,17s4.3-4.3,7.3-9.8s-7.7-5.9-15.4-5.9
		s-8.4,6.7-4.8,10.5s-2.5,5.4-7.1-8.1s-3-65.1-3-75.7c0-9.6,1.2-97.7-1.6-125.9v-42.3c0-4,1.1-7.9,3.2-11.4
		c-2.1,6.6-2.2,15.5,0.2,27.5c3.8,18.7,3,87.3,5.9,130.5s5,48.4,14.3,51.7c9.3,3.3,15.3-58.8,14.3-76.5s-2.2-78.1-2.2-88.1
		s2-30.1,2-30.1s1.4,63.9,3.2,85.4S1385.9,699.2,1385.9,712.8z"/>
	<path class="st20" d="M1349.8,627v119c0,14.4-0.2,19.5,3.2,24.3s10.4,7.2,10.4,7.2s-9.4-9.6-10.6-16.3s9.2-9.1,19.8-6.6
		c10.6,2.5,12,7.5,7,14.4s-8.1,8.5-8.1,8.5s9.3-0.8,12.3-14.4s-0.4-23.2-1.1-41.9s0.4-50.4,0.4-50.4s-4.1,52.9-13,62.2
		s-11.5,0.3-13.9-21.6C1353.9,689.6,1349.8,627,1349.8,627z"/>
	<path class="st18" d="M1378.6,761.1c3,5.8,1.2,12.1-6.1,13.5s-11.2-1.9-11.2-5.2S1375.3,754.7,1378.6,761.1z"/>
	<path class="st22" d="M1369.1,504.6c-7.7,0-13.7-1.5-13.7,13.6c0,15.1,5.6,29.3,8.1,56.2s3.7,70.2,3.7,74.6s6.8-33,4.6-54.7
		c-2.1-21.7-3.2-62.4,0.4-71.3S1375,504.6,1369.1,504.6z"/>
	<path class="st23" d="M1345.5,522.2c-2.1,5-3.7,11.4-9.3,17.2c-5.6,5.8-12.6,9.6-18.5,14c-6,4.4-12.1,19.1-12.7,11.7
		c-0.3-3.8-0.3-6.4,0.7-8.7c2.3-2.4,4.9-4.6,7.6-6.5c1-0.6,2-1.3,3-1.9c14.2-8.4,22-15.6,26.2-20.9
		C1343.6,525.6,1344.7,523.9,1345.5,522.2z"/>
	<path class="st24" d="M1342.4,527.1c-0.3,1.3-0.9,2.5-1.7,3.7c-3.3,4.9-13.6,14.5-22.6,19.1s-11.2,13.8-10.9,9.7
		c0.3-4,1.8-6.4,6-9.7c1-0.6,2-1.3,3-1.9C1330.5,539.7,1338.3,532.5,1342.4,527.1z"/>
	<path class="st23" d="M1341.2,551c-1.1,0.5-2.3,1-3.5,1.7c-9.9,5.4-24,22.6-27,36.8c-0.4-3.8,0.1-7.3,2.5-12.6
		c4.3-9.2,11.6-16.8,19.5-22.5C1335.1,552.5,1338.1,551.3,1341.2,551z"/>
	<path class="st16" d="M1287.5,603.7c1.1,6.2,4.4,8.7,9.3,10.1s7.7-0.2,9-2.5c1.3-2.3,0.9-4-0.3-6s-6.7-1.7-10-1
		C1292.2,604.9,1286.5,598.2,1287.5,603.7z"/>
	<path class="st21" d="M1289,622.2c-0.8,10.3-3.1,14,3,23.3s25.5,3.5,26.7-4.4c1.2-7.9-5.2-26.3-6.7-28.7s-0.3,8.4-10.2,10.4
		C1291.8,625,1289,622.2,1289,622.2z"/>
	<path class="st22" d="M1300.1,624.7c5.9-1,9.3-2.1,10.5-6s0.9-5.6,3.1-0.5c2.7,5.6,3.3,12,1.7,18c-1.9,7.7-11.4,5.6-16.1,0.6
		C1294.5,631.8,1291.4,626.2,1300.1,624.7z"/>
	<path class="st23" d="M1339,731.1c-0.2,1.5-0.9,1.5-3.1,0.8c-3.8-1.2-5.7-3.1-14.8-9.3c-9.1-6.2-12-12-14.9-18.9s-4.8-5.6-2.9-0.3
		s11.2,20.3,9,19.1s-8.4-8.5-12.5-18.7s-5.6-23.2-1.9-27c3.5-3.6,7.8-3.3,10-1.7c0.6,3.6,1.1,9,2.5,17.3c2.4,14.4,17,32.5,27.2,38
		C1338.1,730.7,1338.5,730.9,1339,731.1z"/>
	<path class="st24" d="M1305.2,676.3c-2.8,0-5-0.8-6.9,4.8c-1.9,5.6-1,16.7,1.4,22.1s8.3,13.3,8.3,13.3s-6.7-14.8-7.4-20.8
		s2-13.4,3.8-5.1c1.8,8.4,3.4,11.7,8.9,19.9s12.1,14,15.1,15.9c3,1.8-3.3-5.4-9.7-13.2s-9.8-20.7-11.2-27.9
		C1306.1,678.1,1305.2,676.3,1305.2,676.3z"/>
	<path class="st23" d="M1337.3,740.3c4.6,1.3,6.1,1.5,6.9,9s-1.7,5.7-3.4,2.9s-3-3.7-5-5.8S1332.3,738.8,1337.3,740.3z"/>
	<path class="st23" d="M1344.8,538.9c0,4.7-1.3,7-0.4,8.6s0.7,0.5-5.4,1.7s-4.8-0.2-1.4-3.7S1344.8,537.4,1344.8,538.9z"/>
	<path class="st23" d="M1321.1,625c9.7,0,20.8-4.2,23.1-4.9s-0.6-0.3-2.4,9.3s-5.8,11.9-11.6,9.4c-4.3-1.8-7.6-5.2-9.2-9.6
		C1320,626.2,1321.1,625,1321.1,625z"/>
	<path class="st24" d="M1323.1,626c6,0,11-1.8,16.2-3.4s2.4-0.5,0.6,3.8s-0.3,8.6-4.2,7.1c-3.9-1.6-5.5-3.8-8.7-4.4
		C1325.2,628.9,1323.7,627.7,1323.1,626z"/>
	<path class="st23" d="M1325.2,659.3c1.2-2.3,4.8-4.7,11.8-2.7s7.3,2.5,7.3,4.6s-7.2-1-10.6-1C1330.9,660,1328,659.7,1325.2,659.3z"
		/>
	<path class="st10" d="M1201.9,281.5v899.2c0,28-22.7,50.6-50.6,50.6H288.9c-28,0-50.6-22.7-50.6-50.6V281.5
		c0-28,22.7-50.6,50.6-50.6h862.5C1179.3,230.9,1201.9,253.5,1201.9,281.5z"/>
	<g>
		
			<linearGradient id="SVGID_3_" gradientUnits="userSpaceOnUse" x1="1023.3975" y1="914.8253" x2="817.9874" y2="1592.3754" gradientTransform="matrix(1 0 0 -1 -322.71 1746.9299)">
			<stop  offset="0.37" style="stop-color:#B1CEDC"/>
			<stop  offset="0.91" style="stop-color:#B1CEDC"/>
		</linearGradient>
		<path class="st25" d="M933.3,230.9C711.4,373.8,400.2,573.7,238.3,675.5V332.1c0-8.8,1.1-17.5,3.3-26l215.6-75.2H933.3z"/>
	</g>
	<path class="st11" d="M1133.8,329.6v803c0,15.5-12.5,28-28,28H334.4c-15.5,0-28-12.5-28-28v-803c0-15.5,12.5-28,28-28h771.4
		C1121.2,301.7,1133.8,314.2,1133.8,329.6z"/>
	<path class="st14" d="M1121.1,357.6v747c0,23.6-18.5,42.8-41.2,42.8H360.3c-22.7,0-41.2-19.2-41.2-42.8v-747
		c0-23.6,18.5-42.8,41.2-42.8h719.6C1102.6,314.8,1121.1,334,1121.1,357.6z"/>
	<path class="st10" d="M387.7,541.7c-23.2,39.6-47,255.2-49.6,279.9s-7.9,266.2,0,288.6s14.8,23.9,84.5,23.9s626.2,4.9,639.3,0
		s-2.4-48.7-2.4-48.7s-322.5-446-333.9-477.5C714.2,576.4,387.7,541.7,387.7,541.7z"/>
	<path class="st26" d="M377.7,540.7l-11.6,57v479.4c0,7.8,2.1,24.3,23.8,28.1s635,7.1,655.1,3.3c20.1-3.8,27.1-8.8,34.4-36.8
		s58.1-368.6,13.2-415.2S377.7,540.7,377.7,540.7z"/>
	<path class="st27" d="M1121.1,357.6v102.9l-111-34.3l-622.4-11l-68.6,490.8V357.6c0-23.6,18.5-42.8,41.2-42.8h719.6
		C1102.6,314.8,1121.1,334,1121.1,357.6z"/>
	<path class="st14" d="M1067.2,394.9v672.5c0,13.3-10.4,24.1-23.2,24.1H396.2c-12.8,0-23.2-10.8-23.2-24.1V394.9
		c0-13.3,10.4-24.1,23.2-24.1H1044C1056.8,370.8,1067.2,381.5,1067.2,394.9z"/>
	<polygon class="st10" points="1048.7,1091.5 1012.2,1041.6 428.9,1041.6 396.2,1091.5 	"/>
	<path class="st12" d="M999.1,449.1v564.1c0,4.2-3.4,7.5-7.5,7.5H448.7c-4.2,0-7.5-3.4-7.5-7.5V449.1c0-4.2,3.4-7.5,7.5-7.5h542.9
		C995.7,441.5,999.1,444.9,999.1,449.1z"/>
	<path class="st28" d="M731.5,1035.6c0,18.1-6.3,25.7-2.5,29.6s7.9,5.2,30.3,9.8c22.5,4.6,169.9,7.9,221,5.8s37.1-15.6,25.3-27.8
		s15.1-18.2-101.4-34.7S731.5,1035.6,731.5,1035.6z"/>
	<path class="st28" d="M457.8,1045.5c-5.1,5.3-20.3,21.4-21.5,22.6c-1.1,1.2,91.6,6.9,141.7,6.9s116.7-2.8,133.7-4.7
		c17.1-1.9,7.1-17.7,0.6-28.8c-6.6-11.1-52.6-35.6-111.4-32.4s-107.1,9.1-120.6,19.2C466.9,1038.4,457.8,1045.5,457.8,1045.5z"/>
	
		<linearGradient id="SVGID_4_" gradientUnits="userSpaceOnUse" x1="1076.0685" y1="705.635" x2="1322.7112" y2="705.635" gradientTransform="matrix(1 0 0 -1 -322.71 1746.9299)">
		<stop  offset="0" style="stop-color:#55FF6E"/>
		<stop  offset="1" style="stop-color:#00BF5C"/>
	</linearGradient>
	<path class="st29" d="M1000,1016.9v48.8c0.1,3.9-3,7.1-6.9,7.2c0,0,0,0,0,0H760.3c-3.9-0.1-7-3.3-6.9-7.2c0,0,0,0,0,0v-48.8
		c-0.1-3.9,3-7.1,6.9-7.2c0,0,0,0,0,0h232.8C997,1009.8,1000.1,1013,1000,1016.9z"/>
	<path class="st30" d="M769.8,1021.9h213.7c0.5,0,0.9,0.4,0.9,0.9v1.7c0,0.5-0.4,0.9-0.9,0.9H769.8c-0.5,0-0.9-0.4-0.9-0.9v-1.7
		C768.9,1022.3,769.3,1021.9,769.8,1021.9z"/>
	<rect x="798.1" y="1033" class="st30" width="157.1" height="2.5"/>
	<path class="st30" d="M777.6,1054.6h198.1c0.5,0,0.9,0.4,0.9,0.9v1.7c0,0.5-0.4,0.9-0.9,0.9H777.6c-0.5,0-0.9-0.4-0.9-0.9v-1.7
		C776.7,1055,777.1,1054.6,777.6,1054.6z"/>
	<path class="st30" d="M941.8,1043.6h45.6c0.5,0,0.9,0.4,0.9,0.9v1.7c0,0.5-0.4,0.9-0.9,0.9h-45.6c-0.5,0-0.9-0.4-0.9-0.9v-1.7
		C940.9,1044,941.3,1043.6,941.8,1043.6z"/>
	<rect x="825.7" y="1009.7" class="st31" width="102" height="63.2"/>
	<rect x="840" y="1009.7" class="st32" width="73.3" height="63.2"/>
	<rect x="825.7" y="1009.7" class="st33" width="102" height="7.7"/>
	<rect x="840" y="1009.7" class="st0" width="73.3" height="7.7"/>
	<rect x="825.7" y="1065.2" class="st34" width="102" height="7.7"/>
	<rect x="840" y="1065.2" class="st35" width="73.3" height="7.7"/>
	
		<linearGradient id="SVGID_5_" gradientUnits="userSpaceOnUse" x1="1047.099" y1="768.885" x2="1147.1711" y2="768.885" gradientTransform="matrix(1 0 0 -1 -322.71 1746.9299)">
		<stop  offset="0" style="stop-color:#55FF6E"/>
		<stop  offset="1" style="stop-color:#00BF5C"/>
	</linearGradient>
	<path class="st36" d="M824.5,954.4v47.2c0.1,4.3-3.4,7.9-7.7,8h-84.6c-4.3-0.1-7.8-3.7-7.7-8v-47.2c-0.1-4.3,3.4-7.9,7.7-8h84.6
		C821.1,946.5,824.5,950.1,824.5,954.4z"/>
	<path class="st30" d="M727.7,958.7h93.5c0.5,0,0.9,0.4,0.9,0.9v1.7c0,0.5-0.4,0.9-0.9,0.9h-93.5c-0.5,0-0.9-0.4-0.9-0.9v-1.7
		C726.8,959,727.2,958.7,727.7,958.7z"/>
	<rect x="751.2" y="971.6" class="st30" width="63.7" height="2.5"/>
	<rect x="729.2" y="965.7" class="st30" width="63.7" height="2.5"/>
	<path class="st30" d="M817.1,998.6l-88.9-0.2c-0.8,0-1.4-0.7-1.4-1.4l0,0c0-0.8,0.6-1.4,1.4-1.4c0,0,0,0,0,0l88.9,0.2
		c0.8,0,1.4,0.7,1.4,1.4l0,0C818.5,998,817.9,998.6,817.1,998.6z"/>
	<path class="st30" d="M818,983.8h-15.9c-0.9,0-1.7-0.8-1.7-1.7c0,0,0,0,0,0l0,0c0-0.9,0.7-1.7,1.7-1.7c0,0,0,0,0,0H818
		c0.9,0,1.7,0.8,1.7,1.7l0,0C819.7,983,819,983.8,818,983.8C818,983.8,818,983.8,818,983.8z"/>
	<path class="st30" d="M763.4,988.4h-15.9c-0.9,0-1.7-0.8-1.7-1.7c0,0,0,0,0,0l0,0c0-0.9,0.7-1.7,1.7-1.7h15.9
		c0.9,0,1.7,0.8,1.7,1.7l0,0C765.1,987.6,764.3,988.4,763.4,988.4C763.4,988.4,763.4,988.4,763.4,988.4z"/>
	
		<linearGradient id="SVGID_6_" gradientUnits="userSpaceOnUse" x1="1085.9241" y1="803.2458" x2="1336.3159" y2="803.2458" gradientTransform="matrix(1 0 0 -1 -322.71 1746.9299)">
		<stop  offset="0" style="stop-color:#55FF6E"/>
		<stop  offset="1" style="stop-color:#00BF5C"/>
	</linearGradient>
	<path class="st37" d="M1013.3,957.3l-13.6,46.7c-1,3.7-4.8,5.9-8.5,4.9c-0.1,0-0.1,0-0.2-0.1l-222.9-69.8c-3.7-1.2-5.8-5.2-4.7-9
		l13.6-46.7c1-3.7,4.8-5.9,8.4-4.9c0.1,0,0.1,0,0.2,0.1l222.9,69.8C1012.4,949.6,1014.4,953.5,1013.3,957.3z"/>
	<path class="st30" d="M994.3,960.2l-203-63.6c-0.9-0.3-1.4-1.3-1.1-2.2l0,0c0.2-0.9,1.2-1.4,2-1.2c0,0,0,0,0.1,0l203,63.6
		c0.9,0.3,1.4,1.3,1.1,2.2l0,0C996.2,960,995.2,960.5,994.3,960.2C994.4,960.3,994.3,960.3,994.3,960.2z"/>
	<polygon class="st30" points="965.2,961.7 814.8,914.6 815.5,912.2 965.9,959.3 	"/>
	<path class="st30" d="M977.7,989.3l-188.1-59.1c-0.9-0.3-1.4-1.3-1.1-2.2l0,0c0.2-0.9,1.2-1.4,2-1.2c0,0,0,0,0.1,0L978.7,986
		c0.9,0.3,1.4,1.3,1.1,2.2l0,0C979.6,989.1,978.7,989.6,977.7,989.3C977.8,989.3,977.8,989.3,977.7,989.3z"/>
	<path class="st30" d="M992.1,982.2L949.9,969c-0.9-0.3-1.4-1.3-1.1-2.2l0,0c0.2-0.9,1.1-1.4,2-1.2c0,0,0,0,0.1,0l42.1,13.3
		c0.9,0.3,1.4,1.3,1.1,2.2l0,0C993.9,982,993,982.5,992.1,982.2C992.1,982.2,992.1,982.2,992.1,982.2z"/>
	<polygon class="st31" points="946,928.7 928.4,989.2 830.8,958.7 848.4,898.1 	"/>
	<polygon class="st32" points="932.3,924.4 914.7,985 844.5,963 862.1,902.4 	"/>
	<polygon class="st33" points="946,928.7 943.8,936.1 846.2,905.5 848.4,898.1 	"/>
	<polygon class="st0" points="932.3,924.4 930.1,931.8 860,909.8 862.1,902.4 	"/>
	<polygon class="st34" points="930.5,981.9 928.4,989.2 830.8,958.7 832.9,951.3 	"/>
	<polygon class="st35" points="916.8,977.6 914.7,984.9 844.5,963 846.7,955.6 	"/>
	<path class="st38" d="M567.8,1070.3H440.3c-2.5-0.1-4.5-2.2-4.5-4.7c0-0.3,0-0.5,0.1-0.8l0.5-2.5l2.6-13.9l12.9-68.5
		c0.6-3.6,3.8-6.3,7.5-6.4h89.4c3.7,0.1,6.8,2.7,7.4,6.4l15.2,80.6l0.6,3l0.3,1.3c0.5,2.5-1.1,4.9-3.6,5.4
		C568.4,1070.3,568.1,1070.3,567.8,1070.3z"/>
	<path class="st39" d="M457.9,1055.8c16-3.3,19.1-7,27.8-9.7c8.7-2.7,17.6,3.6,35.4,7.5c17.8,3.9,25.6,4.1,26.6,5.9
		s-16.9,2-35.8,2.5c-18.8,0.5-41.3,3-48.5,1.1C456.3,1061.3,444.6,1058.6,457.9,1055.8z"/>
	<path class="st39" d="M539.2,978.2c9.2,0,6.4,4.6,4.4,18.8c-2,14.2-20.7,21.3-22.6,17c-2-4.3-6.2-14.5-22.6-14.5
		c-16.4,0-21.4,2.3-27.5,16.1s2.3,17.6,7.1,26.3c4.9,8.7-26.2,13.1-29,10.2s-1.2-33.1,6.4-49.6s18.4-24.3,33.6-24.3L539.2,978.2z"/>
	
		<linearGradient id="SVGID_7_" gradientUnits="userSpaceOnUse" x1="758.5461" y1="724.2137" x2="895.0569" y2="724.2137" gradientTransform="matrix(1 0 0 -1 -322.71 1746.9299)">
		<stop  offset="0" style="stop-color:#E99600"/>
		<stop  offset="1" style="stop-color:#7F4A00"/>
	</linearGradient>
	<path class="st40" d="M567.8,1070.3H440.3c-2.5-0.1-4.5-2.2-4.5-4.7c0-0.3,0-0.5,0.1-0.8l3.1-16.4c1.8-3.4,3.9-6.7,6.3-9.7
		c-1.9,12.9-4.4,21.3-0.9,22.8s98.9-0.4,106.1-1.2c7.2-0.8-22.7-9.2-38.7-13.1c-16-3.9-28.2-7.1-36.2-13c-7.9-5.8-9.7-10.7-2.7-17.9
		s31.2-29.5,43.3-15.6c12.1,13.9-15.1,16.4-3.5,23.8c11.6,7.4,28.7,11.4,32.3,0.2c3.6-11.2,2.1-26.7,2.1-37s2.4-12.1,3.9-12.6
		s2.3,24.2,5.7,36.4s8,42.9,12.4,47.4c0.6,0.7,1.4,1.2,2.3,1.6l0.8,4.4c0.5,2.5-1.1,4.9-3.5,5.4
		C568.4,1070.3,568.1,1070.3,567.8,1070.3z"/>
	<path class="st41" d="M456.2,977.5c-7.3,7.6-11.2,59-13.3,70.2s-1.2,13.5-0.6,14.1c0.6,0.6,5.8-0.1,6.6-9.7s14.4-49,25.8-59.6
		s28.4-9.8,38.1-7c9.7,2.8,29.6-2.7,32.9-4.8s7.7-3.9,2.6-4.8C543.3,974.9,460.1,973.4,456.2,977.5z"/>
	<path class="st42" d="M444.9,1054.8c3.5-12,7.8-63.8,11.2-71.5s30.3-6.6,44.2-6.6c13.9,0,44.7-0.5,44.7,0.5s-14.3,5.6-21.6,5
		c-7.3-0.6-13.3-2.5-31.5-2.5s-22,4.8-29.3,15.6s-11.8,34.9-13.1,45.2C448.2,1050.8,444.9,1054.8,444.9,1054.8z"/>
	<path class="st43" d="M567.8,1070.3H440.3c-2.5-0.1-4.5-2.2-4.5-4.7c0-0.3,0-0.5,0.1-0.8l0.5-2.5c1.4,1.4,3.7,2.5,7.5,3.5
		c10.9,2.8,85,1,103.4,1c16.8,0,20.8,0,24.6-3.2l0.3,1.3c0.5,2.5-1.1,4.9-3.6,5.4C568.3,1070.3,568.1,1070.3,567.8,1070.3z"/>
	<path class="st41" d="M453.4,1064.2c6.4,2.1,10.8,2.1,18.7,2.1s44.5-1.7,62.6-1.7s23.5,1,24.9-0.4c1.4-1.4-4.6-2.8-18.8-3.5
		c-14.2-0.6-39.8-1.5-54.8-0.1S449.6,1063,453.4,1064.2z"/>
	<path class="st41" d="M553,978.2c-3,13.1,0.8,39.4,1.8,57.9c1.1,18.5,9.7,21.1,12.3,23.8c2.7,2.8-2-20-4.7-35.6
		C559.7,1008.7,553,978.2,553,978.2z"/>
	<path class="st41" d="M497.6,991.5c11.5-4,16.3,3,28.6,1.6s14.6-5.3,16.3,1.2s-4.3,6.9-9.5,17.8s-17.1,10.7-17.1,1.4
		s1.3-12.9-10.8-15.3C492.8,995.7,490.3,994,497.6,991.5z"/>
	<path class="st41" d="M547.6,1036.4c1-3.4,0.9-7.7,0.2-14.5c-1.1-10.7-2.3,1.2-7.5,7.5c-5.2,6.4-10.1-1.5-25.1-6.7
		c-15-5.3-8.7,2.1-3,6.7c1.2,1,2.1,1.7,2.9,2.2c-1.7-0.8-3.4-1.4-5.1-1.9c-13.2-4-1.2,1.6,9.1,7.4c10.3,5.8-2.4,2-18.3-4.7
		c-15.9-6.7-15.8,2.4-25.9-3.5c-10.9-6.3-12.5,1.3-13.6,11.5s6.2,1.6,21.4,6.8c15.2,5.2,13.3,4.5,22.5,5.1c9.1,0.6-1.4-4.9,4.3-6.8
		c5.7-1.9,17.6,1.5,26.6,6s12.4,1.5,13.5-9.5C549.9,1037,549.4,1036,547.6,1036.4z"/>
	<path class="st38" d="M707.8,1070.3H580.3c-2.5-0.1-4.5-2.2-4.5-4.7c0-0.3,0-0.5,0.1-0.8l0.5-2.5l2.6-13.9l12.9-68.5
		c0.6-3.6,3.8-6.3,7.4-6.4h89.3c3.7,0.1,6.8,2.7,7.5,6.4l15.2,80.6l0.6,3l0.3,1.3c0.5,2.5-1.1,4.9-3.6,5.4
		C708.3,1070.3,708.1,1070.3,707.8,1070.3z"/>
	<path class="st39" d="M597.9,1055.8c16-3.3,19.1-7,27.8-9.7c8.7-2.7,17.6,3.6,35.4,7.5c17.8,3.9,25.6,4.1,26.6,5.9
		s-16.9,2-35.8,2.5c-18.8,0.5-41.3,3-48.5,1.1C596.2,1061.3,584.6,1058.6,597.9,1055.8z"/>
	<path class="st39" d="M679.1,978.2c9.2,0,6.4,4.6,4.4,18.8c-2,14.2-20.7,21.3-22.6,17c-2-4.3-6.2-14.5-22.6-14.5
		s-21.4,2.3-27.5,16.1c-6.1,13.8,2.3,17.6,7.1,26.3c4.9,8.7-26.2,13.1-29,10.2s-1.2-33.1,6.4-49.6s18.4-24.3,33.6-24.3L679.1,978.2z
		"/>
	
		<linearGradient id="SVGID_8_" gradientUnits="userSpaceOnUse" x1="898.5461" y1="724.1887" x2="1035.0265" y2="724.1887" gradientTransform="matrix(1 0 0 -1 -322.71 1746.9299)">
		<stop  offset="0" style="stop-color:#E99600"/>
		<stop  offset="1" style="stop-color:#7F4A00"/>
	</linearGradient>
	<path class="st44" d="M707.8,1070.3H580.3c-2.5-0.1-4.5-2.2-4.5-4.7c0-0.3,0-0.5,0.1-0.8l3.1-16.4c1.8-3.4,3.9-6.7,6.3-9.7
		c-1.9,12.9-4.4,21.3-0.9,22.8c3.4,1.5,98.9-0.4,106.1-1.2c7.2-0.8-22.7-9.2-38.7-13.1c-16-3.9-28.2-7.1-36.2-13
		c-7.9-5.8-9.7-10.7-2.7-17.9c6.9-7.2,31.2-29.5,43.2-15.6c12.1,13.9-15.1,16.4-3.5,23.8s28.7,11.4,32.3,0.2
		c3.7-11.2,2.1-26.7,2.1-37s2.5-12.1,4-12.6c1.6-0.5,2.3,24.2,5.7,36.4s8,42.9,12.4,47.4c0.6,0.7,1.4,1.2,2.3,1.6l0.8,4.4
		c0.5,2.5-1.1,4.9-3.6,5.4C708.4,1070.3,708.1,1070.3,707.8,1070.3z"/>
	<path class="st41" d="M596.1,977.5c-7.3,7.6-11.2,59-13.3,70.2s-1.2,13.5-0.6,14.1c0.6,0.6,5.8-0.1,6.6-9.7
		c0.8-9.6,14.4-49,25.8-59.6c11.4-10.6,28.4-9.8,38.1-7c9.7,2.8,29.6-2.7,32.9-4.8s7.7-3.9,2.6-4.8
		C683.2,974.9,600.1,973.4,596.1,977.5z"/>
	<path class="st42" d="M584.8,1054.8c3.5-12,7.8-63.8,11.2-71.5c3.4-7.7,30.3-6.6,44.2-6.6s44.7-0.5,44.7,0.5s-14.3,5.6-21.6,5
		c-7.3-0.6-13.3-2.5-31.5-2.5s-22,4.8-29.3,15.6s-11.8,34.9-13.1,45.2C588.1,1050.8,584.8,1054.8,584.8,1054.8z"/>
	<path class="st43" d="M707.8,1070.3H580.3c-2.5-0.1-4.5-2.2-4.5-4.7c0-0.3,0-0.5,0.1-0.8l0.5-2.5c1.4,1.4,3.7,2.5,7.5,3.5
		c10.9,2.8,85,1,103.4,1c16.8,0,20.8,0,24.6-3.2l0.3,1.3c0.5,2.5-1.1,4.9-3.6,5.4C708.3,1070.3,708.1,1070.3,707.8,1070.3z"/>
	<path class="st41" d="M593.3,1064.2c6.4,2.1,10.8,2.1,18.7,2.1c7.9,0,44.5-1.7,62.6-1.7s23.5,1,24.9-0.4c1.4-1.4-4.6-2.8-18.8-3.5
		c-14.2-0.6-39.8-1.5-54.8-0.1S589.5,1063,593.3,1064.2z"/>
	<path class="st41" d="M693,978.2c-3,13.1,0.8,39.4,1.8,57.9c1.1,18.5,9.7,21.1,12.3,23.8s-2-20-4.7-35.6
		C699.7,1008.7,693,978.2,693,978.2z"/>
	<path class="st41" d="M637.6,991.5c11.5-4,16.3,3,28.6,1.6s14.6-5.3,16.3,1.2s-4.3,6.9-9.6,17.8s-17.1,10.7-17.1,1.4
		s1.3-12.9-10.8-15.3S630.3,994,637.6,991.5z"/>
	<path class="st41" d="M687.5,1036.4c1-3.4,0.9-7.7,0.2-14.5c-1.1-10.7-2.3,1.2-7.5,7.5c-5.2,6.4-10.1-1.5-25.1-6.7
		c-15-5.3-8.7,2.1-3,6.7c1.2,1,2.1,1.7,2.9,2.2c-1.7-0.8-3.4-1.4-5.1-1.9c-13.2-4-1.2,1.6,9.1,7.4c10.3,5.8-2.4,2-18.3-4.7
		s-15.8,2.4-25.9-3.5c-10.9-6.3-12.5,1.3-13.6,11.5s6.2,1.6,21.4,6.8c15.2,5.2,13.3,4.5,22.5,5.1c9.1,0.6-1.4-4.9,4.3-6.8
		c5.7-1.9,17.6,1.5,26.6,6s12.4,1.5,13.5-9.5C689.8,1037,689.3,1036,687.5,1036.4z"/>
	<path class="st38" d="M639.7,973.4H512c-2.5-0.1-4.5-2.2-4.5-4.7c0-0.3,0-0.5,0.1-0.8l0.5-2.5l2.6-13.9l12.9-68.6
		c0.6-3.6,3.8-6.3,7.5-6.4h89.4c3.7,0.1,6.8,2.7,7.5,6.4l15.2,80.7l0.6,3.1l0.2,1.3c0.5,2.5-1.1,4.9-3.5,5.4
		C640.2,973.4,639.9,973.4,639.7,973.4z"/>
	<path class="st39" d="M529.6,958.9c16.1-3.3,19.2-7.1,27.9-9.7c8.7-2.6,17.6,3.6,35.4,7.5c17.8,3.9,25.7,4.1,26.7,5.9
		s-16.9,2-35.8,2.5s-41.4,3-48.6,1.1C528,964.4,516.3,961.6,529.6,958.9z"/>
	<path class="st39" d="M611,881.2c9.2,0,6.4,4.6,4.4,18.8c-2,14.2-20.7,21.4-22.7,17s-6.2-14.5-22.7-14.5
		c-16.4,0-21.4,2.3-27.5,16.2c-6.1,13.9,2.3,17.6,7.2,26.3s-26.3,13.1-29.1,10.2c-2.8-2.9-1.2-33.1,6.4-49.7s18.4-24.3,33.6-24.3
		L611,881.2z"/>
	
		<linearGradient id="SVGID_9_" gradientUnits="userSpaceOnUse" x1="830.2361" y1="821.1789" x2="966.8489" y2="821.1789" gradientTransform="matrix(1 0 0 -1 -322.71 1746.9299)">
		<stop  offset="0" style="stop-color:#E99600"/>
		<stop  offset="1" style="stop-color:#7F4A00"/>
	</linearGradient>
	<path class="st45" d="M639.7,973.4H512c-2.5-0.1-4.5-2.2-4.5-4.7c0-0.3,0-0.5,0.1-0.8l3.1-16.5c1.8-3.4,3.9-6.7,6.3-9.7
		c-1.9,13-4.4,21.4-0.9,22.8c3.5,1.5,99-0.4,106.2-1.2s-22.7-9.3-38.7-13.2s-28.3-7.2-36.2-13.1c-7.9-5.9-9.7-10.7-2.7-17.9
		c6.9-7.2,31.2-29.5,43.3-15.6c12.1,13.9-15.1,16.4-3.5,23.8c11.6,7.4,28.7,11.4,32.3,0.2c3.6-11.2,2.1-26.7,2.1-37s2.5-12.1,4-12.6
		c1.5-0.5,2.3,24.2,5.7,36.4s8,42.9,12.4,47.5c0.6,0.7,1.4,1.2,2.3,1.6l0.8,4.4c0.5,2.5-1.1,4.9-3.6,5.4
		C640.2,973.4,639.9,973.4,639.7,973.4z"/>
	<path class="st41" d="M527.9,880.5c-7.3,7.6-11.2,59-13.3,70.3s-1.2,13.5-0.6,14.1s5.8-0.1,6.6-9.7c0.8-9.6,14.4-49,25.8-59.7
		c11.4-10.7,28.4-9.8,38.1-7.1s29.6-2.7,33-4.8s7.7-3.9,2.6-4.8C615.1,877.8,531.8,876.4,527.9,880.5z"/>
	<path class="st42" d="M516.5,957.8c3.5-12,7.8-63.9,11.3-71.6c3.4-7.7,30.3-6.6,44.2-6.6s44.7-0.5,44.7,0.5s-14.3,5.6-21.6,5
		s-13.3-2.5-31.5-2.5c-18.2,0-22,4.8-29.3,15.6c-7.3,10.7-11.8,35-13.1,45.3C519.9,953.8,516.5,957.8,516.5,957.8z"/>
	<path class="st43" d="M639.7,973.4H512c-2.5-0.1-4.5-2.2-4.5-4.7c0-0.3,0-0.5,0.1-0.8l0.5-2.5c1.4,1.4,3.7,2.5,7.5,3.5
		c11,2.8,85.1,1,103.5,1c16.8,0,20.9,0,24.6-3.2l0.2,1.3c0.5,2.5-1.1,4.9-3.5,5.4C640.2,973.4,639.9,973.4,639.7,973.4z"/>
	<path class="st41" d="M525,967.3c6.4,2.1,10.8,2.1,18.8,2.1s44.5-1.7,62.7-1.7s23.5,1,24.9-0.4c1.4-1.5-4.6-2.8-18.8-3.5
		s-39.8-1.5-54.8-0.1S521.3,966.1,525,967.3z"/>
	<path class="st41" d="M624.8,881.2c-3,13.1,0.8,39.5,1.8,57.9c1.1,18.5,9.7,21.1,12.3,23.8c2.7,2.8-2-20-4.7-35.7
		C631.5,911.6,624.8,881.2,624.8,881.2z"/>
	<path class="st41" d="M569.3,894.5c11.5-4,16.3,3,28.6,1.6s14.6-5.3,16.3,1.2c1.7,6.4-4.3,6.9-9.6,17.9s-17.1,10.7-17.1,1.4
		s1.3-13-10.8-15.4S562.1,897,569.3,894.5z"/>
	<path class="st41" d="M619.4,939.4c1-3.4,0.9-7.7,0.2-14.5c-1.1-10.7-2.3,1.2-7.5,7.5s-10.1-1.5-25.2-6.7s-8.7,2.1-3,6.7
		c1.2,1,2.1,1.7,2.9,2.3c-1.7-0.8-3.4-1.4-5.1-2c-13.2-4-1.2,1.6,9.2,7.4c10.3,5.8-2.4,2-18.3-4.7c-15.9-6.7-15.8,2.4-26-3.5
		c-10.9-6.3-12.5,1.3-13.6,11.5c-1.1,10.3,6.2,1.6,21.4,6.8s13.4,4.5,22.5,5.1s-1.4-4.9,4.2-6.8c5.7-1.9,17.6,1.5,26.7,6
		c9,4.5,12.4,1.5,13.5-9.5C621.7,940.1,621.2,939,619.4,939.4z"/>
	<g class="st46">
		
			<linearGradient id="SVGID_10_" gradientUnits="userSpaceOnUse" x1="721.07" y1="346.53" x2="721.07" y2="678.95" gradientTransform="matrix(1 0 0 -1 0 1500)">
			<stop  offset="0.2" style="stop-color:#101D21"/>
			<stop  offset="0.85" style="stop-color:#101D21"/>
		</linearGradient>
		<polygon class="st47" points="1025.9,840.9 1054.5,866.1 1012.2,1041.6 428.9,1041.6 387.7,866.1 536.7,838.3 		"/>
	</g>
	<rect x="387.7" y="816" class="st10" width="666.8" height="50.2"/>
	<polygon class="st26" points="999.2,788 1054.5,816 387.7,816 443,788 	"/>
	<polygon class="st26" points="373.4,1268.7 363.9,1297.7 1065.5,1291.7 1060.8,1283.2 	"/>
	<rect x="341.9" y="1300.9" class="st12" width="758.3" height="7.8"/>
	<path class="st28" d="M471.8,789.3c-29.1,0-42.9,7.9-47.5,12.7s12.5,9.8,47.5,9.8h294.9c74.9,0,225.2,5.9,232.3-1.5
		s-23.9-23.5-41.6-27.1s-185.8-17-277.9-12.2S471.8,789.3,471.8,789.3z"/>
	
		<linearGradient id="SVGID_11_" gradientUnits="userSpaceOnUse" x1="765.4385" y1="969.945" x2="1024.9113" y2="969.945" gradientTransform="matrix(1 0 0 -1 -322.71 1746.9299)">
		<stop  offset="0" style="stop-color:#55FF6E"/>
		<stop  offset="1" style="stop-color:#00BF5C"/>
	</linearGradient>
	<path class="st48" d="M702.2,751v51.9c0.1,4-3.1,7.2-7.1,7.3H449.7c-4-0.1-7.1-3.4-7-7.3V751c-0.1-3.9,3.1-7.2,7-7.3h245.4
		C699.1,743.8,702.3,747.1,702.2,751C702.2,751,702.2,751,702.2,751z"/>
	<path class="st30" d="M460,756.6h224.8c0.5,0,0.9,0.4,0.9,0.9v1.8c0,0.5-0.4,0.9-0.9,0.9H460c-0.5,0-0.9-0.4-0.9-0.9v-1.8
		C459.1,757,459.5,756.6,460,756.6z"/>
	<rect x="489.8" y="768.3" class="st30" width="165.3" height="2.6"/>
	<path class="st30" d="M468.2,791h208.4c0.5,0,0.9,0.4,0.9,0.9v1.8c0,0.5-0.4,0.9-0.9,0.9H468.2c-0.5,0-0.9-0.4-0.9-0.9v-1.8
		C467.3,791.4,467.7,791,468.2,791z"/>
	<path class="st30" d="M640.9,779.4h48c0.5,0,0.9,0.4,0.9,0.9v1.8c0,0.5-0.4,0.9-0.9,0.9h-48c-0.5,0-0.9-0.4-0.9-0.9v-1.8
		C640,779.8,640.4,779.4,640.9,779.4z"/>
	<path class="st31" d="M626.1,745.5v62.9c0,1-0.8,1.8-1.8,1.8c0,0,0,0,0,0H520.6c-1,0-1.8-0.8-1.8-1.8c0,0,0,0,0,0v-62.9
		c0-1,0.8-1.8,1.8-1.8h103.7C625.3,743.7,626.1,744.6,626.1,745.5z"/>
	<path class="st32" d="M611,745.5v62.9c0,1-0.8,1.8-1.8,1.8c0,0,0,0,0,0h-73.5c-1,0-1.8-0.8-1.8-1.8c0,0,0,0,0,0v-62.9
		c0-1,0.8-1.8,1.8-1.8h73.5C610.2,743.7,611,744.6,611,745.5z"/>
	<path class="st33" d="M626.1,745.6v4.4c0,1-0.8,1.8-1.8,1.8H520.6c-1,0-1.8-0.8-1.8-1.8v-4.4c0-1,0.8-1.8,1.8-1.8h103.7
		C625.3,743.8,626.1,744.6,626.1,745.6z"/>
	<path class="st0" d="M611,745.6v4.4c0,1-0.8,1.8-1.8,1.8h-73.5c-1,0-1.8-0.8-1.8-1.8v-4.4c0-1,0.8-1.8,1.8-1.8h73.5
		C610.2,743.8,611,744.6,611,745.6z"/>
	<path class="st34" d="M626.1,803.9v4.4c0,1-0.8,1.8-1.8,1.8c0,0,0,0,0,0H520.6c-1,0-1.8-0.8-1.8-1.8c0,0,0,0,0,0v-4.4
		c0-1,0.8-1.8,1.8-1.8h103.7C625.3,802.1,626.1,802.9,626.1,803.9z"/>
	<path class="st35" d="M611,803.9v4.4c0,1-0.8,1.8-1.8,1.8c0,0,0,0,0,0h-73.5c-1,0-1.8-0.8-1.8-1.8c0,0,0,0,0,0v-4.4
		c0-1,0.8-1.8,1.8-1.8h73.5C610.2,802.1,611,802.9,611,803.9z"/>
	
		<linearGradient id="SVGID_12_" gradientUnits="userSpaceOnUse" x1="1033.0391" y1="969.94" x2="1292.561" y2="969.94" gradientTransform="matrix(1 0 0 -1 -322.71 1746.9299)">
		<stop  offset="0" style="stop-color:#55FF6E"/>
		<stop  offset="1" style="stop-color:#00BF5C"/>
	</linearGradient>
	<path class="st49" d="M969.9,750.4v53.2c0.1,3.6-2.8,6.6-6.4,6.7H716.8c-3.6-0.1-6.5-3.1-6.4-6.7v-53.2c-0.1-3.6,2.8-6.6,6.4-6.7
		h246.6C967,743.8,969.9,746.8,969.9,750.4z"/>
	<path class="st30" d="M727.7,756.6h224.8c0.5,0,0.9,0.4,0.9,0.9v1.8c0,0.5-0.4,0.9-0.9,0.9H727.7c-0.5,0-0.9-0.4-0.9-0.9v-1.8
		C726.8,757,727.2,756.6,727.7,756.6z"/>
	<rect x="757.4" y="768.3" class="st30" width="165.2" height="2.6"/>
	<path class="st30" d="M735.8,791h208.4c0.5,0,0.9,0.4,0.9,0.9v1.8c0,0.5-0.4,0.9-0.9,0.9H735.8c-0.5,0-0.9-0.4-0.9-0.9v-1.8
		C734.9,791.4,735.3,791,735.8,791z"/>
	<path class="st30" d="M908.6,779.4h48c0.5,0,0.9,0.4,0.9,0.9v1.8c0,0.5-0.4,0.9-0.9,0.9h-48c-0.5,0-0.9-0.4-0.9-0.9v-1.8
		C907.7,779.8,908.1,779.4,908.6,779.4z"/>
	<rect x="786.4" y="743.7" class="st31" width="107.2" height="66.5"/>
	<rect x="801.5" y="743.7" class="st32" width="77.1" height="66.5"/>
	<rect x="786.4" y="743.7" class="st33" width="107.2" height="8.1"/>
	<rect x="801.5" y="743.7" class="st0" width="77.1" height="8.1"/>
	<rect x="786.4" y="802.1" class="st34" width="107.2" height="8.1"/>
	<rect x="801.5" y="802.1" class="st35" width="77.1" height="8.1"/>
	
		<linearGradient id="SVGID_13_" gradientUnits="userSpaceOnUse" x1="778.1287" y1="1036.48" x2="1037.6312" y2="1036.48" gradientTransform="matrix(1 0 0 -1 -322.71 1746.9299)">
		<stop  offset="0" style="stop-color:#55FF6E"/>
		<stop  offset="1" style="stop-color:#00BF5C"/>
	</linearGradient>
	<path class="st50" d="M714.9,684.3v52.3c0.1,3.9-3,7.1-6.9,7.1c0,0,0,0,0,0H462.3c-3.9-0.1-6.9-3.3-6.9-7.1c0,0,0,0,0,0v-52.3
		c-0.1-3.9,3-7.1,6.9-7.1c0,0,0,0,0,0h245.8C711.9,677.3,715,680.4,714.9,684.3z"/>
	<path class="st30" d="M472.8,690h224.8c0.5,0,0.9,0.4,0.9,0.9v1.8c0,0.5-0.4,0.9-0.9,0.9H472.8c-0.5,0-0.9-0.4-0.9-0.9V691
		C471.8,690.5,472.2,690,472.8,690z"/>
	<rect x="502.5" y="701.7" class="st30" width="165.2" height="2.6"/>
	<path class="st30" d="M480.9,724.5h208.4c0.5,0,0.9,0.4,0.9,0.9v1.8c0,0.5-0.4,0.9-0.9,0.9H480.9c-0.5,0-0.9-0.4-0.9-0.9v-1.8
		C480,724.9,480.4,724.5,480.9,724.5z"/>
	<path class="st30" d="M653.7,712.9h48c0.5,0,0.9,0.4,0.9,0.9v1.8c0,0.5-0.4,0.9-0.9,0.9h-48c-0.5,0-0.9-0.4-0.9-0.9v-1.8
		C652.8,713.3,653.2,712.9,653.7,712.9z"/>
	<rect x="531.5" y="677.2" class="st31" width="107.2" height="66.5"/>
	<rect x="546.6" y="677.2" class="st32" width="77.1" height="66.5"/>
	<rect x="531.5" y="677.2" class="st33" width="107.2" height="8.1"/>
	<rect x="546.6" y="677.2" class="st0" width="77.1" height="8.1"/>
	<rect x="531.5" y="735.6" class="st34" width="107.2" height="8.1"/>
	<rect x="546.6" y="735.6" class="st35" width="77.1" height="8.1"/>
	
		<linearGradient id="SVGID_14_" gradientUnits="userSpaceOnUse" x1="765.3591" y1="1103" x2="1024.8809" y2="1103" gradientTransform="matrix(1 0 0 -1 -322.71 1746.9299)">
		<stop  offset="0" style="stop-color:#55FF6E"/>
		<stop  offset="1" style="stop-color:#00BF5C"/>
	</linearGradient>
	<path class="st51" d="M702.2,617.7v52.5c0.1,3.8-3,6.9-6.8,7h-246c-3.8-0.1-6.8-3.2-6.8-7v-52.5c-0.1-3.8,3-6.9,6.8-7h246
		C699.2,610.8,702.2,613.9,702.2,617.7z"/>
	<path class="st30" d="M460,623.5h224.8c0.5,0,0.9,0.4,0.9,0.9v1.8c0,0.5-0.4,0.9-0.9,0.9H460c-0.5,0-0.9-0.4-0.9-0.9v-1.8
		C459.1,623.9,459.5,623.5,460,623.5z"/>
	<rect x="489.8" y="635.2" class="st30" width="165.2" height="2.6"/>
	<path class="st30" d="M468.2,658h208.4c0.5,0,0.9,0.4,0.9,0.9v1.8c0,0.5-0.4,0.9-0.9,0.9H468.2c-0.5,0-0.9-0.4-0.9-0.9v-1.8
		C467.2,658.4,467.7,658,468.2,658z"/>
	<path class="st30" d="M640.9,646.4h48c0.5,0,0.9,0.4,0.9,0.9v1.8c0,0.5-0.4,0.9-0.9,0.9h-48c-0.5,0-0.9-0.4-0.9-0.9v-1.8
		C640,646.8,640.4,646.4,640.9,646.4z"/>
	<rect x="518.8" y="610.7" class="st31" width="107.2" height="66.5"/>
	<rect x="533.8" y="610.7" class="st32" width="77.1" height="66.5"/>
	<rect x="518.8" y="610.7" class="st33" width="107.2" height="8.1"/>
	<rect x="533.8" y="610.7" class="st0" width="77.1" height="8.1"/>
	<rect x="518.8" y="669.1" class="st34" width="107.2" height="8.1"/>
	<rect x="533.8" y="669.1" class="st35" width="77.1" height="8.1"/>
	
		<linearGradient id="SVGID_15_" gradientUnits="userSpaceOnUse" x1="789.9982" y1="1165.5" x2="1049.5116" y2="1165.5" gradientTransform="matrix(1 0 0 -1 -322.71 1746.9299)">
		<stop  offset="0" style="stop-color:#55FF6E"/>
		<stop  offset="1" style="stop-color:#00BF5C"/>
	</linearGradient>
	<path class="st52" d="M726.8,557.9v47c0.1,5.3-4.1,9.7-9.4,9.8H476.7c-5.3-0.1-9.5-4.5-9.4-9.8c0,0,0,0,0,0v-47
		c-0.1-5.3,4.1-9.7,9.4-9.8c0,0,0,0,0,0h240.7C722.7,548.3,726.9,552.6,726.8,557.9z"/>
	<path class="st30" d="M484.6,561.1h224.8c0.5,0,0.9,0.4,0.9,0.9v1.8c0,0.5-0.4,0.9-0.9,0.9H484.6c-0.5,0-0.9-0.4-0.9-0.9V562
		C483.7,561.5,484.1,561.1,484.6,561.1z"/>
	<rect x="514.4" y="572.8" class="st30" width="165.2" height="2.6"/>
	<path class="st30" d="M492.8,595.5h208.4c0.5,0,0.9,0.4,0.9,0.9v1.8c0,0.5-0.4,0.9-0.9,0.9H492.8c-0.5,0-0.9-0.4-0.9-0.9v-1.8
		C491.9,595.9,492.3,595.5,492.8,595.5z"/>
	<path class="st30" d="M665.5,583.9h48c0.5,0,0.9,0.4,0.9,0.9v1.8c0,0.5-0.4,0.9-0.9,0.9h-48c-0.5,0-0.9-0.4-0.9-0.9v-1.8
		C664.6,584.3,665,583.9,665.5,583.9z"/>
	<rect x="543.4" y="548.2" class="st31" width="107.2" height="66.5"/>
	<rect x="558.5" y="548.2" class="st32" width="77.1" height="66.5"/>
	<rect x="543.4" y="548.2" class="st33" width="107.2" height="8.1"/>
	<rect x="558.5" y="548.2" class="st0" width="77.1" height="8.1"/>
	<rect x="543.4" y="606.6" class="st34" width="107.2" height="8.1"/>
	<rect x="558.5" y="606.6" class="st35" width="77.1" height="8.1"/>
	
		<linearGradient id="SVGID_16_" gradientUnits="userSpaceOnUse" x1="1032.7977" y1="1140.405" x2="1151.752" y2="1140.405" gradientTransform="matrix(1 0 0 -1 -322.71 1746.9299)">
		<stop  offset="0" style="stop-color:#55FF6E"/>
		<stop  offset="1" style="stop-color:#00BF5C"/>
	</linearGradient>
	<path class="st53" d="M823.7,731.7l-48.8,11.9c-3.8,0.8-7.5-1.5-8.4-5.3c0,0,0,0,0-0.1L710.3,490c-0.9-3.8,1.4-7.7,5.2-8.7
		l48.8-11.9c3.8-0.8,7.5,1.5,8.4,5.3c0,0,0,0,0,0.1L828.8,723C829.8,726.8,827.5,730.7,823.7,731.7z"/>
	<path class="st30" d="M810.8,715.4l-51-225.5c-0.2-1,0.3-2,1.3-2.2l0,0c0.9-0.2,1.9,0.4,2.1,1.3c0,0,0,0,0,0l51,225.5
		c0.2,1-0.3,2-1.3,2.2l0,0C811.9,717,811,716.4,810.8,715.4C810.8,715.4,810.8,715.4,810.8,715.4z"/>
	<polygon class="st30" points="794.2,688.6 756.4,521.6 758.8,521 796.6,688 	"/>
	<path class="st30" d="M776.5,715l-47.1-209c-0.2-1,0.4-1.9,1.3-2.2l0,0c0.9-0.2,1.9,0.4,2.1,1.3c0,0,0,0,0,0l47.1,209
		c0.2,1-0.3,2-1.3,2.2l0,0C777.7,716.6,776.7,716,776.5,715C776.5,715.1,776.5,715,776.5,715z"/>
	<path class="st30" d="M790.5,725.9L780,679.1c-0.2-1,0.4-1.9,1.3-2.2l0,0c1-0.2,1.9,0.4,2.1,1.3c0,0,0,0,0,0l10.6,46.8
		c0.2,1-0.4,2-1.3,2.2l0,0C791.7,727.5,790.7,726.9,790.5,725.9C790.5,726,790.5,725.9,790.5,725.9z"/>
	<polygon class="st31" points="813,653.1 750.6,668.3 726.1,559.9 788.5,544.7 	"/>
	<polygon class="st32" points="809.6,637.8 747.2,653.1 729.5,575.2 791.9,560 	"/>
	<polygon class="st33" points="813,653.1 805.4,655 780.9,546.6 788.5,544.7 	"/>
	<polygon class="st0" points="809.5,637.8 801.9,639.7 784.3,561.8 791.9,560 	"/>
	<polygon class="st34" points="758.2,666.5 750.6,668.3 726.1,559.9 733.7,558.1 	"/>
	<polygon class="st35" points="754.8,651.2 747.2,653.1 729.5,575.2 737.2,573.3 	"/>
	
		<linearGradient id="SVGID_17_" gradientUnits="userSpaceOnUse" x1="1104.5205" y1="1136.785" x2="1273.5051" y2="1136.785" gradientTransform="matrix(1 0 0 -1 -322.71 1746.9299)">
		<stop  offset="0" style="stop-color:#55FF6E"/>
		<stop  offset="1" style="stop-color:#00BF5C"/>
	</linearGradient>
	<path class="st54" d="M946.8,718.9L902.5,742c-3.5,1.8-7.8,0.4-9.6-3.1c0-0.1-0.1-0.2-0.1-0.3L782.6,511.5
		c-1.8-3.7-0.4-8.2,3.2-10.2l44.2-23.1c3.5-1.8,7.8-0.4,9.6,3.1c0,0.1,0.1,0.2,0.1,0.3L950,708.7C951.8,712.4,950.4,717,946.8,718.9
		z"/>
	<path class="st30" d="M930.9,706L830.5,499.1c-0.4-0.9-0.1-2,0.8-2.5l0,0c0.9-0.4,1.9-0.1,2.3,0.8c0,0,0,0,0,0.1L934,704.4
		c0.4,0.9,0.1,2-0.8,2.5l0,0C932.4,707.3,931.3,706.9,930.9,706C930.9,706.1,930.9,706,930.9,706z"/>
	<polygon class="st30" points="908.7,684 834.4,530.7 836.6,529.6 910.9,682.8 	"/>
	<path class="st30" d="M897.5,713.9l-92.8-191.8c-0.4-0.9-0.1-2,0.8-2.5l0,0c0.9-0.4,1.9-0.1,2.3,0.8c0,0,0,0,0,0.1l92.8,191.8
		c0.4,0.9,0.1,2-0.8,2.5l0,0C899,715.2,897.9,714.9,897.5,713.9C897.5,714,897.5,714,897.5,713.9z"/>
	<path class="st30" d="M913,720.1l-20.8-43c-0.4-0.9-0.1-2,0.8-2.5l0,0c0.8-0.4,1.9-0.1,2.3,0.7c0,0,0,0,0,0.1l20.8,43
		c0.4,0.9,0.1,2-0.8,2.5l0,0C914.6,721.4,913.5,721,913,720.1C913.1,720.2,913,720.1,913,720.1z"/>
	<polygon class="st31" points="919,644.9 861.8,674.8 813.5,575.3 870.8,545.4 	"/>
	<polygon class="st32" points="912.2,630.9 855,660.8 820.3,589.3 877.6,559.4 	"/>
	<polygon class="st33" points="919,644.9 912,648.5 863.8,549.1 870.8,545.4 	"/>
	<polygon class="st0" points="912.2,630.9 905.2,634.5 870.6,563.1 877.6,559.4 	"/>
	<polygon class="st34" points="868.8,671.1 861.8,674.8 813.6,575.3 820.5,571.7 	"/>
	<polygon class="st35" points="862,657.2 855,660.8 820.3,589.3 827.3,585.7 	"/>
	<g>
		
			<linearGradient id="SVGID_18_" gradientUnits="userSpaceOnUse" x1="1042.8151" y1="934.63" x2="1042.8151" y2="1434.86" gradientTransform="matrix(1 0 0 -1 -322.71 1746.9299)">
			<stop  offset="0.14" style="stop-color:#101D21"/>
			<stop  offset="0.89" style="stop-color:#101D21"/>
		</linearGradient>
		<path class="st55" d="M1067.2,394.9v36.2l-68.2,224.5l-557.9,0.6L373,415.1v-20.2c0-13.3,10.4-24.1,23.2-24.1H1044
			C1056.8,370.8,1067.2,381.5,1067.2,394.9z"/>
	</g>
	<path class="st27" d="M1213,1028.4v101.8c0.1,28-10,55.1-28.5,76.1c-14.4,16.5-33.5,28.2-54.7,33.5l-54.9-110.6l10.2-21.2
		c0,0,74.5-74,105.3-78.2C1195.5,1029.1,1203.4,1028.6,1213,1028.4z"/>
	<path class="st13" d="M1280.7,357.6v747c0,19-14.9,34.6-33.3,34.6h-149c-18.4,0-33.3-15.5-33.3-34.6v-747
		c0-19.1,14.9-34.6,33.3-34.6h149C1265.8,323,1280.7,338.5,1280.7,357.6z"/>
	<path class="st14" d="M1280.7,443.3v222.4c-18-3.8-32.8-12.1-44-47.6c-19-60.8,0.3-139.8,23.5-159
		C1266.7,453.4,1273.6,448.2,1280.7,443.3z"/>
	<path class="st14" d="M1280.7,741.5v363.2c0,19-14.9,34.6-33.3,34.6h-149c-18.4,0-33.3-15.5-33.3-34.6V672.7
		c8.7,43.8,36.9,79.8,33.7,112.1c-8.6,86.1-30.6,149.2-10.6,144.8C1166,912.7,1263.7,796.9,1280.7,741.5z"/>
	<path class="st10" d="M1266.5,357.6v747c0,10.9-8.5,19.8-19,19.8h-149.1c-10.5,0-19-8.8-19-19.8v-747c0-10.9,8.5-19.8,19-19.8
		h149.1C1257.9,337.8,1266.5,346.7,1266.5,357.6z"/>
	<g>
		
			<linearGradient id="SVGID_19_" gradientUnits="userSpaceOnUse" x1="1552.5509" y1="992.4602" x2="1442.2609" y2="1460.8002" gradientTransform="matrix(1 0 0 -1 -322.71 1746.9299)">
			<stop  offset="0.37" style="stop-color:#B1CEDC"/>
			<stop  offset="0.91" style="stop-color:#B1CEDC"/>
		</linearGradient>
		<path class="st56" d="M1266.5,357.6v94.8l-187.1,217.8V357.6c0-10.9,8.5-19.8,19-19.8h149.1
			C1257.9,337.8,1266.5,346.7,1266.5,357.6z"/>
	</g>
	<ellipse class="st12" cx="1178.2" cy="551.6" rx="44.4" ry="46.1"/>
	<path class="st57" d="M1165.3,557.4c-3.6,3.7-14.2,22.2-14.2,22.2c4.9,5.4,10.3,10.5,16,15c25.1,20.2,54.7,22.1,69.5,4.4
		c16.2-19.4,3.8-40.8-17.8-63.2C1207,523.6,1201,520,1201,520L1165.3,557.4z"/>
	<path class="st18" d="M1216.5,551.6c0,22-17.2,39.8-38.3,39.8c-17.3,0-32-11.9-36.7-28.3c-1.1-3.7-1.6-7.6-1.6-11.5
		c0-22,17.2-39.8,38.3-39.8c8.2,0,16.1,2.7,22.6,7.7C1210.8,527.1,1216.6,539,1216.5,551.6z"/>
	<path class="st21" d="M1167.9,514.3c6.4-2.7,14.2-1.4,16.9,1.4c2.7,2.8-1.6,7.9-5.8,17.7c-4.3,9.8-20.7,16.9-27.1,16.9
		s-11-1.2-9.1-9.7C1144.7,532.2,1149.9,521.8,1167.9,514.3z"/>
	<path class="st19" d="M1216.5,551.6c0,22-17.2,39.8-38.3,39.8c-12.7-0.1-24.5-6.4-31.4-17l0,0c-2.3-3.4-4.1-7.2-5.2-11.2
		c19.8,16.8,51.2,7.3,57.7-9.2c4.6-11.8,5.3-23.9,1.6-34.4c7,5.3,12,12.8,14.3,21.2C1216.1,544.2,1216.5,547.9,1216.5,551.6z"/>
	<path class="st20" d="M1216.5,551.6c0,22-17.2,39.8-38.3,39.8c-12.7-0.1-24.5-6.4-31.4-17c3.5,3.4,7.5,6.3,11.7,8.6
		c8.7,5,17.7,5.2,13.1,2.5s-8.7-3.6-10.5-6s22-1.9,29.5-5s13-11.5,15.3-13.8c2.3-2.3,3,1.1,2,5.6c-1,4.4-1.9,5.7,3.2-1.2
		c3.7-5.1,4.9-15.6,4.1-24.3C1216.1,544.2,1216.5,547.9,1216.5,551.6z"/>
	<path class="st22" d="M1155,522.8c3.5-3.1,9.4-7.3,15.6-8.1s0.1,12.5-7.1,18.4s-14.2,0.8-14.2-1.5
		C1149.3,529.3,1149.2,527.9,1155,522.8z"/>
	<path class="st21" d="M1209.2,551.6c0,17.8-13.9,32.2-31,32.2c-1.9,0-3.7-0.2-5.6-0.5c-14.5-2.7-25.5-15.9-25.5-31.7
		c0-0.9,0-1.7,0.1-2.6c1.2-16.6,14.6-29.6,30.9-29.6c0.6,0,1.2,0,1.7,0.1c8.2,0.5,15.9,4.3,21.2,10.5
		C1206.4,535.9,1209.3,543.6,1209.2,551.6z"/>
	<path class="st22" d="M1195.3,524.7c-4.7-2.6-10.1-4-15.5-4c-16.2,0-29.7,12.1-32.5,28.1c1.3-16.5,14.7-29.4,30.9-29.4
		C1184.3,519.3,1190.3,521.2,1195.3,524.7z"/>
	<path class="st19" d="M1201.9,575.9c-4.2,4.3-13.3,8.9-19.9,10.8s-8.1,2.1-3.8,2.6s14.9-2,21.6-6S1206.4,571.2,1201.9,575.9z"/>
	<path class="st22" d="M1201.2,529.9c-4.3,20.5-14.6,38.2-28.6,53.3c-14.5-2.7-25.5-15.9-25.5-31.7c0-0.9,0-1.7,0.1-2.6
		c11.5-10.5,24-21.1,32.7-29.6C1188.2,519.9,1195.8,523.7,1201.2,529.9z"/>
	<ellipse class="st12" cx="1178.2" cy="670.2" rx="44.4" ry="46.1"/>
	<path class="st57" d="M1165.3,676.1c-3.6,3.7-14.2,22.2-14.2,22.2c4.9,5.4,10.3,10.5,16,15c25.1,20.2,54.7,22.1,69.5,4.4
		c16.2-19.4,3.8-40.8-17.8-63.2c-11.7-12.2-17.7-15.8-17.7-15.8L1165.3,676.1z"/>
	<path class="st18" d="M1216.5,670.2c0,22-17.2,39.8-38.3,39.8c-17.3,0-32-11.9-36.7-28.3c-1.1-3.7-1.6-7.6-1.6-11.5
		c0-22,17.2-39.8,38.3-39.8c8.2,0,16.1,2.7,22.6,7.7C1210.8,645.7,1216.6,657.6,1216.5,670.2z"/>
	<path class="st21" d="M1167.9,632.9c6.4-2.7,14.2-1.4,16.9,1.4s-1.6,7.9-5.8,17.7s-20.7,16.9-27.1,16.9s-11-1.2-9.1-9.7
		S1149.9,640.5,1167.9,632.9z"/>
	<path class="st19" d="M1216.5,670.2c0,22-17.2,39.8-38.3,39.8c-12.7-0.1-24.5-6.4-31.4-17l0,0c-2.3-3.4-4.1-7.2-5.2-11.2
		c19.8,16.8,51.2,7.3,57.7-9.2c4.6-11.8,5.3-23.9,1.6-34.4c7,5.3,12,12.8,14.3,21.2C1216.1,662.9,1216.5,666.5,1216.5,670.2z"/>
	<path class="st20" d="M1216.5,670.2c0,22-17.2,39.8-38.3,39.8c-12.7-0.1-24.5-6.4-31.4-17c3.5,3.4,7.5,6.3,11.7,8.6
		c8.7,5,17.7,5.2,13.1,2.5s-8.7-3.6-10.5-6s22-1.9,29.5-5s13-11.5,15.3-13.8c2.3-2.3,3,1.1,2,5.6c-1,4.4-1.9,5.7,3.2-1.2
		c3.7-5.1,4.9-15.6,4.1-24.3C1216.1,662.8,1216.5,666.5,1216.5,670.2z"/>
	<path class="st22" d="M1155,641.4c3.5-3.1,9.4-7.3,15.6-8.1s0.1,12.5-7.1,18.4s-14.2,0.8-14.2-1.5
		C1149.3,647.9,1149.2,646.5,1155,641.4z"/>
	<path class="st21" d="M1209.2,670.2c0,17.8-13.9,32.2-31,32.2c-1.9,0-3.7-0.2-5.6-0.5c-14.5-2.7-25.5-15.9-25.5-31.7
		c0-0.9,0-1.7,0.1-2.6c1.2-16.6,14.6-29.6,30.9-29.6c0.6,0,1.2,0,1.7,0.1c8.2,0.5,15.9,4.3,21.3,10.5
		C1206.4,654.6,1209.3,662.2,1209.2,670.2z"/>
	<path class="st22" d="M1195.3,643.3c-4.7-2.6-10.1-4-15.5-4c-16.2,0-29.7,12.1-32.5,28.1c1.3-16.5,14.7-29.4,30.9-29.4
		C1184.3,638,1190.3,639.8,1195.3,643.3z"/>
	<path class="st19" d="M1201.9,694.5c-4.2,4.3-13.3,8.8-19.9,10.8s-8.1,2.1-3.8,2.6s14.9-2,21.6-6S1206.4,689.8,1201.9,694.5z"/>
	<path class="st22" d="M1201.2,648.6c-4.3,20.5-14.6,38.2-28.6,53.3c-14.5-2.7-25.5-15.9-25.5-31.7c0-0.9,0-1.7,0.1-2.6
		c11.5-10.4,24-21.1,32.7-29.6C1188.2,638.5,1195.8,642.3,1201.2,648.6z"/>
	<ellipse class="st12" cx="1178.2" cy="792.1" rx="44.4" ry="46.1"/>
	<path class="st57" d="M1165.3,798c-3.6,3.7-14.2,22.2-14.2,22.2c4.9,5.4,10.3,10.5,16,15c25.1,20.2,54.7,22.1,69.5,4.4
		c16.2-19.4,3.8-40.8-17.8-63.2c-11.7-12.2-17.7-15.8-17.7-15.8L1165.3,798z"/>
	<path class="st18" d="M1216.5,792.1c0,22-17.2,39.8-38.3,39.8c-17.3,0-32-11.9-36.7-28.3c-1.1-3.7-1.6-7.6-1.6-11.5
		c0-22,17.2-39.8,38.3-39.8c8.2,0,16.1,2.7,22.6,7.6C1210.8,767.6,1216.6,779.5,1216.5,792.1z"/>
	<path class="st21" d="M1167.9,754.9c6.4-2.7,14.2-1.4,16.9,1.4s-1.6,7.9-5.8,17.7s-20.7,16.9-27.1,16.9s-11-1.2-9.1-9.7
		S1149.9,762.4,1167.9,754.9z"/>
	<path class="st19" d="M1216.5,792.1c0,22-17.2,39.8-38.3,39.8c-12.7-0.1-24.5-6.4-31.4-17l0,0c-2.3-3.4-4.1-7.2-5.2-11.2
		c19.8,16.8,51.2,7.3,57.7-9.2c4.6-11.8,5.3-23.9,1.6-34.4c7,5.3,12,12.8,14.3,21.2C1216.1,784.8,1216.5,788.4,1216.5,792.1z"/>
	<path class="st20" d="M1216.5,792.1c0,22-17.2,39.8-38.3,39.8c-12.7-0.1-24.5-6.4-31.4-17c3.5,3.4,7.5,6.3,11.7,8.6
		c8.7,5,17.7,5.2,13.1,2.5s-8.7-3.6-10.5-6s22-1.9,29.5-5s13-11.5,15.3-13.8s3,1.1,2,5.6s-1.9,5.7,3.2-1.2
		c3.7-5.2,4.9-15.6,4.1-24.3C1216.1,784.7,1216.5,788.4,1216.5,792.1z"/>
	<path class="st22" d="M1155,763.4c3.5-3.1,9.4-7.3,15.6-8.1c6.2-0.8,0.1,12.5-7.1,18.4s-14.2,0.8-14.2-1.5S1149.2,768.4,1155,763.4
		z"/>
	<path class="st21" d="M1209.2,792.1c0,17.8-13.9,32.2-31,32.2c-1.9,0-3.7-0.2-5.6-0.5c-14.5-2.7-25.5-15.9-25.5-31.7
		c0-0.8,0-1.7,0.1-2.6c1.2-16.6,14.6-29.6,30.9-29.6c0.6,0,1.2,0,1.7,0.1c8.2,0.5,15.9,4.3,21.3,10.5
		C1206.4,776.5,1209.3,784.2,1209.2,792.1z"/>
	<path class="st22" d="M1195.3,765.2c-4.7-2.6-10.1-4-15.5-4c-16.2,0-29.7,12.1-32.5,28.1c1.3-16.5,14.7-29.4,30.9-29.4
		C1184.3,759.9,1190.3,761.7,1195.3,765.2z"/>
	<path class="st19" d="M1201.9,816.4c-4.2,4.3-13.3,8.8-19.9,10.8s-8.1,2.1-3.8,2.6s14.9-2,21.6-6S1206.4,811.7,1201.9,816.4z"/>
	<path class="st22" d="M1201.2,770.5c-4.3,20.5-14.6,38.2-28.6,53.3c-14.5-2.7-25.5-15.9-25.5-31.7c0-0.8,0-1.7,0.1-2.6
		c11.5-10.5,24-21.1,32.7-29.6C1188.2,760.4,1195.8,764.2,1201.2,770.5z"/>
	<ellipse class="st12" cx="1178.2" cy="910.7" rx="44.4" ry="46.1"/>
	<path class="st57" d="M1165.3,916.6c-3.6,3.7-14.2,22.2-14.2,22.2c4.9,5.4,10.3,10.5,16,15c25.1,20.2,54.7,22.1,69.5,4.4
		c16.2-19.4,3.8-40.8-17.8-63.2c-11.7-12.2-17.7-15.8-17.7-15.8L1165.3,916.6z"/>
	<path class="st18" d="M1216.5,910.7c0,22-17.2,39.8-38.3,39.8c-17.3,0-32-11.9-36.7-28.3c-1.1-3.7-1.6-7.6-1.6-11.5
		c0-22,17.2-39.8,38.3-39.8c8.2,0,16.1,2.7,22.6,7.7C1210.8,886.2,1216.6,898.1,1216.5,910.7z"/>
	<path class="st21" d="M1167.9,873.5c6.4-2.7,14.2-1.4,16.9,1.4s-1.6,7.9-5.8,17.7s-20.7,16.9-27.1,16.9s-11-1.2-9.1-9.7
		S1149.9,881,1167.9,873.5z"/>
	<path class="st19" d="M1216.5,910.7c0,22-17.2,39.8-38.3,39.8c-12.7-0.1-24.5-6.4-31.4-17l0,0c-2.3-3.4-4.1-7.2-5.2-11.2
		c19.8,16.8,51.2,7.3,57.7-9.2c4.6-11.8,5.3-23.9,1.6-34.4c7,5.3,12,12.8,14.3,21.2C1216.1,903.4,1216.5,907,1216.5,910.7z"/>
	<path class="st20" d="M1216.5,910.7c0,22-17.2,39.8-38.3,39.8c-12.7-0.1-24.5-6.4-31.4-17c3.5,3.4,7.5,6.3,11.7,8.6
		c8.7,5,17.7,5.2,13.1,2.5s-8.7-3.6-10.5-6s22-1.9,29.5-5s13-11.5,15.3-13.8s3,1.1,2,5.6s-1.9,5.7,3.2-1.2
		c3.7-5.2,4.9-15.6,4.1-24.3C1216.1,903.4,1216.5,907,1216.5,910.7z"/>
	<path class="st22" d="M1155,882c3.5-3.1,9.4-7.3,15.6-8.1s0.1,12.5-7.1,18.4s-14.2,0.8-14.2-1.5S1149.2,887,1155,882z"/>
	<path class="st21" d="M1209.2,910.7c0,17.8-13.9,32.2-31,32.2c-1.9,0-3.7-0.2-5.6-0.5c-14.5-2.7-25.5-15.9-25.5-31.7
		c0-0.8,0-1.7,0.1-2.6c1.2-16.6,14.6-29.6,30.9-29.6c0.6,0,1.2,0,1.7,0.1c8.2,0.5,15.9,4.3,21.3,10.5
		C1206.4,895.1,1209.3,902.8,1209.2,910.7z"/>
	<path class="st22" d="M1195.3,883.8c-4.7-2.6-10.1-4-15.5-4c-16.2,0-29.7,12.1-32.5,28.1c1.3-16.5,14.7-29.4,30.9-29.4
		C1184.3,878.5,1190.3,880.4,1195.3,883.8z"/>
	<path class="st19" d="M1201.9,935c-4.2,4.3-13.3,8.8-19.9,10.8s-8.1,2.1-3.8,2.6s14.9-2,21.6-6S1206.4,930.4,1201.9,935z"/>
	<path class="st22" d="M1201.2,889.1c-4.3,20.5-14.6,38.2-28.6,53.3c-14.5-2.7-25.5-15.9-25.5-31.7c0-0.8,0-1.7,0.1-2.6
		c11.5-10.5,24-21.1,32.7-29.6C1188.2,879.1,1195.8,882.9,1201.2,889.1z"/>
	<polygon class="st13" points="402.5,816 415.7,820 1035.4,824.3 1048.7,816 1029.1,811.8 412,811.8 	"/>
	<polygon class="st13" points="1048.7,1091.5 1035.2,1098.5 409.1,1094.8 393.6,1091.5 411.9,1087.1 1034,1087.8 	"/>
</g>
</svg>
