<svg id="Layer_1" data-name="Layer 1" xmlns="http://www.w3.org/2000/svg" xmlns:xlink="http://www.w3.org/1999/xlink" viewBox="0 0 337.9 328.26"><defs><style>.cls-1{fill:url(#linear-gradient);}.cls-2{fill:url(#linear-gradient-2);}.cls-3{fill:url(#linear-gradient-3);}</style><linearGradient id="linear-gradient" x1="1918.42" y1="1983.37" x2="2199.78" y2="1702.01" gradientUnits="userSpaceOnUse"><stop offset="0" stop-color="#e8c462"/><stop offset="0.28" stop-color="#d05636"/><stop offset="0.52" stop-color="#bc2351"/><stop offset="0.75" stop-color="#8d1790"/><stop offset="1" stop-color="#4b37cc"/></linearGradient><linearGradient id="linear-gradient-2" x1="1919.51" y1="1984.81" x2="2200.86" y2="1703.46" xlink:href="#linear-gradient"/><linearGradient id="linear-gradient-3" x1="1918.26" y1="1983.57" x2="2199.62" y2="1702.21" xlink:href="#linear-gradient"/></defs><path class="cls-1" d="M2226.08,1801.46c-.77-20.25-.2-41.12-7.25-60.45-8.08-24.5-28.29-44.49-52.68-52.74-20.18-7.43-42-7.2-63.15-7.71q-47.07-.06-94.13.14c-10,.4-20.09.28-30.1,1.4-20.26,1.66-40.86,7.77-56.68,21a85.87,85.87,0,0,0-28.78,45.68c-4.49,17.17-4,35.07-5,52.65,0,29.41-.15,58.82,0,88.23,1.12,20.37.47,41.44,8.12,60.74,8.47,23.76,28.46,42.88,52.3,50.9,16.92,6,35.06,7.17,52.86,7.15,15.68.62,31.38.25,47.06.32,28.31-.76,56.69.72,85-1.42,23.26-1.63,47.19-9.1,64-26,18.05-16.66,26-41.4,27.33-65.38C2227,1877.87,2225.68,1839.65,2226.08,1801.46Zm-31.88,116.06c-1,8.48-2.41,17-5.84,24.9a54.75,54.75,0,0,1-34,31c-14.59,5.13-30.21,4.8-45.44,5.68-27,0-53.95.87-80.94.13a389.35,389.35,0,0,1-51.57-1.8c-17.54-1.85-35-9.92-45.14-24.82-11.2-16.21-11.39-36.65-12.26-55.56,0-23.56-.34-47.11-.1-70.66.35-14.72-.38-29.49.76-44.19.54-19.16,4.26-40.26,19.32-53.59,16.15-15.72,40-17.1,61.2-17.85,36.18-.76,72.38-.7,108.59-.5,20.85,1.11,43.69.69,61.34,13.61,13.06,9.32,20.86,24.4,23.05,40.08,2.55,18.25,2.09,36.75,2.15,55.12.51,17.64.4,35.31-.05,52.94C2195.51,1887.17,2195.21,1902.36,2194.2,1917.52Z" transform="translate(-1888.23 -1680.55)"/><path class="cls-2" d="M2139.49,1737.45c-9.65,3.38-15.73,14.52-13,24.46,2.59,11.31,15.52,18.64,26.58,15.28,11-2.6,19-15.11,15.16-26.08C2164.9,1739.52,2150.63,1732.34,2139.49,1737.45Z" transform="translate(-1888.23 -1680.55)"/><path class="cls-3" d="M2106.76,1775.2c-18.21-12.61-41.38-17.35-63.19-13.93-24.1,3.71-46.58,17.82-59.72,38.48a83.22,83.22,0,0,0-10.74,65.85,84.38,84.38,0,0,0,37.32,50.31,88.12,88.12,0,0,0,61.77,11.87,87,87,0,0,0,60.29-41.33,83.07,83.07,0,0,0,9.19-61.69A84.39,84.39,0,0,0,2106.76,1775.2ZM2102.5,1877a56.9,56.9,0,0,1-40.42,22c-26.07,3-53-14.87-59.31-40.55a53.85,53.85,0,0,1,10.1-47.31,57.36,57.36,0,0,1,35.15-20.46c26.07-4.71,54.4,11.19,62.6,36.64C2116.49,1843.84,2113.14,1863.09,2102.5,1877Z" transform="translate(-1888.23 -1680.55)"/></svg>