<svg xmlns="http://www.w3.org/2000/svg" xmlns:xlink="http://www.w3.org/1999/xlink" viewBox="0 0 1500 1500"><defs><style>.cls-1{fill:#fff;}.cls-2{opacity:0.22;}.cls-3{fill:url(#linear-gradient);}.cls-4{fill:url(#linear-gradient-2);}.cls-5{fill:url(#linear-gradient-3);}.cls-6{fill:url(#linear-gradient-4);}.cls-7{fill:url(#linear-gradient-5);}.cls-8{fill:url(#linear-gradient-6);}.cls-9{fill:url(#linear-gradient-7);}.cls-10{fill:url(#linear-gradient-8);}.cls-11{fill:url(#linear-gradient-9);}.cls-12{fill:url(#linear-gradient-10);}.cls-13{fill:url(#linear-gradient-11);}.cls-14{fill:url(#linear-gradient-12);}.cls-15{fill:url(#linear-gradient-13);}.cls-16{fill:url(#linear-gradient-14);}.cls-17{fill:url(#linear-gradient-15);}.cls-18{fill:url(#linear-gradient-16);}.cls-19{fill:url(#linear-gradient-17);}.cls-20{fill:url(#linear-gradient-18);}.cls-21{fill:url(#linear-gradient-19);}.cls-22{fill:url(#linear-gradient-20);}.cls-23{fill:url(#linear-gradient-21);}.cls-24{fill:url(#linear-gradient-22);}.cls-25{fill:url(#linear-gradient-23);}.cls-26{fill:url(#linear-gradient-24);}.cls-27{fill:url(#linear-gradient-25);}.cls-28{fill:url(#linear-gradient-26);}.cls-29{fill:url(#linear-gradient-27);}.cls-30{fill:url(#linear-gradient-28);}.cls-31{fill:url(#linear-gradient-29);}.cls-32{fill:url(#linear-gradient-30);}.cls-33{fill:url(#linear-gradient-31);}.cls-34{fill:url(#linear-gradient-32);}.cls-35{fill:url(#linear-gradient-33);}.cls-36{fill:url(#linear-gradient-34);}.cls-37{fill:url(#linear-gradient-35);}.cls-38{fill:url(#linear-gradient-36);}.cls-39{fill:url(#linear-gradient-37);}.cls-40{fill:url(#linear-gradient-38);}.cls-41{fill:url(#linear-gradient-39);}.cls-42{fill:url(#linear-gradient-40);}.cls-43{fill:url(#linear-gradient-41);}.cls-44{fill:url(#linear-gradient-42);}.cls-45{fill:url(#linear-gradient-43);}.cls-46{fill:url(#linear-gradient-44);}.cls-47{fill:url(#linear-gradient-45);}.cls-48{fill:url(#linear-gradient-46);}.cls-49{fill:url(#linear-gradient-47);}.cls-50{fill:url(#linear-gradient-48);}.cls-51{fill:url(#linear-gradient-49);}.cls-52{fill:url(#linear-gradient-50);}.cls-53{fill:url(#linear-gradient-51);}.cls-54{fill:url(#linear-gradient-52);}.cls-55{fill:url(#linear-gradient-53);}.cls-56{fill:url(#linear-gradient-54);}.cls-57{fill:url(#linear-gradient-55);}.cls-58{fill:url(#linear-gradient-56);}.cls-59{fill:url(#linear-gradient-57);}.cls-60{fill:url(#linear-gradient-58);}.cls-61{fill:url(#linear-gradient-59);}.cls-62{fill:url(#linear-gradient-60);}.cls-63{fill:url(#linear-gradient-61);}.cls-64{fill:url(#linear-gradient-62);}.cls-65{fill:url(#linear-gradient-63);}.cls-66{fill:url(#linear-gradient-64);}.cls-67{fill:url(#linear-gradient-65);}.cls-68{fill:url(#linear-gradient-66);}.cls-69{fill:url(#linear-gradient-67);}.cls-70{fill:url(#linear-gradient-68);}.cls-71{fill:url(#linear-gradient-69);}.cls-72{fill:url(#linear-gradient-70);}.cls-73{fill:url(#linear-gradient-71);}.cls-74{fill:url(#linear-gradient-72);}.cls-75{fill:url(#linear-gradient-73);}.cls-76{fill:url(#linear-gradient-74);}.cls-77{fill:url(#linear-gradient-75);}.cls-78{fill:url(#linear-gradient-76);}.cls-79{fill:url(#linear-gradient-77);}.cls-80{fill:url(#linear-gradient-78);}.cls-81{fill:url(#linear-gradient-79);}.cls-82{fill:url(#linear-gradient-80);}.cls-83{fill:url(#linear-gradient-81);}.cls-84{fill:url(#linear-gradient-82);}.cls-85{fill:url(#linear-gradient-83);}.cls-86{fill:url(#linear-gradient-84);}.cls-87{fill:url(#linear-gradient-85);}.cls-88{fill:url(#linear-gradient-86);}.cls-89{fill:url(#linear-gradient-87);}.cls-90{fill:url(#linear-gradient-88);}.cls-91{fill:url(#linear-gradient-89);}.cls-92{fill:url(#linear-gradient-90);}.cls-93{fill:url(#linear-gradient-91);}.cls-94{fill:url(#linear-gradient-92);}.cls-95{fill:url(#linear-gradient-93);}.cls-96{fill:url(#linear-gradient-94);}.cls-97{fill:url(#linear-gradient-95);}.cls-98{fill:url(#linear-gradient-96);}.cls-99{fill:url(#linear-gradient-97);}.cls-100{fill:url(#linear-gradient-98);}.cls-101{fill:url(#linear-gradient-99);}.cls-102{fill:url(#linear-gradient-100);}.cls-103{fill:url(#linear-gradient-101);}.cls-104{fill:url(#linear-gradient-102);}.cls-105{fill:url(#linear-gradient-103);}.cls-106{fill:url(#linear-gradient-104);}.cls-107{fill:url(#linear-gradient-105);}.cls-108{fill:url(#linear-gradient-106);}.cls-109{fill:url(#linear-gradient-107);}.cls-110{fill:url(#linear-gradient-108);}.cls-111{fill:url(#linear-gradient-109);}.cls-112{fill:url(#linear-gradient-110);}.cls-113{fill:url(#linear-gradient-111);}.cls-114{fill:url(#linear-gradient-112);}.cls-115{fill:url(#linear-gradient-113);}.cls-116{fill:url(#linear-gradient-114);}.cls-117{fill:url(#linear-gradient-115);}.cls-118{fill:url(#linear-gradient-116);}.cls-119{fill:url(#linear-gradient-117);}.cls-120{fill:url(#linear-gradient-118);}.cls-121{fill:url(#linear-gradient-119);}.cls-122{fill:url(#linear-gradient-120);}.cls-123{fill:url(#linear-gradient-121);}.cls-124{fill:url(#linear-gradient-122);}.cls-125{fill:url(#linear-gradient-123);}.cls-126{fill:url(#linear-gradient-124);}.cls-127{fill:url(#linear-gradient-125);}.cls-128{fill:url(#linear-gradient-126);}.cls-129{fill:url(#linear-gradient-127);}.cls-130{fill:url(#linear-gradient-128);}.cls-131{fill:url(#linear-gradient-129);}.cls-132{fill:url(#linear-gradient-130);}.cls-133{fill:url(#linear-gradient-131);}.cls-134{fill:url(#linear-gradient-132);}.cls-135{fill:url(#linear-gradient-133);}.cls-136{fill:url(#linear-gradient-134);}.cls-137{fill:url(#linear-gradient-135);}.cls-138{fill:url(#linear-gradient-136);}.cls-139{fill:url(#linear-gradient-137);}.cls-140{fill:url(#linear-gradient-138);}.cls-141{fill:url(#linear-gradient-139);}.cls-142{fill:url(#linear-gradient-140);}.cls-143{fill:url(#linear-gradient-141);}.cls-144{fill:url(#linear-gradient-142);}.cls-145{fill:url(#linear-gradient-143);}.cls-146{fill:url(#linear-gradient-144);}.cls-147{fill:url(#linear-gradient-145);}.cls-148{fill:url(#linear-gradient-146);}.cls-149{fill:url(#linear-gradient-147);}.cls-150{fill:url(#linear-gradient-148);}.cls-151{fill:url(#linear-gradient-149);}.cls-152{fill:url(#linear-gradient-150);}.cls-153{fill:url(#linear-gradient-151);}.cls-154{fill:url(#linear-gradient-152);}</style><linearGradient id="linear-gradient" x1="456.71" y1="769.83" x2="1676.71" y2="769.83" gradientUnits="userSpaceOnUse"><stop offset="0" stop-color="#1a1a1a"/><stop offset="1" stop-color="#333"/></linearGradient><linearGradient id="linear-gradient-2" x1="456.71" y1="139.59" x2="1676.71" y2="139.59" xlink:href="#linear-gradient"/><linearGradient id="linear-gradient-3" x1="1144.86" y1="1172.12" x2="1198.31" y2="1172.12" xlink:href="#linear-gradient"/><linearGradient id="linear-gradient-4" x1="1037.97" y1="1172.12" x2="1091.42" y2="1172.12" xlink:href="#linear-gradient"/><linearGradient id="linear-gradient-5" x1="824.17" y1="1172.12" x2="877.62" y2="1172.12" xlink:href="#linear-gradient"/><linearGradient id="linear-gradient-6" x1="770.72" y1="1172.12" x2="824.17" y2="1172.12" xlink:href="#linear-gradient"/><linearGradient id="linear-gradient-7" x1="663.83" y1="1172.12" x2="717.28" y2="1172.12" xlink:href="#linear-gradient"/><linearGradient id="linear-gradient-8" x1="556.93" y1="1172.12" x2="610.38" y2="1172.12" xlink:href="#linear-gradient"/><linearGradient id="linear-gradient-9" x1="450.03" y1="1172.12" x2="503.48" y2="1172.12" xlink:href="#linear-gradient"/><linearGradient id="linear-gradient-10" x1="396.58" y1="1172.12" x2="450.03" y2="1172.12" xlink:href="#linear-gradient"/><linearGradient id="linear-gradient-11" x1="289.69" y1="1172.12" x2="343.14" y2="1172.12" xlink:href="#linear-gradient"/><linearGradient id="linear-gradient-12" x1="984.52" y1="1118.84" x2="1037.97" y2="1118.84" xlink:href="#linear-gradient"/><linearGradient id="linear-gradient-13" x1="877.62" y1="1118.84" x2="931.07" y2="1118.84" xlink:href="#linear-gradient"/><linearGradient id="linear-gradient-14" x1="770.72" y1="1118.84" x2="824.17" y2="1118.84" xlink:href="#linear-gradient"/><linearGradient id="linear-gradient-15" x1="717.28" y1="1118.84" x2="770.72" y2="1118.84" xlink:href="#linear-gradient"/><linearGradient id="linear-gradient-16" x1="503.48" y1="1118.84" x2="556.93" y2="1118.84" xlink:href="#linear-gradient"/><linearGradient id="linear-gradient-17" x1="450.03" y1="1118.84" x2="503.48" y2="1118.84" xlink:href="#linear-gradient"/><linearGradient id="linear-gradient-18" x1="1144.86" y1="1065.57" x2="1198.31" y2="1065.57" xlink:href="#linear-gradient"/><linearGradient id="linear-gradient-19" x1="1091.42" y1="1065.57" x2="1144.86" y2="1065.57" xlink:href="#linear-gradient"/><linearGradient id="linear-gradient-20" x1="1037.97" y1="1065.57" x2="1091.42" y2="1065.57" xlink:href="#linear-gradient"/><linearGradient id="linear-gradient-21" x1="931.07" y1="1065.57" x2="984.52" y2="1065.57" xlink:href="#linear-gradient"/><linearGradient id="linear-gradient-22" x1="824.17" y1="1065.57" x2="877.62" y2="1065.57" xlink:href="#linear-gradient"/><linearGradient id="linear-gradient-23" x1="663.83" y1="1065.57" x2="717.28" y2="1065.57" xlink:href="#linear-gradient"/><linearGradient id="linear-gradient-24" x1="610.38" y1="1065.57" x2="663.83" y2="1065.57" xlink:href="#linear-gradient"/><linearGradient id="linear-gradient-25" x1="396.58" y1="1065.57" x2="450.03" y2="1065.57" xlink:href="#linear-gradient"/><linearGradient id="linear-gradient-26" x1="343.14" y1="1065.57" x2="396.58" y2="1065.57" xlink:href="#linear-gradient"/><linearGradient id="linear-gradient-27" x1="1091.42" y1="1012.3" x2="1144.86" y2="1012.3" xlink:href="#linear-gradient"/><linearGradient id="linear-gradient-28" x1="824.17" y1="1012.3" x2="877.62" y2="1012.3" xlink:href="#linear-gradient"/><linearGradient id="linear-gradient-29" x1="770.72" y1="1012.3" x2="824.17" y2="1012.3" xlink:href="#linear-gradient"/><linearGradient id="linear-gradient-30" x1="717.28" y1="1012.3" x2="770.72" y2="1012.3" xlink:href="#linear-gradient"/><linearGradient id="linear-gradient-31" x1="610.38" y1="1012.3" x2="663.83" y2="1012.3" xlink:href="#linear-gradient"/><linearGradient id="linear-gradient-32" x1="503.48" y1="1012.3" x2="556.93" y2="1012.3" xlink:href="#linear-gradient"/><linearGradient id="linear-gradient-33" x1="450.03" y1="1012.3" x2="503.48" y2="1012.3" xlink:href="#linear-gradient"/><linearGradient id="linear-gradient-34" x1="396.58" y1="1012.3" x2="450.03" y2="1012.3" xlink:href="#linear-gradient"/><linearGradient id="linear-gradient-35" x1="984.52" y1="959.02" x2="1037.97" y2="959.02" xlink:href="#linear-gradient"/><linearGradient id="linear-gradient-36" x1="931.07" y1="959.02" x2="984.52" y2="959.02" xlink:href="#linear-gradient"/><linearGradient id="linear-gradient-37" x1="824.17" y1="959.02" x2="877.62" y2="959.02" xlink:href="#linear-gradient"/><linearGradient id="linear-gradient-38" x1="770.72" y1="959.02" x2="824.17" y2="959.02" xlink:href="#linear-gradient"/><linearGradient id="linear-gradient-39" x1="663.83" y1="959.02" x2="717.28" y2="959.02" xlink:href="#linear-gradient"/><linearGradient id="linear-gradient-40" x1="610.38" y1="959.02" x2="663.83" y2="959.02" xlink:href="#linear-gradient"/><linearGradient id="linear-gradient-41" x1="556.93" y1="959.02" x2="610.38" y2="959.02" xlink:href="#linear-gradient"/><linearGradient id="linear-gradient-42" x1="503.48" y1="959.02" x2="556.93" y2="959.02" xlink:href="#linear-gradient"/><linearGradient id="linear-gradient-43" x1="396.58" y1="959.02" x2="450.03" y2="959.02" xlink:href="#linear-gradient"/><linearGradient id="linear-gradient-44" x1="289.69" y1="959.02" x2="343.14" y2="959.02" xlink:href="#linear-gradient"/><linearGradient id="linear-gradient-45" x1="1144.86" y1="905.75" x2="1198.31" y2="905.75" xlink:href="#linear-gradient"/><linearGradient id="linear-gradient-46" x1="1037.97" y1="905.75" x2="1091.42" y2="905.75" xlink:href="#linear-gradient"/><linearGradient id="linear-gradient-47" x1="931.07" y1="905.75" x2="984.52" y2="905.75" xlink:href="#linear-gradient"/><linearGradient id="linear-gradient-48" x1="503.48" y1="905.75" x2="556.93" y2="905.75" xlink:href="#linear-gradient"/><linearGradient id="linear-gradient-49" x1="450.03" y1="905.75" x2="503.48" y2="905.75" xlink:href="#linear-gradient"/><linearGradient id="linear-gradient-50" x1="396.58" y1="905.75" x2="450.03" y2="905.75" xlink:href="#linear-gradient"/><linearGradient id="linear-gradient-51" x1="343.14" y1="905.75" x2="396.58" y2="905.75" xlink:href="#linear-gradient"/><linearGradient id="linear-gradient-52" x1="289.69" y1="905.75" x2="343.14" y2="905.75" xlink:href="#linear-gradient"/><linearGradient id="linear-gradient-53" x1="1091.42" y1="852.48" x2="1144.86" y2="852.48" xlink:href="#linear-gradient"/><linearGradient id="linear-gradient-54" x1="1037.97" y1="852.48" x2="1091.42" y2="852.48" xlink:href="#linear-gradient"/><linearGradient id="linear-gradient-55" x1="931.07" y1="852.48" x2="984.52" y2="852.48" xlink:href="#linear-gradient"/><linearGradient id="linear-gradient-56" x1="824.17" y1="852.48" x2="877.62" y2="852.48" xlink:href="#linear-gradient"/><linearGradient id="linear-gradient-57" x1="770.72" y1="852.48" x2="824.17" y2="852.48" xlink:href="#linear-gradient"/><linearGradient id="linear-gradient-58" x1="717.28" y1="852.48" x2="770.72" y2="852.48" xlink:href="#linear-gradient"/><linearGradient id="linear-gradient-59" x1="663.83" y1="852.48" x2="717.28" y2="852.48" xlink:href="#linear-gradient"/><linearGradient id="linear-gradient-60" x1="610.38" y1="852.48" x2="663.83" y2="852.48" xlink:href="#linear-gradient"/><linearGradient id="linear-gradient-61" x1="396.58" y1="852.48" x2="450.03" y2="852.48" xlink:href="#linear-gradient"/><linearGradient id="linear-gradient-62" x1="343.14" y1="852.48" x2="396.58" y2="852.48" xlink:href="#linear-gradient"/><linearGradient id="linear-gradient-63" x1="984.52" y1="799.2" x2="1037.97" y2="799.2" xlink:href="#linear-gradient"/><linearGradient id="linear-gradient-64" x1="931.07" y1="799.2" x2="984.52" y2="799.2" xlink:href="#linear-gradient"/><linearGradient id="linear-gradient-65" x1="824.17" y1="799.2" x2="877.62" y2="799.2" xlink:href="#linear-gradient"/><linearGradient id="linear-gradient-66" x1="610.38" y1="799.2" x2="663.83" y2="799.2" xlink:href="#linear-gradient"/><linearGradient id="linear-gradient-67" x1="503.48" y1="799.2" x2="556.93" y2="799.2" xlink:href="#linear-gradient"/><linearGradient id="linear-gradient-68" x1="396.58" y1="799.2" x2="450.03" y2="799.2" xlink:href="#linear-gradient"/><linearGradient id="linear-gradient-69" x1="1091.42" y1="745.93" x2="1144.86" y2="745.93" xlink:href="#linear-gradient"/><linearGradient id="linear-gradient-70" x1="1037.97" y1="745.93" x2="1091.42" y2="745.93" xlink:href="#linear-gradient"/><linearGradient id="linear-gradient-71" x1="931.07" y1="745.93" x2="984.52" y2="745.93" xlink:href="#linear-gradient"/><linearGradient id="linear-gradient-72" x1="824.17" y1="745.93" x2="877.62" y2="745.93" xlink:href="#linear-gradient"/><linearGradient id="linear-gradient-73" x1="717.28" y1="745.93" x2="770.72" y2="745.93" xlink:href="#linear-gradient"/><linearGradient id="linear-gradient-74" x1="610.38" y1="745.93" x2="663.83" y2="745.93" xlink:href="#linear-gradient"/><linearGradient id="linear-gradient-75" x1="503.48" y1="745.93" x2="556.93" y2="745.93" xlink:href="#linear-gradient"/><linearGradient id="linear-gradient-76" x1="450.03" y1="745.93" x2="503.48" y2="745.93" xlink:href="#linear-gradient"/><linearGradient id="linear-gradient-77" x1="396.58" y1="745.93" x2="450.03" y2="745.93" xlink:href="#linear-gradient"/><linearGradient id="linear-gradient-78" x1="289.69" y1="745.93" x2="343.14" y2="745.93" xlink:href="#linear-gradient"/><linearGradient id="linear-gradient-79" x1="1467.58" y1="454.21" x2="1521.03" y2="454.21" xlink:href="#linear-gradient"/><linearGradient id="linear-gradient-80" x1="1414.13" y1="454.64" x2="1467.58" y2="454.64" xlink:href="#linear-gradient"/><linearGradient id="linear-gradient-81" x1="1360.68" y1="454.85" x2="1414.13" y2="454.85" xlink:href="#linear-gradient"/><linearGradient id="linear-gradient-82" x1="1307.23" y1="454.97" x2="1360.68" y2="454.97" xlink:href="#linear-gradient"/><linearGradient id="linear-gradient-83" x1="1146.89" y1="454.96" x2="1200.34" y2="454.96" xlink:href="#linear-gradient"/><linearGradient id="linear-gradient-84" x1="933.09" y1="454.77" x2="986.54" y2="454.77" xlink:href="#linear-gradient"/><linearGradient id="linear-gradient-85" x1="396.58" y1="701.7" x2="450.03" y2="701.7" xlink:href="#linear-gradient"/><linearGradient id="linear-gradient-86" x1="289.69" y1="701.7" x2="343.14" y2="701.7" xlink:href="#linear-gradient"/><linearGradient id="linear-gradient-87" x1="1467.58" y1="376.86" x2="1521.03" y2="376.86" xlink:href="#linear-gradient"/><linearGradient id="linear-gradient-88" x1="1360.68" y1="377.11" x2="1414.13" y2="377.11" xlink:href="#linear-gradient"/><linearGradient id="linear-gradient-89" x1="1253.78" y1="377.07" x2="1307.23" y2="377.07" xlink:href="#linear-gradient"/><linearGradient id="linear-gradient-90" x1="824.17" y1="623.93" x2="877.62" y2="623.93" xlink:href="#linear-gradient"/><linearGradient id="linear-gradient-91" x1="770.72" y1="623.93" x2="824.17" y2="623.93" xlink:href="#linear-gradient"/><linearGradient id="linear-gradient-92" x1="717.28" y1="623.93" x2="770.72" y2="623.93" xlink:href="#linear-gradient"/><linearGradient id="linear-gradient-93" x1="663.83" y1="623.93" x2="717.28" y2="623.93" xlink:href="#linear-gradient"/><linearGradient id="linear-gradient-94" x1="610.38" y1="623.93" x2="663.83" y2="623.93" xlink:href="#linear-gradient"/><linearGradient id="linear-gradient-95" x1="503.48" y1="623.93" x2="556.93" y2="623.93" xlink:href="#linear-gradient"/><linearGradient id="linear-gradient-96" x1="343.14" y1="623.93" x2="396.58" y2="623.93" xlink:href="#linear-gradient"/><linearGradient id="linear-gradient-97" x1="289.69" y1="623.93" x2="343.14" y2="623.93" xlink:href="#linear-gradient"/><linearGradient id="linear-gradient-98" x1="1091.42" y1="586.11" x2="1144.86" y2="586.11" xlink:href="#linear-gradient"/><linearGradient id="linear-gradient-99" x1="1037.97" y1="586.11" x2="1091.42" y2="586.11" xlink:href="#linear-gradient"/><linearGradient id="linear-gradient-100" x1="984.52" y1="586.11" x2="1037.97" y2="586.11" xlink:href="#linear-gradient"/><linearGradient id="linear-gradient-101" x1="503.48" y1="586.11" x2="556.93" y2="586.11" xlink:href="#linear-gradient"/><linearGradient id="linear-gradient-102" x1="450.03" y1="586.11" x2="503.48" y2="586.11" xlink:href="#linear-gradient"/><linearGradient id="linear-gradient-103" x1="396.58" y1="586.11" x2="450.03" y2="586.11" xlink:href="#linear-gradient"/><linearGradient id="linear-gradient-104" x1="343.14" y1="586.11" x2="396.58" y2="586.11" xlink:href="#linear-gradient"/><linearGradient id="linear-gradient-105" x1="1144.86" y1="532.84" x2="1198.31" y2="532.84" xlink:href="#linear-gradient"/><linearGradient id="linear-gradient-106" x1="1091.42" y1="532.84" x2="1144.86" y2="532.84" xlink:href="#linear-gradient"/><linearGradient id="linear-gradient-107" x1="984.52" y1="532.84" x2="1037.97" y2="532.84" xlink:href="#linear-gradient"/><linearGradient id="linear-gradient-108" x1="877.62" y1="532.84" x2="931.07" y2="532.84" xlink:href="#linear-gradient"/><linearGradient id="linear-gradient-109" x1="770.72" y1="532.84" x2="824.17" y2="532.84" xlink:href="#linear-gradient"/><linearGradient id="linear-gradient-110" x1="717.28" y1="532.84" x2="770.72" y2="532.84" xlink:href="#linear-gradient"/><linearGradient id="linear-gradient-111" x1="663.83" y1="532.84" x2="717.28" y2="532.84" xlink:href="#linear-gradient"/><linearGradient id="linear-gradient-112" x1="610.38" y1="532.84" x2="663.83" y2="532.84" xlink:href="#linear-gradient"/><linearGradient id="linear-gradient-113" x1="503.48" y1="532.84" x2="556.93" y2="532.84" xlink:href="#linear-gradient"/><linearGradient id="linear-gradient-114" x1="396.58" y1="532.84" x2="450.03" y2="532.84" xlink:href="#linear-gradient"/><linearGradient id="linear-gradient-115" x1="343.14" y1="532.84" x2="396.58" y2="532.84" xlink:href="#linear-gradient"/><linearGradient id="linear-gradient-116" x1="289.69" y1="532.84" x2="343.14" y2="532.84" xlink:href="#linear-gradient"/><linearGradient id="linear-gradient-117" x1="1091.42" y1="479.56" x2="1144.86" y2="479.56" xlink:href="#linear-gradient"/><linearGradient id="linear-gradient-118" x1="1037.97" y1="479.56" x2="1091.42" y2="479.56" xlink:href="#linear-gradient"/><linearGradient id="linear-gradient-119" x1="984.52" y1="479.56" x2="1037.97" y2="479.56" xlink:href="#linear-gradient"/><linearGradient id="linear-gradient-120" x1="824.17" y1="479.56" x2="877.62" y2="479.56" xlink:href="#linear-gradient"/><linearGradient id="linear-gradient-121" x1="717.28" y1="479.56" x2="770.72" y2="479.56" xlink:href="#linear-gradient"/><linearGradient id="linear-gradient-122" x1="610.38" y1="479.56" x2="663.83" y2="479.56" xlink:href="#linear-gradient"/><linearGradient id="linear-gradient-123" x1="503.48" y1="479.56" x2="556.93" y2="479.56" xlink:href="#linear-gradient"/><linearGradient id="linear-gradient-124" x1="450.03" y1="479.56" x2="503.48" y2="479.56" xlink:href="#linear-gradient"/><linearGradient id="linear-gradient-125" x1="343.14" y1="479.56" x2="396.58" y2="479.56" xlink:href="#linear-gradient"/><linearGradient id="linear-gradient-126" x1="1091.42" y1="426.29" x2="1144.86" y2="426.29" xlink:href="#linear-gradient"/><linearGradient id="linear-gradient-127" x1="931.07" y1="426.29" x2="984.52" y2="426.29" xlink:href="#linear-gradient"/><linearGradient id="linear-gradient-128" x1="877.62" y1="426.29" x2="931.07" y2="426.29" xlink:href="#linear-gradient"/><linearGradient id="linear-gradient-129" x1="824.17" y1="426.29" x2="877.62" y2="426.29" xlink:href="#linear-gradient"/><linearGradient id="linear-gradient-130" x1="770.72" y1="426.29" x2="824.17" y2="426.29" xlink:href="#linear-gradient"/><linearGradient id="linear-gradient-131" x1="717.28" y1="426.29" x2="770.72" y2="426.29" xlink:href="#linear-gradient"/><linearGradient id="linear-gradient-132" x1="663.83" y1="426.29" x2="717.28" y2="426.29" xlink:href="#linear-gradient"/><linearGradient id="linear-gradient-133" x1="556.93" y1="426.29" x2="610.38" y2="426.29" xlink:href="#linear-gradient"/><linearGradient id="linear-gradient-134" x1="503.48" y1="426.29" x2="556.93" y2="426.29" xlink:href="#linear-gradient"/><linearGradient id="linear-gradient-135" x1="289.69" y1="426.29" x2="343.14" y2="426.29" xlink:href="#linear-gradient"/><linearGradient id="linear-gradient-136" x1="1144.86" y1="373.02" x2="1198.31" y2="373.02" xlink:href="#linear-gradient"/><linearGradient id="linear-gradient-137" x1="1091.42" y1="373.02" x2="1144.86" y2="373.02" xlink:href="#linear-gradient"/><linearGradient id="linear-gradient-138" x1="984.52" y1="373.02" x2="1037.97" y2="373.02" xlink:href="#linear-gradient"/><linearGradient id="linear-gradient-139" x1="931.07" y1="373.02" x2="984.52" y2="373.02" xlink:href="#linear-gradient"/><linearGradient id="linear-gradient-140" x1="717.28" y1="373.02" x2="770.72" y2="373.02" xlink:href="#linear-gradient"/><linearGradient id="linear-gradient-141" x1="663.83" y1="373.02" x2="717.28" y2="373.02" xlink:href="#linear-gradient"/><linearGradient id="linear-gradient-142" x1="289.69" y1="373.02" x2="343.14" y2="373.02" xlink:href="#linear-gradient"/><linearGradient id="linear-gradient-143" x1="1091.42" y1="319.74" x2="1144.86" y2="319.74" xlink:href="#linear-gradient"/><linearGradient id="linear-gradient-144" x1="1037.97" y1="319.74" x2="1091.42" y2="319.74" xlink:href="#linear-gradient"/><linearGradient id="linear-gradient-145" x1="931.07" y1="319.74" x2="984.52" y2="319.74" xlink:href="#linear-gradient"/><linearGradient id="linear-gradient-146" x1="877.62" y1="319.74" x2="931.07" y2="319.74" xlink:href="#linear-gradient"/><linearGradient id="linear-gradient-147" x1="770.72" y1="319.74" x2="824.17" y2="319.74" xlink:href="#linear-gradient"/><linearGradient id="linear-gradient-148" x1="717.28" y1="319.74" x2="770.72" y2="319.74" xlink:href="#linear-gradient"/><linearGradient id="linear-gradient-149" x1="610.38" y1="319.74" x2="663.83" y2="319.74" xlink:href="#linear-gradient"/><linearGradient id="linear-gradient-150" x1="503.48" y1="319.74" x2="556.93" y2="319.74" xlink:href="#linear-gradient"/><linearGradient id="linear-gradient-151" x1="289.69" y1="319.74" x2="343.14" y2="319.74" xlink:href="#linear-gradient"/><linearGradient id="linear-gradient-152" x1="457.02" y1="410.12" x2="1674.18" y2="410.12" gradientUnits="userSpaceOnUse"><stop offset="0" stop-color="red"/><stop offset="1" stop-color="#f7931e"/></linearGradient></defs><g id="Layer_1" data-name="Layer 1"><rect class="cls-1" width="1500" height="1500" rx="336.29"/><g class="cls-2"><polygon class="cls-1" points="706.46 164.06 827.17 413.57 880.63 413.57 766.15 164.06 706.46 164.06"/></g><g class="cls-2"><polygon class="cls-1" points="805.8 164.39 926.5 413.89 1028.23 413.9 913.75 164.39 805.8 164.39"/></g><path class="cls-3" d="M1606.72,434.1v484c0,65.81-53.52,119.16-119.55,119.16H646.26c-66,0-119.55-53.35-119.55-119.16V437.18h-70V926.37c0,99.76,81.14,180.63,181.23,180.63h857.55c100.09,0,181.22-80.87,181.22-180.63V432.66Q1641.72,433.23,1606.72,434.1Z" transform="translate(-322.71 246.93)"/><path class="cls-4" d="M526.71,388.18V79.92c0-65.81,53.52-119.16,119.55-119.16h840.91c66,0,119.55,53.35,119.55,119.16V385.1q35-.83,70-1.44v-312c0-99.76-81.13-180.63-181.22-180.63H637.94C537.85-109,456.71-28.13,456.71,71.63V388.18Z" transform="translate(-322.71 246.93)"/><rect class="cls-5" x="1144.86" y="1145.48" width="53.45" height="53.27"/><rect class="cls-6" x="1037.97" y="1145.48" width="53.45" height="53.27"/><rect class="cls-7" x="824.17" y="1145.48" width="53.45" height="53.27"/><rect class="cls-8" x="770.72" y="1145.48" width="53.45" height="53.27"/><rect class="cls-9" x="663.83" y="1145.48" width="53.45" height="53.27"/><rect class="cls-10" x="556.93" y="1145.48" width="53.45" height="53.27"/><rect class="cls-11" x="450.03" y="1145.48" width="53.45" height="53.27"/><rect class="cls-12" x="396.58" y="1145.48" width="53.45" height="53.27"/><rect class="cls-13" x="289.69" y="1145.48" width="53.45" height="53.27"/><rect class="cls-14" x="984.52" y="1092.21" width="53.45" height="53.27"/><rect class="cls-15" x="877.62" y="1092.21" width="53.45" height="53.27"/><rect class="cls-16" x="770.72" y="1092.21" width="53.45" height="53.27"/><rect class="cls-17" x="717.28" y="1092.21" width="53.45" height="53.27"/><rect class="cls-18" x="503.48" y="1092.21" width="53.45" height="53.27"/><rect class="cls-19" x="450.03" y="1092.21" width="53.45" height="53.27"/><rect class="cls-20" x="1144.86" y="1038.93" width="53.45" height="53.27"/><rect class="cls-21" x="1091.42" y="1038.93" width="53.45" height="53.27"/><rect class="cls-22" x="1037.97" y="1038.93" width="53.45" height="53.27"/><rect class="cls-23" x="931.07" y="1038.93" width="53.45" height="53.27"/><rect class="cls-24" x="824.17" y="1038.93" width="53.45" height="53.27"/><rect class="cls-25" x="663.83" y="1038.93" width="53.45" height="53.27"/><rect class="cls-26" x="610.38" y="1038.93" width="53.45" height="53.27"/><rect class="cls-27" x="396.58" y="1038.93" width="53.45" height="53.27"/><rect class="cls-28" x="343.14" y="1038.93" width="53.45" height="53.27"/><rect class="cls-29" x="1091.42" y="985.66" width="53.45" height="53.27"/><rect class="cls-30" x="824.17" y="985.66" width="53.45" height="53.27"/><rect class="cls-31" x="770.72" y="985.66" width="53.45" height="53.27"/><rect class="cls-32" x="717.28" y="985.66" width="53.45" height="53.27"/><rect class="cls-33" x="610.38" y="985.66" width="53.45" height="53.27"/><rect class="cls-34" x="503.48" y="985.66" width="53.45" height="53.27"/><rect class="cls-35" x="450.03" y="985.66" width="53.45" height="53.27"/><rect class="cls-36" x="396.58" y="985.66" width="53.45" height="53.27"/><rect class="cls-37" x="984.52" y="932.39" width="53.45" height="53.27"/><rect class="cls-38" x="931.07" y="932.39" width="53.45" height="53.27"/><rect class="cls-39" x="824.17" y="932.39" width="53.45" height="53.27"/><rect class="cls-40" x="770.72" y="932.39" width="53.45" height="53.27"/><rect class="cls-41" x="663.83" y="932.39" width="53.45" height="53.27"/><rect class="cls-42" x="610.38" y="932.39" width="53.45" height="53.27"/><rect class="cls-43" x="556.93" y="932.39" width="53.45" height="53.27"/><rect class="cls-44" x="503.48" y="932.39" width="53.45" height="53.27"/><rect class="cls-45" x="396.58" y="932.39" width="53.45" height="53.27"/><rect class="cls-46" x="289.69" y="932.39" width="53.45" height="53.27"/><rect class="cls-47" x="1144.86" y="879.11" width="53.45" height="53.27"/><rect class="cls-48" x="1037.97" y="879.11" width="53.45" height="53.27"/><rect class="cls-49" x="931.07" y="879.11" width="53.45" height="53.27"/><rect class="cls-50" x="503.48" y="879.11" width="53.45" height="53.27"/><rect class="cls-51" x="450.03" y="879.11" width="53.45" height="53.27"/><rect class="cls-52" x="396.58" y="879.11" width="53.45" height="53.27"/><rect class="cls-53" x="343.14" y="879.11" width="53.45" height="53.27"/><rect class="cls-54" x="289.69" y="879.11" width="53.45" height="53.27"/><rect class="cls-55" x="1091.42" y="825.84" width="53.45" height="53.27"/><rect class="cls-56" x="1037.97" y="825.84" width="53.45" height="53.27"/><rect class="cls-57" x="931.07" y="825.84" width="53.45" height="53.27"/><rect class="cls-58" x="824.17" y="825.84" width="53.45" height="53.27"/><rect class="cls-59" x="770.72" y="825.84" width="53.45" height="53.27"/><rect class="cls-60" x="717.28" y="825.84" width="53.45" height="53.27"/><rect class="cls-61" x="663.83" y="825.84" width="53.45" height="53.27"/><rect class="cls-62" x="610.38" y="825.84" width="53.45" height="53.27"/><rect class="cls-63" x="396.58" y="825.84" width="53.45" height="53.27"/><rect class="cls-64" x="343.14" y="825.84" width="53.45" height="53.27"/><rect class="cls-65" x="984.52" y="772.57" width="53.45" height="53.27"/><rect class="cls-66" x="931.07" y="772.57" width="53.45" height="53.27"/><rect class="cls-67" x="824.17" y="772.57" width="53.45" height="53.27"/><rect class="cls-68" x="610.38" y="772.57" width="53.45" height="53.27"/><rect class="cls-69" x="503.48" y="772.57" width="53.45" height="53.27"/><rect class="cls-70" x="396.58" y="772.57" width="53.45" height="53.27"/><rect class="cls-71" x="1091.42" y="719.29" width="53.45" height="53.27"/><rect class="cls-72" x="1037.97" y="719.29" width="53.45" height="53.27"/><rect class="cls-73" x="931.07" y="719.29" width="53.45" height="53.27"/><rect class="cls-74" x="824.17" y="719.29" width="53.45" height="53.27"/><rect class="cls-75" x="717.28" y="719.29" width="53.45" height="53.27"/><rect class="cls-76" x="610.38" y="719.29" width="53.45" height="53.27"/><rect class="cls-77" x="503.48" y="719.29" width="53.45" height="53.27"/><rect class="cls-78" x="450.03" y="719.29" width="53.45" height="53.27"/><rect class="cls-79" x="396.58" y="719.29" width="53.45" height="53.27"/><rect class="cls-80" x="289.69" y="719.29" width="53.45" height="53.27"/><path class="cls-81" d="M1467.58,436.91v35.45H1521V436.05Q1494.3,436.59,1467.58,436.91Z" transform="translate(-322.71 246.93)"/><path class="cls-82" d="M1455.18,437q-20.52.18-41,.29v35h53.45V436.91Q1461.39,437,1455.18,437Z" transform="translate(-322.71 246.93)"/><path class="cls-83" d="M1360.68,437.59v34.77h53.45v-35Q1387.4,437.5,1360.68,437.59Z" transform="translate(-322.71 246.93)"/><path class="cls-84" d="M1307.23,437.7v34.66h53.45V437.59Q1334,437.68,1307.23,437.7Z" transform="translate(-322.71 246.93)"/><path class="cls-85" d="M1146.89,437.56v34.8h53.45V437.67Z" transform="translate(-322.71 246.93)"/><path class="cls-86" d="M936.6,437.18h-3.51v35.18h53.45V437.22Q961.57,437.19,936.6,437.18Z" transform="translate(-322.71 246.93)"/><rect class="cls-87" x="396.58" y="684.11" width="53.45" height="35.18"/><rect class="cls-88" x="289.69" y="684.11" width="53.45" height="35.18"/><path class="cls-89" d="M1487,387.66q17-.26,34-.6V365.82h-53.45V387.9Q1477.3,387.79,1487,387.66Z" transform="translate(-322.71 246.93)"/><path class="cls-90" d="M1414.13,388.32v-22.5h-53.45v22.59Q1387.41,388.43,1414.13,388.32Z" transform="translate(-322.71 246.93)"/><path class="cls-91" d="M1307.23,388.32v-22.5h-53.45v22.39Z" transform="translate(-322.71 246.93)"/><rect class="cls-92" x="824.17" y="612.75" width="53.45" height="22.37"/><rect class="cls-93" x="770.72" y="612.75" width="53.45" height="22.37"/><rect class="cls-94" x="717.28" y="612.75" width="53.45" height="22.37"/><rect class="cls-95" x="663.83" y="612.75" width="53.45" height="22.37"/><rect class="cls-96" x="610.38" y="612.75" width="53.45" height="22.37"/><rect class="cls-97" x="503.48" y="612.75" width="53.45" height="22.37"/><rect class="cls-98" x="343.14" y="612.75" width="53.45" height="22.37"/><rect class="cls-99" x="289.69" y="612.75" width="53.45" height="22.37"/><rect class="cls-100" x="1091.42" y="559.47" width="53.45" height="53.27"/><rect class="cls-101" x="1037.97" y="559.47" width="53.45" height="53.27"/><rect class="cls-102" x="984.52" y="559.47" width="53.45" height="53.27"/><rect class="cls-103" x="503.48" y="559.47" width="53.45" height="53.27"/><rect class="cls-104" x="450.03" y="559.47" width="53.45" height="53.27"/><rect class="cls-105" x="396.58" y="559.47" width="53.45" height="53.27"/><rect class="cls-106" x="343.14" y="559.47" width="53.45" height="53.27"/><rect class="cls-107" x="1144.86" y="506.2" width="53.45" height="53.27"/><rect class="cls-108" x="1091.42" y="506.2" width="53.45" height="53.27"/><rect class="cls-109" x="984.52" y="506.2" width="53.45" height="53.27"/><rect class="cls-110" x="877.62" y="506.2" width="53.45" height="53.27"/><rect class="cls-111" x="770.72" y="506.2" width="53.45" height="53.27"/><rect class="cls-112" x="717.28" y="506.2" width="53.45" height="53.27"/><rect class="cls-113" x="663.83" y="506.2" width="53.45" height="53.27"/><rect class="cls-114" x="610.38" y="506.2" width="53.45" height="53.27"/><rect class="cls-115" x="503.48" y="506.2" width="53.45" height="53.27"/><rect class="cls-116" x="396.58" y="506.2" width="53.45" height="53.27"/><rect class="cls-117" x="343.14" y="506.2" width="53.45" height="53.27"/><rect class="cls-118" x="289.69" y="506.2" width="53.45" height="53.27"/><rect class="cls-119" x="1091.42" y="452.93" width="53.45" height="53.27"/><rect class="cls-120" x="1037.97" y="452.93" width="53.45" height="53.27"/><rect class="cls-121" x="984.52" y="452.93" width="53.45" height="53.27"/><rect class="cls-122" x="824.17" y="452.93" width="53.45" height="53.27"/><rect class="cls-123" x="717.28" y="452.93" width="53.45" height="53.27"/><rect class="cls-124" x="610.38" y="452.93" width="53.45" height="53.27"/><rect class="cls-125" x="503.48" y="452.93" width="53.45" height="53.27"/><rect class="cls-126" x="450.03" y="452.93" width="53.45" height="53.27"/><rect class="cls-127" x="343.14" y="452.93" width="53.45" height="53.27"/><rect class="cls-128" x="1091.42" y="399.65" width="53.45" height="53.27"/><rect class="cls-129" x="931.07" y="399.65" width="53.45" height="53.27"/><rect class="cls-130" x="877.62" y="399.65" width="53.45" height="53.27"/><rect class="cls-131" x="824.17" y="399.65" width="53.45" height="53.27"/><rect class="cls-132" x="770.72" y="399.65" width="53.45" height="53.27"/><rect class="cls-133" x="717.28" y="399.65" width="53.45" height="53.27"/><rect class="cls-134" x="663.83" y="399.65" width="53.45" height="53.27"/><rect class="cls-135" x="556.93" y="399.65" width="53.45" height="53.27"/><rect class="cls-136" x="503.48" y="399.65" width="53.45" height="53.27"/><rect class="cls-137" x="289.69" y="399.65" width="53.45" height="53.27"/><rect class="cls-138" x="1144.86" y="346.38" width="53.45" height="53.27"/><rect class="cls-139" x="1091.42" y="346.38" width="53.45" height="53.27"/><rect class="cls-140" x="984.52" y="346.38" width="53.45" height="53.27"/><rect class="cls-141" x="931.07" y="346.38" width="53.45" height="53.27"/><rect class="cls-142" x="717.28" y="346.38" width="53.45" height="53.27"/><rect class="cls-143" x="663.83" y="346.38" width="53.45" height="53.27"/><rect class="cls-144" x="289.69" y="346.38" width="53.45" height="53.27"/><rect class="cls-145" x="1091.42" y="293.11" width="53.45" height="53.27"/><rect class="cls-146" x="1037.97" y="293.11" width="53.45" height="53.27"/><rect class="cls-147" x="931.07" y="293.11" width="53.45" height="53.27"/><rect class="cls-148" x="877.62" y="293.11" width="53.45" height="53.27"/><rect class="cls-149" x="770.72" y="293.11" width="53.45" height="53.27"/><rect class="cls-150" x="717.28" y="293.11" width="53.45" height="53.27"/><rect class="cls-151" x="610.38" y="293.11" width="53.45" height="53.27"/><rect class="cls-152" x="503.48" y="293.11" width="53.45" height="53.27"/><rect class="cls-153" x="289.69" y="293.11" width="53.45" height="53.27"/><path class="cls-154" d="M1659.54,426H471.65c-8.08,0-14.63-7.1-14.63-15.88s6.55-15.87,14.63-15.87H1659.54c8.09,0,14.64,7.1,14.64,15.87S1667.63,426,1659.54,426Z" transform="translate(-322.71 246.93)"/></g></svg>