<svg xmlns="http://www.w3.org/2000/svg" viewBox="0 0 1500 1500"><defs><style>.cls-1{fill:#fff;}.cls-2,.cls-6{fill:#da665e;}.cls-10,.cls-11,.cls-2,.cls-3,.cls-4,.cls-5,.cls-6,.cls-7,.cls-8,.cls-9{fill-rule:evenodd;}.cls-3{fill:#fda69f;}.cls-4{fill:#f3d4d2;}.cls-5{fill:#fd948d;}.cls-11,.cls-6{opacity:0.17;}.cls-11,.cls-7{fill:#e0736b;}.cls-8{fill:#ffbbb6;}.cls-9{fill:#ffe2e0;}.cls-10{fill:#ffa7a1;}</style></defs><g id="ƒŒƒCƒ__6" data-name="ƒŒƒCƒ„[_6"><rect class="cls-1" width="1500" height="1500" rx="418.14"/><path class="cls-2" d="M1330,560c-44.65-38.33-97.17-79.94-150.53-118.76-52.28-38-105.38-73.08-153.44-98.87-46.73-25.06-92.15-46.34-137.3-51.2-44.26-4.75-88.43,6.24-133.25,44.73-41.33,35.5-117.94,113.37-148.05,154.25-4.7,6.38-10.37,43.14-13.87,50-6.55,12.85,2.09,91,77,138.3,50,31.6,102,79.87,153.17,132.41,50.06,51.4,106.71,102.82,168.43,136.44,55.65,30.31,117.1,43,151.77-21.79,33.67-62.94,107.6-71,173-94.18,45.24-16,69-29.87,88.08-55,22.67-29.81,28.21-91.8,10.49-119.75C1382.74,604.93,1351.33,578.35,1330,560Z" transform="translate(-4 -4)"/><path class="cls-3" d="M1318,540.46c-41.77-39.34-92.16-80.67-143.56-118.48-50.35-37-101.94-70.81-148.15-96.26-45.06-24.82-88.72-45.9-132.18-50.82-42.68-4.83-85.29,5.78-128.49,43.65C725.8,353.42,636.39,448.4,607.81,489.61c-30.41,43.85-15.6,121.6,75.75,166.95,50.09,24.84,98.58,78.88,148,130.74,48.23,50.62,102.83,101.36,162.17,134.35,53.44,29.71,112.61,42.24,145.85-21.76,32.18-62,103.19-69.91,165.88-92.74,43.39-15.79,82.55-48.32,100.88-73C1459.23,663,1353,573.46,1318,540.46Z" transform="translate(-4 -4)"/><path class="cls-4" d="M641.63,447.24c11,5.57,21.43,12.68,29,19.84,77.5,73.72,97.79,93,193.22,154.7,93.81,60.7,200.08,133.43,180,156.74-14.09,16.35,76.24,65.88,123,86.87a116,116,0,0,0-27.2,34.5c-13.88,26.72-32.29,40.1-52.91,44.46a115,115,0,0,1-21.16-1.3c-33.51-6.93-68.34-23.69-104.67-49.92Q900.5,850.52,841.32,789,806.27,752,770.07,715.55a489.66,489.66,0,0,0-70.64-59.66A227.79,227.79,0,0,0,673,640.82q-34.53-12.62-60.32-45.14c-1.35-1.57-2.65-3.16-3.91-4.74-21.14-36.44-19.2-75-.94-101.33l1.32-1.88.2-.27,2.62-3.62.36-.49,3.16-4.19.17-.22L617,477.2l1.23-1.57.51-.67,1.6-2,.75-.95.34-.42,1.58-2,.61-.76,1.49-1.83.32-.4.41-.5,2.44-3,.6-.71.88-1.07.85-1,2.46-2.95.6-.72.67-.79.88-1.06,1.74-2.05.38-.43.77-.91.4-.47,1.82-2.13,0,0Z" transform="translate(-4 -4)"/><path class="cls-4" d="M766.54,526.27C746.73,512,688,463.4,654.67,432.34c3.9-4.42,7.93-8.9,12-13.4,34.84,27.47,69,60.29,101.36,96.2C778.41,526.63,779.17,535.37,766.54,526.27Z" transform="translate(-4 -4)"/><path class="cls-4" d="M1167.07,807c-23.12-15-102.17-74.79-123.72-96.4-11.51-11.54-8.64-21.11,5.38-12.17,41.35,26.41,81.9,60.52,119.84,98.78C1178.33,807,1179,814.74,1167.07,807Z" transform="translate(-4 -4)"/><path class="cls-4" d="M1420.53,684.88C1339.33,628.79,1244.78,560,1210,527.46c-28.58-26.71-21.45-50.34,13.66-30,51.41,29.71,102.88,64.23,153.85,102.73C1399.18,625.7,1418.05,655.42,1420.53,684.88Z" transform="translate(-4 -4)"/><path class="cls-5" d="M1340.88,694.3c55.34,82.56-15.88,106-95.77,81.7-72-21.89-150.79-86.21-153.09-87.15C1012.14,656,971.72,616,956.67,578.35c-26.83-67.14,26.28-130.9,89.76-133.23,97.8-3.57,52.39,74.24,149.56,115.7C1288,600.06,1333.61,683.47,1340.88,694.3Z" transform="translate(-4 -4)"/><path class="cls-5" d="M880.91,376.76C828,377.8,764.32,373,734.36,348c11.95-11.82,22.71-22,31.21-29.47,43.2-37.87,85.81-48.48,128.49-43.65,23.84,2.7,47.74,10.26,71.9,20.64,8.67,10.12,14.54,21.12,15.48,32.82C986.21,387.72,902.78,376.35,880.91,376.76Z" transform="translate(-4 -4)"/><path class="cls-5" d="M802,528.81c1.33-13.93-28.21-56.52,29.1-35.13C1079.33,586.38,791,643.67,802,528.81Z" transform="translate(-4 -4)"/><path class="cls-6" d="M854.63,275.18a158.63,158.63,0,0,1,39.43-.28c43.46,4.92,87.12,26,132.18,50.82C1072.45,351.17,1124,385,1174.39,422c48.58,35.73,96.26,74.61,136.61,112-126.54-18.42-239.82-75.37-352.66-106C848.25,398.1,738.68,393.3,619.63,473.8c36.27-46,110.64-124.31,145.94-155.25,23.61-20.7,47-33.25,70.4-39.59a160.66,160.66,0,0,1,18.66-3.78ZM597.73,489.52l-1.82,1.37c-.74.56.19-.59,1.31-2Z" transform="translate(-4 -4)"/><path class="cls-7" d="M166.2,824.07C246.53,735.2,358,623.08,453.26,551.9c94.7-70.74,187.44-125.61,287-49.75,46.7,35.6,153.66,139.49,189.67,185.49,5.7,7.28,14.22,6.57,17.29,15.82,17.65,53.2-14.34,143.35-110,198.55-59.52,34.34-116.11,102.69-172.49,167.16-54,61.68-113.74,122.35-177.24,161.42-55.91,34.39-116.29,48.71-149.65-22.5-31.88-68.07-100.8-74.76-160-97.5-40.16-15.43-75.89-48.44-92.46-73.77C65.8,1006.93,66.1,955,79.63,922.55,100,873.7,146.15,846.25,166.2,824.07Z" transform="translate(-4 -4)"/><path class="cls-8" d="M166.2,793.2C244.42,700.43,358,592.2,453.26,521c94.7-70.73,187.44-125.61,287-49.74,46.7,35.6,154.41,138.27,189.67,185.5,38,50.86,19.49,149.84-92.75,214.36C777.6,905.38,721.05,973.83,664.67,1038.3c-54,61.68-113.74,122.35-177.24,161.42-55.91,34.39-116.29,48.71-149.65-22.5-31.88-68.08-100.8-74.76-160-97.49-40.16-15.44-75.87-48.46-92.46-73.78C38.08,933.84,133.76,831.68,166.2,793.2Z" transform="translate(-4 -4)"/><path class="cls-9" d="M920.58,645,903,624.82c-21.37,8.12-45.58,24.91-60.3,40.85-87.42,94.74-109.85,119-212.89,198-97.23,74.47-203,159.94-183.32,184.26,14.81,18.31-86.27,81.42-126.39,101.36q13,15.95,24.21,40.24,26.81,46.24,81,36.81,49.14-11.64,104-55.71,61.73-48.49,124.37-119.87,37.78-43.63,77.18-87.4a611.46,611.46,0,0,1,79-74.07A280.81,280.81,0,0,1,840,869.51q40-17.84,70.16-58.77,38.29-48.47,37.68-98.26Q946.41,671.43,920.58,645Z" transform="translate(-4 -4)"/><path class="cls-9" d="M734.89,745.79c26.42-22.48,117.42-110.61,145.71-144.85-3.74-3.89-7.59-7.83-11.5-11.81-47.62,41.12-93.51,90.58-135.93,144C721.82,747.4,721,757.6,734.89,745.79Z" transform="translate(-4 -4)"/><path class="cls-9" d="M328.4,1083c21.68-16.75,97.43-84.23,118.56-108.87,11.24-13.1,8.46-23.37-5.31-12.81-40.2,30.8-78.94,69.23-114.64,111.38C317.88,1083.5,317.24,1091.66,328.4,1083Z" transform="translate(-4 -4)"/><path class="cls-9" d="M77.53,990.56c73.58-64.12,175.33-157.53,211-199.12C315,760.58,308.44,736.39,276,761.26,206.14,814.81,138.14,878.14,73.5,947.56,71.43,962.3,72.37,976.81,77.53,990.56Z" transform="translate(-4 -4)"/><path class="cls-10" d="M171.27,973.64c-47.9,86.52,13.92,107.81,85.24,79.83,66.31-26,140.87-98.64,143.08-99.8,78.2-40.86,118.69-87.61,133.93-130.44,27.4-76.93-26.66-141.26-89.68-136.4-94,7.24-50.74,85.57-142.32,138.41C218,873.42,177.63,962.16,171.27,973.64Z" transform="translate(-4 -4)"/><path class="cls-10" d="M611.82,585.06c66.91-7.53,152.61-27.15,173.38-75.89-17.44-15.59-33.16-28.89-45-37.89-49.94-38.06-98.17-43.21-145.79-30-35.15,25.17-83.23,64.8-86.08,104.07C503.58,611.68,589,587.62,611.82,585.06Z" transform="translate(-4 -4)"/><path class="cls-10" d="M696.07,752.55c-1.45-15.79,30.84-67.83-31.31-36.7C411.8,842.6,708,882.51,696.07,752.55Z" transform="translate(-4 -4)"/><path class="cls-11" d="M166.2,793.2c-2.43.5,3.86-4.55,5.81-6.85C250,695.16,360.28,590.46,453.26,521c94.7-70.73,187.44-125.61,287-49.74,45,34.32,146.77,131,185.61,180.21,1.44,1.82,5.6,6.36,4.06,5.29C634,452,419.05,741.73,166.2,793.2Z" transform="translate(-4 -4)"/></g></svg>