<svg xmlns="http://www.w3.org/2000/svg" viewBox="0 0 1500 1500"><defs><style>.cls-1{fill:#fff;}.cls-2{fill:#9ecdf0;}.cls-3{fill:#bfe5ff;}.cls-4{fill:#afd9f7;}.cls-5{fill:#72b5e3;}.cls-6{fill:#d6eeff;}.cls-7{fill:#8bbce0;}.cls-8{fill:#5697c7;}.cls-9{fill:#218bd1;}.cls-10{fill:#59bcff;}</style></defs><g id="ƒŒƒCƒ__6" data-name="ƒŒƒCƒ„[_6"><rect class="cls-1" width="1500" height="1500" rx="418.14"/><rect class="cls-2" x="677.79" y="389.64" width="409.21" height="977.36" rx="51"/><rect class="cls-3" x="413" y="389.64" width="409.21" height="977.36" rx="31.43"/><path class="cls-4" d="M844.25,360.59l95.53-175.08a22.35,22.35,0,0,1,39.3.11l94.2,175.08a22.35,22.35,0,0,1-19.68,32.94H863.87A22.34,22.34,0,0,1,844.25,360.59Z" transform="translate(-4 -4)"/><path class="cls-5" d="M436.93,359.37l94.14-172.53a23.18,23.18,0,0,1,40.75.12l92.82,172.53a23.17,23.17,0,0,1-20.4,34.15h-187A23.18,23.18,0,0,1,436.93,359.37Z" transform="translate(-4 -4)"/><path class="cls-6" d="M565.3,149.3H920.51a23.16,23.16,0,0,1,20.33,34.26l-108,198a23.17,23.17,0,0,1-20.33,12.07H457.26a23.16,23.16,0,0,1-20.33-34.26l108-198A23.17,23.17,0,0,1,565.3,149.3Z" transform="translate(-4 -4)"/><path class="cls-7" d="M1044.07,347.86,924.2,230.92A10,10,0,0,1,922.35,219l28.35-53.15a10.05,10.05,0,0,1,17.72,0l91.51,170.08C1065.38,346,1052.3,355.89,1044.07,347.86Z" transform="translate(-4 -4)"/><path class="cls-1" d="M612.66,1005.09c-74.2,0-134.56-58.57-134.56-130.56S538.46,744,612.66,744s134.55,58.57,134.55,130.55S686.85,1005.09,612.66,1005.09Zm0-246.33c-65.8,0-119.32,51.94-119.32,115.77s53.52,115.78,119.32,115.78S732,938.37,732,874.53,678.45,758.76,612.66,758.76Z" transform="translate(-4 -4)"/><path class="cls-1" d="M612.23,766.15s-162.47,206.92,0,206.92S612.23,766.15,612.23,766.15Z" transform="translate(-4 -4)"/><path class="cls-8" d="M1034.83,932.92H883c-20.93,0-38-16.52-38-36.83V590.67c0-20.31,17-36.83,38-36.83h151.83c20.93,0,38,16.52,38,36.83V896.09C1072.79,916.4,1055.76,932.92,1034.83,932.92ZM883,559.23c-17.87,0-32.41,14.1-32.41,31.44V896.09c0,17.34,14.54,31.44,32.41,31.44h151.83c17.87,0,32.41-14.1,32.41-31.44V590.67c0-17.34-14.54-31.44-32.41-31.44Z" transform="translate(-4 -4)"/><path class="cls-8" d="M1019.71,607.44h-138a7.19,7.19,0,1,1,0-14.38h138a7.19,7.19,0,1,1,0,14.38Z" transform="translate(-4 -4)"/><path class="cls-8" d="M1051.19,638.43h-168a7.19,7.19,0,1,1,0-14.37h168a7.19,7.19,0,1,1,0,14.37Z" transform="translate(-4 -4)"/><path class="cls-8" d="M1026.19,725.12H883.62a7.19,7.19,0,1,1,0-14.38h142.57a7.19,7.19,0,1,1,0,14.38Z" transform="translate(-4 -4)"/><path class="cls-8" d="M940.55,768.68h-57.4a7.19,7.19,0,1,1,0-14.37h57.4a7.19,7.19,0,1,1,0,14.37Z" transform="translate(-4 -4)"/><path class="cls-8" d="M1046.1,770H966.48a7.19,7.19,0,1,1,0-14.37h79.62a7.19,7.19,0,1,1,0,14.37Z" transform="translate(-4 -4)"/><path class="cls-1" d="M766.34,1101.51H457.74a10.78,10.78,0,1,1,0-21.56h308.6a10.78,10.78,0,1,1,0,21.56Z" transform="translate(-4 -4)"/><path class="cls-1" d="M686.11,1143.43H518.22a10.78,10.78,0,1,1,0-21.56H686.11a10.78,10.78,0,1,1,0,21.56Z" transform="translate(-4 -4)"/><path class="cls-1" d="M762.64,529H454a10.78,10.78,0,1,1,0-21.56H762.64a10.78,10.78,0,1,1,0,21.56Z" transform="translate(-4 -4)"/><path class="cls-3" d="M574,92H931.67a25.1,25.1,0,0,1,25.1,25.1v14.48A13.72,13.72,0,0,1,943,145.3H561.28a13.72,13.72,0,0,1-13.72-13.72v-13.1A26.47,26.47,0,0,1,574,92Z"/><path class="cls-9" d="M683.51,184.93l-.56-.23-.55-.23-.56-.23-.56-.23-.56-.23-.55-.23-.56-.23-.56-.22-.56-.23-.55-.23-.56-.23-.56-.23-.56-.23-.55-.23-.56-.23-.56-.23L674,181l-.55-.22-.56-.23-.56-.23-.56-.23-.55-.23-.56-.23-.56-.23-.56-.23L669,179l-.56-.23-.56-.23-.56-.22-.55-.23-.56-.23-.56-.23-.56-.23-.55-.23-.56-.23-.56-.23-.56-.23-.55-.23-.56-.23-.56-.22-.56-.23-.55-.23-.56-.23-.56-.23-.56-.23-.55-.23-.56-.23-.56-.23-.55-.22-.56-.23a58.35,58.35,0,0,0-6.37-2.21c-33-9.37-68.1,10.79-78.43,45-9.7,32.16,5.94,65.31,35.23,77l.56.23.56.23.56.23.55.23.56.23.56.23.56.23.55.23.56.22.56.23.56.23.55.23.56.23.56.23.56.23.55.23.56.23.56.23.56.23.55.22.56.23.56.23.56.23.55.23.56.23.56.23.56.23.55.23.56.23.56.22.56.23.55.23.56.23.56.23.56.23.55.23.56.23.56.23.56.23.55.22.56.23.56.23.55.23.56.23.56.23.56.23.55.23.56.23.56.23.56.22a57.46,57.46,0,0,0,6.36,2.21c33,9.37,68.11-10.79,78.43-45C728.44,229.73,712.8,196.58,683.51,184.93Z" transform="translate(-4 -4)"/><ellipse class="cls-10" cx="630.58" cy="233.25" rx="64.84" ry="62" transform="translate(132.63 685.37) rotate(-63.02)"/></g></svg>