<svg id="Layer_1" data-name="Layer 1" xmlns="http://www.w3.org/2000/svg" xmlns:xlink="http://www.w3.org/1999/xlink" viewBox="0 0 1500 1500"><defs><style>.cls-1{fill:#fff;}.cls-2{fill:url(#linear-gradient);}</style><linearGradient id="linear-gradient" x1="291.86" y1="1065.83" x2="1528.21" y2="1065.83" gradientTransform="matrix(0.79, -0.04, -0.04, 0.74, 116.35, -1.01)" gradientUnits="userSpaceOnUse"><stop offset="0" stop-color="red"/><stop offset="1" stop-color="#fbb03b"/></linearGradient></defs><g id="Layer_1-2" data-name="Layer 1"><rect class="cls-1" width="1500" height="1500" rx="336.29"/></g><path class="cls-2" d="M382.59,284.05c-129.78,198.87-48.08,486.36,66.2,680.51h0l.6,1,.6,1h0c114.73,193.88,326.94,404.34,563.76,386.83,75-5.55,122.26-29.62,173.42-72.73l43.33-40.28c24-22.35,27.06-56.62,6.84-77.64l-187.63-195c-20.49-21.3-57.37-21.25-83,.12L912,1013.47a163,163,0,0,1-46,27.32c-73.82,28.12-142-18.74-237.21-179.72l-.61-1-.6-1c-94.93-161.13-103-243.48-42.7-294.52A162.8,162.8,0,0,1,631,537.43l66.36-25.86c31.09-12.11,49-44.38,40.22-72.61L657.55,180.44c-8.62-27.86-40.08-41.77-71.27-31.53l-56.21,18.46C467.61,191.33,423.69,221.08,382.59,284.05Z"/></svg>