<svg id="_ëîé_1" data-name="‘ëîé_1" xmlns="http://www.w3.org/2000/svg" viewBox="0 0 1255.76 1255.76"><defs><style>.cls-1{fill:#fff;}</style></defs><path class="cls-1" d="M4471.36,1260.5l-242.82-242.82h0a88.12,88.12,0,0,0-82.23-23.51l-63.62-63.62c153.14-186.34,142.69-462.09-31.41-636.2-185.26-185.26-485.63-185.26-670.89,0s-185.25,485.63,0,670.89c174.11,174.1,449.86,184.55,636.2,31.4l63.62,63.62a88.14,88.14,0,0,0,23.51,82.24l242.82,242.81a88.28,88.28,0,0,0,95.62,19.39c2.65-1.07,5.27-2.29,7.83-3.63a88.33,88.33,0,0,0,21.37-140.57Zm-506.78-382c-137.16,137.16-360.33,137.16-497.49,0s-137.16-360.33,0-497.49,360.33-137.16,497.49,0S4101.74,741.38,3964.58,878.54Z" transform="translate(-3241.45 -155.41)"/><path class="cls-1" d="M3716.19,352h0C3563.33,352.13,3439,476.58,3439,629.42a31.71,31.71,0,0,0,63.42,0c0-117.9,95.92-213.9,213.82-214a31.71,31.71,0,0,0,0-63.42Z" transform="translate(-3241.45 -155.41)"/></svg>