<svg xmlns="http://www.w3.org/2000/svg" viewBox="0 0 1255.76 1255.76"><g id="ƒŒƒCƒ__6" data-name="ƒŒƒCƒ„[_6"><path d="M2537.56,1931.5l-242.82-242.81h0a88.09,88.09,0,0,0-82.23-23.51l-63.62-63.62c153.14-186.35,142.7-462.1-31.41-636.2-185.26-185.26-485.62-185.26-670.88,0s-185.26,485.62,0,670.88c174.1,174.11,449.85,184.55,636.2,31.41l63.62,63.62a88.09,88.09,0,0,0,23.51,82.23l242.81,242.82a88.3,88.3,0,0,0,95.62,19.39q4-1.62,7.84-3.64a88.33,88.33,0,0,0,21.36-140.57Zm-506.78-382c-137.15,137.16-360.33,137.16-497.48,0s-137.16-360.33,0-497.48,360.33-137.16,497.48,0S2167.94,1412.39,2030.78,1549.54Z" transform="translate(-1307.65 -826.41)"/><path d="M1782.4,1023h0c-152.84.13-277.18,124.59-277.18,277.43a31.71,31.71,0,1,0,63.42,0c0-117.9,95.91-213.91,213.81-214a31.71,31.71,0,0,0,0-63.42Z" transform="translate(-1307.65 -826.41)"/></g></svg>