<svg xmlns="http://www.w3.org/2000/svg" xmlns:xlink="http://www.w3.org/1999/xlink" viewBox="0 0 1500 1500"><defs><style>.cls-1{fill:#895633;}.cls-2{fill:#f4c887;}.cls-21,.cls-3,.cls-32,.cls-37,.cls-38,.cls-39,.cls-40,.cls-43,.cls-44{fill:none;}.cls-4{fill:#a8724e;}.cls-5{fill:#f2e8d1;}.cls-6{fill:#fff;}.cls-7{clip-path:url(#clip-path);}.cls-8{fill:#e2d1b0;}.cls-9{fill:#ccaa79;}.cls-10{clip-path:url(#clip-path-2);}.cls-11{fill:#683118;}.cls-12{clip-path:url(#clip-path-3);}.cls-13{fill:#ddc092;}.cls-14{clip-path:url(#clip-path-4);}.cls-15{clip-path:url(#clip-path-5);}.cls-16{clip-path:url(#clip-path-6);}.cls-17{fill:#774022;}.cls-18{clip-path:url(#clip-path-7);}.cls-19{fill:#4c0f09;}.cls-20{fill:#bf463a;}.cls-21{stroke:#4c0f09;stroke-width:2.49px;}.cls-21,.cls-32,.cls-37,.cls-38,.cls-39,.cls-40,.cls-43,.cls-44{stroke-linecap:round;stroke-linejoin:round;}.cls-22{fill:#ea856e;}.cls-23{fill:#d65143;}.cls-24{fill:#e5caa3;}.cls-25{clip-path:url(#clip-path-8);}.cls-26{fill:#e2af6a;}.cls-27{fill:#e2dcd3;}.cls-28{fill:#e89287;}.cls-29{clip-path:url(#clip-path-9);}.cls-30{fill:#f2ece2;}.cls-31{fill:#f4a698;}.cls-32{stroke:#e2af6a;}.cls-32,.cls-37,.cls-39,.cls-40{stroke-width:1.6px;}.cls-33{clip-path:url(#clip-path-10);}.cls-34{fill:#e8a191;}.cls-35{clip-path:url(#clip-path-11);}.cls-36{clip-path:url(#clip-path-12);}.cls-37{stroke:#c68136;}.cls-38{stroke:#fff;stroke-width:0.6px;}.cls-39{stroke:#4f2812;}.cls-40{stroke:#b24c38;}.cls-41{fill:#d67767;}.cls-42{fill:#e8908e;}.cls-43{stroke:#ce6e6e;stroke-width:0.8px;}.cls-44{stroke:#ddd0bf;stroke-width:1.2px;}.cls-45{clip-path:url(#clip-path-13);}.cls-46{clip-path:url(#clip-path-14);}</style><clipPath id="clip-path" transform="translate(-4 -4)"><path class="cls-1" d="M502.9,839.69s-1.19,72.79-57.64,102.83-41.52,80.93-34.75,89.82,39.75,6.38,29.88,58.05c0,0,0,7.6-12.16,8.33s-95.87-9.28-95.87-9.28-10.94.21-9-23.69-25-155.2,7.71-169.15,49.51-59.23,45-96.43S511.9,795.73,502.9,839.69Z"/></clipPath><clipPath id="clip-path-2" transform="translate(-4 -4)"><path class="cls-1" d="M669.05,865.61c0,2.59-64.45,152.88-65.76,183.81s-.8,34.16,9.61,46.58,27.07,12.76,23,42.79c0,0-.55,6.92-9.93,9.18s-104.43-10.1-104.43-10.1-10.14,2.11-3.36-51.68,8.61-72.06,7.55-80.41-2.83-137.83,4.11-160S669.28,840.27,669.05,865.61Z"/></clipPath><clipPath id="clip-path-3" transform="translate(-4 -4)"><path class="cls-4" d="M522.82,858.1c0,2.59-64.45,152.88-65.76,183.82s-.8,34.15,9.61,46.57,27.07,12.76,22.95,42.79c0,0-.55,6.92-9.93,9.18s-104.43-10.1-104.43-10.1-10.14,2.11-3.36-51.67,8.61-72.07,7.55-80.41-2.83-137.84,4.11-160S523.05,832.77,522.82,858.1Z"/></clipPath><clipPath id="clip-path-4" transform="translate(-4 -4)"><path class="cls-4" d="M334.71,823.43s-1.19,72.78-57.64,102.82-41.52,80.93-34.75,89.83,39.75,6.38,29.88,58c0,0,0,7.6-12.16,8.33s-95.87-9.27-95.87-9.27-10.94.21-9-23.7-25-155.19,7.71-169.14,50-54.44,45.48-91.64S343.71,779.46,334.71,823.43Z"/></clipPath><clipPath id="clip-path-5" transform="translate(-4 -4)"><path class="cls-3" d="M277.17,614.37c.34-5-112.25,21.65-120.18-109-.18-2.89-3.62-3.83-5-1.35C136.11,533.29,91.53,638.5,230,701.72,230,701.72,273.94,662.24,277.17,614.37Z"/></clipPath><clipPath id="clip-path-6" transform="translate(-4 -4)"><path class="cls-3" d="M696,704.29s37.85,146.29-51.17,210-319.48,18.54-364.74-48.59-77.07-36-71.32-93.75,19.89-141.57,71.68-163.7,150.34-10.38,166.77-.08S696,704.29,696,704.29Z"/></clipPath><clipPath id="clip-path-7" transform="translate(-4 -4)"><path class="cls-5" d="M611.22,733.11s181.66.67,153.46-117c0,0,39.24-232.87-136.95-254.14S431.71,541.63,431.48,583c0,0-54.56,97.84,119.63,144.27Z"/></clipPath><clipPath id="clip-path-8" transform="translate(-4 -4)"><path class="cls-2" d="M1054.94,1107.59c14.12,39.36,49.81,57,85.73,62.66,38.48,6.06,75,1,112.48-8.91,16.35-4.3,32.62-8.28,49.84-8.13a65.45,65.45,0,0,1,21.07,3.84c-2.24-.85,2.18,1,2.76,1.33,1.58.78,3.14,1.61,4.65,2.52,1.21.73,2.44,1.5,3.59,2.33-3.28-2.37,2.24,2.13,2.87,2.73,1.31,1.25,2.56,2.56,3.78,3.91-2.31-2.55,0,0,.45.57,1.23,1.81,2.33,3.72,3.53,5.56.36.56,1.93,3.94.41.49a46.59,46.59,0,0,1,1.87,5.2c.32,1,1.21,5.69.58,1.56.75,4.93.83,6.6,0,10.53,0,0-2.91,6.48-1.3,4A32.21,32.21,0,0,1,1343,1203c.91-.91,2.32-1.66-.85.51-1.54,1.07-3,2.23-4.59,3.25-3.36,2.17,4.32-1.72-1.93,1.06a94.64,94.64,0,0,1-13.44,5c-15.48,4.27-33.38,2.86-49.71,0-20.92-3.66-41.38-9.88-62.17-14.28-11.09-2.35-23.6,6.09-25.31,18.84s5.2,25.38,17.09,27.91c38.69,8.2,77.85,22.49,117.72,16.16,19.8-3.15,39.13-10.22,54.06-25.38,16.32-16.58,21.36-41.39,16.27-64.73-9.4-43.1-49.47-64.12-86.54-65.5-38.78-1.46-75.06,16.83-113.24,19.41-20.57,1.38-39,.15-59.34-5.49a55.37,55.37,0,0,1-11.72-4.34,77.17,77.17,0,0,1-7-3.81c-.35-.22-5.54-4-2.74-1.78a65,65,0,0,1-5.12-4.57q-1.64-1.62-3.17-3.36c1,1.31,1,1.32,0,.06a55.16,55.16,0,0,1-3.21-4.86c-.79-1.34-1.52-2.71-2.21-4.12.93,1.82.86,1.45-.19-1.13-4.29-11.95-16.22-19-27.54-14.6-10.69,4.14-17.54,18.35-13.23,30.36Z"/></clipPath><clipPath id="clip-path-9" transform="translate(-4 -4)"><path class="cls-3" d="M1033.24,645.48s8.92,52.82,13.67,64.13,32.23,80.54,37.56,107.81,39,96.39,47,120.41,25,208.5-107,220.28c0,0-60.21-17.44-71-19.75s-79.62,1.13-103-12.95-59.71-45.8-63.06-107.61,26.32-124,11.81-169.22S836.53,641,855.6,634.78s125.17-13.24,127.61-14.36S1033.24,645.48,1033.24,645.48Z"/></clipPath><clipPath id="clip-path-10" transform="translate(-4 -4)"><path class="cls-2" d="M937.06,370.35l-80.75-76.92c-3.77-3.58-9.63-2.08-11.54,3C837.15,316.6,822.9,367,833.49,441.7,833.49,441.7,935.74,387.4,937.06,370.35Z"/></clipPath><clipPath id="clip-path-11" transform="translate(-4 -4)"><path class="cls-2" d="M1016.45,387.33l101-38c4.71-1.77,9.64,2,9.69,7.52.22,21.86-3.65,74.45-38.83,139.39C1088.29,496.2,1011.88,403.69,1016.45,387.33Z"/></clipPath><clipPath id="clip-path-12" transform="translate(-4 -4)"><path class="cls-2" d="M852.77,405.57s41.8-54.46,115.2-38.52c72.18,15.67,124.24,56.92,126.37,175.66s-88.18,118-184.54,97.38C810.73,618.89,738.84,542.21,852.77,405.57Z"/></clipPath><clipPath id="clip-path-13" transform="translate(-4 -4)"><path class="cls-3" d="M875.59,1119.4c190.5-186.14,178.28-326.17,178.28-326.17s-15.78-46.31-39.84-83-74.43-5-74.43-5C932.12,721,915,778.38,913.55,811.93s-10.84,133.92-31.87,154.2-70.07,114.61-70.07,114.61Z"/></clipPath><clipPath id="clip-path-14" transform="translate(-4 -4)"><path class="cls-3" d="M823.15,637.69S664.87,806.63,749,864.88s97.23-175.82,97.23-175.82Z"/></clipPath></defs><g id="ƒŒƒCƒ__6" data-name="ƒŒƒCƒ„[_6"><rect class="cls-6" width="1500" height="1500" rx="418.14"/><path class="cls-1" d="M502.9,839.69s-1.19,72.79-57.64,102.83-41.52,80.93-34.75,89.82,39.75,6.38,29.88,58.05c0,0,0,7.6-12.16,8.33s-95.87-9.28-95.87-9.28-10.94.21-9-23.69-25-155.2,7.71-169.15,49.51-59.23,45-96.43S511.9,795.73,502.9,839.69Z" transform="translate(-4 -4)"/><g class="cls-7"><path class="cls-8" d="M420.87,996.16s-90.31-83.86-67.33-142.6c0,0-41.14-16.66-52.46,38.88s-21.18,189,6,204.28,32.44,35.52,80.46,29.47,38.61,15.9,63.77-11.27S420.87,996.16,420.87,996.16Z" transform="translate(-4 -4)"/></g><path class="cls-9" d="M408.2,1097.58a30,30,0,0,0,4.4-11.52,33.31,33.31,0,0,0-.1-12.89,23.19,23.19,0,0,0-6.12-11.47,16.37,16.37,0,0,0-10.71-4.8c2.84,2.9,5.53,5.17,7.25,8.26a33.06,33.06,0,0,1,3.77,9.56C408.17,1081.69,408.07,1089.26,408.2,1097.58Z" transform="translate(-4 -4)"/><path class="cls-9" d="M370.8,1094a29.71,29.71,0,0,0,4.4-11.52,33.06,33.06,0,0,0-.1-12.88,23.05,23.05,0,0,0-6.11-11.47,16.34,16.34,0,0,0-10.72-4.81c2.85,2.9,5.53,5.18,7.26,8.26a33.33,33.33,0,0,1,3.76,9.56C370.78,1078.07,370.67,1085.64,370.8,1094Z" transform="translate(-4 -4)"/><path class="cls-1" d="M669.05,865.61c0,2.59-64.45,152.88-65.76,183.81s-.8,34.16,9.61,46.58,27.07,12.76,23,42.79c0,0-.55,6.92-9.93,9.18s-104.43-10.1-104.43-10.1-10.14,2.11-3.36-51.68,8.61-72.06,7.55-80.41-2.83-137.83,4.11-160S669.28,840.27,669.05,865.61Z" transform="translate(-4 -4)"/><g class="cls-10"><path class="cls-8" d="M615,1027.11s-36-63.71-104.63-10.13-37.5,135.2,3.19,142.31,36.59,27,84.38,13.23,49.63,8,53.26-24-4-51.74-9.64-67.5S615,1027.11,615,1027.11Z" transform="translate(-4 -4)"/></g><path class="cls-9" d="M608.8,1147.59a22.92,22.92,0,0,0,3.87-11.1,24.92,24.92,0,0,0-1.78-12.23,20.88,20.88,0,0,0-7.42-9.39,20.41,20.41,0,0,0-5-2.64,23,23,0,0,0-5.32-1c1.28,1.49,2.65,2.57,3.87,3.83s2.44,2.4,3.4,3.78a31.24,31.24,0,0,1,5,8.19C608,1132.88,608.6,1139.74,608.8,1147.59Z" transform="translate(-4 -4)"/><path class="cls-9" d="M575,1144.32a22.83,22.83,0,0,0,3.88-11.1,25.2,25.2,0,0,0-1.78-12.24,21,21,0,0,0-7.43-9.39,20.35,20.35,0,0,0-4.95-2.63,23.49,23.49,0,0,0-5.32-1c1.28,1.5,2.65,2.58,3.87,3.84s2.45,2.4,3.41,3.78a31,31,0,0,1,5,8.18C574.18,1129.61,574.77,1136.47,575,1144.32Z" transform="translate(-4 -4)"/><path class="cls-11" d="M277.17,614.37c.34-5-112.25,21.65-120.18-109-.18-2.89-3.62-3.83-5-1.35C136.11,533.29,91.53,638.5,230,701.72,230,701.72,273.94,662.24,277.17,614.37Z" transform="translate(-4 -4)"/><path class="cls-5" d="M696.08,704.34s37.85,146.29-51.17,209.95-319.48,18.54-364.74-48.6-77.07-36-71.32-93.74,19.89-141.57,71.68-163.71,150.34-10.37,166.77-.07S696.08,704.34,696.08,704.34Z" transform="translate(-4 -4)"/><path class="cls-4" d="M522.82,858.1c0,2.59-64.45,152.88-65.76,183.82s-.8,34.15,9.61,46.57,27.07,12.76,22.95,42.79c0,0-.55,6.92-9.93,9.18s-104.43-10.1-104.43-10.1-10.14,2.11-3.36-51.67,8.61-72.07,7.55-80.41-2.83-137.84,4.11-160S523.05,832.77,522.82,858.1Z" transform="translate(-4 -4)"/><g class="cls-12"><path class="cls-5" d="M468.81,1019.6s-36-63.7-104.63-10.12-37.5,135.2,3.19,142.31,36.59,27,84.38,13.23,49.62,8,53.26-24-4-51.73-9.64-67.49S468.81,1019.6,468.81,1019.6Z" transform="translate(-4 -4)"/></g><path class="cls-13" d="M462.57,1140.09a23,23,0,0,0,3.87-11.1,24.94,24.94,0,0,0-1.78-12.24,21.54,21.54,0,0,0-12.37-12,24.14,24.14,0,0,0-5.32-1c1.28,1.5,2.65,2.58,3.87,3.84s2.44,2.39,3.4,3.77a31.26,31.26,0,0,1,5,8.19C461.77,1125.38,462.37,1132.24,462.57,1140.09Z" transform="translate(-4 -4)"/><path class="cls-13" d="M428.74,1136.82a22.87,22.87,0,0,0,3.88-11.1,25.06,25.06,0,0,0-1.79-12.24,20.81,20.81,0,0,0-7.42-9.39,20.22,20.22,0,0,0-5-2.64,24,24,0,0,0-5.32-1c1.28,1.49,2.65,2.57,3.87,3.84s2.45,2.39,3.41,3.77a30.94,30.94,0,0,1,5,8.19C428,1122.11,428.54,1129,428.74,1136.82Z" transform="translate(-4 -4)"/><path class="cls-4" d="M334.71,823.43s-1.19,72.78-57.64,102.82-41.52,80.93-34.75,89.83,39.75,6.38,29.88,58c0,0,0,7.6-12.16,8.33s-95.87-9.27-95.87-9.27-10.94.21-9-23.7-25-155.19,7.71-169.14,50-54.44,45.48-91.64S343.71,779.46,334.71,823.43Z" transform="translate(-4 -4)"/><g class="cls-14"><path class="cls-5" d="M252.68,979.89S162.37,896,185.35,837.29c0,0-41.14-16.65-52.46,38.88s-21.18,189,6,204.28,32.44,35.52,80.46,29.47,38.61,15.9,63.77-11.27S252.68,979.89,252.68,979.89Z" transform="translate(-4 -4)"/></g><path class="cls-13" d="M240,1081.31a29.93,29.93,0,0,0,4.4-11.52,33.31,33.31,0,0,0-.1-12.89,23.19,23.19,0,0,0-6.12-11.47,16.37,16.37,0,0,0-10.71-4.8c2.84,2.9,5.53,5.17,7.25,8.26a33.06,33.06,0,0,1,3.77,9.56C240,1065.42,239.88,1073,240,1081.31Z" transform="translate(-4 -4)"/><path class="cls-13" d="M202.61,1077.7a29.81,29.81,0,0,0,4.4-11.53,33.06,33.06,0,0,0-.1-12.88,23.05,23.05,0,0,0-6.11-11.47,16.34,16.34,0,0,0-10.72-4.81c2.85,2.9,5.53,5.18,7.26,8.26a33.28,33.28,0,0,1,3.76,9.57C202.59,1061.8,202.48,1069.37,202.61,1077.7Z" transform="translate(-4 -4)"/><g class="cls-15"><path class="cls-5" d="M199.07,584.16s-55.85-21.63-84,59.64q-.82,2.36-1.6,4.81c-27.62,86.93,17.15-196.14,38.9-180.5s34.81,54,34.81,54Z" transform="translate(-4 -4)"/></g><g class="cls-16"><path class="cls-4" d="M522.72,858.06s77.4-101.58-53.65-165.38l-20.93-33.24-68.72-18.1s-117.23,73.18-134.31,95.2-36.94,19.54-37.35,47.31-14.94,41.29,20.46,68.46,94.72,71.93,119.54,78.06,67-3.87,84.47-20.92S522.72,858.06,522.72,858.06Z" transform="translate(-4 -4)"/><path class="cls-17" d="M453.62,660s14.09,90.49-62,79.75S239,841.6,177.63,765.51s55.82-190.83,117.88-190.25S444,564.74,452.65,602.77,453.62,660,453.62,660Z" transform="translate(-4 -4)"/><path class="cls-4" d="M699.07,718.46s-19.45,6.44-34.86-2.24,29,190.45-48.46,221.83c0,0,36.71,16.23,67.81-24.71S730.41,736,699.07,718.46Z" transform="translate(-4 -4)"/></g><path class="cls-5" d="M611.22,733.11s181.66.67,153.46-117c0,0,39.24-232.87-136.95-254.14S431.71,541.63,431.48,583c0,0-54.56,97.84,119.63,144.27Z" transform="translate(-4 -4)"/><g class="cls-18"><path class="cls-4" d="M602.66,341.79c2.81,1.11,21.81,192.06-46.09,238s-95.52,65.23-85.51,132.12-106.87-112-103.91-187.67S471.23,286,507.91,297.12,602.66,341.79,602.66,341.79Z" transform="translate(-4 -4)"/><path class="cls-4" d="M662.26,355.05S584.45,530,683.51,605.18s78.36,97.7,74.63,157.35c0,0,26.36-57.69,33.8-132.47,9.36-94.26-73.62-285.54-91.63-287.28S662.26,355.05,662.26,355.05Z" transform="translate(-4 -4)"/></g><path class="cls-17" d="M720.25,388.92c9.09-7.55,23.09-16.89,40.17-20.74,19.92-4.49,39.68,8.48,46.06,29.76,12.4,41.33,31.26,115.7,13.6,135.88-21.2,24.22-93.19-63.27-108.75-112.61C707.63,409.46,711.24,396.41,720.25,388.92Z" transform="translate(-4 -4)"/><path class="cls-17" d="M532,383.05c-7.15-12-23-33.89-47.74-43.53-13.57-5.29-28.69.28-37,13.23C425.48,386.59,382.83,458.62,395.29,485c15,31.67,117.07-39.37,137.54-81.53A21.78,21.78,0,0,0,532,383.05Z" transform="translate(-4 -4)"/><path class="cls-19" d="M595,559.22l24.87,1.48,9.33.55c6.84.41,8.18,4.76,3,9.68l-16.39,15.48c-5.2,4.9-13,4.1-17.24-1.8L587.25,569c-4.28-5.89-2.18-10.39,4.66-10Z" transform="translate(-4 -4)"/><path class="cls-20" d="M641.05,621.54S631.31,636.4,612,605.91c0,0-19,27.39-35.35,9.19,0,0,7,59.89,30.42,59.74C629.9,674.7,640.74,625.85,641.05,621.54Z" transform="translate(-4 -4)"/><path class="cls-21" d="M662.74,606.11s-21.55,46.11-51.87-.27c0,0-32.33,38.95-55.89-6" transform="translate(-4 -4)"/><path class="cls-13" d="M632.82,681.79c-2.19,1.71-4.9,2.47-7.4,3.37a59.29,59.29,0,0,1-7.66,2,43.29,43.29,0,0,1-15.16.41,38.23,38.23,0,0,1-14.2-5.32,84.26,84.26,0,0,1-12.86-10.47,38.48,38.48,0,0,0,10.24,14.73,31.41,31.41,0,0,0,16,7.58,33.63,33.63,0,0,0,17.2-2,36.93,36.93,0,0,0,7.69-4C628.93,686.31,631.48,684.62,632.82,681.79Z" transform="translate(-4 -4)"/><ellipse class="cls-6" cx="680.28" cy="562.57" rx="22.55" ry="24.85"/><path class="cls-19" d="M667,564.89c-.84,10.55,6.23,19.85,15.8,20.77s18-6.87,18.84-17.42-6.23-19.85-15.8-20.77S667.8,554.34,667,564.89Z" transform="translate(-4 -4)"/><path class="cls-6" d="M683.47,554.52a5.07,5.07,0,0,0-7.65-.36,6.4,6.4,0,0,0-.32,8.43,5.06,5.06,0,0,0,7.64.36A6.4,6.4,0,0,0,683.47,554.52Z" transform="translate(-4 -4)"/><ellipse class="cls-6" cx="536.61" cy="548.67" rx="22.55" ry="24.85"/><path class="cls-19" d="M523.29,551c-.84,10.55,6.23,19.85,15.8,20.78s18-6.88,18.84-17.43-6.23-19.84-15.8-20.77S524.13,540.45,523.29,551Z" transform="translate(-4 -4)"/><path class="cls-6" d="M539.8,540.62a5.07,5.07,0,0,0-7.65-.36,6.4,6.4,0,0,0-.32,8.43,5.07,5.07,0,0,0,7.65.36A6.41,6.41,0,0,0,539.8,540.62Z" transform="translate(-4 -4)"/><path class="cls-1" d="M379.08,923.44c1-12,2.11-24,3.31-35.88s2.52-23.75,4.42-35.47c.88-5.87,1.81-11.75,3-17.54.58-2.9,1.09-5.83,1.71-8.71s1.37-5.74,2-8.64a227.45,227.45,0,0,1,11.07-33.64c-6.83,9.52-11.71,20.67-15.52,32.1s-6.21,23.39-8.16,35.34a300.75,300.75,0,0,0-3.16,36.19A247.89,247.89,0,0,0,379.08,923.44Z" transform="translate(-4 -4)"/><path class="cls-1" d="M312.35,894.8c5.9-4.06,10.64-10,14.43-16.45a78.68,78.68,0,0,0,8.46-21.2,88.52,88.52,0,0,0,2.19-23c.09-3.84-.69-7.64-1.09-11.41a112.21,112.21,0,0,0-2.67-11c-.26,3.84-.12,7.56-.26,11.27l-.28,5.55L333,831.3l-.27,2.74c-.2,1.82-.38,3.63-.5,5.45s-.54,3.59-.8,5.38c-.38,3.6-1.29,7.09-2,10.61a123.88,123.88,0,0,1-6.73,20.36A110.91,110.91,0,0,1,312.35,894.8Z" transform="translate(-4 -4)"/><path class="cls-22" d="M587.35,656.47a134.26,134.26,0,0,1-5.61-15.91,1.14,1.14,0,0,1,.38-1.2c3.29-2.44,19.66-13.69,26.54-2.08a.92.92,0,0,0,1.34.35c3.62-2.56,18.43-11.28,25.45,11.19,8,25.71,6.95,58.57-16.18,60.13-16.35,1.11-19.4-23.7-24.12-39.67a1.11,1.11,0,0,0-.22-.4A45.6,45.6,0,0,1,587.35,656.47Z" transform="translate(-4 -4)"/><path class="cls-23" d="M609.18,638.25a73.22,73.22,0,0,1,6.91,11.45A59.48,59.48,0,0,1,620.54,662a50.15,50.15,0,0,1,1.26,6.46l.44,3.3.19,3.35c.23,2.25,0,4.5.1,6.81s-.28,4.6-.23,7a50.89,50.89,0,0,0,2.41-6.64,44.34,44.34,0,0,0,1.22-7.09,43.15,43.15,0,0,0-1.06-14.53A40.06,40.06,0,0,0,619,647.61,29.17,29.17,0,0,0,609.18,638.25Z" transform="translate(-4 -4)"/><path class="cls-23" d="M595.24,669.07c-1-4.45-2.3-8.47-3.34-12.55a47.94,47.94,0,0,1-1.3-6.07,19,19,0,0,1,0-6.34,10.24,10.24,0,0,0-2.33,6.43,21.72,21.72,0,0,0,.76,6.9A27.37,27.37,0,0,0,595.24,669.07Z" transform="translate(-4 -4)"/><path class="cls-24" d="M494.07,706.86c8.19,6.16,17.41,10.49,26.73,14.16a191.24,191.24,0,0,0,28.71,8.42A212.46,212.46,0,0,0,579,733.35c4.92.4,9.88.31,14.81.39,4.94-.15,9.87-.41,14.79-.89-4.89-.93-9.77-1.51-14.63-2.23l-14.53-2.2c-4.82-.88-9.66-1.45-14.45-2.46-4.82-.78-9.6-1.76-14.37-2.76q-14.34-3-28.48-6.91A273.08,273.08,0,0,1,494.07,706.86Z" transform="translate(-4 -4)"/><path class="cls-2" d="M1054.94,1107.59c14.12,39.36,49.81,57,85.73,62.66,38.48,6.06,75,1,112.48-8.91,16.35-4.3,32.62-8.28,49.84-8.13a65.45,65.45,0,0,1,21.07,3.84c-2.24-.85,2.18,1,2.76,1.33,1.58.78,3.14,1.61,4.65,2.52,1.21.73,2.44,1.5,3.59,2.33-3.28-2.37,2.24,2.13,2.87,2.73,1.31,1.25,2.56,2.56,3.78,3.91-2.31-2.55,0,0,.45.57,1.23,1.81,2.33,3.72,3.53,5.56.36.56,1.93,3.94.41.49a46.59,46.59,0,0,1,1.87,5.2c.32,1,1.21,5.69.58,1.56.75,4.93.83,6.6,0,10.53,0,0-2.91,6.48-1.3,4A32.21,32.21,0,0,1,1343,1203c.91-.91,2.32-1.66-.85.51-1.54,1.07-3,2.23-4.59,3.25-3.36,2.17,4.32-1.72-1.93,1.06a94.64,94.64,0,0,1-13.44,5c-15.48,4.27-33.38,2.86-49.71,0-20.92-3.66-41.38-9.88-62.17-14.28-11.09-2.35-23.6,6.09-25.31,18.84s5.2,25.38,17.09,27.91c38.69,8.2,77.85,22.49,117.72,16.16,19.8-3.15,39.13-10.22,54.06-25.38,16.32-16.58,21.36-41.39,16.27-64.73-9.4-43.1-49.47-64.12-86.54-65.5-38.78-1.46-75.06,16.83-113.24,19.41-20.57,1.38-39,.15-59.34-5.49a55.37,55.37,0,0,1-11.72-4.34,77.17,77.17,0,0,1-7-3.81c-.35-.22-5.54-4-2.74-1.78a65,65,0,0,1-5.12-4.57q-1.64-1.62-3.17-3.36c1,1.31,1,1.32,0,.06a55.16,55.16,0,0,1-3.21-4.86c-.79-1.34-1.52-2.71-2.21-4.12.93,1.82.86,1.45-.19-1.13-4.29-11.95-16.22-19-27.54-14.6-10.69,4.14-17.54,18.35-13.23,30.36Z" transform="translate(-4 -4)"/><g class="cls-25"><path class="cls-26" d="M1148.16,1100.27c5.84,16.42,1,36.21-13.64,46.4-1,.73,0,2.47,1,1.73,11.57-8.08,17.73-22.11,17-36.07a44,44,0,0,0-2.48-12.59c-.43-1.2-2.37-.68-1.93.53Z" transform="translate(-4 -4)"/><path class="cls-26" d="M1177.06,1148.15a55.91,55.91,0,0,1-20.19,34.63,47,47,0,0,1-9.56,5.77c-1.17.53-.15,2.26,1,1.73,12.64-5.72,22.23-16.92,27.33-29.67a58.09,58.09,0,0,0,3.34-11.93c.21-1.25-1.72-1.8-1.93-.53Z" transform="translate(-4 -4)"/><path class="cls-26" d="M1218.31,1109.74c7.85,13.09.87,28.67-5.17,40.89-.57,1.15,1.15,2.17,1.72,1,6.38-12.9,13.43-29.14,5.18-42.91a1,1,0,0,0-1.73,1Z" transform="translate(-4 -4)"/><path class="cls-26" d="M1260.4,1138.63c-.34,16.51-6.72,33-18.34,44.82-.91.92.51,2.33,1.41,1.41,12-12.21,18.58-29.2,18.93-46.23a1,1,0,0,0-2,0Z" transform="translate(-4 -4)"/><path class="cls-26" d="M1323.85,1098.74c4,13.06-2.54,25.89-8.58,37.13-.6,1.14,1.12,2.15,1.73,1,6.29-11.73,12.9-25.07,8.78-38.67-.38-1.23-2.31-.7-1.93.53Z" transform="translate(-4 -4)"/><path class="cls-26" d="M1355.9,1140.48c-9.19,17.41-25.24,31.2-44.3,36.54a61.94,61.94,0,0,1-15.73,2.32,1,1,0,0,0,0,2c20-.37,39-10.37,51.92-25.41a78,78,0,0,0,9.84-14.44c.6-1.14-1.13-2.15-1.73-1Z" transform="translate(-4 -4)"/><path class="cls-26" d="M1362.48,1182.72a74.11,74.11,0,0,1,23.38,15.93,68.78,68.78,0,0,1,15.89,25.95,195.64,195.64,0,0,1,5.13,18.92c.3,1.25,2.23.72,1.93-.53-2.64-11.19-5.38-22.5-11.3-32.48a71.76,71.76,0,0,0-19.75-21.42,76.39,76.39,0,0,0-14.27-8.1c-1.17-.51-2.19,1.22-1,1.73Z" transform="translate(-4 -4)"/><path class="cls-26" d="M1319.75,1203.21c12.93,4.57,26.55,9.87,33.92,22.23a1,1,0,0,0,1.73-1c-7.66-12.84-21.68-18.4-35.12-23.15-1.21-.43-1.73,1.5-.53,1.93Z" transform="translate(-4 -4)"/><path class="cls-26" d="M1328.83,1235.75a56.88,56.88,0,0,1-4.32,42.86,48.84,48.84,0,0,1-7.1,10c-.87.95.54,2.37,1.41,1.42,10.3-11.2,15.18-26.94,14.24-42a55.75,55.75,0,0,0-2.3-12.82,1,1,0,0,0-1.93.53Z" transform="translate(-4 -4)"/><path class="cls-26" d="M1267.69,1206.82S1242.06,1228,1259,1274c0,0-79.08-23.11-80.88-38.36s-5.22-26.2-.19-35.65,10.57-15.39,15.6-15.24S1267.69,1206.82,1267.69,1206.82Z" transform="translate(-4 -4)"/></g><path class="cls-26" d="M815.86,883.78s-73.27-2.73-84.47,90.65,70.07,136,70.07,136l39.18-9.69Z" transform="translate(-4 -4)"/><path class="cls-27" d="M813.11,1116.56c0-4.58-1.75-10.72-5-14.46-.09-.32-.15-.66-.25-1a6.83,6.83,0,0,0,1.15-3.38c4.61-50.54-74.77-69.91-91.35-24a8.16,8.16,0,0,0-.46,3.31c-15.62,3.23-19.23,29.61-6.62,39.49,5.12,4,16,6.87,24.48,5.26a18.34,18.34,0,0,0,1.81,6.1c3.49,7,10.66,10.73,17.37,12.67,10.36,3,21.19-.27,25.75-8.58,1.36,1,2.62,3,4.15,3.65,1.21,1.66,3.23,1.74,5.46,2.19,5.48,1.13,10.68-1,15.36-3.9C810.81,1130.39,813.17,1123.7,813.11,1116.56Z" transform="translate(-4 -4)"/><path class="cls-28" d="M735.05,1121.81c-2.66-2.3-4.08-6.13-4.53-9.88a27.13,27.13,0,0,1,1.18-11.22,43.93,43.93,0,0,1,2-5.12,52.91,52.91,0,0,1,2.71-4.63c1-1.42,2.1-2.82,3.25-4.12a44.63,44.63,0,0,1,3.79-3.5c-.61,1.73-1.35,3.3-2.07,4.87s-1.35,3.18-2.1,4.69a91.38,91.38,0,0,0-3.51,9.33,39.66,39.66,0,0,0-1.92,9.56A26.69,26.69,0,0,0,735.05,1121.81Z" transform="translate(-4 -4)"/><path class="cls-28" d="M780,1132a33.32,33.32,0,0,0,3.89-15.15,56.92,56.92,0,0,0-.43-7.85c-.18-1.33-.41-2.69-.55-4.09a37.43,37.43,0,0,1-.57-4.31,29.33,29.33,0,0,1,2.54,3.46,35.13,35.13,0,0,1,1.83,4,25.63,25.63,0,0,1,1.5,8.94,21,21,0,0,1-2.22,8.91A12.84,12.84,0,0,1,780,1132Z" transform="translate(-4 -4)"/><path class="cls-2" d="M1033.24,645.48s8.92,52.82,13.67,64.13,32.23,80.54,37.56,107.81,36.18,81.75,47,120.41c6.88,24.45,25,208.5-107,220.28,0,0-60.21-17.44-71-19.75s-79.62,1.13-103-12.95-59.71-45.8-63.06-107.61,26.32-124,11.81-169.22S836.53,641,855.6,634.78s125.17-13.24,127.61-14.36S1033.24,645.48,1033.24,645.48Z" transform="translate(-4 -4)"/><g class="cls-29"><path class="cls-30" d="M894.16,611S884,920.38,861.46,946.11,801.74,1121.21,853,1197s59.33-37.51,100.47-131.26c34.91-79.55,46.58-166.73,35.35-217.85S905.81,612.3,894.16,611Z" transform="translate(-4 -4)"/><path class="cls-26" d="M1137.44,926.59a63.32,63.32,0,0,1-17.26,27.52c-8.42,8-18.75,13.67-29.68,17.47a135.34,135.34,0,0,1-19.91,5.14c-1.27.23-.73,2.16.53,1.93,12.3-2.28,24.47-5.89,35.42-12.06a73.07,73.07,0,0,0,24.65-22.35,62.18,62.18,0,0,0,8.18-17.12,1,1,0,0,0-1.93-.53Z" transform="translate(-4 -4)"/><path class="cls-26" d="M1144.77,972.84c-7.1,16.75-22.3,27.61-38.77,34.09-5,2-10.19,3.63-15.38,5.15a1,1,0,0,0,.53,1.93c17.86-5.24,35.89-12.59,47.8-27.56a54.08,54.08,0,0,0,7.55-12.6c.5-1.17-1.23-2.19-1.73-1Z" transform="translate(-4 -4)"/><path class="cls-26" d="M1144.74,1032.06c-11.78,15.41-29.41,26.25-48.67,29.06a66.9,66.9,0,0,1-15.81.41c-1.28-.12-1.27,1.88,0,2,19.7,1.79,39.46-5.28,54.43-18a79.8,79.8,0,0,0,11.77-12.46c.78-1-1-2-1.72-1Z" transform="translate(-4 -4)"/></g><path class="cls-30" d="M1036.32,1183.23c.4-4.56-.7-10.86-3.58-15-.06-.32-.09-.67-.15-1a6.75,6.75,0,0,0,1.47-3.22c9.46-49.71-67.59-78.31-88.51-34.61a8.27,8.27,0,0,0-.79,3.24c-15.84,1.38-22,27.19-10.39,38.49,4.7,4.58,15.22,8.71,23.83,8.11a18.29,18.29,0,0,0,1.21,6.28c2.79,7.37,9.56,11.91,16,14.64,10,4.21,21.09,2.22,26.43-5.51,1.26,1.18,2.32,3.3,3.78,4.12,1,1.79,3,2.11,5.22,2.82,5.34,1.76,10.71.21,15.65-2.08C1032.69,1196.72,1035.69,1190.34,1036.32,1183.23Z" transform="translate(-4 -4)"/><path class="cls-31" d="M958.2,1179.28c-2.43-2.6-3.47-6.58-3.55-10.36a26.76,26.76,0,0,1,2.26-11,42,42,0,0,1,2.5-4.86,51.89,51.89,0,0,1,3.14-4.29c1.17-1.29,2.36-2.55,3.63-3.71a44.45,44.45,0,0,1,4.11-3c-.77,1.66-1.66,3.13-2.53,4.61s-1.65,3-2.54,4.41a86.89,86.89,0,0,0-4.39,8.87,38.6,38.6,0,0,0-2.83,9.28A26.73,26.73,0,0,0,958.2,1179.28Z" transform="translate(-4 -4)"/><path class="cls-31" d="M1001.88,1194.69a32.69,32.69,0,0,0,5.34-14.61,57.72,57.72,0,0,0,.33-7.85c0-1.35-.15-2.72-.15-4.14a38.43,38.43,0,0,1-.15-4.35,31.55,31.55,0,0,1,2.19,3.74,38.67,38.67,0,0,1,1.44,4.17,25.93,25.93,0,0,1,.62,9.07,20.52,20.52,0,0,1-3.07,8.6A12.47,12.47,0,0,1,1001.88,1194.69Z" transform="translate(-4 -4)"/><path class="cls-2" d="M823.15,637.69S664.87,806.63,749,864.88s97.23-175.82,97.23-175.82Z" transform="translate(-4 -4)"/><path class="cls-32" d="M844.49,710S834.1,819.86,801.7,859.73" transform="translate(-4 -4)"/><path class="cls-2" d="M875.59,1119.4c190.5-186.14,178.28-326.17,178.28-326.17s-15.78-46.31-39.84-83-74.43-5-74.43-5C932.12,721,915,778.38,913.55,811.93s-10.84,133.92-31.87,154.2-70.07,114.61-70.07,114.61Z" transform="translate(-4 -4)"/><path class="cls-32" d="M977.67,999.14s70.71-81.37,76.2-205.91" transform="translate(-4 -4)"/><path class="cls-2" d="M937.06,370.35l-80.75-76.92c-3.77-3.58-9.63-2.08-11.54,3C837.15,316.6,822.9,367,833.49,441.7,833.49,441.7,935.74,387.4,937.06,370.35Z" transform="translate(-4 -4)"/><g class="cls-33"><path class="cls-34" d="M839.81,288.81s8.75-.77,18.74,21.19S906.4,402,899,416.49,836.85,450.26,830,455s-15.83-20.73-15.83-20.73Z" transform="translate(-4 -4)"/></g><path class="cls-2" d="M1016.45,387.33l101-38c4.71-1.77,9.64,2,9.69,7.52.22,21.86-3.65,74.45-38.83,139.39C1088.29,496.2,1011.88,403.69,1016.45,387.33Z" transform="translate(-4 -4)"/><g class="cls-35"><path class="cls-34" d="M1134.3,351.8s-7.85-4.31-24.57,11.93-75.58,65.57-73.62,82.09S1082.26,502.76,1087,510s21.71-12.69,21.71-12.69Z" transform="translate(-4 -4)"/></g><path class="cls-2" d="M852.77,405.57s41.8-54.46,115.2-38.52c72.18,15.67,124.24,56.92,126.37,175.66s-88.18,118-184.54,97.38C810.73,618.89,738.84,542.21,852.77,405.57Z" transform="translate(-4 -4)"/><g class="cls-36"><path class="cls-30" d="M815.08,590.52s36.07-79.37,108.64-73.6c0,0,16.53.44,28-25.83,0,0-6,17.08,18.26,41.45s75.57,64.47,70.69,124.11c0,0-105.94,26.28-159.24-.62S815.08,590.52,815.08,590.52Z" transform="translate(-4 -4)"/><path class="cls-26" d="M955.34,349.19a117,117,0,0,0-23,71.88,1,1,0,0,0,2,0,115.74,115.74,0,0,1,13.86-57.25,106.7,106.7,0,0,1,8.82-13.62c.77-1-1-2-1.73-1Z" transform="translate(-4 -4)"/><path class="cls-26" d="M980.51,356.82a104.3,104.3,0,0,0-18.77,68.41c.1,1.28,2.1,1.29,2,0a103.13,103.13,0,0,1,10.55-54.36,95.33,95.33,0,0,1,7.94-13c.76-1-1-2-1.72-1Z" transform="translate(-4 -4)"/><path class="cls-26" d="M1009.86,363.43a104.22,104.22,0,0,0-16.41,50,105.86,105.86,0,0,0,.12,15.32c.1,1.27,2.11,1.28,2,0a104.28,104.28,0,0,1,8.91-51.43,97.59,97.59,0,0,1,7.11-12.91c.71-1.08-1-2.08-1.73-1Z" transform="translate(-4 -4)"/><path class="cls-26" d="M805.58,432.57c9.16,11.18,22.9,16.43,36.12,21.13,1.21.43,1.74-1.5.53-1.93-12.92-4.59-26.29-9.69-35.24-20.61-.82-1-2.22.43-1.41,1.41Z" transform="translate(-4 -4)"/><path class="cls-26" d="M798.63,461a56,56,0,0,0,31.78,15.73c1.27.17,1.26-1.83,0-2A53.82,53.82,0,0,1,800,459.58c-.92-.9-2.33.52-1.41,1.42Z" transform="translate(-4 -4)"/><path class="cls-26" d="M1068.79,501.64c14.5,4.24,29.69,2.18,44.36.1,1.27-.18.73-2.11-.53-1.93-14.31,2-29.16,4-43.3-.1a1,1,0,0,0-.53,1.93Z" transform="translate(-4 -4)"/><path class="cls-26" d="M1068.21,528.49a104.81,104.81,0,0,0,39,.34c1.27-.23.73-2.16-.53-1.93a102.12,102.12,0,0,1-37.94-.34c-1.26-.25-1.79,1.68-.53,1.93Z" transform="translate(-4 -4)"/></g><path class="cls-37" d="M1061.67,559.2s65-24.49,128.5,45.45" transform="translate(-4 -4)"/><path class="cls-37" d="M1058.21,579.3s68.66,1.29,106.87,90.85" transform="translate(-4 -4)"/><path class="cls-37" d="M833.25,510.34s-52-49.51-134.6-10.84" transform="translate(-4 -4)"/><path class="cls-37" d="M829.64,530.41S765.52,503.29,699.7,570.6" transform="translate(-4 -4)"/><path class="cls-38" d="M905,491.1s-5.69-28.93-39.78-38.23" transform="translate(-4 -4)"/><path class="cls-38" d="M901.83,498.65s-14.27-25.08-49.19-21.08" transform="translate(-4 -4)"/><path class="cls-38" d="M996.52,510.69s15.1-24.49,49.86-19.06" transform="translate(-4 -4)"/><path class="cls-38" d="M996.86,519s21.75-17.38,52.77.73" transform="translate(-4 -4)"/><path class="cls-39" d="M867.16,499.53s29.42-3.26,42.21,25" transform="translate(-4 -4)"/><path class="cls-39" d="M1028.51,531.85s-27.27-12.6-47,10.32" transform="translate(-4 -4)"/><line class="cls-40" x1="937.79" y1="541.83" x2="934.56" y2="560.18"/><path class="cls-41" d="M950.92,542.13l-13.37-3.38-5-1.27c-3.68-.92-5,1.15-2.91,4.63L936.17,553a6.25,6.25,0,0,0,9.38,1.93l8.13-6.35c3.08-2.41,2.59-5.14-1.09-6.07Z" transform="translate(-4 -4)"/><path class="cls-42" d="M925.41,569s-14.49,28.07,4.06,33.27,21.1-27.5,21.1-27.5-9.47-2.76-12-8.71C938.53,566.1,928.5,573.83,925.41,569Z" transform="translate(-4 -4)"/><path class="cls-43" d="M938.53,566.1s-9,15.79-7.45,27.06" transform="translate(-4 -4)"/><path class="cls-40" d="M915,554.83s3.89,23.13,23.33,10.56c0,0,14.24,18.53,25,5.35" transform="translate(-4 -4)"/><path class="cls-30" d="M916,627.66c-3-3.16-8.19-6.09-12.9-6.12-.27-.15-.53-.34-.8-.48a6.74,6.74,0,0,0-1.4-3.26c-29.66-38.87-97.59,10.38-79.28,55.48a7.31,7.31,0,0,0,1.83,2.67c-8.79,14.61,5.86,35.84,21.08,32.76,6.16-1.26,15.61-7.85,20.48-15.68a14.8,14.8,0,0,0,5.23,2.81c7,2.12,14.41-1,20.35-4.9,9.18-6.09,14.59-16.93,12.36-26.33,1.61-.36,3.79,0,5.27-.74,1.92.2,3.38-1.34,5.23-2.79,4.55-3.55,6.76-9.17,8.17-14.86C923.35,639.12,920.65,632.59,916,627.66Z" transform="translate(-4 -4)"/><path class="cls-31" d="M865,693c-3.36.5-6.83-1-9.59-3.31a24.45,24.45,0,0,1-6.47-8.76A42.63,42.63,0,0,1,847,675.8c-.43-1.78-.87-3.56-1.12-5.37s-.37-3.63-.41-5.44a52.11,52.11,0,0,1,.36-5.44c.71,1.69,1.21,3.37,1.73,5s1.13,3.28,1.59,4.92a88.12,88.12,0,0,0,3.62,9.28,36.38,36.38,0,0,0,4.88,8.18A22.47,22.47,0,0,0,865,693Z" transform="translate(-4 -4)"/><path class="cls-31" d="M902.91,664.61A31.73,31.73,0,0,0,895.77,651a48.87,48.87,0,0,0-5.41-5.12c-1-.79-2-1.56-3.05-2.42a32.67,32.67,0,0,1-3.19-2.55,24.89,24.89,0,0,1,4,.4A29.31,29.31,0,0,1,892,642.6a21.21,21.21,0,0,1,6.86,5,20,20,0,0,1,4.26,8A14.89,14.89,0,0,1,902.91,664.61Z" transform="translate(-4 -4)"/><path class="cls-44" d="M843.4,613.93s36.57-28.71,59.66,7.61c0,0,19.07.74,19,21.18,0,0-.18,18.48-17.15,22.32" transform="translate(-4 -4)"/><path class="cls-30" d="M877.25,1150.8c.4-4.57-.7-10.87-3.58-15-.06-.33-.09-.68-.15-1a6.73,6.73,0,0,0,1.46-3.23c9.47-49.71-67.58-78.3-88.5-34.6a8.23,8.23,0,0,0-.79,3.23c-15.84,1.39-22,27.19-10.39,38.49,4.7,4.58,15.22,8.71,23.82,8.11a18.55,18.55,0,0,0,1.22,6.28c2.79,7.37,9.56,11.92,16,14.64,10,4.21,21.09,2.22,26.43-5.51,1.26,1.18,2.32,3.3,3.77,4.12,1,1.79,3,2.11,5.22,2.82,5.35,1.76,10.72.21,15.65-2.07C873.62,1164.28,876.62,1157.9,877.25,1150.8Z" transform="translate(-4 -4)"/><path class="cls-31" d="M799.12,1146.84c-2.42-2.6-3.46-6.57-3.54-10.36a26.76,26.76,0,0,1,2.26-11,43.52,43.52,0,0,1,2.49-4.86,52.44,52.44,0,0,1,3.15-4.28c1.17-1.29,2.36-2.56,3.63-3.71a41.09,41.09,0,0,1,4.11-3c-.77,1.65-1.66,3.13-2.53,4.6s-1.65,3-2.54,4.41a85.85,85.85,0,0,0-4.39,8.87,38.16,38.16,0,0,0-2.83,9.28A26.72,26.72,0,0,0,799.12,1146.84Z" transform="translate(-4 -4)"/><path class="cls-31" d="M842.81,1162.25a32.69,32.69,0,0,0,5.34-14.6,56.38,56.38,0,0,0,.32-7.86c0-1.35-.14-2.72-.15-4.13a41,41,0,0,1-.15-4.35,28.89,28.89,0,0,1,2.2,3.74,35.28,35.28,0,0,1,1.43,4.17,25.63,25.63,0,0,1,.63,9.06,20.56,20.56,0,0,1-3.07,8.61A12.5,12.5,0,0,1,842.81,1162.25Z" transform="translate(-4 -4)"/><path class="cls-44" d="M903.38,668s1.57,12.87-12.83,23" transform="translate(-4 -4)"/><path class="cls-32" d="M939.6,705.21s13.33-27.56,42.65-38.9" transform="translate(-4 -4)"/><g class="cls-45"><path class="cls-26" d="M912.53,813.75c18.75-8.54,41-7.51,59.17,1.9a70.07,70.07,0,0,1,14.69,10.15c1,.86,2.37-.55,1.41-1.41a71.92,71.92,0,0,0-59.08-17.6,66.94,66.94,0,0,0-17.2,5.23c-1.17.53-.15,2.26,1,1.73Z" transform="translate(-4 -4)"/><path class="cls-26" d="M906.58,852.42A56.93,56.93,0,0,1,938,846.31c10.71.9,21,4.63,30.31,9.91a105.66,105.66,0,0,1,15.09,10.5c1,.82,2.41-.59,1.42-1.41-17.11-14.15-38.85-23.95-61.45-20.5a56,56,0,0,0-17.81,5.89c-1.14.6-.13,2.32,1,1.72Z" transform="translate(-4 -4)"/><path class="cls-26" d="M901.19,891.1c18.68-6.94,38.87-1.69,55.32,8.4a119.93,119.93,0,0,1,13.23,9.5c1,.81,2.42-.6,1.42-1.42-15.18-12.42-33.66-22.33-53.8-21.65a53,53,0,0,0-16.7,3.25c-1.2.44-.68,2.37.53,1.92Z" transform="translate(-4 -4)"/></g><g class="cls-46"><path class="cls-26" d="M758.05,691.1c4.29,18.35,15.32,35.2,31,45.82a64.41,64.41,0,0,0,13.6,7c1.2.46,1.72-1.48.53-1.92-16.9-6.33-30.32-20.15-37.94-36.32A75.66,75.66,0,0,1,760,690.57c-.3-1.26-2.23-.73-1.93.53Z" transform="translate(-4 -4)"/><path class="cls-26" d="M738.75,726.73A96.78,96.78,0,0,0,776.51,771,85.26,85.26,0,0,0,791,778c1.21.45,1.73-1.48.53-1.93-17.84-6.73-33-19.78-43.24-35.73a98.09,98.09,0,0,1-7.78-14.63c-.51-1.18-2.23-.17-1.73,1Z" transform="translate(-4 -4)"/><path class="cls-26" d="M720.93,745.25c6.45,20,19.79,37.85,37.76,48.88a76.41,76.41,0,0,0,15.42,7.25c1.22.41,1.75-1.52.53-1.93-19.16-6.51-35-21-44.76-38.56a90.67,90.67,0,0,1-7-16.18c-.39-1.22-2.32-.69-1.93.54Z" transform="translate(-4 -4)"/></g></g></svg>