<svg xmlns="http://www.w3.org/2000/svg" xmlns:xlink="http://www.w3.org/1999/xlink" viewBox="0 0 1102.15 768.67"><defs><style>.cls-1{isolation:isolate;}.cls-2{fill:url(#linear-gradient);}.cls-3{fill:url(#linear-gradient-2);}.cls-4{fill:url(#linear-gradient-3);}.cls-5{fill:url(#linear-gradient-4);}.cls-6,.cls-8{fill:#8cca0d;}.cls-7{fill:#3c9c14;}.cls-8{opacity:0.5;mix-blend-mode:multiply;}.cls-9{fill:url(#linear-gradient-5);}.cls-10{fill:url(#linear-gradient-6);}.cls-11{fill:url(#linear-gradient-7);}.cls-12{fill:url(#linear-gradient-8);}.cls-13{fill:url(#linear-gradient-9);}.cls-14{fill:url(#linear-gradient-10);}.cls-15{fill:url(#linear-gradient-11);}.cls-16{fill:url(#linear-gradient-12);}.cls-17{fill:url(#linear-gradient-13);}.cls-18{fill:url(#linear-gradient-14);}.cls-19{fill:url(#linear-gradient-15);}.cls-20{fill:url(#linear-gradient-16);}.cls-21{fill:url(#linear-gradient-17);}</style><linearGradient id="linear-gradient" x1="312.41" y1="457.88" x2="1236.97" y2="457.88" gradientTransform="translate(828.62 -440.39) rotate(62.85)" gradientUnits="userSpaceOnUse"><stop offset="0" stop-color="#39b54a"/><stop offset="1" stop-color="#8dc63f"/></linearGradient><linearGradient id="linear-gradient-2" x1="349.03" y1="457.88" x2="1200.35" y2="457.88" gradientTransform="translate(828.62 -440.39) rotate(62.85)" gradientUnits="userSpaceOnUse"><stop offset="0" stop-color="#006838"/><stop offset="1" stop-color="#009444"/></linearGradient><linearGradient id="linear-gradient-3" x1="410.38" y1="457.88" x2="1138.99" y2="457.88" gradientUnits="userSpaceOnUse"><stop offset="0" stop-color="#8dc63f"/><stop offset="1" stop-color="#a8ff3f"/></linearGradient><linearGradient id="linear-gradient-4" x1="517.58" y1="364.64" x2="762.16" y2="364.64" gradientTransform="matrix(1, 0, 0, 1, 0, 0)" xlink:href="#linear-gradient-2"/><linearGradient id="linear-gradient-5" x1="204.24" y1="539.43" x2="1123.18" y2="539.43" gradientTransform="translate(1025.47 -235.57) rotate(75.92)" xlink:href="#linear-gradient"/><linearGradient id="linear-gradient-6" x1="240.63" y1="539.43" x2="1086.8" y2="539.43" gradientTransform="translate(1025.47 -235.57) rotate(75.92)" xlink:href="#linear-gradient-2"/><linearGradient id="linear-gradient-7" x1="286" y1="539.43" x2="1041.42" y2="539.43" xlink:href="#linear-gradient-3"/><linearGradient id="linear-gradient-8" x1="541.42" y1="539.43" x2="786" y2="539.43" gradientTransform="matrix(1, 0, 0, 1, 0, 0)" xlink:href="#linear-gradient-2"/><linearGradient id="linear-gradient-9" x1="389.26" y1="481.5" x2="476.22" y2="481.5" gradientTransform="matrix(1, 0, 0, 1, 0, 0)" xlink:href="#linear-gradient-2"/><linearGradient id="linear-gradient-10" x1="846.46" y1="596.17" x2="933.42" y2="596.17" gradientTransform="matrix(1, 0, 0, 1, 0, 0)" xlink:href="#linear-gradient-2"/><linearGradient id="linear-gradient-11" x1="0" y1="559.53" x2="868.72" y2="559.53" gradientTransform="matrix(1, 0, 0, 1, 0, 0)" xlink:href="#linear-gradient"/><linearGradient id="linear-gradient-12" x1="34.33" y1="559.53" x2="834.39" y2="559.53" gradientTransform="matrix(1, 0, 0, 1, 0, 0)" xlink:href="#linear-gradient-2"/><linearGradient id="linear-gradient-13" x1="198.91" y1="652.76" x2="939.43" y2="652.76" xlink:href="#linear-gradient-3"/><linearGradient id="linear-gradient-14" x1="446.91" y1="652.76" x2="691.43" y2="652.76" gradientTransform="translate(624.37 -211.53) rotate(44.74)" xlink:href="#linear-gradient-2"/><linearGradient id="linear-gradient-15" x1="512.01" y1="650.25" x2="626.33" y2="650.25" gradientUnits="userSpaceOnUse"><stop offset="0" stop-color="#fff"/><stop offset="1" stop-color="#fff"/></linearGradient><linearGradient id="linear-gradient-16" x1="287.58" y1="652.76" x2="374.51" y2="652.76" gradientTransform="matrix(1, 0, 0, 1, 0, 0)" xlink:href="#linear-gradient-2"/><linearGradient id="linear-gradient-17" x1="758.94" y1="652.76" x2="845.87" y2="652.76" gradientTransform="matrix(1, 0, 0, 1, 0, 0)" xlink:href="#linear-gradient-2"/></defs><g class="cls-1"><g id="Layer_1" data-name="Layer 1"><rect class="cls-2" x="565.55" y="23.52" width="418.27" height="868.72" rx="56.81" transform="translate(-121.05 845.04) rotate(-62.85)"/><rect class="cls-3" x="599.88" y="57.85" width="349.61" height="800.06" rx="29.09" transform="translate(-121.05 845.04) rotate(-62.85)"/><path class="cls-4" d="M1069.31,694.76,1139,558.9a68.69,68.69,0,0,1-29.78-92.47L572.52,191.21A68.68,68.68,0,0,1,480.06,221L410.38,356.86a68.68,68.68,0,0,1,29.78,92.46L976.85,724.54A68.69,68.69,0,0,1,1069.31,694.76Z" transform="translate(-134.81 -93.23)"/><circle class="cls-5" cx="639.87" cy="364.64" r="122.26"/><path class="cls-6" d="M722.57,529.74l9.59-18.7c-15-8.43-28-19.57-34.44-28.34l18.65-19.52a101.8,101.8,0,0,0,33.42,28.07c13,6.67,24.12,6.9,28.15-1,3.84-7.48-1-15.94-15.39-29.52-20.77-19.6-32.37-38-22.58-57.07,8.88-17.31,30-23.64,56.5-15.26l9.59-18.7,22.35,11.47-8.88,17.31c15,8.43,23.83,16.45,29.74,23.46l-18,18.84c-4.82-5.2-13-15.11-29.41-23.53-14.82-7.6-22.44-4.55-25.27,1-3.33,6.5,2.54,14.72,18.69,31,22.91,22.19,28.3,38.63,19.22,56.34-9,17.51-31,25.1-59.27,15.59L744.92,541.2Z" transform="translate(-134.81 -93.23)"/><circle class="cls-7" cx="562.8" cy="349.22" r="43.47" transform="translate(-132.87 608.32) rotate(-63.96)"/><path class="cls-7" d="M1020.9,584.14A43.46,43.46,0,1,0,962.39,603,43.46,43.46,0,0,0,1020.9,584.14Z" transform="translate(-134.81 -93.23)"/><path class="cls-8" d="M359.6,480.05,977.19,796.76a75.13,75.13,0,0,0,107.49-50L1140.81,503a75.12,75.12,0,0,0-55.62-89.89l-633-152.39a75.12,75.12,0,0,0-84.43,38.75L327,378.92A75.13,75.13,0,0,0,359.6,480.05Z" transform="translate(-134.81 -93.23)"/><rect class="cls-6" x="454.57" y="105.07" width="418.27" height="868.72" rx="57.69" transform="translate(-155.78 958.74) rotate(-75.92)"/><rect class="cls-9" x="454.57" y="105.07" width="418.27" height="868.72" rx="59.7" transform="translate(-155.78 958.74) rotate(-75.92)"/><rect class="cls-10" x="488.9" y="139.4" width="349.61" height="800.06" rx="34.99" transform="translate(-155.78 958.74) rotate(-75.92)"/><path class="cls-11" d="M1004.28,703.55l37.14-148.1a68.69,68.69,0,0,1-49.92-83.34l-585-146.73a68.68,68.68,0,0,1-83.33,49.92L286,523.4a68.69,68.69,0,0,1,49.92,83.34l585,146.73A68.69,68.69,0,0,1,1004.28,703.55Z" transform="translate(-134.81 -93.23)"/><path class="cls-12" d="M782.73,567.42a122.26,122.26,0,0,0-90.31-146.84c-65.6-15.86-132.25,25.16-147.72,90.85A122.25,122.25,0,0,0,635,658.27C700.6,674.13,767.25,633.11,782.73,567.42Z" transform="translate(-134.81 -93.23)"/><path class="cls-6" d="M629.19,621.21l5.11-20.38C617.81,596,602.62,588.09,594.35,581l13.76-23.22A101.88,101.88,0,0,0,647,577.57c14.17,3.55,25,1.26,27.2-7.32,2-8.15-4.62-15.29-21.67-25.27-24.66-14.39-40.12-29.67-34.9-50.48,4.73-18.88,23.86-29.81,51.59-27.65l5.11-20.38,24.36,6.11L694,471.46c16.49,4.82,26.93,10.63,34.27,16.12L715,510c-5.87-4-16.07-11.78-34-16.27-16.16-4.05-22.89.65-24.39,6.65-1.78,7.08,5.79,13.77,25.21,25.93,27.32,16.43,36.29,31.23,31.45,50.53-4.79,19.09-24.54,31.47-54.2,28.59l-5.49,21.88Z" transform="translate(-134.81 -93.23)"/><path class="cls-13" d="M474.29,494.26a43.47,43.47,0,1,0-49.92,29.89A43.47,43.47,0,0,0,474.29,494.26Z" transform="translate(-134.81 -93.23)"/><path class="cls-14" d="M931.49,608.92a43.47,43.47,0,1,0-49.92,29.9A43.47,43.47,0,0,0,931.49,608.92Z" transform="translate(-134.81 -93.23)"/><path class="cls-8" d="M255.32,652.61l681,170.79a65.77,65.77,0,0,0,81.77-63.79V496.28a65.77,65.77,0,0,0-65.77-65.77H294.53a65.77,65.77,0,0,0-63.8,49.77l-23.21,92.54A65.77,65.77,0,0,0,255.32,652.61Z" transform="translate(-134.81 -93.23)"/><rect class="cls-6" y="350.39" width="868.72" height="418.27" rx="65.78"/><rect class="cls-15" y="350.39" width="868.72" height="418.27" rx="62.78"/><rect class="cls-16" x="34.33" y="384.72" width="800.06" height="349.61" rx="38.96"/><path class="cls-17" d="M939.43,729.11V576.42a68.69,68.69,0,0,1-68.69-68.69H267.6a68.69,68.69,0,0,1-68.69,68.69V729.11A68.69,68.69,0,0,1,267.6,797.8H870.74A68.69,68.69,0,0,1,939.43,729.11Z" transform="translate(-134.81 -93.23)"/><ellipse class="cls-18" cx="569.17" cy="652.76" rx="122.25" ry="122.28" transform="translate(-429.4 496.51) rotate(-44.74)"/><path class="cls-19" d="M555.59,740.49v-21c-17.18-.67-33.84-4.65-43.58-9.51l7.69-25.88a101.76,101.76,0,0,0,42.55,9.73c14.61,0,24.61-4.86,24.61-13.71,0-8.4-8.21-13.71-27.17-19.24-27.43-8-46.14-19-46.14-40.48,0-19.46,15.89-34.72,43.32-39.36V560H582v19.46c17.17.66,28.7,3.76,37.16,7.3l-7.43,25c-6.67-2.43-18.46-7.52-36.91-7.52-16.66,0-22,6.19-22,12.39,0,7.29,9,11.94,30.75,19,30.51,9.29,42.81,21.46,42.81,41.36,0,19.69-16.15,36.5-45.62,40.92v22.56Z" transform="translate(-134.81 -93.23)"/><path class="cls-20" d="M374.46,655a43.47,43.47,0,1,0-41.16,41.14A43.48,43.48,0,0,0,374.46,655Z" transform="translate(-134.81 -93.23)"/><path class="cls-21" d="M845.82,655a43.47,43.47,0,1,0-41.15,41.14A43.49,43.49,0,0,0,845.82,655Z" transform="translate(-134.81 -93.23)"/></g></g></svg>