<svg id="Layer_1" data-name="Layer 1" xmlns="http://www.w3.org/2000/svg" xmlns:xlink="http://www.w3.org/1999/xlink" viewBox="0 0 1528.49 2003.51"><defs><style>.cls-1{fill:url(#linear-gradient);}.cls-2{fill:url(#linear-gradient-2);}.cls-3,.cls-4{stroke:#bcbec0;stroke-miterlimit:10;fill-rule:evenodd;}.cls-3{fill:url(#linear-gradient-3);}.cls-4{fill:url(#linear-gradient-4);}</style><linearGradient id="linear-gradient" x1="1944.62" y1="1693.73" x2="2554.58" y2="1693.73" gradientUnits="userSpaceOnUse"><stop offset="0" stop-color="#d1d3d4"/><stop offset="1" stop-color="#939598"/></linearGradient><linearGradient id="linear-gradient-2" x1="2347.57" y1="1837.51" x2="2954.41" y2="1837.51" xlink:href="#linear-gradient"/><linearGradient id="linear-gradient-3" x1="3215.78" y1="1036.59" x2="1688.3" y2="1036.59" xlink:href="#linear-gradient"/><linearGradient id="linear-gradient-4" x1="3086.44" y1="3742.33" x2="1558.95" y2="3742.33" gradientTransform="translate(4774.74 6260.91) rotate(180)" xlink:href="#linear-gradient"/></defs><path class="cls-1" d="M2422.05,1205.85,1947.9,2154.13a30.72,30.72,0,0,0,27.47,44.45h148.69a30.72,30.72,0,0,0,27.48-17L2551.33,1382a30.69,30.69,0,0,0,0-27.48L2477,1205.85C2465.67,1183.21,2433.36,1183.21,2422.05,1205.85Z" transform="translate(-1687.8 -775.83)"/><path class="cls-2" d="M2923.66,2198.58a30.72,30.72,0,0,0,27.47-44.45L2721,1693.81h0l-108.68-217.36h0L2503.6,1693.81h0l-152.75,305.51a30.72,30.72,0,0,0,27.47,44.45H2527a30.71,30.71,0,0,0,27.47-17l30.34-60.66c11.31-22.64,43.62-22.64,54.94,0L2747.5,2181.6a30.71,30.71,0,0,0,27.47,17Z" transform="translate(-1687.8 -775.83)"/><path class="cls-3" d="M2356.23,776.33h182.3a9.85,9.85,0,0,1,9.83,9.17q4.51,65.73,30.15,96.69c18.19,22.06,45.87,37.89,82.78,47.23,36.64,9.35,94.18,14,172.07,14h27.15q131.09,0,189.17,14.79c38.54,9.86,70.56,27,95.8,51.37s43.16,54.49,54,90.57c10.86,35.8,16.29,88,16.29,155.68V1287a9.86,9.86,0,0,1-9.86,9.86H3034.84A9.87,9.87,0,0,1,3025,1287h0c0-42-2.7-72.66-7.86-91.86-5.43-19.2-15.48-33.47-30.67-42.29s-68.39-13.76-159.86-14.27q-137.19-1.17-195.14-13.76c-38.82-8.3-71.39-21-98.25-38.14q-36.15-22.7-73-75.26a9.85,9.85,0,0,0-16.33.3c-12.83,19.79-26.84,36.56-42.35,50.31-18.45,16.86-40.44,30.62-65.68,41.51a337.33,337.33,0,0,1-74.09,23.1c-24.42,4.67-74.64,8-150.36,10.64s-115.35,3.89-118.6,3.89c-31.22,0-54.83,3.89-71.11,12.19-16,8.05-27.14,21-33.39,39.18-6,17.91-9.23,49-9.23,92.9V1287a9.86,9.86,0,0,1-9.86,9.86H1698.16a9.86,9.86,0,0,1-9.86-9.86v-31.14q0-133.5,33.38-195.39c22.25-41,53.19-70.84,92.28-89.26q59-27.65,229.06-27.76h27.69q107.48,0,153.62-9.35c30.67-6.49,56.18-17.13,76.8-32.43,20.36-15.31,34.47-31.66,42.07-49s11.94-43.07,13-76.28Z" transform="translate(-1687.8 -775.83)"/><path class="cls-4" d="M2547.85,2778.84h-182.3a9.85,9.85,0,0,1-9.83-9.17c-3-43.82-13.14-76.06-30.15-96.7-18.19-22.06-45.88-37.88-82.78-47.22-36.64-9.35-94.19-14-172.08-14h-27.14q-131.08,0-189.17-14.79c-38.54-9.86-70.57-27-95.8-51.38s-43.16-54.49-54-90.56c-10.86-35.81-16.29-88-16.29-155.69v-31.13a9.85,9.85,0,0,1,9.86-9.86h171.08a9.85,9.85,0,0,1,9.86,9.86h0c0,42,2.71,72.65,7.87,91.85,5.42,19.21,15.47,33.48,30.67,42.3s68.39,13.75,159.85,14.27q137.21,1.17,195.15,13.75c38.81,8.31,71.38,21,98.25,38.15q36.15,22.68,73,75.26a9.85,9.85,0,0,0,16.33-.31c12.83-19.79,26.84-36.56,42.34-50.3,18.45-16.87,40.44-30.62,65.68-41.52a338.07,338.07,0,0,1,74.1-23.09c24.42-4.67,74.64-8.05,150.36-10.64S2908,2414,2911.26,2414c31.22,0,54.83-3.9,71.11-12.2,16-8,27.14-21,33.38-39.18,6-17.9,9.23-49.05,9.23-92.89v-1.56a9.86,9.86,0,0,1,9.86-9.86h171.08a9.85,9.85,0,0,1,9.86,9.86v31.14q0,133.5-33.38,195.38c-22.26,41-53.2,70.84-92.28,89.27q-59,27.63-229.07,27.76h-27.68c-71.65,0-122.95,3.12-153.62,9.35-30.67,6.48-56.18,17.12-76.8,32.43-20.36,15.31-34.48,31.66-42.08,49s-11.94,43.07-13,76.29Z" transform="translate(-1687.8 -775.83)"/></svg>