<svg id="Layer_1" data-name="Layer 1" xmlns="http://www.w3.org/2000/svg" xmlns:xlink="http://www.w3.org/1999/xlink" viewBox="0 0 1500 1500"><defs><style>.cls-1{fill:#fff;}.cls-2{fill:#ffeab7;}.cls-3{fill:url(#ƒðàä_íò_áåç_íàçâè_61);}.cls-4{fill:none;}.cls-5{fill:#f7ac48;}.cls-6{fill:url(#linear-gradient);}.cls-7{fill:#f89338;}.cls-8{fill:url(#linear-gradient-2);}.cls-9{fill:url(#linear-gradient-3);}</style><linearGradient id="ƒðàä_íò_áåç_íàçâè_61" x1="755.94" y1="1335.19" x2="755.94" y2="1437.12" gradientTransform="translate(-38.46 -32.29) rotate(-3.88)" gradientUnits="userSpaceOnUse"><stop offset="0" stop-color="#6f310e"/><stop offset="0.36" stop-color="#87441e"/><stop offset="0.72" stop-color="#97522a"/><stop offset="1" stop-color="#9d572e"/></linearGradient><linearGradient id="linear-gradient" x1="826.87" y1="44.72" x2="826.87" y2="979.6" gradientTransform="translate(128.61 91.09) rotate(12.08)" gradientUnits="userSpaceOnUse"><stop offset="0" stop-color="#ffcc52"/><stop offset="1" stop-color="#ff9337"/></linearGradient><linearGradient id="linear-gradient-2" x1="304.32" y1="1183.28" x2="1298.95" y2="1183.28" gradientTransform="matrix(1, 0, 0, 1, 0, 0)" xlink:href="#linear-gradient"/><linearGradient id="linear-gradient-3" x1="904.68" y1="494.88" x2="1301.52" y2="494.88" gradientUnits="userSpaceOnUse"><stop offset="0" stop-color="red"/><stop offset="1" stop-color="#ff9337"/></linearGradient></defs><g id="Layer_1-2" data-name="Layer 1"><rect class="cls-1" width="1500" height="1500" rx="336.29"/></g><path class="cls-2" d="M348.47,325.45A516.53,516.53,0,0,0,254.72,526a32.66,32.66,0,0,0,63.71,14.43A454.85,454.85,0,0,1,542.22,242.64a32.62,32.62,0,1,0-31.74-57,523.4,523.4,0,0,0-162,139.8Z"/><path class="cls-2" d="M368.41,187a607.56,607.56,0,0,1,101-70.86,32.61,32.61,0,1,0-31.93-56.87A669.93,669.93,0,0,0,231.46,238,661.25,661.25,0,0,0,112.21,493.76a32.66,32.66,0,0,0,63.71,14.42A596.59,596.59,0,0,1,283.48,277.45,603.07,603.07,0,0,1,368.41,187Z"/><ellipse class="cls-3" cx="802.98" cy="1203.04" rx="173.24" ry="172.9"/><path class="cls-4" d="M575.77,758.89q-2.91-2.79-5.76-5.64C571.9,755.15,573.83,757,575.77,758.89Z"/><path class="cls-5" d="M828.73,284.75a87.9,87.9,0,0,0-175.37,11.86,349.32,349.32,0,0,1,175.37-11.86Z"/><path class="cls-6" d="M1224.79,1085.13a446.7,446.7,0,0,1-42.9-124q-1.17-6.17-2.15-12.37-3.24-20.19-4.64-40.78l-6.86-101.07-2.62-38.58-4.95-72.85c-.07-1-.14-2.06-.21-3.07-.13-1.61-.25-3.21-.39-4.81-.18-2.29-.39-4.59-.61-6.87-.09-.88-.17-1.76-.26-2.64l-.3-2.88c-.1-1-.21-1.92-.32-2.88-.22-1.92-.45-3.84-.69-5.74-.11-1-.24-1.91-.36-2.87s-.25-1.91-.38-2.86-.26-1.9-.4-2.85l-.42-2.86c-.14-.91-.27-1.83-.41-2.74s-.31-2-.46-2.95c-.23-1.38-.45-2.77-.69-4.15-.19-1.14-.38-2.27-.58-3.4-.08-.42-.15-.84-.23-1.25q-.32-1.82-.66-3.63c-.21-1.14-.42-2.29-.65-3.43l-.15-.8c-.26-1.34-.53-2.68-.8-4s-.56-2.74-.85-4.1c-.34-1.63-.7-3.24-1.06-4.85q-.76-3.45-1.58-6.88-1.89-7.87-4-15.65c-.17-.64-.35-1.28-.53-1.92-.5-1.79-1-3.59-1.53-5.38-.25-.89-.52-1.78-.78-2.68-.39-1.32-.79-2.65-1.19-4-.3-1-.58-1.9-.89-2.85-.4-1.28-.81-2.57-1.22-3.85-.16-.5-.32-1-.5-1.53-.25-.79-.51-1.59-.78-2.38-.47-1.44-1-2.88-1.45-4.31-.36-1.07-.72-2.13-1.1-3.19l-.63-1.79q-.93-2.64-1.89-5.25l-.87-2.36c-.71-1.91-1.44-3.8-2.17-5.69l-.92-2.37q-1-2.6-2.08-5.17-.47-1.17-1-2.34c-.52-1.28-1.06-2.57-1.61-3.85-.34-.82-.69-1.63-1-2.45q-2.55-5.94-5.27-11.82c-23.88-51.63-56-97.14-95.5-135.26-38.77-37.42-82.62-65.78-130.36-84.28a355.21,355.21,0,0,0-62.2-17.85,349.32,349.32,0,0,0-175.37,11.86,355,355,0,0,0-59.23,26.06c-44.79,24.75-84.42,58.76-117.78,101.06a435.59,435.59,0,0,0-39.62,59.82A459,459,0,0,0,400,570.61a484.6,484.6,0,0,0-21.11,131.33q-.54,23,1,46.31l4.94,72.85,9.48,139.65q1.39,20.57.92,41-.15,6.27-.47,12.54A446.86,446.86,0,0,1,369.08,1143c-10.44,29,12.58,59,43.33,57l777.14-52.54C1220.31,1145.33,1239.05,1112.42,1224.79,1085.13ZM570,753.25q2.85,2.85,5.76,5.64C573.83,757,571.9,755.15,570,753.25ZM885.75,889.93c2.77.1,5.55.16,8.34.2C891.3,890.09,888.52,890,885.75,889.93Z"/><polygon class="cls-7" points="1168.24 806.89 1157.93 655.03 956.85 628.71 1168.24 806.89"/><path class="cls-1" d="M894.09,890.13c-2.79,0-5.57-.1-8.34-.2C888.52,890,891.3,890.09,894.09,890.13Z"/><path class="cls-8" d="M1236,1221.39l-859.7,58.13a67.41,67.41,0,0,1-71.86-62.62h0a67.36,67.36,0,0,1,62.75-71.72l859.69-58.13a67.41,67.41,0,0,1,71.87,62.62h0A67.36,67.36,0,0,1,1236,1221.39Z"/><ellipse class="cls-9" cx="1103.1" cy="494.88" rx="198.42" ry="198.03"/><path class="cls-1" d="M1111.22,539.23l-12.26.83c-9.68.65-18.2-5.23-19.66-13.57l-25.57-145.85c-1.66-9.51,6.42-18.36,17.45-19.1l49-3.32c11.27-.76,20.58,7.27,19.84,17.12l-11.16,148.33C1128.23,531.92,1120.67,538.59,1111.22,539.23Z"/><ellipse class="cls-1" cx="1110.02" cy="596.85" rx="33.29" ry="33.22"/></svg>