<svg id="Layer_1" data-name="Layer 1" xmlns="http://www.w3.org/2000/svg" xmlns:xlink="http://www.w3.org/1999/xlink" viewBox="0 0 1500 1500"><defs><style>.cls-1{fill:#fff;}.cls-2{fill:url(#linear-gradient);}</style><linearGradient id="linear-gradient" x1="130.35" y1="750" x2="1369.65" y2="750" gradientUnits="userSpaceOnUse"><stop offset="0" stop-color="red"/><stop offset="1" stop-color="#fbb03b"/></linearGradient></defs><g id="Layer_1-2" data-name="Layer 1"><rect class="cls-1" width="1500" height="1500" rx="336.29"/></g><path class="cls-2" d="M1290.18,628c43.89,0,79.47-35.74,79.47-79.83s-35.58-79.82-79.47-79.82H1087.64l36.78-209.52c7.62-43.42-21.24-84.82-64.46-92.48a79.51,79.51,0,0,0-92.07,64.76L926.24,468.36H672.64l36.78-209.52C717,215.42,688.18,174,645,166.36a79.5,79.5,0,0,0-92.06,64.76L511.24,468.36H269.11c-43.9,0-79.48,35.74-79.48,79.82S225.21,628,269.11,628H483.22l-45.15,257.2H209.82c-43.89,0-79.47,35.74-79.47,79.82s35.58,79.83,79.47,79.83H410l-34.46,196.3C368,1284.58,396.82,1326,440,1333.64a79.34,79.34,0,0,0,92.07-64.76l39.33-224H825l-34.46,196.3c-7.62,43.42,21.24,84.82,64.47,92.48a79.33,79.33,0,0,0,92.06-64.76l39.33-224h244.45c43.9,0,79.48-35.74,79.48-79.83s-35.58-79.82-79.48-79.82H1014.46L1059.61,628ZM853.07,885.21H599.46L644.61,628H898.22Z"/></svg>