<svg xmlns="http://www.w3.org/2000/svg" viewBox="0 0 1500 1500"><defs><style>.cls-1{fill:#fff;}.cls-2{fill:#d58b53;}.cls-3{fill:#e2a56d;}.cls-4{fill:#ebc59a;}.cls-5{fill:#ffeed9;}.cls-6{fill:#dfa262;}.cls-7{fill:#c97940;}.cls-8{fill:#fdd4a9;}</style></defs><g id="ƒŒƒCƒ__6" data-name="ƒŒƒCƒ„[_6"><rect class="cls-1" width="1500" height="1500" rx="418.14"/><path class="cls-2" d="M1063.74,535.1c-23.1-50.89-361.17-260.91-420.37-286.26-55.22-23.66-138.13-18.89-158.56,2.27-52.95-24.77-228.64-11.92-274.65,61.38-41.82,0-81.17,27.66-76.83,78.43C151.3,524.65,174,750.83,174,817.62c0,17,265.17,308.28,288.13,326.66C464.12,1145.89,1063.31,539.75,1063.74,535.1Z" transform="translate(-4 -4)"/><path class="cls-3" d="M411,666.38c-18.83-66-88.11-71.49-149.73-146.57C228.94,480.42,155,488.25,159.37,526.7c12.77,113,24.38,226.53,24.38,272.43,0,15.64,244.2,283.86,265.33,300.79C451,1101.4,429.8,732.41,411,666.38Z" transform="translate(-4 -4)"/><path class="cls-4" d="M421.51,786.82C418,757.33,411.84,691.59,411,679c-3.37-48.89-55.13-142.58-138.29-208.22-40.84-32.24-126.13-66-122.14-19.26,4.2,31.31,10.82,95.06,15.17,133.54C165.72,470.78,364.29,565.79,421.51,786.82Z" transform="translate(-4 -4)"/><path class="cls-5" d="M1029,1061c3.9,31.28-36.58,61.59-59.67,60-82.94-5.88-386,15.6-451.78,29.21-29.44,6.09-62.78-19.2-57.82-50.72,10.77-66.22-39-441.18-39-441.18-3.71-45.48,32-91.33,73.12-95.1,0,0,98.94-101.21,312-59.47,116.33-45.18,254-7.14,250,68.06C1055.8,571.71,1018,975.85,1029,1061Z" transform="translate(-4 -4)"/><path class="cls-2" d="M508.57,1165.08a68.72,68.72,0,0,1-48.67-20.87c-12.68-13.21-18.19-29.83-15.52-46.79,8.29-51-21.94-308.48-39.08-437.52-4.22-51.57,33.86-102,81.06-110,17.39-15.46,88.48-70.41,220.12-70.41a532.63,532.63,0,0,1,97.8,9.49,309.31,309.31,0,0,1,106.07-18.84c56.51,0,107.24,16.14,135.71,43.18,17.68,16.79,26.4,37.21,25.24,59-.41,4.54-37.57,404.21-26.86,486.95,2.12,17-5.08,34.78-20.25,50.14-16.26,16.47-38.78,26.64-56.06,25.44-8.92-.63-21-1-35.85-1-117.8,0-356.41,18.51-411.25,29.85a62.19,62.19,0,0,1-12.46,1.27ZM706.48,507.6c-135.16,0-200.42,64.22-201.06,64.86l-4,4-6,.59c-32.93,3-62.26,42.68-59.21,80.09,2,14.74,49.87,377,38.92,444.25-1.85,11.78,4.37,20.32,8.24,24.36,8.12,8.47,20.42,12.77,30.78,10.63,60.75-12.57,307-30.56,418.16-30.56,15.68,0,28.55.35,38.27,1h.05c7.37,0,20.1-5.67,30.45-16.15,9.07-9.19,13.65-19.47,12.55-28.22-11.06-85.48,25.19-475.46,26.74-492,.72-13.66-4.9-26.55-16.75-37.8-22.73-21.58-65.06-34.47-113.24-34.47a274.61,274.61,0,0,0-98.43,18.3l-4.56,1.77-4.84-1a502.32,502.32,0,0,0-96-9.77Z" transform="translate(-4 -4)"/><path class="cls-6" d="M512.42,1163.86c-18.27,1.15-37.07-6.17-50.33-19.58-12.83-12.92-18.76-30-16.14-46.8,8.1-51-22.64-303.64-40.61-437.36-4.34-50.77,33.58-100.62,80.92-109,16-14.19,74.43-58.87,180.63-68.88,44-4.14,90.82-1.63,139,7.51a311.17,311.17,0,0,1,78-17.49c107-10,191,34,187.41,98.11-.43,4.65-38.92,404.57-28.46,487.49,1.88,15.47-4.18,32.13-17,46.8-16,18.43-40.68,30.94-58.93,29.6-35.26-2.56-116.79-.17-218,6.36-103.44,6.64-197.41,15.8-228.42,22.22a57.82,57.82,0,0,1-8.05,1.07Zm155.19-655.5c-109.8,10.23-161.2,62-161.72,62.52a17.94,17.94,0,0,1-11.23,5.19c-32.5,3-61.5,43-58.52,80.8,2,15.41,37.38,354.34,37.38,444.45,0,12.51,4.68,21.23,8.83,25.43,8.51,8.64,21.25,13,32.33,10.7,38-7.85,144.88-17.31,233.9-23.16,103.08-6.78,186.54-9.3,223.2-6.72,8.13.72,23.05-6.36,33.84-18.81,5.07-5.82,10.86-14.79,9.6-24.61-11.35-85.4,23.54-474.39,25.1-491.54,2.39-48-69.44-82-156.86-73.92a267.69,267.69,0,0,0-72.4,16.89,19,19,0,0,1-10.55,1c-46.36-9.36-91.14-12.1-132.9-8.21Z" transform="translate(-4 -4)"/><path class="cls-7" d="M527.26,283.6c61,26.76,115,68.16,168.32,105.81,22.48,15.87,44.46,32.32,66.07,49.14,6.3,4.9,13.45,8.15,20.5,12,2,1.11,10.53,5.78,8.28,3.92,3.78,3.12,9.42-2,5.62-5.09-6.38-5.26-14.34-18.53-22.93-25.21q-33.07-25.74-67.53-50C652,336.31,592.94,301.66,527.67,282.71c-.57-.16-1,.65-.41.89Z" transform="translate(-4 -4)"/><path class="cls-7" d="M236,330.71C297.46,364.29,352.18,408.45,402,455.12c17.26,16.16,33.66,33.11,49.25,50.61,5.69,6.39,17.28,13.25,21.51,18.71,2.32,3,7.79.14,5.44-2.88-3.83-4.95-8.49-15.82-13.06-22.28-13.1-18.5-32.3-35.11-48.89-51C364.68,398.9,305,358.24,236.39,330c-.48-.2-.9.4-.42.67Z" transform="translate(-4 -4)"/><path class="cls-8" d="M953,671c-6.32,3.9-22-1.17-23.7-15.81-1-8.7,6.49-24.39,22-16.62C960.32,643.16,967,662.34,953,671Z" transform="translate(-4 -4)"/><path class="cls-8" d="M951.4,1055.78c-7.37,4.2-24-5-24.2-24.6-.09-11.72,9.8-31.3,25.86-18.6C962.54,1020,967.7,1046.48,951.4,1055.78Z" transform="translate(-4 -4)"/><path class="cls-8" d="M794.57,599.34c-4.79,1.76-13.44-5.17-11.29-16.7,1.27-6.88,9.35-17.41,17.27-8.45C805.24,579.47,805.2,595.43,794.57,599.34Z" transform="translate(-4 -4)"/><path class="cls-8" d="M559.49,952.17c8.81-4.61,29.07,3.51,29.71,23.16.39,11.68-11.25,31.81-30.92,20.08C546.63,988.52,539.88,962.41,559.49,952.17Z" transform="translate(-4 -4)"/><path class="cls-8" d="M555.42,895.25c5.65-3.81,20.48-1.23,22.77,10.45,1.4,7-4.72,20.44-19.49,15.69C550,918.6,542.84,903.67,555.42,895.25Z" transform="translate(-4 -4)"/><path class="cls-8" d="M885.82,964.3c5.86-3.57,20.56-.36,22.23,11.41,1,7-5.79,20.21-20.28,14.84C879.19,987.37,872.83,972.17,885.82,964.3Z" transform="translate(-4 -4)"/><path class="cls-8" d="M922.8,721.19c5.84-3.55,20.53-.35,22.19,11.43,1,7-5.78,20.22-20.27,14.82C916.14,744.28,909.79,729.08,922.8,721.19Z" transform="translate(-4 -4)"/><path class="cls-8" d="M839.7,1030.85c4.18-2.56,14.7-.25,15.91,8.17.73,5-4.15,14.49-14.51,10.62C834.94,1047.39,830.39,1036.5,839.7,1030.85Z" transform="translate(-4 -4)"/><path class="cls-2" d="M1367.81,650.64c-25.31-50-130.21-124.95-236.65-111.1a309.38,309.38,0,0,0-77.24,20.26c-48.49-7.41-95.36-8.24-139.18-2.55-105.68,13.8-162.1,60.54-177.47,75.28-46.93,10.11-82.67,61.29-76.1,111.85,23.77,133,61.72,389.37,64.63,456.1.73,17,43.64,62.8,67.37,80.32C795.27,1282.36,1367.6,655.3,1367.81,650.64Z" transform="translate(-4 -4)"/><path class="cls-5" d="M1356,1177.33c5.25,31.13-33.88,62.87-57,62-83.16-2.91-385,29.37-450.17,45.33-29.16,7.14-63.57-17-60-48.63,7.88-66.55-58.24-439.42-58.24-439.42-5.68-45.33,28-92.42,68.94-97.65,0,0,94.45-104.67,309.12-70.56,114.29-49.3,253.48-16.2,252.79,59.08C1361.48,687.51,1341.32,1092.68,1356,1177.33Z" transform="translate(-4 -4)"/><path class="cls-2" d="M838.24,1300a69.51,69.51,0,0,1-48.16-20c-12.61-12.63-18.52-28.73-16.65-45.32,6.07-51.23-35.36-307.44-58.12-435.77-6.46-51.38,29.41-103.14,76.22-112.8,17.41-16.76,91.26-78.51,233.94-78.51a546.69,546.69,0,0,1,81.07,6.3,306.45,306.45,0,0,1,115.79-22.8c53.84,0,100.61,14.51,128.33,39.81,17.43,15.9,26.53,35.53,26.34,56.77-.22,4.55-19.94,405.22-5.63,487.51,2.94,17.47-3.91,36-19.29,52.2-15,15.84-35.5,26.08-52.13,26.08l-1.54,0c-3.34-.11-7.1-.17-11.19-.17-95.75,0-374.2,30.31-434.3,45a61.74,61.74,0,0,1-14.67,1.75Zm187.23-664.36c-146,0-213.25,71.55-213.92,72.27l-3.83,4.18-6,.8c-32.78,4.19-60.36,44.89-55.69,82.16,2.62,14.66,66.26,374.87,58.25,442.51-1,8.51,2.17,16.9,8.81,23.56,8.44,8.45,21.26,12.58,31.71,10,63-15.44,342.52-46,442.4-46,4.54,0,8.69.06,12.42.2h0c6.76,0,19.21-6.1,28.88-16.29,9.26-9.76,13.69-20.55,12.17-29.59-14.79-85,4.44-476,5.27-492.57.11-13.26-5.72-25.63-17.35-36.24-21.61-19.73-61.35-31.51-106.29-31.51a272.08,272.08,0,0,0-107,22L1110.9,643l-4.89-.78a516.06,516.06,0,0,0-80.54-6.62Z" transform="translate(-4 -4)"/><path class="cls-6" d="M844.31,1298.58c-18.2,1.84-37.3-4.83-51.14-17.78-13.39-12.42-20-29.27-18.15-46.17,5.85-51.21-35.85-302.59-59.65-435.56-6.55-50.57,29.16-101.74,76.11-111.85C806.84,672.47,863.28,625.74,969,612c43.79-5.71,90.68-4.87,139.18,2.54a308.75,308.75,0,0,1,77.23-20.27c106.44-13.85,192.37,27.11,191.52,91.35-.21,4.65-21.24,405.66-7.18,488.11,2.55,15.39-2.8,32.26-14.94,47.38-15.21,19-39.32,32.37-57.59,31.68-35.37-1.29-116.73,4-217.59,14.13-103.09,10.34-196.59,22.85-227.29,30.37a54.31,54.31,0,0,1-8,1.34ZM970.82,638.07C861.56,652.21,812.45,705.78,812,706.31a17.84,17.84,0,0,1-11,5.58c-32.37,4.14-59.59,45.16-55,82.83,2.66,15.33,52.78,352.71,56.72,442.77.55,12.51,5.61,21.07,9.95,25.1,8.86,8.31,21.79,12.29,32.76,9.55,37.64-9.22,144-22.47,232.7-31.5,102.7-10.45,186-16,222.75-14.7,8.13.44,22.74-7.16,33-20,4.82-6,10.21-15.17,8.51-24.93-15-84.93,2.86-474.86,3.65-492,.3-48-73-79.48-159.94-68.28a266.69,266.69,0,0,0-71.61,19.48,18.78,18.78,0,0,1-10.51,1.36c-46.71-7.7-91.59-8.83-133.14-3.45Z" transform="translate(-4 -4)"/><path class="cls-8" d="M1002.67,712.54c-6.14,4.12-22-.37-24.37-14.94-1.36-8.68,5.43-24.62,21.23-17.39C1008.83,684.45,1016.33,703.38,1002.67,712.54Z" transform="translate(-4 -4)"/><path class="cls-8" d="M989.51,1188.8c-7.17,4.47-24.14-4.09-25.22-23.73-.63-11.69,8.41-31.63,25-19.5C999.1,1152.7,1005.4,1179,989.51,1188.8Z" transform="translate(-4 -4)"/><path class="cls-8" d="M1271.06,773.2c-4.72,1.93-13.69-4.68-12-16.28,1-6.93,8.62-17.75,16.89-9.08C1280.85,753,1281.49,768.92,1271.06,773.2Z" transform="translate(-4 -4)"/><path class="cls-8" d="M1257.37,1143.94c8.87-4.55,29.06,3.74,29.54,23.38.25,11.69-11.55,31.71-31.1,19.86C1244.21,1180.21,1237.69,1154,1257.37,1143.94Z" transform="translate(-4 -4)"/><path class="cls-8" d="M1253.79,1087c5.69-3.76,20.51-1.1,22.7,10.61,1.33,7-4.88,20.41-19.61,15.56C1248.17,1110.32,1241.14,1095.34,1253.79,1087Z" transform="translate(-4 -4)"/><path class="cls-8" d="M920,1099.73c5.7-3.76,20.52-1.1,22.7,10.61,1.34,7-4.91,20.41-19.62,15.56C914.38,1123,907.38,1108.07,920,1099.73Z" transform="translate(-4 -4)"/><path class="cls-8" d="M1222.61,827.55c5.68-3.76,20.47-1.09,22.66,10.62,1.34,7-4.88,20.41-19.6,15.55C1217,850.87,1210,835.89,1222.61,827.55Z" transform="translate(-4 -4)"/><path class="cls-8" d="M876.83,1167.87c4.07-2.69,14.69-.77,16.24,7.63.95,5-3.52,14.58-14,11.11C872.8,1184.58,867.78,1173.85,876.83,1167.87Z" transform="translate(-4 -4)"/></g></svg>