<svg xmlns="http://www.w3.org/2000/svg" viewBox="0 0 1500 1500"><defs><style>.cls-1{fill:#fff;}.cls-2{fill:#ff9c00;}.cls-2,.cls-3,.cls-4,.cls-5,.cls-6{fill-rule:evenodd;}.cls-3{fill:#ff9000;}.cls-4{fill:#fa8400;}.cls-5{fill:#ffed84;}.cls-6{fill:#fff9dc;}.cls-7{fill:#da231b;}.cls-8{fill:#f9b700;}.cls-9{fill:#e4a200;}.cls-10{fill:#ffc900;}</style></defs><g id="ƒŒƒCƒ__6" data-name="ƒŒƒCƒ„[_6"><rect class="cls-1" width="1500" height="1500" rx="418.14"/><path class="cls-2" d="M260.42,305.16H966.88c1.89,67.47-43.34,122.44-39.74,161.49,34.78,215.69,58.93,452.05,22.78,634.19,1.72,41.32,43.35,54,47.29,116H230.1c3.94-62,45.39-74.68,47.28-116-36.15-182.14-12.17-418.5,22.78-634.19,3.6-39-41.63-94-39.74-161.49Z" transform="translate(-4 -4)"/><path class="cls-3" d="M260.42,305.16h7.71c2.57,58.57,98.5,60.65,98,66.53-1.71,20.85-130.87,40.56,18.16,69.56,86.85,16.87,157.6,31.65,42.14,80.17-66.81,28.24-99.87,20.09-116.14,110.88-14.56,80.75-44.71,380.79,53.45,402.2,38.37,8.53,27.58,44.73,1.54,59.52-33.41,18.76-42.66,65.77,10.62,72.78,57.73,7.58,424.15,41.51,436.14,47.58,1.72.94,3.26,1.7,5,2.46H230.1c3.94-62,45.39-74.68,47.28-116-36.15-182.14-12.17-418.5,22.78-634.19,3.6-39-41.63-94-39.74-161.49Z" transform="translate(-4 -4)"/><path class="cls-4" d="M260.42,305.16H966.88V260.81c0-4.36-3.25-8-7.19-8H267.44c-3.94,0-7,3.6-7,8Z" transform="translate(-4 -4)"/><path class="cls-5" d="M613.65,495.46c132.59,0,240,118.84,240,265.54s-107.41,265.54-240,265.54-240-118.84-240-265.54,107.41-265.54,240-265.54Z" transform="translate(-4 -4)"/><path class="cls-4" d="M230.61,1216.84H996.69v44.35c0,4.36-3.25,8-7.19,8H237.81c-3.94,0-7.2-3.6-7.2-8Z" transform="translate(-4 -4)"/><path class="cls-6" d="M722.6,656.75a57.55,57.55,0,0,1,29.47-20.28c11-3.22,22.44-3.6,33.23,1.33a39.24,39.24,0,0,1,22.1,26.72c1.88,8.15,2.05,16.49-.52,24.45-.68,2.66-1.54,5.12-2.39,7.78a15.59,15.59,0,0,0-.86,1.89,76,76,0,0,1,8.22,12.51,59.32,59.32,0,0,1,6.51,15.73c4.11,16.87-.17,33-10.11,46.25A65.73,65.73,0,0,1,774,796.82c-10.62,3.22-21.58,3.6-32.2.19-11.48-4-21.76-11.37-25-25l-.86-3.6c-.86.38-1.71,1-2.57,1.33a117.19,117.19,0,0,0,1.89,14l3.59,15.17L708,809c-7.88,7.2-17.64,11.75-27.41,14.6a56.83,56.83,0,0,1-9.42,2.08l-13.36,1.9a52.67,52.67,0,0,1-17,8.72,33.39,33.39,0,0,1-23.47-1,53.64,53.64,0,0,1-5.65,5.12,59,59,0,0,1-19,10.23,35,35,0,0,1-26.21-2.46c-.17,0-.34-.19-.51-.19l-1.54,1.89c-8.4,9.29-22.27,14.22-33.41,17.44l-24,7.2-1-4c-1.2,1.14-2.57,2.09-3.77,3a57.38,57.38,0,0,1-18.16,9.09,48.69,48.69,0,0,1-44.71-8c-13.87-10.42-21.75-26.53-26-44.16a115.66,115.66,0,0,1-2.22-43.4c2.22-14.79,7.53-28.44,16.27-40,8.74-11.94,19.87-20.28,33.24-24.26,9.76-2.84,19.69-4,29.46-1.89l5.48-4c10.11-7,24.16-11.76,35.8-15.17l10.8-3.22,6,5.5.17-.19a101.13,101.13,0,0,1,31.35-16.3l8.74-2.66,4.45,2.85c9.94-6.64,23.81-11.19,34.78-14.41l12.85-3.79,2.74,3.22c5.82-3,12.33-5.49,18.33-8a222.78,222.78,0,0,1,24.32-8.72c12-3.6,25-4.73,36.66.57Z" transform="translate(-4 -4)"/><path class="cls-7" d="M596.86,806.11c-1.2.38-2.05-.57-2.57-2.65-1.37-6.07-2.57-20.85-3.42-43.79-.69-23.12-1.72-36.77-2.74-41.13s-1.89-6.82-2.74-7.2A77,77,0,0,0,561.06,724c.34,1.14.69,2.65,1.2,4.36,2.23,9.29,3.6,22.17,3.94,38.85l-21.59,6.45c-.85-21-1.71-33.93-2.91-38.48-1-4.74-2.57-7.77-4.62-9.67-14.22,4.18-24,8.35-29.64,12.14l.52,3.22,1.88,1.32a20.06,20.06,0,0,1,4.11,4,12.47,12.47,0,0,1,2.74,5.11c1.72,7.21,2.91,23.13,3.26,47.77.51,24.64,1.37,39.8,2.74,45.49l2.57-.76c12.16-3.6,20-7.39,23.29-11.19-1.71-8-2.91-22.74-3.59-44.16A52.31,52.31,0,0,1,556.61,783a47.16,47.16,0,0,1,10.1-1.9c.35,18.39,1.2,29.95,2.23,34.87,1.2,4.93,3.6,8.35,7,10a14.55,14.55,0,0,0,11,1,37.15,37.15,0,0,0,12-6.45,38.06,38.06,0,0,0,9.76-11l-5-7.58A16.8,16.8,0,0,1,596.86,806.11Z" transform="translate(-4 -4)"/><path class="cls-7" d="M483.63,839.66c-10.28,3.22-18-5.5-22.78-25.59-3.26-13.65-4.12-26-2.57-37.15s4.79-17.63,10.1-19.14a12.67,12.67,0,0,1,6-.19l.86,15.35c2.91,1.52,6.85,2.46,12,2.65a38.9,38.9,0,0,0,13-1.32c2.22-4.55,2.57-9.86,1.2-15.92-1.55-6.26-5.66-10.43-12.17-12.51s-14.22-1.9-22.78.75c-8.57,2.47-15.93,7.78-21.93,16.12a60.42,60.42,0,0,0-11.48,28.43,87.41,87.41,0,0,0,1.72,33.17q5.13,21,17,30.13c8.05,6.07,17,7.58,26.72,4.74A41.66,41.66,0,0,0,490,853.3a46,46,0,0,0,8.91-8,71.68,71.68,0,0,0,6.68-9.66,40.47,40.47,0,0,0,4.11-8l-8.05-5.12Q492.88,837.11,483.63,839.66Z" transform="translate(-4 -4)"/><path class="cls-7" d="M715.75,680.07c-6-3.23-14-3.23-24.16-.19a181.06,181.06,0,0,0-22.26,8c-8.06,3.22-13.54,5.68-17,7.39l.34,3.79,2,1.71a20.92,20.92,0,0,1,4.46,4.17,13.33,13.33,0,0,1,2.91,5.49c1.37,5.5,2.4,20.47,2.91,44.92.69,24.45,1.72,39.81,3.26,46.06a45.29,45.29,0,0,0,6.51-1.52c8.39-2.46,14.56-5.68,19-9.66-1.37-6.26-2.57-19-3.42-38.29,1.19-.19,3.08-.76,5.65-1.51,13.7-4.17,23.13-11,28.26-21,5.14-9.86,6.17-20.85,3.26-33C725.69,688.6,721.75,683.1,715.75,680.07ZM702,724.42c-1.19,7.2-4.28,11.56-9.42,13.08l-2.57.75c-.85-26.34-1.88-41.31-2.74-45.3l4.11-1.89c4.29-1.33,7.37,1.71,9.08,9.1C702.73,709.07,703.24,717.22,702,724.42Z" transform="translate(-4 -4)"/><path class="cls-7" d="M645,791.89c-1.2.38-2.06-.94-2.74-3.6-1.71-7.2-2.57-21.23-2.4-42.07.17-21-.51-34.5-1.88-40.19a20.68,20.68,0,0,0-4.63-8.91c-14.39,4.17-24.32,8.34-29.46,12l.51,3.22,1.88,1.32a25.58,25.58,0,0,1,3.94,4,11.29,11.29,0,0,1,2.92,5.12c1.37,7.2,1.88,20.85,1.71,40.56s.34,32.23,1.54,37.34c1.37,5.31,3.6,8.91,7,11s7.36,2.46,11.82.94c7.7-2.27,15.07-8,21.58-17.24l-5-7.59A17.76,17.76,0,0,1,645,791.89Z" transform="translate(-4 -4)"/><path class="cls-7" d="M797,733.33a31.51,31.51,0,0,0-3.77-9.1,75.12,75.12,0,0,0-18.16-22l1.54-2.27c1.2-1.71,2.74-4.17,4.8-7.58a23.76,23.76,0,0,0,2.57-4.93c.51-1.52,1.2-3.79,2.23-6.45a18.3,18.3,0,0,0-.18-10c-1.19-4.74-4.28-8.34-9.25-10.62-5.13-2.27-11.47-2.46-19-.19a36.78,36.78,0,0,0-18.84,13.08c-5,6.64-6.69,13.65-4.8,21,1,4.36,3.6,9.29,7.71,14.6a129.29,129.29,0,0,0,12.85,13.64,123.37,123.37,0,0,1,12.5,13.27c4.11,4.93,6.51,9.29,7.54,13.08,1.37,6.06-.34,9.67-5.14,11.37a69.92,69.92,0,0,0-8.39-13.65q-4.38-5.69-8.23-6.25c-3.42,1.14-6.51,4.55-9.59,10.23-2.91,5.88-4.63,10.81-5.14,15.17.69,3.22,4.11,5.68,10.11,7.77,5.82,1.89,12.5,1.89,20-.38a43.5,43.5,0,0,0,23-15.73C797.12,749.63,799,741.67,797,733.33Zm-23.81-47.58a42.81,42.81,0,0,1-6.17,8.91c-1.2-1.14-3.08-2.84-5.65-5.69-2.4-2.65-3.94-5.11-4.46-7.39a7.52,7.52,0,0,1,1.55-6.44,13.1,13.1,0,0,1,7.19-4.55c5.31-1.71,8.74,0,9.76,4.55C776.05,678.17,775.36,681.58,773.14,685.75Z" transform="translate(-4 -4)"/><path class="cls-8" d="M1133.86,1263.35c23.12,11.38,46.25,18,70.92,7.21l.16,0c-6.51-35.43-18-54.76-27.92-65.37Z" transform="translate(-4 -4)"/><path class="cls-8" d="M1197.41,1177.68l-12.16,16.49,6.68-8.91c13.53,14.22,28.78,39,36.66,82.45-2.81.55,34.77-.38,47.28-12.89l.28-.11C1255.58,1213.08,1219.66,1189.23,1197.41,1177.68Z" transform="translate(-4 -4)"/><path class="cls-8" d="M1273.81,1122.34l-15.24,6.63c30.29,10.42,63.84,30.3,88.33,67.58.07-.16.16-.32.23-.48C1378.14,1165.74,1339.42,1115.32,1273.81,1122.34Z" transform="translate(-4 -4)"/><path class="cls-8" d="M1223.3,1147c-1.77,1-3.54,1.91-5.33,3l-4.94,6.65c25.87,14.41,63.53,41.89,85.45,87.92,21.45.13,33.67-25.86,33.4-25.58C1303.11,1169.73,1256.19,1152.67,1223.3,1147Z" transform="translate(-4 -4)"/><path class="cls-8" d="M1223.51,1146.86c3.36-1.85,6.69-3.5,10-5.08Q1228.56,1144.11,1223.51,1146.86Z" transform="translate(-4 -4)"/><path class="cls-8" d="M1203.06,1170.1l10-13.44,0,0Z" transform="translate(-4 -4)"/><path class="cls-8" d="M1223.28,1147h0l.21-.12A1.67,1.67,0,0,0,1223.28,1147Z" transform="translate(-4 -4)"/><path class="cls-9" d="M1191.93,1185.26,1177,1205.17c9.94,10.61,21.42,29.94,27.93,65.39,6.51-8,14.39-9.29,23.64-2.85C1220.71,1224.31,1205.46,1199.48,1191.93,1185.26Z" transform="translate(-4 -4)"/><path class="cls-9" d="M1213,1156.64c-5.14,7-10.28,14-15.59,21,22.27,11.56,58.24,35.45,78.8,77.14,5.14-8.15,12.51-11.75,22.27-10.23C1276.55,1198.53,1238.87,1171.05,1213,1156.64Z" transform="translate(-4 -4)"/><path class="cls-9" d="M1258.57,1129l-1,.57c-11.65,7.2-22.79,11-34.26,17.44,32.89,5.68,79.83,22.74,108.6,72,1-14.59,5.83-22.55,15.08-22.36C1322.46,1159.3,1288.89,1139.4,1258.57,1129Z" transform="translate(-4 -4)"/><path class="cls-10" d="M1025.76,1092.58l.17.19c-1.37-2.47-3.25-4.17-6.16-3.79l-.18-.19c-36.31,19.33-113.74,71.08-123.85,167.74l.17.38c5,30.33,21.59,45.87,43.51,53.26C934.8,1198,991.67,1125.56,1025.76,1092.58Z" transform="translate(-4 -4)"/><path class="cls-10" d="M1239.37,1154.6c2.8-3.72,5.6-7.31,8.4-10.66C1244.89,1147.25,1242.11,1150.87,1239.37,1154.6Z" transform="translate(-4 -4)"/><path class="cls-10" d="M1083.15,1123.28h.34c-1.71-2.65-3.94-4.16-7.36-3.22H1076c-23.29,31.09-66.81,112-31.34,246h.51c33.4,13.27,59.44-1.32,80.86-31.65.34-.38.34-.57-.18-.38C1059,1270.37,1073,1167.45,1083.15,1123.28Z" transform="translate(-4 -4)"/><path class="cls-10" d="M1053.51,1108.88c-1.2-2.28-2.57-3.6-5-2.84h-.17c-30.66,27.29-97.81,102.35-83.08,226.12,16.45,16.49,35.12,29,53.28,28.24C987.9,1230.37,1027.3,1146.79,1053.51,1108.88Z" transform="translate(-4 -4)"/><path class="cls-10" d="M955.18,1056.19l-.51-.19c-36.32-19.15-115.63,35.06-98.67,87.57C883.23,1097.89,922.29,1071.35,955.18,1056.19Z" transform="translate(-4 -4)"/><path class="cls-10" d="M994.07,1073.63l-.17-.19a5.1,5.1,0,0,0-4.63-2.66c-36.83,11.94-97.3,42.08-126.25,113.35h-.17c-3.07,17.75,1,31.17,14.44,38.58l0-.11C896.94,1144.32,955.35,1097.13,994.07,1073.63Z" transform="translate(-4 -4)"/><path class="cls-10" d="M877.41,1223v-.19l-.12-.08Z" transform="translate(-4 -4)"/><path class="cls-10" d="M1204.43,1212.37c-34.77-24.45-47.79-56.3-52.25-71.65h.35c-4.8-3.6-8.57-3.41-11.65-1.51h-.17c.34,23.84,5.47,74.91,40.46,116l.31,0c14-9.28,22.44-23.31,23.12-43,1-9.65,4.55-17.34,11.65-22.14C1206,1192.87,1202.76,1200.7,1204.43,1212.37Z" transform="translate(-4 -4)"/><path class="cls-10" d="M1178.05,1141.67c5.13,13,16.23,32.11,38.71,48,.13-.08.23-.17.35-.25,11-4.36,16.1-14.78,17.82-28.62,1.45-2.14,3-4.17,4.44-6.21-1.48,2-3,3.92-4.44,6a87.67,87.67,0,0,1-26.9-22C1194.84,1135.42,1184.22,1136,1178.05,1141.67Z" transform="translate(-4 -4)"/><path class="cls-10" d="M1237.84,1132.38c-9.59,2.47-9.59,2.47.17,0a51.47,51.47,0,0,0,13.7,7.21l.18-.19c12.5,1.7,16.78-9.29,22.09-17.06C1260.28,1122.91,1246.23,1125.37,1237.84,1132.38Z" transform="translate(-4 -4)"/><path class="cls-10" d="M1168.18,1277.67c.81-12.66,5.39-20,13.13-22.28,0-.05-.09-.11-.14-.17C1169,1255,1165.21,1263.08,1168.18,1277.67Z" transform="translate(-4 -4)"/><path class="cls-10" d="M1116.9,1134.47c-3.26-3.41-6.86-4.36-10.8-3h-.17c-9.08,40.37-20.9,130,36.83,183.85h.35c12.33-5.69,23.46-13.46,25.18-37,0-.23-.06-.43-.11-.66,0,.23,0,.43-.06.66C1121,1227.34,1116.55,1160.43,1116.9,1134.47Z" transform="translate(-4 -4)"/><path class="cls-10" d="M1216.94,1189.81c-.06,0-.11-.09-.18-.13s-.33.24-.51.36C1216.5,1190,1216.69,1189.87,1216.94,1189.81Z" transform="translate(-4 -4)"/><path class="cls-8" d="M1076,1120.06c-9.42.76-17.64-.76-22.27-11.18-26.38,37.91-65.78,121.49-35.11,251.52,9.42-6.07,18-1.71,26,5.68C1009,1232.08,1052.66,1151.15,1076,1120.06Z" transform="translate(-4 -4)"/><path class="cls-8" d="M1048.37,1106c-11.3.19-19-4.17-22.61-13.46-34.09,33.17-91.13,105.57-86.17,218.16,9.77-2.28,18.51,4.93,25.7,21.61C950.56,1208.39,1017.71,1133.33,1048.37,1106Z" transform="translate(-4 -4)"/><path class="cls-8" d="M989.27,1070.78c-17.81.76-28.95-4.36-34.09-14.59-32.89,15.16-71.95,41.7-99.18,87.38,9.08,7,11.3,20.84,7,40.56C892,1112.67,952.44,1082.72,989.27,1070.78Z" transform="translate(-4 -4)"/><path class="cls-8" d="M1019.59,1088.79c-12.33-1.14-21.41-5.5-25.35-15.35-38.71,23.69-97.3,70.88-117,149.16,11,1.14,16.79,12.89,18.5,33.93C905.85,1159.87,983.28,1108.12,1019.59,1088.79Z" transform="translate(-4 -4)"/><path class="cls-8" d="M1238,1132.38c-7.88,10.24-18,12.51-30,6.26a87.67,87.67,0,0,0,26.9,22,181.17,181.17,0,0,1,16.78-21A51.47,51.47,0,0,1,1238,1132.38Z" transform="translate(-4 -4)"/><path class="cls-8" d="M1105.93,1131.44c-9.59,2.84-17.47.75-22.78-8.16-10.11,44.17-24.16,147.09,42.65,210.77,1.89-11.18,7.37-17.81,17-18.76C1085,1261.46,1096.85,1171.62,1105.93,1131.44Z" transform="translate(-4 -4)"/><path class="cls-8" d="M1178.05,1141.67c-8.56,8.15-17.3,4.93-25.87-1,4.46,15.35,17.48,47.2,52.25,71.65,4.29-7.77,8.4-15.36,12.51-22.56C1194.33,1173.89,1183.19,1154.75,1178.05,1141.67Z" transform="translate(-4 -4)"/><path class="cls-8" d="M1116.9,1134.47c-.35,26,4.11,92.87,51.22,143.86l1.54-5.5,2.22-4.36,5.66-9.67,3.77-3.41c-35.12-41.13-40.26-92.3-40.6-116.18C1132.31,1143,1124.43,1141.67,1116.9,1134.47Z" transform="translate(-4 -4)"/></g></svg>