<svg id="Livello_1" data-name="Livello 1" xmlns="http://www.w3.org/2000/svg" xmlns:xlink="http://www.w3.org/1999/xlink" viewBox="0 0 698 555.83"><defs><style>.cls-1{fill:none;}.cls-2{fill:url(#linear-gradient);}.cls-3{fill:url(#linear-gradient-2);}.cls-4{fill:url(#linear-gradient-3);}.cls-5,.cls-6{opacity:0.7;}.cls-5{fill:url(#linear-gradient-4);}.cls-6{fill:url(#linear-gradient-5);}.cls-7{opacity:0.2;}.cls-8{opacity:0.1;}.cls-9{clip-path:url(#clip-path);}.cls-10{fill:#1d1d1b;}.cls-11{fill:url(#linear-gradient-6);}.cls-12{clip-path:url(#clip-path-2);}.cls-13{fill:#b4aa00;}.cls-14{fill:#fff;}.cls-15{fill:url(#linear-gradient-8);}.cls-16{fill:url(#linear-gradient-9);}</style><linearGradient id="linear-gradient" x1="369" y1="580.96" x2="456" y2="580.96" gradientUnits="userSpaceOnUse"><stop offset="0" stop-color="#ffc42a"/><stop offset="1" stop-color="#e6ff2a"/></linearGradient><linearGradient id="linear-gradient-2" x1="151" y1="485" x2="745.64" y2="485" gradientUnits="userSpaceOnUse"><stop offset="0" stop-color="#00deff"/><stop offset="1" stop-color="#0089ff"/></linearGradient><linearGradient id="linear-gradient-3" x1="169.15" y1="426.11" x2="659.49" y2="426.11" gradientTransform="translate(268.56 -150.07) rotate(30)" gradientUnits="userSpaceOnUse"><stop offset="0" stop-color="#666"/><stop offset="1"/></linearGradient><linearGradient id="linear-gradient-4" x1="249.27" y1="546.95" x2="508.76" y2="546.95" gradientTransform="translate(324.26 -116.23) rotate(30)" gradientUnits="userSpaceOnUse"><stop offset="0" stop-color="#beffff"/><stop offset="1" stop-color="#c0faff"/></linearGradient><linearGradient id="linear-gradient-5" x1="544.58" y1="416.45" x2="665.51" y2="416.45" gradientTransform="translate(289.29 -246.73) rotate(30)" xlink:href="#linear-gradient-4"/><clipPath id="clip-path" transform="translate(-151 -222.09)"><path class="cls-1" d="M730.81,513.58l-399,230.36a29.65,29.65,0,0,1-40.5-10.85L155,496.91a29.63,29.63,0,0,1,10.85-40.49l399-230.36a29.65,29.65,0,0,1,40.5,10.85L741.66,473.09A29.63,29.63,0,0,1,730.81,513.58Z"/></clipPath><linearGradient id="linear-gradient-6" x1="178" y1="389.83" x2="698" y2="389.83" xlink:href="#linear-gradient-2"/><clipPath id="clip-path-2" transform="translate(-151 -222.09)"><rect class="cls-2" x="369" y="552" width="87" height="57.91" rx="21.89"/></clipPath><linearGradient id="linear-gradient-8" x1="616" y1="494.83" x2="658" y2="494.83" gradientUnits="userSpaceOnUse"><stop offset="0" stop-color="#f15a24"/><stop offset="1" stop-color="#fbb03b"/></linearGradient><linearGradient id="linear-gradient-9" x1="715.43" y1="494.83" x2="715.93" y2="494.83" gradientUnits="userSpaceOnUse"><stop offset="0" stop-color="#c1272d"/><stop offset="1" stop-color="#ff482a"/></linearGradient></defs><path class="cls-3" d="M730.81,513.58l-399,230.36a29.65,29.65,0,0,1-40.5-10.85L155,496.91a29.63,29.63,0,0,1,10.85-40.49l399-230.36a29.65,29.65,0,0,1,40.5,10.85L741.66,473.09A29.63,29.63,0,0,1,730.81,513.58Z" transform="translate(-151 -222.09)"/><rect class="cls-4" x="154.32" y="386.11" width="520" height="80" transform="translate(-308.55 42.16) rotate(-30)"/><rect class="cls-5" x="239.01" y="529.95" width="280" height="34" transform="translate(-373.7 40.7) rotate(-30)"/><rect class="cls-6" x="545.05" y="399.45" width="120" height="34" transform="translate(-278.17 136.23) rotate(-30)"/><rect class="cls-7" x="481.99" y="534.35" width="246" height="16" transform="translate(-341.12 153.07) rotate(-30)"/><g class="cls-8"><g class="cls-9"><path class="cls-10" d="M194.64,210.83H655.35A29.65,29.65,0,0,1,685,240.47V513.18a29.64,29.64,0,0,1-29.64,29.64H194.64A29.65,29.65,0,0,1,165,513.18V240.47A29.65,29.65,0,0,1,194.64,210.83Z"/></g></g><path class="cls-11" d="M207.64,223.83H668.35A29.65,29.65,0,0,1,698,253.47V526.18a29.64,29.64,0,0,1-29.64,29.64H207.64A29.65,29.65,0,0,1,178,526.18V253.47A29.65,29.65,0,0,1,207.64,223.83Z"/><rect class="cls-2" x="218" y="329.91" width="87" height="57.91" rx="21.89"/><g class="cls-12"><rect class="cls-13" x="217" y="383.2" width="88.65" height="1.77"/><rect class="cls-13" x="217" y="332.86" width="44.32" height="1.77"/><rect class="cls-13" x="261.32" y="332.86" width="44.32" height="1.77"/><rect class="cls-13" x="278.67" y="367.3" width="26.98" height="1.77"/><rect class="cls-13" x="217" y="367.3" width="26.98" height="1.77"/><path class="cls-13" d="M412.32,607.05c-10.09,0-18.3-7.53-18.3-16.78a15.67,15.67,0,0,1,3.05-9.27,15.67,15.67,0,0,1-3.05-9.27c0-9.25,8.21-16.78,18.3-16.78v1.76c-9,0-16.38,6.74-16.38,15a14.08,14.08,0,0,0,3.08,8.75l.41.52-.41.52a14.08,14.08,0,0,0-3.08,8.75c0,8.28,7.35,15,16.38,15s16.38-6.74,16.38-15a14,14,0,0,0-3.08-8.75l-.4-.52.4-.52a14,14,0,0,0,3.08-8.75v-.89h27.95v1.77h-26a15.73,15.73,0,0,1-3,8.39,15.67,15.67,0,0,1,3.05,9.27C430.63,599.52,422.42,607.05,412.32,607.05Z" transform="translate(-151 -222.09)"/><rect class="cls-13" x="217" y="348.76" width="26.98" height="1.77"/><rect class="cls-13" x="260.36" y="324.91" width="1.93" height="8.83"/><rect class="cls-13" x="260.36" y="384.08" width="1.93" height="8.83"/></g><path class="cls-14" d="M699,486h8.89q6.08,0,8.81,1.73a6,6,0,0,1,2.75,5.5,7,7,0,0,1-1.2,4.2,4.81,4.81,0,0,1-3.2,2v.2a6.26,6.26,0,0,1,3.92,2.26,7.39,7.39,0,0,1,1.2,4.42,7.28,7.28,0,0,1-2.82,6.09,12.2,12.2,0,0,1-7.67,2.19H699Zm6.05,11.31h3.52a6.38,6.38,0,0,0,3.56-.76,2.84,2.84,0,0,0,1.11-2.52,2.51,2.51,0,0,0-1.2-2.35,7.66,7.66,0,0,0-3.8-.72h-3.19Zm0,4.8v7.45H709a5.82,5.82,0,0,0,3.69-1,3.55,3.55,0,0,0,1.19-2.93q0-3.56-5.08-3.56Z" transform="translate(-151 -222.09)"/><path class="cls-14" d="M743.39,514.59l-2.07-6.8H730.91l-2.07,6.8h-6.52l10.08-28.68h7.4l10.12,28.68Zm-3.51-11.88q-2.88-9.24-3.23-10.45c-.24-.81-.42-1.44-.52-1.91-.43,1.66-1.66,5.79-3.69,12.36Z" transform="translate(-151 -222.09)"/><path class="cls-14" d="M778.84,514.59h-7.69L758.73,493h-.18q.38,5.73.37,8.17v13.44h-5.41V486h7.64l12.4,21.39h.14c-.2-3.71-.3-6.34-.3-7.87V486h5.45Z" transform="translate(-151 -222.09)"/><path class="cls-14" d="M809,514.59h-6.88l-7.48-12-2.55,1.83v10.2H786V486h6.06V499.1l2.38-3.36L802.2,486h6.72l-10,12.64Z" transform="translate(-151 -222.09)"/><path class="cls-14" d="M381.68,668h-4.76V648.83c0-2.28.06-4.09.16-5.43-.31.32-.69.68-1.14,1.07s-2,1.64-4.55,3.73l-2.39-3,8.71-6.84h4Z" transform="translate(-151 -222.09)"/><path class="cls-14" d="M411.47,668H391.39v-3.61l7.64-7.68a65.61,65.61,0,0,0,4.48-4.91,11.45,11.45,0,0,0,1.61-2.73,7.28,7.28,0,0,0,.51-2.73,4.14,4.14,0,0,0-1.21-3.16,4.61,4.61,0,0,0-3.33-1.16,8.87,8.87,0,0,0-3.29.63,15.58,15.58,0,0,0-3.68,2.27l-2.57-3.14a16.69,16.69,0,0,1,4.8-3,14.06,14.06,0,0,1,5-.87,9.76,9.76,0,0,1,6.63,2.16,7.28,7.28,0,0,1,2.49,5.8,10.16,10.16,0,0,1-.72,3.81,15.39,15.39,0,0,1-2.21,3.72,50.15,50.15,0,0,1-4.95,5.18l-5.15,5v.2h14.07Z" transform="translate(-151 -222.09)"/><path class="cls-14" d="M434,645.14a6.83,6.83,0,0,1-1.64,4.69,8.28,8.28,0,0,1-4.62,2.53v.16a8.85,8.85,0,0,1,5.35,2.22,6.34,6.34,0,0,1,1.79,4.71,7.82,7.82,0,0,1-3,6.59q-3,2.33-8.59,2.32a19.3,19.3,0,0,1-8.31-1.6v-4.23a18.76,18.76,0,0,0,4,1.43,17.28,17.28,0,0,0,4,.51,8.48,8.48,0,0,0,5.15-1.28,4.62,4.62,0,0,0,1.7-4,3.76,3.76,0,0,0-1.88-3.48,12.08,12.08,0,0,0-5.92-1.12h-2.57v-3.86h2.61q7.1,0,7.09-4.91a3.63,3.63,0,0,0-1.23-2.94,5.63,5.63,0,0,0-3.65-1,11,11,0,0,0-3.24.48,15.4,15.4,0,0,0-3.69,1.85l-2.33-3.32a15.54,15.54,0,0,1,9.46-3,11.26,11.26,0,0,1,7,1.92A6.32,6.32,0,0,1,434,645.14Z" transform="translate(-151 -222.09)"/><path class="cls-14" d="M459.89,661.49h-4V668h-4.64v-6.47H437.72v-3.66l13.54-19.58h4.64v19.29h4Zm-8.63-4v-7.43c0-2.65.06-4.82.2-6.51h-.16a22.9,22.9,0,0,1-1.79,3.24l-7.35,10.7Z" transform="translate(-151 -222.09)"/><path class="cls-14" d="M494.05,649.46a10.18,10.18,0,0,1,7.09,2.37,8.29,8.29,0,0,1,2.61,6.46,9.45,9.45,0,0,1-3,7.41q-3,2.65-8.44,2.66a15.91,15.91,0,0,1-7.8-1.6v-4.32a13.82,13.82,0,0,0,3.77,1.44,17.06,17.06,0,0,0,3.95.51,7.33,7.33,0,0,0,4.9-1.44,5.21,5.21,0,0,0,1.69-4.21q0-5.31-6.77-5.31a17.31,17.31,0,0,0-2.35.19c-.93.13-1.75.28-2.45.44l-2.13-1.26,1.14-14.46h15.39v4.23h-11.2l-.67,7.33,1.73-.28A16.17,16.17,0,0,1,494.05,649.46Z" transform="translate(-151 -222.09)"/><path class="cls-14" d="M507.76,655.33q0-17.39,14.16-17.38a18.25,18.25,0,0,1,3.77.34v4a12.73,12.73,0,0,0-3.56-.45c-3.18,0-5.56.85-7.16,2.55s-2.45,4.43-2.59,8.19h.24A6.5,6.5,0,0,1,515.3,650a8.64,8.64,0,0,1,4.05-.91,8.06,8.06,0,0,1,6.28,2.48,9.56,9.56,0,0,1,2.25,6.7,10.22,10.22,0,0,1-2.6,7.37,9.43,9.43,0,0,1-7.11,2.7,9.92,9.92,0,0,1-5.53-1.53,9.74,9.74,0,0,1-3.61-4.46A17.54,17.54,0,0,1,507.76,655.33Zm10.33,9.1a4.66,4.66,0,0,0,3.78-1.58,6.81,6.81,0,0,0,1.33-4.52,6,6,0,0,0-1.25-4,4.64,4.64,0,0,0-3.73-1.46,6.15,6.15,0,0,0-2.84.66,5.21,5.21,0,0,0-2,1.8,4.26,4.26,0,0,0-.75,2.34,7.5,7.5,0,0,0,1.55,4.81A4.84,4.84,0,0,0,518.09,664.43Z" transform="translate(-151 -222.09)"/><path class="cls-14" d="M534.73,668l11.71-25.39H531v-4.19h20.48v3.32L539.87,668Z" transform="translate(-151 -222.09)"/><path class="cls-14" d="M565.06,638a10.45,10.45,0,0,1,6.66,1.94,6.23,6.23,0,0,1,2.45,5.17q0,4.56-5.47,7.25a14.19,14.19,0,0,1,5,3.67,6.93,6.93,0,0,1,1.47,4.3,7.2,7.2,0,0,1-2.7,5.87,11.19,11.19,0,0,1-7.29,2.21q-4.83,0-7.48-2.07a7,7,0,0,1-2.65-5.85A7.53,7.53,0,0,1,556.4,656a11.61,11.61,0,0,1,4.54-3.51,11.36,11.36,0,0,1-3.87-3.43,7.33,7.33,0,0,1-1.15-4,6.11,6.11,0,0,1,2.53-5.14A10.71,10.71,0,0,1,565.06,638Zm-5.49,22.33a3.94,3.94,0,0,0,1.47,3.27,6.32,6.32,0,0,0,4,1.16,6.2,6.2,0,0,0,4.06-1.2,4.05,4.05,0,0,0,1.45-3.27,4.19,4.19,0,0,0-1.34-3,12.5,12.5,0,0,0-4.05-2.51l-.59-.27a10.61,10.61,0,0,0-3.85,2.58A5,5,0,0,0,559.57,660.28ZM565,641.62a5,5,0,0,0-3.27,1,3.34,3.34,0,0,0-1.23,2.73,4,4,0,0,0,.44,1.88,5,5,0,0,0,1.3,1.51,15.6,15.6,0,0,0,2.88,1.63,9.61,9.61,0,0,0,3.43-2.26,4.13,4.13,0,0,0,1-2.76,3.32,3.32,0,0,0-1.24-2.73A5.12,5.12,0,0,0,565,641.62Z" transform="translate(-151 -222.09)"/><path class="cls-14" d="M620.33,651q0,8.74-3.53,13.07t-10.62,4.31a16.67,16.67,0,0,1-3.87-.32v-4a13.75,13.75,0,0,0,3.63.5c3.22,0,5.61-.86,7.19-2.59s2.45-4.45,2.6-8.15h-.25a7.15,7.15,0,0,1-2.88,2.64,9.09,9.09,0,0,1-4,.81,8,8,0,0,1-6.18-2.45,9.59,9.59,0,0,1-2.25-6.73,10.26,10.26,0,0,1,2.6-7.38,9.32,9.32,0,0,1,7.1-2.75,9.77,9.77,0,0,1,5.51,1.54,9.91,9.91,0,0,1,3.63,4.47A17.5,17.5,0,0,1,620.33,651ZM610,641.9a4.64,4.64,0,0,0-3.79,1.61,7,7,0,0,0-1.31,4.53,6,6,0,0,0,1.22,4,4.6,4.6,0,0,0,3.72,1.45,5.91,5.91,0,0,0,4-1.44,4.33,4.33,0,0,0,1.64-3.36,8.19,8.19,0,0,0-.7-3.38,6,6,0,0,0-2-2.48A4.84,4.84,0,0,0,610,641.9Z" transform="translate(-151 -222.09)"/><path class="cls-14" d="M644.05,653.15q0,7.71-2.48,11.46T634,668.36a8.43,8.43,0,0,1-7.5-3.87q-2.55-3.87-2.55-11.34,0-7.85,2.48-11.56t7.57-3.72a8.43,8.43,0,0,1,7.52,3.89Q644.05,645.65,644.05,653.15Zm-15.3,0c0,4,.42,6.92,1.25,8.65a4.15,4.15,0,0,0,4,2.59,4.19,4.19,0,0,0,4-2.63q1.28-2.64,1.27-8.61c0-4-.42-6.85-1.27-8.63a4.34,4.34,0,0,0-8,0Q628.75,647.1,628.75,653.15Z" transform="translate(-151 -222.09)"/><path class="cls-14" d="M667.73,653.15q0,7.71-2.48,11.46t-7.58,3.75a8.41,8.41,0,0,1-7.5-3.87q-2.55-3.87-2.55-11.34,0-7.85,2.48-11.56t7.57-3.72a8.42,8.42,0,0,1,7.51,3.89Q667.73,645.65,667.73,653.15Zm-15.29,0c0,4,.41,6.92,1.24,8.65a4.36,4.36,0,0,0,8,0q1.26-2.64,1.26-8.61c0-4-.42-6.85-1.26-8.63a4.35,4.35,0,0,0-8,0Q652.44,647.1,652.44,653.15Z" transform="translate(-151 -222.09)"/><path class="cls-14" d="M691.42,653.15q0,7.71-2.48,11.46t-7.59,3.75a8.41,8.41,0,0,1-7.5-3.87q-2.55-3.87-2.55-11.34,0-7.85,2.48-11.56t7.57-3.72a8.44,8.44,0,0,1,7.52,3.89Q691.42,645.65,691.42,653.15Zm-15.3,0c0,4,.42,6.92,1.25,8.65a4.15,4.15,0,0,0,4,2.59,4.19,4.19,0,0,0,4-2.63c.84-1.76,1.27-4.63,1.27-8.61s-.43-6.85-1.27-8.63a4.34,4.34,0,0,0-8,0Q676.13,647.1,676.12,653.15Z" transform="translate(-151 -222.09)"/><path class="cls-14" d="M736.66,653.15q0,7.71-2.48,11.46t-7.59,3.75a8.42,8.42,0,0,1-7.5-3.87q-2.55-3.87-2.55-11.34,0-7.85,2.48-11.56t7.57-3.72a8.44,8.44,0,0,1,7.52,3.89Q736.66,645.65,736.66,653.15Zm-15.3,0c0,4,.42,6.92,1.25,8.65a4.15,4.15,0,0,0,4,2.59,4.19,4.19,0,0,0,4-2.63c.84-1.76,1.27-4.63,1.27-8.61s-.43-6.85-1.27-8.63a4.34,4.34,0,0,0-8,0Q721.37,647.1,721.36,653.15Z" transform="translate(-151 -222.09)"/><path class="cls-14" d="M760.34,653.15q0,7.71-2.48,11.46t-7.59,3.75a8.4,8.4,0,0,1-7.49-3.87q-2.55-3.87-2.56-11.34,0-7.85,2.49-11.56t7.56-3.72a8.43,8.43,0,0,1,7.52,3.89Q760.34,645.65,760.34,653.15Zm-15.29,0c0,4,.41,6.92,1.24,8.65a4.35,4.35,0,0,0,8,0q1.28-2.64,1.27-8.61c0-4-.42-6.85-1.27-8.63a4.34,4.34,0,0,0-8,0Q745,647.1,745.05,653.15Z" transform="translate(-151 -222.09)"/><path class="cls-14" d="M784,653.15q0,7.71-2.48,11.46T774,668.36a8.41,8.41,0,0,1-7.5-3.87q-2.55-3.87-2.55-11.34,0-7.85,2.48-11.56c1.65-2.48,4.18-3.72,7.57-3.72a8.41,8.41,0,0,1,7.51,3.89Q784,645.65,784,653.15Zm-15.3,0c0,4,.42,6.92,1.25,8.65a4.14,4.14,0,0,0,4,2.59,4.2,4.2,0,0,0,4-2.63c.84-1.76,1.27-4.63,1.27-8.61s-.43-6.85-1.27-8.63a4.2,4.2,0,0,0-4-2.66,4.14,4.14,0,0,0-4,2.61Q768.73,647.1,768.73,653.15Z" transform="translate(-151 -222.09)"/><path class="cls-14" d="M807.71,653.15q0,7.71-2.48,11.46c-1.66,2.5-4.18,3.75-7.59,3.75a8.4,8.4,0,0,1-7.49-3.87q-2.56-3.87-2.56-11.34,0-7.85,2.49-11.56t7.56-3.72a8.43,8.43,0,0,1,7.52,3.89Q807.71,645.65,807.71,653.15Zm-15.3,0c0,4,.42,6.92,1.25,8.65a4.35,4.35,0,0,0,8,0q1.27-2.64,1.27-8.61c0-4-.42-6.85-1.27-8.63a4.34,4.34,0,0,0-8,0Q792.42,647.1,792.41,653.15Z" transform="translate(-151 -222.09)"/><path class="cls-14" d="M376.29,724.68a3.34,3.34,0,0,0-2.88,1.4,6.49,6.49,0,0,0-1,3.89q0,5.21,3.9,5.2a12.25,12.25,0,0,0,4-.82v2.77a11.06,11.06,0,0,1-4.28.79,6.49,6.49,0,0,1-5.18-2A8.7,8.7,0,0,1,369,730a9.66,9.66,0,0,1,.88-4.25,6.43,6.43,0,0,1,2.54-2.79,7.46,7.46,0,0,1,3.87-1,10.44,10.44,0,0,1,4.55,1.09l-1.06,2.68A16.15,16.15,0,0,0,378,725,5.16,5.16,0,0,0,376.29,724.68Z" transform="translate(-151 -222.09)"/><path class="cls-14" d="M393.08,737.7,392,734h-5.66l-1.13,3.7h-3.55l5.48-15.6h4l5.51,15.6Zm-1.91-6.46c-1.05-3.35-1.63-5.25-1.76-5.69s-.23-.79-.29-1q-.35,1.37-2,6.73Z" transform="translate(-151 -222.09)"/><path class="cls-14" d="M401.88,731.74v6h-3.29V722.16h4.53a7.71,7.71,0,0,1,4.68,1.15,4.61,4.61,0,0,1,.77,5.94,4.92,4.92,0,0,1-2.14,1.68c2.34,3.49,3.87,5.75,4.57,6.77h-3.65l-3.71-6Zm0-2.68H403a4.09,4.09,0,0,0,2.3-.52,1.87,1.87,0,0,0,.75-1.64,1.7,1.7,0,0,0-.76-1.57,4.67,4.67,0,0,0-2.36-.47h-1Z" transform="translate(-151 -222.09)"/><path class="cls-14" d="M425.86,729.78a7.64,7.64,0,0,1-2.19,5.88c-1.45,1.36-3.56,2-6.31,2H413V722.16h4.88a8.2,8.2,0,0,1,5.91,2A7.4,7.4,0,0,1,425.86,729.78Zm-3.43.09q0-5-4.42-5h-1.75V735h1.41C420.85,735,422.43,733.28,422.43,729.87Z" transform="translate(-151 -222.09)"/><path class="cls-14" d="M441.81,737.7h-3.28V731h-6.16v6.71h-3.29V722.16h3.29v6.09h6.16v-6.09h3.28Z" transform="translate(-151 -222.09)"/><path class="cls-14" d="M459.84,729.91a8.41,8.41,0,0,1-1.91,5.93,8.3,8.3,0,0,1-11,0,8.45,8.45,0,0,1-1.91-6A8.36,8.36,0,0,1,447,724a7.21,7.21,0,0,1,5.51-2.05A7.08,7.08,0,0,1,458,724,8.46,8.46,0,0,1,459.84,729.91Zm-11.34,0a6.47,6.47,0,0,0,1,3.92,3.45,3.45,0,0,0,2.95,1.32q3.94,0,3.95-5.24t-3.92-5.25a3.49,3.49,0,0,0-3,1.32A6.43,6.43,0,0,0,448.5,729.91Z" transform="translate(-151 -222.09)"/><path class="cls-14" d="M463.07,737.7V722.16h3.29V735h6.31v2.72Z" transform="translate(-151 -222.09)"/><path class="cls-14" d="M488.26,729.78a7.67,7.67,0,0,1-2.18,5.88,8.92,8.92,0,0,1-6.31,2h-4.4V722.16h4.88a8.24,8.24,0,0,1,5.91,2A7.4,7.4,0,0,1,488.26,729.78Zm-3.42.09c0-3.34-1.48-5-4.42-5h-1.76V735h1.42Q484.84,735,484.84,729.87Z" transform="translate(-151 -222.09)"/><path class="cls-14" d="M500.43,737.7h-8.95V722.16h8.95v2.7h-5.65v3.41H500V731h-5.26v4h5.65Z" transform="translate(-151 -222.09)"/><path class="cls-14" d="M507,731.74v6h-3.29V722.16h4.53a7.71,7.71,0,0,1,4.68,1.15,4.61,4.61,0,0,1,.77,5.94,4.92,4.92,0,0,1-2.14,1.68q3.51,5.24,4.57,6.77h-3.65l-3.71-6Zm0-2.68H508a4.09,4.09,0,0,0,2.3-.52,1.87,1.87,0,0,0,.75-1.64,1.7,1.7,0,0,0-.76-1.57,4.67,4.67,0,0,0-2.36-.47h-1Z" transform="translate(-151 -222.09)"/><path class="cls-14" d="M659.65,693.43c0,2.89-.48,5-1.42,6.41a4.94,4.94,0,0,1-4.37,2.08,4.88,4.88,0,0,1-4.31-2.15q-1.45-2.14-1.45-6.34,0-4.36,1.41-6.44a5.48,5.48,0,0,1,8.67.09A11.36,11.36,0,0,1,659.65,693.43Zm-8.08,0a12.91,12.91,0,0,0,.52,4.36,1.84,1.84,0,0,0,3.53,0,12.28,12.28,0,0,0,.55-4.34,12.54,12.54,0,0,0-.55-4.36,1.84,1.84,0,0,0-1.76-1.33,1.82,1.82,0,0,0-1.76,1.33A12.9,12.9,0,0,0,651.57,693.43Z" transform="translate(-151 -222.09)"/><path class="cls-14" d="M672.85,693.43c0,2.89-.47,5-1.42,6.41a4.92,4.92,0,0,1-4.36,2.08,4.87,4.87,0,0,1-4.31-2.15q-1.46-2.14-1.45-6.34,0-4.36,1.41-6.44a5.48,5.48,0,0,1,8.67.09A11.45,11.45,0,0,1,672.85,693.43Zm-8.08,0a12.86,12.86,0,0,0,.53,4.36,1.84,1.84,0,0,0,3.53,0,12.57,12.57,0,0,0,.54-4.34,12.3,12.3,0,0,0-.55-4.36,1.82,1.82,0,0,0-3.51,0A12.59,12.59,0,0,0,664.77,693.43Z" transform="translate(-151 -222.09)"/><path class="cls-14" d="M683.12,685.17,677,701.69h-3.13L680,685.17Z" transform="translate(-151 -222.09)"/><path class="cls-14" d="M695.61,693.43c0,2.89-.47,5-1.41,6.41a4.94,4.94,0,0,1-4.37,2.08,4.87,4.87,0,0,1-4.31-2.15q-1.46-2.14-1.45-6.34,0-4.36,1.41-6.44a5.48,5.48,0,0,1,8.67.09A11.36,11.36,0,0,1,695.61,693.43Zm-8.07,0a12.91,12.91,0,0,0,.52,4.36,1.84,1.84,0,0,0,3.53,0,17.79,17.79,0,0,0,0-8.7,1.84,1.84,0,0,0-1.76-1.33,1.82,1.82,0,0,0-1.76,1.33A12.64,12.64,0,0,0,687.54,693.43Z" transform="translate(-151 -222.09)"/><path class="cls-14" d="M708.82,693.43c0,2.89-.47,5-1.42,6.41a4.92,4.92,0,0,1-4.36,2.08,4.85,4.85,0,0,1-4.31-2.15,11.32,11.32,0,0,1-1.46-6.34c0-2.91.48-5.06,1.42-6.44a5.48,5.48,0,0,1,8.67.09A11.45,11.45,0,0,1,708.82,693.43Zm-8.08,0a12.86,12.86,0,0,0,.53,4.36,1.84,1.84,0,0,0,3.53,0,12.57,12.57,0,0,0,.54-4.34,12.3,12.3,0,0,0-.55-4.36,1.83,1.83,0,0,0-3.52,0A12.9,12.9,0,0,0,700.74,693.43Z" transform="translate(-151 -222.09)"/><path class="cls-14" d="M619.45,684.81h1.37l-2.17,6.4h-1.48l-2.17-6.4h1.37l1.2,3.81q.1.33.21.78a5.87,5.87,0,0,1,.13.63,12.13,12.13,0,0,1,.33-1.41Z" transform="translate(-151 -222.09)"/><path class="cls-14" d="M625.54,691.21l-.46-1.53h-2.33l-.47,1.53h-1.46l2.26-6.42h1.66l2.26,6.42Zm-.79-2.66c-.42-1.38-.67-2.16-.72-2.34l-.12-.43c-.09.37-.37,1.3-.82,2.77Z" transform="translate(-151 -222.09)"/><path class="cls-14" d="M627.81,691.21v-6.4h1.35v5.28h2.6v1.12Z" transform="translate(-151 -222.09)"/><path class="cls-14" d="M632.87,691.21v-6.4h1.35v6.4Z" transform="translate(-151 -222.09)"/><path class="cls-14" d="M641.14,688a3.15,3.15,0,0,1-.9,2.42,3.68,3.68,0,0,1-2.6.84h-1.81v-6.4h2a3.39,3.39,0,0,1,2.43.83A3,3,0,0,1,641.14,688Zm-1.41,0c0-1.37-.61-2.06-1.82-2.06h-.72v4.17h.58C639.08,690.09,639.73,689.39,639.73,688Z" transform="translate(-151 -222.09)"/><path class="cls-14" d="M618.27,702h-1.35v-5.27h-1.74v-1.13H620v1.13h-1.74Z" transform="translate(-151 -222.09)"/><path class="cls-14" d="M626.23,702h-1.35V699.2h-2.53V702H621v-6.4h1.36v2.51h2.53v-2.51h1.35Z" transform="translate(-151 -222.09)"/><path class="cls-14" d="M629.2,699.5V702h-1.35v-6.4h1.86a3.17,3.17,0,0,1,1.93.48,1.69,1.69,0,0,1,.62,1.44,1.67,1.67,0,0,1-.31,1,2.06,2.06,0,0,1-.88.69c1,1.44,1.59,2.37,1.88,2.79h-1.5l-1.53-2.46Zm0-1.1h.44a1.71,1.71,0,0,0,1-.21.79.79,0,0,0,.3-.68.7.7,0,0,0-.31-.65,2,2,0,0,0-1-.19h-.41Z" transform="translate(-151 -222.09)"/><path class="cls-14" d="M639,695.56v4.14a2.38,2.38,0,0,1-.31,1.24,2,2,0,0,1-.92.82,3.27,3.27,0,0,1-1.42.28,2.7,2.7,0,0,1-1.91-.63,2.23,2.23,0,0,1-.69-1.73v-4.12h1.36v3.92a1.68,1.68,0,0,0,.29,1.08,1.25,1.25,0,0,0,1,.35,1.21,1.21,0,0,0,1-.35,1.65,1.65,0,0,0,.3-1.09v-3.91Z" transform="translate(-151 -222.09)"/><circle class="cls-15" cx="637" cy="494.83" r="21"/><circle class="cls-16" cx="609.89" cy="494.83" r="21"/></svg>