<svg xmlns="http://www.w3.org/2000/svg" viewBox="0 0 1500 1500"><defs><style>.cls-1{fill:#fff;}.cls-2{fill:#e52443;}.cls-2,.cls-3,.cls-4,.cls-5,.cls-6,.cls-7,.cls-8{fill-rule:evenodd;}.cls-3{fill:#99163e;}.cls-4{fill:#85b03f;}.cls-5{fill:#619630;}.cls-6{fill:#297052;}.cls-7{fill:#ff6750;}.cls-8{fill:#ffafae;}</style></defs><g id="ƒŒƒCƒ__6" data-name="ƒŒƒCƒ„[_6"><rect class="cls-1" width="1500" height="1500" rx="418.14"/><path class="cls-2" d="M185.14,1202.05c-22,22.71-36.68,53.71-20.78,63.84,14.77,9.4,38.25-34.68,104.74-45.14,93.14-14.66,171,12.5,268.94,22.83,219.74,23.18,484.33-84.47,619.66-262.61,89.37-117.63,102.17-218.46,95.66-284.63-15.53-157.72-168.16-207-285.88-138.85-65.05,37.68-83.75,110.71-106.16,184.59-53.14,175.17-185.13,304.23-351.15,354.12-127.23,38.24-267,45.91-325,105.85" transform="translate(-4 -4)"/><path class="cls-3" d="M164.36,1265.89c14.77,9.4,38.25-34.68,104.74-45.14,93.14-14.66,171,12.5,268.94,22.83,219.74,23.18,484.33-84.47,619.66-262.61,76.79-101.07,157.31-302.53,36-410.25C1197.47,710.13,1160,871.58,1007.42,993c-311,247.49-434.32,124.23-731,203.12-82.23,21.86-112,69.81-112,69.81" transform="translate(-4 -4)"/><path class="cls-4" d="M981.25,552.28c12.48-30.63,67.58-35.55,96.15-47.24,22-9,27.93-16.38,33.12-39.34,10.76-47.51,24-159.57,56.39-203.13,34.25-42,83.26-50.28,102.78-51.88a12.35,12.35,0,0,1,12.64,8.83c4.42,13.47,8.75,37-3.62,38.23-13.61,1.35-57.14,6.08-81.21,36.82-25.7,32.81-46,125.74-45,174.56.5,23.27,8,42.36,24.73,58.79,26.2,25.76,61,53.43,64.53,111.35-57.77-65.31-163-100.86-260.53-87" transform="translate(-4 -4)"/><path class="cls-5" d="M1066.52,508.87c3.91-1.22,7.57-2.48,10.88-3.83,22-9,27.93-16.38,33.12-39.34,10.76-47.51,24-159.57,56.39-203.13l1.46-1.76c-6,32.07-13.12,70.84-18.34,102.28-11,66.19-5.91,122.86-34.22,148.66-12,11-31.14,6.48-49.29-2.88" transform="translate(-4 -4)"/><path class="cls-6" d="M981.25,552.28c11.47-28.13,58.88-34.58,88.68-44.5h0s53.77-4.38,62.09-40c16.11-68.92,10.47-165.29,81.87-210.43,22.36-14.13,47.48-23.11,58.8-33.75,4.07-3.82,10.38-3.95,12,4.15,2.6,13.23,4.14,29-6,30-13.61,1.35-57.14,6.08-81.21,36.82-25.7,32.81-46,125.74-45,174.56.5,23.27,8,42.36,24.73,58.79,26.2,25.76,61,53.43,64.53,111.35-70.74-67.31-174.27-101.94-260.53-87" transform="translate(-4 -4)"/><path class="cls-7" d="M1069,837.31c-38.73,58.5-97.28,101.63-161,130.66-12.66,5.77-27.06,2.17-36.38-9.08a34.3,34.3,0,0,1-3.56-39.17c38.29-66.27,60.33-136.6,75.84-195,11.57-43.52,23.25-97.36,53.34-124.79,44.14-40.24,110.16-19.12,127.33,40.22,18.35,63.4-25.13,151.12-55.59,197.14" transform="translate(-4 -4)"/><path class="cls-5" d="M1151.33,527.08a118.88,118.88,0,0,0-23.49-8.08,2.66,2.66,0,0,1-1.28-4.4c4.36-4.34,8.09-10.62,11.27-18.67a2.31,2.31,0,0,1,2.27-1.51,2.5,2.5,0,0,1,2.23,1.71,231.46,231.46,0,0,0,12,27.43,2.61,2.61,0,0,1-.3,2.92,2.26,2.26,0,0,1-2.72.6" transform="translate(-4 -4)"/><path class="cls-8" d="M917.63,719.75c-21,12.81-27.83,47.4-16.11,64.54,19.05,27.88,66.48,6.7,63.93-38.21-.43-7.52,4.26-14,11.2-15.42,44.49-9.27,101.77-36.57,106.23-99,4.2-58.82-55.9-88.84-108.15-44.78-33.55,28.29-49.12,79.2-50.18,120.52a14.48,14.48,0,0,1-6.92,12.38" transform="translate(-4 -4)"/><path class="cls-8" d="M548.29,1115.44c45.18-14.48,91.13-34.53,132.82-54.36a7,7,0,0,1,8.42,2,7.92,7.92,0,0,1,1,9C667,1114.3,604.3,1128.56,551,1130.36a7.54,7.54,0,0,1-7.53-6.39,7.38,7.38,0,0,1,4.8-8.53" transform="translate(-4 -4)"/></g></svg>