<svg xmlns="http://www.w3.org/2000/svg" viewBox="0 0 831.03 1099.23"><defs><style>.cls-1{fill:#fff;}</style></defs><g id="ƒŒƒCƒ__6" data-name="ƒŒƒCƒ„[_6"><path d="M1626,1106.94c28.38-13.5,58.35-21.81,89.14-21.81,23,0,52.16,5.24,86.64,22,37.11-73.5,87.09-112,129.38-142.78,23-16.71,20.35-55.78.91-65.85-30-15.52-75.76-12.12-106.18.26,9.8-32.75-14.06-66.86-54.58-72.9-52.46-7.83-78.86,48.14-118.69,50.35-30,1.67-52.13-16.29-85.57-5.86s-30.89,46.79-16.45,94C1567.13,1018.3,1594.4,1073,1626,1106.94Z" transform="translate(-1300.01 -825.16)"/><path d="M2129.61,1724.14c-16.06,120.32-78.19,200.25-414.43,200.25-346.26,0-402.65-99.16-414.43-220-15.4-158,213.65-586.23,414.43-586.23C1907.49,1118.12,2152,1556.31,2129.61,1724.14Z" transform="translate(-1300.01 -825.16)"/><path class="cls-1" d="M1825.93,898.81s-7.63,19.56-26.21,80.26c0,0,31-74.75,68.26-96.63l-23-36.25Z" transform="translate(-1300.01 -825.16)"/><path class="cls-1" d="M1695.12,1748V1721.7l-3.25-.36c-41.74-4.66-85.13-22.32-114.12-46.31l36.2-56.26c43.19,26.45,75.46,37.28,110.7,37.28,31.43,0,49.46-11.64,49.46-31.94,0-23.41-30.94-35-66.76-48.41-25.63-9.6-54.68-20.48-76.92-37.19-25.14-18.87-37.35-42.21-37.35-71.33,0-51.25,37-87.62,99-97.28l3.09-.48V1343a26.6,26.6,0,0,1,26.6-26.61h0a26.61,26.61,0,0,1,26.61,26.61v25.53l3.18.42c36.48,4.76,66.77,19.93,95,47.64l-40.84,47.28c-27.66-19.11-51-30.12-85.68-30.12-42.11,0-46.65,22.48-46.65,32.15,0,19.5,27.39,29.37,62.08,41.86,26.35,9.49,56.22,20.24,79.55,37.19,26.51,19.27,39.4,43,39.4,72.71,0,25.08-9.06,47.61-26.19,65.16-17.94,18.38-44.51,31-76.85,36.43l-3,.51V1748a26.61,26.61,0,0,1-26.61,26.61h0A26.61,26.61,0,0,1,1695.12,1748Z" transform="translate(-1300.01 -825.16)"/></g></svg>