<svg xmlns="http://www.w3.org/2000/svg" viewBox="0 0 314.75 64.59"><defs><style>.cls-1{isolation:isolate;}.cls-2{fill:#f5fdff;opacity:0.25;}.cls-3{fill:#a3b7cc;}.cls-4{fill:#cad6e3;}.cls-5{fill:#40505f;}.cls-6{fill:#2f3f4f;}.cls-7{fill:#97acc2;}.cls-8{fill:#6f8296;}.cls-9{fill:#3d6372;}.cls-10{fill:#8ec536;}.cls-11{fill:#f1625c;}.cls-12{fill:#5d8a9c;}.cls-13,.cls-17{mix-blend-mode:multiply;}.cls-14,.cls-17{fill:#bad5d9;}.cls-15{fill:#d8e4f2;}.cls-16{fill:#66cded;}</style></defs><g class="cls-1"><g id="Layer_1" data-name="Layer 1"><rect class="cls-2" x="299.66" y="50.42" width="15.1" height="0.55"/><path class="cls-3" d="M76.2,592.31v10.43h53.57a1.91,1.91,0,0,0,1.91-1.91v-8.52Z" transform="translate(-43.93 -538.15)"/><rect class="cls-4" x="6.48" y="23.66" width="83.57" height="30.5" rx="1.96"/><rect class="cls-5" y="37.56" width="35.9" height="27.03" rx="1.36"/><rect class="cls-6" x="2.7" y="39.01" width="6.93" height="23.58" rx="3.46"/><rect class="cls-6" x="10.56" y="39.01" width="6.93" height="23.58" rx="3.46"/><rect class="cls-6" x="18.42" y="39.01" width="6.93" height="23.58" rx="3.46"/><rect class="cls-6" x="26.28" y="39.01" width="6.93" height="23.58" rx="3.46"/><path class="cls-7" d="M134,584.92H116.58a2.13,2.13,0,0,1-2.12-2.13v-21h.31v21a1.82,1.82,0,0,0,1.81,1.82H134Z" transform="translate(-43.93 -538.15)"/><rect class="cls-7" x="35.9" y="40.85" width="34.78" height="0.31"/><path class="cls-8" d="M126.52,602.74h-.31v-5.63a1.33,1.33,0,0,0-1.33-1.32h-45v-.32h45.05a1.65,1.65,0,0,1,1.64,1.64Z" transform="translate(-43.93 -538.15)"/><rect class="cls-9" x="10.56" y="27.86" width="5.29" height="5.29" rx="0.69"/><rect class="cls-10" x="12.76" y="29.42" width="0.88" height="2.17"/><rect class="cls-7" x="74.47" y="25.8" width="5.37" height="2.57" rx="0.52"/><rect class="cls-7" x="80.89" y="25.8" width="5.37" height="2.57" rx="0.52"/><rect class="cls-7" x="74.47" y="29.84" width="5.37" height="2.57" rx="0.52"/><rect class="cls-7" x="80.89" y="29.84" width="5.37" height="2.57" rx="0.52"/><rect class="cls-7" x="74.47" y="33.89" width="5.37" height="2.57" rx="0.52"/><rect class="cls-7" x="80.89" y="33.89" width="5.37" height="2.57" rx="0.52"/><rect class="cls-10" x="74.47" y="37.93" width="5.37" height="2.57" rx="0.52"/><rect class="cls-11" x="80.89" y="37.93" width="5.37" height="2.57" rx="0.52"/><path class="cls-9" d="M108.53,548.73H69.39a1.33,1.33,0,0,0-1.32,1.33v11.75h41.78V550.06A1.33,1.33,0,0,0,108.53,548.73Z" transform="translate(-43.93 -538.15)"/><path class="cls-12" d="M104.8,538.15H73.12a1.07,1.07,0,0,0-1.07,1.07v9.51h33.82v-9.51A1.07,1.07,0,0,0,104.8,538.15Z" transform="translate(-43.93 -538.15)"/><g class="cls-13"><rect class="cls-14" x="31.92" y="0.99" width="0.7" height="22.67"/><rect class="cls-14" x="57.44" y="0.99" width="0.7" height="22.67"/></g><rect class="cls-12" x="42.69" y="28.06" width="11.15" height="4.34" rx="0.8"/><path class="cls-15" d="M129.71,551.38H113.89a.94.94,0,0,0-.94.93v9.5h17.69v-9.5A.93.93,0,0,0,129.71,551.38Z" transform="translate(-43.93 -538.15)"/><rect class="cls-16" x="70.27" y="14.47" width="15.2" height="7.94" rx="0.8"/><path class="cls-17" d="M128.59,552.63H115a.8.8,0,0,0-.8.8v.86a.8.8,0,0,1,.8-.81h13.59a.81.81,0,0,1,.81.81v-.86A.8.8,0,0,0,128.59,552.63Z" transform="translate(-43.93 -538.15)"/><path class="cls-2" d="M128.59,560.08H115a.8.8,0,0,1-.8-.8v.48a.8.8,0,0,0,.8.8h13.59a.8.8,0,0,0,.81-.8v-.48A.8.8,0,0,1,128.59,560.08Z" transform="translate(-43.93 -538.15)"/><path class="cls-17" d="M80.68,577.63h-.85v23.75a1.36,1.36,0,0,1-1.36,1.36h2.21A1.27,1.27,0,0,0,82,601.47V578.9A1.27,1.27,0,0,0,80.68,577.63Z" transform="translate(-43.93 -538.15)"/><rect class="cls-17" x="35.9" y="54.16" width="51.85" height="1.78"/><rect class="cls-17" x="24.14" y="22.07" width="41.79" height="1.59"/><rect class="cls-17" x="28.11" y="9" width="33.83" height="1.59"/></g></g></svg>