<?xml version="1.0" encoding="utf-8"?>
<!-- Generator: Adobe Illustrator 25.0.0, SVG Export Plug-In . SVG Version: 6.00 Build 0)  -->
<svg version="1.1" id="Layer_1" xmlns="http://www.w3.org/2000/svg" xmlns:xlink="http://www.w3.org/1999/xlink" x="0px" y="0px"
	 viewBox="0 0 1500 1500" style="enable-background:new 0 0 1500 1500;" xml:space="preserve">
<style type="text/css">
	.st0{fill:#FFFFFF;}
	.st1{fill:#154902;}
	.st2{fill:url(#SVGID_1_);}
	.st3{fill:#F4F2EF;}
	.st4{fill:#FFAC06;}
	.st5{fill:#DDDAD7;}
	.st6{fill:#F7F4F0;}
	.st7{fill:#FFC950;}
	.st8{fill:url(#SVGID_2_);}
	.st9{fill:#C7AE57;}
	.st10{fill:url(#SVGID_3_);}
	.st11{fill:url(#SVGID_4_);}
	.st12{fill:#1C1818;}
	.st13{fill:#F2D78C;}
	.st14{fill:url(#SVGID_5_);}
	.st15{fill:#DDD3B6;}
	.st16{fill:#436826;}
	.st17{fill:#A08F58;}
	.st18{fill:#0C0909;}
	.st19{fill:#282424;}
	.st20{fill:#352E2E;}
	.st21{fill:#050404;}
	.st22{fill:#648C41;}
	.st23{fill:#BEAD6C;}
	.st24{fill:#FF9900;}
	.st25{fill:url(#SVGID_6_);}
	.st26{fill:#EADADA;}
	.st27{fill:#E0CDCD;}
	.st28{fill:#AF592E;}
	.st29{fill:url(#SVGID_7_);}
	.st30{fill:#A04B25;}
	.st31{fill:url(#SVGID_8_);}
	.st32{fill:url(#SVGID_9_);}
	.st33{fill:#FCCDCD;}
	.st34{fill:#C9A9A9;}
	.st35{fill:#FF8D91;}
	.st36{fill:#C16130;}
	.st37{fill:#843617;}
	.st38{fill:url(#SVGID_10_);}
	.st39{fill:#512603;}
	.st40{fill:url(#SVGID_11_);}
	.st41{fill:#3A1A02;}
	.st42{fill:#9E541D;}
	.st43{fill:url(#SVGID_12_);}
	.st44{fill:url(#SVGID_13_);}
	.st45{fill:url(#SVGID_14_);}
	.st46{fill:url(#SVGID_15_);}
	.st47{fill:#349917;}
	.st48{fill:url(#SVGID_16_);}
	.st49{fill:#2A7F0E;}
	.st50{fill:url(#SVGID_17_);}
	.st51{fill:#DBD27E;}
	.st52{fill:#AFA348;}
	.st53{fill:#2F930A;}
	.st54{fill:#1F6605;}
	.st55{fill:#2B8207;}
	.st56{fill:#E2E1E0;}
	.st57{fill:#349B34;}
	.st58{fill:#66CC66;}
	.st59{fill:#83E583;}
	.st60{fill:#D6D1CC;}
	.st61{fill:#FFFEFD;}
	.st62{fill:#F2A86B;}
	.st63{fill:#F9BF8C;}
	.st64{fill:#EFEEED;}
	.st65{fill:#FFD2A1;}
	.st66{fill:#E5E0DA;}
	.st67{opacity:0.5;fill:#E5E0DA;enable-background:new    ;}
	.st68{fill:url(#SVGID_18_);}
	.st69{fill:url(#SVGID_19_);}
	.st70{fill:url(#SVGID_20_);}
</style>
<g id="ƒŒƒCƒ__6">
	<path class="st0" d="M338.7-8.5h827.4c185.7,0,336.3,150.6,336.3,336.3v827.4c0,185.7-150.6,336.3-336.3,336.3H338.7
		c-185.7,0-336.3-150.6-336.3-336.3V327.8C2.4,142.1,152.9-8.5,338.7-8.5z"/>
	<path class="st1" d="M240.3,746.6c8,96.3,16,192.5,24,288.8c4,48.1,8,96.3,12,144.4c2.6,30.8,2.5,66,29.6,84
		c27.4,18.2,68.7,13.4,99.2,14.8c44.4,2.2,88.8,3.6,133.2,4.3c66.2,1,330.8,1,397,0c44.4-0.7,88.8-2.1,133.2-4.3
		c30.5-1.5,71.8,3.3,99.2-14.8c27.1-18,27.1-53.2,29.6-84c4-48.1,8-96.3,12-144.4c8-96.3,16-192.5,24-288.8
		C1234.4,733,239.1,732.4,240.3,746.6z M442.4,1212.7c0,25.1-46.5,20.2-46.5,0.6v-186.5c0-15.2,46.5-12.4,46.5-0.8V1212.7z
		 M442.4,970.2c0,23.6-46.5,19-46.5,0.5V794.9c0-14.3,46.5-11.7,46.5-0.7V970.2z M548.3,1212.7c0,25.1-46.5,20.2-46.5,0.6v-186.5
		c0-15.2,46.5-12.4,46.5-0.8V1212.7z M548.3,970.2c0,23.6-46.5,19-46.5,0.5V794.9c0-14.3,46.5-11.7,46.5-0.7V970.2z M646.1,1212.7
		c0,25.1-46.5,20.2-46.5,0.6v-186.5c0-15.2,46.5-12.4,46.5-0.8V1212.7z M646.1,970.2c0,23.6-46.5,19-46.5,0.5V794.9
		c0-14.3,46.5-11.7,46.5-0.7V970.2z M745.5,1212.7c0,25.1-46.5,20.2-46.5,0.6v-186.5c0-15.2,46.5-12.4,46.5-0.8V1212.7z
		 M745.5,970.2c0,23.6-46.5,19-46.5,0.5V794.9c0-14.3,46.5-11.7,46.5-0.7V970.2z M851.9,1212.7c0,25.1-46.5,20.2-46.5,0.6v-186.5
		c0-15.2,46.5-12.4,46.5-0.8V1212.7z M851.9,970.2c0,23.6-46.5,19-46.5,0.5V794.9c0-14.3,46.5-11.7,46.5-0.7V970.2z M948.6,1212.7
		c0,25.1-46.5,20.2-46.5,0.6v-186.5c0-15.2,46.5-12.4,46.5-0.8L948.6,1212.7z M948.6,970.2c0,23.6-46.5,19-46.5,0.5V794.9
		c0-14.3,46.5-11.7,46.5-0.7L948.6,970.2z M1053.6,1212.7c0,25.1-46.5,20.2-46.5,0.6v-186.5c0-15.2,46.5-12.4,46.5-0.8V1212.7z
		 M1053.6,970.2c0,23.6-46.5,19-46.5,0.5V794.9c0-14.3,46.5-11.7,46.5-0.7V970.2z"/>
	<linearGradient id="SVGID_1_" gradientUnits="userSpaceOnUse" x1="843.5579" y1="453.6152" x2="1159.0757" y2="453.6152">
		<stop  offset="0" style="stop-color:#FF9500"/>
		<stop  offset="1" style="stop-color:#FFEE2A"/>
	</linearGradient>
	<path class="st2" d="M1135.8,480.7c7.8-40.9,25.4-114,23.1-125.4s-12.9-65.1-17.7-73.7c2.8-10.7,5.5-21.5,8-32.2
		c1.7-7.1,1.5-14.1-4.5-19.3c-5.3-4.5-12.5-5.8-19.2-6.9L1014.1,204l-62.8-10.8c-3.4-0.7-6.7,1.3-7.7,4.6
		c-5.6,15.4-9.2,31.5-10.7,47.9c-21.4,14.3-41,30.3-57.8,49.9c-0.2,0.2-0.3,0.4-0.5,0.6c-1.8,0.7-3.2,2.3-3.6,4.2
		c-7.6,31.6-15,63.2-22.2,94.9c-43.5,205.8,203.8,370.5,243.3,303.5C1107.2,626.4,1121.8,553.6,1135.8,480.7z"/>
	<path class="st3" d="M1074,687c-11-14.3-2.6-29.7,2.4-44.4c4.8-14,5.3-32.2-7.4-43.2c-6.7-5.8-15.7-7.4-24.4-5.7
		c-8.2,1.6-15.2,6.1-23.2,8.4c-4.3,1.2-10.7,0.7-13.8-1.7l-0.5-0.4c0-0.1-0.1-0.1-0.1-0.2c-0.2-0.2-0.6-1.3-0.5-0.9
		c-0.2-0.6-0.1-0.7,0.2-1.6c0.6-1.7,2.8-3.9,4.5-5.5c4.6-4.4,10.2-8.8,11.4-15.2c1.5-8.1-4.9-15.4-13.3-17
		c-3.6-0.5-7.2-0.8-10.8-0.7c-2.8,0-6.7,0.3-8.9-1.6c-3.8-3.2-2.1-10,0.5-13.6c4.8-6.8,13-11.1,19.3-16.4
		c6.9-5.7,12.5-12.9,16.2-21.1c6.7-15.5,4.4-33.6-10-44.9c-13.8-10.8-32.2-10-44.4,2.1c-5.9,5.8-9.7,13.1-12.9,20.4
		s-6.2,15.7-12,21.7c-4.1,4.2-9.5,6.4-15.3,5.2c-6.5-1.3-7.6-5-6-11.1c5.2-19.8,11.9-39.4,17.9-59c3.1-10.2,6.2-20.3,9.2-30.4
		c2.1-6.8,3.5-14,2.3-21.1c-1.1-6.8-4.5-13.5-11.7-16.4c-7.3-3-15.7-1.4-21.3,4.1c-5.2,4.8-8,11.9-9.6,18.5
		c-2.3,9.6-3.6,19.6-5.3,29.3l-5.6,31.1c-1.5,8.7-2.6,17.9-6.5,26c-3.2,6.6-8.5,12.4-16.5,13.9c-6.4,1.2-11.7-1.9-14-7.5
		c-3-7.5-0.8-15.6,1.6-22.9c3-9.1,6.5-18.1,6.2-27.9c-0.4-15.2-8.6-30.4-21.1-40.3l-1.7-1.3c-10.2,45.1-20,90.2-29.4,135.5
		c-15.9,77.1-30.5,154.4-43.8,232c-7.5,43.4-14.5,87-21.1,130.6c-0.5,3.6,1.2,6.3,4.8,7.5c53.2,18,106.4,35.9,159.7,53.6
		c15.1,5,30.2,10,45.2,15c1.9,0.8,4.1,0.4,5.6-1c14-4.6,24.2-14.9,35.4-23.9c10.6-8.6,38.1-25.1,38.8-28.3
		c16.7-72.3,32.7-144.8,48-217.5c0,0,0,0,0-0.1C1084.8,696.9,1078.5,692.8,1074,687z"/>
	<path class="st4" d="M1044.1,386.4c0-1.2-0.9-2.1-2-2.2c-0.6,0-1.1,0.2-1.5,0.6c-0.7,0.3-1.3,0.9-1.4,1.7
		c-1.5,6.1-2.6,12.3-3.1,18.6c-0.2,2.5,3,2.9,3.9,0.9C1043,400,1044.4,393.2,1044.1,386.4z"/>
	<path class="st4" d="M1064.2,352.7c0.2-1.1-0.6-2.1-1.7-2.3c-0.8-0.1-1.5,0.2-1.9,0.9c-1.1-0.1-2.1,0.7-2.3,1.8
		c-1.7,6.1-3.2,12.3-4.4,18.5c-0.4,2,1.5,3.7,3.1,2.5C1063.5,369.2,1064.3,360.5,1064.2,352.7z"/>
	<path class="st4" d="M1049,419.6c0-0.3,0-0.6-0.1-0.8c0,0,0-0.1,0-0.2c-0.4-2.7-3.8-1.7-4.1,0.7l0,0c-1.8,5-3,10.3-3.8,15.6
		c-0.3,2.1,2,4.2,3.5,2.1C1048.2,432,1049.8,425.8,1049,419.6z"/>
	<path class="st4" d="M1020.5,427.5c0.1-1.1-0.6-2-1.6-2.2c-0.5-0.1-1,0-1.4,0.3c-1.2-0.2-2.3,0.6-2.5,1.7c0,0,0,0,0,0.1
		c-1.5,6.1-2.5,12.2-3.1,18.5c-0.2,2.5,3,2.9,3.9,0.9C1018.7,440.7,1020.3,434.2,1020.5,427.5z"/>
	<path class="st4" d="M1000.4,359.3c0.1-2.8-3.5-2.8-4.1-0.4c-0.6,0.2-1,0.7-1.1,1.3c-1.9,5.1-3,10.5-3.2,16
		c-0.3,1.1,0.4,2.2,1.5,2.4s2.2-0.4,2.4-1.5C998.8,371.6,1000.3,365.5,1000.4,359.3z"/>
	<path class="st0" d="M943.4,818.2c0.1-0.2,0.1-0.4,0.2-0.5l0,0v-0.1c3.1-7.2,4.9-14.9,5.5-22.7c0.1-0.4,0.2-0.7,0.3-1.1
		c0.7-2.9-3.8-4.1-4.5-1.2c-0.1,0.3-0.1,0.5-0.2,0.8c0,0.1-0.1,0.3-0.1,0.4v0.1c-1.8,7.5-3.7,15-5.5,22.6
		C938.5,818.9,942.3,820.7,943.4,818.2z"/>
	<path class="st0" d="M945.3,852.5c-0.6-0.4-1.3-0.5-2-0.3c-0.8,0.2-1.4,0.7-1.6,1.5l-6.1,16.3c-0.9,2.4,2.3,3.5,3.9,2.2
		c5.1-4.3,7.6-10.9,6.7-17.4C946.5,853.9,946.1,852.9,945.3,852.5z"/>
	<path class="st0" d="M973.3,813.8c0-2.5-3.1-2.6-4.2-0.9c-1.3-0.3-2.5,0.5-2.8,1.7c-2.2,8.3-4.4,16.5-6.6,24.8
		c-0.6,2.3,2.6,3.7,4,1.9C970,833.6,973.4,823.8,973.3,813.8z"/>
	<path class="st0" d="M932.4,907c0.7-3.8,1.2-8.8-0.3-11.5c-1.2-2.2-3-1.9-4.3-0.3c-0.7,0.3-1.1,0.9-1.2,1.7
		c-1.5,8.1-2.9,16.2-4.3,24.3c-0.4,2.3,1.8,3.4,3,1.8c3.1-3.9,5.4-8.4,6.5-13.3c0-0.1,0-0.2,0.1-0.3l0.2-0.3
		C932.5,908.5,932.6,907.7,932.4,907z"/>
	<path class="st0" d="M971.1,789.9c3.7-4.8,5.4-10.9,4.8-16.9c-0.3-2.8-4.4-2.8-4.6-0.3c-0.8,0.1-1.5,0.8-1.6,1.7
		c-0.8,4.5-1.7,8.9-2.5,13.4C966.9,789.8,969.6,791.9,971.1,789.9z"/>
	<path class="st0" d="M958.1,892.6c-1.1-1.3-3.8-1.2-4.2,1c-0.7,4.4-1.4,8.7-2.1,13.1c-0.4,2.2,2.8,3.6,4.2,1.8
		c2.9-4,4.4-8.9,4.3-13.9c0-1.1-0.8-1.9-1.9-2C958.2,892.6,958.2,892.6,958.1,892.6z"/>
	<path class="st0" d="M1156.4,349c-14.5-13.8-30.6-22.7-47.5-33.5c9.4-12.4,19.7-24.1,30.8-35c0.5-0.5,0.7-1.2,0.4-1.9
		c-0.1-0.8-0.7-1.3-1.5-1.4c-67.1-12.6-134.5-23.8-202.1-33.6c-2.5-0.4-3.5,3.4-0.9,3.8c66.4,9.7,132.6,20.7,198.6,33
		c-16.5,16.6-31.2,34.9-43.7,54.7l-164.8-31.3l-47-8.9c-2.5-0.5-3.5,3.3-0.9,3.8l166,31.5c6.8,1.3,24.8,4.6,44.7,8.6
		c-16.8,81.3-33.3,162.8-49.6,244.2c-16.3,81.8-32.3,163.6-48,245.5c-8.8,45.8-17.5,91.7-26.1,137.6c-0.5,2.5,3.4,3.4,3.9,0.9
		c15.4-82,31.1-163.9,47.1-245.7c16-81.8,32.3-163.6,48.8-245.4c9.2-45.5,18.5-90.9,27.9-136.4c24.6,4.9,51,10.6,62.1,14.4
		C1157.4,355,1158.4,350.9,1156.4,349z M1094.6,336c3.8-5.9,7.7-11.7,11.9-17.4c14.3,9.2,28.2,18.9,41.7,29.2
		C1130.6,342.7,1112.7,338.7,1094.6,336L1094.6,336z"/>
	<path class="st5" d="M1048.6,247.3c-1.7-2-81.8,0.5-82.2,3.3c-1.6,10.9-3,22.6-4,33.5c-0.4,4.8,15.5,18.1,45.7,18
		c18.1-0.1,40.2-6.8,43.7-18.8C1054.3,274.3,1053,252.5,1048.6,247.3z"/>
	<path class="st6" d="M1049,252.7c-2.1,11-22.4,19.2-45.2,18.2s-39.5-10.7-37.4-21.7s22.4-19.2,45.2-18.2S1051.2,241.7,1049,252.7z"
		/>
	<path class="st0" d="M971.7,264.5c-0.1-0.8-0.8-1.3-1.5-1.3c-0.4,0-0.8,0.3-1.1,0.7c-0.7,1.1-1,2.3-1.1,3.5
		c-1.5,6.2-2.7,12.4-2.7,18.8c0,1.6,2.2,1.6,2.7,0.3C970.5,279.5,971.8,272,971.7,264.5z"/>
	<path class="st0" d="M982,271c0.1-0.5-0.3-1-0.8-1.2c-0.5-0.8-1.8-1.1-2.3,0c-2.7,6.9-4.4,14.2-5,21.6c-0.1,1.3,2,1.7,2.6,0.6
		C979.7,285.4,981.6,278.3,982,271z"/>
	<path class="st0" d="M994.3,288.9c1.1-5,1.7-10.2,1.6-15.4c-0.1-0.8-0.7-1.3-1.5-1.3c-0.3,0-0.5,0.1-0.7,0.3
		c-0.6-0.3-1.4,0.1-1.6,0.7c0,0.1-0.1,0.1-0.1,0.2c-1.2,5.7-2.3,11.3-3.2,17c-0.3,1.6-2,6.7,1.4,6.7
		C993.3,297.2,993.9,290.8,994.3,288.9z"/>
	<path class="st0" d="M1012.1,274.8c-0.1-0.8-0.9-1.4-1.7-1.2c-0.3,0-0.6,0.2-0.8,0.4c-0.6-0.5-1.4-0.4-1.9,0.2
		c-0.1,0.1-0.2,0.3-0.2,0.5c-1.9,8.2-3.7,16.6-2.5,25.1c0.2,1.2,1.9,1.9,2.6,0.6C1011.6,292.4,1013.2,283.6,1012.1,274.8z"/>
	<path class="st0" d="M1026.5,285.6c0.5-3,0.9-6,1.1-9c0.1-1.9,0-3.5-1.4-4.9c-0.6-0.5-1.5-0.4-2,0.2c-0.1,0.1-0.1,0.2-0.2,0.2
		c-0.6,0-1,0.4-1.1,1c-1.3,7.7-2.5,15.4-3.5,23.1c-0.1,0.7,0.3,1.5,1.1,1.6c0.2,0,0.4,0,0.7,0
		C1025.6,296.7,1025.9,289.1,1026.5,285.6z"/>
	<path class="st0" d="M1039.6,284.1c0.7-4.9,0.5-9.9-0.4-14.7c-0.3-1.3-1.7-1.1-2.4-0.3c-0.7-0.2-1.3,0.2-1.5,0.9c0,0,0,0.1,0,0.1
		c-0.6,3.1-4.8,25.1,0.8,24.4c1.2-0.1,1.7-1.2,2-2.2C1038.9,289.6,1039.4,286.9,1039.6,284.1z"/>
	<path class="st0" d="M1048.4,280.1c0.7-5.3,1-10.6,0.8-15.9c0-0.5-0.4-1-0.9-1.2c-0.5-0.5-1.4-0.5-1.9,0.1
		c-0.2,0.2-0.3,0.4-0.3,0.6c-1.1,5.2-2,10.4-2.6,15.7c-0.2,1.8-1.8,8.5,1.5,8.9S1048.2,281.9,1048.4,280.1z"/>
	<path class="st7" d="M885.8,623.2c-0.2-3.7-4.9-4.4-6.9-1.5c-4.8,6.9-9.4,14-13.8,21.2c-0.7-4.9-2-9.7-3.8-14.2
		c-1.7-4-8.8-14-13.9-8.2c-0.3,0.4-0.6,0.8-0.8,1.3c-0.1,0.2-0.3,0.4-0.4,0.6c-5.2,11.2-9.3,22.9-12.3,34.9
		c-1.6,6.3-2.9,12.7-3.7,19.2c-0.5,4.3,1.1,8.3,6,8.8c4.7,0.5,8-2.7,9.5-6.8c2-5.7,2.5-12.1,3.5-18c1.8-10.3,3.4-20.6,4.4-30.9
		c0.3,0.5,0.5,0.9,0.6,1.2c0.8,2,1.5,4.1,1.9,6.2c1.3,5.5,2.3,11.1,3,16.8c0.4,3.4,5,4.8,6.9,1.5c4-6.9,8.2-13.7,12.6-20.4
		c-0.3,18.5-3.7,36.7-7.2,54.9c-0.9,4.5,6.2,6.2,7.1,1.6C883,668.9,887.2,646.2,885.8,623.2z"/>
	<path class="st7" d="M912.3,650c0.5-7.8-8.3-6.7-13.8-7c-3.1-0.2-3.6,9.3-3.9,11.2c-0.7,3.8-1.3,7.6-1.9,11.3
		c-1.2,7.1-2.4,14.1-3.6,21.2c-0.8,4.6-2.8,10.7,3,13c1.8,0.7,4.8,1.1,6.6,0.3c2.5-1.2,3.5-5.1,4.2-7.5c2.2-6.5,3.3-13.5,4.8-20.2
		C909.2,665.1,911.8,657.4,912.3,650z"/>
	<path class="st7" d="M911.8,630.5c-0.9-2.6-3.8-3.9-6.3-2.9c-0.5,0.2-0.9,0.4-1.3,0.7c-1.9,0.7-3.3,2.3-3.7,4.2
		c-0.2,0.8-0.1,1.7,0.2,2.5c0.5,1.3,1.6,2.2,2.9,2.5c1.3,0.4,2.6,0.4,3.9,0C910.5,636.7,912.8,633.5,911.8,630.5z"/>
	<path class="st7" d="M946.7,697.5c0.9-4.5-6.2-6.9-7-2.4c-0.5,2.5-0.7,5.8-1.4,8.6l-2.6-0.7l-6-1.7l-3.2-0.9
		c2.9-12.4,5.8-24.8,8.3-37.4c0.6-3,1.2-6.1,1.8-9.2c0.5-2.8,1.5-6,1.1-8.9c-0.5-4.2-4.2-7.7-8.3-6.9c-1.5-0.2-2.9,0.9-3.1,2.4
		c0,0,0,0,0,0c-3.8,20.1-8.1,39.9-13.1,59.6c-0.4,2,0.8,4,2.7,4.6c7.5,2.2,15.3,5.1,23,6.6C946.2,712.6,945.8,702.5,946.7,697.5z"/>
	<path class="st7" d="M980.2,719.2c-2.1-5.3-4.5-10.4-7.2-15.4c-1.3-2.5-2.8-4.9-4.3-7.3c-1-1.5-2.2-3.1-3.3-4.8
		c1-1,2.3-1.9,3.3-2.8l4.7-4.4l9.3-8.8c3.1-3-2.1-8.9-5.2-5.9c-3.8,3.6-7.6,7.2-11.4,10.8l-2.6,2.5c2-11.2,3.8-22.5,5.5-33.9
		c0.7-4.5-6.3-7.5-7-2.9c-3.3,22.3-7.2,44.3-11.7,66.2c-0.9,4.5,6.1,7.4,7,2.9c1.3-6.2,2.5-12.4,3.7-18.6c0,0,0.1,0.1,0.1,0.1
		c1.6,2.4,3,4.8,4.5,7.2c3,5.2,5.7,10.7,8,16.2C975.2,724.8,982.1,723.9,980.2,719.2z"/>
	<path class="st7" d="M877.9,744.8c-1.1,1.6-3,2.4-5,2c-2-0.5-3.2-2.6-4.3-4.2c-0.6-0.9-1.2-1.8-1.8-2.6c1.9-2.1,3.6-4.4,5.3-6.6
		c3.6-4.5,8.6-12.9,3.3-18.2c-2.1-2.1-6.8-3-9.6-2.5c-3.4,0.6-6.9,4-7.4,7.3c-0.3,1.9,2.7,2.6,3,0.7c0.5-2,1.8-3.7,3.6-4.6
		c1.7-0.9,3.5-0.6,5.3-0.1c2,0.5,3.5,1,4.1,3.2c0.4,1.7,0.4,3.4-0.2,5c-1.1,3.6-3.7,6.5-6,9.4c-1,1.2-2.1,2.8-3.3,4.2
		c-0.9-0.8-2-1.5-3.2-1.8c-2.5-0.8-5.6-0.3-7.2,1.9c-1.6,2-1.2,5,0.8,6.6c0.1,0,0.1,0.1,0.2,0.1c2.7,1.7,5.8,0.5,8.1-1.4
		c0.4-0.3,0.8-0.7,1.2-1.1c1.3,1.8,2.4,3.9,4,5.5c3,2.9,7.8,2.9,10.7-0.1c0.4-0.4,0.8-0.9,1.1-1.3
		C881.6,744.6,879,743.3,877.9,744.8z M860.2,742c-1.1,0.6-3.4,1-3.7-0.9c-0.2-1.1,1-2,2-2.3c1.6-0.3,3.2,0.2,4.3,1.3
		C862.1,740.8,861.2,741.5,860.2,742z"/>
	<path class="st7" d="M885.2,747.3c-1.1-0.7-2.5-0.4-3.2,0.7c-0.7,1.1-0.5,2.6,0.6,3.3c0,0,0.1,0.1,0.2,0.1l0.2,0.1
		c-0.4,0.5-0.8,0.9-1.2,1.3c-1.2,1,0.4,2.7,1.6,1.7c1.3-1.1,2.3-2.5,2.8-4.1c0,0,0-0.1,0.1-0.1c0.6-0.9,0.4-2.2-0.5-2.8
		C885.5,747.5,885.4,747.4,885.2,747.3z"/>
	<path class="st7" d="M914.8,722c-5,1.5-10.1-1.2-15.1-1.7c-0.6-0.1-1.2,0.4-1.3,1c0,0,0,0.1,0,0.1l-0.1,0.1l-4.4,13
		c-0.2,0.8,0.3,1.5,1,1.7c0.4,0.1,0.8,0,1.1-0.2c2.7-1.9,6.2-2,9.1-0.4c2.9,1.9,3.4,6.7,2.3,9.8c-1.1,3.2-4,5.4-7.4,5.7
		c-3.4,0.2-7.9-0.6-7.2-5c0.3-1.8-2.5-2.5-2.8-0.6c-0.8,5.3,2.5,7.8,7.4,8.3s9.6-1.4,11.9-6.1c2.1-4.2,1.7-10.6-1.9-13.8
		c-2.4-2.2-6.5-2.7-9.8-1.8c1-3,2-5.9,3-8.9c5.1,0.6,9.8,3,14.9,1.4C917.2,724.2,916.5,721.5,914.8,722z"/>
	<path class="st7" d="M943.6,729c-10.8,8.3-21.1,17.1-31,26.4c-1.3,1.2,0.7,2.9,2,1.8c9.7-9.2,19.8-17.8,30.3-26
		C946.3,730.2,944.9,728,943.6,729z"/>
	<path class="st7" d="M928.7,726.7c-0.1,0-0.2-0.1-0.3-0.1c-2.8-0.8-6.6,0.9-8.2,3.4c-1.6,2.7-0.8,6.3,2,7.9
		c0.2,0.1,0.5,0.3,0.7,0.4c3.2,1.3,6.8-0.2,8.1-3.3C932.5,731.9,932,727.9,928.7,726.7z M923.3,735.4c-1.3-0.8-1.7-2.6-0.9-3.9
		c0.2-0.3,0.4-0.6,0.7-0.8c0.8-0.7,3.2-1.9,4.3-1.4c0.1,0,0.2,0.1,0.3,0.1l0.2,0.1C931.3,730.5,927.5,738.4,923.3,735.4z"/>
	<path class="st7" d="M939.6,749.6c-1-1.7-2.6-2.2-4.4-2.5c-0.2-0.1-0.4-0.1-0.6-0.1c-3.5,0-6.4,2.6-6.9,6c-0.5,3.8,2.3,6.4,5.7,6.8
		c3.2,0.3,6.2-1.9,6.8-5.1C940.7,753,940.4,751.2,939.6,749.6z M933.5,757.1c-1.9-0.4-3.6-1.8-3.1-4c0.5-1.9,2.1-3.2,4-3.2l0,0
		c1,0,2,0.3,2.8,0.9c0.7,1,1,2.3,0.7,3.5C937.4,756.2,935.5,757.4,933.5,757.1L933.5,757.1z"/>
	<linearGradient id="SVGID_2_" gradientUnits="userSpaceOnUse" x1="197.5354" y1="655.5768" x2="422.7853" y2="655.5768">
		<stop  offset="0" style="stop-color:#FCE7D1"/>
		<stop  offset="1" style="stop-color:#CDC096"/>
	</linearGradient>
	<path class="st8" d="M422.8,759.7c-60,31.3-119.3,45-177.3,32.9l-47.9-245.5c61.2,8.3,120.1-4.1,177.3-32.9L422.8,759.7z"/>
	<path class="st9" d="M421.4,752.6c-20.5,20.4-53.1,27.3-80.7,33.1c-29.8,6.2-65.5,11.7-95.7,4.7l-1.2-6c-7.9,5.1-7.1,16.9,1,18.8
		c32.8,7.7,65.9,2.6,98.4-4.2c29.9-6.2,62.4-12.5,84.6-34.5c5-5-0.4-18.1-7.8-18.5L421.4,752.6z"/>
	<linearGradient id="SVGID_3_" gradientUnits="userSpaceOnUse" x1="195.5815" y1="518.5345" x2="373.1193" y2="518.5345">
		<stop  offset="0" style="stop-color:#FFD4AA"/>
		<stop  offset="1" style="stop-color:#EFC696"/>
	</linearGradient>
	<path class="st10" d="M373,502.1c2.4,12-35.4,29.2-84.4,38.3S198,547,195.7,535s35.4-29.2,84.4-38.3S370.7,490,373,502.1z"/>
	<linearGradient id="SVGID_4_" gradientUnits="userSpaceOnUse" x1="188.4089" y1="518.5325" x2="380.3021" y2="518.5325">
		<stop  offset="0" style="stop-color:#DAAE00"/>
		<stop  offset="1" style="stop-color:#9B812F"/>
	</linearGradient>
	<path class="st11" d="M373.4,487.7c-32.8-7.7-66-2.6-98.4,4.2c-29.8,6.2-62.4,12.5-84.6,34.5c-4.3,4.2-0.9,21.5,5,22.9
		c32.8,7.7,65.9,2.6,98.4-4.2c29.9-6.2,62.4-12.5,84.6-34.5C382.6,506.4,379.3,489.1,373.4,487.7z M200,536.6l-0.4-0.1
		c20.6-20.3,50.5-25.6,78-31.3c29.8-6.2,61-11.8,91.2-4.7l0.4,0.1c-20.5,20.3-50.5,25.6-78,31.3C261.4,538.1,230.1,543.7,200,536.6z
		"/>
	<path class="st12" d="M263.6,581.6c-1.3-4.9-3.7-10.9-8.9-13.6c-3.9-2.2-8.8-0.8-11,3.1c-0.2,0.3-0.3,0.6-0.5,0.9
		c-1.8,4.7-0.5,11.1,1.5,16.2c0.8,2.6,2.5,4.8,4.6,6.4c1.3,0.8,2.8,1.4,4.3,1.5c2.3,0.6,4.7,0.3,6.7-0.9
		C265,592.4,264.9,586.7,263.6,581.6z M252.9,594.4c-1.8-1.5-2.6-3.9-3.2-6.5c-0.6-2.8-1-5.6-1.3-8.4s-0.7-5.5-0.3-7.9
		c0.4-2.1,1.6-3.7,3.4-3.1c3.2,2.4,4.7,7.5,5.8,11.7c0.6,2.5,1.2,5.1,1.7,7.6c0.4,2.2,0.7,4.5-0.4,6c-1,1.2-2.7,1.8-4.2,1.4h-0.2
		C253.8,595.1,253.4,594.7,252.9,594.4L252.9,594.4z"/>
	<path class="st12" d="M286,586.8c-0.1-0.6-0.7-1-1.2-1c-1.4,0.2-2.9,0.3-4.3,0.5c-0.6,0-1,0.5-0.9,1.1c0,0,0,0,0,0
		c0.6,2.7,1.3,5.3,1.3,5.3c-2.2,0.2-4.4,0.5-6.6,0.7l-3.1-16.4c-0.5-2.7-1.5-8.1-1.7-9.1s-5.6-0.1-5.5,0.3
		c1.6,8.9,3.1,17.8,4.7,26.6c0.1,0.6,0.7,1,1.3,1c5.4-0.4,10.8-0.9,16.2-1.6c0.6,0,1-0.5,0.9-1.1c0,0,0,0,0,0
		C286.6,591,286.3,588.9,286,586.8z"/>
	<path class="st12" d="M284.5,566.9c0.5,2.8,5,26.4,5,26.4c0.1,0.7,5.9,0,5.7-0.9c-0.3-2.8-4.2-25.2-4.5-26.6
		S284.3,565.2,284.5,566.9z"/>
	<path class="st12" d="M288.8,557.8c-1.3-1-3.1-1-4.4-0.1c-2.5,1.4-1.7,5.6,1.4,6.2c1.7,0.4,3.4-0.5,4.1-2
		C290.6,560.5,290.1,558.8,288.8,557.8z"/>
	<path class="st12" d="M311.8,561c-0.1,3-0.2,9.4-0.2,14.4c0,2.5-0.4,9.9-0.4,12.4c0,0.2-1.5,0.9-1.9,0.3c-2-3.1-7.1-17-9.6-23.8
		c-0.2-0.4-0.7-0.7-1.2-0.6c-1.1,0.2-2.5,0.5-3.6,0.7c-0.6,0.1-1,0.7-0.7,1.6c3,7.6,11.6,24.1,11.9,24.7s6.7-0.9,6.7-1.5
		s0.8-11.3,0.8-13.6c0.1-5,0.1-10.1,0.2-15.2C313.9,560.1,311.8,560.5,311.8,561z"/>
	<path class="st12" d="M338.9,576.9c-0.1-0.5-4.6,0.8-4.4,1.4l1,3.4c-2.1,0.7-5.2,1.6-7.3,2.2c-0.9-3.9-1.6-7.8-2.3-11.8
		c1.1-0.3,3.3-0.9,3.3-0.9l0.2,1.4c0.1,0.6,2.7-0.4,2.9-0.8c-0.2-1.6-0.5-3.2-0.9-4.8c-0.1-0.5-3,0.1-2.8,1.1l0.2,1.1
		c0,0-2.2,0.6-3.3,0.9c-0.6-3.5-1.3-6.9-2-10.3c2.1-0.6,4.9-1.4,6.9-2c0.2,0.9,0.4,1.7,0.6,2.6c0.1,0.6,4.4-0.8,4.3-1.3l-1-3.6
		c-0.1-0.3-0.3-0.5-0.5-0.6c-0.2-0.2-0.6-0.3-0.9-0.2c-4.5,1.5-9,2.8-13.6,4c-0.6,0.1-0.9,0.7-0.8,1.3c0,0.1,0,0.1,0,0.2l4.9,26
		c0,0.5,0.4,0.9,0.9,0.9c0,0,0,0,0.1,0c0.1,0,0.3,0,0.4-0.1c4.7-1.3,9.4-2.7,14.1-4.2c0.6-0.2,0.9-0.8,0.8-1.3
		C339.5,579.9,339.2,578.4,338.9,576.9z"/>
	<path class="st12" d="M352,561.4c-1.7-0.2-3.3-0.2-5,0c-1.9,0.1-3.2-7.3-2.4-8.1c1.2-1,2.8-1.6,4.4-1.7c0.3,1.4,0.7,2.7,1.2,3
		s3.2-0.5,3.6-1.4c0.3-1.3-0.1-2.7-1.2-3.5c-1.1-0.7-6.5-0.3-9.8,2.1c-0.2,0.1-0.4,0.3-0.5,0.4c-3.2,2.6-4.2,7-2,10.1
		s6.2,1.3,9.9,1.7s5.6,9.2,3.1,11.2c-2.1,1.6-4.8,2.3-6.3,2c0-0.2-0.2-2.7-1.1-3.4s-2.7-0.1-3.9,0.4c-0.9,0.4-0.5,4,2.7,5.3
		c1.8,0.7,4,0.1,6-0.5c4.2-1.4,8-4.7,8.2-9.4C359.2,564.9,355.9,562.1,352,561.4z"/>
	<path class="st13" d="M295.1,542c2.1-0.2,4.5-0.5,7-1s5.2-1,8-1.6c5.6-1.3,11.6-3.1,17.9-5.2c5.9-2,11.6-4.4,17.2-7
		c2.6-1.2,5-2.4,7.2-3.7s4.3-2.4,6.1-3.6c7.3-4.7,11.1-8.4,10.1-9.8s-5.8,0.8-13.2,4.6c-1.9,0.9-3.9,2-6.1,3s-4.6,2.2-7,3.3
		c-5,2.2-10.6,4.5-16.6,6.6s-11.9,3.6-17.2,4.9c-2.7,0.6-5.2,1.2-7.6,1.6s-4.6,0.9-6.7,1.3c-8.2,1.5-13.3,2.6-13.2,4.8
		S286.5,543,295.1,542z"/>
	<path class="st13" d="M404.9,768.5c-1.9,0.9-3.9,2-6.1,3s-4.6,2.2-7.1,3.3c-5,2.2-10.6,4.5-16.6,6.6s-11.9,3.6-17.2,4.8
		c-2.7,0.6-5.2,1.2-7.6,1.6s-4.6,0.9-6.7,1.3c-8.2,1.5-13.3,2.6-13.2,4.8s5.5,2.7,14.2,1.8c2.2-0.2,4.5-0.5,7-1s5.2-1,8-1.6
		c5.6-1.3,11.6-3.1,17.9-5.2c5.9-2,11.6-4.4,17.2-7c2.6-1.3,5-2.4,7.2-3.7s4.2-2.4,6.1-3.6c7.3-4.6,11.1-8.4,10.1-9.8
		S412.4,764.8,404.9,768.5z"/>
	<linearGradient id="SVGID_5_" gradientUnits="userSpaceOnUse" x1="292.7527" y1="512.8581" x2="345.4326" y2="512.8581">
		<stop  offset="0" style="stop-color:#DAAE00"/>
		<stop  offset="1" style="stop-color:#9B812F"/>
	</linearGradient>
	<path class="st14" d="M341.1,502.5c-0.2-0.1-0.5-0.2-0.7-0.2c-13.7-1.4-29.3-0.2-41.7,6.1c-7.5,3.9-8.6,13.7,1.2,15.2
		c6.4,1,14-0.9,20.3-2c6.7-1.2,13.8-3,19.8-6.3C345.5,512.3,348.3,503.3,341.1,502.5z M339.1,509.8c-0.6,0.4-1.2,0.7-1.9,1.1
		c-1.5,0.7-3.1,1.3-4.7,1.6c-1.4,0.3-2.8,0.5-4.2,0.6c-1.1,0.1-3.6,0.9-4.7,0.2c-1.5-3.1-1.4-4.9,0.1-5.4c0.9-0.5,1.8-0.9,2.7-1.2
		c1.3-0.5,2.7-0.8,4.1-1c3-0.4,6-0.3,8.9,0.5c0.1,0.1,0.3,0.2,0.5,0.2C340.6,508.3,340.3,509.5,339.1,509.8z"/>
	<path class="st15" d="M221.4,634.5c-0.6,1.8,0.3,11.1,1.9,12.6c0.6,0.7,1.6,0.7,2.2,0.1c0.2-0.1,0.3-0.3,0.4-0.5
		c0.9-4.4,0.1-8.9-2.2-12.8c-0.6-0.6-1.6-0.5-2.1,0.1C221.5,634.2,221.5,634.4,221.4,634.5z"/>
	<path class="st15" d="M231.4,655.5c-0.6,1.9,0.6,12.1,2.2,13.7c0.5,0.7,1.5,0.8,2.1,0.3c0.2-0.2,0.4-0.4,0.5-0.7
		c0.8-4.8-0.1-9.7-2.5-13.9c-0.6-0.6-1.5-0.5-2.1,0C231.6,655.1,231.5,655.3,231.4,655.5z"/>
	<path class="st15" d="M229.7,685.5c-0.3,2.1,2.3,12.9,4.2,14.5c0.5,0.6,1.5,0.7,2.1,0.1c0.3-0.2,0.4-0.5,0.5-0.9
		c0.1-5.2-1.4-10.4-4.4-14.6c-0.6-0.5-1.5-0.5-2,0.1C229.9,685,229.7,685.3,229.7,685.5z"/>
	<path class="st15" d="M246.8,623.6c-0.4,2.2,1.4,13.8,3.2,15.6c1.1,1.1,2.5,0.5,2.6-0.6c0.5-5.5-0.7-11-3.5-15.7
		c-0.5-0.6-1.4-0.6-1.9-0.1C247,623,246.8,623.3,246.8,623.6z"/>
	<path class="st15" d="M214.2,568.2c-0.5-0.6-1.5-0.6-2.1-0.1c-0.2,0.1-0.3,0.3-0.4,0.5c-0.7,1.8-0.4,11.9,1.1,13.7
		c0.5,0.7,1.4,0.9,2.1,0.4c0.2-0.2,0.4-0.4,0.5-0.6C216.7,577.4,216.2,572.5,214.2,568.2z"/>
	<path class="st15" d="M231.6,590.7c-0.6,1.8,0.5,11.6,2.1,13.2c0.6,0.7,1.6,0.7,2.2,0.2c0.2-0.2,0.3-0.4,0.4-0.6
		c0.8-4.6,0-9.3-2.4-13.3c-0.6-0.6-1.5-0.5-2.1,0.1C231.8,590.3,231.7,590.5,231.6,590.7z"/>
	<path class="st16" d="M348.1,607.2c-16.1-1.7-32.5,1.5-47.4,7.1c-7.4,2.8-14.8,5.7-21.9,9c-6.2,2.9-11.9,6.5-15.9,12.1
		c-0.5,0.6-0.4,1.4,0.1,1.9c0.2,0.2,0.4,0.4,0.7,0.5c6.5,2.8,13.4,2.1,20.2,0.7c8.4-1.9,16.6-4.2,24.7-6.9
		c8.3-2.7,16.5-5.9,24.5-9.4c6.6-2.9,13.4-6.2,15.6-13.5C349.1,607.8,349.1,607.3,348.1,607.2z"/>
	<path class="st17" d="M361.2,600.9c-1.7,0.8-3.5,1.5-5.2,2.2l-5.1,2l-5.2,2c-6.9,2.6-13.8,5-20.7,7.5c-13.9,4.9-27.7,9.7-41.5,14.9
		c-2,0.8-1.5,2,0.6,1.2c14-4.9,27.9-9.3,41.8-13.9c7-2.3,13.9-4.6,20.9-7.1l5.2-1.9l5.2-2c1.7-0.7,3.5-1.4,5.2-2.1
		C361.6,602.9,361.3,601.9,361.2,600.9z"/>
	<path class="st12" d="M311.7,620.5c1.5,4.2,0.6,8.8-2.4,12.1c-4.5,4.8-18.4,5.6-23.9,4.6c-17.8-3.2-26.5-15.3-19.1-25.7
		c5.1-7.1,15-8.1,23-6.1C298.1,607.5,308.4,611.9,311.7,620.5z"/>
	<path class="st18" d="M296.8,635.4c2.4-0.2,2-2.5-0.1-2.7c-11.4-1.5-25.5-6.5-24.5-20c0-0.8-0.6-1.4-1.4-1.4
		c-0.3,0-0.6,0.1-0.9,0.3c-6.4,4.9-4.3,13.4,1.3,18C278.1,635.2,288.1,636.5,296.8,635.4z"/>
	<path class="st19" d="M309.1,621.5c0.2-3.4-3.2-6.5-5.9-8.1c-5-2.8-12.7-5.1-17-4.7c-10.1,1,0.1,11.3,4,14
		C294.4,625.7,308.6,631.2,309.1,621.5z"/>
	<path class="st20" d="M305.3,623.1c1.2-0.3,2-1.5,1.9-2.8c-0.2-1.6-1.7-3-2.9-4c-1.3-1-2.8-1.8-4.4-2.3c-1.3-0.4-3.3-0.9-4.6-0.3
		c-2.9,1.5,4.5,6.7,5.6,7.4C302.1,622.2,303.6,623.5,305.3,623.1z"/>
	<path class="st16" d="M307.1,659.6c-7.7-0.8-13.5,4-18.8,8.8c-6.4,5.8-12.6,12-18.4,18.4c-5.7,6.2-11.1,12.7-16.1,19.5
		c-4,5.5-7.4,11.5-7.2,18.4c0,0.3,0.1,0.6,0.2,0.8c0.3,0.7,1,1.1,1.7,0.9c6.8-1.4,12.4-5.1,17.6-9.6c5.9-5.1,11.5-10.7,17-16.2
		c11-11.2,20.4-24.8,25.1-39.8C308.5,659.9,308,659.7,307.1,659.6z"/>
	<path class="st17" d="M318.7,652.2c-1.4,1-2.7,2.1-4,3.2c-1.3,1.2-2.6,2.4-3.9,3.6c-2.6,2.4-5.1,5-7.5,7.5
		c-4.9,5.1-9.8,10.2-14.6,15.4l-14.4,15.5c-4.8,5.2-9.6,10.3-14.7,15.4c-1.5,1.5-2.4,0.5-0.9-1c4.9-5.2,9.6-10.4,14.3-15.7l14-15.8
		c4.7-5.2,9.4-10.5,14.3-15.7c2.4-2.6,4.9-5.2,7.5-7.7c1.3-1.3,2.6-2.5,3.9-3.7c1.4-1.3,2.8-2.4,4.3-3.5c0.4-0.3,0.9-0.4,1.4-0.3
		c0.4,0.1,0.7,0.3,0.9,0.7c0.2,0.3,0.3,0.7,0.2,1.1C319.3,651.7,319.1,652,318.7,652.2z"/>
	<path class="st12" d="M296.7,657c0.1-4.4-2.2-8.6-6-10.8c-5.8-3.2-19.3,0.1-24.2,2.7c-15.9,8.4-20.4,22.5-10.1,30.1
		c7.1,5.3,16.8,3.2,23.9-1C287.7,673.5,296.3,666.2,296.7,657z"/>
	<path class="st19" d="M265.5,665.7c2.9,2.5,7.3,1.8,10,0.4c4.9-2.4,10.7-7.5,12.5-11.5c4.1-9.5-9.9-7.7-14.2-6.2
		C269,650,257.2,658.6,265.5,665.7z"/>
	<path class="st20" d="M280,655.1c-5.2,4-12.3,0.7-5.9-4.4C279.6,646.3,287.6,649.3,280,655.1z"/>
	<path class="st21" d="M257.4,656.6c-4.7,5.5-7.7,13.2-1.8,19.3c6.3,6.5,18.7,4,23.1,1.3s1.7-2.8-0.5-2.2
		c-12.4,3.1-22.9-4.7-19.7-15.9C259.1,656.5,258.4,655.5,257.4,656.6z"/>
	<path class="st16" d="M340.4,637.8c-6.9,12.8-9.1,27.5-8.6,41.5c0.3,7,0.7,14,1.5,21c0.7,6,2.4,11.8,6.5,16.8
		c0.4,0.6,1.2,0.8,1.9,0.5c0.3-0.1,0.5-0.2,0.7-0.4c4.9-4.5,6.4-10.5,7.2-16.6c0.9-7.5,1.4-15.1,1.4-22.6c0.1-7.8-0.3-15.5-1.1-23.2
		c-0.6-6.4-1.7-13-8-17C341.2,637.2,340.7,637,340.4,637.8z"/>
	<path class="st17" d="M340,629.5c0.1,6.5-0.1,13-0.1,19.5s-0.2,13-0.2,19.5s0,13,0.3,19.4s0.6,13,1.3,19.4c0.2,1.9,1.5,1.7,1.4-0.2
		c-0.5-6.5-0.7-12.9-0.8-19.4s0.1-12.9,0.2-19.3s0.4-12.9,0.6-19.3s0.5-13,0.5-19.6C343.1,627.4,339.9,627.7,340,629.5z"/>
	<path class="st22" d="M314.5,656.1c-8.8,11.8-13.8,26.1-16.2,40.3c-1.2,7.1-2.2,14.2-2.8,21.3c-0.5,6.2-0.2,12.3,2.5,18
		c0.3,0.6,1,1,1.6,0.8c0.3,0,0.5-0.1,0.8-0.3c5.3-3.7,8-9.5,9.9-15.5c2.3-7.4,4.3-14.9,5.8-22.5c1.6-7.8,2.8-15.6,3.7-23.5
		c0.7-6.5,1.1-13.4-3.8-18.5C315.4,655.6,315,655.4,314.5,656.1z"/>
	<path class="st22" d="M361.7,616.4c-8.2,10.2-12.7,22.7-14.7,35.2c-1,6.2-1.9,12.5-2.4,18.7c-0.4,5.5-0.1,10.8,2.6,15.9
		c0.3,0.6,0.9,0.9,1.5,0.7c0.3,0,0.5-0.1,0.7-0.2c5-3.2,7.4-8.2,9.1-13.5c2.1-6.5,3.8-13.1,5.2-19.8c1.4-6.8,2.5-13.7,3.2-20.7
		c0.6-5.7,0.9-11.8-3.8-16.3C362.5,616,362.1,615.8,361.7,616.4z"/>
	<path class="st23" d="M367.6,582.4c-6.3,18.5-17.2,34-30.7,47.5c-8.8,2.1-18.1,1.3-26.4-2.4c-1.5-0.7-2.4,1.8-0.9,2.4
		c7.5,3.3,15.8,4.4,23.9,3.2c-0.5,0.5-1.1,1-1.6,1.5c-2.1,1.9-4.1,3.8-6.1,5.8c-11.8,0.2-23.2,3.7-33.1,10c-1.4,0.9,0.3,2.8,1.7,2
		c8.6-5.5,18.5-8.7,28.7-9.3c-12.2,12.2-23.2,25.2-32.2,40c-1.5,2.7-2.9,5.6-4.1,8.5c-3.3,7.2-2.1,10.3,1.3,3.8
		c6.4-12,14.1-23.4,22.8-33.8c6-7,12.4-13.7,19.3-19.9c0.8,4.9,0.4,9.9-1.1,14.6c-0.5,1.6,2,2.5,2.5,0.9c1.8-5.7,2.1-11.7,0.9-17.6
		c8.7-8.1,17.5-16.1,25.3-25.1c7.5-8.7,13.8-18.3,17.5-29.1C376,583.1,368.4,580.1,367.6,582.4z"/>
	<path class="st23" d="M316.1,651.2c-0.9,1.3-1.7,2.7-2.2,4.2c-0.6,1.4-1,2.8-1.4,4.3c-0.8,2.9-1.5,5.7-2.1,8.6
		c-1.2,5.7-2.1,11.5-3,17.2c-1.8,11.5-3.2,23-4.5,34.5c-0.2,1.7,1,1.8,1.3,0.1c1.7-11.6,3.4-22.9,5.4-34.3c1-5.7,2.1-11.3,3.4-17
		c0.6-2.8,1.3-5.6,2.2-8.4c0.4-1.4,0.9-2.7,1.4-4c0.5-1.3,1.1-2.5,1.9-3.5c0.2-0.3,0.3-0.6,0.2-0.9c-0.1-0.3-0.2-0.7-0.4-0.9
		c-0.2-0.3-0.6-0.5-0.9-0.5C316.8,650.5,316.4,650.8,316.1,651.2z"/>
	<path class="st22" d="M286.4,691.8c-11.7,10.9-19.8,25.2-25,39.9c-2.6,7.3-5.1,14.7-7.1,22.2c-1.8,6.5-2.6,13-0.8,19.6
		c0.2,0.7,0.8,1.2,1.6,1.1c0.3,0,0.6,0,0.9-0.2c6.4-3,10.3-8.7,13.5-14.6c3.9-7.4,7.4-15.1,10.5-22.9c3.2-8,6-16.1,8.5-24.3
		c2-6.8,3.8-14-0.5-20.3C287.5,691.5,287.1,691.2,286.4,691.8z"/>
	<path class="st23" d="M287.8,689.1c-5.2,10.9-10.1,21.7-14.6,32.8c-4.5,11-8.5,22.2-11.8,33.7c-0.5,1.7,0.8,2,1.4,0.3
		c3.6-11.2,7.9-22.3,12.6-33.1c4.7-10.8,9.9-21.5,15.2-32.3C291.4,688.9,288.6,687.5,287.8,689.1z"/>
	<path class="st23" d="M360.4,607.1l0.1,1l0.1,1c0,0.7,0.1,1.3,0.1,2c0,1.4,0,2.7,0,4.1c-0.1,2.8-0.3,5.5-0.5,8.3
		c-0.5,5.5-1.2,11-2.1,16.4s-1.8,10.9-2.9,16.3c-1.1,5.4-2.4,10.8-4.1,16.1c-0.5,1.6,0.8,2,1.3,0.4c1.9-5.4,3.3-10.8,4.6-16.2
		s2.4-10.8,3.4-16.3s1.9-10.9,2.5-16.5c0.2-1.4,0.3-2.8,0.4-4.2s0.2-2.8,0.3-4.2c0.2-2.9,0.2-5.8-0.1-8.7
		C363.2,605,360.1,605.7,360.4,607.1z"/>
	<path class="st12" d="M323.1,654.1c4-2,8.8-1.7,12.6,0.7c5.4,3.7,8.1,17.1,7.8,22.5c-1,17.6-12.2,27.6-23.6,21.8
		c-7.9-4-10.1-13.4-9.2-21.5C311.6,669.1,314.7,658.4,323.1,654.1z"/>
	<path class="st18" d="M340.1,666.7c-0.5-2.3-2.8-1.6-2.7,0.4c0,11.2-3.3,25.5-17.2,26.3c-0.7,0.1-1.3,0.7-1.2,1.5
		c0,0.3,0.2,0.7,0.4,0.9c5.8,5.5,14.2,2.4,18.1-3.6C342.4,684.8,342.4,674.9,340.1,666.7z"/>
	<path class="st19" d="M324.4,656.6c-3.5,0.3-6.3,3.9-7.5,6.8c-2.2,5.2-3.5,13-2.5,17.1c2.4,9.7,11.5-1.5,13.7-5.6
		C330.6,670.3,334.4,655.8,324.4,656.6z"/>
	<path class="st20" d="M326.6,660.1c-0.5-1.1-1.8-1.7-3-1.4c-1.6,0.4-2.8,2-3.6,3.3c-0.9,1.4-1.4,2.9-1.7,4.5
		c-0.2,1.3-0.5,3.3,0.3,4.5c1.9,2.6,6.3-5.2,6.9-6.4C326,663.3,327.2,661.6,326.6,660.1z"/>
	<path class="st23" d="M312.6,732c-0.4-1-1.7-1-1.8,0c-0.2,0.1-0.3,0.3-0.4,0.5c-0.6,3-1.8,5.9-3.4,8.5c-0.6,0.9,1,2.1,1.5,1.2
		c1-1.6,1.9-3.3,2.5-5.2l1.3,8.7c0.2,1.3,0.4,4.5,2.7,3.9c1.7-0.4,1.2-2.6,1-3.8C315.3,741.1,314.2,736.5,312.6,732z"/>
	<path class="st23" d="M318.3,730.5c-0.4,0.1-0.6,0.4-0.5,0.8c-0.1,0.1-0.1,0.2-0.1,0.4c-0.4,4.3-0.5,10.7,2,14.7
		c1.4,2.3,3.9,2.3,5.4,0.2C328.1,742,327.1,727.5,318.3,730.5z M324.9,739.3c0,1.1-0.6,8.5-3.6,6.4c-1.1-0.8-1.5-4.9-1.6-6.1
		c-0.4-2.5-0.4-5-0.2-7.5C323.8,731,324.8,736.8,324.9,739.3L324.9,739.3z"/>
	<path class="st23" d="M329.5,728.8c-0.3,0.1-0.6,0.5-0.5,0.8c-0.1,0.1-0.1,0.2-0.1,0.4c-0.4,4.4-0.5,10.9,2,14.8
		c1.4,2.2,3.9,2.1,5.3-0.2C339.2,739.7,338.2,725.2,329.5,728.8z M336,737.3c0,1.1-0.5,8.7-3.5,6.8c-1.1-0.7-1.5-4.9-1.6-6.1
		c-0.4-2.5-0.4-5.1-0.2-7.6C334.9,728.9,335.9,734.7,336,737.3L336,737.3z"/>
	<path class="st23" d="M349.7,722.5c-2.7,6.9-5.5,13.7-8.4,20.4c-0.5,1.1,1.2,1.6,1.7,0.5c2.8-6.7,5.6-13.5,8.4-20.5
		C351.8,721.7,350.1,721.4,349.7,722.5z"/>
	<path class="st23" d="M344.6,726.9c-0.8-0.7-2.1-0.7-2.8,0.1c-0.1,0.1-0.1,0.1-0.2,0.2c-0.3,0.2-0.4,0.4-0.5,0.8
		c-0.2,1,0.5,2,1.5,2.2c0.3,0,0.5,0,0.8,0C344.8,729.8,345.6,727.9,344.6,726.9z"/>
	<path class="st23" d="M353.8,735.8c-0.8-0.7-2.1-0.6-2.8,0.2c-0.1,0.1-0.1,0.2-0.2,0.3c-0.3,0.2-0.4,0.5-0.5,0.8
		c-0.2,1,0.4,1.9,1.4,2.2c0.3,0.1,0.6,0.1,0.9,0C354,738.8,354.8,736.8,353.8,735.8z"/>
	<path class="st23" d="M341.3,765.1c-0.4,0.1-0.7,0.2-1.1,0.3h-0.1c-0.8-3.7-2.1-7.3-3.7-10.7c-0.2-0.5-0.8-0.6-1.2-0.4c0,0,0,0,0,0
		c-0.6-0.1-1.4,0.3-1.1,1c1,3.9,2.1,7.8,3.1,11.7l0,0c0,0.5,0.4,0.8,0.8,0.9c0.1,0,0.2,0,0.2,0l0.7-0.2c0.3-0.1,0.6-0.1,0.8-0.2
		l2-0.5C342.8,766.7,342.5,764.8,341.3,765.1z"/>
	<path class="st23" d="M361.4,747.3c-0.2-0.4-1.1-0.2-1.1,0.5c-0.3,2.2-0.5,4.3-0.7,6.5c-1.7-1.2-3-2.9-3.7-4.9
		c-0.3-0.7-1.4-0.1-1.1,0.7c0.9,2.4,2.5,4.5,4.7,5.8c-0.1,1.9-0.2,3.8-0.1,5.7c0,0.7,0.9,0.8,1.2,0.1c2-4.7,1.5-9.4,1-14
		C361.5,747.5,361.5,747.4,361.4,747.3z"/>
	<path class="st23" d="M321.1,756.9c-0.1-0.5-0.9-0.4-0.9,0.1c0.4,2,0.4,4,0.2,6c-0.2,1.7-0.5,4.8-1.9,6.1c-0.2,0.2-0.5,0.4-0.8,0.4
		c-0.9-3.9-1.7-7.8-2.6-11.8c0-0.2-0.2-0.3-0.4-0.4c-0.6-0.1-1.2-0.1-1.8,0c-0.1,0-0.2,0.1-0.3,0.2c-0.1,0.1-0.1,0.2-0.1,0.3
		c0.5,3.3,1.3,6.6,2.3,9.8c0.5,1.3,1.3,3.5,3.2,3s2.4-3.5,2.8-5c0.3-1.1,0.5-2.2,0.6-3.3c0.5,2.5,1,5,1.5,7.5c0.1,0.5,1,0.4,0.9-0.1
		C322.9,765.5,322,761.2,321.1,756.9z"/>
	<path class="st23" d="M347.6,764.9l-0.7,0.2c-0.8-3.9-1.7-7.9-2.5-11.8c0.3-0.1,0.9-0.3,0.8-0.6s-0.9-0.2-1.1-0.1l-2.3,0.6
		c-0.2,0.1-1,0.3-1,0.6s0.9,0.2,1.1,0.1l0.3-0.1l2.5,11.7c-0.3,0.1-1,0.3-0.9,0.6s0.9,0.1,1.1,0.1l2.8-0.6c0.2,0,1-0.3,0.9-0.7
		S347.8,764.8,347.6,764.9z"/>
	<path class="st23" d="M342.1,752.3c0.6,0.1,1.2-0.1,1.6-0.6c0.2-0.4,0.2-0.8,0-1.2c-0.4-0.6-1.4-0.4-1.9,0c-0.4,0.4-0.4,1.1,0,1.6
		C341.8,752.2,342,752.3,342.1,752.3z"/>
	<path class="st23" d="M311.6,770.4c0,0.4-1.1-0.3-1.2-0.3h-0.1c1.9-3.5-1.1-14.2-6.3-11.8l0,0c-0.1,0-0.2,0.1-0.3,0.1
		c-0.2,0-0.3,0.1-0.4,0.3c-0.7,3.7-0.4,7.5,0.8,11c1,2.5,4.2,2.5,5.7,1c0.5,0.3,1,0.5,1.5,0.7c0.5,0.1,1-0.3,1-0.8
		c0-0.1,0-0.1,0-0.2C312.5,769.8,311.6,769.9,311.6,770.4z M307.4,770.9c-0.5,0-1-0.2-1.5-0.5c-1.1-3.7-1.5-7.7-1.2-11.5
		c3.6-1.1,7,7.6,5,10.9h-0.1c-0.5-0.1-1.1,0.1-1.4,0.6c-0.1,0.2-0.1,0.4,0.1,0.5C308,770.9,307.7,770.9,307.4,770.9L307.4,770.9z"/>
	<path class="st23" d="M352.5,749.8c-1.5,0.5-3,0.9-4.5,1.3c-0.6,0.2-0.4,1.1,0.2,0.9l1.3-0.4c0.8,4.1,1.6,8.2,2.4,12.4
		c0,0.2,0.3,0.4,0.5,0.3c0,0,0,0,0,0l0.7-0.2c0.2-0.1,0.4-0.3,0.4-0.6c-0.8-4.1-1.6-8.2-2.4-12.4l1.5-0.5
		C353.2,750.5,353.1,749.6,352.5,749.8z"/>
	<path class="st23" d="M331.1,759.3c-0.6-1-1.5-4-3.2-3.8c-1.8,0.2-2,3.6-2.1,4.9c-0.1,3.1,0.3,6.1,1,9.1c0.1,0.5,0.9,0.4,0.8-0.1
		c-0.3-1.6-0.6-3.3-0.8-4.9c1.4-0.2,2.9-0.4,4.3-0.6c0.2,0.7,0.5,1.4,0.7,2.2c0.4,1.4,0.6,3.2,2.5,2.5c0.2-0.1,0.3-0.2,0.2-0.4
		C333.8,765,332.7,762,331.1,759.3z M326.6,763.7c-0.1-1.1-0.1-2.1,0-3.2c0-2.5,1.2-3.9,1.4-3.6s2,4.1,2.8,6.2
		C329.4,763.3,328,763.5,326.6,763.7z"/>
	<path class="st24" d="M787.4,474.9c-10.7-1.1-116.3,28.8-135.7,36.8c-19.4,8-125.7,124.7-122.7,140.5
		c5.3,27.7,89.8,104.2,108.3,107.4s237.1-167.5,237.9-176.9S798.1,476.1,787.4,474.9z"/>
	<linearGradient id="SVGID_6_" gradientUnits="userSpaceOnUse" x1="528.9427" y1="618.9521" x2="879.4229" y2="618.9521">
		<stop  offset="0" style="stop-color:#FF9500"/>
		<stop  offset="1" style="stop-color:#FFEE2A"/>
	</linearGradient>
	<path class="st25" d="M787.4,474.9c-10.3-1-261.2,162.2-258.4,177.3c4.8,26.5,90.2,107.8,107.9,110.7S878.5,591,879.4,582
		S797.7,475.9,787.4,474.9z"/>
	<path class="st4" d="M756.4,521.4c10.5-4.9,30.3-5.9,32.5,6.6c2.9,16.6-21.3,23-30.6,19.2C746.5,542.6,744.1,527.1,756.4,521.4z"/>
	<path class="st4" d="M717.5,613.1c4.8,1.4,11.8-0.2,15.7-3.3c5.2-4.2,5.2-12-0.4-15.7s-15.4,0.8-19,4S711.1,611.2,717.5,613.1z"/>
	<path class="st4" d="M634.3,607.3c4.1-7.1,14.8-13.4,23.5-11.7c5.7,0.2,10.6,4.3,11.9,9.9c2.5,11.3-9.3,22.5-20.3,23.1
		C638,629.3,628.2,617.7,634.3,607.3z"/>
	<path class="st4" d="M632.5,699.3c-2.5-5.2-4.1-11.8,0.9-17.4c4.6-5.2,11.8-6.2,17.4-4.6c6,1.8,12,5,15,10.3
		c2.7,5,3.2,14.2-1.2,19.9s-15.9,8.8-20.8,5.6S635,704.5,632.5,699.3z"/>
	<path class="st4" d="M713.9,672.5c5.9,1.8,11-2.5,12.9-7.6s-0.5-12-6.4-13.6c-6-1.6-11.4,2.9-12.9,7.6S708.9,671,713.9,672.5z"/>
	<path class="st4" d="M579.4,652.6c-1.6-3-0.4-6.7,2.7-8.3c0,0,0,0,0,0c1.8-0.9,10.6-2.6,17.3,0.5c5.1,2.3,6.1,11.2,1,14
		C592.9,662.7,583.6,660,579.4,652.6z"/>
	<path class="st4" d="M778.3,605.1c4.8-4.4,11.6-9.2,19.2-5.9c3.9,1.7,6.3,5.7,6.1,9.9c-0.2,4-2.7,7.3-5.5,10.1
		c-5.3,5.2-14.7,9.3-20.8,2.6C772.7,616.7,773.6,609.5,778.3,605.1z"/>
	<path class="st24" d="M711.8,602.7c0.8,2.2,2.6,4,4.9,4.7c4.8,1.4,11.8-0.2,15.7-3.3c2-1.6,3.3-3.8,3.7-6.3c2,4.2,0.8,9.2-2.9,12
		c-3.8,3.1-10.8,4.8-15.7,3.3C713.2,611.8,711.4,606.8,711.8,602.7z"/>
	<path class="st24" d="M774.4,612.9c0.5,1.2,1.2,2.3,2.1,3.3c6.1,6.7,15.5,2.6,20.8-2.6c2.6-2.6,4.9-5.6,5.4-9.2
		c0.7,1.5,1,3.2,0.9,4.8c-0.2,4-2.7,7.3-5.5,10.1c-5.3,5.2-14.7,9.3-20.8,2.6C775.1,619.4,774,616.1,774.4,612.9z"/>
	<path class="st24" d="M748.3,532.4c1.6,4.2,4.9,7.5,9.1,9.1c8.7,3.5,30-1.8,30.8-15.8c0.3,0.7,0.5,1.5,0.6,2.2
		c2.9,16.6-21.3,23-30.6,19.2C751.5,544.5,747.9,538.3,748.3,532.4z"/>
	<path class="st24" d="M630.1,689.8c0.4,1.3,0.9,2.6,1.5,3.9c2.5,5.2,6.1,10.7,11.2,13.9s16.5,0.1,20.8-5.7
		c2.3-3.3,3.5-7.2,3.3-11.2c1.5,5.1,1.2,12.2-2.4,16.9c-4.4,5.7-15.9,8.8-20.8,5.6s-8.7-8.7-11.2-13.9
		C630.9,696.4,630.1,693.1,630.1,689.8z"/>
	<path class="st24" d="M707.3,660.5c1.1,2.9,3.1,5.5,5.8,6.3c5.9,1.8,11-2.5,12.9-7.6c0.3-0.8,0.5-1.7,0.6-2.5
		c1.1,2.6,1.2,5.5,0.2,8.2c-2,5.1-7,9.4-12.9,7.6C709.5,671.1,706.8,665.1,707.3,660.5z"/>
	<path class="st24" d="M579.4,652.6c-0.8-1.5-0.9-3.3-0.3-4.8c4.5,6.8,13.3,9.1,20.5,5.4c1.8-1,2.9-2.8,3.2-4.8
		c1.8,3.6,1.2,8.6-2.4,10.5C592.9,662.7,583.6,660,579.4,652.6z"/>
	<path class="st24" d="M632.5,612.9c2.7,6.4,9.1,10.4,16.1,10.1c9.8-0.5,20.1-9.3,20.7-19.2c0.2,0.6,0.4,1.2,0.5,1.8
		c2.5,11.3-9.3,22.5-20.3,23.1C640,629.2,631.7,621.5,632.5,612.9z"/>
	<path class="st26" d="M1048.2,1105.7c-9.5,0.4-18.3,3.7-27.3,6.4c-8.4,2.6-17.1,4.5-25.8,5.5c-18.5,2.2-37.5-4.4-55.5-9.1
		c-8-2.1-22.9,40.9-12.2,42.3c20.9,2.7,39.8,5.5,58.3,13.4c8.2,3.4,16.3,7.4,23.5,12.5s12.5,12.4,19.3,18c7.2,6,16.5,10.2,26.2,8.1
		c8.3-1.8,15-8.1,17.3-16.4c3.3-11.5-0.9-21-7.9-29c10.2-4.5,18.5-12,18.5-24.3C1082.6,1115.9,1064.4,1104.9,1048.2,1105.7z"/>
	<path class="st27" d="M1076.5,1117.3c2.2,7.4,1.1,15.1-6.3,20.6c-2.8,2-5.9,3.5-9.2,4.5c-3.9,1.2-8.3,1.6-11.8,3.9
		c-4.9,3.3-4.7,8.8-5.2,14c-0.8,8.5-7.2,15.8-16.7,14.8c-10.3-1.2-17.3-11.7-24.5-18c-11.6-10.3-29.7-9.3-44.3-11.1
		c-11.9-1.4-24.5-5-33.6-12.8c-2.2,8.9-2.3,17,2.2,17.6c20.9,2.7,39.8,5.5,58.3,13.4c8.2,3.4,16.3,7.4,23.5,12.5s12.4,12.4,19.2,18
		c7.2,6,16.5,10.2,26.2,8.1c8.3-1.8,15-8.1,17.3-16.4c3.3-11.5-0.9-21-7.9-29c10.2-4.5,18.5-12,18.5-24.3
		C1082.5,1127.3,1080.4,1121.7,1076.5,1117.3z"/>
	<path class="st28" d="M939.3,1102.3c-24.2-7.4-87.9-45.9-105.8-63.7c-19.1-19-33.9-41.5-48.4-63.8c-27.6-42.5-58.4-80.9-98.4-113.1
		c-37.9-30.4-80.7-54.1-126.6-69.9c-11.4-3.9-23-7.3-34.8-10.3c-6.5-1.6-13.5,0-16.9,5.7c-1.8,1-3.5,2.3-4.9,3.8
		c-75.4,79.5-103.5,188.6-114.8,293.6c-3,28-7.1,57.2-6,85.4c1,26.7,18,44.7,43.2,53.2c25.8,8.7,54.2,12.9,81.2,16.8
		c28.9,4.3,58.2,6.1,87.5,5.2c28.9-0.9,57.6-5.7,85.2-14.4c27.8-8.8,53.1-23,79-36c25.6-13,52-23.7,80.4-29.3
		c28.1-5.6,62.3-7.7,91-8.4C954.3,1156.4,962.2,1109.2,939.3,1102.3z"/>
	<linearGradient id="SVGID_7_" gradientUnits="userSpaceOnUse" x1="382.5799" y1="1013.1829" x2="952.9246" y2="1013.1829">
		<stop  offset="0" style="stop-color:#3F0800"/>
		<stop  offset="1" style="stop-color:#D48200"/>
	</linearGradient>
	<path class="st29" d="M939.3,1102.3c-5.8-1.8-14-5.4-23.2-10c-0.4,14.2-10.9,27.8-24.1,34.5c-25.4,13-55.5,9.8-83.1,9.6
		c-15.3-0.1-30.8,0.2-45.8,3.5c-14.3,3.2-27.9,8.5-41.4,14.2c-23.1,9.8-46.9,20.9-72.8,16.9c-23.8-3.7-34-23.5-34-45.4
		c-0.1-27.3,8.2-55,13.8-81.6c11.3-53.8,21.9-110.9,7.5-165.2c-6.7-25.1-18-49.5-34.2-69.9c-13.6-6.4-27.6-12.1-41.9-17
		c-11.4-3.9-23-7.3-34.8-10.3c-6.5-1.6-13.5,0-16.9,5.7c-1.8,1-3.5,2.3-4.9,3.8c-75.4,79.5-103.5,188.5-114.8,293.5
		c-3,28-7.1,57.2-6,85.4c1,26.7,18,44.7,43.2,53.2c25.8,8.7,54.2,12.9,81.2,16.8c28.9,4.3,58.2,6.1,87.5,5.2
		c28.9-0.9,57.6-5.7,85.2-14.4c27.8-8.8,53.1-23,79-36c25.6-13,52-23.7,80.4-29.3c28.1-5.6,62.3-7.7,91-8.4
		C954.3,1156.4,962.2,1109.2,939.3,1102.3z"/>
	<path class="st30" d="M578.1,816.1c-12.8-13.7-36-32.5-52.8-34.5c-34.3-4.1-58-1-85.9,21.7c-20,16.3-33.9,40.2-45.9,64
		c-13.7,26.9-27,54.1-39.4,81.9c-9.8,22.1-20,45.9-27.5,70.7c-4.1,8.8-7.4,18-9.7,27.4c-5.3,22.7-5.5,46.3-0.4,69
		c19.1,69.2,55.6,97.8,98.9,102.7s110-23.4,136.7-65.7c15.2-24.2,25.1-52.2,33.8-80.2c8.9-28.9,17-58.1,22.4-88.2
		C618.1,928.8,618.5,859.8,578.1,816.1z"/>
	<path class="st27" d="M575.9,819.6c-12.5-13.5-35.3-32-51.8-33.9c-33.7-4-56.9-1-84.2,21.3c-19.7,16-33.2,39.4-45,62.8
		c-13.4,26.4-26.5,53.1-38.7,80.3c-9.6,21.7-19.6,45-27,69.3c-4.1,8.6-7.2,17.6-9.5,26.9c-5.2,22.2-5.4,45.4-0.4,67.7
		c18.7,67.9,54.5,96,97,100.8s108-22.9,134.1-64.4c15-23.8,24.7-51.2,33.1-78.7c8.7-28.3,16.7-57,21.9-86.5
		C615.1,930.2,615.6,862.4,575.9,819.6z"/>
	<linearGradient id="SVGID_8_" gradientUnits="userSpaceOnUse" x1="322.492" y1="999.675" x2="604.0832" y2="999.675">
		<stop  offset="0" style="stop-color:#E91300"/>
		<stop  offset="1" style="stop-color:#D48200"/>
	</linearGradient>
	<path class="st31" d="M570.7,827.9c-11.9-12.8-33.7-30.5-49.3-32.4c-32.1-3.8-54.2-1-80.4,20.3c-18.8,15.2-31.7,37.6-43,59.9
		c-12.8,25.2-25.3,50.6-36.9,76.6c-9.2,20.6-18.7,43-25.8,66.1c-3.9,8.2-6.9,16.8-9,25.7c-5,21.2-5.1,43.3-0.4,64.5
		c17.9,64.7,52,91.6,92.5,96.1s103-21.8,127.9-61.4c14.3-22.7,23.5-48.9,31.6-75c8.3-27,15.9-54.4,20.9-82.5
		C608.1,933.4,608.5,868.8,570.7,827.9z"/>
	<linearGradient id="SVGID_9_" gradientUnits="userSpaceOnUse" x1="322.9507" y1="1092.7441" x2="585.738" y2="1092.7441">
		<stop  offset="0" style="stop-color:#E91300"/>
		<stop  offset="1" style="stop-color:#D48200"/>
	</linearGradient>
	<path class="st32" d="M583.6,996.8c-0.6-3.7-3.4-6.6-7-7.3c-2.3-1.8-5.5-2.3-9-0.2c-12,7.1-22.9,15.8-32.5,26
		c-9.3,10-15.6,21.8-23.7,32.6c-7.7,10.2-20.4,19.8-32.7,10.9c-11.8-8.6-22.5-11.3-37.3-10.5c-12.8,0.6-26.5,1.7-38.3,7.1
		c-4.6-4.7-7.5-10.8-8.2-17.4c-1.6-14.7-2-31.2-17.5-38.8c-5.8-3-12.7-3.1-18.7-0.4c-3.1-0.1-6,1.3-7.7,3.8
		c-20.3,27.2-30.1,60.8-27.8,94.6c2.1,31.5,16,66.9,44.6,84.1c15.2,9.2,32.9,12.5,50.4,14.7c19.7,2.5,40.7,3.5,59.1-5.2
		c16.7-7.9,29.5-21.6,41.8-34.7s24.2-26.8,34.3-41.7C577,1079.8,591.4,1038.4,583.6,996.8z"/>
	<path class="st33" d="M554.5,970.5c16.7-6.6,33.1-14.1,49-22.5c0.3-4.5,0.5-9.1,0.6-13.7c-8.3,4.4-16.7,8.6-25.2,12.7l-1,0.5h0
		c-29.5,13.7-60.4,24.3-92.8,26.4c-11.9,0.8-25.3-1.2-25.7-15.2c-0.4-11.6,1-20.7-6-30.9c-3.1-4.5-7.1-8.5-10-13.1
		c-4.6-7.3-3.9-14.8-1.6-22.8c3.4-11.6,7.6-22.6,9-34.7c1.6-15.3,0.1-30.8-4.5-45.5c-1.7,1.3-3.4,2.6-5.2,4
		c-3.2,2.6-6.3,5.5-9.2,8.5c2,15.9,1.6,31.9-4.2,47.7c-4.2,11.7-9.4,24-6.3,36.7c0.1,0.4,0.2,0.8,0.3,1.2c0.1,0.2,0.1,0.4,0.2,0.7
		c1.3,3.8,3.1,7.5,5.5,10.7c2,10.7-6,22.1-13.2,30.1c-9.2,10.3-17.3,19.8-24.5,31.5c-8.3,13.3-18.8,22.1-35.9,18.5
		c-3.9-0.8-7.6-2.2-11.2-4c-2,5.4-3.9,10.9-5.7,16.5c15.2,6.4,33.1,6.2,48.7-3.7c16.4-10.3,20.9-29.7,34.4-42.7
		c8.6-8.3,18.4-17.1,21.8-28.1c3.3,4.6,5,10.2,5,15.8c0.1,6-0.7,12.2,1.1,18.1c3.2,10.3,12.6,15.5,23.2,16.5
		c7.8,0.5,15.6,0,23.2-1.6c12.3,19.4-3.1,43.3-15.2,59.6c-13.1,17.5-27.9,37.1-25.6,60.1c0.7,5.8,2.4,11.5,5,16.7
		c-5.9-5.3-12.4-9.8-19.4-13.4c-23.4-12.2-50.4-15.3-74.1-27c-15.1-7.5-28.8-17.5-40.5-29.5c-1.1,7.1-1.7,14.2-1.8,21.4
		c8,7.6,16.8,14.2,26.3,19.7c11.5,6.6,23.6,11.9,36.2,16c12.9,4.2,26.4,6.4,39.3,10.4c26.9,8.4,42.8,34.7,51.3,59.5
		c1.4,4.3,2.7,8.6,3.6,13c6.5-2.6,12.9-5.6,19-8.9c-0.8-4.5-1.8-9-3-13.4c-3.3-12-8.3-23.5-15-34c-7-11.1-15.5-22.6-15.1-36.2
		c0.8-25.9,24.2-44.8,36.3-66.2c8.7-15.3,12.6-34.5,5-50.4l6-1.4C526.8,980.4,540.8,975.9,554.5,970.5z"/>
	<path class="st26" d="M462.4,951c-1.7-0.1-3.4,0.1-5,0.6c-12.5,5.5-19.5,20.2-22,36c-1.2,7.5-2.8,17.6,0.8,24.4
		c2.6,5.1,8.4,7.7,13.9,6.4c12.1-2.5,20.2-17.8,24.2-31.3C478.5,973.3,476.2,953.5,462.4,951z"/>
	<path class="st34" d="M450.1,1010.3c-4.4,2.3-9.3-3.4-9-9.4c0.4-6.4,1.5-12.8,3.2-19c4.9-17.5,13-23.2,17.8-22.2
		C475.1,962.6,464.8,1002.7,450.1,1010.3z"/>
	<path class="st35" d="M579.5,867c-8.7-25.8-35.4-46.8-62.5-56.6c-13-4.7-31-6.5-41.4,4.3c-8.5,8.8-7.1,19.1-2.7,28.6
		c-2.9,26.4-3.9,53.5,5.2,78.5c3.8,10.6,12.2,21.2,25.8,21.5c15.4,0.3,22.9-12.7,34.9-18.8c6.5-3.3,14.2-4.3,20.9-7.4
		c6.2-2.9,11.6-7.3,15.5-12.9C582.9,892.9,583.7,879.4,579.5,867z"/>
	<path class="st36" d="M788.2,1001.6c-24.1-37.4-43.7-71-81.5-97c-9.4-6.5-29.5-3.7-36.9,5.8c-11.9,15.2-13.2,38.7-12.7,56.3
		c0.5,19.3,7.3,36.7,23.8,48.2c15.5,10.8,35.5,16.9,53.2,23.2c9.4,3.4,18.9,6.3,28.6,8.7c9.1,2.2,19.8,5.3,28.7,0.7
		C812.2,1036.9,796.5,1014.5,788.2,1001.6z"/>
	<path class="st37" d="M643,1158c-0.2-1-1.1-1.7-2.2-1.7c-5.6-0.4-11.2,0.3-16.6,2.1c-2.2,0.7-1.9,4,0.1,4.7
		c5.9,2.1,12.3,1.7,17.9-0.9c1.3-0.6,1.8-2.1,1.2-3.4C643.4,1158.4,643.2,1158.2,643,1158z"/>
	<path class="st37" d="M664.6,1207.4c-0.5,0.4-1.1,0.8-1.6,1.2c-0.3-0.1-0.7-0.1-1,0c-5.8,1-11.4,3.3-16.2,6.7
		c-2.7,1.9,0.6,5.8,3.3,3.9c0.5-0.4,1.1-0.7,1.6-1c0.6,1.2,2,1.8,3.3,1.2c1.3-0.5,2.5-1,3.7-1.6c0.4,0.1,0.8,0.1,1.2,0
		c4-0.9,7.4-3.4,9.5-6.9C669.8,1208.5,667.1,1205.5,664.6,1207.4z"/>
	<path class="st37" d="M716.8,1178.5l-0.3,0.2c-8.3,1.3-16,4.9-22.4,10.3c-1.1,0.9-1.2,2.6-0.2,3.6c0.6,0.7,1.4,1,2.3,0.9
		c9-0.8,17.5-4.7,23.9-11C722.4,1180.2,719.1,1176.2,716.8,1178.5z"/>
	<path class="st37" d="M664.8,1185.2c-1.7-0.7-3.5-0.9-5.2-0.7c-0.5-0.4-1.1-0.6-1.8-0.6c-5.9,0.2-11.6,2.4-16,6.2
		c-2.1,1.8-0.4,4.6,2,4.5c7.3-0.2,14.4-1.8,21.1-4.8c1.3-0.6,1.9-2.1,1.3-3.4C666,1185.9,665.5,1185.4,664.8,1185.2z"/>
	<path class="st37" d="M613.7,1208.1c-8.5,1.2-17,2.9-25.4,5.1c-1.4,0.3-2.3,1.6-2,3c0.2,1,1,1.8,2.1,2c9.3,1.8,19,0.1,27.2-4.8
		c1.3-0.8,1.7-2.5,0.9-3.9c-0.1-0.2-0.3-0.4-0.5-0.6C615.5,1208.3,614.6,1208,613.7,1208.1z"/>
	<path class="st37" d="M554.9,1224.8l-27.6-1.7c-2.8-0.2-4.2,4.1-1.2,4.9c9.1,2.6,18.6,3.6,28,2.7c0.9,0,1.7-0.6,2-1.4
		C557.7,1228.1,557.5,1224.9,554.9,1224.8z"/>
	<path class="st37" d="M576.6,1189.5c-5.4,0.2-10.8,0.3-16.3,0.6c-2.6,0.1-5.8,1-5.1,4.3s5.5,3.7,8.3,3.9c4.8,0.4,9.6-0.1,14.2-1.4
		c1.9-1.4,2.4-4,1-5.9C578.2,1190.4,577.4,1189.8,576.6,1189.5L576.6,1189.5z"/>
	<path class="st37" d="M752.5,1130.4c-5.1-0.8-10.4,0.2-14.9,2.8c-1.7,1-2.3,4,0.1,4.7c5.4,1.7,11.2,0.7,15.8-2.6
		c0.3-0.2,0.5-0.4,0.6-0.7c0.9-1.1,0.8-2.8-0.3-3.7C753.5,1130.6,753,1130.4,752.5,1130.4z"/>
	<path class="st37" d="M816.5,1144.6c-0.4-0.4-1-0.6-1.6-0.6c-7.1-0.3-14.2,0.9-20.8,3.7c-2.7,1.1-1.4,5.2,1.5,4.8l21.5-2.8
		C820.4,1149.2,819.7,1144.4,816.5,1144.6z"/>
	<path class="st37" d="M686.7,1091.7c0.4-1.4-0.2-3.1-2.1-3l-18.1,0.3c-2.6,0-7.4-0.2-7.5,3.6c-0.1,3.4,3.5,3.7,6,3.8
		c6.6,0.1,13.2,0,19.8,0C687.7,1096.4,688.5,1092.9,686.7,1091.7z"/>
	<path class="st37" d="M775.3,1065.9c-5.3-2.5-10.8-4.3-16.5-5.5c-2.9-0.6-10-3-12.1,0.3c-1.7,2.7,0.9,4.7,3.3,5.4
		c6.2,1.8,13.1,2.4,19.4,3.6c0.5,0.1,1,0,1.5-0.2c0.8,0.4,1.7,0.7,2.5,1.1C776.5,1072,778.4,1067.3,775.3,1065.9z"/>
	<path class="st37" d="M688,1043.2c4,0.9,12.3,3.8,15.2-0.5c3.2-4.8-2.9-8-6.9-8.3c-0.2,0-0.5,0-0.7,0c-4.3-1.1-10.9-3-14,0.1
		c-1.4,1.3-1.6,3.5-0.6,5.1C682.5,1042.1,685.4,1042.6,688,1043.2z"/>
	<linearGradient id="SVGID_10_" gradientUnits="userSpaceOnUse" x1="957.1577" y1="716.9985" x2="1300.3782" y2="716.9985">
		<stop  offset="0" style="stop-color:#AA5A00"/>
		<stop  offset="1" style="stop-color:#3F2C00"/>
	</linearGradient>
	<path class="st38" d="M986.6,995.3c-19.8-12.5-25.5-35.5-28.4-56.9c-2.5-18.8-0.2-44.9,4.1-71.7c1.8-11.1,22.6-30.8,22.6-30.8
		s-11.9-23-9.6-32.4c4.4-17.9,8.6-33.3,11.6-43.4c2.1-7.1,4.3-14.3,6.7-21.3c5.2-16,28.9-36.9,28.9-36.9s-6.3-23.2-3.6-29.5
		c7.6-17.3,15.8-34.4,24.6-51.1c0.8-1.5,1.6-3.1,2.5-4.6c7.9-14.7,34.3-33.5,34.3-33.5s-2.4-21.4,1.2-26.8
		c10.1-15.3,20.1-30.8,32.4-44.4c14.2-15.6,34.5-16.2,34.5-16.2c-1.1-8-1.8-18.7,1.8-22.2c7.7-7,15.9-13.4,24.5-19.3
		c18.4-12.6,40.2-24.7,63.1-25.6c23.6-0.9,45.9,9.9,55.5,31.6c5.1,11.5,6.6,24.4,6.8,37.2c0,0.1,4.8,45-28.7,165.8
		c-12.8,46.5-34.7,90-55.9,133.5c-19.8,40.7-39.6,82.1-64.8,119.9c-23.6,35.3-56,70.2-98,84.2
		C1030.8,1008,1006.6,1007.9,986.6,995.3z"/>
	<path class="st39" d="M1057.4,650.2c-5-11.1-9.4-22.2-11.4-33.7c7.9-14.7,34.3-33.5,34.3-33.5s0.2,30.9,8.7,58.6
		c5.5,17.8,15.4,30.8,28.8,43.7c14.2,13.8,29.1,26.9,44.7,39.3c5.3,4.2,0.2,12.2-6,9.9c-22-8-44.7-16.5-63-31.3
		C1076.2,689.2,1066.3,670.1,1057.4,650.2z"/>
	<path class="st39" d="M1051.5,920.5c-29.5-6.3-57.7-19.3-78.6-41.1c-3.9-4-7.4-8.3-10.6-12.8l0,0c1.8-11.1,22.6-30.8,22.6-30.8
		s33.9,48,71,74.4C1060.6,913.5,1057.3,921.7,1051.5,920.5z"/>
	<path class="st39" d="M1119,546.1c-3-11.2-4.7-22.7-5.1-34.3c14.1-15.6,34.4-16.2,34.5-16.2c-2.2,41.4,2.7,87.2,42.7,108.7
		c5.5,2.9,4,12.3-3.1,11.1C1152,609.2,1127.9,579.3,1119,546.1z"/>
	<path class="st39" d="M1102.6,825.1c5.8,4.1,0,11.7-6,9.9c-38.9-11.5-67.7-41.7-89.1-74.2c-4.6-6.9-9.8-14.3-13.8-22.2
		c5.2-16,28.9-36.9,28.9-36.9S1052.8,789.7,1102.6,825.1z"/>
	<linearGradient id="SVGID_11_" gradientUnits="userSpaceOnUse" x1="983.7154" y1="716.9866" x2="1300.3383" y2="716.9866">
		<stop  offset="0" style="stop-color:#AA5A00"/>
		<stop  offset="1" style="stop-color:#3F2C00"/>
	</linearGradient>
	<path class="st40" d="M986.6,995.3c-1-0.6-1.9-1.3-2.9-2c42.2,4.4,75.5-31.9,100.8-60.4c31.5-35.6,58.7-74.5,84-114.5
		c25.8-40.8,53.1-82.2,66.6-128.7c6.8-23.4,10.9-47.5,15.3-71.5c4.3-23.7,8.4-47.4,12.4-71.1c3.8-23.2,9.8-48.4,3.3-71.7
		c-5.2-18.5-18.2-33.3-32-46.7c1.3-0.1,2.5-0.2,3.8-0.3c23.6-0.9,45.9,9.9,55.5,31.6c5.1,11.5,6.6,24.4,6.8,37.2
		c0,0.1,4.8,45-28.7,165.8c-12.8,46.5-34.7,90-55.9,133.5c-19.8,40.7-39.6,82.1-64.8,119.9c-23.6,35.3-56,70.2-98,84.2
		C1030.8,1008,1006.6,1007.9,986.6,995.3z"/>
	<path class="st41" d="M1067.3,932.9c-1.1,1.7-3.6-0.3-2.5-2l0,0c-0.5-0.4-0.6-1.1-0.3-1.7c1.8-4.5,3.4-9,4.8-13.7
		c0.4-1.5,3.1-1.1,3.1,0.4C1072.4,922,1070.6,927.9,1067.3,932.9z"/>
	<path class="st41" d="M1049.7,951c-0.5,0.8-1.6,1.1-2.4,0.6c-0.2-0.1-0.3-0.2-0.5-0.4c-0.9,0.1-1.7-0.5-1.8-1.4
		c0-0.3,0-0.5,0.1-0.7c1.7-4.2,3.8-8.3,6.1-12.2c0.8-1.4,3.4-1.1,3.1,0.8C1053.5,942.4,1052,946.8,1049.7,951z"/>
	<path class="st41" d="M1025.4,973c-2.9,4.3-7.6,7.1-12.7,7.7c-0.9,0-1.6-0.7-1.6-1.6c0-0.6,0.3-1.2,0.9-1.4
		c0.1-0.2,0.3-0.4,0.5-0.5c3.5-2.5,7.3-4.7,11.1-6.6C1025.1,969.7,1026.2,971.8,1025.4,973z"/>
	<path class="st41" d="M1025.7,948.6c-3,3.1-6,6.1-9,9.1c-1.2,1.2-3.3,0-2.9-1.4c-0.1-0.4,0.1-0.8,0.3-1.1
		c3.4-4.1,6.9-8.1,10.5-12.1c0.6-0.7,1.6-0.8,2.3-0.2c0.1,0.1,0.2,0.2,0.2,0.2C1028.7,945.3,1027.3,947,1025.7,948.6z"/>
	<path class="st41" d="M1134.6,681.2c-1.7-1.9,1.6-4.1,3.3-2.3l0,0c0.7-0.4,1.5-0.3,2.2,0.2c4.9,3.6,9.9,7,15.1,10.2
		c1.7,1,0.3,4-1.6,3.5C1146.2,690.8,1139.6,686.8,1134.6,681.2z"/>
	<path class="st41" d="M1118.6,649.5c-0.6-1.9,0.4-3.9,2.3-4.5c0.5-0.2,1.1-0.2,1.6-0.1c4.5,3.4,8.8,7.2,12.8,11.2
		c1.4,1.5,0.1,4.4-2.1,3.3C1127.8,656.9,1122.9,653.6,1118.6,649.5z"/>
	<path class="st41" d="M1099.9,618.7c-4.2-4.7-6.1-11.1-5.1-17.4c0.4-2.3,3.8-2,4,0.2c0.2,0.2,0.4,0.4,0.5,0.7
		c1.8,4.9,3.2,10,4.2,15.2C1104,619.5,1101.1,620,1099.9,618.7z"/>
	<path class="st41" d="M1155.1,638.8c-2.7-4.5-5.3-9.1-8-13.6c-0.6-1-0.2-2.3,0.8-2.8c0.6-0.3,1.3-0.4,1.9-0.1
		c0.5,0.1,1,0.4,1.3,0.8c3.8,5.4,7.6,10.9,11.2,16.4c0.6,0.9,0.4,2.2-0.5,2.8c-0.1,0.1-0.3,0.2-0.4,0.2
		C1158.2,643.4,1156.6,641.2,1155.1,638.8z"/>
	<path class="st41" d="M1023.6,867.2c-1.6-1.3,0.7-3.5,2.3-2.2l0,0c0.5-0.4,1.2-0.4,1.8-0.1c4.3,2.3,8.8,4.4,13.3,6.2
		c1.5,0.6,0.7,3.1-0.8,3C1034.1,873.4,1028.4,871,1023.6,867.2z"/>
	<path class="st41" d="M1007.3,848c-0.8-0.5-0.9-1.6-0.4-2.3c0.1-0.2,0.3-0.4,0.5-0.5c0.1-0.9,0.8-1.6,1.8-1.6
		c0.2,0,0.5,0.1,0.7,0.2c4,2.2,7.9,4.6,11.6,7.4c1.3,1,0.7,3.5-1.2,2.9C1015.7,852.7,1011.3,850.6,1007.3,848z"/>
	<path class="st41" d="M987.9,821.7c-4-3.3-6.3-8.1-6.3-13.2c0-1.9,2.8-2,3.2-0.4c0.2,0.1,0.3,0.3,0.5,0.5c2.1,3.7,3.9,7.6,5.4,11.6
		C991.2,821.8,989,822.6,987.9,821.7z"/>
	<path class="st41" d="M1012.6,825c-2.8-3.2-5.4-6.6-8.2-9.8c-0.6-0.7-0.5-1.8,0.3-2.3c0.4-0.3,1-0.5,1.5-0.3c0.4,0,0.8,0.2,1.1,0.5
		c3.8,3.8,7.4,7.7,11,11.7c0.6,0.6,0.6,1.6,0,2.2c-0.1,0.1-0.2,0.2-0.4,0.3C1015.7,828.3,1014.1,826.7,1012.6,825z"/>
	<path class="st41" d="M1247.7,485.7c-5.4-7.1-5.6-16.2-9.6-23.9c-0.6-1.3,0.4-2.3,1.5-2.4c0.6-0.4,1.5-0.4,2.1,0.1
		c8,5.7,11.8,15.8,9.3,25.4c-0.2,1-1.2,1.7-2.2,1.5C1248.4,486.2,1248,486,1247.7,485.7z"/>
	<path class="st41" d="M1235.8,540.8c-0.1-1.2-0.1-2.5-0.1-3.7c-0.5-0.5-0.6-1.2-0.4-1.8c0.2-0.6,0.5-1.3,0.7-2l0,0
		c1.8-5.4,3.3-11.5,6.1-16.3c0.4-0.7,1.2-1.2,2-1.1c5.8,0.2,2.3,8.4,1.4,11.1c-1.2,4.1-2.6,8.2-4.2,12.2c-0.7,1.7-1.4,3.2-3.4,3.2
		C1236.9,542.5,1235.9,541.8,1235.8,540.8z"/>
	<path class="st41" d="M1248.2,576.1c1.6-3.9,4.5-10.8-0.3-13.5c-0.9-0.4-2,0.1-2.4,1c-2.4,5.6-4.7,11.3-6.8,17
		c-0.2,0.5-0.2,1.1,0.2,1.6l-0.3,0.7c-0.3,0.8-0.1,1.6,0.6,2.1C1243.6,587.8,1247,579,1248.2,576.1z"/>
	<path class="st41" d="M1227.4,514.7c-0.3-6.4-0.6-12.8-0.8-19.2c0-1,0.8-2.4,2.1-2c3.2,0.8,4.7,3.1,4.7,6.4c0,4.4-1,9-1.6,13.4
		c0,0.5-0.3,0.9-0.7,1.2C1230.9,516.6,1227.5,517,1227.4,514.7z"/>
	<path class="st41" d="M1212.9,579.8l3.2-8.8c0.6-1.7,1.8-3.9,4-2.7c4.1,2.2,0.1,9.5-1.7,11.9c-0.4,0.6-1.2,0.9-1.9,0.6l-0.2,0.4
		C1215.6,583.4,1212.2,582,1212.9,579.8z"/>
	<path class="st41" d="M1211.7,667c-0.8-0.3-1.2-1.2-0.9-2c1.8-4.2,3.7-8.4,5.6-12.6c1.4-3.2,2.2-6.9,5.3-9.3c1-0.8,3.5-0.3,3.4,1.1
		c-0.1,8.6-5.9,16.5-9.7,24.1C1214.5,670.1,1211.4,668.7,1211.7,667z"/>
	<path class="st41" d="M1208.8,698.5c-1.2-0.2-2.3-1.3-1.7-2.3c3.6-6.5,6.9-13.1,9.9-19.7c0.6-1.4,3.8-0.7,3.7,0.8
		c-0.4,8-5.2,15.5-8.4,22.8C1211.6,701.8,1208.2,700.2,1208.8,698.5z"/>
	<path class="st42" d="M1071.3,761.3c-12-14.6-22.1-30.6-30.1-47.8c-7.5-16.2-13.6-34.2-9.4-52.1c1.3-5.5,6.8-7.7,11.7-4.6
		c7.7,4.8,10.8,13.3,14.7,21c4.6,9,10,17.7,16,25.8c11,15,23.8,27.1,20.8,47c-1,6.7-3,18.3-11.9,19.1
		C1077.6,770.4,1074,766.2,1071.3,761.3z"/>
	<linearGradient id="SVGID_12_" gradientUnits="userSpaceOnUse" x1="1092.8282" y1="577.8752" x2="1129.6283" y2="577.8752">
		<stop  offset="0" style="stop-color:#AA5A00"/>
		<stop  offset="1" style="stop-color:#3F2C00"/>
	</linearGradient>
	<path class="st43" d="M1114.1,613c-2.6-0.2-4.9-1.7-6.1-4c-10.2-19.2-19.9-43.6-12.8-65.2c1.3-4.1,8-5.9,11.2-2.8
		c8.1,7.9,10,18.2,12.9,28.6l10,36.9c1.2,4.5-1.8,11.1-7.7,9.7C1119,615.6,1116.4,614.5,1114.1,613z"/>
	<linearGradient id="SVGID_13_" gradientUnits="userSpaceOnUse" x1="1155.2314" y1="513.6901" x2="1194.646" y2="513.6901">
		<stop  offset="0" style="stop-color:#AA5A00"/>
		<stop  offset="1" style="stop-color:#3F2C00"/>
	</linearGradient>
	<path class="st44" d="M1175.8,561c-9-15-15.2-31.4-18.3-48.6c-2.4-14.1-6.4-38.6,9.2-47.1c6.5-3.5,15.1-2.4,18.9,4.2
		c2.1,3.6,2.2,7.9,2.6,11.9c0.6,5.4,1.1,10.9,1.6,16.3c1,10.5,2,20.9,2.9,31.4c0.8,9,4.2,21.5-0.6,29.8c-1.5,2.7-4.8,4.8-7.9,4.3
		C1181.5,564.7,1178,564.5,1175.8,561z"/>
	<linearGradient id="SVGID_14_" gradientUnits="userSpaceOnUse" x1="591.7725" y1="454.0059" x2="627.671" y2="454.0059">
		<stop  offset="0" style="stop-color:#0AE900"/>
		<stop  offset="1" style="stop-color:#006A30"/>
	</linearGradient>
	<path class="st45" d="M619.6,361.3l-9.3,3.1c-2.4,0.8-3.6,3.5-3.5,5.8c4.3,57.4-0.7,115.1-14.8,170.9c-1.3,5.3,5,7.4,8.8,4.9
		c3.1,0.5,6.1-1.4,6.9-4.4c14.9-57.4,21.5-116.6,19.7-175.9C627.3,361.9,622.7,360.3,619.6,361.3z"/>
	<linearGradient id="SVGID_15_" gradientUnits="userSpaceOnUse" x1="512.108" y1="317.6196" x2="640.1631" y2="317.6196">
		<stop  offset="0" style="stop-color:#1AFF00"/>
		<stop  offset="1" style="stop-color:#00AA3F"/>
	</linearGradient>
	<path class="st46" d="M619.4,264.5c-3-6-5.4-12.3-6-18.9c-0.6-6.4,1.9-12.5,1.9-18.8c0-11-8.1-16.1-18.1-19.2
		c-4.9-1.5-10.4-2.8-13.7-6.8c-4.1-5-5.6-11.3-10.8-15.6c-4.4-3.6-10.6-5.1-16-2.2c-3,1.6-5.2,4.4-6,7.7c-4.6,2.6-7.8,7.9-9.8,12.9
		c-4,9.7-8.1,19.5-11.6,29.3c-1.7,4.4-2.9,9-3.4,13.7c-0.5,5,0.5,9.9,0.3,14.9c-0.2,4.6-2.6,8.2-4.8,12.2c-2.5,4.5-4.6,9.3-6,14.3
		c-5.8,20.2-2.5,40.9,2.5,60.6c2.6,10.4,5.5,20.6,8.3,31c2.6,9.5,5.7,18.8,10.2,27.5c10,18.8,24.8,34.7,43,45.8
		c2.3,1.3,5.2,0.7,6.7-1.4c13.2-19,27.3-39.8,28.5-63c0.3-6-0.5-11.8-1.5-17.7c-0.9-5.5-1.8-11.5,1.5-16.6
		c2.8-4.4,7.3-7.5,11.3-10.9c4.2-3.5,7.9-7.4,10.4-12.2C648.5,307.4,629.4,284.8,619.4,264.5z"/>
	<path class="st47" d="M557.4,222.9c-4,85.4,2.9,171.1,20.5,254.8c5,23.6,10.8,47.1,17.5,70.3c1.9,6.5,13,4.3,11.1-2.3
		C583,464.2,570,380,567.9,295.1c-0.6-23.9-0.3-47.8,0.8-71.6C569,216.7,557.8,216.1,557.4,222.9z"/>
	<linearGradient id="SVGID_16_" gradientUnits="userSpaceOnUse" x1="360.7597" y1="402.656" x2="549.8248" y2="402.656">
		<stop  offset="0" style="stop-color:#0AE900"/>
		<stop  offset="1" style="stop-color:#006A30"/>
	</linearGradient>
	<path class="st48" d="M419.9,454.6c5.1,2,10.5,2.6,16,2.6c5.2,0,10.8-0.5,15.8,1c5.9,1.8,9.3,6.9,12.3,11.6c3.2,5,6.5,10,10.8,14.3
		c16.5,16.7,41.1,23.4,63.9,29.3c2.5,0.6,5.1-0.8,6-3.3c6.2-20.2,6.8-41.6,1.7-62.1c-2.5-9.5-6.4-18.5-10.8-27.3
		c-4.8-9.6-9.6-19.2-14.5-28.7c-9.5-18.1-21-35.8-38.9-47.4c-4.4-2.8-9.2-5.1-14.1-6.9c-4.4-1.6-8.6-2.8-11.9-6.1
		c-3.6-3.6-6.1-8-9.8-11.4c-3.6-3.2-7.6-5.9-11.8-8.2c-9.3-5.2-19-9.9-28.5-14.7c-5-2.5-10.9-4.4-16.1-3.5c-2.8-1.9-6.4-2.6-9.7-1.9
		c-6.1,1.2-9.7,6.3-10.6,11.9c-1.1,6.6,2,12.3,2.3,18.7c0.2,5.1-3.1,9.6-5.8,13.9c-5.5,8.7-8.2,17.8-0.7,26.1
		c4.3,4.8,10.2,7.8,14.1,13c4,5.4,6.4,11.7,8.2,18C393.7,415.3,394.5,444.5,419.9,454.6z"/>
	<path class="st49" d="M406.4,322.5c60.3,61.7,112.7,130.7,156,205.3c12.1,21,23.5,42.4,34.1,64.3c3,6.1-6.9,11.5-9.9,5.4
		c-37.3-76.9-84.2-148.7-139.5-213.8c-15.6-18.4-31.9-36.2-48.8-53.5C393.5,325.2,401.6,317.5,406.4,322.5z"/>
	<linearGradient id="SVGID_17_" gradientUnits="userSpaceOnUse" x1="450.5975" y1="508.0725" x2="650.6967" y2="508.0725">
		<stop  offset="0" style="stop-color:#0AE900"/>
		<stop  offset="1" style="stop-color:#006A30"/>
	</linearGradient>
	<path class="st50" d="M629,456.7c-0.4,4.5-1,9.1-1.8,13.6c-1.6,8.8-3.9,17.4-7,25.8c-5.4,14.7-13.1,28.5-22.6,40.9
		c-10.8-30.1-21.6-60.1-32.4-90.2c-1.1-2.9-23.3,3.8-22,6.4c15,31.4,25.3,64.8,30.4,99.2c-45.2-2.8-87.7-31.5-106.2-71.8
		c-1.1-2.5-17.8,3.1-16.6,6.1c21.6,52,74.9,85.6,132.5,83c2,0,3.8-1.1,4.6-2.9c4.2,1,8.6-0.4,11.5-3.7c0.6-0.7,1.2-1.5,1.6-2.4
		c12.7-4.9,23.2-14.2,29.7-26.1c4.6-8.7,7.1-18.3,9.4-27.8c2.4-10.3,4.8-20.7,7.1-31l3.6-15.8C651.8,455.3,629.4,452.8,629,456.7z"
		/>
	<path class="st51" d="M829.7,801.5c-15.8,0.2-32.6,0.5-47.5-5.4c-7.6-3-14.2-8.5-21.3-12.6c0.1-1.9-0.2-3.9-0.7-5.7
		c-2.1-7.1-8.2-10.9-14.9-13.4c-1.1-10.4-8.2-19.3-18.1-22.6c0.9-5.1,0.2-10.3-1.9-15c-3.2-6.3-8.3-11.5-14.6-14.7l-7.7-20.6
		c-3.8-10-7.4-20.2-11.9-29.9c1.8,0.1,3.7,0.2,5.5,0.3c11.8,0.6,22.6-11.5,42.5-1.9s46,59,55.4,67.8s14.6-0.8,10.3-3.4
		c-16.8-27.2-45.9-68.8-64-77.8s-49.6-6.9-62.4-8.5c0.5-5.6-0.1-11.3-1.7-16.7c-2-6.5-5.8-13.3-11.3-17.4c1.7-4.2,1.9-8.7,0.7-13.1
		c-1.2-5-5.2-8.8-10.2-9.8c-1.1-5.8-3.5-11.5-6.2-14.8c-6.5-8.1-18.4-12-27.6-7.8c-7.5-3.7-16.6-3.8-25.1-1.4
		c-7,2-13.9,5.6-20.2,9.3c-3,1.6-5.5,4-7.2,6.8c-0.4,0.1-0.9,0.2-1.3,0.4c-12.2,5.5-17.9,18.2-15.5,30.9c1.2,5.7,3.5,11.1,7,15.9
		c0.6,9,5.9,19.3,10,25.1c3.8,5.3,8.5,10,13.7,13.8c-1.5,6.6-1.9,13.3,0.9,19.7c1.3,3.1,3.4,5.8,5.9,8c-0.6,1.7-0.9,3.5-0.7,5.3
		c0.5,4.6,3.5,8.5,7.7,10.4c2.9,15.1,5.8,30.2,8.7,45.3c3,15.6,6.5,31.2,8.2,47c3.2,30.8-6.8,63.1,9.3,91.7c3.5,6.2,12.9,0,9.4-6.2
		c-7.8-13.7-8.2-29.9-7.7-45.2c0.5-14.9,4.5-87.2,7-104c9.8,17.8,23.7,33,40.6,44.2c11.4,27.4,33.4,49.1,61,60
		c9.6,3.7,19.6,5.7,29.5,8.3c10.2,2.6,19.7,6.1,27.5,13.3c8,7.3,14.3,16,23.9,21.5c8,4.5,18.9,6.5,27.2,1.2
		c9.8-6.3,7.8-17.1,0.5-24.5c-9.8-9.9-20.8-18.9-31.1-28.3c-3-2.7-5.9-5.3-8.9-8c10-0.7,20-3.9,29.4-7.1
		C837.9,810.1,836,801.4,829.7,801.5z"/>
	<path class="st52" d="M622.2,598c5-0.5,9.9-1.7,14.7-3.6c4.7-1.7,9.2-4.1,13.3-7c3.1-2.3,4.7-4.2,4.2-4.9c-1-1.5-9.3,2.3-19.8,6.2
		s-19.2,6.7-18.9,8.4C615.8,597.9,618.3,598.3,622.2,598z"/>
	<path class="st52" d="M622.5,644.7c-0.7-0.6-2.8,0.6-5.9,2.3c-0.8,0.4-1.7,0.9-2.6,1.4s-1.9,1-3,1.5c-2.1,1-4.5,2-7,2.9
		s-5,1.6-7.3,2.1c-1.2,0.2-2.2,0.5-3.3,0.7s-2,0.4-2.9,0.5c-3.6,0.6-5.9,1-6,1.9s2.2,1.9,6.2,2.4c1.1,0.1,2.2,0.2,3.3,0.2
		c1.3,0,2.5-0.1,3.8-0.2c5.7-0.6,11.3-2.6,16.2-5.7c1-0.7,2-1.4,3-2.2c0.8-0.7,1.6-1.4,2.4-2.2C622.1,647.5,623.1,645.2,622.5,644.7
		z"/>
	<path class="st52" d="M588.3,623.6c2.7,0.2,5.3,0.1,8-0.1c6.5-0.5,13-1.8,19.2-4c2.5-0.9,5-2,7.3-3.2c4-2.1,6.2-4,5.8-4.7
		c-0.8-1.6-11,1.9-24,4.6s-23.7,3.7-23.8,5.5C580.9,622.5,583.7,623.3,588.3,623.6z"/>
	<path class="st52" d="M664.9,642.6c-2.1,0.9-4.5,2-7,2.9s-4.9,1.8-7.2,2.6l-6,1.9c-3.4,1.1-5.7,2-5.6,2.8s2.4,1.5,6.3,1.4
		c2.3-0.1,4.5-0.3,6.8-0.8c2.7-0.6,5.4-1.3,8-2.3c2.6-1,5.1-2.2,7.4-3.7c1.9-1.2,3.7-2.5,5.4-4c2.9-2.6,4.1-4.6,3.6-5.3
		s-2.8,0.2-6.1,1.7L664.9,642.6z"/>
	<path class="st52" d="M618.4,684.4c-1.4,0.4-3,0.8-4.7,1.2s-3.7,0.7-5.7,1s-4,0.3-5.8,0.4s-3.5,0-4.9,0c-2.8-0.1-4.7-0.1-5.1,0.7
		s1.1,2.2,4.1,3.5c1.7,0.7,3.6,1.2,5.4,1.5c4.6,0.6,9.3,0.1,13.7-1.6c1.8-0.7,3.5-1.6,5-2.6c2.6-1.9,3.6-3.6,3.2-4.3
		S621.1,683.7,618.4,684.4z"/>
	<path class="st52" d="M667.2,732.1c0.2,0.8,3,0.8,7.3-0.1c5.5-1.3,10.8-3.1,15.9-5.5c5.1-2.3,9.9-5.3,14.3-8.7
		c3.4-2.7,5.1-4.8,4.6-5.5c-1-1.4-10.2,3.3-21.7,8.6S666.7,730.5,667.2,732.1z"/>
	<path class="st52" d="M701.1,756.3c-2.6,1.5-4.2,2.8-4,3.6s2.3,1,5.6,0.5c4.2-0.9,8.2-2.5,11.8-4.7c3.6-2.2,6.9-5,9.5-8.3
		c2-2.6,2.7-4.5,2.1-5.1s-2.5,0.3-5.1,1.9s-6,3.9-9.8,6.2S703.7,754.8,701.1,756.3z"/>
	<path class="st52" d="M744.7,765.2c-0.7-0.6-2.2,0-4.2,1s-4.6,2.7-7.4,4.5s-5.3,3.4-7.2,4.8s-2.9,2.5-2.6,3.3s1.9,1,4.4,0.6
		c3.2-0.7,6.1-1.9,8.8-3.7c2.7-1.7,5.1-3.9,7-6.5C744.9,767.4,745.3,765.8,744.7,765.2z"/>
	<path class="st52" d="M677.1,704.1c2.6-2.8,3.7-4.9,3.1-5.5c-1.2-1.2-8.5,3.8-17.8,9s-17.5,8.9-17,10.5c0.2,0.8,2.7,0.9,6.4,0.1
		c4.8-1.1,9.4-2.9,13.7-5.4C669.8,710.6,673.7,707.6,677.1,704.1z"/>
	<path class="st52" d="M696.1,745.5c1.6-2.4,1.9-4.2,1.2-4.7s-2.3,0.3-4.4,1.6l-3.7,2.3c-1.4,0.8-2.9,1.7-4.5,2.6s-3.2,1.6-4.7,2.2
		l-4,1.7c-2.3,1-3.9,1.8-3.8,2.7s1.8,1.5,4.7,1.6c1.7,0,3.4-0.2,5-0.6c2-0.5,3.9-1.2,5.8-2.2c1.8-1,3.5-2.1,5.1-3.5
		C694,748.2,695.2,746.9,696.1,745.5z"/>
	<path class="st52" d="M741.7,801.5l-4.8,2.7c-1.8,1-3.8,2.1-5.9,3.1s-4.2,2-6,2.8l-5.1,2.1c-2.9,1.2-4.8,2.2-4.7,3.1
		s2.3,1.4,5.7,1.1c2-0.2,4-0.5,6-1c4.8-1.3,9.3-3.5,13.2-6.5c1.6-1.2,3.1-2.6,4.4-4.1c2.2-2.6,3.1-4.6,2.5-5.2
		S744.4,799.9,741.7,801.5z"/>
	<path class="st1" d="M284,836c4.8,7.1,13.4,9.1,21.5,9.8c9.3,0.8,18.7,1.2,28.1,1.7c19.3,1.1,38.6,1.9,57.9,1.9
		c9.8,0,19.7-0.2,29.5-0.8c9-0.5,18.1-1,26.9-2.5c7.7-1.3,15.5-4.1,21-9.7c4.8-4.9,7.5-11.1,7-17.8c0.9-0.7,1.4-1.7,1.5-2.7
		c0.9-10.8-1.4-22.6-11.2-29.1c-6-4-13.8-4.1-20-0.3c-3.5-7.2-9.7-12.8-18.2-13.8c-5.9-0.7-11.8,1.7-15.6,6.2
		c-3.6-6.5-8.8-12-17-12.4c-7.5-0.4-14.3,4.5-16.1,11.8c-7.6-4.9-16.3-8.1-25.1-3.3c-2,1.1-3.7,2.7-5,4.5c-2.6-0.7-5.4-0.7-8-0.1
		c-6.6,1.7-11.6,7.2-12.7,14c-8.6-2.6-18.6-1.7-25,4.9c-3.9,4.1-5.9,9.6-5.6,15.2c-3.5-0.5-7,0.4-9.8,2.4
		C281.4,820.5,279.6,829.4,284,836z"/>
	<path class="st53" d="M351.1,890.6c6.4,10.2,12.1,20.8,17.2,31.7c17.5,37.8,22.7,130.6,24.5,133.4s31.8,4.9,35.5,0.6
		c2.8-3.3,9.9-76.5,16.3-136c0-0.2,0.1-0.5,0.2-0.8c0.1-0.4,0.1-0.9,0.1-1.3c1.8-16.5,3.5-31.9,5-44.3c0.2-2-2-3.8-3.9-3.8
		c-2.1,0.1-3.8,1.7-3.9,3.8l-5.6,44.7c-1-15.7-2.8-31.4-5.3-46.9c-0.7-4.3-7.7-3.1-7.6,1c0.2,13.1,0.4,26.1,0.6,39.2
		c0.1,6.5,0.2,13.1,0.3,19.6c0,3,1,9.1-0.7,12.8c-9.9-27.2-16.9-55.4-21.1-84c-0.3-2-3-3.2-4.8-2.6c-2,0.6-3.2,2.6-2.7,4.6l6.7,43.9
		l3.4,22.2c0.5,3.7,1.6,8.1,0.8,11.9c-9.3-19.9-17.1-40.6-23.3-61.7c-1.4-4.7-8.9-2.7-7.5,2c3.9,13,6.3,26.4,7.1,39.9
		c-9.1-10-16.3-21.5-21.5-34c-1.2-3-5.1-3.1-6.8-1.4C351.5,885.5,349.5,888,351.1,890.6z"/>
	<path class="st54" d="M412,832c-6.6-6.5-6.7-17.4,1.6-23.4c6.1-4.4,14.3-4.3,20.3,0.2c3.7-6.5,10.9-10.2,18.4-9.4
		c9.1,0.8,15.7,6.8,17.8,14.2c5.4-2.9,12-2.7,17.2,0.7c4.4,2.8,6.9,7.8,6.4,12.9c1.2,0.1,2.5,0.3,3.6,0.7
		c7.1,2.4,10.7,9.4,11.6,15.8c1.9,13.1-6,25.5-18.6,31c1,6.4-0.3,12.6-6.7,17.2c-4.7,3.4-11,3.7-16.1,1c-1.8-1-3.5-2.2-4.8-3.7
		c-0.3,0.5-0.6,1-1,1.4c-2.7,3.4-7.1,4.9-11.3,4c-4.7-0.9-8.5-4.1-10.1-8.6c-3.1,0.9-6.3,0.6-9.2-0.7c-7-3.1-9.6-9.8-10.8-16.5
		c-2.4,0.6-5,0.4-7.3-0.6c-5.5-2.2-9.1-7.7-10.5-12.9C400.1,846.2,404.2,837.2,412,832z"/>
	<path class="st54" d="M274.5,861.9c2.9,14.7,21.6,28.7,37.2,25.4c1.1,8.4,7,16.1,15.8,18.3c8.4,2,17.2-1.1,22.6-7.8
		c4.2,3.1,9.7,3.6,14.4,1.4c3.1-1.6,5.4-4.5,6.3-7.8c4.2,1.1,8.7-0.2,11.6-3.4c3.9-4.4,3.7-11.1-0.4-15.3c3.4-3.2,5.4-7.6,5.8-12.3
		c0.3-5.8-2.2-11.4-6.7-15.1c1.2-4.4,0.4-9.1-2.1-12.9c-3.9-5.7-10.9-7.9-17.3-6.8c0.7-9.6-4.5-19.3-14.9-21.6
		c-8.2-1.8-16.5,2.8-19.3,9.8c-6.4-5.1-14.4-8.2-22.1-2.7c-8.5,6-9.2,15.8-7.9,25.1c-5.3-1.1-10.8,0.1-15.2,3.2
		C275.2,844.4,272.8,853.6,274.5,861.9z"/>
	<path class="st55" d="M346.9,849.3c0.5,5.9,4.2,11,9.7,13.3c3,1.2,6.1,1.8,9.4,1.7c-2.1,5.4-1.1,11.5,2.8,15.9
		c5.2,5.9,15,6.5,21.5,2.3c5.6,5.3,15,5.9,21.7,1.5c7.8-5.1,10.5-13.5,10.5-22.1c2.3,0,4.6-0.7,6.5-1.9c4.3-2.8,6-8,6.2-12.8
		c0.3-7.6-2.2-15-7-20.9c1.5-10.3-5.2-20.1-15.4-22.4c-9.7-2.2-19.6,2.7-23.6,11.8c-6.7-5.6-15.1-9.8-23.8-5.2
		c-4.6,2.7-7.3,7.8-7,13.1c0.2,3.2,1.1,6.4,2.6,9.2C352.9,834,346.1,840.4,346.9,849.3z"/>
	<path class="st55" d="M478.3,857c0.1-0.7,1.9-0.9,4.5-1.7c1.4-0.4,2.8-1,4.1-1.8c1.5-0.9,2.8-2,3.8-3.4c1.9-2.4,2.6-5.5,1.8-8.5
		c-0.6-2.3-1.7-3.7-1.3-4.2c0.2-0.2,0.8-0.2,1.6,0.2c1.2,0.7,2.1,1.6,2.8,2.8c1,1.7,1.5,3.7,1.4,5.7c-0.1,2.5-1,4.8-2.5,6.8
		c-1.5,1.9-3.4,3.4-5.7,4.4c-1.8,0.8-3.7,1.2-5.6,1.2c-1.3,0-2.5-0.1-3.7-0.5C478.7,857.6,478.3,857.3,478.3,857z"/>
	<path class="st55" d="M456.7,873.6c0.6-0.2,1.7,1.1,3.8,2.3c1.2,0.7,2.5,1.1,3.8,1.3c1.6,0.2,3.2,0,4.7-0.6c1.5-0.5,2.9-1.4,4-2.6
		c0.9-1,1.7-2.2,2.3-3.4c1.1-2.2,1.3-3.9,2-4c0.3,0,0.7,0.4,1,1.2c0.4,1.2,0.4,2.4,0.2,3.7c-0.3,1.9-1,3.7-2.1,5.2
		c-1.4,2-3.4,3.4-5.7,4.3c-2.3,0.9-4.9,1-7.3,0.4c-1.9-0.5-3.6-1.5-5-3c-0.9-0.9-1.5-2-1.9-3.3C456.3,874.2,456.4,873.7,456.7,873.6
		z"/>
	<path class="st55" d="M440.9,815.5c1.2-1.6,2.8-2.8,4.5-3.7c2.3-1.1,4.8-1.7,7.3-1.5c2.5,0.2,4.9,1.1,7,2.6
		c1.6,1.1,2.9,2.6,3.9,4.4c0.6,1.1,1,2.4,1.1,3.7c0,0.9-0.2,1.4-0.5,1.5c-0.7,0.1-1.5-1.5-3.3-3.3c-1-1.1-2.2-2-3.5-2.7
		c-3-1.8-6.7-2-10-0.8c-1.4,0.5-2.7,1.2-3.9,2.1c-2.1,1.5-3.1,3-3.8,2.8c-0.3-0.1-0.4-0.7-0.3-1.6
		C439.6,817.8,440.2,816.6,440.9,815.5z"/>
	<path class="st55" d="M456,830.9c1.7-0.9,3.5-1.4,5.4-1.5c2.4-0.1,4.8,0.3,7,1.3c2.1,1,4,2.5,5.4,4.5c1.1,1.5,1.9,3.2,2.2,5
		c0.3,1.2,0.3,2.4,0,3.7c-0.2,0.8-0.6,1.3-0.9,1.3c-0.7,0-1.1-1.7-2.3-3.9c-0.7-1.2-1.5-2.4-2.5-3.4c-1.1-1.2-2.5-2.2-4-2.9
		c-1.5-0.7-3.2-1.1-4.9-1.2c-1.4-0.1-2.9,0-4.3,0.3c-2.5,0.5-4.1,1.2-4.5,0.7c-0.2-0.2-0.1-0.8,0.5-1.5
		C453.9,832.2,454.8,831.4,456,830.9z"/>
	<path class="st55" d="M306.7,828.2c0.5-2.7,1.8-5.1,3.8-7c2-1.9,4.6-3.1,7.3-3.4c2.2-0.3,4.4,0.1,6.4,1c1.3,0.6,2.5,1.4,3.4,2.6
		c0.6,0.8,0.7,1.4,0.5,1.6c-0.5,0.5-2.2-0.6-4.9-1.1c-1.5-0.3-3.1-0.2-4.7,0.1c-1.8,0.4-3.4,1.3-4.8,2.5c-1.3,1.2-2.3,2.8-2.8,4.5
		c-0.4,1.5-0.5,3-0.3,4.5c0.4,2.7,1.4,4.4,0.9,4.8c-0.2,0.2-0.8,0.1-1.6-0.5c-1.1-0.9-2-2.1-2.5-3.4
		C306.7,832.5,306.4,830.3,306.7,828.2z"/>
	<path class="st55" d="M318.2,883.3c0.7-0.2,1.5,1.4,3.3,3.3c2.2,2.4,5,4.2,8.2,5.1c3.2,0.7,6.6,0.6,9.7-0.5c2.5-0.8,4-1.8,4.5-1.3
		c0.2,0.2,0.1,0.8-0.3,1.5c-0.7,1.1-1.6,2-2.7,2.7c-1.6,1.1-3.4,1.8-5.3,2.2c-4.8,1.1-9.8-0.2-13.5-3.4c-1.4-1.2-2.6-2.8-3.5-4.5
		c-0.6-1.1-0.9-2.3-1-3.6C317.7,883.9,317.9,883.3,318.2,883.3z"/>
	<path class="st55" d="M338.6,878.4c-0.3-0.7-0.3-1.2,0-1.4c0.5-0.4,1.8,0.5,3.8,1.2c2.4,0.9,5.1,1.1,7.6,0.5
		c2.5-0.8,4.6-2.3,6.2-4.4c1.3-1.7,1.9-3,2.6-3c0.3,0,0.6,0.4,0.8,1.2c0.1,1.1,0,2.2-0.3,3.2c-0.5,1.6-1.4,3-2.5,4.2
		c-1.5,1.5-3.3,2.7-5.3,3.2c-2.1,0.6-4.2,0.6-6.3,0.1c-1.6-0.4-3.1-1.1-4.5-2.2C339.8,880.2,339.1,879.4,338.6,878.4z"/>
	<path class="st55" d="M318.3,860c1.5-1.9,3.4-3.4,5.7-4.3c2.3-0.9,4.7-1.1,7.1-0.7c1.9,0.3,3.7,1,5.3,2.1c1.1,0.7,2,1.6,2.6,2.7
		c0.4,0.8,0.5,1.3,0.2,1.5c-0.5,0.5-2-0.5-4.4-1.3c-1.4-0.4-2.8-0.7-4.2-0.7c-1.7-0.1-3.3,0.2-4.9,0.8c-1.5,0.6-2.9,1.6-4.1,2.7
		c-1,1-1.9,2.1-2.5,3.4c-1.2,2.2-1.6,3.9-2.3,3.9c-0.3,0-0.7-0.4-0.9-1.3c-0.3-1.2-0.3-2.5,0-3.7C316.3,863.2,317.1,861.5,318.3,860
		z"/>
	<path class="st55" d="M286.3,854.3c0.7-1.8,1.7-3.4,3-4.8c1.3-1.3,2.8-2.4,4.5-3c2.9-1.1,6-1.1,8.9-0.1c1.9,0.6,3.5,1.7,4.8,3.2
		c0.2,0.3,0.4,0.5,0.5,0.8c0.1,0.2,0.2,0.4,0.2,0.6c0.1,0.3,0.1,0.6,0,0.7s-0.4,0.1-0.7-0.1l-0.5-0.3c-0.2-0.1-0.5-0.2-0.7-0.3
		c-1.4-0.7-2.9-1.2-4.4-1.4c-2.2-0.3-4.3,0-6.3,0.9c-2.3,1.1-4,3.1-4.9,5.5c-0.5,1.2-0.7,2.5-0.7,3.8c0,1.2,0.2,2.4,0.7,3.5
		c0.9,2,2.3,3.8,4,5.1c1.3,1,2.6,1.8,4.1,2.4c0.3,0.1,0.5,0.2,0.7,0.3s0.4,0.2,0.5,0.3s0.5,0.3,0.5,0.5s-0.2,0.3-0.5,0.4
		c-0.2,0.1-0.4,0.1-0.6,0.2c-0.3,0-0.5,0.1-0.9,0.1c-1.9,0-3.8-0.5-5.6-1.4c-2.6-1.3-4.8-3.5-6.1-6.1c-0.8-1.6-1.3-3.3-1.4-5.1
		C285.3,858,285.6,856.1,286.3,854.3z"/>
	<path class="st54" d="M419.3,785.7c0.6,0.4,1.8-0.4,3.6-1c2.1-0.8,4.4-1,6.6-0.5c2.1,0.7,4,2,5.4,3.8c1.2,1.4,1.8,2.7,2.5,2.7
		c0.3,0,0.7-0.4,0.9-1.1c0.2-1,0.2-2-0.1-3c-0.4-1.5-1.2-2.9-2.3-4c-1.3-1.5-3.1-2.5-5-3.1c-2-0.5-4-0.5-6,0.1
		c-1.5,0.4-2.9,1.2-4.1,2.3c-0.8,0.7-1.4,1.6-1.7,2.5C418.9,785,419,785.5,419.3,785.7z"/>
	<path class="st54" d="M382.2,789.3c0.6,0.4,2.2-0.9,4.8-2.3c0.7-0.4,1.4-0.7,2.2-1c0.8-0.4,1.7-0.6,2.6-0.9
		c1.9-0.5,3.9-0.7,5.9-0.5c1.9,0.2,3.8,0.9,5.5,1.9c1.4,0.8,2.7,1.9,3.8,3.1c1.9,2.1,2.5,4,3.3,4c0.3,0,0.6-0.6,0.7-1.6
		c0.1-1.5-0.3-2.9-0.9-4.2c-0.9-2-2.4-3.7-4.1-5c-2.2-1.7-4.9-2.7-7.6-3.1c-2.7-0.3-5.5,0.1-8,1.2c-1.1,0.4-2.1,1-3.1,1.6
		c-0.8,0.6-1.6,1.2-2.3,1.9c-1,0.9-1.8,2.1-2.5,3.3C382,788.5,381.9,789.1,382.2,789.3z"/>
	<path class="st54" d="M362.5,804c0.7,0,1.3-1.4,2.7-2.9c1.8-1.9,4.2-3.2,6.8-3.4c2.8-0.2,5.6,0.2,8.2,1.3c2.2,0.8,3.7,1.5,4.2,1
		s-0.1-2.1-2.2-4c-3-2.5-6.8-3.7-10.7-3.2c-2.2,0.2-4.3,1.1-6.1,2.4c-1.4,1.1-2.5,2.5-3.2,4.2c-0.5,1.1-0.6,2.3-0.4,3.4
		C361.8,803.6,362.2,804,362.5,804z"/>
	<path class="st54" d="M335.1,800.1c0.8-0.1,1-1.9,2.2-4.1c0.7-1.3,1.6-2.4,2.6-3.4c1.2-1.2,2.7-2.1,4.3-2.7c3.2-1,6.6-1,9.8-0.1
		c2.6,0.6,4.3,1.4,4.8,0.8c0.2-0.2,0.1-0.8-0.5-1.6c-0.8-1-1.8-1.9-2.9-2.5c-1.7-1-3.6-1.7-5.5-2c-2.5-0.4-5-0.2-7.4,0.7
		c-2.4,0.9-4.5,2.4-6,4.3c-1.3,1.6-2.2,3.4-2.5,5.4c-0.3,1.3-0.2,2.7,0.2,3.9C334.3,799.8,334.7,800.2,335.1,800.1z"/>
	<path class="st53" d="M400.3,819c-1.4,0.8-2.6,1.9-3.5,3.2c-1.7,2.3-2.1,4.3-2.8,4.3c-0.3,0-0.6-0.5-0.8-1.5
		c-0.1-1.4,0.1-2.9,0.6-4.2c0.8-2.1,2.2-3.9,4-5.2c4.7-3.4,11.1-3.5,15.9-0.1c1.8,1.3,3.2,3.1,4.1,5.2c0.6,1.3,0.8,2.8,0.7,4.2
		c-0.1,1-0.5,1.5-0.8,1.5c-0.7,0-1.2-2-2.9-4.2c-1-1.3-2.2-2.4-3.6-3.2C407.9,817,403.7,817.1,400.3,819L400.3,819z"/>
	<path class="st53" d="M358.3,840.4c0.9-2.8,2.7-5.2,5.1-6.8c2.4-1.6,5.1-2.5,8-2.7c2.3-0.1,4.5,0.3,6.6,1.2
		c1.4,0.5,2.6,1.3,3.7,2.3c0.8,0.7,1,1.3,0.8,1.5c-0.4,0.6-2.4-0.2-5.5-0.7c-1.8-0.3-3.5-0.3-5.3-0.1c-2,0.3-4,1-5.7,2.2
		c-1.6,1.1-2.9,2.6-3.7,4.4c-0.6,1.5-0.9,3.1-0.8,4.8c0.2,2.9,1.5,4.6,1,5c-0.1,0.1-0.3,0.1-0.6,0c-0.4-0.1-0.8-0.3-1.1-0.6
		c-1.2-1-2-2.3-2.5-3.8C357.6,844.9,357.6,842.5,358.3,840.4z"/>
	<path class="st53" d="M385.9,839c1.7-2,3.8-3.5,6.3-4.4c2.4-0.8,5-1.1,7.6-0.7c2,0.3,3.9,1,5.7,2c1.1,0.6,2.2,1.5,3.1,2.5
		c0.6,0.7,0.8,1.3,0.6,1.5c-0.4,0.5-2.2-0.2-5-1c-1.6-0.4-3.2-0.7-4.8-0.7c-1.9-0.1-3.8,0.2-5.6,0.8c-1.7,0.6-3.3,1.5-4.6,2.8
		c-1.1,1.1-1.9,2.3-2.5,3.7c-1,2.4-1,4.3-1.7,4.5c-0.3,0.1-0.8-0.3-1.1-1.2c-0.5-1.3-0.6-2.7-0.4-4
		C383.8,842.6,384.6,840.7,385.9,839z"/>
	<path class="st55" d="M387.4,937.4c6.5,13.8,11,28.5,13.4,43.6c0.2,0.8-0.4,1.6-1.2,1.7c-0.7,0.1-1.4-0.3-1.7-1
		c-5.6-13.6-9.9-27.6-12.9-42c0-0.1,0-0.3,0-0.4l-0.2-0.5C384,937.1,386.6,935.7,387.4,937.4z"/>
	<path class="st55" d="M419.1,973.3c0-0.3,0.1-0.5,0.2-0.8c0.1-1.5,2.8-1.4,3,0.3c1.5,10.9,1.3,21.9-0.5,32.7
		c-0.3,1.6-2.9,1.2-2.9-0.4C418.9,994.5,419,983.9,419.1,973.3z"/>
	<path class="st55" d="M401.1,1013.1c0.4-0.7,1.3-1,2-0.6c0.3,0.2,0.6,0.5,0.7,0.9c2,8.5,2.6,17.3,1.6,26c0,0.8-0.7,1.5-1.5,1.5
		s-1.5-0.7-1.5-1.5c-0.6-8.4-1.2-16.8-1.9-25.2C400.5,1013.7,400.7,1013.3,401.1,1013.1z"/>
	<path class="st1" d="M400,654.2c4.8,7.1,13.4,9.1,21.5,9.7c9.3,0.8,18.7,1.2,28.1,1.7c19.3,1.1,38.6,1.9,57.9,1.9
		c9.8,0,19.7-0.2,29.5-0.8c9-0.5,18.1-1,26.9-2.5c7.7-1.3,15.5-4.1,21-9.7c4.8-4.8,7.5-11.1,7-17.8c0.9-0.7,1.4-1.7,1.5-2.7
		c0.9-10.8-1.4-22.6-11.2-29.1c-6-4-13.8-4.1-20-0.3c-3.4-7.2-9.7-12.8-18.2-13.8c-5.9-0.7-11.8,1.7-15.7,6.2
		c-3.6-6.5-8.8-12-17-12.4c-7.5-0.5-14.3,4.5-16.2,11.8c-7.6-4.9-16.3-8.1-25.1-3.3c-2,1.1-3.7,2.7-5,4.5c-2.6-0.7-5.4-0.7-8-0.1
		c-6.6,1.7-11.6,7.2-12.7,14c-8.6-2.6-18.6-1.7-25,4.9c-3.9,4.1-5.9,9.6-5.6,15.2c-3.5-0.5-7,0.4-9.9,2.3
		C397.3,638.6,395.6,647.5,400,654.2z"/>
	<path class="st53" d="M467.1,708.7c6.4,10.2,12.1,20.8,17.2,31.7c17.5,37.8,22.7,130.6,24.6,133.4c1.9,2.8,31.8,4.9,35.4,0.6
		c2.8-3.3,9.9-76.5,16.3-136c0.1-0.2,0.1-0.5,0.2-0.8c0.1-0.4,0.1-0.9,0.1-1.3c1.8-16.5,3.5-31.8,5-44.3c0.3-2-2-3.8-3.9-3.8
		c-2.1,0.1-3.8,1.7-3.9,3.8l-5.6,44.7c-1-15.7-2.8-31.4-5.3-46.9c-0.7-4.3-7.7-3.1-7.6,1c0.2,13.1,0.4,26.1,0.6,39.2l0.3,19.6
		c0,3,1,9.1-0.7,12.8c-9.9-27.2-16.9-55.4-21.1-84c-0.3-2-2.9-3.2-4.8-2.6c-2.2,0.6-3,2.6-2.7,4.6c2.2,14.6,4.4,29.3,6.7,43.9
		l3.4,22.2c0.6,3.7,1.6,8.1,0.8,11.9c-9.3-19.9-17.1-40.6-23.3-61.7c-1.4-4.7-8.8-2.7-7.5,2c3.8,13,6.2,26.4,7.1,39.9
		c-9.1-10-16.4-21.6-21.5-34.1c-1.2-3-5.1-3.1-6.8-1.4C467.5,703.6,465.4,706.1,467.1,708.7z"/>
	<path class="st54" d="M528,650.1c-6.5-6.6-6.7-17.4,1.6-23.4c6.1-4.4,14.3-4.3,20.3,0.2c3.7-6.5,10.9-10.2,18.3-9.4
		c9.2,0.8,15.7,6.8,17.8,14.2c5.4-3,12-2.7,17.2,0.7c4.4,2.8,6.9,7.8,6.4,12.9c1.2,0.1,2.5,0.3,3.6,0.7c7.1,2.4,10.7,9.4,11.6,15.8
		c1.9,13.1-6,25.5-18.6,31c1,6.4-0.3,12.6-6.7,17.2c-4.7,3.4-11,3.7-16.1,1c-1.8-0.9-3.5-2.2-4.8-3.7c-0.3,0.5-0.6,1-1,1.4
		c-2.7,3.4-7.1,4.9-11.3,4c-5.4-1.1-8.4-4.5-10.1-8.6c-3.1,0.9-6.3,0.6-9.2-0.7c-7-3.1-9.6-9.8-10.8-16.6c-2.4,0.6-5,0.4-7.3-0.6
		c-5.5-2.2-9.2-7.7-10.5-12.9C516.1,664.3,520.2,655.4,528,650.1z"/>
	<path class="st54" d="M390.5,680c2.9,14.6,21.6,28.7,37.2,25.5c1.1,8.4,7,16.1,15.8,18.3c8.4,2,17.2-1.1,22.6-7.8
		c4.2,3.1,9.7,3.6,14.4,1.4c3.1-1.6,5.4-4.5,6.3-7.8c4.2,1.1,8.7-0.2,11.6-3.5c3.9-4.4,3.7-11.1-0.4-15.3c3.4-3.2,5.4-7.6,5.8-12.3
		c0.3-5.8-2.2-11.4-6.7-15.1c1.2-4.4,0.4-9.1-2.1-12.9c-3.9-5.7-10.9-7.9-17.3-6.8c0.7-9.6-4.5-19.3-14.9-21.6
		c-8.1-1.8-16.5,2.8-19.3,9.8c-6.4-5.1-14.4-8.2-22.1-2.7c-8.5,6.1-9.2,15.8-7.9,25.1c-5.3-1.1-10.7,0.1-15.1,3.2
		C391.1,662.5,388.8,671.8,390.5,680z"/>
	<path class="st55" d="M462.9,667.4c0.5,5.9,4.2,11,9.7,13.3c3,1.2,6.1,1.8,9.4,1.7c-2.1,5.4-1.1,11.5,2.8,15.9
		c5.2,5.9,15,6.5,21.4,2.3c5.7,5.3,15,5.9,21.7,1.5c7.8-5.1,10.5-13.5,10.5-22.1c2.3,0,4.5-0.7,6.5-1.9c4.3-2.8,6-8,6.2-12.8
		c0.3-7.6-2.2-15-7-20.9c1.5-10.3-5.2-20.1-15.4-22.4c-9.7-2.2-19.6,2.8-23.6,11.8c-6.7-5.6-15.1-9.8-23.7-5.2
		c-4.6,2.7-7.4,7.8-7.1,13.1c0.2,3.2,1.1,6.4,2.7,9.2C468.8,652.2,462.1,658.5,462.9,667.4z"/>
	<path class="st55" d="M594.3,675.1c0.1-0.7,1.9-0.9,4.5-1.7c1.4-0.4,2.8-1,4.1-1.8c1.5-0.9,2.8-2,3.8-3.3c1.9-2.4,2.6-5.5,1.8-8.5
		c-0.6-2.3-1.7-3.7-1.3-4.2c0.2-0.2,0.8-0.2,1.6,0.2c1.2,0.7,2.1,1.6,2.8,2.8c1,1.7,1.5,3.7,1.4,5.7c-0.1,2.5-1,4.9-2.5,6.8
		c-1.5,1.9-3.4,3.4-5.7,4.4c-1.8,0.8-3.7,1.2-5.6,1.2c-1.3,0-2.5-0.1-3.7-0.5C594.7,675.8,594.2,675.4,594.3,675.1z"/>
	<path class="st55" d="M572.7,691.7c0.6-0.3,1.7,1.1,3.8,2.3c1.2,0.7,2.5,1.1,3.8,1.3c1.6,0.2,3.2,0,4.7-0.5c1.5-0.6,2.9-1.4,4-2.6
		c0.9-1,1.7-2.2,2.3-3.4c1-2.2,1.3-3.9,2-4c0.3,0,0.7,0.4,1,1.2c0.4,1.2,0.4,2.4,0.2,3.7c-0.3,1.9-1,3.7-2.1,5.2
		c-1.5,2-3.4,3.4-5.7,4.3c-2.3,0.9-4.9,1-7.3,0.4c-1.9-0.5-3.6-1.6-5-3c-0.9-0.9-1.5-2-1.9-3.3C572.3,692.4,572.4,691.8,572.7,691.7
		z"/>
	<path class="st55" d="M556.9,633.7c1.2-1.6,2.7-2.8,4.5-3.7c2.3-1.1,4.8-1.7,7.3-1.5c2.5,0.2,4.9,1.1,7,2.6
		c1.6,1.1,2.9,2.6,3.9,4.4c0.6,1.1,1,2.4,1,3.7c0,0.9-0.2,1.4-0.5,1.5c-0.7,0.1-1.5-1.5-3.3-3.3c-1-1.1-2.2-2-3.5-2.7
		c-1.5-0.9-3.2-1.4-4.9-1.5c-1.7-0.1-3.5,0.2-5.1,0.8c-1.4,0.5-2.7,1.2-3.9,2.1c-2.1,1.5-3.1,3-3.8,2.8c-0.3-0.1-0.4-0.7-0.3-1.5
		C555.6,635.9,556.1,634.7,556.9,633.7z"/>
	<path class="st55" d="M571.9,649c1.7-0.9,3.5-1.4,5.4-1.5c2.4-0.1,4.8,0.3,6.9,1.3c2.1,1,4,2.5,5.4,4.5c1.1,1.5,1.9,3.2,2.2,5
		c0.3,1.2,0.3,2.5,0,3.7c-0.2,0.8-0.6,1.3-0.9,1.3c-0.7,0-1.1-1.7-2.3-3.9c-0.7-1.2-1.5-2.4-2.5-3.4c-2.3-2.5-5.5-4-8.9-4.2
		c-1.4-0.1-2.9,0-4.3,0.3c-2.5,0.5-4.1,1.2-4.5,0.7c-0.2-0.2-0.1-0.8,0.5-1.5C569.8,650.3,570.8,649.5,571.9,649z"/>
	<path class="st55" d="M422.7,646.3c0.4-2.7,1.8-5.1,3.8-7c2-1.9,4.6-3.1,7.3-3.4c2.2-0.2,4.4,0.1,6.4,1c1.3,0.6,2.5,1.4,3.4,2.6
		c0.6,0.8,0.7,1.4,0.5,1.6c-0.5,0.5-2.2-0.6-4.9-1.1c-1.5-0.3-3.1-0.2-4.7,0.1c-1.8,0.4-3.4,1.3-4.8,2.5c-1.3,1.2-2.3,2.8-2.8,4.5
		c-0.4,1.5-0.5,3-0.2,4.5c0.4,2.7,1.4,4.4,0.9,4.8c-0.2,0.2-0.8,0.1-1.6-0.5c-1.1-0.9-1.9-2.1-2.5-3.4
		C422.7,650.6,422.4,648.4,422.7,646.3z"/>
	<path class="st55" d="M434.2,701.4c0.7-0.2,1.5,1.4,3.3,3.3c2.2,2.4,5,4.2,8.2,5.1c3.2,0.7,6.6,0.5,9.7-0.5c2.5-0.8,4-1.8,4.5-1.3
		c0.2,0.2,0.1,0.8-0.3,1.5c-0.7,1.1-1.6,2-2.7,2.7c-1.6,1.1-3.4,1.8-5.3,2.2c-2.4,0.5-4.8,0.5-7.2-0.1c-2.3-0.6-4.5-1.7-6.3-3.3
		c-1.4-1.2-2.6-2.8-3.5-4.5c-0.6-1.1-0.9-2.3-1-3.6C433.7,702,433.9,701.5,434.2,701.4z"/>
	<path class="st55" d="M454.6,696.5c-0.3-0.7-0.3-1.2,0-1.4c0.5-0.4,1.8,0.5,3.8,1.2c2.4,0.9,5.1,1.1,7.6,0.5
		c2.5-0.8,4.6-2.3,6.2-4.4c1.3-1.7,1.9-3,2.6-3c0.3,0,0.6,0.4,0.8,1.2c0.2,1.1,0,2.2-0.3,3.2c-0.5,1.6-1.4,3-2.5,4.2
		c-1.5,1.5-3.3,2.6-5.3,3.2c-2.1,0.6-4.2,0.6-6.3,0.1c-1.6-0.4-3.1-1.2-4.4-2.2C455.7,698.4,455,697.5,454.6,696.5z"/>
	<path class="st55" d="M434.2,678.1c1.5-1.9,3.4-3.4,5.7-4.3c2.3-0.9,4.7-1.1,7.1-0.7c1.9,0.3,3.7,0.9,5.3,2c1.1,0.7,2,1.6,2.6,2.7
		c0.4,0.8,0.5,1.3,0.2,1.5c-0.5,0.4-2-0.5-4.4-1.3c-1.4-0.4-2.8-0.7-4.2-0.7c-1.7-0.1-3.3,0.2-4.9,0.8c-1.5,0.6-2.9,1.6-4.1,2.7
		c-1,1-1.9,2.1-2.5,3.4c-1.2,2.2-1.6,3.9-2.3,3.9c-0.3,0-0.7-0.4-0.9-1.3c-0.3-1.2-0.3-2.5,0-3.7
		C432.3,681.3,433.1,679.6,434.2,678.1z"/>
	<path class="st55" d="M402.2,672.4c0.7-1.8,1.7-3.4,3-4.8c1.3-1.3,2.8-2.3,4.5-3c2.9-1.1,6-1.1,8.9-0.1c1.9,0.6,3.5,1.7,4.8,3.2
		c0.2,0.3,0.4,0.5,0.5,0.8c0.1,0.2,0.2,0.4,0.2,0.6c0.1,0.4,0.1,0.6,0,0.7s-0.4,0.1-0.7-0.1s-0.3-0.2-0.5-0.3l-0.7-0.3
		c-1.4-0.7-2.9-1.2-4.4-1.4c-2.1-0.3-4.3,0-6.3,0.9c-2.3,1.1-4,3.1-4.9,5.5c-0.5,1.2-0.7,2.5-0.7,3.9c0,1.2,0.2,2.4,0.7,3.5
		c0.9,2,2.2,3.8,4,5.1c1.3,1,2.6,1.8,4.1,2.4l0.7,0.3c0.2,0.1,0.4,0.2,0.5,0.3s0.5,0.3,0.5,0.5s-0.2,0.3-0.5,0.4
		c-0.2,0.1-0.4,0.1-0.6,0.2c-0.2,0-0.5,0.1-0.9,0.1c-1.9,0-3.8-0.5-5.6-1.4c-2.6-1.4-4.8-3.5-6.1-6.1c-0.8-1.6-1.3-3.3-1.4-5.1
		C401.3,676.1,401.6,674.2,402.2,672.4z"/>
	<path class="st54" d="M535.3,603.8c0.6,0.4,1.8-0.4,3.6-1c2.1-0.8,4.4-1,6.6-0.5c2.1,0.7,4,2,5.4,3.8c1.2,1.4,1.8,2.7,2.5,2.7
		c0.3,0,0.7-0.4,0.9-1.1c0.2-1,0.2-2-0.1-3c-0.4-1.5-1.2-2.9-2.3-4c-1.4-1.5-3.1-2.5-5-3.1c-2-0.5-4-0.5-6,0.1
		c-1.5,0.4-2.9,1.2-4.1,2.3c-0.8,0.7-1.4,1.6-1.7,2.5C534.9,603.1,535,603.6,535.3,603.8z"/>
	<path class="st54" d="M498.2,607.4c0.6,0.4,2.2-0.9,4.8-2.3c0.6-0.4,1.4-0.7,2.2-1.1c0.8-0.3,1.7-0.6,2.6-0.9
		c1.9-0.5,3.9-0.7,5.9-0.5c1.9,0.2,3.8,0.9,5.5,1.9c1.4,0.8,2.7,1.9,3.8,3.1c1.9,2.1,2.5,4,3.3,4c0.3,0,0.6-0.6,0.7-1.6
		c0.1-1.5-0.2-2.9-0.9-4.2c-1-2-2.4-3.7-4.1-5c-2.2-1.7-4.9-2.8-7.6-3.1c-2.7-0.3-5.5,0.1-8,1.2c-2,0.8-3.8,2-5.4,3.5
		c-1,1-1.9,2.1-2.5,3.4C498,606.6,497.9,607.2,498.2,607.4z"/>
	<path class="st54" d="M478.5,622.2c0.7,0,1.3-1.4,2.7-2.9c1.8-1.9,4.2-3.2,6.8-3.4c2.8-0.2,5.6,0.2,8.2,1.3c2.2,0.8,3.7,1.5,4.2,1
		s-0.1-2.1-2.2-4c-3-2.5-6.8-3.7-10.7-3.2c-2.2,0.2-4.3,1.1-6.1,2.4c-1.4,1.1-2.5,2.5-3.2,4.2c-0.5,1.1-0.6,2.3-0.4,3.4
		C477.8,621.8,478.1,622.2,478.5,622.2z"/>
	<path class="st54" d="M451,618.2c0.8-0.1,1-1.9,2.2-4.1c0.7-1.3,1.6-2.4,2.6-3.4c1.2-1.2,2.7-2.1,4.3-2.7c3.2-1,6.5-1,9.7-0.1
		c2.6,0.6,4.3,1.4,4.8,0.8c0.2-0.3,0.1-0.8-0.5-1.6c-0.8-1-1.8-1.9-2.9-2.5c-1.7-1-3.6-1.7-5.5-2c-2.5-0.4-5-0.2-7.4,0.7
		c-2.4,0.9-4.5,2.4-6.1,4.4c-1.3,1.6-2.1,3.4-2.5,5.4c-0.3,1.3-0.2,2.7,0.2,3.9C450.3,617.9,450.7,618.3,451,618.2z"/>
	<path class="st53" d="M516.3,637.2c-1.4,0.8-2.6,1.9-3.5,3.2c-1.7,2.3-2.1,4.3-2.8,4.3c-0.3,0-0.6-0.5-0.8-1.5
		c-0.1-1.4,0.1-2.9,0.6-4.2c0.8-2.1,2.2-3.9,4-5.2c4.7-3.4,11.1-3.5,15.9-0.1c1.8,1.3,3.2,3.1,4.1,5.2c0.6,1.3,0.8,2.8,0.7,4.2
		c-0.1,1-0.5,1.5-0.8,1.5c-0.7,0-1.2-1.9-2.9-4.2c-1-1.3-2.2-2.4-3.6-3.2C523.8,635.2,519.7,635.2,516.3,637.2L516.3,637.2z"/>
	<path class="st53" d="M474.3,658.5c0.9-2.8,2.7-5.2,5.1-6.8c2.4-1.6,5.1-2.5,8-2.7c2.3-0.1,4.5,0.3,6.6,1.2
		c1.4,0.5,2.6,1.3,3.7,2.3c0.8,0.7,1,1.3,0.8,1.5c-0.4,0.6-2.4-0.2-5.5-0.7c-1.8-0.3-3.5-0.3-5.3-0.1c-2,0.3-4,1-5.7,2.2
		c-1.6,1.1-2.9,2.6-3.7,4.4c-0.6,1.5-0.9,3.1-0.8,4.8c0.2,2.9,1.5,4.6,1,5c-0.1,0.1-0.3,0.1-0.6,0c-0.4-0.1-0.8-0.3-1.1-0.6
		c-1.2-1-2-2.3-2.5-3.8C473.6,663.1,473.6,660.7,474.3,658.5z"/>
	<path class="st53" d="M501.9,657.2c1.7-2,3.8-3.6,6.3-4.4c2.4-0.8,5-1.1,7.6-0.7c2,0.3,3.9,1,5.7,2c1.2,0.6,2.2,1.5,3.1,2.5
		c0.6,0.7,0.8,1.3,0.6,1.5c-0.4,0.5-2.2-0.2-5-1c-1.6-0.4-3.2-0.7-4.8-0.7c-1.9-0.1-3.8,0.2-5.6,0.8c-1.7,0.6-3.3,1.5-4.6,2.8
		c-1.1,1.1-1.9,2.3-2.5,3.7c-1,2.4-1,4.3-1.7,4.5c-0.3,0.1-0.8-0.3-1.1-1.2c-0.5-1.3-0.6-2.7-0.5-4
		C499.7,660.8,500.6,658.8,501.9,657.2z"/>
	<path class="st55" d="M503.4,755.5c6.5,13.8,11,28.5,13.4,43.6c0.2,0.8-0.4,1.6-1.2,1.7c-0.7,0.1-1.4-0.3-1.7-1
		c-5.6-13.6-9.9-27.6-12.9-42c0-0.1,0-0.3,0-0.4c-0.1-0.2-0.1-0.3-0.2-0.5C500,755.3,502.5,753.8,503.4,755.5z"/>
	<path class="st55" d="M535.1,791.4c0-0.3,0.1-0.5,0.2-0.8c0.1-1.5,2.8-1.4,3,0.3c1.4,10.9,1.3,21.9-0.5,32.7
		c-0.3,1.6-2.9,1.2-2.9-0.4C534.9,812.6,535,802,535.1,791.4z"/>
	<path class="st55" d="M517.1,831.2c0.6-1,2.4-1.1,2.7,0.3c2,8.5,2.6,17.3,1.6,26c0,0.8-0.7,1.5-1.5,1.5s-1.5-0.7-1.5-1.5
		c-0.6-8.4-1.2-16.8-1.9-25.1C516.5,831.9,516.7,831.4,517.1,831.2z"/>
	<path class="st3" d="M786.9,947.1c15.6,58.1,31.7,116.1,48.3,173.9c7.8,27.1,14.3,56.3,24.3,82.5c8.6,22.5,23.5,28.1,39.5,30.1
		c37.9,5,76.5-0.8,111.3-16.7c13.2-6,31.2-14.8,34.5-35.9c1.7-11-0.4-23.8-1.4-35.4c-1.3-15.3-2.6-30.6-4-45.9
		c-5.9-64.1-16.1-134.8-22.3-196.3C1016.5,897.3,786.2,944.4,786.9,947.1z"/>
	<path class="st56" d="M763.3,909.1c2.5,14.9,11.5,33.9,16.4,39.7s46.2,19,128.1,3.2s110.8-36.2,114.5-45.8s4.2-31.4,1.9-46.3
		C1023.1,852.9,761.1,896.1,763.3,909.1z"/>
	<path class="st3" d="M748.3,911.8c8.4,26.5,125.9,9.8,172.4,0.3s117.4-28.9,117.7-54.7c0-1.3-0.1-6.3-0.8-8.6s-290.7,56-290.7,56
		C747.1,907.2,747.6,909.6,748.3,911.8z"/>
	<path class="st57" d="M1010.4,867.8c-35.5,9-70.6,19.3-105.2,31c-2.2,0.7-2.4,2.8-1.5,4.4c-0.3,2,1.1,4.4,3.7,3.9
		c27.2-4.9,50.2,21.2,77.5,13.5c23.5-6.6,18.4-30.8,28.8-47.5C1015,870.9,1013.5,867,1010.4,867.8z"/>
	<path class="st58" d="M746.8,904.8c5.6,27.2,125.9,9.8,172.4,0.3s118-29.5,118.4-55.3C1038,812.7,737.7,860.5,746.8,904.8z"/>
	<path class="st56" d="M1039.4,1099.7c-4.1-45.2-10.4-93.6-16-139.7c-20.7,15.7-48.2,23-73.1,29c-38.4,9.4-77.6,15.1-117.1,17.1
		c-10,0.5-20,0.8-30,0.8c10.5,38.1,21.1,76.1,32,114.1c6,20.9,11.3,43,18,64.1c64.6,4.5,129.3-7.2,188.2-34l2.5-1.2
		c-0.2-1.4-0.3-2.9-0.4-4.3C1042.1,1130.3,1040.8,1115,1039.4,1099.7z"/>
	<path class="st59" d="M914,881.5l-18.8,2c-2,0.2-2.7,3-1,4.1l0.8,0.5c0,1.1,0.9,2,2,2.1c5.3,0.7,10.6,0.6,15.8-0.3
		c3.1-0.5,10.1-1.3,10.5-5.3C923.7,879.6,916.7,881.2,914,881.5z"/>
	<path class="st59" d="M962.1,874.7l-16,4.3c-3.6,1-8,1.6-10.1,5.1c-0.7,1-0.5,2.5,0.6,3.2c0.3,0.2,0.7,0.4,1.1,0.4
		c9.8,0.6,24-0.4,28.3-10.7C967.1,874.6,963.7,873.1,962.1,874.7z"/>
	<path class="st59" d="M1012.3,851.7c-2.4-0.7-4.3,0.1-5.4,2.4c-0.1,0.3-0.2,0.6-0.2,0.9c-2.3,1.6-4.5,3.3-6.8,5
		c-1.7,1.2-3.8,2.4-5.1,4c-2,2.3-1.1,5.8,2.2,6s7.5-3.2,9.8-5.4c3-2.8,5.3-6.2,6.8-9.9C1014.1,853.6,1013.5,852.2,1012.3,851.7
		C1012.3,851.8,1012.3,851.7,1012.3,851.7z"/>
	<path class="st59" d="M986.6,853.1c-0.6-0.4-1.4-0.5-2.1-0.2l-15.9,6.6c-2,0.8-1.7,4.3,0.7,4.3c6.9,0.3,13.6-2.1,18.7-6.7
		c0.9-0.9,1-2.4,0-3.4C987.7,853.4,987.2,853.1,986.6,853.1z"/>
	<path class="st3" d="M834.3,1042.4c-2.3-5.5-8.7-2.2-6.4,3.4l0.1,0.2c-0.1,0.7-0.2,1.4-0.1,2.1c1,8.1,2.9,16,5.5,23.8
		c1.5,4.3,7,3.7,6.8-0.9C840,1061,838,1051.4,834.3,1042.4z"/>
	<path class="st3" d="M861.6,1090.5c-2.3-4.8-7.7-2.6-6.9,1.8c-0.4,1-0.6,2-0.4,3.1c1.2,8.2,3.1,16.3,5.7,24.2
		c1.5,4.8,6.5,3.2,6.8-0.9C867.6,1109,865.8,1099.3,861.6,1090.5z"/>
	<path class="st3" d="M862.4,1145.8c-0.7-2.2-2-3.1-3.3-3c-2.2-0.7-4.8,1.1-4.4,4.8c0.9,7.1,2.5,14.1,5,20.8
		c1.9,5.3,7.2,2.8,6.7-2.2C865.8,1159.3,864.4,1152.4,862.4,1145.8z"/>
	<path class="st3" d="M857.7,1018.3c-1.3-5.3-7.3-5-7.3-0.5c-1.1,0.8-1.7,2.2-1.4,4.4c1.2,6.9,2.9,13.7,5,20.3c1.4,4.4,7,3.6,6.8-1
		C860.7,1033.7,859.6,1025.9,857.7,1018.3z"/>
	<path class="st3" d="M886.7,1062.9c-1.8-4.9-7-3-6.8,1.3c-0.5,0.7-0.7,1.5-0.6,2.4c0.3,6,1.4,12,3.2,17.8c1.5,5,6.3,3,6.8-0.9
		C890.1,1076.5,889.2,1069.5,886.7,1062.9z"/>
	<path class="st60" d="M625.8,634.5c-0.9-13.5-1.8-27-2.4-40.6c-36.1,0.8-62,1.5-62,1.5s-230.9-3.9-243.3,1.6s-30.4,45.2-23.8,55.8
		s303.9,8.9,303.9,8.9s11.5,0.2,29.8,0.6C627.1,653.1,626.4,643.8,625.8,634.5z"/>
	<path class="st60" d="M626.2,595.4c-6.3-2.7-48-3.4-97.4-3.2c0,1.8-0.1,3.7-0.2,5.5c-0.7,22-1.4,43.9-2.8,65.8
		c65.2,0.1,128.9-1,134.5-5.6C672.2,648.3,643,602.6,626.2,595.4z"/>
	<path class="st61" d="M641.3,598.4c-7.3-6.7-16.7-8.1-26.4-8.2c-11-0.1-21.9,0.1-32.9,0.2c-7.3,0-119.3,1.4-130.6,1.1
		c-23-0.8-46-0.5-69,0c-11.4,0.2-22.9,0.4-34.3,0.5c-10.1,0.1-21.9-1.8-31.5,2c-3.8,1.5-7.1,4-9.8,7.2c2.3,2,4.8,3.7,7.1,5.6
		c1.1-1.4,2.5-2.5,4.1-3.4c4.3-2.3,9.2-2.3,14-2.3c10.5,0,21.1,0.1,31.6-0.1c21.8-0.3,43.7-1,65.5-0.9c21.6,0.2,85.6-0.1,96-0.1h3.5
		l37.3-0.3c19.3,0,38.5,1.4,57.8,0.8v-0.6c4,0.5,7.8,2.2,10.9,4.8c0.7,0.6,1.3,1.2,1.9,1.9c2.1-2.2,4.3-4.3,6.5-6.5
		C642.4,599.5,641.9,598.9,641.3,598.4z"/>
	<path class="st62" d="M396.1,569.6c-52.5-39.7-97.9,74.1-48.2,110.9c24.7,18.3,60.9,7.4,72.8-20.5c7.6-17.8,3.7-40.4-3.2-58.8
		C413.1,589.5,400.9,573.2,396.1,569.6z"/>
	<path class="st62" d="M501,569.6c-52.5-39.7-97.9,74.1-48.2,110.9c24.7,18.3,60.9,7.4,72.8-20.5c7.6-17.8,3.7-40.4-3.2-58.8
		C517.9,589.5,505.8,573.2,501,569.6z"/>
	<path class="st62" d="M605.8,569.6c-52.5-39.7-97.9,74.1-48.2,110.9c24.7,18.3,60.9,7.4,72.8-20.5c7.6-17.8,3.7-40.4-3.2-58.8
		C622.7,589.5,610.6,573.2,605.8,569.6z"/>
	<path class="st63" d="M615.5,585.5c-1.2-5.7-6.4-9.6-10.8-13c-8-6.2-19-10.7-28.4-6.9c-3,0.5-5.9,1.9-8,4.1
		c-5.1,5.4-3.9,13.3,1.8,17.7c4.4,3.5,10.9,4.6,16.2,6.3s11.3,4.5,17,4.8C610.5,598.8,617,592.7,615.5,585.5z"/>
	<path class="st63" d="M503.8,575.3c-6.2-9-16-11.1-26.1-11.1h-0.8c-1.6,0-3.2,0.1-4.8,0.3c-1.1,0.1-2.1,0.2-3.2,0.3
		c-1.2,0.1-2.3,0.6-3.2,1.4c-1.7,0.7-3.2,1.6-4.6,2.7c-5.2,4.3-6.2,11.7-1.6,16.8c3.6,4,9.4,5.9,14.3,7.8c5.2,2,10.6,3.6,16.1,4.6
		c6.6,1.2,13.3-1,16-7.5C507.9,585.6,506.8,579.7,503.8,575.3z"/>
	<path class="st63" d="M400,578.5c-4.6-9.3-15.2-14.9-25.6-14.2c-9.5-1-20.3,1.5-22.3,11c-2.7,12.8,15.5,20,25.4,22.8
		c6.1,1.7,13.6,3.5,19.2-0.5C402.9,593,403.2,585,400,578.5z"/>
	<path class="st64" d="M434.1,633.2c-0.8-6.8-1.5-14.6-6.2-20s-13.4-5.9-19.8-3.6c-8.4,3-10.6,11-11.2,19
		c-0.7,10.1-0.4,20.7-5.5,29.9c-0.5,0.9-0.7,2-0.6,3c-0.2,2.3,1.4,4.3,3.7,4.5c0.2,0,0.4,0,0.6,0c13.3,0,26.6,0.2,39.9,0.5
		c2.6,0.1,4.7-1.9,4.8-4.4c0-0.4,0-0.8-0.1-1.1C437.9,651.7,435.1,642.6,434.1,633.2z"/>
	<path class="st64" d="M545.6,636c-1.4-7.6-0.4-17.8-6.7-23.5c-5.3-4.9-14-4.6-20-1.1c-7.5,4.4-8.9,12.8-9.1,20.6
		c-0.1,4.6,0.2,9.2-0.9,13.7c-1.2,5.2-3.5,10-5.5,14.9c-1.2,2.9,0.8,5,3.2,5.5c5.3,2.6,12.1,1,17.7,0.9c9.5-0.2,18.9,0.4,28.4,0
		c4-0.2,6.5-4.5,3.6-7.7C550.3,652.9,547.2,644.5,545.6,636z"/>
	<path class="st63" d="M376.7,611.7c-52.5-39.7-97.9,74.1-48.2,111c24.7,18.3,60.9,7.3,72.8-20.5c7.6-17.8,3.7-40.5-3.2-58.8
		C393.6,631.6,381.5,615.3,376.7,611.7z"/>
	<path class="st63" d="M491.2,611.7c-52.5-39.7-97.9,74.1-48.2,111c24.7,18.3,60.9,7.3,72.8-20.5c7.6-17.8,3.7-40.5-3.2-58.8
		C508.2,631.6,496,615.3,491.2,611.7z"/>
	<path class="st63" d="M605.8,611.7c-52.5-39.7-97.9,74.1-48.2,111c24.7,18.3,60.9,7.3,72.8-20.5c7.6-17.8,3.7-40.5-3.2-58.8
		C622.7,631.6,610.6,615.3,605.8,611.7z"/>
	<path class="st65" d="M615.5,629.2c-1.2-5.7-6.4-9.6-10.8-13c-8-6.2-19-10.7-28.4-6.9c-3,0.5-5.9,1.9-8,4.1
		c-5.1,5.4-3.9,13.3,1.8,17.7c4.4,3.4,10.9,4.6,16.2,6.3s11.3,4.5,17,4.8C610.5,642.5,617,636.5,615.5,629.2z"/>
	<path class="st65" d="M497,619.1c-6.2-9-16-11.1-26.1-11.1c-0.2,0-0.5,0-0.8,0c-1.6,0-3.2,0.1-4.8,0.3c-1.1,0.1-2.1,0.2-3.2,0.2
		c-1.2,0.1-2.3,0.6-3.2,1.4c-1.7,0.7-3.2,1.6-4.6,2.7c-5.2,4.3-6.2,11.7-1.6,16.8c3.5,4,9.4,5.9,14.3,7.8c5.2,2,10.6,3.6,16.1,4.6
		c6.7,1.2,13.3-1,16-7.5C501,629.4,500,623.5,497,619.1z"/>
	<path class="st65" d="M384.2,622.3c-4.6-9.3-15.2-14.9-25.6-14.2c-9.5-1-20.3,1.5-22.3,11c-2.7,12.8,15.5,20,25.4,22.8
		c6.1,1.7,13.6,3.5,19.2-0.5C387.1,636.8,387.4,628.7,384.2,622.3z"/>
	<path class="st66" d="M635.1,668.3c-0.5-0.5-1-0.9-1.6-1.3c-5.6-3.9-13.3-4.4-20-4.2c-4,0.1-8,0.5-12,0.9c-1.1,0.1-2.2,0.3-3.3,0.4
		c0.2,0-0.1-0.1-1,0l-1.8,0.1c-9.1,0.4-18.2,0.4-27.3,0.5s-18.8-1-27.4,1.9c-4.2,1.4-7.9,4.6-8,9.3c-0.2,14.4,3.5,28.5,8.9,41.8
		c4.3,10.6,12.4,20.2,24.1,23.3c6.7,1.8,14,1.9,20.9,1.8c7.1,0,14.2-0.4,21.2-1.1c5.3-0.5,10.3-2.7,14.4-6.1c4.5-3.9,6.7-9.5,8.5-15
		c4.5-13.8,10-28.1,9.8-42.9C640.4,673.8,638.4,670.2,635.1,668.3z"/>
	<path class="st66" d="M519.4,668.3c-0.5-0.5-1-0.9-1.6-1.3c-5.6-3.9-13.3-4.4-20-4.2c-4,0.1-8,0.5-12,0.9c-1.1,0.1-2.2,0.3-3.3,0.4
		c0.1,0-0.1-0.1-1,0l-1.8,0.1c-9.1,0.4-18.2,0.4-27.3,0.5s-18.7-1-27.4,1.9c-4.2,1.4-7.9,4.6-8,9.3c-0.2,14.4,3.5,28.5,8.9,41.8
		c4.3,10.6,12.4,20.2,24.1,23.3c6.7,1.8,14,1.9,20.9,1.8c7.1,0,14.2-0.4,21.2-1.1c5.3-0.6,10.3-2.7,14.3-6.1c4.5-3.9,6.7-9.5,8.5-15
		c4.5-13.8,10-28.1,9.8-42.9C524.6,673.8,522.6,670.3,519.4,668.3z"/>
	<path class="st66" d="M404.8,668.3c-0.5-0.5-1-0.9-1.6-1.3c-5.6-3.9-13.3-4.4-20-4.2c-4,0.1-8,0.5-12,0.9c-1.1,0.1-2.2,0.3-3.4,0.4
		c0.1,0-0.1-0.1-1,0l-1.8,0.1c-9.1,0.4-18.2,0.4-27.3,0.5s-18.7-1-27.4,1.9c-4.2,1.4-7.9,4.6-8,9.3c-0.2,14.4,3.5,28.5,8.9,41.8
		c4.3,10.6,12.4,20.2,24.1,23.3c6.7,1.8,14,1.9,20.9,1.8c7.1,0,14.2-0.4,21.2-1.1c5.3-0.5,10.3-2.7,14.4-6.1c4.5-3.9,6.7-9.5,8.5-15
		c4.5-13.8,10-28.1,9.8-42.9C410.1,673.8,408.1,670.2,404.8,668.3z"/>
	<path class="st64" d="M623.2,660.4c-20.1,0.2-40.2,1-60.2,1c-6.6,0-109.2-0.6-145.3-0.4c-22.4,0.2-44.9,0.3-67.3-0.7
		c-11.3-0.5-51.4,3.2-62.4-13.7c0,4.3-2.6,18-0.8,22c2.2,4.6,7,7.3,11.9,8.2c5.1,1,10.2,0.9,15.4,1.2c5,0.3,9.9,0.8,14.9,1.2
		c21.1,1.5,42.2,1.9,63.3,1.9c42.4-0.1,205.2-0.4,226.5-0.7c8-0.1,16,0,24.1,0.1c7.3,0.1,15.4-0.7,20.8-6.1
		c3.4-3.5,4.1-18.3,4.3-23.1C657.8,663.9,630.7,660.3,623.2,660.4z"/>
	<path class="st61" d="M419.5,661.4l0.1,0.1v0.2c1.3,5,6,9.5,13.2,11.6c4,1,8.2,1.5,12.3,1.5c4.3,0.1,8.7,0.2,13,0.3
		c4.7,0.1,9.5-0.1,14.2-0.5c4.6-0.4,9.2-0.2,13.9-0.2c8.6,0,17.5-0.1,26.1-0.7c3.5-0.2,7.2-0.8,9.9-2.3c1.3-0.7,2.4-1.8,3.2-3.1
		c0.3-0.5,3.8-5.6,4.5-7.1c1-2.2-1.2-3.8-4.6-4c-2.7-0.1-89.3,0.3-94.5,0.3c-3,0-7.3-0.5-10,0.6
		C419.4,658.9,418.5,660.2,419.5,661.4z"/>
	<path class="st61" d="M668.4,648.5c-0.8-10-6.1-19.5-11-28c-4.4-7.7-9.5-16-16.1-22c-4-3.6-8.9-6-14.2-7c0.3,3.1,0.3,6.2,0.2,9.3
		c2.7,0.8,5.2,2.1,7.3,4c7,6.5,12.1,15.5,16.5,23.8c2.2,3.9,4.2,8,5.9,12.1c1.3,3.3,3.8,9.9,1.2,13.1c0.1-0.1,0.1-0.2,0.2-0.2
		c-0.1,0.1-0.1,0.1-0.2,0.2c-0.8,1-0.3,0.4,0,0c-2.2,2.7-8.4,2.6-11.5,2.7c-5.4,0.2-10.9,0-16.3,0.2c-10.7,0.3-21.5,0.6-32.2,0.8
		c-21.4,0.4-95.6,0.8-107.3,0.6c-22.1-0.3-44.3-1.5-66.5-1.6c-21.5,0-42.9,0.8-64.4,0.2c-10.4-0.3-20.7-0.8-31.1-1.1
		c-7.7-0.2-16.1,0.1-23.6-1.8c-2.5-0.6-5.3-1.6-6.9-3.7c-2.5-3.2-0.9-8,0.4-11.3c1.5-3.9,3.6-7.6,5.3-11.5c2.1-4.8,3.9-9.8,6.1-14.5
		c1.8-3.7,4-7.3,7.8-9.4c1.6-0.9,3.4-1.5,5.1-1.8c-0.2-3.1-0.4-6.2-0.5-9.2c-2.1,0.3-4.1,0.9-6.1,1.7c-7.3,2.9-12.1,9-15.2,15.9
		c-2.2,4.7-4,9.5-6.1,14.3c-2.1,4.9-4.8,9.7-6.3,14.8c-2.5,8.6-0.5,16.8,8,21s19,4.2,28.3,4.4c22.8,0.3,45.5,2.1,68.3,1.7
		c23.1-0.4,46.1-0.6,69.2,0.2c21.9,0.7,106.2,0.5,126.5,0.3c11.5-0.1,23-0.3,34.6-0.6c5.3-0.1,10.6-0.3,15.8-0.3s10.5,0.2,15.7-0.9
		C663.8,662.7,669.1,657,668.4,648.5z"/>
	<path class="st67" d="M659.9,646.7c0,0-5.7-75.9-25.3-87.4s-300.6-16-319.8,0s-17.9,84.5-17.9,84.5c-6,15.4,67.6,13.8,180.6,13.8
		C626.4,657.6,665.5,662.8,659.9,646.7z"/>
	<linearGradient id="SVGID_18_" gradientUnits="userSpaceOnUse" x1="209.7142" y1="1009.9257" x2="1263.8864" y2="1009.9257">
		<stop  offset="0" style="stop-color:#1AFF00"/>
		<stop  offset="1" style="stop-color:#00AA3F"/>
	</linearGradient>
	<path class="st68" d="M209.7,730.4c8.5,102.2,17,204.4,25.5,306.6c4.3,51.1,8.5,102.2,12.7,153.3c2.7,32.7,2.7,70.1,31.4,89.1
		c29.1,19.3,73,14.2,105.3,15.8c47.1,2.3,94.2,3.8,141.4,4.5c70.3,1.1,351.2,1.1,421.5,0c47.2-0.7,94.3-2.2,141.4-4.5
		c32.3-1.6,76.2,3.5,105.3-15.8c28.8-19.1,28.7-56.4,31.4-89.1c4.3-51.1,8.5-102.2,12.7-153.3l25.5-306.6
		C1265.1,715.9,208.5,715.3,209.7,730.4z M404.4,1206.7c0,24.2-52.5,19.5-52.5,0.6v-180.4c0-14.7,52.5-12,52.5-0.7V1206.7z
		 M404.4,968.3c0,24.2-52.5,19.5-52.5,0.6V788.5c0-14.7,52.5-12,52.5-0.7V968.3z M506.9,1206.7c0,24.2-52.5,19.5-52.5,0.6v-180.4
		c0-14.7,52.5-12,52.5-0.7V1206.7z M506.9,968.3c0,24.2-52.5,19.5-52.5,0.6V788.5c0-14.7,52.5-12,52.5-0.7V968.3z M609.4,1206.7
		c0,24.2-52.5,19.5-52.5,0.6v-180.4c0-14.7,52.5-12,52.5-0.7L609.4,1206.7z M609.4,968.3c0,24.2-52.5,19.5-52.5,0.6V788.5
		c0-14.7,52.5-12,52.5-0.7L609.4,968.3z M711.8,1206.7c0,24.2-52.5,19.5-52.5,0.6v-180.4c0-14.7,52.5-12,52.5-0.7L711.8,1206.7z
		 M711.8,968.3c0,24.2-52.5,19.5-52.5,0.6V788.5c0-14.7,52.5-12,52.5-0.7L711.8,968.3z M814.3,1206.7c0,24.2-52.5,19.5-52.5,0.6
		v-180.4c0-14.7,52.5-12,52.5-0.7V1206.7z M814.3,968.3c0,24.2-52.5,19.5-52.5,0.6V788.5c0-14.7,52.5-12,52.5-0.7V968.3z
		 M916.8,1206.7c0,24.2-52.5,19.5-52.5,0.6v-180.4c0-14.7,52.5-12,52.5-0.7V1206.7z M916.8,968.3c0,24.2-52.5,19.5-52.5,0.6V788.5
		c0-14.7,52.5-12,52.5-0.7V968.3z M1019.3,1206.7c0,24.2-52.5,19.5-52.5,0.6v-180.4c0-14.7,52.5-12,52.5-0.7L1019.3,1206.7z
		 M1019.3,968.3c0,24.2-52.5,19.5-52.5,0.6V788.5c0-14.7,52.5-12,52.5-0.7L1019.3,968.3z M1121.8,1206.7c0,24.2-52.5,19.5-52.5,0.6
		v-180.4c0-14.7,52.5-12,52.5-0.7V1206.7z M1121.8,968.3c0,24.2-52.5,19.5-52.5,0.6V788.5c0-14.7,52.5-12,52.5-0.7V968.3z"/>
	<linearGradient id="SVGID_19_" gradientUnits="userSpaceOnUse" x1="699.7253" y1="481.3142" x2="773.8754" y2="481.3142">
		<stop  offset="0" style="stop-color:#000000"/>
		<stop  offset="1" style="stop-color:#552F00"/>
	</linearGradient>
	<path class="st69" d="M773.9,249.3c0-25.6-74.2-31.6-74.2,1.7v447.3c0,43.1,74.2,53.8,74.2-1.3V249.3z"/>
	<linearGradient id="SVGID_20_" gradientUnits="userSpaceOnUse" x1="179.3453" y1="697.3713" x2="1294.2128" y2="697.3713">
		<stop  offset="0" style="stop-color:#0AE900"/>
		<stop  offset="1" style="stop-color:#006A30"/>
	</linearGradient>
	<path class="st70" d="M1293.9,664.3c0.6-4.3-2.7-8.8-10.2-8.8l-1096-4.4c-12.3,0-7.4,59-7.9,80.3c-0.1,2.6,1.2,4.5,3.1,5.9
		c0.7,0.5,1.3,1,1.9,1.5c1.7,1.3,4.1,2.2,7.3,2.2l1094.9,2.8C1296.2,743.6,1294,664.4,1293.9,664.3z"/>
</g>
</svg>
