<svg id="Layer_1" data-name="Layer 1" xmlns="http://www.w3.org/2000/svg" xmlns:xlink="http://www.w3.org/1999/xlink" viewBox="0 0 1500 1500"><defs><style>.cls-1{fill:#fff;}.cls-2{fill:#ad752f;}.cls-3{fill:#d69340;}.cls-4{fill:url(#linear-gradient);}.cls-5{fill:#bd8239;}.cls-6{fill:url(#linear-gradient-2);}.cls-7{fill:url(#linear-gradient-3);}.cls-8{fill:url(#linear-gradient-4);}.cls-9{opacity:0.24;fill:url(#linear-gradient-5);}.cls-10{fill:url(#linear-gradient-6);}.cls-11{opacity:0.25;fill:url(#linear-gradient-7);}.cls-12{fill:url(#linear-gradient-8);}.cls-13{opacity:0.43;}</style><linearGradient id="linear-gradient" x1="285.48" y1="886.45" x2="681.67" y2="886.45" gradientUnits="userSpaceOnUse"><stop offset="0" stop-color="#ff9c00"/><stop offset="1" stop-color="#ffc67f"/></linearGradient><linearGradient id="linear-gradient-2" x1="681.62" y1="886.45" x2="1209.9" y2="886.45" gradientUnits="userSpaceOnUse"><stop offset="0" stop-color="#d4a000"/><stop offset="1" stop-color="#ffbf3f"/></linearGradient><linearGradient id="linear-gradient-3" x1="833.76" y1="363.73" x2="1348.44" y2="363.73" gradientUnits="userSpaceOnUse"><stop offset="0" stop-color="#e8b06d"/><stop offset="1" stop-color="#edc28e"/></linearGradient><linearGradient id="linear-gradient-4" x1="126.29" y1="364.83" x2="790.17" y2="364.83" gradientUnits="userSpaceOnUse"><stop offset="0" stop-color="#e8b053"/><stop offset="1" stop-color="#edc28e"/></linearGradient><linearGradient id="linear-gradient-5" x1="555.2" y1="879.32" x2="427.9" y2="700.49" gradientTransform="matrix(1, 0, 0, -1, 0, 1500)" gradientUnits="userSpaceOnUse"><stop offset="0"/><stop offset="0.84"/></linearGradient><linearGradient id="linear-gradient-6" x1="159.31" y1="648.08" x2="669.01" y2="648.08" xlink:href="#linear-gradient-3"/><linearGradient id="linear-gradient-7" x1="838.06" y1="909.08" x2="955.94" y2="690.4" gradientTransform="matrix(1, 0, 0, -1, 0, 1500)" gradientUnits="userSpaceOnUse"><stop offset="0"/><stop offset="1"/></linearGradient><linearGradient id="linear-gradient-8" x1="703.47" y1="661.4" x2="1334.46" y2="661.4" xlink:href="#linear-gradient-3"/></defs><g id="ƒŒƒCƒ_6" data-name="ƒŒƒCƒ  6"><rect class="cls-1" width="1500" height="1500" rx="336.29"/><polygon class="cls-2" points="286.18 1121.74 816.72 1012.07 811.13 290.75 285.53 465.95 286.18 1121.74"/><polygon class="cls-3" points="681.67 1307 285.48 1121.93 285.48 465.89 681.67 644.47 681.67 1307"/><polygon class="cls-4" points="681.67 1307 285.48 1121.93 285.48 465.89 681.67 644.47 681.67 1307"/><polygon class="cls-5" points="1209.86 1121.96 811.68 940.83 810.8 291.1 1209.86 465.88 1209.86 1121.96"/><polygon class="cls-6" points="681.62 1307 1209.9 1121.93 1209.9 465.89 681.62 644.47 681.62 1307"/><path class="cls-7" d="M842.06,286.07l148.22-23.63a9.87,9.87,0,0,1,5.32.62l346.76,143.56a9.85,9.85,0,0,1-.87,18.51l-128.87,39.58a9.84,9.84,0,0,1-6.82-.39L839.67,304.82C830.66,300.89,832.34,287.62,842.06,286.07Z"/><path class="cls-8" d="M130.28,423.91,620.49,263.7a6,6,0,0,1,2.65-.22l162.1,24.11a5.79,5.79,0,0,1,1,11.2L295.35,465.93a5.83,5.83,0,0,1-3,.2L131,435.1A5.79,5.79,0,0,1,130.28,423.91Z"/><path class="cls-9" d="M666.26,679.76,548.38,916.16A22,22,0,0,1,514,922.8L297.42,730.39c-14.11-12.53-6.95-35.85,11.76-38.31l334.49-44A22,22,0,0,1,666.26,679.76Z"/><path class="cls-10" d="M272.12,484.5,165.33,624.32a29.26,29.26,0,0,0,11.6,44.61L526.67,820.75a29.26,29.26,0,0,0,35.3-9.61L663.39,672a29.28,29.28,0,0,0-11.8-44L307.23,475.5A29.27,29.27,0,0,0,272.12,484.5Z"/><path class="cls-11" d="M699.29,675.08,795.9,890.39a27.59,27.59,0,0,0,37.29,13.49l272.75-133.27c21-10.27,20.52-40.39-.82-50L870.25,615.25a27.47,27.47,0,0,0-16-2L719.74,636.6A27.59,27.59,0,0,0,699.29,675.08Z"/><path class="cls-12" d="M725.16,629.1l463.67-155.88a31.8,31.8,0,0,1,35,10.3L1327.49,613.3a31.8,31.8,0,0,1-12.79,49.28L860.06,848.85A31.81,31.81,0,0,1,822,837.73L709.28,677.54A31.8,31.8,0,0,1,725.16,629.1Z"/><g class="cls-13"><path d="M955,1048v111.29l102.77-36.16V1011.87Zm96.48,70.53-90.19,31.73v-97.65l90.19-31.74Z"/><polygon points="1003.46 1070.71 997.89 1064.93 992.31 1059.16 986.76 1068.84 981.21 1078.53 988.37 1076.01 988.37 1112.25 996.25 1109.48 996.25 1073.24 1003.46 1070.71"/><polygon points="1031.52 1060.83 1025.95 1055.06 1020.4 1049.28 1014.82 1058.97 1009.28 1068.66 1016.46 1066.13 1016.46 1102.37 1024.35 1099.59 1024.35 1063.36 1031.52 1060.83"/><polygon points="985.06 1120.01 985.06 1124.48 1027.7 1109.48 1027.7 1105.01 985.06 1120.01"/><path d="M1075,1005.8v111.3l102.82-36.18V969.62Zm96.52,70.52-90.22,31.74V1010.4l90.22-31.74Z"/><path d="M1133,1069.54a1.12,1.12,0,0,0-.72.06,2.6,2.6,0,0,0-1.46,1.57,4.55,4.55,0,0,0-.31,1.31,2.54,2.54,0,0,1-.19.65.78.78,0,0,1-.28.15c-.35.13-.51-.14-.55-.77v-49.84l-3.3,1.16v50h0c.07,2.56,1.47,3.87,3.47,3.22l.29-.1a6.51,6.51,0,0,0,1.66-.85,4.56,4.56,0,0,0,1.15-1.25,8.3,8.3,0,0,0,1.26-3.64,1.34,1.34,0,0,0-.93-1.65Z"/><path d="M1151.5,1025.14a19.68,19.68,0,0,0-.15-2.66,27.52,27.52,0,0,0-.47-3,25.79,25.79,0,0,0-.83-2.85h0a11.47,11.47,0,0,0-.94-2.23c-.29-.55-.57-1.13-.88-1.67a24,24,0,0,0-1.48-2,13.87,13.87,0,0,0-2.22-2.18c-.17-.16-.38-.3-.54-.43-4.09-3-9.13-3.79-14.68-2.35a1.63,1.63,0,0,0-2-1.2l-.25.08a3.82,3.82,0,0,0-2.26,2.72,34,34,0,0,0-10.9,8.33c-.06,0-.14.15-.22.22a42.4,42.4,0,0,0-10.33,24.45v1.73Z"/></g></g></svg>