<svg xmlns="http://www.w3.org/2000/svg" xmlns:xlink="http://www.w3.org/1999/xlink" viewBox="0 0 1500 1500"><defs><style>.cls-1{fill:#fff;}.cls-2{fill:url(#Áåçûìÿííûé_ãðàäèåíò_77);}.cls-3{fill:#969696;}.cls-4{fill:#bbb;}.cls-5{fill:url(#Áåçûìÿííûé_ãðàäèåíò_116);}.cls-6{fill:url(#Áåçûìÿííûé_ãðàäèåíò_133);}.cls-7{fill:url(#Áåçûìÿííûé_ãðàäèåíò_138);}.cls-8{fill:url(#Áåçûìÿííûé_ãðàäèåíò_26);}.cls-9{fill:url(#Áåçûìÿííûé_ãðàäèåíò_122);}.cls-10{fill:url(#Áåçûìÿííûé_ãðàäèåíò_140);}.cls-11{fill:#4d4d4d;}.cls-12{fill:url(#Áåçûìÿííûé_ãðàäèåíò_104);}.cls-13{fill:url(#Áåçûìÿííûé_ãðàäèåíò_50);}.cls-14{fill:url(#Áåçûìÿííûé_ãðàäèåíò_85);}.cls-15{fill:url(#Áåçûìÿííûé_ãðàäèåíò_24);}.cls-16{fill:url(#Áåçûìÿííûé_ãðàäèåíò_18);}.cls-17{fill:url(#Áåçûìÿííûé_ãðàäèåíò_45);}.cls-18{fill:#c17111;}.cls-19{fill:#894600;}.cls-20{fill:#b16111;}.cls-21{fill:url(#Áåçûìÿííûé_ãðàäèåíò_115);}.cls-22{fill:#d99d46;}.cls-23{fill:url(#Áåçûìÿííûé_ãðàäèåíò_16);}.cls-24{fill:#c5d982;}.cls-25{fill:url(#Áåçûìÿííûé_ãðàäèåíò_15);}.cls-26{fill:url(#Áåçûìÿííûé_ãðàäèåíò_110);}.cls-27{fill:#fafafa;}.cls-28{fill:#aa8925;}.cls-28,.cls-29,.cls-30,.cls-31,.cls-32,.cls-33{isolation:isolate;}.cls-29{fill:#82611e;}.cls-30{fill:#9db11e;}.cls-31{fill:#c5c525;}.cls-32{fill:url(#Áåçûìÿííûé_ãðàäèåíò_99);}.cls-33{fill:url(#Áåçûìÿííûé_ãðàäèåíò_103);}.cls-34{fill:#fafab1;}</style><linearGradient id="Áåçûìÿííûé_ãðàäèåíò_77" x1="378.78" y1="275.37" x2="1131.22" y2="275.37" gradientUnits="userSpaceOnUse"><stop offset="0" stop-color="#d9d9d9"/><stop offset="0.08" stop-color="#c4c4c4"/><stop offset="0.28" stop-color="#9a9a9a"/><stop offset="0.45" stop-color="#7b7b7b"/><stop offset="0.6" stop-color="#686868"/><stop offset="0.7" stop-color="#616161"/><stop offset="0.77" stop-color="#656565"/><stop offset="0.83" stop-color="#727272"/><stop offset="0.9" stop-color="#868686"/><stop offset="0.97" stop-color="#a3a3a3"/><stop offset="1" stop-color="#b1b1b1"/></linearGradient><linearGradient id="Áåçûìÿííûé_ãðàäèåíò_116" x1="378.78" y1="337.07" x2="1131.22" y2="337.07" gradientUnits="userSpaceOnUse"><stop offset="0" stop-color="#ededed"/><stop offset="0.01" stop-color="#e9e9e9"/><stop offset="0.15" stop-color="#c4c4c4"/><stop offset="0.29" stop-color="#a7a7a7"/><stop offset="0.43" stop-color="#939393"/><stop offset="0.57" stop-color="#868686"/><stop offset="0.7" stop-color="#828282"/><stop offset="0.76" stop-color="#868686"/><stop offset="0.83" stop-color="#939393"/><stop offset="0.89" stop-color="#a7a7a7"/><stop offset="0.96" stop-color="#c4c4c4"/><stop offset="1" stop-color="#d9d9d9"/></linearGradient><linearGradient id="Áåçûìÿííûé_ãðàäèåíò_133" x1="394.03" y1="321.12" x2="1115.96" y2="321.12" gradientUnits="userSpaceOnUse"><stop offset="0" stop-color="#969696"/><stop offset="1" stop-color="#e6e6e6"/></linearGradient><linearGradient id="Áåçûìÿííûé_ãðàäèåíò_138" x1="388.44" y1="341.7" x2="1121.56" y2="341.7" gradientUnits="userSpaceOnUse"><stop offset="0" stop-color="#fafafa"/><stop offset="1" stop-color="#757575"/></linearGradient><linearGradient id="Áåçûìÿííûé_ãðàäèåíò_26" x1="407.22" y1="254.02" x2="1102.78" y2="254.02" gradientUnits="userSpaceOnUse"><stop offset="0" stop-color="#fafafa"/><stop offset="0" stop-color="#f9f9f9"/><stop offset="0.22" stop-color="#cfcfcf"/><stop offset="0.42" stop-color="#b0b0b0"/><stop offset="0.58" stop-color="#9d9d9d"/><stop offset="0.7" stop-color="#969696"/><stop offset="0.78" stop-color="#9a9a9a"/><stop offset="0.87" stop-color="#a7a7a7"/><stop offset="0.96" stop-color="#bbb"/><stop offset="1" stop-color="#c8c8c8"/></linearGradient><linearGradient id="Áåçûìÿííûé_ãðàäèåíò_122" x1="410.33" y1="202.08" x2="1099.67" y2="202.08" gradientUnits="userSpaceOnUse"><stop offset="0" stop-color="#ededed"/><stop offset="0.06" stop-color="#dfdfdf"/><stop offset="0.23" stop-color="#c2c2c2"/><stop offset="0.39" stop-color="#aeaeae"/><stop offset="0.54" stop-color="#a1a1a1"/><stop offset="0.7" stop-color="#9d9d9d"/><stop offset="0.77" stop-color="#a1a1a1"/><stop offset="0.85" stop-color="#aeaeae"/><stop offset="0.93" stop-color="#c2c2c2"/><stop offset="1" stop-color="#d9d9d9"/></linearGradient><linearGradient id="Áåçûìÿííûé_ãðàäèåíò_140" x1="410.33" y1="203.11" x2="755" y2="203.11" gradientUnits="userSpaceOnUse"><stop offset="0" stop-color="#fafafa"/><stop offset="1" stop-color="#d9d9d9"/></linearGradient><radialGradient id="Áåçûìÿííûé_ãðàäèåíò_104" cx="631.14" cy="787.25" r="231.01" gradientTransform="translate(-1418.08 -2848.03) scale(3.73 4.11)" gradientUnits="userSpaceOnUse"><stop offset="0" stop-color="#964611"/><stop offset="0" stop-color="#974711"/><stop offset="0.32" stop-color="#bc711a"/><stop offset="0.6" stop-color="#d79020"/><stop offset="0.83" stop-color="#e7a324"/><stop offset="1" stop-color="#edaa25"/></radialGradient><linearGradient id="Áåçûìÿííûé_ãðàäèåíò_50" x1="765.59" y1="1408.82" x2="753.17" y2="1216.53" gradientUnits="userSpaceOnUse"><stop offset="0" stop-color="#893900"/><stop offset="0" stop-color="#8a3a00"/><stop offset="0.32" stop-color="#b4640d"/><stop offset="0.6" stop-color="#d38316"/><stop offset="0.83" stop-color="#e6961c"/><stop offset="1" stop-color="#ed9d1e"/></linearGradient><linearGradient id="Áåçûìÿííûé_ãðàäèåíò_85" x1="417.84" y1="376.78" x2="1092.16" y2="376.78" gradientUnits="userSpaceOnUse"><stop offset="0" stop-color="#9d4d00"/><stop offset="0.02" stop-color="#a35405"/><stop offset="0.15" stop-color="#ba711c"/><stop offset="0.27" stop-color="#cb852c"/><stop offset="0.39" stop-color="#d69236"/><stop offset="0.5" stop-color="#d99639"/><stop offset="0.61" stop-color="#d69236"/><stop offset="0.73" stop-color="#cb852c"/><stop offset="0.85" stop-color="#ba711c"/><stop offset="0.98" stop-color="#a35405"/><stop offset="1" stop-color="#9d4d00"/></linearGradient><linearGradient id="Áåçûìÿííûé_ãðàäèåíò_24" x1="417.84" y1="398.38" x2="1092.16" y2="398.38" gradientUnits="userSpaceOnUse"><stop offset="0" stop-color="#b16100"/><stop offset="0.05" stop-color="#bb6f0c"/><stop offset="0.16" stop-color="#d18c25"/><stop offset="0.28" stop-color="#e1a037"/><stop offset="0.39" stop-color="#eaad42"/><stop offset="0.5" stop-color="#edb146"/><stop offset="0.61" stop-color="#eaad42"/><stop offset="0.72" stop-color="#e1a037"/><stop offset="0.84" stop-color="#d18c25"/><stop offset="0.95" stop-color="#bb6f0c"/><stop offset="1" stop-color="#b16100"/></linearGradient><linearGradient id="Áåçûìÿííûé_ãðàäèåíò_18" x1="410.81" y1="359.68" x2="410.81" y2="1400.67" gradientUnits="userSpaceOnUse"><stop offset="0" stop-color="#edc561"/><stop offset="1" stop-color="#d98911"/></linearGradient><linearGradient id="Áåçûìÿííûé_ãðàäèåíò_45" x1="1099.19" y1="359.68" x2="1099.19" y2="1400.67" gradientUnits="userSpaceOnUse"><stop offset="0" stop-color="#cf8939"/><stop offset="1" stop-color="#d9891e"/></linearGradient><linearGradient id="Áåçûìÿííûé_ãðàäèåíò_115" x1="327" y1="924.1" x2="1183" y2="924.1" gradientUnits="userSpaceOnUse"><stop offset="0" stop-color="#96c546"/><stop offset="0.01" stop-color="#99c74a"/><stop offset="0.11" stop-color="#b7d96f"/><stop offset="0.21" stop-color="#cfe88c"/><stop offset="0.31" stop-color="#dff2a0"/><stop offset="0.41" stop-color="#eaf8ad"/><stop offset="0.5" stop-color="#edfab1"/><stop offset="0.59" stop-color="#eaf8ad"/><stop offset="0.69" stop-color="#dff2a0"/><stop offset="0.79" stop-color="#cfe88c"/><stop offset="0.89" stop-color="#b7d96f"/><stop offset="0.99" stop-color="#99c74a"/><stop offset="1" stop-color="#96c546"/></linearGradient><linearGradient id="Áåçûìÿííûé_ãðàäèåíò_16" x1="509.49" y1="1385.58" x2="1000.5" y2="1385.58" gradientUnits="userSpaceOnUse"><stop offset="0" stop-color="#d99d46"/><stop offset="0.05" stop-color="#dfac5e"/><stop offset="0.14" stop-color="#e9c383"/><stop offset="0.23" stop-color="#f0d5a0"/><stop offset="0.32" stop-color="#f6e3b4"/><stop offset="0.41" stop-color="#f9eac1"/><stop offset="0.5" stop-color="#faedc5"/><stop offset="0.59" stop-color="#f9eac1"/><stop offset="0.68" stop-color="#f6e3b4"/><stop offset="0.77" stop-color="#f0d5a0"/><stop offset="0.86" stop-color="#e9c383"/><stop offset="0.95" stop-color="#dfac5e"/><stop offset="1" stop-color="#d99d46"/></linearGradient><linearGradient id="Áåçûìÿííûé_ãðàäèåíò_15" x1="583.7" y1="497.37" x2="416.32" y2="473.19" gradientUnits="userSpaceOnUse"><stop offset="0" stop-color="#edaa39"/><stop offset="0.22" stop-color="#edac3d"/><stop offset="0.45" stop-color="#edb04a"/><stop offset="0.68" stop-color="#edb85e"/><stop offset="0.91" stop-color="#edc37b"/><stop offset="1" stop-color="#edc889"/></linearGradient><linearGradient id="Áåçûìÿííûé_ãðàäèåíò_110" x1="974.84" y1="492.34" x2="1090.89" y2="475.77" gradientUnits="userSpaceOnUse"><stop offset="0" stop-color="#c5821e"/><stop offset="0.24" stop-color="#c78522"/><stop offset="0.49" stop-color="#cd8e2f"/><stop offset="0.74" stop-color="#d79c43"/><stop offset="0.99" stop-color="#e6b060"/><stop offset="1" stop-color="#e6b161"/></linearGradient><linearGradient id="Áåçûìÿííûé_ãðàäèåíò_99" x1="5040.31" y1="-1283.28" x2="5040.31" y2="-898.21" gradientTransform="matrix(1, 0.01, -0.01, 1, -4290.53, 2030.1)" gradientUnits="userSpaceOnUse"><stop offset="0" stop-color="#e6e600"/><stop offset="1" stop-color="#c5c525"/></linearGradient><linearGradient id="Áåçûìÿííûé_ãðàäèåíò_103" x1="755.26" y1="789.63" x2="755.26" y2="994.88" gradientUnits="userSpaceOnUse"><stop offset="0" stop-color="#fafa4d"/><stop offset="1" stop-color="#d9d900"/></linearGradient></defs><g id="ƒŒƒCƒ__6" data-name="ƒŒƒCƒ„[_6"><rect class="cls-1" width="1500" height="1500" rx="418.14"/><path class="cls-2" d="M755,181c186.24,0,331.22,27.1,337.17,29.14s8.15,4.12,9.09,11,0,17.49,1.26,28.12,4.08,20.23,5.64,34.61.32,30.17,3.75,38.06,13.18,11.31,16.93,18.86,3.44,22.27-3.75,27.42S926.21,364.06,755,364.06s-362.87,9.26-370.09,4.12-7.52-19.89-3.75-27.42,13.46-11,16.93-18.86,2.17-23.66,3.74-38.06,4.39-24,5.65-34.61.31-21.25,1.26-28.12,3.13-8.9,9.08-11S568.76,181,755,181Z" transform="translate(-4 -4)"/><path class="cls-3" d="M394.28,344.24c3.67-7.41,26.2-9.4,32.54-18.93S431,296.2,432.63,281s4.63-25.39,5.95-36.65.34-22.51,1.31-29.77c.54-3.91,1.48-6.36,3.22-8.11-14,2.35-22.18,4-23.5,4.49-5.89,2.05-8.08,4.08-9,10.86s0,17.32-1.24,27.84-4,20-5.59,34.26-.3,29.87-3.71,37.68-13,11.2-16.75,18.68-3.41,22,3.71,27.14c.78.54,3.64.91,8.33,1.17C390.91,362.18,391.11,350.61,394.28,344.24Z" transform="translate(-4 -4)"/><path class="cls-4" d="M1115.72,344.24c-3.68-7.41-26.2-9.4-32.54-18.93S1079,296.2,1077.37,281s-4.63-25.39-5.95-36.65-.34-22.51-1.31-29.77c-.55-3.91-1.48-6.36-3.22-8.11,14,2.35,22.18,4,23.5,4.49,5.89,2.05,8.06,4.08,9,10.86s0,17.32,1.24,27.84,4,20,5.59,34.26.3,29.87,3.71,37.68,13,11.2,16.75,18.68,3.41,22-3.71,27.14c-.78.54-3.65.91-8.33,1.17C1119.09,362.18,1118.89,350.61,1115.72,344.24Z" transform="translate(-4 -4)"/><path class="cls-5" d="M755,304.4c186.24,0,345.5,19.45,353.19,21.62s16.9,7.19,20.65,14.74,3.44,22.27-3.75,27.42S926.21,364.06,755,364.06s-362.87,9.26-370.09,4.12-7.52-19.89-3.75-27.42,12.95-12.59,20.65-14.74S568.76,304.4,755,304.4Z" transform="translate(-4 -4)"/><path class="cls-6" d="M755,307.46c175.22,0,359.79,20.11,361,26.21s-148-14.89-361-14.89-362.13,21-361,14.89S579.78,307.46,755,307.46Z" transform="translate(-4 -4)"/><path class="cls-7" d="M755,328c175.22,0,365.4,20.12,366.55,26.23S968,339.35,755,339.35s-367.72,21-366.55,14.91S579.78,328,755,328Z" transform="translate(-4 -4)"/><path class="cls-8" d="M755,257.07c169.5,0,347.78,22.4,347.78,22.4-.82-10.86-3-23.83-5.59-26.12S938.73,228.57,755,228.57,415.37,251,412.79,253.35s-4.76,15.26-5.57,26.12C407.22,279.47,585.48,257.07,755,257.07Z" transform="translate(-4 -4)"/><path class="cls-9" d="M755,181.2c184.37,0,329.77,26.82,335.67,28.85s8.06,6.14,9,12.92c0,0-148.76-27.51-344.67-27.51S410.33,223,410.33,223c.92-6.78,3.1-10.87,9-12.92S570.63,181.2,755,181.2Z" transform="translate(-4 -4)"/><path class="cls-10" d="M755,183.26C521,197.51,410.33,223,410.33,223c.92-6.78,3.1-8.81,9-10.86S570.63,183.26,755,183.26Z" transform="translate(-4 -4)"/><path class="cls-11" d="M1118.18,365.61c0,5.38-162.6-.53-363.18-.53s-363.19,5.91-363.19.53S554.41,341.44,755,341.44,1118.18,360.2,1118.18,365.61Z" transform="translate(-4 -4)"/><path class="cls-12" d="M755,1413c135.48,0,237.88-8.23,264.11-12.33s38.45-9.94,56.18-25.71,70.75-74.74,85.11-124.45,20.74-202.24,20.74-367.12-6.92-283.45-10-315.36-7.46-50-16.85-68.23-56-79.94-62.12-89.73-6.56-11.22-6.56-24.92V361S961.65,343.49,755,343.49,424.4,361,424.4,361v24.18c0,13.7-.46,15.16-6.56,24.92s-52.73,71.51-62.12,89.73S342,536.09,338.85,568s-10,150.48-10,315.36,6.37,317.43,20.72,367.12S417,1359.17,434.71,1375s30,21.59,56.18,25.71S619.52,1413,755,1413Z" transform="translate(-4 -4)"/><path class="cls-13" d="M755,1410.94c135.48,0,237.89-6.17,264.11-10.27s38.44-9.94,56.18-25.71,70.76-74.74,85.11-124.45S961.66,898.81,755,898.81s-419.77,302-405.41,351.7S417,1359.17,434.71,1375s30,21.59,56.19,25.71S619.53,1410.94,755,1410.94Z" transform="translate(-4 -4)"/><path class="cls-14" d="M1092.16,410.07c-6.11-9.76-6.56-11.22-6.56-24.92V361S961.65,343.49,755,343.49,424.4,361,424.4,361v24.18c0,13.7-.46,15.16-6.56,24.92,0,0,130.49-15.16,337.16-15.16S1092.16,410.07,1092.16,410.07Z" transform="translate(-4 -4)"/><path class="cls-15" d="M755,386.68c-206.67,0-337.16,23.39-337.16,23.39s145-11,337.16-11,337.16,11,337.16,11S961.65,386.68,755,386.68Z" transform="translate(-4 -4)"/><path class="cls-16" d="M377.27,1254.63c-13-49.71-18.56-206.36-18.56-371.24S366.63,599.94,369.43,568s6.74-50,15.25-68.23,45.06-73.78,50.56-83.56,5.94-11.81,5.94-24.93-1.2-31.63-1.2-31.63L426.26,361v24.18c0,13.7-.46,15.16-6.55,24.92S367,481.58,357.58,499.8,343.81,536.09,340.72,568s-11.86,150.48-11.86,315.36,8.24,317.43,22.59,367.12,67.38,108.66,85.12,124.45,30,21.59,56.18,25.71c0,0-22.51-7-36.68-19.55C439.32,1366.3,390.25,1304.34,377.27,1254.63Z" transform="translate(-4 -4)"/><path class="cls-17" d="M1132.73,1254.63c13-49.71,18.56-206.36,18.56-371.24s-7.93-283.45-10.73-315.36-6.74-50-15.24-68.23-45.06-73.78-50.56-83.56-5.94-11.81-5.94-24.93,1.2-31.63,1.2-31.63l13.72,1.29v24.18c0,13.7.45,15.16,6.55,24.92s52.71,71.51,62.12,89.73,13.77,36.29,16.85,68.23,11.88,150.48,11.88,315.36-8.24,317.43-22.61,367.12-67.36,108.66-85.1,124.45-30,21.59-56.19,25.71c0,0,22.51-7,36.67-19.55C1070.68,1366.3,1119.75,1304.34,1132.73,1254.63Z" transform="translate(-4 -4)"/><path class="cls-18" d="M755,363c-192.19,0-313.56,21.47-313.56,21.47s121.37-8.07,313.56-8.07,313.56,8.07,313.56,8.07S947.19,363,755,363Z" transform="translate(-4 -4)"/><path class="cls-19" d="M1085.6,365.08V361S961.65,343.49,755,343.49,424.4,361,424.4,361v4.11S562.81,351.73,755,351.73,1085.6,365.08,1085.6,365.08Z" transform="translate(-4 -4)"/><path class="cls-19" d="M1173.06,590.58h0c-4.23-.28-99-46.89-330.41-46.89s-505.71,46.89-505.71,46.89h0c-3.81,49.55,8.71,128.27,8.71,128.27h818.7S1176.86,640.13,1173.06,590.58Z" transform="translate(-4 -4)"/><path class="cls-20" d="M364.31,1109.63s-29.07,91.19-14.72,140.88c0,0,146.39,33.43,405.41,33.43s405.4-33.43,405.4-33.43c14.38-49.69-14.69-140.88-14.69-140.88Z" transform="translate(-4 -4)"/><path class="cls-21" d="M1173.06,590.58h0c-43.42-3-193.18-11.93-418.06-11.93s-374.64,9-418.06,11.93h0c-3.81,49.55-9.94,155-9.94,292.81,0,164.88,8.23,317.43,22.58,367.12,0,0,176.24,19,405.42,19s405.4-19,405.4-19c14.37-49.69,22.6-202.24,22.6-367.12C1183,745.58,1176.86,640.13,1173.06,590.58Z" transform="translate(-4 -4)"/><path class="cls-22" d="M1031,1382.83c0,8.34-120.78,23.32-276,23.32s-276-15-276-23.32,120.79-11,276-11S1031,1374.5,1031,1382.83Z" transform="translate(-4 -4)"/><path class="cls-19" d="M504.63,420.18c0-5.42,101.94-11.06,250.37-11.06s250.36,5.64,250.36,11.06S903.43,441.72,755,441.72,504.63,425.6,504.63,420.18Z" transform="translate(-4 -4)"/><path class="cls-23" d="M1000.5,1383.8c0,3.6-114,10.33-245.5,10.33s-245.51-6.73-245.51-10.33S623.54,1377,755,1377,1000.5,1380.23,1000.5,1383.8Z" transform="translate(-4 -4)"/><path class="cls-24" d="M373.45,588.42c-15,.86-26.64,1.61-34.64,2.16,0,0,0,0,0,.07-3.81,49.57-9.94,155-9.94,292.74,0,164.88,8.24,317.43,22.59,367.12,0,0,11,1.19,31.13,3-12.78-50.91-18.27-206.44-18.27-370.09C364.31,743.54,370,637,373.45,588.42Z" transform="translate(-4 -4)"/><path class="cls-24" d="M1171.18,590.58c-8-.55-19.61-1.3-34.63-2.16,3.45,48.6,9.14,155.12,9.14,295,0,163.65-5.49,319.18-18.27,370.09,20.1-1.78,31.11-3,31.11-3,14.37-49.69,22.61-202.24,22.61-367.12C1181.14,745.57,1175,640.12,1171.18,590.58Z" transform="translate(-4 -4)"/><path class="cls-25" d="M581.76,444.3c-65.82-4.15-136.29-19.23-136.29-19.23-17.8,35.65-45.16,65.13-55.38,97.13,0,0,106,11.19,256,6.66C594.77,513.14,550.82,488.49,581.76,444.3Z" transform="translate(-4 -4)"/><path class="cls-26" d="M1092.3,525.55c16.13,2,27.61-2.93,27.61-2.93-10.31-36.53-36.42-59.15-54.49-95.42-37.19,9.87-80.31,13.87-80.31,13.87C1014.12,507.21,1054.69,500,1092.3,525.55Z" transform="translate(-4 -4)"/><path class="cls-27" d="M591.47,246.31c.66,13.72-123.56,20.9-124.21,7.19S590.83,232.6,591.47,246.31Z" transform="translate(-4 -4)"/><path class="cls-28" d="M792.16,1160.51c-.12,27.15-17.35,49-38.5,48.92s-38.22-22.2-38.1-49.34,17.4-49,38.53-48.91S792.29,1133.36,792.16,1160.51Z" transform="translate(-4 -4)"/><path class="cls-28" d="M751.54,780.87c.08-15.49-1.23-70.64-47.87-129.77-9.47-11.93,12.31-36.27,23.81-22.75C772.35,681.11,770.35,768.92,770.3,781S751.48,794.66,751.54,780.87Z" transform="translate(-4 -4)"/><path class="cls-29" d="M751.54,780.87c.08-15.49-1.23-70.64-47.87-129.77-6.77-8.53,8.16-18,16.87-7.74C765.42,696.1,751.54,780.87,751.54,780.87Z" transform="translate(-4 -4)"/><path class="cls-30" d="M753.72,1194.9c17.64.07,105.27,45.83,193.59-79.34S1046,807.48,935,745.16c-72.9-41-164.39,8-179.32,7.89s-106-50-179.21-9.86c-111.61,61.09-102.88,244.18-15.63,370.25S736,1194.81,753.72,1194.9Z" transform="translate(-4 -4)"/><path class="cls-31" d="M753.76,1186.62c16.5.12,98.46,43.58,181.09-75.43s92.39-292.8-11.47-352c-68.15-39-153.77,7.58-167.72,7.5s-99.15-47.54-167.72-9.36c-104.37,58.09-96.18,232.09-14.63,351.89S737.21,1186.54,753.76,1186.62Z" transform="translate(-4 -4)"/><path class="cls-32" d="M753.89,1157.14c13.77.1,81.92,38.49,150.67-66.69s77-258.86-9.42-311.16c-56.78-34.39-128,6.78-139.58,6.7s-82.46-42-139.48-8.23c-86.9,51.37-80.15,205.19-12.3,311S740.13,1157.08,753.89,1157.14Z" transform="translate(-4 -4)"/><path class="cls-33" d="M882.93,795.9c-51.81-33.54-116.82,6.61-127.43,6.56s-75.33-41-127.35-8.05C548.85,844.5,606,995.2,754.68,996.06S961.82,846.91,882.93,795.9Z" transform="translate(-4 -4)"/><path class="cls-34" d="M694.74,814.81c7,15.58-5.38,38-27.66,50.14s-45.92,9.4-52.9-6.15,5.37-38,27.66-50.14S687.8,799.3,694.74,814.81Z" transform="translate(-4 -4)"/><path class="cls-34" d="M601.23,883.42c8.89,4.05,12.85,16,8.79,26.78s-14.47,16.24-23.36,12.19-12.94-16.09-8.87-26.85S592.33,879.33,601.23,883.42Z" transform="translate(-4 -4)"/></g></svg>