<svg xmlns="http://www.w3.org/2000/svg" viewBox="0 0 1500 1500"><defs><style>.cls-1{fill:#fff;}.cls-2{fill:#f5b923;}.cls-3{fill:#fadc4b;}.cls-4{fill:#dc9619;}.cls-5{fill:#be7800;}.cls-6{fill:#be7d19;}.cls-7{fill:#d29123;}.cls-8{fill:#dc9923;}.cls-9{fill:#e6af19;}</style></defs><g id="ƒŒƒCƒ__6" data-name="ƒŒƒCƒ„[_6"><rect class="cls-1" width="1500" height="1500" rx="418.14"/><path class="cls-2" d="M1046.41,372.58c-196-51.08-349.75-47.73-355.26-47.43L147,734.18V836.44c40.26,6.56,71,40.27,71,81s-30.7,74.44-71,81V1248l482.6-90.51v-1.87c0-48.08,40.38-87.09,90.2-87.09,38.6,0,71.45,23.46,84.32,56.35l557.18-103.79V507.29S1234.33,421.56,1046.41,372.58Z" transform="translate(-4 -4)"/><path class="cls-3" d="M1352.21,509a3.65,3.65,0,0,0,1.32-6.7c-30.21-19-146.36-87.8-307.12-129.71-188.72-49.19-338.3-47.9-354.05-47.48a3.82,3.82,0,0,0-2.16.76L159.52,724.77a3.67,3.67,0,0,0,3,6.52Z" transform="translate(-4 -4)"/><path class="cls-4" d="M395.37,974.78c33.23,0,60.15,28.17,60.15,62.89s-26.92,62.89-60.15,62.89-60.13-28.15-60.13-62.89S362.17,974.78,395.37,974.78Z" transform="translate(-4 -4)"/><path class="cls-5" d="M608,752.11c42.47,0,76.9,37.64,76.9,84.07s-34.43,84.09-76.9,84.09-76.88-37.66-76.88-84.09S565.58,752.11,608,752.11Z" transform="translate(-4 -4)"/><path class="cls-6" d="M935.92,1005.67c-39.68,0-71.77-35.13-71.77-78.42s32.12-78.49,71.77-78.49,71.75,35.13,71.75,78.49S975.56,1005.67,935.92,1005.67Z" transform="translate(-4 -4)"/><path class="cls-7" d="M1179.07,632.87c49.81,0,90.18,44.15,90.18,98.6s-40.37,98.59-90.18,98.59-90.19-44.14-90.19-98.59S1129.25,632.87,1179.07,632.87Z" transform="translate(-4 -4)"/><ellipse class="cls-8" cx="909.77" cy="457.53" rx="97.62" ry="56.2"/><ellipse class="cls-9" cx="598.3" cy="537.87" rx="69.94" ry="43.48"/></g></svg>