<svg xmlns="http://www.w3.org/2000/svg" viewBox="0 0 1500 1500"><defs><style>.cls-1{fill:#fff;}.cls-2{fill:#70e500;fill-rule:evenodd;}</style></defs><g id="ƒŒƒCƒ__6" data-name="ƒŒƒCƒ„[_6"><rect class="cls-1" width="1500" height="1500" rx="336.29"/><path class="cls-2" d="M754.17,531.62c59.18,0,107.17,50.42,107.17,112.62,0,45.74-26,85.1-63.19,102.74v498.93c-.29,5.45-1.66,26.09-26,26.09H735c-13.66,0-24.83-11.74-24.83-26.09V747C672.92,729.34,647,690,647,644.24c0-62.21,48-112.62,107.17-112.62Z" transform="translate(-4 -4)"/><path class="cls-2" d="M387.77,235.49c20.56,0,52.44,23.87,52.44,53.31a53.58,53.58,0,0,1-19.07,41.11C346.53,410.51,300.8,519.05,300.8,638.44c0,120.57,46.65,230.08,122.59,310.92a52.85,52.85,0,0,1,4.06,4.28c10.55,11,12.76,19.93,12.76,34.84,0,20.94-31.83,53.29-52.44,53.29-17.43,0-19.79-1.15-32.82-11.15C256.69,930,196,791.41,196,638.44s60.69-291.55,159-392.2c11.71-10,17.3-10.75,32.82-10.75Z" transform="translate(-4 -4)"/><path class="cls-2" d="M503.63,397.35a51.64,51.64,0,0,1,33.2-12c29,0,52.45,23.85,52.45,53.29a53.53,53.53,0,0,1-18.46,40.59,238.58,238.58,0,0,0-60.39,159.25c0,66.88,23.62,117.41,66.89,166.26,7.62,9.25,12,13.16,12,34.39s-23.47,53.29-52.45,53.29a52,52,0,0,1-41.62-20.87,347.91,347.91,0,0,1,8-474.64l.45.48Z" transform="translate(-4 -4)"/><path class="cls-2" d="M1119.23,235.49c-20.55,0-52.44,23.87-52.44,53.31a53.55,53.55,0,0,0,19.07,41.11c74.62,80.6,120.34,189.14,120.34,308.53,0,120.57-46.64,230.08-122.59,310.92a56.58,56.58,0,0,0-4.06,4.28c-10.55,11-12.76,19.93-12.76,34.84,0,20.94,31.83,53.29,52.44,53.29,17.43,0,19.79-1.15,32.82-11.15,98.26-100.66,159-239.21,159-392.18s-60.71-291.55-159-392.2c-11.71-10-17.29-10.75-32.82-10.75Z" transform="translate(-4 -4)"/><path class="cls-2" d="M1003.38,397.35a51.65,51.65,0,0,0-33.21-12c-29,0-52.45,23.85-52.45,53.29a53.54,53.54,0,0,0,18.47,40.59,238.62,238.62,0,0,1,60.38,159.25c0,66.88-23.63,117.41-66.89,166.26-7.62,9.25-12,13.16-12,34.39s23.49,53.29,52.45,53.29a52,52,0,0,0,41.62-20.87,347.92,347.92,0,0,0-8-474.64l-.45.48Z" transform="translate(-4 -4)"/></g></svg>