<svg xmlns="http://www.w3.org/2000/svg" xmlns:xlink="http://www.w3.org/1999/xlink" viewBox="0 0 1500 1505.43"><defs><style>.cls-1,.cls-10{fill:#e32922;}.cls-2{fill:none;}.cls-20,.cls-3{fill:#aeddfc;}.cls-4{isolation:isolate;}.cls-5{fill:#fff;}.cls-6{clip-path:url(#clip-path);}.cls-7{fill:#de1d16;}.cls-20,.cls-7{mix-blend-mode:multiply;}.cls-8{clip-path:url(#clip-path-2);}.cls-9{fill:#eae6ff;}.cls-10,.cls-30{mix-blend-mode:screen;}.cls-11{fill:#c8c1e8;}.cls-12{fill:#e0dafa;}.cls-13{fill:#ff514a;}.cls-14{fill:#ddd7f7;}.cls-15{clip-path:url(#clip-path-7);}.cls-16{fill:#d4cdfc;}.cls-17{clip-path:url(#clip-path-8);}.cls-18{clip-path:url(#clip-path-9);}.cls-19{fill:#8bc7f0;}.cls-21{fill:#8f1c04;}.cls-22{clip-path:url(#clip-path-10);}.cls-23{clip-path:url(#clip-path-11);}.cls-24{fill:#7d1600;}.cls-25{fill:#eb291f;}.cls-26{clip-path:url(#clip-path-12);}.cls-27{fill:#bd0a00;}.cls-28{fill:#fff8f7;}.cls-29{fill:#d10b00;}.cls-31{fill:#6cc3fc;}</style><clipPath id="clip-path" transform="translate(-4 -4)"><path class="cls-1" d="M1277,744.45l-7.29-36.67-266.5-129.84L969.8,594.79a29.88,29.88,0,0,0-13.34,13.58L663.58,1209.48a29.76,29.76,0,0,0-1.52,22.43l11,33,259,126.2,32.79-11.68a29.73,29.73,0,0,0,16.72-15l292.88-601.11A29.88,29.88,0,0,0,1277,744.45Z"/></clipPath><clipPath id="clip-path-2" transform="translate(-4 -4)"><path class="cls-2" d="M1277,744.45l-7.29-36.67-266.5-129.84L969.8,594.79a29.88,29.88,0,0,0-13.34,13.58L663.58,1209.48a29.76,29.76,0,0,0-1.52,22.43l11,33,259,126.2,32.79-11.68a29.73,29.73,0,0,0,16.72-15l292.88-601.11A29.88,29.88,0,0,0,1277,744.45Z"/></clipPath><clipPath id="clip-path-7" transform="translate(-4 -4)"><path class="cls-2" d="M671.76,1135s55.87-73.51,172.33-62.41,225.23,63.31,314.4-15.22,81.66-93.2,81.66-93.2-127.9,123.37-278.05,86.41S752.15,1033.29,671.76,1135Z"/></clipPath><clipPath id="clip-path-8" transform="translate(-4 -4)"><path class="cls-2" d="M652.45,1195.57s75.12-103.5,226.51-75.38,193.2,65.8,294.47-37.55,72.9,15,72.9,15-61.36,100-197.11,96.86-235.52-69.11-381,31.57S652.45,1195.57,652.45,1195.57Z"/></clipPath><clipPath id="clip-path-9" transform="translate(-4 -4)"><path class="cls-3" d="M738.46,1122.82c9.36-104.45,48-298.95,12.87-446.62-17.52-73.68-125.25-232.32-125.25-311.56V267.72c0-5.87,3.59-11.4,9.7-14.93l1.39-.8c10.28-5.93,14.88-16.06,11.62-25.62l-20.37-59.82H442.73L421,230.25c-2.46,7.22,1,14.86,8.76,19.33l4.66,2.69c6.68,3.85,10.61,9.9,10.61,16.32v96.05c0,79.24-107.73,237.88-125.25,311.56-35.12,147.67,3.51,342.17,12.87,446.62,6.62,73.83-9.86,145-23,205.77-7.9,36.53,28.73,69.77,76.87,69.77H684.61c48.14,0,84.77-33.24,76.87-69.77C748.32,1267.79,731.84,1196.65,738.46,1122.82Z"/></clipPath><clipPath id="clip-path-10" transform="translate(-4 -4)"><path class="cls-2" d="M738.46,1122.82c9.36-104.45,48-298.95,12.87-446.62-17.52-73.68-125.25-232.32-125.25-311.56V267.72c0-5.87,3.59-11.4,9.7-14.93l1.39-.8c10.28-5.93,14.88-16.06,11.62-25.62l-20.37-59.82H442.73L421,230.25c-2.46,7.22,1,14.86,8.76,19.33l4.66,2.69c6.68,3.85,10.61,9.9,10.61,16.32v96.05c0,79.24-107.73,237.88-125.25,311.56-35.12,147.67,3.51,342.17,12.87,446.62,6.62,73.83-9.86,145-23,205.77-7.9,36.53,28.73,69.77,76.87,69.77H684.61c48.14,0,84.77-33.24,76.87-69.77C748.32,1267.79,731.84,1196.65,738.46,1122.82Z"/></clipPath><clipPath id="clip-path-11" transform="translate(-4 -4)"><path class="cls-2" d="M355.91,1121.59c6.52,72.69-8.38,141.32-21.53,201.87l-1.75,8.07-.06.32c-3.27,15.86,13.21,30.1,34.09,30.1H704.49c20.88,0,37.36-14.24,34.09-30.1l-.06-.32-1.75-8.07c-13.15-60.55-28-129.18-21.53-201.87,2-22.1,5.3-48.58,8.82-76.61,13.32-106,31.56-251.24,4.38-365.56-6.82-28.68-29-72.82-52.54-119.54l-7.21-14.36H402.46l-7.21,14.36c-23.51,46.72-45.72,90.86-52.54,119.54C315.53,793.74,333.76,939,347.08,1045,350.61,1073,353.93,1099.49,355.91,1121.59Z"/></clipPath><clipPath id="clip-path-12" transform="translate(-4 -4)"><rect class="cls-2" x="222" y="675.03" width="656.34" height="235.16"/></clipPath></defs><g class="cls-4"><g id="ƒŒƒCƒ__6" data-name="ƒŒƒCƒ„[_6"><rect class="cls-5" width="1500" height="1500" rx="418.14"/><path class="cls-1" d="M1277,744.45l-7.29-36.67-266.5-129.84L969.8,594.79a29.88,29.88,0,0,0-13.34,13.58L663.58,1209.48a29.76,29.76,0,0,0-1.52,22.43l11,33,259,126.2,32.79-11.68a29.73,29.73,0,0,0,16.72-15l292.88-601.11A29.88,29.88,0,0,0,1277,744.45Z" transform="translate(-4 -4)"/><g class="cls-6"><rect class="cls-7" x="1031.22" y="661.08" width="106.8" height="868.86" transform="translate(585.41 -368.39) rotate(25.98)"/></g><g class="cls-8"><path class="cls-9" d="M671.76,1135s55.87-73.51,172.33-62.41,225.23,63.31,314.4-15.22,81.66-93.2,81.66-93.2-127.9,123.37-278.05,86.41S752.15,1033.29,671.76,1135Z" transform="translate(-4 -4)"/><path class="cls-9" d="M652.45,1195.57s75.12-103.5,226.51-75.38,193.2,65.8,294.47-37.55,72.9,15,72.9,15-61.36,100-197.11,96.86-235.52-69.11-381,31.57S652.45,1195.57,652.45,1195.57Z" transform="translate(-4 -4)"/></g><rect class="cls-9" x="922.39" y="773.81" width="269.98" height="18.87" rx="6.56" transform="translate(445.89 -388.01) rotate(25.98)"/><path class="cls-9" d="M1000.81,826.51l-81.45-39.69A9.79,9.79,0,0,1,915,773.67h0A9.8,9.8,0,0,1,928,769l81.46,39.68a9.82,9.82,0,0,1,4.39,13.16h0A9.81,9.81,0,0,1,1000.81,826.51Z" transform="translate(-4 -4)"/><g class="cls-8"><rect class="cls-10" x="841.34" y="582.81" width="61.02" height="786.7" transform="translate(511.64 -287.25) rotate(25.98)"/></g><g class="cls-8"><rect class="cls-11" x="611.95" y="1309.39" width="396.69" height="106.13" transform="translate(674.62 -221.27) rotate(25.98)"/></g><rect class="cls-12" x="647.41" y="1320.64" width="312.03" height="12.73" rx="4.43" transform="translate(658.4 -221.84) rotate(25.98)"/><g class="cls-8"><rect class="cls-13" x="933.33" y="645.03" width="404.05" height="38.67" transform="translate(401.7 -434.17) rotate(25.98)"/></g><path class="cls-14" d="M1269.36,712.66l-269.29-131.2a6.31,6.31,0,0,1-2.82-8.46h0a6.31,6.31,0,0,1,8.4-3l269.28,131.2a6.31,6.31,0,0,1,2.83,8.46h0A6.31,6.31,0,0,1,1269.36,712.66Z" transform="translate(-4 -4)"/><g class="cls-8"><g class="cls-15"><rect class="cls-16" x="1031.22" y="661.08" width="106.8" height="868.86" transform="translate(585.41 -368.39) rotate(25.98)"/></g><g class="cls-17"><rect class="cls-16" x="1031.22" y="661.08" width="106.8" height="868.86" transform="translate(585.41 -368.39) rotate(25.98)"/></g></g><path class="cls-3" d="M738.46,1122.82c9.36-104.45,48-298.95,12.87-446.62-17.52-73.68-125.25-232.32-125.25-311.56V267.72c0-5.87,3.59-11.4,9.7-14.93l1.39-.8c10.28-5.93,14.88-16.06,11.62-25.62l-20.37-59.82H442.73L421,230.25c-2.46,7.22,1,14.86,8.76,19.33l4.66,2.69c6.68,3.85,10.61,9.9,10.61,16.32v96.05c0,79.24-107.73,237.88-125.25,311.56-35.12,147.67,3.51,342.17,12.87,446.62,6.62,73.83-9.86,145-23,205.77-7.9,36.53,28.73,69.77,76.87,69.77H684.61c48.14,0,84.77-33.24,76.87-69.77C748.32,1267.79,731.84,1196.65,738.46,1122.82Z" transform="translate(-4 -4)"/><g class="cls-18"><rect class="cls-19" x="407.97" y="233.57" width="266.89" height="22.68"/><path class="cls-20" d="M738.46,1122.82c9.36-104.45,48-298.95,12.87-446.62-17.52-73.68-125.25-232.32-125.25-311.56V267.72c0-5.87,3.6-11.4,9.7-14.93l1.39-.8c10.28-5.93,14.88-16.06,11.62-25.62l-20.37-59.82H569.07l20.37,59.82c3.26,9.56-1.34,19.69-11.62,25.62l-1.39.8c-6.1,3.53-9.7,9.06-9.7,14.93v96.92c0,79.24,107.73,237.88,125.25,311.56,35.12,147.67-3.51,342.17-12.87,446.62-6.62,73.83,9.86,145,23,205.77,7.9,36.53-28.73,69.77-76.87,69.77h59.35c48.14,0,84.77-33.24,76.87-69.77C748.32,1267.79,731.84,1196.65,738.46,1122.82Z" transform="translate(-4 -4)"/><path class="cls-21" d="M355.91,1121.59c6.52,72.69-8.38,141.32-21.53,201.87l-1.75,8.07-.06.32c-3.27,15.86,13.21,30.1,34.09,30.1H704.49c20.88,0,37.36-14.24,34.09-30.1l-.06-.32-1.75-8.07c-13.15-60.55-28-129.18-21.53-201.87,2-22.1,5.3-48.58,8.82-76.61,13.32-106,31.56-251.24,4.38-365.56-6.82-28.68-29-72.82-52.54-119.54l-7.21-14.36H402.46l-7.21,14.36c-23.51,46.72-45.72,90.86-52.54,119.54C315.53,793.74,333.76,939,347.08,1045,350.61,1073,353.93,1099.49,355.91,1121.59Z" transform="translate(-4 -4)"/></g><g class="cls-22"><g class="cls-23"><path class="cls-24" d="M738.46,1122.82c9.36-104.45,48-298.95,12.87-446.62-17.52-73.68-125.25-232.32-125.25-311.56V267.72c0-5.87,3.6-11.4,9.7-14.93l1.39-.8c10.28-5.93,14.88-16.06,11.62-25.62l-20.37-59.82H569.07l20.37,59.82c3.26,9.56-1.34,19.69-11.62,25.62l-1.39.8c-6.1,3.53-9.7,9.06-9.7,14.93v96.92c0,79.24,107.73,237.88,125.25,311.56,35.12,147.67-3.51,342.17-12.87,446.62-6.62,73.83,9.86,145,23,205.77,7.9,36.53-28.73,69.77-76.87,69.77h59.35c48.14,0,84.77-33.24,76.87-69.77C748.32,1267.79,731.84,1196.65,738.46,1122.82Z" transform="translate(-4 -4)"/></g><rect class="cls-25" x="218" y="671.03" width="656.34" height="235.16"/></g><g class="cls-26"><path class="cls-27" d="M738.46,1122.82c9.36-104.45,48-298.95,12.87-446.62-17.52-73.68-125.25-232.32-125.25-311.56V267.72c0-5.87,3.6-11.4,9.7-14.93l1.39-.8c10.28-5.93,14.88-16.06,11.62-25.62l-20.37-59.82H569.07l20.37,59.82c3.26,9.56-1.34,19.69-11.62,25.62l-1.39.8c-6.1,3.53-9.7,9.06-9.7,14.93v96.92c0,79.24,107.73,237.88,125.25,311.56,35.12,147.67-3.51,342.17-12.87,446.62-6.62,73.83,9.86,145,23,205.77,7.9,36.53-28.73,69.77-76.87,69.77h59.35c48.14,0,84.77-33.24,76.87-69.77C748.32,1267.79,731.84,1196.65,738.46,1122.82Z" transform="translate(-4 -4)"/><path class="cls-28" d="M265.72,741.57S312.47,676.1,424,699.5C564.81,729,522.91,824.82,711.45,837.36c184.13,12.24,258.36-29.54,258.36-29.54s-51.21,80.56-270,85.94S505.46,699.5,265.72,741.57Z" transform="translate(-4 -4)"/><path class="cls-28" d="M252.92,768.43s79.3-63,200.94,36.1C599,922.7,578.78,920,788.26,922.7s-73.32,72.22-202.5,40S447.27,781.85,252.92,768.43Z" transform="translate(-4 -4)"/></g><path class="cls-29" d="M646.28,180H424l2.88-12.52c2.74-11.94,13.76-20.45,26.5-20.45H618.66c11.71,0,21.85,7.82,24.37,18.81Z" transform="translate(-4 -4)"/><g class="cls-30"><path class="cls-31" d="M472.2,475.84a26.33,26.33,0,0,1-6.2-.74c-10.9-2.63-17-11.56-13.55-19.94C468,417,475.58,387.37,475.58,364.64c0-8.79,9.27-15.91,20.7-15.91S517,355.85,517,364.64c0,26.37-8,58.16-25,100C489.16,471.48,481,475.84,472.2,475.84Z" transform="translate(-4 -4)"/></g><g class="cls-30"><path class="cls-21" d="M376,1068.08c-10.53,0-19.54-6.16-20.57-14.39l-1.16-9.25c-13.28-105.7-31.46-250.45-4.46-364,6.7-28.16,28.79-72.06,52.17-118.53q4.37-8.68,8.73-17.39c4.11-8.2,16.08-12.29,26.75-9.13s16,12.37,11.87,20.57q-4.38,8.73-8.76,17.44c-22.66,45-44.06,87.56-50,112.77-26,109.2-8.1,251.4,4.94,355.23l1.16,9.25c1.1,8.75-7.23,16.53-18.61,17.37C377.36,1068.05,376.69,1068.08,376,1068.08Z" transform="translate(-4 -4)"/></g><g class="cls-30"><path class="cls-21" d="M367.36,1317.79a29,29,0,0,1-3.34-.2c-11.28-1.41-18.94-9.59-17.11-18.26,11.49-54.56,21.45-113.48,16.52-174.63-.7-8.78,8-16.33,19.37-16.87s21.23,6.12,21.94,14.9c5.18,64.27-5.1,125.31-17,181.69C386.11,1312.24,377.33,1317.79,367.36,1317.79Z" transform="translate(-4 -4)"/></g></g></g></svg>