<svg xmlns="http://www.w3.org/2000/svg" xmlns:xlink="http://www.w3.org/1999/xlink" viewBox="0 0 1500 1500"><defs><style>.cls-1{isolation:isolate;}.cls-2{fill:#fff;}.cls-3{fill:url(#linear-gradient);}.cls-4{fill:url(#linear-gradient-2);}.cls-5{fill:url(#linear-gradient-3);}.cls-6{fill:#fff7e7;opacity:0.1;}.cls-13,.cls-7,.cls-8{opacity:0.2;}.cls-13,.cls-7{mix-blend-mode:multiply;}.cls-7{fill:url(#linear-gradient-4);}.cls-8{fill:#ffc680;}.cls-9{fill:url(#linear-gradient-5);}.cls-10{fill:url(#linear-gradient-6);}.cls-11{fill:#802100;opacity:0.5;}.cls-12{fill:url(#linear-gradient-7);}.cls-13{fill:url(#linear-gradient-8);}</style><linearGradient id="linear-gradient" x1="113.38" y1="935.09" x2="113.38" y2="582.37" gradientTransform="translate(-221.81 371.65) rotate(-21.87)" gradientUnits="userSpaceOnUse"><stop offset="0" stop-color="#c4513d"/><stop offset="0.3" stop-color="#c43319"/><stop offset="0.99" stop-color="#ff694f"/></linearGradient><linearGradient id="linear-gradient-2" x1="4490.72" y1="2523.82" x2="4490.72" y2="2172.98" gradientTransform="matrix(-0.85, 0.52, -0.52, -0.85, 6411.78, 281.48)" xlink:href="#linear-gradient"/><linearGradient id="linear-gradient-3" x1="735.75" y1="907.14" x2="735.75" y2="664.97" xlink:href="#linear-gradient"/><linearGradient id="linear-gradient-4" x1="735.75" y1="908.48" x2="735.75" y2="740.28" xlink:href="#linear-gradient"/><linearGradient id="linear-gradient-5" x1="510.55" y1="12.91" x2="510.55" y2="-330.99" gradientTransform="matrix(0.7, -0.71, 0.71, 0.7, -42.82, 1713.74)" xlink:href="#linear-gradient"/><linearGradient id="linear-gradient-6" x1="3901.26" y1="3428.32" x2="3901.26" y2="3091.52" gradientTransform="translate(5995.93 -1033.54) rotate(124.69)" xlink:href="#linear-gradient"/><linearGradient id="linear-gradient-7" x1="1148.15" y1="-24.95" x2="1148.15" y2="-316.95" gradientTransform="matrix(0.7, -0.71, 0.71, 0.7, -42.82, 1713.74)" xlink:href="#linear-gradient"/><linearGradient id="linear-gradient-8" x1="1148.15" y1="-23.73" x2="1148.15" y2="-248.31" gradientTransform="matrix(0.7, -0.71, 0.71, 0.7, -42.82, 1713.74)" xlink:href="#linear-gradient"/></defs><g class="cls-1"><g id="ƒŒƒCƒ__6" data-name="ƒŒƒCƒ„[_6"><rect class="cls-2" width="1500" height="1500" rx="418.14"/><path class="cls-3" d="M179.88,1030.09c-8-1.65-58.7-13.12-62.62-12.44s42.65,115.95,56.35,120.61,16.93-41.09,43.09-61.21S179.88,1030.09,179.88,1030.09Z" transform="translate(-4 -4)"/><path class="cls-4" d="M1341.33,639.18c8,.16,58.83,2.1,62.51.68s-59.08-108.29-73.06-110.38-10.07,44.41-32.3,69.52S1341.33,639.18,1341.33,639.18Z" transform="translate(-4 -4)"/><path class="cls-5" d="M1283.41,749.72,317.32,1135c-55.1,22-120.61-11.83-146.33-75.48h0c-25.72-63.66-1.9-133.08,53.19-155.05l966.09-385.24c55.1-22,120.61,11.83,146.33,75.49h0C1362.32,658.33,1338.51,727.75,1283.41,749.72Z" transform="translate(-4 -4)"/><path class="cls-6" d="M262,944.33,1190.72,574c46.63-18.59,99.67,1.26,127.2,44.58a116.39,116.39,0,0,0-6.07-20.37c-22.69-56.17-84-84.58-137-63.46L246.13,905.07c-53,21.12-77.51,83.78-54.82,139.95a117.36,117.36,0,0,0,9.8,18.88C190.85,1013.7,215.36,962.92,262,944.33Z" transform="translate(-4 -4)"/><path class="cls-7" d="M1247.87,661.75,281.78,1047c-41.61,16.59-89.09,1.32-121-34.53a140.61,140.61,0,0,0,10.17,47c25.72,63.66,91.23,97.45,146.33,75.49l966.09-385.25c55.09-22,78.91-91.38,53.19-155a141.33,141.33,0,0,0-25.37-40.95C1313.15,601.51,1289.47,645.16,1247.87,661.75Z" transform="translate(-4 -4)"/><path class="cls-8" d="M1273.6,725.45,307.51,1110.69c-51.5,20.54-111.67-8-140.36-63.77,1.26,4.19,2.16,8.4,3.84,12.55,25.72,63.66,91.23,97.45,146.33,75.49l966.09-385.25c55.09-22,78.91-91.38,53.19-155-1.68-4.15-4-7.82-6-11.71C1348.7,643,1325.1,704.92,1273.6,725.45Z" transform="translate(-4 -4)"/><path class="cls-9" d="M211.66,1225.57c-7.57,2-56.08,13.69-59.25,16.1s79.56,92,93.22,90.31-.2-46.94,15.32-77.91S211.66,1225.57,211.66,1225.57Z" transform="translate(-4 -4)"/><path class="cls-10" d="M1083.73,331.44c7-3.41,52.17-24.31,54.86-27.32s-91.12-77.28-104.09-73,7.4,47-2.86,81.06S1083.73,331.44,1083.73,331.44Z" transform="translate(-4 -4)"/><path class="cls-11" d="M601,754.16,263,1139.22c18.11,3.54,36.73,2.76,54.36-4.26L736,968l361.58-411.85Z" transform="translate(-4 -4)"/><path class="cls-12" d="M1073.45,463.23,370,1264.51c-40.11,45.69-109.68,42.64-155.36-6.83h0c-45.69-49.46-50.21-126.61-10.09-172.3L908,284.1c40.11-45.7,109.68-42.64,155.36,6.83h0C1109.05,340.39,1113.57,417.54,1073.45,463.23Z" transform="translate(-4 -4)"/><path class="cls-6" d="M252.1,1106.68l676.28-770.3c34-38.67,87.53-43.39,127.38-14.22a113.87,113.87,0,0,0-12.73-16.8c-40.31-43.64-104.26-43.41-142.83.52L223.93,1076.17c-38.57,43.93-37.16,114.93,3.16,158.57a106.25,106.25,0,0,0,15.44,13.71C215.26,1205,218.15,1145.35,252.1,1106.68Z" transform="translate(-4 -4)"/><path class="cls-13" d="M1010.32,394.88,306.84,1196.16c-30.29,34.5-77.35,41.12-118.26,21a140.62,140.62,0,0,0,26,40.48c45.68,49.47,115.25,52.52,155.36,6.83l703.48-801.28c40.12-45.7,35.6-122.84-10.09-172.31a126.14,126.14,0,0,0-37.1-27.86C1045.38,308,1040.61,360.37,1010.32,394.88Z" transform="translate(-4 -4)"/><path class="cls-8" d="M1056,444.38,352.56,1245.65c-37.5,42.72-100.49,42.29-145.89,1.73,2.63,3.45,5,7.07,7.94,10.3,45.68,49.47,115.25,52.52,155.36,6.83l703.48-801.28c40.12-45.7,35.6-122.84-10.09-172.31-3-3.22-6.3-5.71-9.47-8.54C1091.55,331.75,1093.53,401.66,1056,444.38Z" transform="translate(-4 -4)"/></g></g></svg>