<svg id="Layer_1" data-name="Layer 1" xmlns="http://www.w3.org/2000/svg" xmlns:xlink="http://www.w3.org/1999/xlink" viewBox="0 0 633.02 660.25"><defs><style>.cls-1,.cls-2,.cls-3,.cls-4,.cls-5,.cls-6{fill-rule:evenodd;}.cls-1{fill:url(#linear-gradient);}.cls-2{fill:url(#linear-gradient-2);}.cls-3{fill:#fff;}.cls-4{fill:url(#linear-gradient-3);}.cls-5{fill:url(#linear-gradient-4);}.cls-6{fill:url(#linear-gradient-5);}</style><linearGradient id="linear-gradient" x1="1465.78" y1="395.66" x2="1836.72" y2="395.66" gradientTransform="matrix(-1, 0, 0, 1, 3484.48, 0)" gradientUnits="userSpaceOnUse"><stop offset="0" stop-color="#aee2fa"/><stop offset="1" stop-color="#48ade2"/></linearGradient><linearGradient id="linear-gradient-2" x1="1464.78" y1="422.83" x2="1781.44" y2="422.83" gradientTransform="matrix(-1, 0, 0, 1, 3484.48, 0)" gradientUnits="userSpaceOnUse"><stop offset="0" stop-color="#d8f0f7"/><stop offset="1" stop-color="#62c9f3"/></linearGradient><linearGradient id="linear-gradient-3" x1="1425.73" y1="395.65" x2="1877.19" y2="395.65" gradientTransform="matrix(-1, 0, 0, 1, 3484.48, 0)" gradientUnits="userSpaceOnUse"><stop offset="0" stop-color="#1c75bc"/><stop offset="1" stop-color="#00aeef"/></linearGradient><linearGradient id="linear-gradient-4" x1="1789.94" y1="584.4" x2="1857.86" y2="584.4" gradientTransform="matrix(-1, 0, 0, 1, 3484.48, 0)" gradientUnits="userSpaceOnUse"><stop offset="0" stop-color="#1ba1db"/><stop offset="1" stop-color="#3785c6"/></linearGradient><linearGradient id="linear-gradient-5" x1="1814.06" y1="703.73" x2="2058.75" y2="703.73" gradientTransform="matrix(-1, 0, 0, 1, 3484.48, 0)" gradientUnits="userSpaceOnUse"><stop offset="0" stop-color="#f15a29"/><stop offset="1" stop-color="#f7941d"/></linearGradient></defs><path class="cls-1" d="M1702,264.55c72.47-72.47,189.93-72.47,262.31,0s72.47,189.84,0,262.21-189.84,72.47-262.31,0-72.37-189.84,0-262.21Z" transform="translate(-1425.73 -169.88)"/><path class="cls-2" d="M1965.35,264.55c72.47,72.37,72.47,189.84,0,262.21s-189.84,72.47-262.31,0Z" transform="translate(-1425.73 -169.88)"/><path class="cls-3" d="M1989.6,351.11a163.49,163.49,0,0,1,6.16,44.5v1.86a9.8,9.8,0,0,1-4.69,7.43,10,10,0,0,1-15.16-7.92v-1.37a141.55,141.55,0,0,0-5.48-39.42h0a9.92,9.92,0,0,1,19.17-5.08Z" transform="translate(-1425.73 -169.88)"/><path class="cls-3" d="M1833,232.86a162.91,162.91,0,0,1,144,86.66,10.15,10.15,0,0,1-4.89,12.81,9.9,9.9,0,0,1-13-4.21v.1A142.89,142.89,0,0,0,1833,252.72h-.49a9.66,9.66,0,0,1-8.41-4.89,10,10,0,0,1,7.82-15Z" transform="translate(-1425.73 -169.88)"/><path class="cls-4" d="M1833,169.88c-124.7,0-225.73,101.13-225.73,225.73s101,225.82,225.73,225.82,225.73-101.12,225.73-225.82-101-225.73-225.73-225.73Zm0,40.29c-102.4,0-185.44,83-185.44,185.44s83,185.53,185.44,185.53,185.44-83,185.44-185.53-83-185.44-185.44-185.44Z" transform="translate(-1425.73 -169.88)"/><path class="cls-5" d="M1686.93,554.62h0a23.32,23.32,0,0,0-34.65.94L1633.37,577a27.76,27.76,0,0,0,.87,37.23h0a23.3,23.3,0,0,0,34.64-.94l18.92-21.39A27.76,27.76,0,0,0,1686.93,554.62Z" transform="translate(-1425.73 -169.88)"/><path class="cls-6" d="M1447.48,809.9l14.28,13.69c9.29,8.8,24.65,8.9,33.06-.88l170.86-196.38A32.24,32.24,0,0,0,1620,582.9L1432.32,763.25c-9.29,8.9-8.51,24.16.79,33Z" transform="translate(-1425.73 -169.88)"/></svg>