<svg xmlns="http://www.w3.org/2000/svg" viewBox="0 0 1500 1500"><defs><style>.cls-1{fill:#fff;}.cls-2{fill:#6cb700;}.cls-3{fill:#84ce11;}.cls-4{fill:#a5e003;}.cls-5{fill:#dc7a12;}.cls-6{fill:#f39818;}.cls-7{fill:#ee9216;}</style></defs><g id="ƒŒƒCƒ__6" data-name="ƒŒƒCƒ„[_6"><rect class="cls-1" width="1500" height="1500" rx="418.14"/><path class="cls-2" d="M1416.55,481.29c-17-13-79.27,28.93-91.93,35.32-86.44,43.57-180.91,114.38-229.39,225.83,0,0-56.19-113.68-13.5-321.69,35.41-43.44,44.39-80.15,67.19-118.16,17.44-29.06,35.31-60.88,49.6-91.88,5.5-11.94,30.61-62.31,23.74-76.15-17.59-6.19-67.29,44.31-75.15,54.37-28.95,37.06-41.91,81-64.06,122.47-17,31.86-35.36,51.84-36.63,90.32,7,14.11,1,28.21-2.76,51.57l-.09.5c-4.88,15.39-36.36,122.84-11.25,259,2.12,19.35,1.43,26.67,10.26,52.05-31.16-4.68-61.22-12.31-87.17-32.57-46.9-36.62-92.22-75.23-136.54-115.18-7.09-6.39-32.43-58-44.31-51.37-9.95,23.28,22,82.12,32.84,99C860.6,747,937.22,792,1028.24,814.25c18.34,4.48,38.13,8.45,47.85,28.2,52.32,106.4,69.34,215.49,16,329.5-2.77,10.7-1.88,21.77-3.39,32.58-.91,14.36-34.82,42-25.73,56.18,11.88-1.33,40.23-11.12,50.76-25.24,29.88-40.1,46.22-92.49,47.84-141.08,2.83-84.89-12.82-167.31-37-247.72-5.17-17.16-10.09-34.08-4.19-52.29,2.12-2.39,4-5.43,7.81-3.63l-.07.52c12.35-31.95,38.92-52.52,58-79,25.89-35.91,52.3-71,85.16-100.7,27.66-25,55.71-49.55,82.11-76.06C1361.31,527.55,1421.23,495.14,1416.55,481.29Z" transform="translate(-4 9)"/><path class="cls-3" d="M863.92,711.29c45.14,44.24,110.66,82.24,171.73,87.34,31.8,7.48,49.83,33.55,61,63.64,34.22,92.43,65.65,282.74-19.65,345.38-16.53-3.21-6.58-44.73-5.33-61.48,39.48-76.86,24.72-196.61-9-281.7-4.56-11.5-11.3-18-24-17.05-50.85,2.94-139.83-5.16-199.82-58.51-62.57-55.64-95.79-158.81-67.92-232.29,10.46,0,10.85,26.8,12.55,33.45C783.6,596.74,796.86,645.55,863.92,711.29Z" transform="translate(-4 9)"/><path class="cls-3" d="M1120.38,794.38c-1.83-7.09,8.06-31.48,16.44-47.42,74.22-121.38,255.8-255.54,281.43-266.43-3.77,72.49-36.93,132.06-80,186.05C1241.26,776.28,1154.38,785.82,1120.38,794.38Z" transform="translate(-4 9)"/><path class="cls-4" d="M1418.25,480.53c-85.32,30.25-229,122.75-320.9,260.35-8.43,11.09-10.13-52.91,6.84-105.33,38.42-122.2,142.69-177.68,257.24-168.83C1382.56,468.35,1409.93,477.08,1418.25,480.53Z" transform="translate(-4 9)"/><path class="cls-5" d="M1116.85,1184.7c2.51,31.83-7.85,93.63-29.35,114.73-39.73,39-86.51,79.9-139,102.09-52.16,22-96.06,5.22-151.79-14.51-6.87-9.19-14.67-31.46-12.07-50,11.46-12,26-6.92,38.74-6.65,66.54,1.4,123.75-20.9,174.19-68,30.3-28.29,26.79-56.64,19.85-97.55-1.26-7.41,1.94-20.6,6.58-27.7C1090.25,1133.7,1112.45,1176.24,1116.85,1184.7Z" transform="translate(-4 9)"/><path class="cls-6" d="M995.68,1274.65c-60.58,59.81-180.27,90.17-211,62.37,4.07-50.25,28.11-88,62.87-122.81,49.92-50,127-79.07,176.49-77.08C1028.31,1136.81,1080.68,1190.73,995.68,1274.65Z" transform="translate(-4 9)"/><path class="cls-4" d="M1053.68,407.44c-4.13,23.17-6.06,26.22-10.28,47.26-46.68-61.13-33.18-131.8-6.12-187.56,29.28-60.34,103.45-122.45,187.1-134.14C1161.46,180.84,1084.45,292,1053.68,407.44Z" transform="translate(-4 9)"/><path class="cls-3" d="M1224.38,133c2.38,29.24-1.78,87.34-8.4,124.42-12.42,69.55-39.08,178.15-141.12,199.87C1096.48,293.7,1212,137,1224.38,133Z" transform="translate(-4 9)"/><path class="cls-7" d="M796.7,1387c39.9,14.89,93.83,12.25,134-2.77,148.1-55.37,183.49-166.65,186.15-199.54,7.11,11.49,7.77,26.42,7.36,38.51a160.48,160.48,0,0,1-27.23,84.2c-48.59,71.94-129.17,117.93-212,117-18.35-.22-36.58-3.58-53.36-11.08C818.37,1407.38,805.28,1398.84,796.7,1387Z" transform="translate(-4 9)"/><path class="cls-4" d="M783.64,588c-3.85-5.23-16.81-26.07-12.83-31.35,66.52,1.71,255.34,28.18,282.64,208.14,2,13.45,1.21,8.83-7.62,9.11C962.09,761.52,852.62,681.66,783.64,588Z" transform="translate(-4 9)"/><path class="cls-3" d="M516.33,977.21c2.88-36-2.76-112.71-26.85-188.92C465.05,711,476.48,617.34,499.55,571a2.25,2.25,0,0,0-3.6-2.65c-43.27,46.95-56.11,113.28-51.54,177.93,2.82,40,.75,49.68,8.37,86.73,2.76,13.37,10,28.56,12.34,42.47,7.25,42.36,17.56,133.59-30.19,174.62-11.95,10.27,8.6,1.43,23.58,5-1.86,9.66-1.3,19.55-2.66,29.25-.91,14.35-34.82,42-25.73,56.17,11.88-1.33,35.36-23.26,46-37.26C501,1070.76,512,1031.67,516.33,977.21Z" transform="translate(-4 9)"/><path class="cls-2" d="M450.74,823c4.14,21.53-4.42,14.88,4.58,35.68,18,41.63,19.68,145.3-24.52,189.09-11.23,11.13,12.73,3.76,27.71,7.36a92.76,92.76,0,0,0-1.37,12.2c2.22-3.15,3.73-6.8,6-10.1,36.74-54.31,37.42-153.65,16.9-203.63C474.17,839.42,459.48,832.35,450.74,823Z" transform="translate(-4 9)"/><path class="cls-5" d="M491.88,1073.05c2.5,31.83-7.86,93.63-29.35,114.72-39.73,39-86.52,79.91-139,102.09-52.16,22.05-96.06,5.23-151.8-14.51-6.86-9.18-14.66-31.46-12.06-50,11.46-12,26-6.92,38.74-6.65,66.53,1.4,123.75-20.9,174.19-68,30.3-28.29,26.79-56.64,19.84-97.55-1.26-7.41,1.95-20.6,6.58-27.71C465.28,1022,487.48,1064.58,491.88,1073.05Z" transform="translate(-4 9)"/><path class="cls-6" d="M370.71,1163c-60.58,59.81-180.27,90.17-211,62.37,4.07-50.25,28.1-88,62.87-122.82,49.92-50,127-79.07,176.48-77.08C403.34,1025.16,455.71,1079.08,370.71,1163Z" transform="translate(-4 9)"/><path class="cls-7" d="M171.72,1275.35c39.9,14.89,93.84,12.25,134-2.77,148.09-55.37,183.49-166.64,186.15-199.53,7.11,11.49,7.77,26.42,7.36,38.51a160.68,160.68,0,0,1-27.23,84.2c-48.59,71.94-129.18,117.92-212,117-18.36-.21-36.58-3.57-53.36-11.07C193.4,1295.73,180.31,1287.19,171.72,1275.35Z" transform="translate(-4 9)"/><path class="cls-2" d="M442,849.12c-41.46-16.21-61.37-38.86-91.74-56.53-23.22-13.52-47.77-28.83-69.43-45.09-8.34-6.26-44.9-31.87-45-44.8,10.44-12,64.79,3.19,74.14,7.09,34.46,14.36,62.89,29,94.07,49.5,23.93,15.72,41.48,33.76,56.49,61,13.06,9.12,17.57,19.47,20.87,36,0,.05.06.08.09.12a87.46,87.46,0,0,1-23.05,12C453.54,861.8,447.49,855.84,442,849.12Z" transform="translate(-4 9)"/><path class="cls-4" d="M461.47,824.69c11.47,14.95,13.89,20,20.64,32.53,11.32-64.09-24.29-109.31-64.23-138-43.22-31-120.57-44.46-184.13-16.77C296.68,710.09,402.43,752.88,461.47,824.69Z" transform="translate(-4 9)"/><path class="cls-3" d="M233.75,702.48c1.67,106,143.12,193.88,224.71,165.9-15.9-35.81-60.73-78.63-90.87-97.8C304,730.1,254.66,712.4,233.75,702.48Z" transform="translate(-4 9)"/></g></svg>