<svg id="Layer_1" data-name="Layer 1" xmlns="http://www.w3.org/2000/svg" xmlns:xlink="http://www.w3.org/1999/xlink" viewBox="0 0 4226.91 4206.86"><defs><style>.cls-1{fill:none;}.cls-2{fill:#fff;}.cls-3{fill:url(#linear-gradient);}.cls-4{fill:#429819;}.cls-5{fill:url(#linear-gradient-2);}.cls-6{fill:url(#linear-gradient-3);}.cls-7{fill:#002796;}.cls-31,.cls-7{opacity:0.35;}.cls-8{fill:url(#linear-gradient-4);}.cls-9{fill:url(#linear-gradient-5);}.cls-10{fill:url(#linear-gradient-6);}.cls-11{fill:url(#linear-gradient-7);}.cls-12{fill:url(#linear-gradient-8);}.cls-13{fill:url(#linear-gradient-9);}.cls-14{fill:#e86e00;}.cls-15{clip-path:url(#clip-path);}.cls-16{fill:#ffc127;}.cls-17{fill:#ffe04a;}.cls-18{fill:#fe9b00;}.cls-19{fill:url(#linear-gradient-10);}.cls-20{fill:url(#linear-gradient-11);}.cls-21{fill:url(#linear-gradient-12);}.cls-22{fill:url(#linear-gradient-13);}.cls-23{fill:url(#linear-gradient-14);}.cls-24{fill:url(#linear-gradient-15);}.cls-25{fill:url(#linear-gradient-16);}.cls-26{fill:url(#linear-gradient-17);}.cls-27{fill:url(#linear-gradient-18);}.cls-28{fill:url(#linear-gradient-19);}.cls-29{fill:url(#linear-gradient-20);}.cls-30{clip-path:url(#clip-path-2);}.cls-31{fill:#93000e;}.cls-32{fill:#ffffab;}.cls-33{fill:#5b0428;}.cls-34{fill:url(#linear-gradient-21);}.cls-35{fill:#ffb206;}.cls-36{fill:#ffe443;}</style><linearGradient id="linear-gradient" x1="-2398.68" y1="-367.17" x2="-880.82" y2="-367.17" gradientUnits="userSpaceOnUse"><stop offset="0" stop-color="lime"/><stop offset="1" stop-color="#39b54a"/></linearGradient><linearGradient id="linear-gradient-2" x1="-2235.37" y1="-347.07" x2="-1068.87" y2="-347.07" xlink:href="#linear-gradient"/><linearGradient id="linear-gradient-3" x1="-1927.13" y1="-311.1" x2="-1472.6" y2="-311.1" gradientUnits="userSpaceOnUse"><stop offset="0" stop-color="#7fff99"/><stop offset="1" stop-color="#39b54a"/></linearGradient><linearGradient id="linear-gradient-4" x1="-2695.47" y1="-506.32" x2="-1615.69" y2="-506.32" xlink:href="#linear-gradient"/><linearGradient id="linear-gradient-5" x1="2176.82" y1="1774.47" x2="2929.36" y2="1774.47" xlink:href="#linear-gradient"/><linearGradient id="linear-gradient-6" x1="-2418.74" y1="-460.57" x2="-1937.91" y2="-460.57" xlink:href="#linear-gradient-3"/><linearGradient id="linear-gradient-7" x1="-3481.57" y1="-320.36" x2="-2089.39" y2="-320.36" xlink:href="#linear-gradient"/><linearGradient id="linear-gradient-8" x1="-3290.37" y1="-298.71" x2="-2252.32" y2="-298.71" xlink:href="#linear-gradient"/><linearGradient id="linear-gradient-9" x1="-2971.09" y1="-249.77" x2="-2490.73" y2="-249.77" xlink:href="#linear-gradient-3"/><clipPath id="clip-path" transform="translate(4717.15 2268.29)"><ellipse class="cls-1" cx="-1565.48" cy="-660.5" rx="249.24" ry="246.36"/></clipPath><linearGradient id="linear-gradient-10" x1="834.39" y1="2184.64" x2="1825.65" y2="3546.84" gradientUnits="userSpaceOnUse"><stop offset="0.01" stop-color="#00d9d4"/><stop offset="0.98" stop-color="#009dd4"/></linearGradient><linearGradient id="linear-gradient-11" x1="753.95" y1="1986.54" x2="753.95" y2="2845.74" xlink:href="#linear-gradient-10"/><linearGradient id="linear-gradient-12" x1="-3885.86" y1="285.38" x2="-3838.18" y2="770.4" gradientUnits="userSpaceOnUse"><stop offset="0.03" stop-color="#fee500"/><stop offset="1" stop-color="#fe9b00"/></linearGradient><linearGradient id="linear-gradient-13" x1="-4098.96" y1="306.11" x2="-4051.28" y2="791.13" xlink:href="#linear-gradient-12"/><linearGradient id="linear-gradient-14" x1="-4061.34" y1="302.63" x2="-4013.69" y2="787.4" xlink:href="#linear-gradient-12"/><linearGradient id="linear-gradient-15" x1="-3906.61" y1="287.32" x2="-3858.9" y2="772.68" xlink:href="#linear-gradient-12"/><linearGradient id="linear-gradient-16" x1="-3927.8" y1="289.59" x2="-3880.15" y2="774.37" xlink:href="#linear-gradient-12"/><linearGradient id="linear-gradient-17" x1="-4073.48" y1="303.26" x2="-4025.76" y2="788.67" xlink:href="#linear-gradient-12"/><linearGradient id="linear-gradient-18" x1="-3991.68" y1="296" x2="-3944.05" y2="780.5" xlink:href="#linear-gradient-12"/><linearGradient id="linear-gradient-19" x1="2427.89" y1="583.2" x2="2427.89" y2="3375.58" gradientUnits="userSpaceOnUse"><stop offset="0" stop-color="#f7931e"/><stop offset="0.99" stop-color="#6d1905"/></linearGradient><linearGradient id="linear-gradient-20" x1="2427.89" y1="2131.24" x2="2427.89" y2="3809.93" gradientUnits="userSpaceOnUse"><stop offset="0.01" stop-color="#f15a24"/><stop offset="0.99" stop-color="#550e00"/></linearGradient><clipPath id="clip-path-2" transform="translate(4717.15 2268.29)"><ellipse class="cls-1" cx="-896.77" cy="-58.33" rx="249.24" ry="246.36"/></clipPath><linearGradient id="linear-gradient-21" x1="3148.98" y1="2435.7" x2="3148.98" y2="3135.43" gradientUnits="userSpaceOnUse"><stop offset="0.01" stop-color="#b53928"/><stop offset="0.99" stop-color="#861139"/></linearGradient></defs><path class="cls-2" d="M-3769.51-2268.29h2331.62c523.37,0,947.65,422.27,947.65,943.15V995.42c0,520.89-424.28,943.15-947.65,943.15H-3769.51c-523.37,0-947.64-422.26-947.64-943.15V-1325.14C-4717.15-1846-4292.88-2268.29-3769.51-2268.29Z" transform="translate(4717.15 2268.29)"/><path class="cls-3" d="M-1486.6,708.34C-1342.86,89.69-1139.82-499-886.74-1050.76c15.38-33.53-.31-73-34.68-87.14q-400.26-165.19-794.91-349.16c-34.1-15.9-74.73-.43-89.14,34-257,614.26-457.21,1263.93-592,1941.18-6.67,33.54,14,66.51,47.4,75.47q391.35,105.09,784.52,193.74C-1530,765.34-1494.74,743.39-1486.6,708.34Z" transform="translate(4717.15 2268.29)"/><path class="cls-4" d="M-1547.43,604.18C-1413.79,44.84-1232-490.07-1008.71-995.47c14.58-33-1.11-71.37-34.79-85.11q-318.82-130-634.19-271.93c-33.66-15.14-73.33.42-87.19,34.31-225.82,551.91-405.57,1132.35-533,1735.66-7,33.18,13.27,66.05,46.33,75.05q312.19,84.94,625.62,159.39C-1590.87,660.22-1555.7,638.83-1547.43,604.18Z" transform="translate(4717.15 2268.29)"/><path class="cls-5" d="M-1616.62,606.17c134.51-574.07,319.45-1123,547.75-1641.33Q-1383.57-1162-1695-1300.31c-229.13,554.66-411.43,1138.74-540.35,1746.39Q-1926.61,531.27-1616.62,606.17Z" transform="translate(4717.15 2268.29)"/><path class="cls-4" d="M-1788.37-16.41c-190.13-57.48-307.35-244.11-256-411.53,51.9-169.88,252.78-246,443-175.65C-1411-533-1303-353.41-1355-196.48-1406.54-41.78-1598.14,41.32-1788.37-16.41Z" transform="translate(4717.15 2268.29)"/><path class="cls-4" d="M-1535.21-784.76c-60.7-23.13-91.34-92.15-67.66-153.48a116.85,116.85,0,0,1,153.5-66.31c60.62,24.78,89.95,92.94,66.21,153C-1406.78-791.85-1474.51-761.62-1535.21-784.76Z" transform="translate(4717.15 2268.29)"/><path class="cls-4" d="M-1890.66,374.55c-60.12-16.25-97.46-78-82.74-137.52,14.77-59.76,76.2-93.49,136.41-75.8s96.37,78.9,81.47,137.23C-1770.36,356.52-1830.56,390.81-1890.66,374.55Z" transform="translate(4717.15 2268.29)"/><path class="cls-4" d="M-1035.15-1051.1q-78-31.51-155.86-63.78c-36.93,84.39,4.28,180.89,90.58,214Q-1068.4-976.39-1035.15-1051.1Z" transform="translate(4717.15 2268.29)"/><path class="cls-4" d="M-1706.26-1337.19q-33.4,80.36-65.47,161.5c85.38,36.61,183.13-5.7,219.94-93Q-1629.13-1302.56-1706.26-1337.19Z" transform="translate(4717.15 2268.29)"/><path class="cls-4" d="M-2262.94,465.56q76.49,21,153.05,41.42c17.88-83.86-35-171-119.59-195.68Q-2246.79,388.18-2262.94,465.56Z" transform="translate(4717.15 2268.29)"/><path class="cls-4" d="M-1599.95,635.65q16.92-72.82,34.92-145.1c-85-21.56-170,26.31-188.45,107.87Q-1676.75,617.35-1599.95,635.65Z" transform="translate(4717.15 2268.29)"/><path class="cls-6" d="M-1877.14-393.4c13.05-29.74,30.8-48.2,52.91-55.45s50.76-4.65,85.7,7.61l13.61,4.76q-14,42.66-27.66,85.51l-10.08-3.45c-25.51-8.71-40.67-5.59-45.45,9.57-2.13,6.74-1.11,12.74,3,18s10,9.25,17.75,11.87c5.69,1.94,15.7-.25,29.92-6.55q47-23.08,94.08-45.74c34.1-17.28,66.52-20.51,97.13-10.09q35.81,12.18,52.21,43.13t11.62,67.31q14.91,4.86,29.81,9.7-6.75,20.48-13.41,41l-29.31-9.43q-18.14,38.94-54.11,51c-23.93,8-52.11,6.91-84.35-3.44q13.32-43.09,27-86l20.86,6.31c4.45,1.08,9.1.28,13.92-2.53a20.27,20.27,0,0,0,9.6-11.58,21.93,21.93,0,0,0-.67-16.06c-2.22-5.13-6.24-8.64-12-10.54-8.07-2.67-22.72,1.2-44,11.72q-44.81,22.61-89.54,45.61a134.66,134.66,0,0,1-46,14.28,112.37,112.37,0,0,1-50-5.18q-39.82-13.15-56.84-45.61t-9.56-73.22q-18.12-6.24-36.21-12.52,6.59-21.45,13.27-42.85Q-1895.5-399.8-1877.14-393.4Z" transform="translate(4717.15 2268.29)"/><polygon class="cls-7" points="2993.1 2807.53 3189.09 867.78 3065.04 809.03 2104.09 2780.33 2993.1 2807.53"/><path class="cls-8" d="M-1738.08,477.09l122.26-1921.68c2.27-35.62-25.53-66.12-61.61-67.59l-913-37.15c-36.07-1.47-66.32,26.67-67,62.35l-37.95,1925.11c-.68,34.61,26.74,63.41,61.73,64.83L-1805,536.69C-1770,538.11-1740.27,511.63-1738.08,477.09Z" transform="translate(4717.15 2268.29)"/><path class="cls-4" d="M-1817.71,384.45l103.17-1727.62c2.16-36.13-26.07-67-62.65-68.47L-2499.41-1441c-36.58-1.49-67.29,27-68.14,63.14l-40.84,1730.15c-.84,35.28,27.08,64.71,62.75,66.17l659.89,26.85C-1850.08,446.74-1819.81,419.67-1817.71,384.45Z" transform="translate(4717.15 2268.29)"/><polygon class="cls-9" points="2829.93 2667.45 2929.36 910.2 2223.85 881.49 2176.82 2640.88 2829.93 2667.45"/><path class="cls-4" d="M-2191.07-159.36c-204-8.3-365.94-148.45-361.74-315.24,4.26-169.26,177.58-301.43,387.07-292.91s371.23,154.33,361.4,323.37C-1814-277.58-1987.11-151.06-2191.07-159.36Z" transform="translate(4717.15 2268.29)"/><path class="cls-4" d="M-2157.72-960.07c-67.16-2.73-119.68-57.59-117.3-122.87,2.39-65.65,59.33-116.9,127.17-114.13s120.32,58.46,117.25,124.07C-2033.66-1007.75-2090.57-957.33-2157.72-960.07Z" transform="translate(4717.15 2268.29)"/><path class="cls-4" d="M-2207.43,233.43c-63.71-2.6-113.63-52.08-111.49-110.81,2.15-59,56-105,120.37-102.39S-2084.34,73-2087.1,132.05C-2089.86,190.76-2143.72,236-2207.43,233.43Z" transform="translate(4717.15 2268.29)"/><path class="cls-4" d="M-1760.78-1385.65l-175.06-7.12c-4.76,94.63,69.23,174,165.21,177.87Z" transform="translate(4717.15 2268.29)"/><path class="cls-4" d="M-2517.93-1416.46l-4.39,171c96,3.9,176.32-69.14,179.45-163.84Z" transform="translate(4717.15 2268.29)"/><path class="cls-4" d="M-2564.44,396.12l161.68,6.57c2.69-81.4-68-150.8-157.88-154.45Z" transform="translate(4717.15 2268.29)"/><path class="cls-4" d="M-1865.16,424.57l8.52-147.69c-89.9-3.66-166.11,59.77-170.2,141.11Z" transform="translate(4717.15 2268.29)"/><path class="cls-10" d="M-2377.4-489.74q7.05-47,36.87-66.65t87.08-17.35l14.86.6-3.43,88.39-11-.45q-41.66-1.69-42.5,21.59-.37,10.33,7.91,16.1t20.86,6.28q9.3.38,27.94-14.38L-2158-525q43.48-38.89,93.59-36.88,39,1.59,64,26.87t30.17,61.82l32.32,1.32-2.26,43.39-31.72-1.29q-7.65,42.51-40.4,63.53t-85,18.87l4.06-89.41,22.46.4q7.11-.22,13.17-6.18a20.18,20.18,0,0,0,6.41-13.72,21.21,21.21,0,0,0-5-15.23q-5.48-6.43-14.77-6.82-13.17-.54-40.57,23.22l-76.83,67.57a141.21,141.21,0,0,1-42,25.77,122.53,122.53,0,0,1-51.08,8.44q-43-1.76-68.62-27.43t-29.25-65.59l-39.37-1.61,1.35-43.43Z" transform="translate(4717.15 2268.29)"/><path class="cls-7" d="M-2070.56,548.36c45.79-493.58-303-2003-303-2003l-1004,257.48,455.84,1957.54S-2092.38,783.47-2070.56,548.36Z" transform="translate(4717.15 2268.29)"/><path class="cls-11" d="M-2089.91,614.11a18387.31,18387.31,0,0,0-373.87-2026.85c-8.72-35.85-46-57.18-81.84-46.83q-443,128-887.59,246.4c-35.28,9.4-55.92,45.57-45.77,80.26A17271.06,17271.06,0,0,1-3037.82,767.73c6.05,34.83,39.24,58.42,74.56,52.95q410.13-63.55,819.82-134.93C-2109.13,679.77-2085.56,648.27-2089.91,614.11Z" transform="translate(4717.15 2268.29)"/><path class="cls-4" d="M-2186.35,535.73a18291.3,18291.3,0,0,0-341.07-1815c-8.59-35.67-45.57-57.06-81.26-47q-352,98.77-705.06,191.53c-35.12,9.23-55.8,45-46.06,79.65a17371.86,17371.86,0,0,1,390.87,1721c6.09,34.91,39.48,58.46,74.84,52.74q327.43-52.89,654.55-110.8C-2205.16,601.71-2181.69,569.94-2186.35,535.73Z" transform="translate(4717.15 2268.29)"/><path class="cls-12" d="M-2252.32,560.59a18208,18208,0,0,0-349.53-1829.51q-343.79,95.33-688.52,184.93A17455.65,17455.65,0,0,1-2898.26,671.5Q-2575.13,618.47-2252.32,560.59Z" transform="translate(4717.15 2268.29)"/><path class="cls-4" d="M-2670.54,57.13C-2871.79,97-3062-5.61-3098.89-171c-37.47-168.24,95.71-343.27,301.2-392.17s402,54.66,435.19,232C-2329.77-156.91-2469.37,17.33-2670.54,57.13Z" transform="translate(4717.15 2268.29)"/><path class="cls-4" d="M-2842.51-758.56a122.54,122.54,0,0,1-148.17-89.38c-16.36-65.81,23.64-133.08,90-150.3a121.57,121.57,0,0,1,149.24,90C-2735.69-841.62-2776.71-774.62-2842.51-758.56Z" transform="translate(4717.15 2268.29)"/><path class="cls-4" d="M-2600.09,460.29c-63,11.28-122.09-28.14-132.62-88-10.5-60.18,32.05-118.87,95.52-131.09s123.42,27.45,133.45,88.6C-2493.79,390.62-2537.15,449-2600.09,460.29Z" transform="translate(4717.15 2268.29)"/><path class="cls-4" d="M-2584.34-1305.28q-85.29,23.85-170.6,47.33c24.39,96.28,119.2,154.07,212.92,129Q-2562.75-1217.29-2584.34-1305.28Z" transform="translate(4717.15 2268.29)"/><path class="cls-4" d="M-3323-1105.66q23.6,83.84,46.38,168.06a172.13,172.13,0,0,0,124.6-213Q-3237.5-1128-3323-1105.66Z" transform="translate(4717.15 2268.29)"/><path class="cls-4" d="M-2917.29,700q80-13,160-26.26c-13.39-83.15-97.08-138.07-185.95-122.86Q-2930,625.32-2917.29,700Z" transform="translate(4717.15 2268.29)"/><path class="cls-4" d="M-2225.6,582.15q-10.58-77.78-21.81-155.34c-88.81,16.69-150.18,98.89-138.05,183.58Q-2305.52,596.41-2225.6,582.15Z" transform="translate(4717.15 2268.29)"/><path class="cls-13" d="M-2931.73-229.68c-3.22-32.47,3.09-57.78,19.14-75.95s42.82-31.46,80.33-39.78l14.61-3.24q9.62,44.81,19,89.72c-3.59.79-7.18,1.56-10.78,2.34q-41,8.89-36,32.45c1.42,7,5.38,11.7,11.7,14.17s13.63,2.83,21.87,1.06q9.21-2,23.66-21.52,30.73-45.17,61.25-90.63,32.4-50.54,81.61-61.74c25.55-5.8,48.66-2.34,69.1,10.43s35.43,31.11,45,55l31.78-7.12q4.38,22.44,8.69,44.93l-31.19,6.92q3.16,45.35-23.61,75.19t-78.2,40.72q-8.89-45.92-18.05-91.77l22-5.36c4.58-1.36,8.34-4.61,11.3-9.67a22.16,22.16,0,0,0,2.8-15.58,22.51,22.51,0,0,0-8.74-14.17c-4.65-3.41-10-4.46-16.09-3.1-8.58,1.92-19.85,13.27-33.66,34q-29,44.07-58.12,87.86A142.68,142.68,0,0,1-2757-137.95a120,120,0,0,1-47.76,21.16q-42.35,8.87-73.55-10.62t-44.58-58.41q-19.36,4.11-38.77,8.18-4.7-21.84-9.44-43.64Q-2951.41-225.46-2931.73-229.68Z" transform="translate(4717.15 2268.29)"/><ellipse class="cls-14" cx="3151.68" cy="1633.45" rx="249.24" ry="246.36"/><g class="cls-15"><ellipse class="cls-16" cx="3151.68" cy="1607.78" rx="249.24" ry="246.36"/><polygon class="cls-17" points="3549.25 1602.93 2882.36 1873.15 2814.62 1709.83 3481.51 1439.6 3549.25 1602.93"/><polygon class="cls-17" points="3469.79 1406.8 2802.89 1677.03 2784.46 1632.58 3451.35 1362.35 3469.79 1406.8"/></g><ellipse class="cls-14" cx="3151.68" cy="1607.78" rx="184.29" ry="182.16"/><ellipse class="cls-18" cx="3151.68" cy="1607.78" rx="167.4" ry="165.46"/><path class="cls-14" d="M-1579.19-534.38q-29-3.15-41.78-19.86t-12.76-49.49v-8.51h54.22v6.3q0,24,14.35,24a11,11,0,0,0,9.73-4.89,21,21,0,0,0,3.35-12.14q0-5.36-9.57-15.76l-44.65-44.76q-24.87-24-24.88-52.65,0-22.37,14.83-37.36t37.16-19.07V-787.2h26.79v18.28q26.46,3.17,40.34,21.44t13.88,48.55h-55.5l-.32-12.93a10.85,10.85,0,0,0-4.14-7.41,12.87,12.87,0,0,0-8.61-3.31,13.68,13.68,0,0,0-9.25,3.31,10.93,10.93,0,0,0-3.83,8.67q0,7.56,15.31,22.69l43.69,42.57a81.29,81.29,0,0,1,17.07,23.64,66.72,66.72,0,0,1,6.53,29.32q0,24.89-15.3,40.19t-39.87,18.12v22.7h-26.79Z" transform="translate(4717.15 2268.29)"/><path class="cls-17" d="M-1579.19-556.81q-29-3.16-41.78-19.86t-12.76-49.49v-8.52h54.22v6.31q0,24,14.35,24a11,11,0,0,0,9.73-4.89,21,21,0,0,0,3.35-12.14q0-5.35-9.57-15.76L-1606.3-682q-24.87-23.94-24.88-52.64,0-22.38,14.83-37.36t37.16-19.07v-18.59h26.79v18.28q26.46,3.15,40.34,21.44t13.88,48.54h-55.5l-.32-12.92a10.85,10.85,0,0,0-4.14-7.41,12.83,12.83,0,0,0-8.61-3.32,13.64,13.64,0,0,0-9.25,3.32,10.92,10.92,0,0,0-3.83,8.66q0,7.57,15.31,22.7l43.69,42.57a81.29,81.29,0,0,1,17.07,23.64,66.65,66.65,0,0,1,6.53,29.31q0,24.9-15.3,40.19t-39.87,18.13v22.7h-26.79Z" transform="translate(4717.15 2268.29)"/><path class="cls-7" d="M-1291.73-2.52-3188.6,23.59a7.85,7.85,0,0,1-7.83-6.28l-69.29-347.91a7.8,7.8,0,0,1,7.57-9.28l1014.91-19.49a7.85,7.85,0,0,1,7.89,6.37l2.22,11.88a7.84,7.84,0,0,0,7.57,6.37l535.41,11a7.83,7.83,0,0,1,7.67,8.54h0a7.81,7.81,0,0,0,7.63,8.53l470.93,12.34a7.8,7.8,0,0,1,7.3,10.11L-1284.33-8A7.84,7.84,0,0,1-1291.73-2.52Z" transform="translate(4717.15 2268.29)"/><rect class="cls-19" x="474.46" y="2388.88" width="1826.65" height="1112.47" rx="81.07"/><path class="cls-2" d="M-4040.93,333.75a25.68,25.68,0,0,1,5.78,16.62q0,13.88-9.33,21.65t-26.76,7.78H-4122V272h49.51q16.67,0,25.77,7.16t9.1,20.44q0,9.75-5.25,16.23a24.16,24.16,0,0,1-13.73,8.47A27.34,27.34,0,0,1-4040.93,333.75Zm-54.69-17.69h17.28q13.73,0,13.73-11.59t-14-11.58h-17Zm33.48,30.65a11.28,11.28,0,0,0-3.86-9.07q-3.86-3.28-10.95-3.28h-18.67V358.6h18.82Q-4062.15,358.6-4062.14,346.71Z" transform="translate(4717.15 2268.29)"/><path class="cls-2" d="M-3953.7,360.13h-40.87l-6.79,19.67h-27.77l40-107h30.39l40,107h-28.08Zm-6.78-19.82-13.58-39.65-13.73,39.65Z" transform="translate(4717.15 2268.29)"/><path class="cls-2" d="M-3811.78,379.8h-26.38l-44.11-66.18V379.8h-26.38V272h26.38l44.11,66.78V272h26.38Z" transform="translate(4717.15 2268.29)"/><path class="cls-2" d="M-3742.21,324.75l44,55.05h-31.94l-37-48.34V379.8h-26.38V272h26.38v47.42l37.33-47.42h31.63Z" transform="translate(4717.15 2268.29)"/><path class="cls-2" d="M-3815.83,791H-3855a14,14,0,0,0-14,13.88v70.5a14,14,0,0,0,14,13.88h39.2a14,14,0,0,0,14-13.88v-70.5A14,14,0,0,0-3815.83,791Zm-4.89,80.44h-29.42V808.8h29.42Z" transform="translate(4717.15 2268.29)"/><path class="cls-2" d="M-3894.46,791h-39.2a14,14,0,0,0-14.05,13.88v70.5a14,14,0,0,0,14.05,13.88h39.2a14,14,0,0,0,14-13.88v-70.5A14,14,0,0,0-3894.46,791Zm-4.89,80.44h-29.43V808.8h29.43Z" transform="translate(4717.15 2268.29)"/><path class="cls-2" d="M-3973.1,791h-39.2a14,14,0,0,0-14,13.88v70.5a14,14,0,0,0,14,13.88h39.2a14,14,0,0,0,14-13.88v-70.5A14,14,0,0,0-3973.1,791Zm-4.89,80.44h-29.42V808.8H-3978Z" transform="translate(4717.15 2268.29)"/><path class="cls-2" d="M-4051.74,791h-39.2a14,14,0,0,0-14,13.88v70.5a14,14,0,0,0,14,13.88h39.2a14,14,0,0,0,14-13.88v-70.5A14,14,0,0,0-4051.74,791Zm-4.89,80.44H-4086V808.8h29.42Z" transform="translate(4717.15 2268.29)"/><path class="cls-2" d="M-3041.81,791H-3081a14,14,0,0,0-14,13.88v70.5a14,14,0,0,0,14,13.88h39.2a14,14,0,0,0,14-13.88v-70.5A14,14,0,0,0-3041.81,791Zm-4.89,80.44h-29.42V808.8h29.42Z" transform="translate(4717.15 2268.29)"/><path class="cls-2" d="M-3120.45,791h-39.2a14,14,0,0,0-14,13.88v70.5a14,14,0,0,0,14,13.88h39.2a14,14,0,0,0,14-13.88v-70.5A14,14,0,0,0-3120.45,791Zm-4.89,80.44h-29.42V808.8h29.42Z" transform="translate(4717.15 2268.29)"/><path class="cls-2" d="M-3199.09,791h-39.2a14,14,0,0,0-14,13.88v70.5a14,14,0,0,0,14,13.88h39.2A14,14,0,0,0-3185,875.35v-70.5A14,14,0,0,0-3199.09,791Zm-4.89,80.44h-29.42V808.8H-3204Z" transform="translate(4717.15 2268.29)"/><path class="cls-2" d="M-3277.72,791h-39.2a14,14,0,0,0-14,13.88v70.5a14,14,0,0,0,14,13.88h39.2a14,14,0,0,0,14-13.88v-70.5A14,14,0,0,0-3277.72,791Zm-4.89,80.44H-3312V808.8h29.43Z" transform="translate(4717.15 2268.29)"/><rect class="cls-2" x="-3730.02" y="831.09" width="98.26" height="18.03" transform="translate(196.16 -572.5) rotate(-90)"/><rect class="cls-2" x="1002.62" y="3139.69" width="59.3" height="17.83" rx="0.45"/><rect class="cls-2" x="1009.82" y="3059.26" width="27.87" height="17.83" rx="0.38"/><rect class="cls-2" x="1076.3" y="3059.26" width="67.29" height="17.83" rx="0.43"/><rect class="cls-2" x="-3605.84" y="807.83" width="46.51" height="18.03" rx="0.26" transform="translate(317.73 -497.45) rotate(-90)"/><rect class="cls-2" x="-3655.1" y="851.62" width="46.51" height="18.03" rx="0.21" transform="translate(224.68 -502.91) rotate(-90)"/><rect class="cls-2" x="1076.3" y="3139.69" width="67.29" height="17.83" rx="0.48"/><rect class="cls-2" x="1076.3" y="3099.48" width="67.29" height="17.83" rx="0.36"/><rect class="cls-2" x="-3471.91" y="835.54" width="89.35" height="18.03" rx="0.38" transform="translate(445.37 -314.39) rotate(-90)"/><rect class="cls-2" x="-3508.33" y="813.8" width="63.68" height="18.03" rx="0.45" transform="translate(417.86 -385.39) rotate(-90)"/><rect class="cls-2" x="1231.65" y="3108.39" width="67.29" height="17.83" rx="0.41"/><rect class="cls-2" x="1153.97" y="3059.26" width="67.29" height="17.83" rx="0.44"/><rect class="cls-2" x="-3550.36" y="830.02" width="90.9" height="18.03" rx="0.34" transform="translate(373.21 -397.58) rotate(-90)"/><rect class="cls-2" x="1153.97" y="3139.69" width="67.29" height="17.83" rx="0.43"/><rect class="cls-2" x="1166.41" y="3099.48" width="54.86" height="17.83" rx="0.37"/><rect class="cls-2" x="-2956.01" y="831.09" width="98.26" height="18.03" transform="translate(970.18 201.51) rotate(-90)"/><rect class="cls-2" x="1776.63" y="3139.69" width="59.3" height="17.83" rx="0.45"/><rect class="cls-2" x="1783.83" y="3059.26" width="27.87" height="17.83" rx="0.38"/><rect class="cls-2" x="1850.31" y="3059.26" width="67.29" height="17.83" rx="0.43"/><rect class="cls-2" x="-2831.82" y="807.83" width="46.51" height="18.03" rx="0.26" transform="translate(1091.74 276.56) rotate(-90)"/><rect class="cls-2" x="-2881.08" y="851.62" width="46.51" height="18.03" rx="0.21" transform="translate(998.69 271.1) rotate(-90)"/><rect class="cls-2" x="1850.31" y="3139.69" width="67.29" height="17.83" rx="0.48"/><rect class="cls-2" x="1850.31" y="3099.48" width="67.29" height="17.83" rx="0.36"/><rect class="cls-2" x="-2697.89" y="835.54" width="89.35" height="18.03" rx="0.38" transform="translate(1219.38 459.63) rotate(-90)"/><rect class="cls-2" x="-2734.31" y="813.8" width="63.68" height="18.03" rx="0.45" transform="translate(1191.87 388.63) rotate(-90)"/><rect class="cls-2" x="2005.67" y="3108.39" width="67.29" height="17.83" rx="0.41"/><rect class="cls-2" x="1927.99" y="3059.26" width="67.29" height="17.83" rx="0.44"/><rect class="cls-2" x="-2776.34" y="830.02" width="90.9" height="18.03" rx="0.34" transform="translate(1147.22 376.43) rotate(-90)"/><rect class="cls-2" x="1927.99" y="3139.69" width="67.29" height="17.83" rx="0.43"/><rect class="cls-2" x="1940.42" y="3099.48" width="54.86" height="17.83" rx="0.37"/><path class="cls-2" d="M-4055.75,967.16V954.55h22.8v55.73h-14.35V967.16Z" transform="translate(4717.15 2268.29)"/><path class="cls-2" d="M-4024.89,981.82q0-13,5.34-20.61t17.07-7.61q11.64,0,17,7.61t5.38,20.61q0,13.09-5.38,20.73t-17,7.65q-11.73,0-17.07-7.65T-4024.89,981.82Zm31.26,0q0-7.49-1.79-11.47t-7.06-4c-3.56,0-6,1.34-7.18,4s-1.83,6.49-1.83,11.43.61,8.84,1.83,11.55,3.62,4.06,7.18,4.06,5.86-1.35,7.06-4.06S-3993.63,986.81-3993.63,981.82Z" transform="translate(4717.15 2268.29)"/><path class="cls-2" d="M-3973.53,981.82q0-13,5.34-20.61t17.07-7.61q11.64,0,17,7.61t5.38,20.61q0,13.09-5.38,20.73t-17,7.65q-11.73,0-17.07-7.65T-3973.53,981.82Zm31.26,0q0-7.49-1.79-11.47t-7.06-4c-3.56,0-6,1.34-7.18,4s-1.83,6.49-1.83,11.43.61,8.84,1.83,11.55,3.62,4.06,7.18,4.06,5.86-1.35,7.06-4.06S-3942.27,986.81-3942.27,981.82Z" transform="translate(4717.15 2268.29)"/><path class="cls-2" d="M-3922.17,981.82q0-13,5.34-20.61t17.07-7.61q11.64,0,17,7.61t5.38,20.61q0,13.09-5.38,20.73t-17,7.65q-11.73,0-17.07-7.65T-3922.17,981.82Zm31.26,0q0-7.49-1.79-11.47t-7.06-4c-3.56,0-6,1.34-7.18,4s-1.83,6.49-1.83,11.43.61,8.84,1.83,11.55,3.62,4.06,7.18,4.06,5.86-1.35,7.06-4.06S-3890.91,986.81-3890.91,981.82Z" transform="translate(4717.15 2268.29)"/><rect class="cls-20" x="604.95" y="2744.32" width="298" height="231.45" rx="31.79"/><path class="cls-21" d="M-3892.35,561.67a161.81,161.81,0,0,1,2.67,29,163,163,0,0,1-3,31.11l-.77,3.92H-3818V557.8h-75Z" transform="translate(4717.15 2268.29)"/><path class="cls-22" d="M-4033.71,621.83a163.21,163.21,0,0,1-3-31.13,162.29,162.29,0,0,1,2.66-29l.7-3.87h-75v67.93h75.45Z" transform="translate(4717.15 2268.29)"/><path class="cls-23" d="M-4030.95,547.78c8.39-29.79,24.94-52.55,45.42-62.44l12.92-6.24h-95.69c-22.11,0-40.09,17.78-40.09,39.63v31.45h76.77Z" transform="translate(4717.15 2268.29)"/><path class="cls-24" d="M-3858.1,479.1h-95.7l12.93,6.24c20.48,9.89,37,32.65,45.4,62.44l.68,2.4H-3818V518.73C-3818,496.88-3836,479.1-3858.1,479.1Z" transform="translate(4717.15 2268.29)"/><path class="cls-25" d="M-3896.1,635.71c-9.22,31-27.79,54.27-49.67,62.34l-17.25,6.37h104.92c22.11,0,40.09-17.77,40.09-39.62V633.35h-77.39Z" transform="translate(4717.15 2268.29)"/><path class="cls-26" d="M-4030.3,635.71l-.7-2.36h-77.39V664.8c0,21.85,18,39.62,40.09,39.62h104.91l-17.24-6.37C-4002.52,690-4021.09,666.67-4030.3,635.71Z" transform="translate(4717.15 2268.29)"/><path class="cls-27" d="M-4032.21,589.82c0,55.83,31.15,101.27,69.42,101.27s69.41-45.44,69.41-101.27-31.14-101.29-69.41-101.29S-4032.21,534-4032.21,589.82Z" transform="translate(4717.15 2268.29)"/><rect class="cls-7" x="1265.3" y="2388.88" width="260.4" height="1112.47"/><ellipse class="cls-7" cx="2131.33" cy="3607.36" rx="1620.81" ry="37.05"/><rect class="cls-28" x="1401.09" y="1971.49" width="2053.62" height="1636.81" rx="224.39"/><rect class="cls-29" x="1454.17" y="2008.7" width="1947.45" height="1554.02" rx="224.39"/><ellipse class="cls-14" cx="3820.39" cy="2235.61" rx="249.24" ry="246.36"/><g class="cls-30"><ellipse class="cls-16" cx="3820.39" cy="2209.95" rx="249.24" ry="246.36"/><polygon class="cls-17" points="4217.96 2205.09 3551.07 2475.32 3483.33 2312 4150.23 2041.77 4217.96 2205.09"/><polygon class="cls-17" points="4138.5 2008.97 3471.61 2279.2 3453.17 2234.75 4120.06 1964.52 4138.5 2008.97"/></g><ellipse class="cls-14" cx="3820.39" cy="2209.95" rx="184.29" ry="182.16"/><ellipse class="cls-18" cx="3820.39" cy="2209.95" rx="167.4" ry="165.46"/><path class="cls-14" d="M-910.48,67.79q-29-3.15-41.78-19.86T-965-1.56v-8.51h54.22v6.3q0,24,14.35,24a11.06,11.06,0,0,0,9.73-4.89,21,21,0,0,0,3.35-12.14q0-5.35-9.57-15.76l-44.65-44.76q-24.87-24-24.88-52.65,0-22.36,14.83-37.36t37.16-19.07V-185h26.79v18.28q26.46,3.15,40.34,21.44t13.88,48.55H-885l-.32-12.93a10.85,10.85,0,0,0-4.14-7.41,12.87,12.87,0,0,0-8.61-3.31,13.68,13.68,0,0,0-9.25,3.31,10.93,10.93,0,0,0-3.83,8.67q0,7.56,15.31,22.69l43.69,42.57A81.29,81.29,0,0,1-835-19.53a66.72,66.72,0,0,1,6.53,29.32q0,24.89-15.3,40.19T-883.69,68.1V90.8h-26.79Z" transform="translate(4717.15 2268.29)"/><path class="cls-17" d="M-910.48,45.36q-29-3.16-41.78-19.86T-965-24v-8.52h54.22v6.3q0,24,14.35,24a11.06,11.06,0,0,0,9.73-4.89,21,21,0,0,0,3.35-12.14q0-5.37-9.57-15.76L-937.59-79.8q-24.87-23.94-24.88-52.64,0-22.38,14.83-37.36t37.16-19.07v-18.6h26.79v18.29q26.46,3.15,40.34,21.44t13.88,48.54H-885l-.32-12.92a10.89,10.89,0,0,0-4.14-7.42,12.87,12.87,0,0,0-8.61-3.31,13.68,13.68,0,0,0-9.25,3.31,11,11,0,0,0-3.83,8.67q0,7.58,15.31,22.7l43.69,42.56A81.56,81.56,0,0,1-835-42a66.72,66.72,0,0,1,6.53,29.32q0,24.9-15.3,40.19t-39.87,18.13V68.36h-26.79Z" transform="translate(4717.15 2268.29)"/><rect class="cls-18" x="892.94" y="3505.02" width="419.33" height="103.29"/><rect class="cls-17" x="937.87" y="3505.02" width="133.52" height="103.29"/><rect class="cls-17" x="1102.6" y="3505.02" width="43.5" height="103.29"/><rect class="cls-18" x="919.93" y="3401.73" width="419.33" height="103.29"/><rect class="cls-17" x="964.87" y="3401.73" width="133.52" height="103.29"/><rect class="cls-17" x="1129.6" y="3401.73" width="43.5" height="103.29"/><rect class="cls-18" x="879.08" y="3298.45" width="419.33" height="103.29"/><rect class="cls-17" x="924.02" y="3298.45" width="133.52" height="103.29"/><rect class="cls-17" x="1088.75" y="3298.45" width="43.5" height="103.29"/><rect class="cls-31" x="919.93" y="3401.73" width="378.48" height="31.66"/><rect class="cls-31" x="919.93" y="3489.19" width="392.34" height="15.83"/><path class="cls-2" d="M-3671.87,993.17c-8.64,32.5-36.63,48.14-36.63,48.14,24.73,11.34,36.63,48.14,36.63,48.14,8.63-32.51,36.62-48.14,36.62-48.14C-3660,1030-3671.87,993.17-3671.87,993.17Z" transform="translate(4717.15 2268.29)"/><path class="cls-2" d="M-1803.92-761.4c-8.63,32.5-36.62,48.14-36.62,48.14,24.73,11.35,36.62,48.14,36.62,48.14,8.63-32.5,36.63-48.14,36.63-48.14C-1792-724.6-1803.92-761.4-1803.92-761.4Z" transform="translate(4717.15 2268.29)"/><path class="cls-2" d="M-981.9-185.27c-8.63,32.51-36.62,48.14-36.62,48.14C-993.79-125.78-981.9-89-981.9-89c8.63-32.5,36.63-48.14,36.63-48.14C-970-148.47-981.9-185.27-981.9-185.27Z" transform="translate(4717.15 2268.29)"/><path class="cls-32" d="M-3132-157.73h-41.17a10.24,10.24,0,0,1-10.29-10.18,10.23,10.23,0,0,1,10.29-10.17H-3132a10.23,10.23,0,0,1,10.29,10.17A10.24,10.24,0,0,1-3132-157.73Z" transform="translate(4717.15 2268.29)"/><path class="cls-32" d="M-1493.93,1221.3h-81.22a10.23,10.23,0,0,1-10.29-10.17,10.23,10.23,0,0,1,10.29-10.18h81.22a10.24,10.24,0,0,1,10.29,10.18A10.24,10.24,0,0,1-1493.93,1221.3Zm-148.91,0h-81.22a10.24,10.24,0,0,1-10.29-10.17,10.24,10.24,0,0,1,10.29-10.18h81.22a10.23,10.23,0,0,1,10.29,10.18A10.23,10.23,0,0,1-1642.84,1221.3Zm-148.91,0H-1873a10.24,10.24,0,0,1-10.29-10.17A10.24,10.24,0,0,1-1873,1201h81.22a10.23,10.23,0,0,1,10.29,10.18A10.23,10.23,0,0,1-1791.75,1221.3Zm-148.91,0h-81.22a10.24,10.24,0,0,1-10.29-10.17,10.24,10.24,0,0,1,10.29-10.18h81.22a10.24,10.24,0,0,1,10.3,10.18A10.24,10.24,0,0,1-1940.66,1221.3Zm-148.9,0h-81.23a10.24,10.24,0,0,1-10.29-10.17,10.24,10.24,0,0,1,10.29-10.18h81.23a10.24,10.24,0,0,1,10.29,10.18A10.24,10.24,0,0,1-2089.56,1221.3Zm-148.91,0h-81.23a10.24,10.24,0,0,1-10.29-10.17A10.24,10.24,0,0,1-2319.7,1201h81.23a10.24,10.24,0,0,1,10.29,10.18A10.24,10.24,0,0,1-2238.47,1221.3Zm-148.91,0h-81.23a10.24,10.24,0,0,1-10.29-10.17,10.24,10.24,0,0,1,10.29-10.18h81.23a10.24,10.24,0,0,1,10.29,10.18A10.24,10.24,0,0,1-2387.38,1221.3Zm-148.91,0h-81.23a10.24,10.24,0,0,1-10.29-10.17,10.24,10.24,0,0,1,10.29-10.18h81.23a10.24,10.24,0,0,1,10.29,10.18A10.24,10.24,0,0,1-2536.29,1221.3Zm-148.91,0h-81.22a10.24,10.24,0,0,1-10.3-10.17,10.24,10.24,0,0,1,10.3-10.18h81.22a10.24,10.24,0,0,1,10.29,10.18A10.24,10.24,0,0,1-2685.2,1221.3Zm-148.91,0h-81.22a10.23,10.23,0,0,1-10.29-10.17,10.23,10.23,0,0,1,10.29-10.18h81.22a10.24,10.24,0,0,1,10.29,10.18A10.24,10.24,0,0,1-2834.11,1221.3Zm-148.91,0h-81.22a10.23,10.23,0,0,1-10.29-10.17,10.23,10.23,0,0,1,10.29-10.18H-2983a10.24,10.24,0,0,1,10.29,10.18A10.24,10.24,0,0,1-2983,1221.3ZM-1427,1216a10.28,10.28,0,0,1-9.51-6.29,10.14,10.14,0,0,1,5.58-13.29,62.16,62.16,0,0,0,38.4-53.24,10.26,10.26,0,0,1,10.92-9.51,10.21,10.21,0,0,1,9.62,10.79,81.53,81.53,0,0,1-15.61,43,82.63,82.63,0,0,1-35.47,27.74A10.49,10.49,0,0,1-1427,1216Zm44.89-128.91a10.23,10.23,0,0,1-10.29-10.17V996.59a10.24,10.24,0,0,1,10.29-10.18,10.24,10.24,0,0,1,10.29,10.18v80.28A10.23,10.23,0,0,1-1382.07,1087Zm0-147.18a10.24,10.24,0,0,1-10.29-10.18V849.4a10.23,10.23,0,0,1,10.29-10.17,10.23,10.23,0,0,1,10.29,10.17v80.28A10.24,10.24,0,0,1-1382.07,939.86Zm0-147.19a10.24,10.24,0,0,1-10.29-10.17V702.21A10.23,10.23,0,0,1-1382.07,692a10.23,10.23,0,0,1,10.29,10.17V782.5A10.24,10.24,0,0,1-1382.07,792.67Zm0-147.19a10.23,10.23,0,0,1-10.29-10.17V555a10.24,10.24,0,0,1,10.29-10.17A10.24,10.24,0,0,1-1371.78,555v80.29A10.23,10.23,0,0,1-1382.07,645.48Zm0-147.19a10.23,10.23,0,0,1-10.29-10.17V407.84a10.23,10.23,0,0,1,10.29-10.17,10.23,10.23,0,0,1,10.29,10.17v80.28A10.23,10.23,0,0,1-1382.07,498.29Zm0-147.18a10.24,10.24,0,0,1-10.29-10.17V260.65a10.23,10.23,0,0,1,10.29-10.17,10.23,10.23,0,0,1,10.29,10.17v80.29A10.24,10.24,0,0,1-1382.07,351.11Zm0-147.19a10.23,10.23,0,0,1-10.29-10.17V113.46a10.24,10.24,0,0,1,10.29-10.17,10.24,10.24,0,0,1,10.29,10.17v80.29A10.23,10.23,0,0,1-1382.07,203.92Zm0-147.19a10.23,10.23,0,0,1-10.29-10.17V-33.72a10.24,10.24,0,0,1,10.29-10.18,10.24,10.24,0,0,1,10.29,10.18V46.56A10.23,10.23,0,0,1-1382.07,56.73Zm-.16-147.18a10.25,10.25,0,0,1-10.26-9.52,62.18,62.18,0,0,0-38.46-53.21,10.12,10.12,0,0,1-5.6-13.28,10.33,10.33,0,0,1,13.43-5.53,82.53,82.53,0,0,1,35.52,27.7,81.59,81.59,0,0,1,15.65,43,10.21,10.21,0,0,1-9.61,10.8ZM-1494-157.73h-81.23a10.24,10.24,0,0,1-10.29-10.18,10.23,10.23,0,0,1,10.29-10.17H-1494a10.23,10.23,0,0,1,10.29,10.17A10.24,10.24,0,0,1-1494-157.73Zm-148.91,0h-81.22a10.24,10.24,0,0,1-10.3-10.18,10.23,10.23,0,0,1,10.3-10.17h81.22a10.23,10.23,0,0,1,10.29,10.17A10.24,10.24,0,0,1-1642.92-157.73Zm-148.91,0H-1873a10.24,10.24,0,0,1-10.3-10.18,10.23,10.23,0,0,1,10.3-10.17h81.22a10.23,10.23,0,0,1,10.29,10.17A10.24,10.24,0,0,1-1791.83-157.73Zm-148.91,0H-2022a10.23,10.23,0,0,1-10.29-10.18A10.22,10.22,0,0,1-2022-178.08h81.22a10.23,10.23,0,0,1,10.29,10.17A10.24,10.24,0,0,1-1940.74-157.73Zm-148.91,0h-81.22a10.23,10.23,0,0,1-10.29-10.18,10.22,10.22,0,0,1,10.29-10.17h81.22a10.23,10.23,0,0,1,10.29,10.17A10.24,10.24,0,0,1-2089.65-157.73Zm-148.91,0h-81.22a10.23,10.23,0,0,1-10.29-10.18,10.22,10.22,0,0,1,10.29-10.17h81.22a10.22,10.22,0,0,1,10.29,10.17A10.23,10.23,0,0,1-2238.56-157.73Zm-148.91,0h-81.22A10.24,10.24,0,0,1-2479-167.91a10.23,10.23,0,0,1,10.29-10.17h81.22a10.22,10.22,0,0,1,10.29,10.17A10.23,10.23,0,0,1-2387.47-157.73Zm-148.91,0h-81.22a10.24,10.24,0,0,1-10.29-10.18,10.23,10.23,0,0,1,10.29-10.17h81.22a10.23,10.23,0,0,1,10.3,10.17A10.24,10.24,0,0,1-2536.38-157.73Zm-148.91,0h-81.22a10.24,10.24,0,0,1-10.29-10.18,10.23,10.23,0,0,1,10.29-10.17h81.22a10.23,10.23,0,0,1,10.3,10.17A10.24,10.24,0,0,1-2685.29-157.73Zm-148.9,0h-81.23a10.24,10.24,0,0,1-10.29-10.18,10.23,10.23,0,0,1,10.29-10.17h81.23a10.23,10.23,0,0,1,10.29,10.17A10.24,10.24,0,0,1-2834.19-157.73Zm-148.91,0h-81.23a10.24,10.24,0,0,1-10.29-10.18,10.23,10.23,0,0,1,10.29-10.17h81.23a10.23,10.23,0,0,1,10.29,10.17A10.24,10.24,0,0,1-2983.1-157.73Z" transform="translate(4717.15 2268.29)"/><path class="cls-32" d="M-3132,1221.3h-41.17a10.24,10.24,0,0,1-10.29-10.17,10.24,10.24,0,0,1,10.29-10.18H-3132a10.24,10.24,0,0,1,10.29,10.18A10.24,10.24,0,0,1-3132,1221.3Z" transform="translate(4717.15 2268.29)"/><path class="cls-33" d="M2816.71,2551.75h638a0,0,0,0,1,0,0v550.71a0,0,0,0,1,0,0h-638a94.73,94.73,0,0,1-94.73-94.73V2646.48A94.73,94.73,0,0,1,2816.71,2551.75Z"/><rect class="cls-34" x="2759.08" y="2538.63" width="779.81" height="502.54" rx="75.7"/><path class="cls-32" d="M-1214.12,732.4h-68.61a8.53,8.53,0,0,1-8.58-8.48,8.53,8.53,0,0,1,8.58-8.48h68.61a8.53,8.53,0,0,1,8.57,8.48A8.53,8.53,0,0,1-1214.12,732.4Zm-130.36,0h-68.61a8.53,8.53,0,0,1-8.58-8.48,8.53,8.53,0,0,1,8.58-8.48h68.61a8.53,8.53,0,0,1,8.57,8.48A8.53,8.53,0,0,1-1344.48,732.4Zm-130.36,0h-68.61a8.53,8.53,0,0,1-8.58-8.48,8.53,8.53,0,0,1,8.58-8.48h68.61a8.53,8.53,0,0,1,8.58,8.48A8.53,8.53,0,0,1-1474.84,732.4Zm-130.36,0h-68.61a8.53,8.53,0,0,1-8.58-8.48,8.53,8.53,0,0,1,8.58-8.48h68.61a8.53,8.53,0,0,1,8.58,8.48A8.53,8.53,0,0,1-1605.2,732.4Zm-130.36,0h-68.61a8.53,8.53,0,0,1-8.58-8.48,8.53,8.53,0,0,1,8.58-8.48h68.61a8.53,8.53,0,0,1,8.58,8.48A8.53,8.53,0,0,1-1735.56,732.4Zm-130.3-.84a9,9,0,0,1-1.53-.14c-27-4.81-46.64-26.61-46.64-51.84V675.3a8.52,8.52,0,0,1,8.58-8.47,8.52,8.52,0,0,1,8.57,8.47v4.28c0,17,13.68,31.8,32.53,35.16a8.47,8.47,0,0,1,6.92,9.84A8.55,8.55,0,0,1-1865.86,731.56Zm-39.59-108.81a8.53,8.53,0,0,1-8.58-8.48V546.45a8.53,8.53,0,0,1,8.58-8.48,8.53,8.53,0,0,1,8.57,8.48v67.82A8.53,8.53,0,0,1-1905.45,622.75Zm0-128.86a8.52,8.52,0,0,1-8.58-8.47V417.6a8.53,8.53,0,0,1,8.58-8.48,8.53,8.53,0,0,1,8.57,8.48v67.82A8.52,8.52,0,0,1-1905.45,493.89Zm.62-128.81a8.3,8.3,0,0,1-1.48-.13,8.49,8.49,0,0,1-7-9.81,51.88,51.88,0,0,1,19.64-31.78,61.06,61.06,0,0,1,37.36-12.54h1.86a8.53,8.53,0,0,1,8.57,8.48,8.53,8.53,0,0,1-8.57,8.48h-1.86c-19.81,0-37,13-40.1,30.28A8.55,8.55,0,0,1-1904.83,365.08Zm702.19-37.3h-68.61a8.53,8.53,0,0,1-8.57-8.48,8.53,8.53,0,0,1,8.57-8.48h68.61a8.53,8.53,0,0,1,8.58,8.48A8.53,8.53,0,0,1-1202.64,327.78Zm-130.36,0h-68.61a8.53,8.53,0,0,1-8.57-8.48,8.53,8.53,0,0,1,8.57-8.48H-1333a8.53,8.53,0,0,1,8.58,8.48A8.53,8.53,0,0,1-1333,327.78Zm-130.36,0H-1532a8.53,8.53,0,0,1-8.57-8.48,8.53,8.53,0,0,1,8.57-8.48h68.61a8.53,8.53,0,0,1,8.58,8.48A8.53,8.53,0,0,1-1463.36,327.78Zm-130.36,0h-68.61a8.53,8.53,0,0,1-8.57-8.48,8.53,8.53,0,0,1,8.57-8.48h68.61a8.53,8.53,0,0,1,8.58,8.48A8.53,8.53,0,0,1-1593.72,327.78Zm-130.36,0h-68.61a8.53,8.53,0,0,1-8.57-8.48,8.53,8.53,0,0,1,8.57-8.48h68.61a8.53,8.53,0,0,1,8.58,8.48A8.53,8.53,0,0,1-1724.08,327.78Z" transform="translate(4717.15 2268.29)"/><path class="cls-33" d="M-1542.15,575c0,81.81-67.1,148.14-149.86,148.14S-1841.88,656.79-1841.88,575s67.11-148.13,149.87-148.13S-1542.15,493.18-1542.15,575Z" transform="translate(4717.15 2268.29)"/><path class="cls-35" d="M-1547.88,521.6c0,81.82-67.09,148.14-149.86,148.14S-1847.6,603.42-1847.6,521.6s67.1-148.12,149.86-148.12S-1547.88,439.8-1547.88,521.6Z" transform="translate(4717.15 2268.29)"/><path class="cls-36" d="M-1629.41,390.07l-213.81,165.2a147.89,147.89,0,0,0,55.91,85l228-176.15A149.28,149.28,0,0,0-1629.41,390.07Z" transform="translate(4717.15 2268.29)"/></svg>