<svg id="Layer_1" data-name="Layer 1" xmlns="http://www.w3.org/2000/svg" xmlns:xlink="http://www.w3.org/1999/xlink" viewBox="0 0 3230.62 2638"><defs><style>.cls-1{fill:url(#linear-gradient);}.cls-2{fill:url(#linear-gradient-2);}.cls-3{fill:url(#linear-gradient-3);}.cls-4{fill:#fff;}</style><linearGradient id="linear-gradient" x1="715.69" y1="1750.84" x2="3946.31" y2="1750.84" gradientUnits="userSpaceOnUse"><stop offset="0" stop-color="#00e6ff"/><stop offset="1" stop-color="#0090d4"/></linearGradient><linearGradient id="linear-gradient-2" x1="3007.66" y1="3118.47" x2="3474.71" y2="3118.47" gradientTransform="translate(3154.42 -1378.48) rotate(45)" xlink:href="#linear-gradient"/><linearGradient id="linear-gradient-3" x1="1811.89" y1="3118.47" x2="2278.94" y2="3118.47" gradientTransform="translate(2804.18 -532.95) rotate(45)" xlink:href="#linear-gradient"/></defs><path class="cls-1" d="M3946.28,1216.1v0c-.5-63.39-54-114.67-120-114.75l-2318.16-2.64L1433.25,804.8a114.13,114.13,0,0,0-32.59-55,122.18,122.18,0,0,0-85.17-34.41L836.21,714h-.36c-66.2,0-120,51.56-120.16,115.32s53.45,115.8,119.82,116l386.36,1.08,441.87,1734.35a114.13,114.13,0,0,0,7.64,21c14.55,48,60.56,83.16,115.16,83.25l1713.13,2.69h.2c66.27,0,120.05-51.66,120.16-115.46s-53.6-115.74-120-115.85l-1621.2-2.54-35.64-139.89L3587.82,2206a122.3,122.3,0,0,0,13.27-2.16l.84-.18c1.5-.34,3-.71,4.47-1.1l1.4-.36c1.31-.37,2.6-.76,3.89-1.16,1.56-.49,3.1-1,4.64-1.55l1.25-.44c1.27-.47,2.52-1,3.77-1.47l.83-.34c1.34-.55,2.66-1.13,4-1.73l.27-.12a121.16,121.16,0,0,0,15.89-8.8l.81-.53c1-.66,1.95-1.33,2.91-2,.53-.37,1.06-.75,1.58-1.14.79-.58,1.57-1.15,2.33-1.75s1.64-1.3,2.45-2c.48-.39,1-.77,1.44-1.17a115.61,115.61,0,0,0,27.81-34.36l.47-.91c.61-1.17,1.2-2.35,1.77-3.55.32-.67.63-1.35.93-2s.71-1.59,1-2.4.81-1.92,1.19-2.88c.18-.46.35-.92.52-1.38q1.74-4.59,3.08-9.33l251.29-870.63a111.74,111.74,0,0,0,4.36-32.94c0-.19,0-.38,0-.57S3946.29,1216.43,3946.28,1216.1Zm-346.94,340.78-378.05,24.39V1306.06l447.57.53ZM2575.06,1813.23v352.32l-402.17,49.79V1839.17Zm-402.17-176.34V1292.82l402.17.47V1611Zm524.2,172.47,402.17-25.94v321.22l-402.17,49.8Zm0-197.28V1302.44l402.17.47v283.23Zm-646.23-328.41v352.09L1659.73,1661l-92.66-377.89ZM1785.59,2262.3l-96.34-381.65L2050.86,1858v372.4Zm1435.7-178.77v-314l343.46-22.15-84.46,304.06Z" transform="translate(-715.69 -714)"/><circle class="cls-2" cx="3241.19" cy="3118.47" r="233.53" transform="translate(-1971.46 2491.24) rotate(-45)"/><circle class="cls-3" cx="2045.42" cy="3118.47" r="233.53" transform="translate(-2321.69 1645.71) rotate(-45)"/><ellipse class="cls-4" cx="1330.22" cy="2403.98" rx="111.91" ry="112.98"/><ellipse class="cls-4" cx="2525.88" cy="2404.43" rx="111.91" ry="112.98"/></svg>