<svg xmlns="http://www.w3.org/2000/svg" xmlns:xlink="http://www.w3.org/1999/xlink" viewBox="0 0 1500 1500"><defs><style>.cls-1{isolation:isolate;}.cls-2{fill:#fff;}.cls-3{fill:#d7d8da;mix-blend-mode:multiply;}.cls-4{fill:#2c292a;}.cls-5{fill:url(#linear-gradient);}.cls-6{fill:url(#New_Gradient_Swatch_1);}.cls-7{fill:url(#linear-gradient-2);}.cls-8{fill:url(#linear-gradient-3);}.cls-9{fill:#85878a;}.cls-10{fill:#989a9d;}.cls-11{fill:url(#linear-gradient-4);}.cls-12{fill:#dfe0e1;}.cls-13{fill:#8a8c8f;}.cls-14{fill:url(#linear-gradient-5);}.cls-15{fill:url(#linear-gradient-6);}.cls-16{fill:#f3c04c;}.cls-17{fill:#3b8a3e;}.cls-18{fill:#c45d18;}.cls-19{fill:url(#radial-gradient);}.cls-20{fill:#4b2107;}.cls-21{fill:url(#radial-gradient-2);}.cls-22{fill:url(#radial-gradient-3);}.cls-23{fill:url(#linear-gradient-7);}.cls-24{fill:#515254;}.cls-25{fill:url(#linear-gradient-8);}.cls-26{fill:url(#linear-gradient-9);}.cls-27{fill:#eea048;}.cls-28{fill:#924d24;}.cls-29{fill:#231f20;}.cls-30{fill:url(#linear-gradient-10);}.cls-31{fill:url(#radial-gradient-4);}.cls-32{fill:url(#radial-gradient-5);}.cls-33{fill:url(#linear-gradient-11);}.cls-34{fill:url(#linear-gradient-12);}.cls-35{fill:#616264;}.cls-36{opacity:0.57;}.cls-37{fill:#dddbc9;}.cls-38{fill:#babaac;}.cls-39{opacity:0.44;}</style><linearGradient id="linear-gradient" x1="177.12" y1="399.76" x2="247.55" y2="454.81" gradientUnits="userSpaceOnUse"><stop offset="0" stop-color="#545454"/><stop offset="1" stop-color="#454547"/></linearGradient><linearGradient id="New_Gradient_Swatch_1" x1="142.9" y1="820.55" x2="1037.89" y2="820.55" gradientUnits="userSpaceOnUse"><stop offset="0" stop-color="#616161"/><stop offset="0.17" stop-color="#e2e3e4"/><stop offset="1" stop-color="#4d4d4d"/></linearGradient><linearGradient id="linear-gradient-2" x1="137" y1="475.23" x2="1036.4" y2="475.23" gradientUnits="userSpaceOnUse"><stop offset="0" stop-color="#4a4a4c"/><stop offset="0.23" stop-color="#a0a2a4"/><stop offset="1" stop-color="#4a4a4c"/></linearGradient><linearGradient id="linear-gradient-3" x1="136.36" y1="480.62" x2="1045.04" y2="480.62" gradientUnits="userSpaceOnUse"><stop offset="0" stop-color="#949494"/><stop offset="0.12" stop-color="#e2e3e4"/><stop offset="0.37" stop-color="#dfe0e1"/><stop offset="0.53" stop-color="#d7d8d9"/><stop offset="0.66" stop-color="#c9cacb"/><stop offset="0.78" stop-color="#b5b6b6"/><stop offset="0.88" stop-color="#9b9b9c"/><stop offset="0.98" stop-color="#7c7c7c"/><stop offset="1" stop-color="#757575"/></linearGradient><linearGradient id="linear-gradient-4" x1="1019.17" y1="1026.17" x2="1019.17" y2="1362.83" gradientUnits="userSpaceOnUse"><stop offset="0" stop-color="#d9dbdc"/><stop offset="0.34" stop-color="#cbcdce"/><stop offset="0.98" stop-color="#a5a8aa"/><stop offset="1" stop-color="#a4a7a9"/></linearGradient><linearGradient id="linear-gradient-5" x1="1019.39" y1="938.73" x2="1019.39" y2="1100.76" gradientUnits="userSpaceOnUse"><stop offset="0" stop-color="#909295"/><stop offset="0.51" stop-color="#a4a6a9"/><stop offset="1" stop-color="#b2b4b7"/></linearGradient><linearGradient id="linear-gradient-6" x1="1019.39" y1="983.99" x2="1019.39" y2="1120.7" gradientUnits="userSpaceOnUse"><stop offset="0" stop-color="#c45d18"/><stop offset="1" stop-color="#f1a01a"/></linearGradient><radialGradient id="radial-gradient" cx="-311.15" cy="-492.62" r="10.75" gradientTransform="translate(2675.78 4172.57) scale(5.55 6.31)" gradientUnits="userSpaceOnUse"><stop offset="0" stop-color="#c17714"/><stop offset="0.29" stop-color="#99550c"/><stop offset="0.59" stop-color="#783906"/><stop offset="0.84" stop-color="#632701"/><stop offset="1" stop-color="#5c2100"/></radialGradient><radialGradient id="radial-gradient-2" cx="-3050.28" cy="-5839.07" r="10.75" gradientTransform="translate(11844.54 23788.27) scale(3.55 3.9)" xlink:href="#radial-gradient"/><radialGradient id="radial-gradient-3" cx="-1181" cy="-5178.56" r="10.89" gradientTransform="translate(6652.35 22248.78) scale(4.67 4.09)" xlink:href="#radial-gradient"/><linearGradient id="linear-gradient-7" x1="1019.24" y1="1141.07" x2="1019.24" y2="921.47" gradientUnits="userSpaceOnUse"><stop offset="0" stop-color="#fff"/><stop offset="0.57" stop-color="#f1f1f2"/><stop offset="1" stop-color="#e3e4e5"/></linearGradient><linearGradient id="linear-gradient-8" x1="1259.58" y1="914.53" x2="1275.77" y2="926.09" gradientUnits="userSpaceOnUse"><stop offset="0.01" stop-color="#adafb1"/><stop offset="0.99" stop-color="#fff"/></linearGradient><linearGradient id="linear-gradient-9" x1="595.95" y1="453.26" x2="595.95" y2="572.5" gradientUnits="userSpaceOnUse"><stop offset="0" stop-color="#c45d18"/><stop offset="1" stop-color="#ef901d"/></linearGradient><linearGradient id="linear-gradient-10" x1="933.47" y1="562.75" x2="1009.74" y2="622.36" gradientUnits="userSpaceOnUse"><stop offset="0" stop-color="#454547"/><stop offset="1" stop-color="#545454"/></linearGradient><radialGradient id="radial-gradient-4" cx="763.85" cy="726.68" r="1.83" gradientTransform="translate(-4558.52 -4718.29) scale(7.14 7.41)" gradientUnits="userSpaceOnUse"><stop offset="0" stop-color="#87898b"/><stop offset="0.65" stop-color="#636466"/><stop offset="1" stop-color="#555658"/></radialGradient><radialGradient id="radial-gradient-5" cx="775.89" cy="722.72" r="1.67" xlink:href="#radial-gradient-4"/><linearGradient id="linear-gradient-11" x1="849.56" y1="657.85" x2="1088.9" y2="657.85" gradientUnits="userSpaceOnUse"><stop offset="0" stop-color="#58595b"/><stop offset="1"/></linearGradient><linearGradient id="linear-gradient-12" x1="1193.1" y1="134.41" x2="881.08" y2="485.55" gradientUnits="userSpaceOnUse"><stop offset="0" stop-color="#616161"/><stop offset="0.17" stop-color="#e2e3e4"/><stop offset="1" stop-color="#808184"/></linearGradient></defs><g class="cls-1"><g id="ƒŒƒCƒ__6" data-name="ƒŒƒCƒ„[_6"><rect class="cls-2" width="1500" height="1500" rx="418.14"/><ellipse class="cls-3" cx="607.07" cy="1056.16" rx="121.38" ry="430.18" transform="translate(-467.19 1634.01) rotate(-88.64)"/><path class="cls-4" d="M392.93,436.81,273.67,393.64a46.45,46.45,0,0,0-29.81-.26l-133,43.76a7,7,0,0,0-5.44,6.73l-.39,17.3a7.06,7.06,0,0,0,4.24,6.69L162.63,495l9.48,17.22A19.66,19.66,0,0,0,184,530.69L324,588.85c7.14,3,14.91-2.59,14.7-10.57l-2.78-107.37C335.75,463.74,399.48,439.09,392.93,436.81Z" transform="translate(-4 -4)"/><path class="cls-5" d="M113.35,437.9l138-45.22a37.47,37.47,0,0,1,15.74-.47l37.3,14.84a3,3,0,0,1,.48,5.59L184.59,463.45a22.3,22.3,0,0,1-14.77.74L113.46,442C110,440.93,109.93,439,113.35,437.9Z" transform="translate(-4 -4)"/><path class="cls-6" d="M142.9,491.07,166.39,552,177,1026.37C177,1084.74,362.21,1150,590.7,1150s413.72-65.29,413.72-123.66l2.93-479.28,30.54-56Z" transform="translate(-4 -4)"/><ellipse class="cls-3" cx="1032.77" cy="1336.78" rx="198.72" ry="65.22"/><ellipse class="cls-7" cx="586.7" cy="475.23" rx="449.7" ry="105.7"/><path class="cls-8" d="M1026.91,480.86c-3.09,48.43-105.73,62.69-138.73,69.81C788.09,572.28,684,576.94,582.09,576.58c-97.68-.34-196.3-7.74-292-28.41-35.3-7.62-126.35-22.34-135.37-69.45-8.66-45.15,114-65.64,138.55-70.93,100.09-21.61,204.18-26.27,306.09-25.91,97.68.34,196.3,7.74,292.05,28.41,33.68,7.27,132.45,23.59,135.58,72.68.62,9.72,27.63,3.72,26.91-7.48-2.6-40.86-65.53-58-95.11-67.54C876.63,381.46,788,373.44,702.62,368.23a1791,1791,0,0,0-314.56,8.67c-70.26,8.14-144.42,20-209.19,50.85-22.8,10.88-65.64,37.68-47.08,69.83,24,41.67,91.63,54.34,132.77,64.28,187.05,45.23,394.85,42.34,583.76,11.88,50.43-8.13,101.41-19.4,148.49-40.31,22-9.78,55.26-27.32,57.07-55.83C1054.65,465.58,1027.54,471,1026.91,480.86Z" transform="translate(-4 -4)"/><path class="cls-9" d="M1004.3,539.31l-8.17,5.18c-5.15,3.45-13.65,8.1-24.36,13.38a415.78,415.78,0,0,1-39.53,16.57C916.72,580.07,899,586,879.44,591c-19.52,5.44-40.9,10.19-63.62,14.64-22.76,4.15-46.82,8.28-71.87,11.07q-18.76,2.37-38.17,4c-12.9,1.41-26,2.06-39.21,2.89s-26.52,1.13-39.89,1.72c-13.39.21-26.77.55-40.26.56-26.66-.19-53.68-1-80-2.34s-52.29-3.75-77.32-6.45-49.15-6.3-71.93-10.29-44.19-8.63-63.82-13.6c-39.27-9.85-71.23-21.76-92.7-32.32a209.8,209.8,0,0,1-24.28-13.69c-5.39-3.57-8.16-5.66-8.16-5.66a3.94,3.94,0,0,1-.84-5.36,3.63,3.63,0,0,1,4.82-1.1s2.84,1.65,8.32,4.42A251.08,251.08,0,0,0,205.05,550c21.54,8,53.39,16.65,92.29,23.83,19.45,3.58,40.66,6.74,63.14,9.71s46.33,5.11,71,7.24,50.24,3.37,76.21,4.49,52.28,1.62,78.87,1.56l39.5-.26c13.13-.45,26.22-.62,39.19-1.31,25.92-1.41,51.48-2.56,76.09-5,24.64-2.21,48.37-5.06,70.85-8,22.4-3.45,43.6-6.75,63-10.72l14.23-2.9,13.5-3.15c8.83-1.87,17-4.15,24.83-6.19,15.49-4.24,28.83-8.49,39.68-12.4,10.72-4.13,19-7.15,24.71-10.1l8.72-4.14a3.63,3.63,0,0,1,4.91,1.87A3.93,3.93,0,0,1,1004.3,539.31Z" transform="translate(-4 -4)"/><path class="cls-10" d="M1005.29,1034.93l-7.17,6.78a239,239,0,0,1-22.2,17.69c-19.8,14.13-50.13,31.19-88.54,46.07a601.8,601.8,0,0,1-63,20.77,720.55,720.55,0,0,1-72,16.09c-25.2,4.33-51.39,8.05-78.14,10s-53.91,3.34-81.24,3.26c-26.88-.24-54.38-1.37-81-3.35S459.2,1146.86,434,1143s-49.43-9.08-72.19-14.83a604,604,0,0,1-63.36-19.45c-38.7-14.11-69.37-30.78-89.16-45.14a198,198,0,0,1-21.93-18.13c-4.71-4.63-7.11-7.21-7.11-7.21a4.67,4.67,0,0,1,.12-6.42,4.27,4.27,0,0,1,5.64-.38l.16.13,7.53,5.79a234.12,234.12,0,0,0,22.67,14.22c20.13,11.25,50.76,23.89,88.88,34.67,19,5.43,40,10.16,62.26,14.63s46,7.9,70.59,11.05,50.16,5.19,76.15,6.87,52.24,2.45,79,2.4c26.29.2,52.78-.57,78.68-2.37s51.42-4.11,75.93-7.64,48.12-7.47,70.31-12.29,43-10.13,62-15.9c37.92-11.57,68.46-24.58,88.78-35.69,10.14-5.58,18-10.36,23-13.77l7.94-5.64,0,0A4.28,4.28,0,0,1,1006,1029,4.65,4.65,0,0,1,1005.29,1034.93Z" transform="translate(-4 -4)"/><path class="cls-11" d="M703.82,1020.22a265.2,265.2,0,0,0-2.34,34.46c0,100.67,56.53,189.28,142.23,241.08v35.81h.91c1.62,30.18,79.32,54.48,175,54.48s173.35-24.3,175-54.48h.07v-35.81c85.69-51.8,142.21-140.41,142.21-241.08a267,267,0,0,0-2.32-34.46Z" transform="translate(-4 -4)"/><path class="cls-12" d="M723.29,1087.25q-.37,6.18-.59,12.83c.22,4.45.85,9.17,1.43,14.13.8,4.85,2.11,9.59,3.31,14.65s3.24,9.82,5,14.94c7.77,20,19.62,40.26,34.46,59.21a256.09,256.09,0,0,0,48.2,47.44c16.75,12.37,34,21.49,49.84,24.49-13.42-8.9-26.61-21.5-40.51-35.92s-28.14-31-42.23-48.91C754.25,1154,731.54,1119.23,723.29,1087.25Z" transform="translate(-4 -4)"/><path class="cls-13" d="M857.26,1304.27c18,13.35,42.27,25.61,70.09,34a321,321,0,0,0,92.7,13.44c33.19,0,65-4.87,92.83-14.07s51.88-22.94,67.5-39.74c-20.29,9.84-44.75,16.18-71.91,20.46s-57.07,6.3-88.42,6.3a685.6,685.6,0,0,1-88.75-5.77A570.17,570.17,0,0,1,857.26,1304.27Z" transform="translate(-4 -4)"/><path class="cls-14" d="M1332.21,1023.89c0,48.63-140,88.05-312.81,88.05s-312.84-39.42-312.84-88.05,140.06-88,312.84-88S1332.21,975.28,1332.21,1023.89Z" transform="translate(-4 -4)"/><path class="cls-15" d="M727.06,1055.85c46.71,43.54,160,74.28,292.34,74.28s245.62-30.74,292.33-74.28c-46.71-43.53-160-74.28-292.33-74.28S773.77,1012.32,727.06,1055.85Z" transform="translate(-4 -4)"/><path class="cls-16" d="M932.71,1041.73c0,2.75-6.2,5-13.87,5s-13.87-2.23-13.87-5,6.21-5,13.87-5S932.71,1039,932.71,1041.73Z" transform="translate(-4 -4)"/><path class="cls-16" d="M849.72,1062.21c0,2.76-6.21,5-13.87,5s-13.88-2.23-13.88-5,6.21-5,13.88-5S849.72,1059.46,849.72,1062.21Z" transform="translate(-4 -4)"/><path class="cls-16" d="M994.87,1072.19c0,2.76-6.21,5-13.88,5s-13.87-2.23-13.87-5,6.21-5,13.87-5S994.87,1069.44,994.87,1072.19Z" transform="translate(-4 -4)"/><path class="cls-16" d="M956.39,1068.1c0,2.75-6.21,5-13.87,5s-13.87-2.22-13.87-5,6.21-5,13.87-5S956.39,1065.35,956.39,1068.1Z" transform="translate(-4 -4)"/><path class="cls-16" d="M1033.27,1041.73c0,2.75-6.22,5-13.88,5s-13.88-2.23-13.88-5,6.22-5,13.88-5S1033.27,1039,1033.27,1041.73Z" transform="translate(-4 -4)"/><path class="cls-16" d="M1023.56,1087.39c0,2.76-6.22,5-13.88,5s-13.87-2.23-13.87-5,6.21-5,13.87-5S1023.56,1084.63,1023.56,1087.39Z" transform="translate(-4 -4)"/><path class="cls-16" d="M970.08,1097.11c0,2.76-6.22,5-13.88,5s-13.87-2.23-13.87-5,6.21-5,13.87-5S970.08,1094.36,970.08,1097.11Z" transform="translate(-4 -4)"/><path class="cls-16" d="M1015.5,1059.28c0,2.75-6.21,5-13.87,5s-13.88-2.23-13.88-5,6.22-5,13.88-5S1015.5,1056.53,1015.5,1059.28Z" transform="translate(-4 -4)"/><path class="cls-16" d="M1069.07,1044c0,2.75-6.22,5-13.88,5s-13.87-2.23-13.87-5,6.21-5,13.87-5S1069.07,1041.21,1069.07,1044Z" transform="translate(-4 -4)"/><path class="cls-16" d="M1119.47,1100.93c0,2.75-6.22,5-13.88,5s-13.87-2.23-13.87-5,6.21-5,13.87-5S1119.47,1098.18,1119.47,1100.93Z" transform="translate(-4 -4)"/><path class="cls-16" d="M1245.59,1084.43c0,2.75-6.21,5-13.88,5s-13.87-2.23-13.87-5,6.21-5,13.87-5S1245.59,1081.67,1245.59,1084.43Z" transform="translate(-4 -4)"/><path class="cls-16" d="M924.77,1104.75c0,2.75-6.21,5-13.87,5s-13.87-2.22-13.87-5,6.21-5,13.87-5S924.77,1102,924.77,1104.75Z" transform="translate(-4 -4)"/><path class="cls-16" d="M836.61,1079.34c0,2.75-6.21,5-13.88,5s-13.87-2.23-13.87-5,6.21-5,13.87-5S836.61,1076.59,836.61,1079.34Z" transform="translate(-4 -4)"/><path class="cls-16" d="M1100.46,1063.12c0,2.75-6.21,5-13.88,5s-13.87-2.23-13.87-5,6.21-5,13.87-5S1100.46,1060.35,1100.46,1063.12Z" transform="translate(-4 -4)"/><path class="cls-16" d="M1153.12,1078.35c0,2.75-6.21,5-13.88,5s-13.87-2.23-13.87-5,6.21-5,13.87-5S1153.12,1075.6,1153.12,1078.35Z" transform="translate(-4 -4)"/><path class="cls-16" d="M1035.82,1066.94c0,2.75-6.22,5-13.88,5s-13.87-2.24-13.87-5,6.21-5,13.87-5S1035.82,1064.19,1035.82,1066.94Z" transform="translate(-4 -4)"/><path class="cls-16" d="M1126.32,1028.64c0,2.75-6.21,5-13.87,5s-13.88-2.23-13.88-5,6.21-5,13.88-5S1126.32,1025.89,1126.32,1028.64Z" transform="translate(-4 -4)"/><path class="cls-16" d="M1096.77,1078.43c0,2.76-6.22,5-13.88,5s-13.87-2.23-13.87-5,6.21-5,13.87-5S1096.77,1075.68,1096.77,1078.43Z" transform="translate(-4 -4)"/><path class="cls-16" d="M1058.82,1061.14c0,1.93-4.34,3.48-9.69,3.48s-9.7-1.55-9.7-3.48,4.34-3.48,9.7-3.48S1058.82,1059.23,1058.82,1061.14Z" transform="translate(-4 -4)"/><path class="cls-16" d="M914.67,1076.13c0,1.91-4.35,3.47-9.7,3.47s-9.7-1.56-9.7-3.47,4.35-3.49,9.7-3.49S914.67,1074.2,914.67,1076.13Z" transform="translate(-4 -4)"/><path class="cls-16" d="M1090.84,1036.75c0,1.92-4.35,3.48-9.7,3.48s-9.7-1.56-9.7-3.48,4.34-3.48,9.7-3.48S1090.84,1034.82,1090.84,1036.75Z" transform="translate(-4 -4)"/><path class="cls-16" d="M1167,1056.53c0,1.92-4.34,3.48-9.69,3.48s-9.7-1.56-9.7-3.48,4.34-3.48,9.7-3.48S1167,1054.61,1167,1056.53Z" transform="translate(-4 -4)"/><path class="cls-16" d="M1132.43,1054.28c0,1.92-4.34,3.47-9.7,3.47s-9.69-1.55-9.69-3.47,4.34-3.48,9.69-3.48S1132.43,1052.35,1132.43,1054.28Z" transform="translate(-4 -4)"/><path class="cls-16" d="M1142.13,1097.11c0,1.93-4.35,3.48-9.7,3.48s-9.7-1.55-9.7-3.48,4.35-3.48,9.7-3.48S1142.13,1095.2,1142.13,1097.11Z" transform="translate(-4 -4)"/><path class="cls-16" d="M1144.49,1040c0,1.92-4.34,3.48-9.7,3.48s-9.69-1.56-9.69-3.48,4.34-3.48,9.69-3.48S1144.49,1038.06,1144.49,1040Z" transform="translate(-4 -4)"/><path class="cls-16" d="M976.82,1046.71c0,1.92-4.34,3.48-9.7,3.48s-9.69-1.56-9.69-3.48,4.34-3.47,9.69-3.47S976.82,1044.8,976.82,1046.71Z" transform="translate(-4 -4)"/><path class="cls-16" d="M859.67,1036.84c0,1.92-4.34,3.48-9.7,3.48s-9.7-1.56-9.7-3.48,4.35-3.49,9.7-3.49S859.67,1034.92,859.67,1036.84Z" transform="translate(-4 -4)"/><path class="cls-16" d="M1249.9,1056.53c0,1.92-4.34,3.48-9.7,3.48s-9.69-1.56-9.69-3.48,4.34-3.48,9.69-3.48S1249.9,1054.61,1249.9,1056.53Z" transform="translate(-4 -4)"/><path class="cls-16" d="M1194.61,1033.35c0,1.93-4.35,3.49-9.7,3.49s-9.7-1.56-9.7-3.49,4.35-3.47,9.7-3.47S1194.61,1031.43,1194.61,1033.35Z" transform="translate(-4 -4)"/><path class="cls-16" d="M1017.83,1112.36c0,2.75-6.21,5-13.87,5s-13.88-2.23-13.88-5,6.22-5,13.88-5S1017.83,1109.6,1017.83,1112.36Z" transform="translate(-4 -4)"/><path class="cls-16" d="M1072.93,1106c0,2.75-6.21,5-13.88,5s-13.87-2.22-13.87-5,6.21-5,13.87-5S1072.93,1103.26,1072.93,1106Z" transform="translate(-4 -4)"/><ellipse class="cls-16" cx="1089.27" cy="1048.06" rx="6.69" ry="2.46"/><path class="cls-16" d="M1179.06,1089.5c0,1.36-3,2.46-6.69,2.46s-6.69-1.1-6.69-2.46,3-2.46,6.69-2.46S1179.06,1088.14,1179.06,1089.5Z" transform="translate(-4 -4)"/><path class="cls-16" d="M981.5,1020.22c0,1.35-3,2.46-6.69,2.46s-6.68-1.11-6.68-2.46,3-2.46,6.68-2.46S981.5,1018.86,981.5,1020.22Z" transform="translate(-4 -4)"/><path class="cls-16" d="M1019.35,1011.16c0,1.34-3,2.46-6.69,2.46s-6.69-1.12-6.69-2.46,3-2.47,6.69-2.47S1019.35,1009.79,1019.35,1011.16Z" transform="translate(-4 -4)"/><path class="cls-16" d="M896.76,1009.51c0,1.35-3,2.46-6.68,2.46s-6.69-1.11-6.69-2.46,3-2.46,6.69-2.46S896.76,1008.15,896.76,1009.51Z" transform="translate(-4 -4)"/><path class="cls-16" d="M951.8,1015.28c0,1.35-3,2.46-6.69,2.46s-6.69-1.11-6.69-2.46,3-2.46,6.69-2.46S951.8,1013.92,951.8,1015.28Z" transform="translate(-4 -4)"/><path class="cls-16" d="M883.25,1027.64c0,1.35-3,2.46-6.69,2.46s-6.69-1.11-6.69-2.46,3-2.47,6.69-2.47S883.25,1026.27,883.25,1027.64Z" transform="translate(-4 -4)"/><path class="cls-16" d="M873.45,1079.69c0,1.36-3,2.47-6.68,2.47s-6.69-1.11-6.69-2.47,3-2.46,6.69-2.46S873.45,1078.33,873.45,1079.69Z" transform="translate(-4 -4)"/><path class="cls-16" d="M879.62,1052.67c0,1.36-3,2.47-6.68,2.47s-6.69-1.11-6.69-2.47,3-2.46,6.69-2.46S879.62,1051.31,879.62,1052.67Z" transform="translate(-4 -4)"/><path class="cls-16" d="M1029.29,1026.6c0,1.36-3,2.46-6.69,2.46s-6.69-1.1-6.69-2.46,3-2.46,6.69-2.46S1029.29,1025.24,1029.29,1026.6Z" transform="translate(-4 -4)"/><path class="cls-16" d="M985.57,1029.69c0,1.36-3,2.46-6.68,2.46s-6.69-1.1-6.69-2.46,3-2.46,6.69-2.46S985.57,1028.33,985.57,1029.69Z" transform="translate(-4 -4)"/><path class="cls-16" d="M802.77,1039c0,1.35-3,2.46-6.69,2.46s-6.69-1.11-6.69-2.46,3-2.46,6.69-2.46S802.77,1037.61,802.77,1039Z" transform="translate(-4 -4)"/><path class="cls-16" d="M771,1048.24c0,1.36-3,2.46-6.69,2.46s-6.68-1.1-6.68-2.46,3-2.46,6.68-2.46S771,1046.88,771,1048.24Z" transform="translate(-4 -4)"/><path class="cls-16" d="M1213.08,1023.52c0,1.35-3,2.46-6.68,2.46s-6.69-1.11-6.69-2.46,3-2.46,6.69-2.46S1213.08,1022.16,1213.08,1023.52Z" transform="translate(-4 -4)"/><path class="cls-16" d="M1236.93,1044.12c0,1.35-3,2.46-6.69,2.46s-6.68-1.11-6.68-2.46,3-2.46,6.68-2.46S1236.93,1042.76,1236.93,1044.12Z" transform="translate(-4 -4)"/><path class="cls-16" d="M1274.68,1045.15c0,1.36-3,2.46-6.69,2.46s-6.69-1.1-6.69-2.46,3-2.46,6.69-2.46S1274.68,1043.79,1274.68,1045.15Z" transform="translate(-4 -4)"/><path class="cls-16" d="M806.81,1056.53c0,1.36-3,2.47-6.69,2.47s-6.69-1.11-6.69-2.47,3-2.46,6.69-2.46S806.81,1055.17,806.81,1056.53Z" transform="translate(-4 -4)"/><path class="cls-16" d="M1208.88,1049.6c0,1.35-3,2.46-6.69,2.46s-6.69-1.11-6.69-2.46,3-2.46,6.69-2.46S1208.88,1048.24,1208.88,1049.6Z" transform="translate(-4 -4)"/><path class="cls-16" d="M1181.9,1077.17c0,1.36-3,2.46-6.69,2.46s-6.68-1.1-6.68-2.46,3-2.46,6.68-2.46S1181.9,1075.81,1181.9,1077.17Z" transform="translate(-4 -4)"/><path class="cls-16" d="M1243.45,1033.35c0,1.36-3,2.46-6.69,2.46s-6.69-1.1-6.69-2.46,3-2.45,6.69-2.45S1243.45,1032,1243.45,1033.35Z" transform="translate(-4 -4)"/><path class="cls-17" d="M819.46,1050.33c-11.37,0-21.08,3.05-25.06,7.38,4,4.32,13.69,7.37,25.06,7.37s21.08-3,25.07-7.37C840.54,1053.38,830.83,1050.33,819.46,1050.33Z" transform="translate(-4 -4)"/><path class="cls-17" d="M841,1038.85c-3.83-7.33-9.62-12.17-14.53-12.74-2.22,4.57-1.47,12.25,2.36,19.57s9.61,12.2,14.52,12.75C845.53,1053.86,844.78,1046.19,841,1038.85Z" transform="translate(-4 -4)"/><path class="cls-17" d="M857.82,1048.4c4.64-6.81,6.27-14.34,4.59-19.15-4.93,0-11.24,4.06-15.89,10.86s-6.26,14.33-4.58,19.15C846.88,1059.31,853.18,1055.2,857.82,1048.4Z" transform="translate(-4 -4)"/><path class="cls-17" d="M1104.49,1034.82c-10-5.72-19.86-7.9-25.36-6.12,1.46,5.78,8.53,13.32,18.48,19s19.87,7.9,25.38,6.13C1121.51,1048.07,1114.44,1040.53,1104.49,1034.82Z" transform="translate(-4 -4)"/><path class="cls-17" d="M1128.66,1035.57c.08-8.34-2.73-15.49-6.76-18.45-4.08,2.89-7,10-7.07,18.33s2.73,15.49,6.76,18.43C1125.66,1051,1128.59,1043.9,1128.66,1035.57Z" transform="translate(-4 -4)"/><path class="cls-17" d="M1139,1052.39c7.25-3.64,12.17-9.41,13-14.48-4.3-2.49-11.73-2.07-19,1.55s-12.16,9.41-12.94,14.45C1124.3,1056.43,1131.73,1056,1139,1052.39Z" transform="translate(-4 -4)"/><path class="cls-18" d="M897.66,1091.7l116.72-.11s-17,20.18-54,21.06C915.24,1113.73,897.66,1091.7,897.66,1091.7Z" transform="translate(-4 -4)"/><path class="cls-19" d="M1013.14,1089c-1.17-3.25-3.26-5.68-4.9-8.68s-2.27-6.55-4.31-9.2-3.76-5.61-6.13-7.89-4.55-4.94-7.19-6.81-6.4-1-9.27-2.45-4.52-6.49-7.53-7.45-6.32-1.14-9.42-1.62a65.47,65.47,0,0,0-9.45-.87c-3.14,0-6.27,1.75-9.3,2.23s-6.7-1-9.64,0-5.53,4.1-8.34,5.5-4.71,4.86-7.32,6.7-7.34.69-9.67,2.93-4.36,5.49-6.39,8.14-3.27,6.29-4.9,9.24-.64,7.41-1.84,10.67a9.94,9.94,0,0,1-1.13,2.19,382,382,0,0,0,59.79,5.52c35.89.58,58.12-5.52,58.12-5.52A22.5,22.5,0,0,1,1013.14,1089Z" transform="translate(-4 -4)"/><path class="cls-20" d="M939.48,1066c0,3-2.75,5.4-6.16,5.4s-6.16-2.42-6.16-5.4,2.77-5.4,6.16-5.4S939.48,1063.05,939.48,1066Z" transform="translate(-4 -4)"/><path class="cls-20" d="M926.35,1076.56c0,3-2.74,5.4-6.16,5.4s-6.16-2.42-6.16-5.4,2.76-5.39,6.16-5.39S926.35,1073.59,926.35,1076.56Z" transform="translate(-4 -4)"/><path class="cls-20" d="M964.19,1070.61c0,3-2.75,5.44-6.16,5.44s-6.16-2.43-6.16-5.44,2.76-5.37,6.16-5.37S964.19,1067.65,964.19,1070.61Z" transform="translate(-4 -4)"/><path class="cls-20" d="M961.88,1052.93c0,3-2.75,5.41-6.17,5.41s-6.16-2.43-6.16-5.41,2.77-5.4,6.16-5.4S961.88,1049.94,961.88,1052.93Z" transform="translate(-4 -4)"/><path class="cls-20" d="M984.26,1069.6c0,3-2.75,5.43-6.17,5.43s-6.15-2.42-6.15-5.43,2.75-5.38,6.15-5.38S984.26,1066.63,984.26,1069.6Z" transform="translate(-4 -4)"/><path class="cls-20" d="M948.75,1064.48a3.09,3.09,0,1,1-3.07-3.36A3.23,3.23,0,0,1,948.75,1064.48Z" transform="translate(-4 -4)"/><path class="cls-20" d="M972.69,1057.32a3.1,3.1,0,1,1-3.09-3.38A3.25,3.25,0,0,1,972.69,1057.32Z" transform="translate(-4 -4)"/><path class="cls-20" d="M973.47,1081a3.1,3.1,0,1,1-3.09-3.37A3.25,3.25,0,0,1,973.47,1081Z" transform="translate(-4 -4)"/><path class="cls-20" d="M940.26,1054.68a3.09,3.09,0,1,1-3.08-3.37A3.23,3.23,0,0,1,940.26,1054.68Z" transform="translate(-4 -4)"/><path class="cls-20" d="M943.35,1081.91a3.09,3.09,0,1,1-3.08-3.37A3.23,3.23,0,0,1,943.35,1081.91Z" transform="translate(-4 -4)"/><path class="cls-20" d="M1005.09,1077.5c0,3-2.73,5.43-6.15,5.43s-6.16-2.42-6.16-5.43,2.76-5.38,6.16-5.38S1005.09,1074.53,1005.09,1077.5Z" transform="translate(-4 -4)"/><path class="cls-18" d="M998.66,1018.5l74.53-.06s-10.84,12.47-34.51,13C1009.89,1032.12,998.66,1018.5,998.66,1018.5Z" transform="translate(-4 -4)"/><path class="cls-21" d="M1072.4,1016.84c-.75-2-2.08-3.52-3.13-5.36s-1.45-4-2.75-5.7a45.13,45.13,0,0,0-3.92-4.87,46.93,46.93,0,0,0-4.59-4.21c-1.66-1.12-4.09-.63-5.92-1.52s-2.88-4-4.8-4.6a43.94,43.94,0,0,0-6-1,41.47,41.47,0,0,0-6-.55c-2,0-4,1.08-5.93,1.38s-4.28-.61-6.16,0-3.53,2.54-5.32,3.4-3,3-4.68,4.15-4.68.41-6.17,1.81a44.15,44.15,0,0,0-4.07,5c-1.31,1.65-2.1,3.88-3.14,5.71s-.42,4.58-1.17,6.59a6.38,6.38,0,0,1-.73,1.36s13.64,3.73,35.53,3.47c25-.3,39.76-3.47,39.76-3.47A12.92,12.92,0,0,1,1072.4,1016.84Z" transform="translate(-4 -4)"/><path class="cls-20" d="M1025.36,1002.65a3.66,3.66,0,0,1-3.92,3.33c-2.18,0-3.94-1.5-3.94-3.33s1.76-3.34,3.94-3.34A3.66,3.66,0,0,1,1025.36,1002.65Z" transform="translate(-4 -4)"/><path class="cls-20" d="M1017,1009.15a3.66,3.66,0,0,1-3.93,3.34c-2.17,0-3.94-1.49-3.94-3.34s1.77-3.33,3.94-3.33A3.66,3.66,0,0,1,1017,1009.15Z" transform="translate(-4 -4)"/><path class="cls-20" d="M1041.14,1005.49c0,1.85-1.75,3.34-3.94,3.34s-3.93-1.49-3.93-3.34,1.77-3.33,3.93-3.33S1041.14,1003.64,1041.14,1005.49Z" transform="translate(-4 -4)"/><path class="cls-20" d="M1039.66,994.55a3.67,3.67,0,0,1-3.93,3.35c-2.17,0-3.94-1.5-3.94-3.35s1.77-3.34,3.94-3.34A3.66,3.66,0,0,1,1039.66,994.55Z" transform="translate(-4 -4)"/><path class="cls-20" d="M1054,1004.85a4,4,0,0,1-7.87,0c0-1.84,1.77-3.31,3.94-3.31S1054,1003,1054,1004.85Z" transform="translate(-4 -4)"/><path class="cls-20" d="M1031.28,1001.7a2,2,0,1,1-2-2.09A2,2,0,0,1,1031.28,1001.7Z" transform="translate(-4 -4)"/><path class="cls-20" d="M1046.56,997.27a2,2,0,1,1-2-2.1A2,2,0,0,1,1046.56,997.27Z" transform="translate(-4 -4)"/><path class="cls-20" d="M1047.07,1011.93a2,2,0,1,1-2-2.09A2,2,0,0,1,1047.07,1011.93Z" transform="translate(-4 -4)"/><path class="cls-20" d="M1025.86,995.65a2,2,0,1,1-2-2.1A2,2,0,0,1,1025.86,995.65Z" transform="translate(-4 -4)"/><path class="cls-20" d="M1027.84,1012.45a2,2,0,1,1-2-2.07A2,2,0,0,1,1027.84,1012.45Z" transform="translate(-4 -4)"/><path class="cls-20" d="M1067.26,1009.73a4,4,0,0,1-7.86,0c0-1.84,1.76-3.32,3.94-3.32S1067.26,1007.89,1067.26,1009.73Z" transform="translate(-4 -4)"/><path class="cls-18" d="M1098.17,1078.67l98.12-.07s-14.28,13.08-45.43,13.65C1113,1093,1098.17,1078.67,1098.17,1078.67Z" transform="translate(-4 -4)"/><path class="cls-22" d="M1195.25,1076.92c-1-2.11-2.74-3.67-4.12-5.63s-1.91-4.22-3.63-6a47.74,47.74,0,0,0-5.16-5.09,54,54,0,0,0-6-4.41c-2.2-1.2-5.38-.67-7.8-1.6s-3.79-4.2-6.32-4.82a69.91,69.91,0,0,0-7.92-1,69.16,69.16,0,0,0-8-.58c-2.64,0-5.27,1.14-7.81,1.46s-5.64-.63-8.11,0-4.64,2.66-7,3.57-4,3.14-6.16,4.34-6.16.45-8.12,1.9a49.44,49.44,0,0,0-5.36,5.27c-1.73,1.73-2.77,4.08-4.14,6s-.54,4.8-1.54,6.91a5.61,5.61,0,0,1-1,1.42s25.22,5.89,45.34,5.89a265.67,265.67,0,0,0,53.8-5.89A11.28,11.28,0,0,1,1195.25,1076.92Z" transform="translate(-4 -4)"/><path class="cls-20" d="M1133.32,1062.05c0,1.92-2.31,3.5-5.17,3.5s-5.18-1.58-5.18-3.5,2.32-3.52,5.18-3.52S1133.32,1060.11,1133.32,1062.05Z" transform="translate(-4 -4)"/><path class="cls-20" d="M1122.29,1068.86c0,1.94-2.31,3.5-5.18,3.5s-5.18-1.56-5.18-3.5,2.32-3.48,5.18-3.48S1122.29,1066.92,1122.29,1068.86Z" transform="translate(-4 -4)"/><path class="cls-20" d="M1154.09,1065c0,1.94-2.3,3.52-5.18,3.52s-5.17-1.58-5.17-3.52,2.32-3.48,5.17-3.48S1154.09,1063.09,1154.09,1065Z" transform="translate(-4 -4)"/><path class="cls-20" d="M1152.15,1053.55c0,1.94-2.31,3.52-5.18,3.52s-5.18-1.58-5.18-3.52,2.32-3.5,5.18-3.5S1152.15,1051.62,1152.15,1053.55Z" transform="translate(-4 -4)"/><path class="cls-20" d="M1171,1064.36c0,1.94-2.31,3.51-5.18,3.51s-5.18-1.57-5.18-3.51,2.33-3.48,5.18-3.48S1171,1062.42,1171,1064.36Z" transform="translate(-4 -4)"/><path class="cls-20" d="M1141.12,1061a2.62,2.62,0,0,1-5.17,0,2.62,2.62,0,0,1,5.17,0Z" transform="translate(-4 -4)"/><path class="cls-20" d="M1161.24,1056.4a2.63,2.63,0,1,1-2.6-2.19A2.42,2.42,0,0,1,1161.24,1056.4Z" transform="translate(-4 -4)"/><path class="cls-20" d="M1161.89,1071.76a2.63,2.63,0,1,1-2.6-2.17A2.41,2.41,0,0,1,1161.89,1071.76Z" transform="translate(-4 -4)"/><path class="cls-20" d="M1134,1054.7a2.63,2.63,0,1,1-2.59-2.19A2.42,2.42,0,0,1,1134,1054.7Z" transform="translate(-4 -4)"/><path class="cls-20" d="M1136.58,1072.34a2.62,2.62,0,1,1-2.59-2.2A2.4,2.4,0,0,1,1136.58,1072.34Z" transform="translate(-4 -4)"/><path class="cls-20" d="M1188.49,1069.47c0,2-2.31,3.52-5.17,3.52s-5.19-1.57-5.19-3.52,2.33-3.49,5.19-3.49S1188.49,1067.55,1188.49,1069.47Z" transform="translate(-4 -4)"/><path class="cls-23" d="M1019.25,1141.07c-155.36,0-316-41.07-316-109.8s160.68-109.8,316-109.8,316,41.07,316,109.8S1174.6,1141.07,1019.25,1141.07Zm0-203.12c-179.55,0-300.16,48.25-300.16,93.32s120.61,93.32,300.16,93.32,300.14-48.25,300.14-93.32S1198.78,938,1019.25,938Z" transform="translate(-4 -4)"/><path class="cls-24" d="M1346.21,821.42c-10.52-3.08-22.6-.23-26.93,6.37L1270.19,909c-24.46,40.77-52.51,87.51-69.86,116.41l16.52,4.71c21.27-27.25,51.23-73.51,81.75-113.51l58.84-77.6C1361.78,832.37,1356.76,824.52,1346.21,821.42Z" transform="translate(-4 -4)"/><path class="cls-25" d="M1340.89,819.4c-10.53-3.09-22.6-.24-26.93,6.36-.36.58-22.64,37.45-49.09,81.2-24.47,40.76-52.51,87.5-69.86,116.4l16.52,4.73c21.26-27.25,51.23-73.52,81.75-113.53,31.66-41.77,58.32-76.92,58.84-77.6C1356.45,830.35,1351.44,822.49,1340.89,819.4Z" transform="translate(-4 -4)"/><path class="cls-26" d="M590.7,580.73c178.94,0,333.12-26.54,405.52-62.1-72.5-43.49-228.73-67.47-410.4-67.47-177.9,0-315.75,24.23-390.15,66.26C230.76,544.67,407.29,580.73,590.7,580.73Z" transform="translate(-4 -4)"/><path class="cls-27" d="M461,516.05c0,3-8.94,5.37-20,5.37s-20-2.4-20-5.37,8.95-5.38,20-5.38S461,513.09,461,516.05Z" transform="translate(-4 -4)"/><path class="cls-27" d="M341.54,538.14c0,3-8.94,5.38-20,5.38s-20-2.4-20-5.38,8.94-5.37,20-5.37S341.54,535.17,341.54,538.14Z" transform="translate(-4 -4)"/><path class="cls-27" d="M550.51,548.91c0,3-8.94,5.37-20,5.37s-20-2.4-20-5.37,8.94-5.37,20-5.37S550.51,545.94,550.51,548.91Z" transform="translate(-4 -4)"/><path class="cls-27" d="M495.12,544.49c0,3-8.94,5.37-20,5.37s-20-2.41-20-5.37,8.94-5.37,20-5.37S495.12,541.52,495.12,544.49Z" transform="translate(-4 -4)"/><path class="cls-27" d="M605.79,516.05c0,3-8.95,5.37-20,5.37s-20-2.4-20-5.37,8.95-5.38,20-5.38S605.79,513.09,605.79,516.05Z" transform="translate(-4 -4)"/><path class="cls-27" d="M591.81,565.3c0,3-8.95,5.38-20,5.38s-20-2.41-20-5.38,8.94-5.38,20-5.38S591.81,562.33,591.81,565.3Z" transform="translate(-4 -4)"/><path class="cls-27" d="M506.78,506c0,3-8.95,5.38-20,5.38s-20-2.41-20-5.38,8.94-5.38,20-5.38S506.78,503.07,506.78,506Z" transform="translate(-4 -4)"/><path class="cls-27" d="M580.21,535c0,3-9,5.37-20,5.37s-20-2.4-20-5.37,9-5.37,20-5.37S580.21,532,580.21,535Z" transform="translate(-4 -4)"/><path class="cls-27" d="M657.32,518.46c0,3-9,5.36-20,5.36s-20-2.4-20-5.36,8.94-5.37,20-5.37S657.32,515.49,657.32,518.46Z" transform="translate(-4 -4)"/><path class="cls-27" d="M662,485.44c0,3-9,5.36-20,5.36s-20-2.4-20-5.36,8.94-5.37,20-5.37S662,482.47,662,485.44Z" transform="translate(-4 -4)"/><path class="cls-27" d="M725.88,479.61c0,3-9,5.37-20,5.37s-20-2.41-20-5.37,8.94-5.37,20-5.37S725.88,476.64,725.88,479.61Z" transform="translate(-4 -4)"/><path class="cls-27" d="M817.51,512.6c0,3-9,5.38-20,5.38s-20-2.41-20-5.38,8.94-5.37,20-5.37S817.51,509.63,817.51,512.6Z" transform="translate(-4 -4)"/><path class="cls-27" d="M867.31,539.22c0,3-8.94,5.37-20,5.37s-20-2.41-20-5.37,8.94-5.39,20-5.39S867.31,536.24,867.31,539.22Z" transform="translate(-4 -4)"/><path class="cls-27" d="M570,483.69c0,3-8.95,5.37-20,5.37s-20-2.4-20-5.37,8.94-5.38,20-5.38S570,480.72,570,483.69Z" transform="translate(-4 -4)"/><path class="cls-27" d="M318,544.57c0,3-8.94,5.37-20,5.37s-20-2.41-20-5.37,8.94-5.37,20-5.37S318,541.6,318,544.57Z" transform="translate(-4 -4)"/><path class="cls-27" d="M702.52,539.12c0,3-8.94,5.37-20,5.37s-20-2.4-20-5.37,8.94-5.38,20-5.38S702.52,536.14,702.52,539.12Z" transform="translate(-4 -4)"/><path class="cls-27" d="M778.33,555.55c0,3-8.94,5.37-20,5.37s-20-2.4-20-5.37,8.94-5.37,20-5.37S778.33,552.58,778.33,555.55Z" transform="translate(-4 -4)"/><path class="cls-27" d="M609.46,543.24c0,3-9,5.38-20,5.38s-20-2.41-20-5.38,9-5.37,20-5.37S609.46,540.27,609.46,543.24Z" transform="translate(-4 -4)"/><path class="cls-27" d="M739.75,501.93c0,3-8.94,5.37-20,5.37s-20-2.41-20-5.37,8.94-5.37,20-5.37S739.75,499,739.75,501.93Z" transform="translate(-4 -4)"/><path class="cls-27" d="M483,470.85c0,3-8.94,5.37-20,5.37s-20-2.4-20-5.37,8.94-5.37,20-5.37S483,467.88,483,470.85Z" transform="translate(-4 -4)"/><path class="cls-27" d="M697.21,555.64c0,3-9,5.38-20,5.38s-20-2.41-20-5.38,9-5.38,20-5.38S697.21,552.67,697.21,555.64Z" transform="translate(-4 -4)"/><path class="cls-27" d="M642.58,537c0,2.08-6.25,3.75-14,3.75s-14-1.67-14-3.75,6.24-3.75,14-3.75S642.58,534.92,642.58,537Z" transform="translate(-4 -4)"/><path class="cls-27" d="M435,553.15c0,2.07-6.26,3.75-14,3.75s-14-1.68-14-3.75,6.26-3.76,14-3.76S435,551.07,435,553.15Z" transform="translate(-4 -4)"/><path class="cls-27" d="M688.67,510.67c0,2.07-6.25,3.76-14,3.76s-14-1.69-14-3.76,6.25-3.75,14-3.75S688.67,508.6,688.67,510.67Z" transform="translate(-4 -4)"/><path class="cls-27" d="M798.25,532c0,2.08-6.25,3.75-14,3.75s-14-1.67-14-3.75,6.25-3.75,14-3.75S798.25,529.94,798.25,532Z" transform="translate(-4 -4)"/><path class="cls-27" d="M748.55,529.58c0,2.08-6.25,3.75-14,3.75s-14-1.67-14-3.75,6.25-3.75,14-3.75S748.55,527.51,748.55,529.58Z" transform="translate(-4 -4)"/><ellipse class="cls-27" cx="621.58" cy="564.02" rx="13.96" ry="3.75"/><path class="cls-27" d="M765.91,514.15c0,2.07-6.24,3.76-14,3.76s-14-1.69-14-3.76,6.26-3.75,14-3.75S765.91,512.09,765.91,514.15Z" transform="translate(-4 -4)"/><path class="cls-27" d="M524.53,521.42c0,2.08-6.26,3.75-14,3.75s-14-1.67-14-3.75,6.26-3.75,14-3.75S524.53,519.36,524.53,521.42Z" transform="translate(-4 -4)"/><path class="cls-27" d="M355.86,510.78c0,2.06-6.25,3.75-14,3.75s-14-1.69-14-3.75,6.26-3.76,14-3.76S355.86,508.7,355.86,510.78Z" transform="translate(-4 -4)"/><path class="cls-27" d="M917.67,532c0,2.08-6.25,3.75-14,3.75s-14-1.67-14-3.75,6.25-3.75,14-3.75S917.67,529.94,917.67,532Z" transform="translate(-4 -4)"/><path class="cls-28" d="M875.88,510c1.25,2.54-12.66,5.17-28.25,5.17s-29.19-4.58-29.19-7.43,9.41-7.41,25-7.41S872,502.18,875.88,510Z" transform="translate(-4 -4)"/><path class="cls-27" d="M737.34,542.73c0,3-8.94,5.37-20,5.37s-20-2.41-20-5.37,9-5.38,20-5.38S737.34,539.75,737.34,542.73Z" transform="translate(-4 -4)"/><path class="cls-27" d="M464.2,556.47c0,3-8.94,5.36-20,5.36s-20-2.4-20-5.36,8.94-5.37,20-5.37S464.2,553.5,464.2,556.47Z" transform="translate(-4 -4)"/><path class="cls-27" d="M701.8,527.2c0,1.45-4.31,2.65-9.63,2.65s-9.63-1.2-9.63-2.65,4.32-2.66,9.63-2.66S701.8,525.73,701.8,527.2Z" transform="translate(-4 -4)"/><path class="cls-27" d="M825.69,536.81c0,1.47-4.31,2.66-9.63,2.66s-9.63-1.19-9.63-2.66,4.31-2.65,9.63-2.65S825.69,535.35,825.69,536.81Z" transform="translate(-4 -4)"/><path class="cls-27" d="M531.27,492.84c0,1.46-4.31,2.66-9.64,2.66s-9.62-1.2-9.62-2.66,4.31-2.65,9.62-2.65S531.27,491.38,531.27,492.84Z" transform="translate(-4 -4)"/><path class="cls-27" d="M585.76,483.07c0,1.45-4.31,2.66-9.63,2.66s-9.64-1.21-9.64-2.66,4.32-2.66,9.64-2.66S585.76,481.6,585.76,483.07Z" transform="translate(-4 -4)"/><path class="cls-27" d="M409.27,481.29c0,1.46-4.31,2.66-9.62,2.66s-9.64-1.2-9.64-2.66,4.31-2.65,9.64-2.65S409.27,479.83,409.27,481.29Z" transform="translate(-4 -4)"/><path class="cls-27" d="M488.51,487.52c0,1.45-4.32,2.65-9.63,2.65s-9.64-1.2-9.64-2.65,4.31-2.66,9.64-2.66S488.51,486.05,488.51,487.52Z" transform="translate(-4 -4)"/><path class="cls-27" d="M389.81,500.85c0,1.45-4.32,2.65-9.63,2.65s-9.63-1.2-9.63-2.65,4.31-2.66,9.63-2.66S389.81,499.38,389.81,500.85Z" transform="translate(-4 -4)"/><path class="cls-27" d="M375.71,557c0,1.47-4.31,2.67-9.62,2.67s-9.64-1.2-9.64-2.67,4.31-2.65,9.64-2.65S375.71,555.52,375.71,557Z" transform="translate(-4 -4)"/><path class="cls-27" d="M384.59,527.85c0,1.47-4.31,2.66-9.62,2.66s-9.64-1.19-9.64-2.66,4.31-2.65,9.64-2.65S384.59,526.38,384.59,527.85Z" transform="translate(-4 -4)"/><path class="cls-27" d="M600.06,499.73c0,1.46-4.32,2.66-9.63,2.66s-9.63-1.2-9.63-2.66,4.31-2.66,9.63-2.66S600.06,498.26,600.06,499.73Z" transform="translate(-4 -4)"/><path class="cls-27" d="M537.12,503.07c0,1.46-4.31,2.65-9.62,2.65s-9.63-1.19-9.63-2.65,4.31-2.66,9.63-2.66S537.12,501.6,537.12,503.07Z" transform="translate(-4 -4)"/><path class="cls-27" d="M274,513.07c0,1.46-4.31,2.65-9.63,2.65s-9.63-1.19-9.63-2.65,4.31-2.65,9.63-2.65S274,511.6,274,513.07Z" transform="translate(-4 -4)"/><path class="cls-27" d="M228.19,523.08c0,1.46-4.31,2.65-9.64,2.65s-9.62-1.19-9.62-2.65,4.31-2.66,9.62-2.66S228.19,521.6,228.19,523.08Z" transform="translate(-4 -4)"/><path class="cls-27" d="M864.66,496.4c0,1.46-4.31,2.65-9.62,2.65s-9.63-1.19-9.63-2.65,4.31-2.65,9.63-2.65S864.66,494.94,864.66,496.4Z" transform="translate(-4 -4)"/><path class="cls-27" d="M899,518.63c0,1.45-4.31,2.65-9.63,2.65s-9.62-1.2-9.62-2.65,4.31-2.66,9.62-2.66S899,517.16,899,518.63Z" transform="translate(-4 -4)"/><path class="cls-27" d="M953.33,519.74c0,1.46-4.31,2.65-9.62,2.65s-9.63-1.19-9.63-2.65,4.31-2.66,9.63-2.66S953.33,518.27,953.33,519.74Z" transform="translate(-4 -4)"/><path class="cls-27" d="M279.77,532c0,1.48-4.31,2.66-9.63,2.66s-9.63-1.18-9.63-2.66,4.31-2.65,9.63-2.65S279.77,530.54,279.77,532Z" transform="translate(-4 -4)"/><path class="cls-27" d="M858.6,524.54c0,1.45-4.3,2.66-9.62,2.66s-9.63-1.21-9.63-2.66,4.31-2.65,9.63-2.65S858.6,523.08,858.6,524.54Z" transform="translate(-4 -4)"/><path class="cls-27" d="M819.77,554.27c0,1.47-4.31,2.66-9.63,2.66s-9.62-1.19-9.62-2.66,4.31-2.65,9.62-2.65S819.77,552.81,819.77,554.27Z" transform="translate(-4 -4)"/><path class="cls-27" d="M788.4,499.89c0,1.47-4.31,2.65-9.63,2.65s-9.62-1.18-9.62-2.65,4.31-2.65,9.62-2.65S788.4,498.42,788.4,499.89Z" transform="translate(-4 -4)"/><path class="cls-27" d="M768.83,482c0,1.47-4.31,2.66-9.64,2.66s-9.62-1.19-9.62-2.66,4.31-2.65,9.62-2.65S768.83,480.51,768.83,482Z" transform="translate(-4 -4)"/><path class="cls-27" d="M636.37,467.41c0,1.46-4.31,2.65-9.63,2.65s-9.62-1.19-9.62-2.65,4.3-2.66,9.62-2.66S636.37,465.94,636.37,467.41Z" transform="translate(-4 -4)"/><path class="cls-27" d="M545.74,469.35c0,1.47-4.31,2.65-9.63,2.65s-9.62-1.18-9.62-2.65,4.31-2.66,9.62-2.66S545.74,467.88,545.74,469.35Z" transform="translate(-4 -4)"/><path class="cls-27" d="M804.85,482.94c0,1.47-4.31,2.66-9.64,2.66s-9.62-1.19-9.62-2.66,4.31-2.65,9.62-2.65S804.85,481.48,804.85,482.94Z" transform="translate(-4 -4)"/><path class="cls-27" d="M325,493.63c0,1.46-4.31,2.65-9.63,2.65s-9.62-1.19-9.62-2.65S310,491,315.35,491,325,492.16,325,493.63Z" transform="translate(-4 -4)"/><path class="cls-27" d="M309.87,512.34c0,1.47-4.31,2.65-9.63,2.65s-9.62-1.18-9.62-2.65,4.31-2.65,9.62-2.65S309.87,510.87,309.87,512.34Z" transform="translate(-4 -4)"/><path class="cls-27" d="M908.37,507c0,1.46-4.31,2.65-9.63,2.65s-9.62-1.19-9.62-2.65,4.31-2.66,9.62-2.66S908.37,505.55,908.37,507Z" transform="translate(-4 -4)"/><path class="cls-29" d="M861.64,603.68l143.1-49.82,79.76,16.66a7,7,0,0,1,5.44,6.73l.39,17.3a7.07,7.07,0,0,1-4.24,6.68l-70,30-1.8,29.45a19.67,19.67,0,0,1-11.83,18.49L862.33,737.36c-7.14,3-14.9-2.59-14.7-10.57l2.78-107.37A17,17,0,0,1,861.64,603.68Z" transform="translate(-4 -4)"/><path class="cls-30" d="M860.42,607.48l147.25-51.2,64.69,13.58a3,3,0,0,1,.47,5.59L945.27,627.38a22.34,22.34,0,0,1-14.76.75Z" transform="translate(-4 -4)"/><ellipse class="cls-31" cx="894.33" cy="669.75" rx="10.14" ry="16"/><ellipse class="cls-32" cx="980.74" cy="640.01" rx="9.26" ry="14.61"/><path class="cls-33" d="M1088.3,584a8.84,8.84,0,0,0-11.55-5.3L942.67,632.47a21.38,21.38,0,0,1-13.82.71S863,611.44,860.63,610.85c-10.06-2.47-9.09,11.93-8.55,13.66l-2.51,104.36a8.4,8.4,0,0,0,8,8.73h.21a8.37,8.37,0,0,0,8.2-8.31l2.3-95.5L923.88,651a38.8,38.8,0,0,0,25.22-1.23L1083.18,596A9.36,9.36,0,0,0,1088.3,584Z" transform="translate(-4 -4)"/><path class="cls-34" d="M856.73,511.34C885.64,484,1104,220.61,1126.6,188.28a119.88,119.88,0,0,1,15.24-18.13c16.43-17.63,24.49,5.35,18.16,18.94-3.41,7.34-10,13.89-15.78,19.27-6.23,5.79,37.27,15.85,48.12,5.77,53.34-49.5-10-79.33-54.61-72.16-39.5,6.34-70.16,56.26-91.19,86q-40,56.58-81.62,112c-42.12,56.13-84.85,116.42-135.81,164.62C822.83,510.5,856.73,511.34,856.73,511.34Z" transform="translate(-4 -4)"/><path class="cls-35" d="M860.44,511.08,855,506.25s199.15-239.84,231.3-278.74c3-3.67,6.35-7.93,9.92-12.52,23.85-30.64,59.89-76.92,100-59.54,10.18,4.42,15.91,10.82,17,19,2.38,17.32-17.72,36.35-22.67,40.75a4.81,4.81,0,0,1-.79,1.35c-2.42,3-8.73,4.78-38.17-2.49a3.71,3.71,0,0,1-2.65-4.46,3.56,3.56,0,0,1,4.31-2.75c21.81,5.39,28.8,5.11,30.8,4.73a3.51,3.51,0,0,1,1-1.22c6.47-5.43,22.88-22.28,21.15-34.87-.76-5.44-5-9.89-12.73-13.22-35.1-15.25-69.14,28.44-91.64,57.35-3.62,4.66-7,9-10.06,12.69C1059.59,271.23,860.44,511.08,860.44,511.08Z" transform="translate(-4 -4)"/><g class="cls-36"><path class="cls-37" d="M493.66,133A244.83,244.83,0,0,1,524.94,171c9.37,14.15,17.28,29.93,21.11,46.37a94,94,0,0,1-1.67,49.83,127.68,127.68,0,0,1-10.47,24.93l-7.72,14.68L518.4,323c-9.8,21.81-17.59,44.71-21.38,68.46s-3.24,48.53,4.06,70.83A103.47,103.47,0,0,0,537.79,514c7.29,6.36,15.85,9.92,23.38,13.93,7.9,3.37,15.88,5.49,23.15,7.74-5.66-5.62-11.73-10.79-17.35-16.65-5.16-6.43-11.14-12-15.27-19.34-9.26-13.63-15.69-29.09-17.23-45.84-3.63-33.41,8.86-71.35,26.4-110.29l6.66-14.35c2.47-5.07,4.9-9.92,7.26-15.14a147.39,147.39,0,0,0,12.05-36.4,123.36,123.36,0,0,0,1.4-38.2,115.61,115.61,0,0,0-10.06-34.78c-9.91-21-24.45-36.57-39.25-48A144.83,144.83,0,0,0,493.66,133Z" transform="translate(-4 -4)"/></g><g class="cls-36"><path class="cls-37" d="M940.72,789.55A148.42,148.42,0,0,1,960.79,812c6,8.38,11.08,17.73,13.53,27.47A51.55,51.55,0,0,1,973.26,869a72.79,72.79,0,0,1-6.72,14.77l-4.95,8.7-5,9.6c-6.29,12.92-11.29,26.49-13.71,40.56s-2.09,28.75,2.6,42A61.66,61.66,0,0,0,969,1015.28c4.68,3.77,10.17,5.88,15,8.26,5.06,2,10.18,3.25,14.84,4.58-3.63-3.33-7.52-6.39-11.13-9.86-3.3-3.81-7.14-7.13-9.79-11.46-5.94-8.07-10.07-17.23-11.05-27.16-2.33-19.79,5.68-42.27,16.93-65.34,1.44-2.84,2.86-5.68,4.28-8.49,1.58-3,3.14-5.88,4.65-9a82.83,82.83,0,0,0,7.73-21.57,67.67,67.67,0,0,0,.9-22.63,64.87,64.87,0,0,0-6.45-20.6c-6.36-12.47-15.69-21.67-25.18-28.45A95.73,95.73,0,0,0,940.72,789.55Z" transform="translate(-4 -4)"/></g><g class="cls-36"><path class="cls-38" d="M1013.47,797.67a100.22,100.22,0,0,1,12.18,15.77,62.45,62.45,0,0,1,8.22,19.27,41.43,41.43,0,0,1-.65,20.7,55.55,55.55,0,0,1-4.07,10.37c-1,2-2,4.05-3,6.09-1,2.24-2,4.48-3,6.74a118.44,118.44,0,0,0-8.33,28.45c-1.48,9.81-1.26,20.17,1.58,29.43a43,43,0,0,0,14.3,21.52c2.84,2.64,6.17,4.12,9.1,5.79a87.39,87.39,0,0,0,9,3.21c-2.21-2.33-4.57-4.48-6.76-6.92-2-2.67-4.34-5-5.94-8a42.11,42.11,0,0,1-6.71-19c-1.42-13.88,3.44-29.65,10.27-45.83l2.6-6c1-2.11,1.91-4.13,2.83-6.29a64.25,64.25,0,0,0,4.69-15.13,54.63,54.63,0,0,0,.54-15.87,50.33,50.33,0,0,0-3.91-14.46,54.15,54.15,0,0,0-15.29-20A55.28,55.28,0,0,0,1013.47,797.67Z" transform="translate(-4 -4)"/></g><g class="cls-39"><path class="cls-37" d="M600.5,221.76c15.32,17.59,27.69,41.87,28.19,67.57a102.66,102.66,0,0,1-7,39.05c-1,3.31-2.85,6.51-4.17,9.82s-2.78,6.47-4.78,10.33l-11.07,22.16c-7.48,15.39-14.41,31.24-19.46,47.71s-8.29,33.69-7.16,50.94c1,17.13,7.32,34,17.56,44.92,10.07,11.14,22.12,17,33.11,20.31-8.42-8.13-16.41-17.78-21.14-28.83s-5.86-23.15-4.09-35.81c3.61-25.57,17.68-53.07,32.19-83,3.69-7.59,7.27-15,10.81-23,1.65-3.57,3.35-8,4.83-12.36s3.24-8.46,4.19-13a109.71,109.71,0,0,0,1.29-53.09,92.75,92.75,0,0,0-21.79-41.54A85.72,85.72,0,0,0,600.5,221.76Z" transform="translate(-4 -4)"/></g></g></g></svg>