<svg id="Layer_1" data-name="Layer 1" xmlns="http://www.w3.org/2000/svg" xmlns:xlink="http://www.w3.org/1999/xlink" viewBox="0 0 1500 1500"><defs><style>.cls-1{fill:#fff;}.cls-2{fill:url(#linear-gradient);}.cls-3{fill:url(#linear-gradient-2);}</style><linearGradient id="linear-gradient" x1="210.54" y1="751" x2="1262.54" y2="751" gradientUnits="userSpaceOnUse"><stop offset="0" stop-color="#e30613"/><stop offset="1" stop-color="#f39200"/></linearGradient><linearGradient id="linear-gradient-2" x1="317.9" y1="694.52" x2="1155.18" y2="694.52" xlink:href="#linear-gradient"/></defs><g id="ƒŒƒCƒ_6" data-name="ƒŒƒCƒ  6"><rect class="cls-1" width="1500" height="1500" rx="336.29"/></g><path class="cls-2" d="M757,1358.8a3.5,3.5,0,0,1-6.07,0l0,0q-59.34-108.32-118.59-216.67c-6.05-11.09-14.65-16.39-27.61-15.57q-65.88,4.17-131.8,7.81c-17.29,1-34.82,3.16-51.88,1.38-49.14-5.12-81.68-32.5-97.85-77.8-5.74-16.09-8-33.45-11.18-50.34Q292.09,903.36,272.56,799.1q-19.17-101.51-38.34-203c-6.92-36.63-14-73.24-20.79-109.89-14.26-77.06,25.39-153,94.69-183.42,17.27-7.58,35.67-10.73,53.94-14.49Q486,262.82,610,237.44l247.39-50.65c68.67-14.06,137.38-27.94,206-42.28,63.94-13.36,125,18.32,154.55,72,14.07,25.51,18.42,53,19.17,81.65,1.29,49.29,3.71,98.55,5.57,147.82,1.22,32.58,2.23,65.16,3.46,97.74,1.86,49.1,3.87,98.21,5.73,147.31,1.23,32.41,2.23,64.83,3.45,97.24,1.86,49.11,4,98.21,5.69,147.32.78,22.37,2.49,44.88,1,67.14-4,59.61-49.66,112.86-114.59,120.62a129.69,129.69,0,0,1-15.27.74q-111.49.07-223,0c-14.78,0-25.08,5.87-32.17,18.71q-59.48,107.67-119.36,215.13Zm-2.68-148.62c1.19-2,2.15-3.54,3-5.12,18.09-32.55,36.09-65.14,54.27-97.64,21.07-37.68,53.62-56.56,97.29-56.61q110.49-.13,221-.07a67.36,67.36,0,0,0,13.17-1.07c23.47-4.73,42.77-26.06,44.43-50.83,1-14.78-.16-29.72-.7-44.58q-2.92-81.43-6.08-162.88-3.43-92.46-6.82-184.94-2.84-76.68-5.71-153.36c-2-52.12-4.15-104.24-5.87-156.37-.51-15.2-2-30-9.25-43.73-14.65-28-43.71-42.77-73.47-36.87-26.81,5.31-53.54,11-80.3,16.48q-106.5,21.84-213,43.64l-223,45.71q-96.78,19.85-193.55,39.63c-14.64,3-29.3,5.72-42.2,14-31.41,20.11-48.08,58.48-41,96.59,11.77,63.44,23.95,126.81,35.94,190.21Q341.28,761.41,360,860.48q15.84,83.76,31.72,167.53c4.1,21.52,21.67,36,42.43,35.13,12.22-.54,24.43-1.42,36.64-2.14,44.11-2.6,88.2-5.8,132.34-7.65,42.4-1.77,73.92,16.68,94.39,53.17,10.33,18.44,20.3,37.07,30.46,55.6C736.65,1178,745.37,1193.85,754.34,1210.18Z" transform="translate(-1 -1)"/><path class="cls-3" d="M754.7,1142.35c9.82-17.59,19-34.16,28.3-50.66,27.33-48.43,69.13-73.19,125.51-73.37,74-.25,148-.16,222-.22,13.63,0,23.93-9.59,24.49-23,.27-6.33.26-12.69,0-19q-2.46-67.15-5.06-134.3-3.6-96.71-7.15-193.43c-1.81-49.62-3.5-99.24-5.35-148.85q-3.21-86.19-6.62-172.38c-.61-15.52-1.14-31.07-2.61-46.53-1.74-18.35-19.57-38.7-46.08-32.84-58.64,13-117.62,24.46-176.47,36.5Q781.72,309.6,657.76,334.91,514.36,364.28,371,393.72c-10,2-20.13,3.83-28.36,10.38-21.07,16.79-28.09,38.58-23.24,64.42q11.94,63.57,24,127.14Q360.49,686.32,377.67,777q16.57,87.71,33.11,175.42,6.53,34.49,13.21,69c1.41,7.23,4.29,9.4,11.59,9,35.62-2.1,71.23-4.46,106.86-6.4,24.42-1.33,48.89-3.28,73.3-2.88,35.67.6,65.79,14.74,90,40.76,12.41,13.36,20.94,29.15,29.54,44.91C741.58,1118.31,747.9,1129.89,754.7,1142.35Z" transform="translate(-1 -1)"/><path class="cls-1" d="M809,807.07H704.46c-7.18,0-13-6.38-13-14.24h0q0-36.36,7.53-59a133.67,133.67,0,0,1,22.41-41.42q14.88-18.74,66.88-66Q816,601.67,816,581.05t-11.12-32q-11.11-11.43-33.69-11.43-24.3,0-40.2,17.62-13.37,14.77-18.64,48c-1.18,7.48-7.48,12.64-14.36,11.71L590.73,600.41c-7.24-1-12.34-8.31-11.27-16.21Q589,514,631.08,469.54q46.35-48.92,142.15-48.92,74.58,0,120.43,34.11,62.26,46.11,62.26,122.95,0,31.86-16.08,61.47t-65.69,72.34q-34.56,30-43.62,48.17-7,14-8.57,34.42C821.38,801.44,815.74,807.07,809,807.07Z" transform="translate(-1 -1)"/><ellipse class="cls-1" cx="757.8" cy="898.51" rx="69.75" ry="65.42"/></svg>