<svg xmlns="http://www.w3.org/2000/svg" viewBox="0 0 1500 1500"><defs><style>.cls-1{fill:#fff;}.cls-2{fill:#faf5f2;}.cls-2,.cls-3,.cls-4,.cls-5,.cls-6,.cls-7,.cls-8,.cls-9{fill-rule:evenodd;}.cls-3{fill:#ab3a0d;}.cls-4{fill:#e07d55;}.cls-5{fill:#eb9878;}.cls-6{fill:#d0673a;}.cls-7{fill:#bc4c1f;}.cls-8{fill:#f09e7d;}.cls-9{fill:#facab6;}</style></defs><g id="ƒŒƒCƒ__6" data-name="ƒŒƒCƒ„[_6"><rect class="cls-1" width="1500" height="1500" rx="418.14"/><path class="cls-2" d="M651.68,1168.68c14.52,15.56,28.54,23.73,44.57,31.71,10.26-45.3,20.72-87.55,31.12-124.31-24.51-31.39-49.78-63.74-68.14-84.47C630,958.48,598,980.87,557.46,950.92c-8.79,22.9-18.58,48.91-29.07,77.52,9.65,7,17.67,13,23.45,17.26C583.13,1068.92,616.35,1130.63,651.68,1168.68Z" transform="translate(-4 -4)"/><path class="cls-3" d="M442,1068.23c40.18,30.94,92.84,41.88,137.36,75.73,86.39,67,171.19,99,225.77,132.36,48.93,30,82.34,32.31,118.78,39.58,71.63,14.33,159.07,52.82,216,98.52,14.51-.81,13.32-1.63,19.14-11.28,8.41-13.94,2.7-37.86,10.22-59.85,13.79-40.21.24-61.1,17.14-95.71,16.51-33.8,10.72-37.23,20.56-69.92,9.6-32,13.5-36.75,30.46-66.56,16.73-29.22,19.1-33.61,21.68-49.15s12.71-50.29,26.89-59.74c5.29-3.44,8.37-9.82,10.31-16.3-4.16-8.82-26.49-52.85-80.66-85-58.65-34.86-153.11-3.2-189.21-25.43-35.52-21.82-108.18-75.61-148.76-100.59-39.9-24.33-69.45,12.09-129.32-25.41C690.26,713,685.9,679.18,626.18,642.29c-30.72-18.93-28.24-21.25-51-27.45-6.77,10.94-20.66,29.78-35.56,48.81-15.1,19.3-31.25,38.77-41.89,50-28.82,30.61-32.65,45.91-56.89,81.87-25,36.94-26.26,56.15-67,94-21.9,20.29-33.67,29.95-41,43-1.29,2.3-9.73,3.44-10.22,6.12-3,16.14,6.33,22.63,20.79,33.7C390.25,1008.19,402.53,1037.94,442,1068.23Z" transform="translate(-4 -4)"/><path class="cls-4" d="M1245.81,1120.13c8.7-15.56,41.2-45.34,44-62.19.14-.8.27-1.74.47-2.65a159.87,159.87,0,0,1,6-24.44c4.64-14,11.35-28.62,19.83-34.22,5.11-3.35,8.24-9.54,9.93-16-4.13-8.68-9.23-57.73-63.8-89.55-59.31-34.54-152.53-3.87-189-25.89-17-10.28-42.76-27.81-69.36-46-29.22-19.87-59.51-40.52-81-53.38-34.6-20.77-60.36,2.41-105.36-14a134.46,134.46,0,0,1-23.77-11.67c-58.73-36-64-69.29-124.46-105.88-30.82-18.82-62.07-29.73-84.65-35.86-34.38,54.57-43.32,48.33-71.91,83.15-1.67,2.05-3.3,4-4.86,5.85a61.49,61.49,0,0,1-4.68,5.06c-12.37,13.16-78.24,66.71-87,96.29-18.87,28.71-18.74,58.38-43,86.78-24.17,28.08-40.71,43.44-50.44,63.08,14.59,7.39,36.94,19.85,50.66,30.14,47.23,35.51,59.82,73,99.67,103.27,40.66,31,97.49,26.64,142.38,60.18,31.06,23.14,70.73,52.71,112.73,80,42.78,27.79,87.82,53.46,127.53,67.4,67.15,23.58,109.17,27.26,150.54,38.35,41.78,11.2,83.4,29.94,152.92,85.22,12.55-29,15.43-57,24.71-88.33,1-3.5,2.16-7.06,3.33-10.69,26.64-39.29,40.72-85.26,48.46-121.07C1243.15,1148,1244.62,1122.11,1245.81,1120.13Z" transform="translate(-4 -4)"/><path class="cls-5" d="M844.22,1105.9c-3.25,0-78.93-35.52-152.6-71.24C620,999.93,550,965,546.81,960.84c-.91-1.2-114.95-94.77-115.54-94.77-39.22-.2-68.23-18-1.22-13.58,33.25,2.21,115.87,57.91,135.46,23.7,33.76-1.5,143.06,22.21,167,44.93,24.22,22.93,44.23,27.26,74.62,63.74,5.86,7,115.48,101.4,40.73,114.42C846.7,1101.57,845.54,1103.8,844.22,1105.9Z" transform="translate(-4 -4)"/><path class="cls-5" d="M1059.67,978.24c-5.22,5.27-32.94-13.1-40.75-15.6-29.93-9.54-145.3-57.3-156.62-84.18-9.29-22.05-77.15-29.17-101.15-39C715.94,820.85,660,822.59,633.7,782.13c-7-10.74,165.94,26.17,196.95,26.61,6.47.09,79.73,12.12,86.94,18a839.77,839.77,0,0,0,98.87,69.78C1028,903.39,1065.78,972.07,1059.67,978.24Z" transform="translate(-4 -4)"/><path class="cls-5" d="M1230.93,1109.91c-9.92,3.82-62.27-29.27-84.1-35-34.39-8.93-47.18-15.44-85.55-21-26-3.79-69.85-48-95.48-61.68-6.95-3.71-60.9-30.08-61.17-30.36,40.08-8.47,77.84,57.61,138.54,62.65,42,3.48,89.52,29.61,131.48,44,7.4,2.53,46.74,14.33,48.07,24.75C1223.89,1102.5,1235.5,1108.14,1230.93,1109.91Z" transform="translate(-4 -4)"/><path class="cls-5" d="M414.87,928.14c-1.3.14,26.13,43.75,35.92,52.55,53.44,48.07,104.33,79.24,184.22,95.77,42.17,8.74,26.86,5.4-5.24-13.7-22.55-13.39-36.95-12.07-60.39-24.88-51-27.91-43-5.23-83.89-56.64-6.06-7.62-49.16-63.21-55.69-62.18C427.31,919.46,417,927.92,414.87,928.14Z" transform="translate(-4 -4)"/><path class="cls-5" d="M444.62,788.27c17.29.4,68.7,82.65,127,84.13,24.88.65,44.09,1.1,10.73-15.28-59.6-29.26-64.51,21.71-93.33-59.6-14.05-39.63-27.79-5.91-45-14.83C439.53,780.39,444.09,788.25,444.62,788.27Z" transform="translate(-4 -4)"/><path class="cls-5" d="M1137.25,1316.77c-38-31-52.92-40.12-98.66-49-41.6-8.09-58.34-58.07-134.35-57.33-11.41,15,93.15,49.3,109.75,61.26,36,26,52.86,28.51,96.57,35.64C1114.09,1307.9,1140,1319,1137.25,1316.77Z" transform="translate(-4 -4)"/><path class="cls-5" d="M1288,952.8c5.79-.25-83.37-37.75-92.2-44.31-16.89-12.53-76.58-32.94-21.5,2.18,34.48,22,21.32,15.47,60.72,30.3C1246.1,945.15,1274.77,953.35,1288,952.8Z" transform="translate(-4 -4)"/><path class="cls-3" d="M381.61,864.07c26.24,2.07,68.57,3.84,84.46,18.48,25.69,23.69,99.92,19.15,105,36.94,8.24,29,58.17,86.31,83.9,89.09,48.6,5.25,185,75.7,209.07,120.86,36.51,68.51,96.71,25.31,163.69,59.26,54.49,27.62,132.23,43.68,159.61,114.72,7.48-13.22,19.55-35,29.93-58.06a422.7,422.7,0,0,0,18.32-62.31q.82-3.81,1.56-7.45c-.24-12.16-4.41-21.34-14.52-25.24-47.65-18.35-12.07-23.12-85.72-25.78-72.38-2.63-120.23-91.86-194.26-89.75-46,1.3-81.89-37.92-121.4-75.86-38.34-36.82-80.24-72.52-141.69-70.53-25.54.81-62.13-11.31-107.3-6.46C519.9,887.6,451,835,418.78,810.3c-3.74-2.87-6.31-7.5-8.64-11.36C398.92,820.57,395.47,842.58,381.61,864.07Z" transform="translate(-4 -4)"/><path class="cls-3" d="M1302.66,1013.94l-.35,1.37a144.8,144.8,0,0,0-6.09,15.54,158.82,158.82,0,0,0-5.93,24.15c-6.41,16.92-14.12,30.11-20.26,18.93-41.27-24-33.33-68.81-136-72.67-53.83-2-98-38.07-137.75-63-25.77-16.17-48.87-19.74-59.86-49.54-7.21-19.52-58.53-37.16-112.93-49.06-54-11.79-111.88-18.07-134.67-14.88-38.11,5.33-103.06-41.52-117.86-68.12-13.71-24.6-61.81-38.42-79.74-53,5.35-4.88,9.56-8.78,11.88-11.24a61.49,61.49,0,0,0,4.68-5.06c1.56-1.86,3.19-3.8,4.86-5.85,16.74-20.39,26.74-26.7,39-39.38,28.85,12.5,99,88.11,112.86,95,32.94,16.29,56.22,36.66,97.45,54.51,90.49,39.19,77.12,16.55,161.69,33.74,36,7.32,80.06,34.64,126.14,65,47.18,31.06,96.61,65.6,139.63,84.23,21.12,9.15,97.9,35.85,113.15,40.11l.33-.68Z" transform="translate(-4 -4)"/><path class="cls-6" d="M1217.23,1245.39a19.77,19.77,0,0,1-.91,2c9.55-33.3-89-73.2-114.7-77.17-14.15-2.19-79.95-19.49-86.07-33-8.92-19.81-38.61-13.66-61.12-24.65-45.68-22.32-51.45,1.56-87.35-45.65-24.28-31.9-53.78-45.45-79.91-82.73-.83-1.19-110.68-59.51-93.75-50.68,19.53,10.17,22.4-1.4,50,21.77,26,21.82,48.17,35.62,81,49,10,4.07,47.3,46,76.42,59.66,18.66,8.77,95.38,46.26,118.66,48.36,21.45,2,57.44,44.68,116.77,49.52,47.85,3.9,58.49,24.33,90.88,54.36C1224.31,1225.68,1221,1235.5,1217.23,1245.39Z" transform="translate(-4 -4)"/><path class="cls-6" d="M391.13,846.07c24.15,8.85,63.32,27.93,84.3,27.62,22.9-.33,26.55,18.37,37.06,19.51,2.27-8.1-40.55-35.11-55.12-36.49-9.88-.92-40.95-23.41-54.34-41.84C399,825.28,395.66,835.7,391.13,846.07Z" transform="translate(-4 -4)"/><path class="cls-6" d="M515,678.65c16.71,4.58,52.49,19.17,56.5,33.57,18.75,67.38,62,70.56,126.67,91.89,34.44,11.36,81.22,19.36,121.65,20.76,14.52.5-36.42-10.9-45.15-11.47-10.19-.65-44.77-4.15-52.15-6.07-21.88-5.68-110-36.87-113-62-4.53-37.59-35.45-40.81-56.87-61.07-10.92-10.34-4.92,4.25-13.33-16.47-.56-1.38-3.33-5.13-6.06-8.32A215.76,215.76,0,0,0,515,678.65Z" transform="translate(-4 -4)"/><path class="cls-6" d="M1291.33,1049.23c-5,12.38-10.52,25.67-5.81,16.71-.38-13.77-29.93-30.22-44.13-50-14-19.49-86.89-13.41-112.88-25.88-24.5-11.75-59.34-15.52-78.1-34.08-26.3-26-79.12-21.37-90.2-75.53-4.37-21.33-57.31-30.33-28.68-41,9.67-3.6,20,5.72,22.53,16,6.35,25.35,32.74,37.21,53.46,53.85,16.88,13.53,43.65,17.45,64.3,37.37,32.6,31.45,125.89,31.66,177.58,62.09,7.18,4.22,36.14,23.79,46.14,24.27C1293.73,1038.79,1292.31,1044.45,1291.33,1049.23Z" transform="translate(-4 -4)"/><path class="cls-2" d="M636.7,802.81c-21.08-3-35.8-9.81-51.52-18.39,31.26-34.33,59.93-67.1,84.11-96.67,39.78,2.12,80.76,4.32,108.27,7.51,43.91,5,43.87,44.1,91.63,60.15-13.76,20.33-29.49,43.25-46.93,68.22-11.3-3.88-20.79-7-27.58-9.35C757.74,801.91,688.11,810,636.7,802.81Z" transform="translate(-4 -4)"/><path class="cls-7" d="M839.1,917.27C790.74,902,751.62,865.11,698.38,848c-104.44-32.45-179.15-83.71-237.77-109.35-52.57-23-73.62-49-100.45-74.75C307.41,613.37,225.8,563.7,155.72,543.16c-7.65-12.38-6.3-11.86-1.72-22.16,6.62-14.88,29.51-23.89,43.23-42.64,25.08-34.32,50-35.17,68.67-68.84,18.26-32.89,24.39-30.1,45.57-56.89,20.75-26.2,22.4-32.1,37.13-63.07,14.39-30.44,16.62-34.9,27.88-45.91s34-39.2,33.6-56.25c-.22-6.3,3.26-12.48,7.47-17.78,9.6-1.64,58.49-8.53,115.89,17.45,62.16,28.13,90.28,123.72,129.17,140.58,38.23,16.64,123.93,45.42,167.64,64.41,42.79,18.77,29.83,63.86,94.86,91.49,63.1,26.81,93.36,11,157.79,38.86,33.12,14.35,33.59,11,51.74,26.13-5.1,11.83-12.6,34-19.67,57.11-7.18,23.43-13.9,47.81-17,63-8.6,41.14-19,53-34.56,93.51-16,41.65-31,53.68-38.72,108.67-4.09,29.56-5.28,44.76-11.79,58.23-1.15,2.37,2.74,9.94.82,11.89-11.52,11.67-22.17,7.76-39.53,2.23C917.94,925.3,886.52,932.27,839.1,917.27Z" transform="translate(-4 -4)"/><path class="cls-8" d="M336.41,287.86c7.77-16,13.58-59.73,25.83-71.64.57-.58,1.27-1.22,1.89-1.9a159.3,159.3,0,0,0,16.62-18.89c8.82-11.82,17-25.68,16.71-35.85-.17-6.11,3.11-12.22,7.46-17.32,9.48-1.59,52.62-25.47,110,1.06,62.27,28.86,90.48,122.84,129.42,140.15,18.13,8,47.28,19.14,77.41,30.56,33,12.58,67.29,25.6,90.16,35.88,36.84,16.48,32.57,50.88,71.78,78.38a133.77,133.77,0,0,0,23.17,12.81c63.14,27.56,93.48,12.87,158.06,41.45,33.08,14.5,59.92,33.87,77.87,48.87-25.07,59.43-14.84,63.2-27,106.56-.74,2.56-1.4,5-2,7.34a62.47,62.47,0,0,0-1.47,6.74c-3.7,17.67-9.9,102.34-29.15,126.45-12.74,31.91-37.14,48.78-46.53,85-9.19,35.88-12.32,58.25-22.86,77.47-14.4-7.75-37.42-18.94-53.71-24.29-56.15-18.4-94.09-7.27-141.72-22.62-48.66-15.62-77.66-64.67-130.85-82.29-36.76-12.21-83.71-27.82-130.11-46.65C510,745.9,463.2,723.67,429,699.1c-57.78-41.57-84.84-73.92-117.62-101.49C278.32,569.76,239.13,546.36,154,521c16.57-26.87,37.89-45.26,58.28-70.83,2.3-2.83,4.57-5.81,6.87-8.85,17-44.32,46.6-82.18,71.53-109C315.05,306,335.46,290,336.41,287.86Z" transform="translate(-4 -4)"/><path class="cls-9" d="M578,609c1.85,2.67,74.31,44.37,145.77,84.34,69.5,38.87,138.21,76.28,143.42,76.48,1.51.06,143.51,40,143.85,40.49,22.61,32,53.85,45.62,11.83-6.77-20.84-26-113.82-61.87-97-97.51-18.1-28.53-100.11-104.58-132.46-111.25-32.67-6.73-47.67-20.66-95-24.7-9.12-.78-149.25-36.64-117.13,32.11C580.09,604.49,578.92,606.73,578,609Z" transform="translate(-4 -4)"/><path class="cls-9" d="M559.3,359.27c-1.33,7.3,29.6,19.5,36.12,24.47,25,19.1,130.16,86.35,158.67,80.24,23.4-5,68.09,46.57,89.91,60.6,41.12,26.43,71.72,73.32,119.94,71.71,12.8-.43-116.45-121.09-134.56-146.26-3.77-5.26-55.58-58.44-64.52-61a838.55,838.55,0,0,1-113.81-41.13C638.82,342.43,560.86,350.74,559.3,359.27Z" transform="translate(-4 -4)"/><path class="cls-9" d="M353.3,294.22c2.54,10.32,59.65,34.3,76.8,48.95,27,23.09,39.66,29.85,66.21,58.1,18,19.18,79.36,29.79,105.23,43,7,3.58,59.53,32.71,59.91,32.78-16-37.72-91.79-30.85-130.67-77.74-26.91-32.46-75.53-56.45-111.3-82.64-6.31-4.63-38.52-30.12-47.8-25.25C363.41,295.74,352.13,289.47,353.3,294.22Z" transform="translate(-4 -4)"/><path class="cls-9" d="M969.48,859.29c.63,1.15-50.83,3.62-63.65.64-70-16.3-124.69-40.19-184-96.23-31.29-29.58-19.78-18.94,14.23-3.55,23.9,10.82,31.06,23.39,55,35.28,52.11,25.87,28.89,32.23,94.47,36.35,9.71.62,80,4.14,82.86,10.09C969.48,844.13,968.46,857.46,969.48,859.29Z" transform="translate(-4 -4)"/><path class="cls-9" d="M1067.14,754.84c-10.23-14-107.1-9-141.67-55.94-14.75-20-26.12-35.52,6.4-17.54,58.11,32.12,19.13,65.32,102.3,42.41,40.54-11.17,20.75,19.41,37.91,28.41C1076.52,754.5,1067.46,755.26,1067.14,754.84Z" transform="translate(-4 -4)"/><path class="cls-9" d="M237.31,489.44c47.14,13.43,63.18,20.43,96.68,52.84,30.44,29.48,81,14.6,123.9,77.34-5.78,18-93.74-48.16-113-54.92-42-14.68-53.65-27-84.51-58.78C257.84,503.36,233.89,488.47,237.31,489.44Z" transform="translate(-4 -4)"/><path class="cls-9" d="M449.48,157.52c-3.11-4.89,78.68,46.75,89.11,50.24,19.94,6.67,70.84,43.94,10.52,18.87-37.76-15.69-24.88-8.62-59.61-32.44C479.71,187.47,456.57,168.64,449.48,157.52Z" transform="translate(-4 -4)"/><path class="cls-7" d="M1041.06,849.9c-16.72-20.34-42.41-54-63.51-58.68-34.12-7.5-72.89-71-90.37-64.93C858.65,736.16,783.11,728,766.1,708.5c-32.12-36.85-168-108.36-218.77-102.24C470.25,615.54,471.21,541.44,405,506c-53.84-28.86-111.51-83.42-185.43-65.2,6.56-13.7,17.49-36,30.47-57.77a424.09,424.09,0,0,1,40.61-50.7q2.65-2.85,5.22-5.54c10.11-6.75,20-8.59,29-2.54,42.33,28.57,25.87-3.32,70.21,55.53,43.58,57.85,144.13,46,184.79,107.91,25.28,38.48,78,45.45,131.7,56.11C763.73,554.11,817,568,850.54,619.57c13.94,21.4,44.83,44.47,66.71,84.28,25.35,46.13,107.91,72.56,146.62,84.78,4.49,1.43,9.76.89,14.26.59C1066.81,810.8,1050.74,826.23,1041.06,849.9Z" transform="translate(-4 -4)"/><path class="cls-7" d="M390.93,180.46l-.93,1.07a141.47,141.47,0,0,1-9.25,13.9,159.08,159.08,0,0,1-16.4,18.68c-10.21,14.94-16.61,28.81-3.92,27.45,43.31,20.09,75.5-12.06,137.44,69.93,32.48,43,87.33,58.59,130.49,76.9,28,11.88,44.16,28.77,74.89,20.72,20.13-5.26,64,26.72,104.87,64.52,40.54,37.49,78.86,81.39,89.3,101.9,17.44,34.3,93,60.74,123.31,57.65,28-2.84,66.88,28.69,89.09,35.05.94-7.19,1.72-12.85,2.41-16.17a62.47,62.47,0,0,1,1.47-6.74c.63-2.33,1.29-4.78,2-7.34,7.13-25.38,6.57-37.19,9.92-54.56-26.76-16.49-128.89-30.69-142.5-38.15-32.21-17.68-62.24-25.11-100.47-48.7C798.74,444.81,825,442.81,762.45,383.3,735.86,358,688.22,337.49,637,317.08c-52.47-20.92-109.08-41.68-149-66.29C468.39,238.71,402.54,191,390.32,181l.37-.66Z" transform="translate(-4 -4)"/><path class="cls-6" d="M250.06,383a15.32,15.32,0,0,0-1.16,1.93c21.83-26.9,111,31.09,128.93,49.86,9.9,10.35,61.75,54.4,76.36,51.66,21.36-4,33.3,23.85,55.2,36,44.44,24.68,28.17,43.08,87.43,45.5,40,1.64,68.06,18.07,113.58,18.15,1.44,0,112.15,56.7,95.23,47.87-19.53-10.2-11.68-19.17-46.47-28.53-32.78-8.81-56.78-19.1-86.52-38.38-9.06-5.86-64.78-12.46-92.66-28.51-17.87-10.28-92.53-51.72-107.59-69.6-13.88-16.47-69.51-21.53-107.44-67.41-30.58-37-53.43-34-96.6-43.39C262.17,365.91,256,374.22,250.06,383Z" transform="translate(-4 -4)"/><path class="cls-6" d="M1050.36,831.78c-21.07-14.73-59.15-35.93-70.89-53.31-12.84-19-30.26-11.25-37.22-19.21,5.35-6.5,52,13.15,61.47,24.3,6.42,7.58,42.64,20.18,65.41,20.61C1062.93,813.45,1056.27,822.13,1050.36,831.78Z" transform="translate(-4 -4)"/><path class="cls-6" d="M1116.71,634.35c-13.32-11.08-45.76-32.07-59.87-27.12-66,23.21-93.35-10.45-147.85-51.26-29-21.73-62.37-55.51-86.66-87.86-8.72-11.62,29.79,23.62,35.25,30.46,6.37,8,29,34.33,34.82,39.28,17.19,14.69,93.21,69.09,115.54,57.2,33.42-17.8,53.76,5.71,82.63,11.67,14.74,3-.67,6.47,21.13,1.51,1.46-.33,6.12-.21,10.3.21A215.81,215.81,0,0,1,1116.71,634.35Z" transform="translate(-4 -4)"/><path class="cls-6" d="M368.48,210c-7.28,11.21-15,23.31-10.38,14.33,11.51-7.57,41.92,7.23,66.3,7.53,24,.31,60.73,63.58,85.83,77.75,23.66,13.35,46.69,39.77,72.65,44.52,36.4,6.68,62.82,52.64,113.56,30.73,20-8.63,57.69,29.62,50,.07-2.59-10-16.12-13.1-26-9.34-24.42,9.3-49.24-5.55-74.75-13-20.76-6.09-39.3-25.81-67.45-31.34-44.44-8.73-98-85.09-152.56-110.06-7.58-3.46-40.2-16-46.32-23.94C375.67,202,371.84,206.42,368.48,210Z" transform="translate(-4 -4)"/></g></svg>