<svg xmlns="http://www.w3.org/2000/svg" viewBox="0 0 1500 1500"><defs><style>.cls-1{fill:#fff;}.cls-2{fill:#fac262;}.cls-3{fill:#fab128;}.cls-4{fill:#faa70e;}.cls-5{fill:#e09000;}</style></defs><g id="ƒŒƒCƒ__6" data-name="ƒŒƒCƒ„[_6"><rect class="cls-1" width="1500" height="1500" rx="418.14"/><path class="cls-2" d="M128.05,833.33q3.31,36.81,9.79,70.78C270.36,1605.23,1357,1419,1367,777a511.06,511.06,0,0,0-5.29-79.53c-12.8-90.34-48.58-189.44-105.83-278.94-149-232.9-443.55-400.8-857.88-180-145.7,77.65-237.22,235.29-266.31,399.64C123.54,708.88,122.65,773.87,128.05,833.33Z" transform="translate(0.29 -2.57)"/><path class="cls-3" d="M142.28,637.74C84.63,1562.48,1214.18,1403.34,1336,882.19c31-132.38-32.69-454.58-223.93-596.14C909.74,136.24,541.64,211.71,419.63,282,295.14,353.62,168.45,489.85,142.28,637.74Z" transform="translate(0.29 -2.57)"/><path class="cls-4" d="M128.05,833.33q3.31,36.81,9.79,70.78c453.95-124.88,918.68-232,1223.82-206.68-12.8-90.34-48.58-189.44-105.83-278.94C934.79,611.42,550.61,751.24,128.05,833.33Z" transform="translate(0.29 -2.57)"/><path class="cls-5" d="M1169.71,467.58c-.68,3.88,1.6,8,5.42,8.66s8.85-2.06,9.53-5.93-3-8.55-6.85-9.24S1170.4,463.71,1169.71,467.58Z" transform="translate(0.29 -2.57)"/><path class="cls-5" d="M1091.74,588c-2.5,14.13,4.84,22.68,18.77,25.22s30.48-1.66,33-15.79-9.89-33.47-23.82-36S1094.24,573.85,1091.74,588Z" transform="translate(0.29 -2.57)"/><path class="cls-5" d="M1141.86,728.17c-1.62,9.16,3.55,16.53,12.58,18.17s17-3.32,18.63-12.48-4.45-15-13.48-16.63S1143.49,719,1141.86,728.17Z" transform="translate(0.29 -2.57)"/><path class="cls-5" d="M984.84,433.9c-1.77,10,2.33,17.64,12.21,19.44s19.59-3.3,21.37-13.32-5.66-17.84-15.54-19.64S986.62,423.88,984.84,433.9Z" transform="translate(0.29 -2.57)"/><path class="cls-5" d="M922.89,557.22c-1.44,8.13,4.34,15.7,12.35,17.16s16.35-3.54,17.79-11.67-4.71-15.5-12.72-17S924.32,549.09,922.89,557.22Z" transform="translate(0.29 -2.57)"/><path class="cls-5" d="M956.27,694.36c-2.32,13.11,7,27.78,19.9,30.13s25.71-8.29,28-21.4-7-22.17-19.9-24.52S958.59,681.25,956.27,694.36Z" transform="translate(0.29 -2.57)"/><path class="cls-5" d="M815.7,403.09c-.85,4.82,1.49,9.71,6.24,10.57s8.3-3,9.15-7.77S830,396,825.21,395.18,816.55,398.27,815.7,403.09Z" transform="translate(0.29 -2.57)"/><path class="cls-5" d="M727.9,519.28c-2.27,12.84,7.91,27.35,20.56,29.66s22.95-8.48,25.22-21.32-3.79-25.94-16.45-28.24S730.17,506.44,727.9,519.28Z" transform="translate(0.29 -2.57)"/><path class="cls-5" d="M787.24,663.57c-1.62,9.16,5,18.24,14.07,19.88s20.41-4.15,22-13.31-6.79-20.17-15.82-21.81S788.86,654.41,787.24,663.57Z" transform="translate(0.29 -2.57)"/><path class="cls-5" d="M649.94,356.42c-9.47-1.72-17.54,3.36-19.24,13s4,17.94,13.47,19.66,18.52-3.91,20.22-13.52S659.41,358.14,649.94,356.42Z" transform="translate(0.29 -2.57)"/><path class="cls-5" d="M571.1,493.13c-1.34,7.58,4.06,14,11.54,15.4s16.88-2.4,18.23-10-6.46-12.95-13.93-14.31S572.45,485.55,571.1,493.13Z" transform="translate(0.29 -2.57)"/><path class="cls-5" d="M614.75,632.14c-1.63,9.16.79,19.17,9.82,20.81s17.54-6.37,19.17-15.53-3.58-19.9-12.6-21.55S616.37,623,614.75,632.14Z" transform="translate(0.29 -2.57)"/><path class="cls-5" d="M455.48,337.46c-1.62,9.16,3.28,17.43,12.31,19.08a16.67,16.67,0,0,0,19.56-13.27c1.63-9.16-4.35-20-13.38-21.65S457.1,328.3,455.48,337.46Z" transform="translate(0.29 -2.57)"/><path class="cls-5" d="M390.67,460.26c-1.62,9.16,6.12,16.62,15.15,18.26s18.2-2.73,19.83-11.89-5.09-18.75-14.12-20.39S392.29,451.09,390.67,460.26Z" transform="translate(0.29 -2.57)"/><path class="cls-5" d="M442.44,600.75c-1,5.56,1.38,12.46,6.86,13.46s13-4.11,13.94-9.67-4.59-11.21-10.07-12.21S443.42,595.19,442.44,600.75Z" transform="translate(0.29 -2.57)"/><path class="cls-5" d="M1068,329.55c-1.62,9.16,3.41,20.59,12.44,22.23s17.06-7.4,18.69-16.56-2.73-20.94-11.76-22.58S1069.59,320.39,1068,329.55Z" transform="translate(0.29 -2.57)"/><path class="cls-5" d="M1258.56,652.61c-1.63,9.16,6.94,16.94,16,18.58s18-2.94,19.59-12.1-5.35-15.7-14.37-17.34S1260.18,643.45,1258.56,652.61Z" transform="translate(0.29 -2.57)"/><path class="cls-5" d="M256.28,578c-1.53,8.65,6.87,16.81,15.4,18.36s14.68-4,16.21-12.61-2.58-14.65-11.11-16.2S257.82,569.35,256.28,578Z" transform="translate(0.29 -2.57)"/><path class="cls-5" d="M592.19,231.09c-2.29,12.94,4.92,25.9,17.68,28.23s24-7.29,26.24-20.23-5-25.52-17.73-27.84S594.48,218.14,592.19,231.09Z" transform="translate(0.29 -2.57)"/><path class="cls-5" d="M760.29,273.49c-.94,5.3,1.88,9.45,7.11,10.4s9.41-1.91,10.35-7.22-2.17-8.5-7.4-9.45S761.23,268.19,760.29,273.49Z" transform="translate(0.29 -2.57)"/><path class="cls-5" d="M921.28,291c-1.62,9.16,2.25,18.72,11.27,20.36s20.09-5.19,21.71-14.35-7-16.28-16-17.93S922.9,281.88,921.28,291Z" transform="translate(0.29 -2.57)"/><path class="cls-5" d="M327.19,975.72c.68-3.87-1.6-8-5.42-8.66s-8.85,2.07-9.53,5.94,3,8.55,6.85,9.24S326.5,979.6,327.19,975.72Z" transform="translate(0.29 -2.57)"/><path class="cls-5" d="M405.16,855.33c2.5-14.13-4.84-22.68-18.77-25.22s-30.48,1.66-33,15.79,9.89,33.47,23.82,36S402.66,869.46,405.16,855.33Z" transform="translate(0.29 -2.57)"/><path class="cls-5" d="M355,715.13c1.62-9.16-3.55-16.52-12.58-18.16s-17,3.32-18.63,12.48,4.45,15,13.48,16.63S353.41,724.29,355,715.13Z" transform="translate(0.29 -2.57)"/><path class="cls-5" d="M512.06,1009.41c1.77-10-2.33-17.65-12.21-19.44s-19.59,3.3-21.37,13.32,5.66,17.84,15.54,19.64S510.29,1019.42,512.06,1009.41Z" transform="translate(0.29 -2.57)"/><path class="cls-5" d="M574,886.09c1.44-8.13-4.34-15.7-12.35-17.16s-16.35,3.54-17.79,11.67,4.71,15.5,12.72,17S572.58,894.22,574,886.09Z" transform="translate(0.29 -2.57)"/><path class="cls-5" d="M540.63,749c2.32-13.11-7-27.78-19.9-30.13s-25.71,8.29-28,21.4,7,22.17,19.9,24.52S538.31,762.06,540.63,749Z" transform="translate(0.29 -2.57)"/><path class="cls-5" d="M681.2,1040.22c.86-4.82-1.49-9.71-6.24-10.57s-8.3,2.95-9.15,7.77,1.13,9.85,5.88,10.71S680.35,1045,681.2,1040.22Z" transform="translate(0.29 -2.57)"/><path class="cls-5" d="M769,924c2.27-12.84-7.91-27.36-20.56-29.66s-23,8.48-25.22,21.32,3.79,25.94,16.45,28.24S766.73,936.87,769,924Z" transform="translate(0.29 -2.57)"/><path class="cls-5" d="M709.66,779.74c1.62-9.16-5-18.24-14.07-19.88s-20.41,4.15-22,13.31,6.79,20.16,15.82,21.81S708,788.9,709.66,779.74Z" transform="translate(0.29 -2.57)"/><path class="cls-5" d="M847,1086.89c9.47,1.72,17.54-3.36,19.24-13s-4-17.94-13.47-19.66-18.52,3.91-20.22,13.52S837.49,1085.16,847,1086.89Z" transform="translate(0.29 -2.57)"/><path class="cls-5" d="M925.8,950.18c1.34-7.58-4.06-14-11.54-15.4s-16.88,2.4-18.22,10,6.45,13,13.92,14.31S924.46,957.76,925.8,950.18Z" transform="translate(0.29 -2.57)"/><path class="cls-5" d="M882.15,811.17c1.63-9.16-.79-19.17-9.82-20.81s-17.54,6.37-19.16,15.53,3.57,19.9,12.6,21.55S880.53,820.33,882.15,811.17Z" transform="translate(0.29 -2.57)"/><path class="cls-5" d="M1041.42,1105.85c1.62-9.16-3.28-17.44-12.31-19.08a16.67,16.67,0,0,0-19.56,13.27c-1.62,9.16,4.35,20,13.38,21.65S1039.8,1115,1041.42,1105.85Z" transform="translate(0.29 -2.57)"/><path class="cls-5" d="M1106.23,983.05c1.62-9.16-6.12-16.62-15.14-18.26s-18.21,2.73-19.84,11.89,5.09,18.75,14.12,20.39S1104.61,992.21,1106.23,983.05Z" transform="translate(0.29 -2.57)"/><path class="cls-5" d="M1054.46,842.56c1-5.56-1.38-12.46-6.86-13.46s-13,4.11-13.94,9.67,4.59,11.21,10.07,12.21S1053.48,848.12,1054.46,842.56Z" transform="translate(0.29 -2.57)"/><path class="cls-5" d="M428.93,1113.76c1.62-9.16-3.41-20.59-12.44-22.23s-17.06,7.4-18.68,16.56,2.72,20.94,11.75,22.58S427.31,1122.92,428.93,1113.76Z" transform="translate(0.29 -2.57)"/><path class="cls-5" d="M238.34,790.69c1.63-9.16-6.93-16.93-16-18.57s-18,2.94-19.59,12.1,5.35,15.7,14.38,17.34S236.72,799.85,238.34,790.69Z" transform="translate(0.29 -2.57)"/><path class="cls-5" d="M1240.62,865.31c1.53-8.65-6.87-16.81-15.4-18.36s-14.68,3.95-16.21,12.6,2.59,14.66,11.11,16.21S1239.08,874,1240.62,865.31Z" transform="translate(0.29 -2.57)"/><path class="cls-5" d="M904.71,1212.22c2.29-12.94-4.92-25.9-17.68-28.23s-23.95,7.29-26.24,20.23,5,25.52,17.73,27.84S902.42,1225.17,904.71,1212.22Z" transform="translate(0.29 -2.57)"/><path class="cls-5" d="M736.61,1169.82c.94-5.31-1.88-9.45-7.11-10.4s-9.41,1.91-10.35,7.22,2.17,8.5,7.4,9.45S735.67,1175.12,736.61,1169.82Z" transform="translate(0.29 -2.57)"/><path class="cls-5" d="M575.62,1152.27c1.62-9.16-2.24-18.72-11.27-20.36s-20.09,5.19-21.71,14.35,7,16.28,16,17.93S574,1161.43,575.62,1152.27Z" transform="translate(0.29 -2.57)"/></g></svg>