<svg id="Layer_1" data-name="Layer 1" xmlns="http://www.w3.org/2000/svg" viewBox="0 0 373.12 303.25"><defs><style>.cls-1{fill:#69b5e6;}</style></defs><path class="cls-1" d="M2233.85,1699a154.36,154.36,0,0,1-28.92,13.32,152.67,152.67,0,0,1-19.7,5.27,76.56,76.56,0,0,0-132.41,52.34,78.4,78.4,0,0,0,2,17.49,221.17,221.17,0,0,1-23.34-2.45A217.64,217.64,0,0,1,1897,1707.39a76.58,76.58,0,0,0,23.72,102.19A75.92,75.92,0,0,1,1886,1800c0,.35,0,.65,0,1a76.57,76.57,0,0,0,61.4,75,76.8,76.8,0,0,1-20.15,2.7,75.85,75.85,0,0,1-14.4-1.41,76.66,76.66,0,0,0,71.51,53.2,153.49,153.49,0,0,1-95.09,32.78,157.57,157.57,0,0,1-18.25-1.07,216.81,216.81,0,0,0,83.62,31.8,219.23,219.23,0,0,0,33.73,2.61c140.82,0,217.82-116.68,217.82-217.84,0-3.3,0-6.61-.23-9.88a155.43,155.43,0,0,0,38.18-39.65,153.49,153.49,0,0,1-44,12.06A77,77,0,0,0,2233.85,1699Z" transform="translate(-1871.01 -1693.37)"/></svg>