<svg id="Ñëîé_1" data-name="Ñëîé 1" xmlns="http://www.w3.org/2000/svg" xmlns:xlink="http://www.w3.org/1999/xlink" viewBox="0 0 1486.71 1442.6"><defs><style>.cls-1{fill:url(#linear-gradient);}.cls-2{fill:url(#linear-gradient-2);}.cls-3{fill:url(#linear-gradient-3);}.cls-4{fill:url(#linear-gradient-4);}</style><linearGradient id="linear-gradient" x1="5182.38" y1="848.19" x2="6326.59" y2="848.19" gradientUnits="userSpaceOnUse"><stop offset="0" stop-color="#3acfd5"/><stop offset="1" stop-color="#009ff2"/></linearGradient><linearGradient id="linear-gradient-2" x1="6186.3" y1="1469.93" x2="6186.3" y2="1205.6" gradientTransform="matrix(1.11, 0.01, 0.01, 1.09, -685.52, -160.11)" gradientUnits="userSpaceOnUse"><stop offset="0" stop-color="#3acfd5"/><stop offset="1" stop-color="#04a2f0"/></linearGradient><linearGradient id="linear-gradient-3" x1="4883.55" y1="1262.19" x2="6027.32" y2="1262.19" xlink:href="#linear-gradient"/><linearGradient id="linear-gradient-4" x1="4883.24" y1="771.08" x2="5167.7" y2="771.08" gradientTransform="matrix(1.11, -0.01, -0.01, 1.13, -567.23, -80.59)" gradientUnits="userSpaceOnUse"><stop offset="0" stop-color="#3acfd5"/><stop offset="1" stop-color="#38cdd6"/></linearGradient></defs><path class="cls-1" d="M5605.69,528.88a523.35,523.35,0,0,1,280.94,81.63c207.95,131.77,292.07,386.18,218.06,610-4.52,13.67,11.29,25,22.77,16.3h0a14.67,14.67,0,0,1,20.55,2.84l88.64,117a14.67,14.67,0,0,0,25-2.75c65.1-142.34,82-301.23,47.18-456.6-42.16-188.05-155-348.43-317.82-451.59-245.93-155.84-551.06-144-780.5,5.3A62,62,0,0,0,5195,540.4L5238,597.25a61.84,61.84,0,0,0,82.51,14.94A529.88,529.88,0,0,1,5605.69,528.88Z" transform="translate(-4870.42 -333.89)"/><path class="cls-2" d="M6151.79,1486.47,6341,1363c24.8-16.17,20-53.45-8.15-63.79l-254.59-93.41c-28.18-10.34-55.93,15-47.48,43.37l64.51,216.55A37.52,37.52,0,0,0,6151.79,1486.47Z" transform="translate(-4870.42 -333.89)"/><path class="cls-3" d="M5971.67,1513.08a61.81,61.81,0,0,0-82.48-14.93A529.89,529.89,0,0,1,5604,1581.47a523.41,523.41,0,0,1-280.94-81.63c-207.94-131.77-292.07-386.18-218.06-610,4.52-13.67-11.29-25-22.77-16.3h0a14.68,14.68,0,0,1-20.56-2.84l-88.59-117a14.68,14.68,0,0,0-25.05,2.77c-146.91,322.47-37,713.19,270.61,908.11a717.06,717.06,0,0,0,385,111.88,726.13,726.13,0,0,0,395.6-117.31,61.88,61.88,0,0,0,15.46-89.2Z" transform="translate(-4870.42 -333.89)"/><path class="cls-4" d="M5069.2,619.71,4890,741.28c-29.69,20.13-24.58,65.63,8.74,77.85l229.59,84.24c33.32,12.23,66.64-19.17,57-53.72L5127.23,641A38.07,38.07,0,0,0,5069.2,619.71Z" transform="translate(-4870.42 -333.89)"/></svg>