<svg id="Ñëîé_1" data-name="Ñëîé 1" xmlns="http://www.w3.org/2000/svg" xmlns:xlink="http://www.w3.org/1999/xlink" viewBox="0 0 297.89 408.7"><defs><style>.cls-1{fill:url(#linear-gradient);}.cls-2{fill:#fbcbab;}.cls-3{fill:#eca182;}.cls-4{fill:#db9172;}.cls-5{fill:#1d2247;}.cls-6{fill:url(#linear-gradient-2);}</style><linearGradient id="linear-gradient" x1="759.54" y1="985.71" x2="1057.43" y2="985.71" gradientUnits="userSpaceOnUse"><stop offset="0" stop-color="#36a9e1"/><stop offset="1" stop-color="#27348b"/></linearGradient><linearGradient id="linear-gradient-2" x1="815.71" y1="720.63" x2="947.68" y2="720.63" gradientUnits="userSpaceOnUse"><stop offset="0" stop-color="#1d2247"/><stop offset="1" stop-color="#2d2e83"/></linearGradient></defs><path class="cls-1" d="M1035.08,925.53c23.18,11.72,29.68,47.87,13.08,70.79-34.11,47.11-84,76.82-139.68,76.82S802.72,1043.3,768.59,996c-15.89-22-10.12-56.39,11.45-69.39.77-.46,1.52-.9,2.24-1.31a185.77,185.77,0,0,1,56.65-21.12c22.22-4.22,46.59-5.93,69.55-5.93,64.06,0,95.5,11.67,126.2,27.05Z" transform="translate(-759.54 -664.44)"/><path class="cls-2" d="M954.35,900.71V861H862.62v39.72c-13.93,2.12-23.62,6.38-23.62,15.34,0,17.47,26.42,35.63,69.48,35.63,44.62,0,69.49-18.16,69.49-35.63C978,907.09,968.28,902.83,954.35,900.71Z" transform="translate(-759.54 -664.44)"/><path class="cls-2" d="M852.5,812.39c0-12.34-6-27.36-13.5-27.36s-15.09,2.37-15.09,14.72c0,5.94,2.36,19.25,4.65,25.09,2.46,6.28,6.58,9.9,10.44,9.9C846.46,834.74,852.5,824.73,852.5,812.39Z" transform="translate(-759.54 -664.44)"/><path class="cls-3" d="M964.46,812.39c0-12.34,6-27.36,13.5-27.36s15.09,2.37,15.09,14.72c0,5.94-2.35,19.25-4.64,25.09-2.46,6.28-6.58,9.9-10.45,9.9C970.51,834.74,964.46,824.73,964.46,812.39Z" transform="translate(-759.54 -664.44)"/><path class="cls-4" d="M954.36,870.28v21.08a71.57,71.57,0,0,1-6,4.22c-8,5-13.63,8.28-18.87,10.25A44,44,0,0,1,913,908.54c-12.85,0-19.43-2.89-35.39-13A69.89,69.89,0,0,1,862.62,883V870.3a70.74,70.74,0,0,0,10.46,8c16,10.08,22.56,13,35.41,13A44,44,0,0,0,925,888.6c5.24-2,10.87-5.22,18.87-10.26A70.12,70.12,0,0,0,954.36,870.28Z" transform="translate(-759.54 -664.44)"/><path class="cls-2" d="M908.48,709.13h0c-55.21,0-70.27,42.62-70.27,95.18,0,34.87,12.17,59.7,34.87,74,16,10.08,22.55,13,35.4,13h0c12.85,0,19.43-2.89,35.4-13,22.71-14.33,34.88-39.16,34.88-74C978.76,751.75,963.7,709.13,908.48,709.13Z" transform="translate(-759.54 -664.44)"/><path class="cls-3" d="M908.48,709.13c-1,0-1.86,0-2.79.07,48.85,1.44,62.31,43.46,62.31,95.11,0,34.87-11.23,59.7-32.2,74-13.64,9.32-19.87,12.48-30.11,12.91.9,0,1.82.06,2.79.06,12.85,0,19.43-2.89,35.4-13,22.71-14.33,34.88-39.16,34.88-74C978.76,751.75,963.69,709.13,908.48,709.13Z" transform="translate(-759.54 -664.44)"/><path class="cls-5" d="M999.34,731.07c-.52-11.83-3.35-28.26-22.31-33a96.82,96.82,0,0,1-16-5.84c-7-3.25-13.4-10.68-33.42-18.22C911,667.76,880,662,863.66,665.56c-22.62,5-22.8,20.36-28.76,26.25-6.56,6.47-18,12.85-19,21.16-1.63,12.55,10.9,22,10.39,33.84-.41,9.55-4.06,19.24-1.46,28.93,1.38,5.14,8.44,8.89,9.5,14.15.61,3,1.45,10.38,3.92,12.85,5.32,5.3,5.35-28.66,6.58-38.79,1-8.51,4-18.05,9.49-25.31,7-9.34,18.33-8.24,29.38-6.08,11.23,2.19,21.73,4.21,33.41,3s24-5.91,35.39-1c10.68,4.6,16.89,15,19.43,24.91,1.26,4.95.18,38.56,6.08,40.78,3.11,1.17,4.2-9.91,10.08-13.66,5-3.21,6.52-7.08,7.65-12.42A185.89,185.89,0,0,0,999.34,731.07Z" transform="translate(-759.54 -664.44)"/><path class="cls-4" d="M978,800.22c-5.89-2.23-4.82-35.83-6.08-40.77-2.53-9.92-8.74-20.32-19.42-24.91-11.37-4.9-23.75-.22-35.41,1s-22.17-.81-33.4-3c-11.06-2.16-22.34-3.26-29.38,6.08-5.47,7.26-8.46,16.79-9.49,25.32-1.14,9.39-1.26,39.33-5.52,39.33,4.53.45,6.38-24.16,7.54-32.47,1-7.5,3-20,8.55-26.36,10.56-12.16,21.88-8.91,32.49-5.51,11.75,3.76,17.55,5.76,29.21,4.68s24-5.2,35.41-.88c10.68,4,17.54,12.11,19,23.14.58,4.48.58,32.74,6.47,34.7a.52.52,0,0,0,.69-.31A1.18,1.18,0,0,1,978,800.22Zm-140.17,2a1.58,1.58,0,0,0,.41.54,1.76,1.76,0,0,0,.42.29,2.6,2.6,0,0,1-.42-.35C838.08,802.6,837.94,802.43,837.8,802.26Z" transform="translate(-759.54 -664.44)"/><path class="cls-6" d="M927.61,674c-16.6-6.25-47.64-12.06-64-8.46-22.62,5-22.8,20.37-28.76,26.25-6.55,6.48-18,12.86-19,21.17-1.62,12.55,10.91,22,10.4,33.84-.42,9.55-4.07,19.24-1.45,28.93a6,6,0,0,0,.26.83l.05.12c.93,1.54.67-11,7.24-19.13,7.1-8.82,6.43-24.57.5-39.15-2.29-5.65-3.11-19.48,17.9-20.85,9.13-.6,17.51-9.88,29.62-17.52,21.59-13.61,56.76,8.19,65.72,6.74a11.32,11.32,0,0,0,1.59-.38A63.29,63.29,0,0,0,927.61,674Z" transform="translate(-759.54 -664.44)"/></svg>