<svg id="Layer_1" data-name="Layer 1" xmlns="http://www.w3.org/2000/svg" xmlns:xlink="http://www.w3.org/1999/xlink" viewBox="0 0 1500 1500"><defs><style>.cls-1{fill:#fff;}.cls-2{opacity:0.22;}.cls-3{fill:url(#linear-gradient);}.cls-4{fill:url(#linear-gradient-2);}.cls-5{fill:url(#linear-gradient-3);}.cls-6{fill:url(#linear-gradient-4);}.cls-7{fill:url(#linear-gradient-5);}</style><linearGradient id="linear-gradient" x1="471.49" y1="1153.6" x2="1596.13" y2="1153.6" gradientTransform="translate(-283.81 -699.63)" gradientUnits="userSpaceOnUse"><stop offset="0" stop-color="#40ff2a"/><stop offset="1" stop-color="#00bf41"/></linearGradient><linearGradient id="linear-gradient-2" x1="1410.61" y1="653.81" x2="1608.38" y2="653.81" gradientTransform="translate(1822.71 1746.93) rotate(180)" gradientUnits="userSpaceOnUse"><stop offset="0" stop-color="#3dfc2b"/><stop offset="1" stop-color="#03c240"/></linearGradient><linearGradient id="linear-gradient-3" x1="1109.48" y1="705.45" x2="1307.25" y2="705.45" gradientTransform="translate(1822.71 1746.93) rotate(180)" gradientUnits="userSpaceOnUse"><stop offset="0.01" stop-color="#3bfa2c"/><stop offset="1" stop-color="#03c240"/></linearGradient><linearGradient id="linear-gradient-4" x1="507.24" y1="821.68" x2="704.99" y2="821.68" xlink:href="#linear-gradient-2"/><linearGradient id="linear-gradient-5" x1="808.36" y1="772.15" x2="1006.12" y2="772.15" gradientTransform="translate(1822.71 1746.93) rotate(180)" gradientUnits="userSpaceOnUse"><stop offset="0" stop-color="#37f62d"/><stop offset="1" stop-color="#04c340"/></linearGradient></defs><g id="Layer_1-2" data-name="Layer 1"><rect class="cls-1" width="1500" height="1500" rx="336.29"/><g class="cls-2"><polygon class="cls-1" points="793.54 164.06 672.83 413.57 619.37 413.57 733.85 164.06 793.54 164.06"/></g><g class="cls-2"><polygon class="cls-1" points="694.2 164.39 573.5 413.89 471.77 413.9 586.25 164.39 694.2 164.39"/></g><path class="cls-3" d="M1260.64,190.75H1039.38c-28.55,0-51.69,21.12-51.69,47.22s23.14,47.23,51.69,47.23h96.5L837.57,557.79,599.82,340.58c-20.19-18.45-52.89-18.45-73.08,0l-323.92,296c-20.19,18.45-20.19,48.33,0,66.78a55.19,55.19,0,0,0,73.08,0L563.28,440.69,801,658c20.19,18.44,52.9,18.44,73.09,0L1209,352v88.24c0,26.1,23.14,47.22,51.68,47.22s51.68-21.12,51.68-47.22V238C1312.32,211.87,1289.18,190.75,1260.64,190.75Z"/><path class="cls-4" d="M379.16,953.87H247.26c-18.18,0-32.93,16.66-32.93,37.2v204.08c0,20.56,14.75,37.22,32.93,37.22h131.9c18.19,0,32.94-16.66,32.94-37.22V991.07C412.1,970.53,397.35,953.87,379.16,953.87Z"/><path class="cls-5" d="M680.29,850.57H548.39c-18.18,0-32.93,19.25-32.93,43v295.81c0,23.74,14.75,43,32.93,43h131.9c18.19,0,32.94-19.25,32.94-43V893.54C713.23,869.82,698.48,850.57,680.29,850.57Z"/><path class="cls-6" d="M1282.54,618.14H1150.65c-18.19,0-32.93,16.51-32.93,36.87v540.47c0,20.37,14.74,36.89,32.93,36.89h131.89c18.19,0,32.93-16.52,32.93-36.89V655C1315.47,634.65,1300.71,618.14,1282.54,618.14Z"/><path class="cls-7" d="M981.42,717.19H849.52c-18.19,0-32.93,17.71-32.93,39.55v436.07c0,21.85,14.74,39.56,32.93,39.56h131.9c18.18,0,32.93-17.71,32.93-39.56V756.74C1014.35,734.93,999.6,717.19,981.42,717.19Z"/></g></svg>