<svg xmlns="http://www.w3.org/2000/svg" viewBox="0 0 1500 1500"><defs><style>.cls-1{fill:#fff;}.cls-2{fill:#309700;}.cls-3{fill:#a7e34c;}.cls-4{fill:#8dcc41;}.cls-5{fill:#258845;}.cls-6{fill:#4eaa35;}.cls-7{fill:#127539;}.cls-8{fill:#ff830d;}.cls-9{fill:#ff9212;}.cls-10{fill:#ea7500;}.cls-11{fill:#769f00;}.cls-12{fill:#8cc300;}.cls-13{fill:#c3e141;}.cls-14{fill:#a9da00;}</style></defs><g id="ƒŒƒCƒ__6" data-name="ƒŒƒCƒ„[_6"><rect class="cls-1" width="1500" height="1500" rx="418.14"/><path class="cls-2" d="M564.7,525.3,466.48,654l176,344.86,50.66,275.67,235.9-44.83L800.61,480.47Zm36.92,169.94L514.3,643l21.83-45.27L623.45,650Z" transform="translate(-4 -4)"/><path class="cls-3" d="M1020.19,585.37c-17.34-22.46-69-2.56-86.29-25-99.13,91.13-144.74,235.22-119.2,376.52l25.16,153.64a6.94,6.94,0,0,1-4,7.66h0c-3.51,1.37-7.38-.93-8.3-5-21-91.63-36-184.27-47.08-276.85l-72.7,23.25c21,94.75,37.84,190.4,47.64,286.66a4.08,4.08,0,0,1-2.41,4.26h0a3.72,3.72,0,0,1-4.85-2.67L706.48,986c-41-149.6-151.84-264.38-289.67-299.91L398,778.44c106.84,29.32,191.58,120,221.21,236.45l28.73,96.86a686.84,686.84,0,0,1,22.93,109.38l4,31.75c3,24,23.58,40.59,45.11,36.5l191-36.29c20.45-3.89,34.08-25.09,30.69-47.77L920.73,1065,897.82,921.34C876.06,812.36,944.05,657.47,1020.19,585.37Z" transform="translate(-4 -4)"/><path class="cls-4" d="M1020.19,585.37c-16.5-21.38-64.06-4.38-83.55-22.07C872.94,646,825.33,789.91,851.62,889l31.75,141.77,29.57,138.57c4.78,22.4-7.48,44.61-27.62,50L697.25,1270a34.69,34.69,0,0,1-16.46.41c8.23,13.91,23.44,22,39.17,19l191-36.29c20.45-3.89,34.08-25.09,30.69-47.77L920.73,1065,897.82,921.34C876.06,812.36,944.05,657.47,1020.19,585.37Z" transform="translate(-4 -4)"/><path class="cls-5" d="M551,590.12l77-45.33c-36.32-115.22-144.82-188.59-256-167.27C249.5,401,169,529.74,192.25,665.21c7.51,43.8,24.95,82.95,49.26,115.09,15.2,20.11,41.51,24.69,61.29,11h0a43,43,0,0,1,37.17-6h0c46.8,14,96.5,4.16,135.23-26.89l1.56-1.25c35.56-28.54,59.52-71.26,66.91-119.28Z" transform="translate(-4 -4)"/><path class="cls-6" d="M528.84,677.5c-38.73,31.06-88.43,40.93-135.22,26.9h0a43,43,0,0,0-37.17,6c-19.78,13.73-46.09,9.14-61.29-11-24.31-32.15-41.75-71.29-49.26-115.09a269.33,269.33,0,0,1,15.82-147.92C206,491.74,177.13,577,192.25,665.21c7.51,43.8,24.95,82.95,49.26,115.09,15.2,20.11,41.51,24.69,61.29,11a43,43,0,0,1,37.17-6h0c46.8,14,96.5,4.16,135.23-26.89l1.56-1.25c26.81-21.52,47-51.1,58.51-84.94-1.6,1.39-3.22,2.76-4.87,4.08Z" transform="translate(-4 -4)"/><path class="cls-7" d="M628.05,544.79c-36.32-115.22-144.82-188.59-256-167.27a208.79,208.79,0,0,0-41,12.34c-13.72,27.1-19.16,56.1-14.23,84.87C331.47,559.9,431.92,613.57,549,603.52l2.06-13.4Z" transform="translate(-4 -4)"/><path class="cls-5" d="M882.42,685c-6.85-40-46.72-67.84-97.78-73.45C756.47,597,718.73,591.75,679.1,599.28c-34.36,6.53-64.18,21.56-85.57,41.07-40.83,24.44-65,62.56-58.62,100,6.14,35.78,38.71,61.86,82.08,71a146.29,146.29,0,0,1,67.94,33.9c16.54,14.81,38.5,22,60.91,17.75,22.59-4.3,40.88-19.33,51.42-39.54a144.09,144.09,0,0,1,41-48.18C870.2,751,888,717.75,882.42,685Z" transform="translate(-4 -4)"/><path class="cls-5" d="M1036.76,615.37h0c10.56,21.29,35.63,27.77,53.13,13.66,40.11-32.34,62-88.43,52-146.22-14-80.88-84.63-135.14-157.89-121.22a126.78,126.78,0,0,0-61.94,31.25c-10.76,9.8-13,27.07-5.33,40.22h0a33.87,33.87,0,0,1,3.63,24.53l-11.13,47.8C926.5,532.94,962,584.85,962,584.85l49.21,10.06C1022,597.13,1031.45,604.67,1036.76,615.37Z" transform="translate(-4 -4)"/><path class="cls-7" d="M784.64,611.56c-25.76-13.28-59.53-18.83-95.42-13.93,38.59,62.84,108.14,98.66,179.6,85.09q6.34-1.22,12.49-2.9C872,642.64,833.46,616.92,784.64,611.56Z" transform="translate(-4 -4)"/><path class="cls-7" d="M1050.47,435.49a209.71,209.71,0,0,0-28.24-75.12A122.54,122.54,0,0,0,984,361.59a126.78,126.78,0,0,0-61.94,31.25c-10.76,9.8-13,27.07-5.33,40.22a33.87,33.87,0,0,1,3.63,24.53l-11.13,47.8C926.5,532.94,962,584.85,962,584.85l49.21,10.06c.65.14,1.29.29,1.93.46C1045.39,552.75,1060.67,495,1050.47,435.49Z" transform="translate(-4 -4)"/><path class="cls-5" d="M786.1,214.51c-49.17-25.35-115-34.58-184.2-21.44-60,11.4-112,37.64-149.34,71.68-71.26,42.66-113.51,109.19-102.31,174.5,16,93.44,135.36,149,266.55,124q10-1.89,19.62-4.33c34.59,5.76,72.67,5.49,111.8-2,131.2-24.93,224.56-120.88,208.54-214.32C944.79,272.92,875.21,224.29,786.1,214.51Z" transform="translate(-4 -4)"/><path class="cls-6" d="M467,462.32c-11.2-65.31,31-131.84,102.31-174.5,37.32-34,89.37-60.28,149.34-71.68a335.53,335.53,0,0,1,58.63-5.92C729.17,188.16,667,180.7,601.9,193.07c-60,11.4-112,37.64-149.34,71.68-71.26,42.66-113.51,109.19-102.31,174.5,13.59,79.24,101.49,131.21,207.91,130C509.35,546.83,475.05,509.39,467,462.32Z" transform="translate(-4 -4)"/><path class="cls-7" d="M956.76,342.69c-4-23.16-14.31-44-29.59-61.86C888,244.94,835.5,227.36,781.94,237.54c-96.31,18.3-159.59,119.38-141.35,225.77,6.65,38.73,23.18,72.82,46.17,99.64A335.19,335.19,0,0,0,748.22,557C879.42,532.08,972.78,436.13,956.76,342.69Z" transform="translate(-4 -4)"/><ellipse class="cls-5" cx="838.92" cy="455.75" rx="177.34" ry="195.6" transform="translate(-40.2 70.1) rotate(-4.95)"/><path class="cls-6" d="M807.88,511.15a346.15,346.15,0,0,0,7.5-66.55c1-49.72,12.71-134,79.92-146.73a161.2,161.2,0,0,1,42.78-2.35c-37.4-28.45-84.37-41.49-132.19-32.41-96.34,18.31-160.26,121.66-141,227.89,16.23,89.36,85.23,153.56,164.26,159.75C798.13,627.14,797.15,560.81,807.88,511.15Z" transform="translate(-4 -4)"/><path class="cls-6" d="M487.22,247.65c1.55,9-3.81,17.54-12,19.09s-16-4.5-17.54-13.49,3.81-17.54,12-19.09S485.68,238.65,487.22,247.65Z" transform="translate(-4 -4)"/><ellipse class="cls-6" cx="509.87" cy="225.19" rx="13.04" ry="14.38" transform="translate(-21.53 40.84) rotate(-4.95)"/><path class="cls-6" d="M510.67,215.58c1.52,8.88,9.28,14.84,17.32,13.32s13.33-10,11.8-18.86-9.28-14.85-17.32-13.32S509.15,206.69,510.67,215.58Z" transform="translate(-4 -4)"/><path class="cls-6" d="M550.44,206.36c1.67,9.77,10.2,16.33,19,14.65s14.66-11,13-20.74-10.21-16.33-19.06-14.65S548.76,196.59,550.44,206.36Z" transform="translate(-4 -4)"/><ellipse class="cls-6" cx="596.58" cy="199.25" rx="14.81" ry="16.33" transform="translate(-18.97 48.23) rotate(-4.95)"/><path class="cls-6" d="M614.06,195.93c1.52,8.88,9.28,14.85,17.32,13.32s13.33-10,11.8-18.85-9.27-14.85-17.32-13.32S612.54,187.05,614.06,195.93Z" transform="translate(-4 -4)"/><path class="cls-6" d="M656.66,198.86c1.49,8.67,9.05,14.48,16.89,13s13-9.72,11.51-18.38-9-14.48-16.89-13S655.18,190.2,656.66,198.86Z" transform="translate(-4 -4)"/><path class="cls-6" d="M691.48,194.83c1.24,7.28,7.6,12.17,14.19,10.92s10.92-8.17,9.67-15.45-7.6-12.17-14.19-10.92S690.23,187.55,691.48,194.83Z" transform="translate(-4 -4)"/><ellipse class="cls-6" cx="739.69" cy="203.49" rx="13.21" ry="14.57" transform="translate(-18.8 60.59) rotate(-4.95)"/><path class="cls-6" d="M460,266.14c1.25,7.33-3.11,14.29-9.74,15.56s-13-3.66-14.29-11,3.1-14.3,9.74-15.56S458.69,258.81,460,266.14Z" transform="translate(-4 -4)"/><ellipse class="cls-6" cx="421.25" cy="288.06" rx="12.99" ry="14.32" transform="translate(-27.29 33.43) rotate(-4.95)"/><path class="cls-6" d="M410.32,326.52c1.69,9.82-4.16,19.15-13.05,20.84s-17.46-4.9-19.15-14.73,4.16-19.15,13.05-20.84S408.64,316.69,410.32,326.52Z" transform="translate(-4 -4)"/><ellipse class="cls-6" cx="372.34" cy="362.52" rx="15.18" ry="16.74" transform="translate(-33.9 29.48) rotate(-4.95)"/><path class="cls-6" d="M370.35,397c1.57,9.1-3.85,17.76-12.09,19.32s-16.2-4.54-17.76-13.65,3.86-17.76,12.1-19.32S368.79,387.84,370.35,397Z" transform="translate(-4 -4)"/><ellipse class="cls-6" cx="354.65" cy="434.29" rx="15.46" ry="17.05" transform="translate(-40.16 28.23) rotate(-4.95)"/><path class="cls-6" d="M385.9,487.59c1.67,9.78-4.14,19.06-13,20.74s-17.37-4.88-19.05-14.65,4.14-19.06,13-20.74S384.22,477.82,385.9,487.59Z" transform="translate(-4 -4)"/><path class="cls-6" d="M414.59,512.71c-1.23-7.2-7.52-12-14-10.8S389.74,510,391,517.2s7.53,12,14,10.8S415.83,519.92,414.59,512.71Z" transform="translate(-4 -4)"/><ellipse class="cls-6" cx="424.92" cy="544.15" rx="14.07" ry="15.52" transform="translate(-49.37 34.7) rotate(-4.95)"/><path class="cls-6" d="M441.49,555.12c-1.3-7.55,3.19-14.72,10-16s13.43,3.77,14.72,11.32-3.19,14.73-10,16S442.78,562.68,441.49,555.12Z" transform="translate(-4 -4)"/><path class="cls-6" d="M457.63,563.45c-1.63-9.52,4-18.57,12.66-20.21s16.94,4.75,18.57,14.28-4,18.57-12.66,20.21S459.27,573,457.63,563.45Z" transform="translate(-4 -4)"/><path class="cls-6" d="M491.27,567.54c-1.32-7.7,3.26-15,10.23-16.34s13.69,3.84,15,11.54-3.26,15-10.23,16.34S492.59,575.24,491.27,567.54Z" transform="translate(-4 -4)"/><path class="cls-6" d="M522.24,573.14c-1.06-6.14,2.6-12,8.16-13s10.93,3.07,12,9.21-2.6,12-8.16,13S523.29,579.29,522.24,573.14Z" transform="translate(-4 -4)"/><path class="cls-6" d="M740.25,300.48c1.09,6.33-2.68,12.34-8.41,13.43s-11.26-3.16-12.34-9.49,2.68-12.34,8.41-13.43S739.16,294.15,740.25,300.48Z" transform="translate(-4 -4)"/><ellipse class="cls-6" cx="754.92" cy="285.25" rx="11.1" ry="12.24" transform="translate(-25.8 62.21) rotate(-4.95)"/><path class="cls-6" d="M756.65,275.56c.92,5.33,5.57,8.91,10.39,8s8-6,7.09-11.31-5.57-8.91-10.4-8S755.74,270.23,756.65,275.56Z" transform="translate(-4 -4)"/><path class="cls-6" d="M783.9,272.25c1.09,6.33,6.61,10.58,12.34,9.49s9.5-7.1,8.41-13.43-6.61-10.58-12.34-9.49S782.82,265.92,783.9,272.25Z" transform="translate(-4 -4)"/><ellipse class="cls-6" cx="817.07" cy="262.05" rx="7.07" ry="7.8" transform="translate(-23.57 67.49) rotate(-4.95)"/><path class="cls-6" d="M832.42,263.66c.69,4,4.18,6.68,7.8,6s6-4.49,5.31-8.49-4.17-6.68-7.79-6S831.74,259.66,832.42,263.66Z" transform="translate(-4 -4)"/><path class="cls-6" d="M853.42,263c.72,4.21,4.4,7,8.21,6.31s6.31-4.72,5.59-8.93-4.4-7-8.21-6.31S852.7,258.8,853.42,263Z" transform="translate(-4 -4)"/><path class="cls-6" d="M873.72,269.94c.67,3.89,4.06,6.49,7.58,5.83s5.83-4.37,5.17-8.25-4.06-6.5-7.58-5.83S873.06,266.05,873.72,269.94Z" transform="translate(-4 -4)"/><path class="cls-6" d="M892.69,277.53c.73,4.22,4.41,7.06,8.23,6.33s6.33-4.73,5.61-8.95-4.41-7.06-8.23-6.33S892,273.31,892.69,277.53Z" transform="translate(-4 -4)"/><path class="cls-6" d="M722.64,322.72c1.18,6.89-2.92,13.43-9.15,14.61S701.25,333.9,700.07,327s2.91-13.43,9.14-14.61S721.46,315.84,722.64,322.72Z" transform="translate(-4 -4)"/><ellipse class="cls-6" cx="694.9" cy="342.94" rx="7.77" ry="8.58" transform="translate(-31 57.25) rotate(-4.95)"/><path class="cls-6" d="M692.84,361.6c1.14,6.67-2.82,13-8.85,14.14s-11.85-3.32-13-10,2.82-13,8.85-14.14S691.7,354.94,692.84,361.6Z" transform="translate(-4 -4)"/><ellipse class="cls-6" cx="671.84" cy="392.59" rx="9.63" ry="10.62" transform="matrix(1, -0.09, 0.09, 1, -35.37, 55.44)"/><ellipse class="cls-6" cx="663.5" cy="421.79" rx="8.7" ry="9.6" transform="translate(-37.92 54.83) rotate(-4.95)"/><path class="cls-6" d="M675.1,448.86c1.06,6.22-2.63,12.13-8.26,13.2s-11.06-3.11-12.13-9.33,2.63-12.12,8.26-13.19S674,442.64,675.1,448.86Z" transform="translate(-4 -4)"/><ellipse class="cls-6" cx="665.9" cy="481.23" rx="9.9" ry="10.92" transform="matrix(1, -0.09, 0.09, 1, -43.05, 55.26)"/><path class="cls-6" d="M680.91,510.15c.92,5.39-2.28,10.5-7.16,11.43s-9.57-2.69-10.5-8.07,2.28-10.51,7.16-11.43S680,504.76,680.91,510.15Z" transform="translate(-4 -4)"/><path class="cls-6" d="M688.44,535.46c.81,4.7-2,9.17-6.24,10s-8.36-2.35-9.17-7.05,2-9.17,6.25-10S687.64,530.75,688.44,535.46Z" transform="translate(-4 -4)"/><path class="cls-6" d="M701.5,565.57c1.07,6.25-2.64,12.18-8.3,13.26s-11.11-3.12-12.18-9.37,2.65-12.18,8.3-13.26S700.43,559.32,701.5,565.57Z" transform="translate(-4 -4)"/><ellipse class="cls-6" cx="716.14" cy="595.4" rx="11.35" ry="12.52" transform="translate(-52.71 60.02) rotate(-4.95)"/><ellipse class="cls-6" cx="804.47" cy="648.9" rx="12.38" ry="13.65" transform="translate(-57 67.84) rotate(-4.95)"/><ellipse class="cls-6" cx="769.52" cy="639.25" rx="11.6" ry="12.79" transform="translate(-56.29 64.79) rotate(-4.95)"/><path class="cls-6" d="M743.77,601.63c-1.06-6.22-6.49-10.39-12.12-9.32s-9.33,7-8.26,13.19,6.49,10.4,12.12,9.33S744.84,607.85,743.77,601.63Z" transform="translate(-4 -4)"/><path class="cls-6" d="M758.48,619.4c-.82-4.78-5-8-9.31-7.17s-7.17,5.36-6.35,10.14,5,8,9.32,7.17S759.3,624.18,758.48,619.4Z" transform="translate(-4 -4)"/><path class="cls-6" d="M910.76,293c1,5.88-2.49,11.48-7.82,12.49s-10.47-2.94-11.48-8.83,2.5-11.47,7.82-12.49S909.75,287.11,910.76,293Z" transform="translate(-4 -4)"/><path class="cls-6" d="M895.72,301.67C896.81,308,893,314,887.31,315.1s-11.25-3.16-12.34-9.49,2.68-12.34,8.41-13.43S894.64,295.34,895.72,301.67Z" transform="translate(-4 -4)"/><ellipse class="cls-6" cx="861.15" cy="319.26" rx="8.9" ry="9.82" transform="translate(-28.34 71.51) rotate(-4.95)"/><ellipse class="cls-6" cx="843.29" cy="341.3" rx="9.07" ry="10" transform="translate(-30.31 70.05) rotate(-4.95)"/><path class="cls-6" d="M839.56,363.87c1.07,6.25-2.64,12.19-8.3,13.26s-11.11-3.12-12.19-9.37,2.65-12.19,8.31-13.26S838.49,357.62,839.56,363.87Z" transform="translate(-4 -4)"/><ellipse class="cls-6" cx="823.11" cy="392.13" rx="7.82" ry="8.63" transform="translate(-34.77 68.5) rotate(-4.95)"/><path class="cls-6" d="M827.66,414.27c.78,4.55-1.93,8.87-6,9.66s-8.1-2.27-8.88-6.83,1.93-8.88,6-9.66S826.88,409.71,827.66,414.27Z" transform="translate(-4 -4)"/><path class="cls-6" d="M825.6,444.05c1.3,7.61-3.22,14.85-10.12,16.16S802,456.4,800.64,448.79s3.22-14.85,10.12-16.16S824.29,436.44,825.6,444.05Z" transform="translate(-4 -4)"/><ellipse class="cls-6" cx="809.62" cy="480.41" rx="9.82" ry="10.83" transform="translate(-42.44 67.66) rotate(-4.95)"/><path class="cls-6" d="M815.12,512.45c.9,5.27-2.23,10.28-7,11.19s-9.37-2.63-10.27-7.9,2.23-10.28,7-11.19S814.21,507.18,815.12,512.45Z" transform="translate(-4 -4)"/><ellipse class="cls-6" cx="805.08" cy="548.12" rx="12.4" ry="13.68" transform="translate(-48.3 67.52) rotate(-4.95)"/><path class="cls-6" d="M812.16,576.53c1.11,6.47-2.74,12.63-8.6,13.74s-11.51-3.23-12.62-9.71,2.74-12.62,8.6-13.74S811.05,570.05,812.16,576.53Z" transform="translate(-4 -4)"/><path class="cls-6" d="M818.5,613.47c1.32,7.7-3.27,15-10.24,16.35s-13.7-3.85-15-11.56,3.26-15,10.24-16.35S817.17,605.76,818.5,613.47Z" transform="translate(-4 -4)"/><path class="cls-6" d="M822.81,638.6c.32,1.89-2.63,4-6.59,4.78s-7.43-.16-7.75-2,2.62-4,6.58-4.78S822.48,636.72,822.81,638.6Z" transform="translate(-4 -4)"/><path class="cls-6" d="M253.92,453.16c.81,4.73-2,9.23-6.29,10s-8.42-2.36-9.23-7.09,2-9.23,6.29-10S253.11,448.43,253.92,453.16Z" transform="translate(-4 -4)"/><ellipse class="cls-6" cx="233.09" cy="475.52" rx="8.52" ry="9.39" transform="translate(-44.17 17.89) rotate(-4.95)"/><ellipse class="cls-6" cx="220.29" cy="497.33" rx="8.76" ry="9.66" transform="translate(-46.1 16.87) rotate(-4.95)"/><path class="cls-6" d="M216.9,517c.85,4.93-2.08,9.61-6.54,10.46s-8.76-2.46-9.61-7.39,2.09-9.61,6.55-10.45S216.06,512.08,216.9,517Z" transform="translate(-4 -4)"/><ellipse class="cls-6" cx="201.1" cy="544.74" rx="8.27" ry="9.12" transform="translate(-50.26 15.39) rotate(-4.95)"/><ellipse class="cls-6" cx="193.5" cy="567.29" rx="8.82" ry="9.73" transform="translate(-52.23 14.81) rotate(-4.95)"/><ellipse class="cls-6" cx="193.36" cy="596.04" rx="8.02" ry="8.85" transform="translate(-54.72 14.91) rotate(-4.95)"/><path class="cls-6" d="M196.38,613.67c.84,4.92-2.09,9.6-6.54,10.45s-8.76-2.46-9.6-7.38,2.08-9.6,6.54-10.45S195.53,608.75,196.38,613.67Z" transform="translate(-4 -4)"/><path class="cls-6" d="M199.77,637.81c.85,5-2.12,9.74-6.64,10.6s-8.89-2.49-9.75-7.49,2.12-9.75,6.64-10.61S198.91,632.81,199.77,637.81Z" transform="translate(-4 -4)"/><ellipse class="cls-6" cx="195.13" cy="663.74" rx="9.69" ry="10.68" transform="translate(-60.55 15.32) rotate(-4.95)"/><path class="cls-6" d="M209.25,688.74c1,5.81-2.46,11.34-7.72,12.34s-10.33-2.91-11.33-8.72S192.66,681,197.92,680,208.25,682.93,209.25,688.74Z" transform="translate(-4 -4)"/><ellipse class="cls-6" cx="212.12" cy="725.92" rx="12.96" ry="14.29" transform="translate(-65.85 17.01) rotate(-4.95)"/><path class="cls-6" d="M238.42,739.75c-1.23-7.19-7.5-12-14-10.77s-10.77,8.06-9.54,15.24,7.5,12,14,10.77S239.65,746.93,238.42,739.75Z" transform="translate(-4 -4)"/><path class="cls-6" d="M248.45,771.89c-1.16-6.73-7-11.26-13.14-10.1s-10.11,7.56-8.95,14.3,7,11.26,13.13,10.1S249.6,778.63,248.45,771.89Z" transform="translate(-4 -4)"/><path class="cls-6" d="M271.1,792.92c-1-5.63-5.88-9.4-11-8.44s-8.44,6.32-7.48,11.95,5.88,9.4,11,8.43S272.06,798.55,271.1,792.92Z" transform="translate(-4 -4)"/><path class="cls-6" d="M264.41,801.62c-1.35-7.82,3.31-15.25,10.39-16.6s13.91,3.9,15.25,11.73-3.31,15.25-10.39,16.6S265.75,809.44,264.41,801.62Z" transform="translate(-4 -4)"/><path class="cls-6" d="M291.25,796.57c-1.09-6.37,2.7-12.42,8.46-13.52s11.32,3.18,12.41,9.55-2.69,12.42-8.46,13.51S292.34,802.93,291.25,796.57Z" transform="translate(-4 -4)"/><ellipse class="cls-6" cx="328.62" cy="781.99" rx="9.38" ry="10.34" transform="translate(-70.26 27.28) rotate(-4.95)"/><ellipse class="cls-6" cx="354.79" cy="785.83" rx="11.8" ry="13.02" transform="matrix(1, -0.09, 0.09, 1, -70.49, 29.55)"/><ellipse class="cls-6" cx="388.06" cy="786.78" rx="11.33" ry="12.5" transform="translate(-70.45 32.42) rotate(-4.95)"/><path class="cls-6" d="M433.57,779.24c-1.27-7.39-7.72-12.36-14.41-11.08s-11.09,8.29-9.82,15.68,7.72,12.35,14.41,11.08S434.84,786.63,433.57,779.24Z" transform="translate(-4 -4)"/><path class="cls-6" d="M430.12,777.4c-1-6.06,2.56-11.81,8.05-12.86s10.77,3,11.81,9.09-2.56,11.81-8.05,12.85S431.16,783.46,430.12,777.4Z" transform="translate(-4 -4)"/><ellipse class="cls-6" cx="467.52" cy="764.14" rx="9.66" ry="10.66" transform="translate(-68.2 39.2) rotate(-4.95)"/><ellipse class="cls-6" cx="479.28" cy="747.85" rx="7.92" ry="8.73" transform="translate(-66.75 40.15) rotate(-4.95)"/><path class="cls-6" d="M488.77,736.29c-.74-4.32,1.83-8.42,5.74-9.17s7.68,2.16,8.42,6.48-1.83,8.42-5.74,9.16S489.51,740.61,488.77,736.29Z" transform="translate(-4 -4)"/><ellipse class="cls-6" cx="513.77" cy="720.21" rx="10.1" ry="11.14" transform="translate(-64.24 43.02) rotate(-4.95)"/><ellipse class="cls-6" cx="527.13" cy="698.87" rx="6.66" ry="7.35" transform="translate(-62.34 44.1) rotate(-4.95)"/><ellipse class="cls-6" cx="718.18" cy="215.7" rx="10.64" ry="11.74" transform="translate(-19.94 58.78) rotate(-4.95)"/><path class="cls-6" d="M708.74,219.49c1.28,7.46-3.15,14.54-9.9,15.82s-13.26-3.72-14.53-11.17,3.15-14.54,9.9-15.82S707.47,212,708.74,219.49Z" transform="translate(-4 -4)"/><path class="cls-6" d="M678.63,233c.89,5.21-2.21,10.15-6.92,11.05s-9.26-2.6-10.15-7.81,2.21-10.15,6.92-11.05S677.73,227.74,678.63,233Z" transform="translate(-4 -4)"/><ellipse class="cls-6" cx="644.37" cy="243.33" rx="7.77" ry="8.58" transform="matrix(1, -0.09, 0.09, 1, -22.59, 52.51)"/><ellipse class="cls-6" cx="624.5" cy="253.83" rx="12.15" ry="13.4" transform="translate(-23.57 50.84) rotate(-4.95)"/><path class="cls-6" d="M605,270c1.22,7.1-3,13.85-9.43,15.07s-12.62-3.55-13.84-10.64,3-13.85,9.43-15.07S603.73,262.86,605,270Z" transform="translate(-4 -4)"/><path class="cls-6" d="M577.68,290.68c1.31,7.66-3.25,14.94-10.18,16.26s-13.63-3.83-14.94-11.49,3.24-14.94,10.18-16.26S576.36,283,577.68,290.68Z" transform="translate(-4 -4)"/><ellipse class="cls-6" cx="542.65" cy="309.73" rx="7.45" ry="8.22" transform="translate(-28.7 43.98) rotate(-4.95)"/><path class="cls-6" d="M528.41,326.72c1.17,6.83-2.89,13.31-9.07,14.49S507.19,337.8,506,331s2.89-13.32,9.08-14.49S527.24,319.89,528.41,326.72Z" transform="translate(-4 -4)"/><ellipse class="cls-6" cx="496.64" cy="360.68" rx="12.4" ry="13.68" transform="translate(-33.27 40.2) rotate(-4.95)"/><ellipse class="cls-6" cx="479.53" cy="388.02" rx="9.07" ry="10" transform="translate(-35.7 38.83) rotate(-4.95)"/><path class="cls-6" d="M484.42,407.17c1.49,8.73-3.7,17-11.6,18.53s-15.53-4.36-17-13.09,3.69-17,11.6-18.53S482.92,398.44,484.42,407.17Z" transform="translate(-4 -4)"/><ellipse class="cls-6" cx="461.24" cy="439.55" rx="13.8" ry="15.22" transform="translate(-40.21 37.44) rotate(-4.95)"/><ellipse class="cls-6" cx="469.29" cy="480.61" rx="14.8" ry="16.32" transform="translate(-43.72 38.29) rotate(-4.95)"/><ellipse class="cls-6" cx="493.55" cy="525.44" rx="16.32" ry="18" transform="translate(-47.5 40.55) rotate(-4.95)"/><path class="cls-6" d="M540.67,559.35c1.54,9-3.81,17.54-11.95,19.09s-16-4.49-17.54-13.49,3.81-17.54,11.95-19.09S539.13,550.35,540.67,559.35Z" transform="translate(-4 -4)"/><path class="cls-6" d="M519.79,684.93c1,6-2.55,11.73-8,12.77s-10.7-3-11.73-9,2.55-11.73,8-12.77S518.76,678.92,519.79,684.93Z" transform="translate(-4 -4)"/><path class="cls-6" d="M501.81,698.8c1,5.75-2.44,11.21-7.64,12.2s-10.23-2.87-11.21-8.62,2.43-11.22,7.64-12.2S500.82,693.05,501.81,698.8Z" transform="translate(-4 -4)"/><ellipse class="cls-6" cx="476.39" cy="705.47" rx="9.38" ry="10.34" transform="translate(-63.1 39.74) rotate(-4.95)"/><ellipse class="cls-6" cx="453.85" cy="708.06" rx="9.45" ry="10.42" transform="translate(-63.41 37.81) rotate(-4.95)"/><ellipse class="cls-6" cx="425.86" cy="704.55" rx="11.6" ry="12.79" transform="translate(-63.21 35.38) rotate(-4.95)"/><path class="cls-6" d="M417.77,704.42c1.12,6.52-2.75,12.71-8.65,13.83s-11.59-3.26-12.7-9.77,2.76-12.71,8.65-13.83S416.66,697.91,417.77,704.42Z" transform="translate(-4 -4)"/><path class="cls-6" d="M399.66,697c1.37,8-3.37,15.55-10.59,16.92s-14.18-4-15.55-12,3.38-15.55,10.6-16.92S398.29,689.05,399.66,697Z" transform="translate(-4 -4)"/><path class="cls-6" d="M373.89,704.14c1.07,6.24-2.64,12.16-8.29,13.24s-11.09-3.12-12.16-9.36,2.64-12.16,8.29-13.23S372.82,697.9,373.89,704.14Z" transform="translate(-4 -4)"/><path class="cls-6" d="M356.1,715.22c1,6-2.55,11.75-8,12.78s-10.71-3-11.74-9,2.55-11.74,8-12.78S355.07,709.2,356.1,715.22Z" transform="translate(-4 -4)"/><ellipse class="cls-6" cx="332.68" cy="711.97" rx="10.4" ry="11.47" transform="translate(-64.19 27.36) rotate(-4.95)"/><path class="cls-6" d="M320.36,704.62c-.89-5.18-5.41-8.66-10.1-7.77s-7.78,5.81-6.89,11,5.42,8.66,10.11,7.77S321.25,709.8,320.36,704.62Z" transform="translate(-4 -4)"/><path class="cls-6" d="M294,686.82c-1.09-6.37-6.65-10.64-12.41-9.55s-9.55,7.15-8.46,13.51,6.65,10.65,12.41,9.55S295.08,693.19,294,686.82Z" transform="translate(-4 -4)"/><ellipse class="cls-6" cx="296.73" cy="700.56" rx="8.27" ry="9.13" transform="translate(-63.35 24.22) rotate(-4.95)"/><path class="cls-6" d="M282.61,667.22c.95,5.55-2.35,10.82-7.37,11.78s-9.87-2.77-10.82-8.32,2.35-10.83,7.37-11.78S281.66,661.67,282.61,667.22Z" transform="translate(-4 -4)"/><path class="cls-6" d="M270.17,641.36c1,5.91-2.5,11.53-7.85,12.54S251.81,651,250.8,645s2.5-11.52,7.85-12.54S269.16,635.45,270.17,641.36Z" transform="translate(-4 -4)"/><ellipse class="cls-6" cx="254.5" cy="612.34" rx="9.17" ry="10.11" transform="translate(-55.89 20.25) rotate(-4.95)"/><ellipse class="cls-6" cx="247.28" cy="585.08" rx="11.76" ry="12.98" transform="translate(-53.57 19.52) rotate(-4.95)"/><path class="cls-6" d="M255.41,555.28c1.13,6.59-2.79,12.85-8.76,14s-11.71-3.29-12.84-9.88,2.79-12.85,8.75-14S254.28,548.69,255.41,555.28Z" transform="translate(-4 -4)"/><path class="cls-6" d="M253.09,530c1,5.7-2.41,11.12-7.58,12.1s-10.14-2.84-11.12-8.55,2.42-11.12,7.58-12.1S252.11,524.31,253.09,530Z" transform="translate(-4 -4)"/><path class="cls-6" d="M252,503.92c.84,4.88-2.07,9.51-6.48,10.35s-8.68-2.43-9.52-7.31,2.07-9.52,6.48-10.36S251.13,499,252,503.92Z" transform="translate(-4 -4)"/><path class="cls-6" d="M253.5,480.59a5.78,5.78,0,0,1-4.28,6.83,5.54,5.54,0,0,1-6.28-4.83,5.79,5.79,0,0,1,4.28-6.83A5.55,5.55,0,0,1,253.5,480.59Z" transform="translate(-4 -4)"/><path class="cls-5" d="M1050.89,361.57c.94,5.5-2.33,10.72-7.3,11.67s-9.78-2.75-10.72-8.24,2.33-10.72,7.3-11.67S1050,356.07,1050.89,361.57Z" transform="translate(-4 -4)"/><path class="cls-5" d="M1053.31,375.65c.75,4.38,4.58,7.33,8.55,6.57s6.58-4.92,5.83-9.31-4.59-7.33-8.56-6.57S1052.55,371.26,1053.31,375.65Z" transform="translate(-4 -4)"/><ellipse class="cls-5" cx="1078.35" cy="384.7" rx="8.52" ry="9.39" transform="translate(-33.18 90.49) rotate(-4.95)"/><path class="cls-5" d="M1088,403.43c1,5.88,6.15,9.83,11.48,8.82s8.83-6.6,7.82-12.49-6.15-9.84-11.48-8.82S1086.94,397.54,1088,403.43Z" transform="translate(-4 -4)"/><path class="cls-5" d="M1103.7,418.5c.83,4.89,5.1,8.17,9.52,7.33s7.33-5.49,6.49-10.37-5.1-8.17-9.52-7.33S1102.86,413.61,1103.7,418.5Z" transform="translate(-4 -4)"/><path class="cls-5" d="M1117.05,448.17c1.39,8.11,8.47,13.55,15.81,12.15s12.16-9.09,10.77-17.2-8.47-13.55-15.81-12.16S1115.66,440.06,1117.05,448.17Z" transform="translate(-4 -4)"/><path class="cls-5" d="M1130.64,479.2c1,5.66,5.92,9.47,11,8.49s8.49-6.35,7.52-12-5.91-9.46-11-8.49S1129.67,473.54,1130.64,479.2Z" transform="translate(-4 -4)"/><ellipse class="cls-5" cx="1141.7" cy="498.72" rx="11.29" ry="12.45" transform="translate(-42.78 96.39) rotate(-4.95)"/><ellipse class="cls-5" cx="1138.01" cy="535.92" rx="12.79" ry="14.11" transform="translate(-46 96.21) rotate(-4.95)"/><path class="cls-5" d="M1117.44,568c-1.32-7.7,3.26-15,10.23-16.34s13.7,3.84,15,11.54-3.26,15-10.24,16.35S1118.76,575.71,1117.44,568Z" transform="translate(-4 -4)"/><path class="cls-5" d="M1100,593.47c-1.31-7.64,3.23-14.89,10.14-16.2s13.58,3.81,14.89,11.44-3.23,14.89-10.15,16.2S1101.27,601.1,1100,593.47Z" transform="translate(-4 -4)"/><ellipse class="cls-5" cx="1099.28" cy="612.37" rx="11.54" ry="12.73" transform="translate(-52.74 93.15) rotate(-4.95)"/><path class="cls-5" d="M1062.93,635.13c-1.29-7.55,3.2-14.73,10-16s13.42,3.77,14.72,11.32-3.2,14.73-10,16S1064.23,642.68,1062.93,635.13Z" transform="translate(-4 -4)"/><path class="cls-5" d="M1037.12,595.86c-.87-5.11-5.33-8.54-10-7.66s-7.66,5.73-6.78,10.84,5.33,8.54,10,7.66S1038,601,1037.12,595.86Z" transform="translate(-4 -4)"/><path class="cls-5" d="M1048.77,618.82c-.83-4.83-5-8.07-9.42-7.24s-7.25,5.42-6.42,10.25,5,8.07,9.42,7.24S1049.59,623.65,1048.77,618.82Z" transform="translate(-4 -4)"/><path class="cls-5" d="M1071.64,631.77c-1.14-6.64-6.94-11.1-13-10s-10,7.45-8.82,14.09,6.94,11.1,13,10S1072.77,638.4,1071.64,631.77Z" transform="translate(-4 -4)"/><path class="cls-5" d="M1030.36,587.12c1,5.89-2.49,11.48-7.82,12.49s-10.46-2.93-11.47-8.82,2.49-11.48,7.82-12.49S1029.35,581.24,1030.36,587.12Z" transform="translate(-4 -4)"/><ellipse class="cls-5" cx="1031.4" cy="565.21" rx="8.05" ry="8.88" transform="translate(-48.93 87.12) rotate(-4.95)"/><ellipse class="cls-5" cx="1044.95" cy="548.71" rx="9.87" ry="10.89" transform="translate(-47.45 88.22) rotate(-4.95)"/><path class="cls-5" d="M1056.61,523.69c.8,4.71-2,9.19-6.26,10s-8.38-2.35-9.19-7.06,2-9.19,6.26-10S1055.8,519,1056.61,523.69Z" transform="translate(-4 -4)"/><path class="cls-5" d="M1066.21,505.19c1.06,6.13-2.59,12-8.14,13s-10.9-3.06-12-9.19,2.59-12,8.14-13S1065.16,499.06,1066.21,505.19Z" transform="translate(-4 -4)"/><path class="cls-5" d="M1061.88,474.06c.7,4.07-1.72,7.94-5.41,8.64s-7.24-2-7.94-6.1,1.73-7.94,5.41-8.64S1061.18,470,1061.88,474.06Z" transform="translate(-4 -4)"/><path class="cls-5" d="M1061.92,445.88c.94,5.51-2.34,10.75-7.32,11.69s-9.8-2.75-10.75-8.26,2.33-10.75,7.32-11.69S1061,440.37,1061.92,445.88Z" transform="translate(-4 -4)"/><path class="cls-5" d="M1056.19,422.49c.73,4.3-1.82,8.38-5.71,9.11s-7.63-2.14-8.36-6.43,1.81-8.37,5.7-9.11S1055.45,418.2,1056.19,422.49Z" transform="translate(-4 -4)"/><path class="cls-5" d="M1054,399.63c.94,5.51-2.34,10.75-7.32,11.69s-9.8-2.75-10.75-8.26,2.33-10.75,7.32-11.69S1053,394.12,1054,399.63Z" transform="translate(-4 -4)"/><path class="cls-5" d="M1044.43,378.13c.82,4.81-2,9.38-6.39,10.2s-8.56-2.4-9.38-7.21,2-9.38,6.39-10.21S1043.6,373.32,1044.43,378.13Z" transform="translate(-4 -4)"/><ellipse class="cls-5" cx="270.63" cy="432.49" rx="11.29" ry="12.45" transform="translate(-40.31 20.97) rotate(-4.95)"/><path class="cls-5" d="M299.71,414.51c1,6.12-2.59,11.92-8.13,13s-10.87-3.06-11.92-9.17,2.59-11.92,8.13-13S298.66,408.4,299.71,414.51Z" transform="translate(-4 -4)"/><path class="cls-5" d="M322.91,399.41c1,5.6-2.37,10.93-7.44,11.89s-10-2.8-10.92-8.4S306.92,392,312,391,322,393.81,322.91,399.41Z" transform="translate(-4 -4)"/><ellipse class="cls-5" cx="318.47" cy="430.54" rx="7.28" ry="8.03" transform="translate(-39.97 25.09) rotate(-4.95)"/><ellipse class="cls-5" cx="314.95" cy="460.26" rx="8.78" ry="9.69" transform="translate(-42.54 24.9) rotate(-4.95)"/><ellipse class="cls-5" cx="322.67" cy="500.89" rx="8.03" ry="8.86" transform="translate(-46.02 25.71) rotate(-4.95)"/><path class="cls-5" d="M323.91,483.4c.63,3.66-1.55,7.14-4.86,7.77s-6.51-1.83-7.14-5.49,1.55-7.14,4.86-7.77S323.28,479.74,323.91,483.4Z" transform="translate(-4 -4)"/><path class="cls-5" d="M345.12,529c1.07,6.19-2.62,12.08-8.22,13.14s-11-3.09-12.08-9.28,2.62-12.08,8.23-13.14S344.06,522.76,345.12,529Z" transform="translate(-4 -4)"/><path class="cls-5" d="M361.7,539.39c-1-5.94-6.21-9.93-11.58-8.91s-8.91,6.67-7.89,12.61,6.2,9.93,11.58,8.9S362.72,545.33,361.7,539.39Z" transform="translate(-4 -4)"/><ellipse class="cls-5" cx="370.05" cy="563.37" rx="8.82" ry="9.73" transform="translate(-51.24 30.04) rotate(-4.95)"/><ellipse class="cls-5" cx="392.98" cy="574.4" rx="7.49" ry="8.26" transform="translate(-52.1 32.06) rotate(-4.95)"/><path class="cls-5" d="M395.69,586.49c-1-5.72,2.42-11.15,7.6-12.13s10.17,2.85,11.15,8.57-2.42,11.15-7.6,12.14S396.67,592.21,395.69,586.49Z" transform="translate(-4 -4)"/><ellipse class="cls-5" cx="428.36" cy="595.33" rx="9.32" ry="10.28" transform="translate(-53.78 35.19) rotate(-4.95)"/><ellipse class="cls-5" cx="444.67" cy="600.43" rx="12.43" ry="13.71" transform="translate(-54.16 36.61) rotate(-4.95)"/><path class="cls-5" d="M455,606.9c-1.32-7.73,3.28-15.08,10.28-16.41s13.75,3.86,15.08,11.59-3.28,15.09-10.28,16.42S456.35,614.64,455,606.9Z" transform="translate(-4 -4)"/><ellipse class="cls-5" cx="488.37" cy="608.02" rx="9.69" ry="10.68" transform="translate(-54.65 40.41) rotate(-4.95)"/><path class="cls-5" d="M500,610.49c-1.12-6.49,2.74-12.66,8.62-13.78s11.54,3.24,12.66,9.73-2.75,12.66-8.63,13.78S501.14,617,500,610.49Z" transform="translate(-4 -4)"/><ellipse class="cls-5" cx="532.1" cy="607.14" rx="8.37" ry="9.23" transform="translate(-54.41 44.18) rotate(-4.95)"/><path class="cls-5" d="M551.59,621.55c.72,4.22-1.79,8.23-5.61,9s-7.5-2.1-8.23-6.32,1.79-8.23,5.61-9S550.87,617.33,551.59,621.55Z" transform="translate(-4 -4)"/><path class="cls-5" d="M547.13,637.21c.59,3.4-1.44,6.64-4.52,7.22a5.85,5.85,0,0,1-6.64-5.1,6.12,6.12,0,0,1,4.52-7.23A5.87,5.87,0,0,1,547.13,637.21Z" transform="translate(-4 -4)"/><path class="cls-5" d="M544.45,650.86c.72,4.22-1.79,8.22-5.6,8.95s-7.5-2.11-8.22-6.32,1.78-8.23,5.6-9S543.73,646.64,544.45,650.86Z" transform="translate(-4 -4)"/><path class="cls-5" d="M539.45,669.12c.61,3.55-1.51,6.93-4.72,7.54s-6.32-1.77-6.93-5.33,1.5-6.93,4.72-7.54S538.84,665.57,539.45,669.12Z" transform="translate(-4 -4)"/><ellipse class="cls-5" cx="563.97" cy="566.94" rx="7.96" ry="8.78" transform="translate(-50.82 46.78) rotate(-4.95)"/><path class="cls-5" d="M591.39,565.75c.64,3.73-1.58,7.29-5,7.93s-6.65-1.87-7.29-5.61,1.59-7.29,5-7.93S590.75,562,591.39,565.75Z" transform="translate(-4 -4)"/><path class="cls-5" d="M612.89,563.25c.79,4.59-1.94,9-6.1,9.74s-8.16-2.29-8.95-6.88,1.95-9,6.1-9.74S612.1,558.66,612.89,563.25Z" transform="translate(-4 -4)"/><path class="cls-5" d="M633.16,559.4c.78,4.59-1.95,9-6.1,9.74s-8.16-2.29-8.95-6.88,1.94-9,6.1-9.74S632.37,554.81,633.16,559.4Z" transform="translate(-4 -4)"/><path class="cls-5" d="M666.41,557.51c1.08,6.3-2.66,12.27-8.36,13.36s-11.19-3.15-12.27-9.44,2.67-12.27,8.36-13.35S665.33,551.22,666.41,557.51Z" transform="translate(-4 -4)"/><path class="cls-5" d="M772,215.64c.93,5.44,5.68,9.09,10.6,8.15s8.15-6.1,7.22-11.53-5.68-9.09-10.6-8.15S771,210.21,772,215.64Z" transform="translate(-4 -4)"/><path class="cls-5" d="M786.37,217.94c.94,5.51,5.76,9.21,10.75,8.27s8.27-6.19,7.33-11.71-5.76-9.22-10.76-8.27S785.42,212.42,786.37,217.94Z" transform="translate(-4 -4)"/><path class="cls-5" d="M811.09,224.73c.74,4.33,4.52,7.24,8.44,6.49s6.5-4.86,5.76-9.19-4.53-7.24-8.45-6.49S810.35,220.4,811.09,224.73Z" transform="translate(-4 -4)"/><path class="cls-5" d="M838.08,230.88c.61,3.55,3.71,5.94,6.93,5.33s5.33-4,4.72-7.54-3.71-5.94-6.93-5.33S837.47,227.33,838.08,230.88Z" transform="translate(-4 -4)"/><path class="cls-5" d="M687.29,597.5c1.2,7-3,13.64-9.3,14.84s-12.44-3.49-13.64-10.49,3-13.64,9.3-14.84S686.09,590.5,687.29,597.5Z" transform="translate(-4 -4)"/><path class="cls-5" d="M664.49,605.49c.86,5-2.13,9.82-6.69,10.69s-8.95-2.51-9.81-7.55,2.13-9.82,6.69-10.68S663.63,600.46,664.49,605.49Z" transform="translate(-4 -4)"/><path class="cls-5" d="M640.46,617.17c1.15,6.68-2.83,13-8.89,14.19s-11.89-3.34-13-10,2.83-13,8.88-14.19S639.31,610.48,640.46,617.17Z" transform="translate(-4 -4)"/><path class="cls-5" d="M621.35,628.64c1.37,8-3.39,15.6-10.63,17s-14.21-4-15.59-12,3.39-15.59,10.63-17S620,620.65,621.35,628.64Z" transform="translate(-4 -4)"/><path class="cls-5" d="M594.53,650.32c1.1,6.38-2.7,12.45-8.47,13.54s-11.35-3.18-12.44-9.56,2.7-12.44,8.48-13.54S593.44,643.94,594.53,650.32Z" transform="translate(-4 -4)"/><path class="cls-5" d="M573.42,666.27c.94,5.47-2.32,10.68-7.28,11.62s-9.74-2.73-10.68-8.21,2.32-10.69,7.27-11.63S572.48,660.79,573.42,666.27Z" transform="translate(-4 -4)"/><ellipse class="cls-5" cx="549.13" cy="683.76" rx="9.74" ry="10.74" transform="translate(-60.96 45.94) rotate(-4.95)"/><path class="cls-5" d="M553.86,725c1.47,8.57-3.63,16.71-11.39,18.19s-15.23-4.28-16.7-12.85,3.62-16.71,11.38-18.19S552.39,716.47,553.86,725Z" transform="translate(-4 -4)"/><ellipse class="cls-5" cx="544.87" cy="766.51" rx="12.71" ry="14.02" transform="translate(-68.12 45.88) rotate(-4.95)"/><path class="cls-5" d="M582.62,774c-1.65-9.63-10-16.09-18.77-14.43s-14.43,10.8-12.78,20.42,10,16.09,18.76,14.43S584.27,783.63,582.62,774Z" transform="translate(-4 -4)"/><path class="cls-5" d="M614.3,800.93c-1.37-8-8.35-13.36-15.59-12s-12,9-10.62,17,8.35,13.37,15.59,12S615.67,808.93,614.3,800.93Z" transform="translate(-4 -4)"/><ellipse class="cls-5" cx="632.72" cy="813.87" rx="11.26" ry="12.42" transform="translate(-71.87 53.64) rotate(-4.95)"/><ellipse class="cls-5" cx="662.57" cy="822.2" rx="12.85" ry="14.17" transform="translate(-72.48 56.25) rotate(-4.95)"/><path class="cls-5" d="M703.18,828.28c-2-11.65-12.17-19.48-22.73-17.47S663,823.89,665,835.54,677.14,855,687.69,853,705.18,839.94,703.18,828.28Z" transform="translate(-4 -4)"/><ellipse class="cls-5" cx="725.25" cy="857.51" rx="19.99" ry="22.05" transform="translate(-75.3 61.79) rotate(-4.95)"/><ellipse class="cls-5" cx="758.8" cy="852.59" rx="14.25" ry="15.72" transform="translate(-74.75 64.66) rotate(-4.95)"/><ellipse class="cls-5" cx="780.85" cy="830.96" rx="15.55" ry="17.15" transform="translate(-72.8 66.48) rotate(-4.95)"/><ellipse class="cls-5" cx="799.27" cy="801.5" rx="13.7" ry="15.11" transform="translate(-70.19 67.96) rotate(-4.95)"/><path class="cls-5" d="M802.57,787c-1.65-9.65,4.08-18.81,12.81-20.47s17.15,4.82,18.8,14.46-4.08,18.81-12.81,20.47S804.22,796.64,802.57,787Z" transform="translate(-4 -4)"/><path class="cls-5" d="M837.16,765.48c-1.43-8.32,3.52-16.22,11.05-17.66S863,752,864.43,760.3s-3.52,16.22-11,17.65S838.59,773.8,837.16,765.48Z" transform="translate(-4 -4)"/><ellipse class="cls-5" cx="864.36" cy="731.62" rx="16.48" ry="18.17" transform="translate(-63.91 73.32) rotate(-4.95)"/><path class="cls-5" d="M863.57,699.59c-1.49-8.67,3.67-16.9,11.51-18.39s15.4,4.33,16.89,13-3.67,16.89-11.51,18.38S865.06,708.25,863.57,699.59Z" transform="translate(-4 -4)"/><path class="cls-5" d="M702.37,605.72c-.76-4.47-4.67-7.47-8.71-6.7s-6.71,5-5.94,9.48,4.67,7.47,8.71,6.71S703.14,610.19,702.37,605.72Z" transform="translate(-4 -4)"/><path class="cls-5" d="M715.47,625.12c-.72-4.23-4.42-7.07-8.25-6.34s-6.35,4.75-5.63,9,4.43,7.08,8.26,6.35S716.2,629.36,715.47,625.12Z" transform="translate(-4 -4)"/><path class="cls-5" d="M729.41,640.64a5.74,5.74,0,0,0-6.49-5,6,6,0,0,0-4.43,7.07,5.73,5.73,0,0,0,6.49,5A6,6,0,0,0,729.41,640.64Z" transform="translate(-4 -4)"/><path class="cls-5" d="M749.85,654.07c-.77-4.47-4.67-7.47-8.71-6.7s-6.7,5-5.93,9.48,4.66,7.46,8.7,6.69S750.61,658.53,749.85,654.07Z" transform="translate(-4 -4)"/><path class="cls-5" d="M773.21,666c-.75-4.38-4.57-7.32-8.54-6.57s-6.57,4.91-5.82,9.29,4.58,7.33,8.54,6.57S774,670.36,773.21,666Z" transform="translate(-4 -4)"/><path class="cls-5" d="M798.62,678.26c-.82-4.77-5-8-9.3-7.15s-7.15,5.35-6.34,10.12,5,8,9.3,7.15S799.44,683,798.62,678.26Z" transform="translate(-4 -4)"/><path class="cls-5" d="M826,682.09c-.8-4.69-4.89-7.83-9.13-7s-7,5.26-6.23,10,4.89,7.83,9.14,7S826.82,686.77,826,682.09Z" transform="translate(-4 -4)"/><ellipse class="cls-5" cx="845.33" cy="687.39" rx="6.93" ry="7.64" transform="translate(-60.17 71.51) rotate(-4.95)"/><path class="cls-5" d="M878.8,682c-.63-3.66-3.83-6.12-7.15-5.49s-5.49,4.11-4.87,7.77,3.83,6.13,7.15,5.5S879.43,685.61,878.8,682Z" transform="translate(-4 -4)"/><ellipse class="cls-5" cx="832.04" cy="648" rx="8.51" ry="9.39" transform="translate(-56.82 70.22) rotate(-4.95)"/><path class="cls-5" d="M842.23,652.86c.76,4.38,4.58,7.32,8.54,6.57s6.57-4.92,5.82-9.3-4.57-7.32-8.54-6.56S841.48,648.48,842.23,652.86Z" transform="translate(-4 -4)"/><ellipse class="cls-5" cx="869.55" cy="647.97" rx="10.2" ry="11.25" transform="translate(-56.67 73.46) rotate(-4.95)"/><path class="cls-5" d="M875.61,645.46c1.17,6.85,7.15,11.44,13.35,10.27s10.27-7.69,9.1-14.54-7.15-11.44-13.35-10.26S874.44,638.61,875.61,645.46Z" transform="translate(-4 -4)"/><path class="cls-5" d="M926.37,631.17c1,5.69-2.41,11.1-7.57,12.08s-10.12-2.84-11.09-8.53,2.41-11.11,7.56-12.08S925.39,625.48,926.37,631.17Z" transform="translate(-4 -4)"/><ellipse class="cls-5" cx="942.53" cy="615.65" rx="10.12" ry="11.16" transform="translate(-53.61 79.63) rotate(-4.95)"/><path class="cls-5" d="M966.87,598.29c1,5.55-2.35,10.83-7.38,11.78s-9.87-2.77-10.82-8.32S951,590.92,956,590,965.92,592.74,966.87,598.29Z" transform="translate(-4 -4)"/><ellipse class="cls-5" cx="976.81" cy="579.17" rx="5.74" ry="6.33" transform="translate(-50.34 82.46) rotate(-4.95)"/><ellipse class="cls-5" cx="990.16" cy="563.41" rx="6.05" ry="6.67" transform="matrix(1, -0.09, 0.09, 1, -48.93, 83.55)"/><path class="cls-5" d="M1002,545.25c.68,3.91-1.65,7.63-5.2,8.31s-7-2-7.63-5.87,1.66-7.64,5.2-8.31S1001.3,541.33,1002,545.25Z" transform="translate(-4 -4)"/><path class="cls-5" d="M1012.51,530.51c.72,4.22-1.79,8.23-5.61,9s-7.5-2.1-8.22-6.32,1.78-8.23,5.6-9S1011.79,526.29,1012.51,530.51Z" transform="translate(-4 -4)"/><path class="cls-5" d="M1016.52,506.39a5.29,5.29,0,0,1-3.91,6.24,5.07,5.07,0,0,1-5.74-4.41,5.29,5.29,0,0,1,3.91-6.24A5.07,5.07,0,0,1,1016.52,506.39Z" transform="translate(-4 -4)"/><path class="cls-5" d="M1019.07,480.33a5.52,5.52,0,0,1-4.08,6.52,5.29,5.29,0,0,1-6-4.61,5.54,5.54,0,0,1,4.09-6.52A5.29,5.29,0,0,1,1019.07,480.33Z" transform="translate(-4 -4)"/><path class="cls-5" d="M1026.23,446.62c.83,4.83-2,9.41-6.41,10.24s-8.57-2.41-9.4-7.23,2-9.41,6.41-10.24S1025.41,441.8,1026.23,446.62Z" transform="translate(-4 -4)"/><path class="cls-5" d="M1018.9,427.46c.8,4.7-2,9.17-6.25,10s-8.36-2.34-9.16-7,2-9.17,6.24-10S1018.09,422.76,1018.9,427.46Z" transform="translate(-4 -4)"/><path class="cls-5" d="M1016.79,407.88c.69,4-1.69,7.8-5.31,8.49s-7.11-2-7.79-6,1.69-7.79,5.31-8.48S1016.11,403.88,1016.79,407.88Z" transform="translate(-4 -4)"/><ellipse class="cls-5" cx="1002.84" cy="387.14" rx="9.01" ry="9.94" transform="translate(-33.67 83.99) rotate(-4.95)"/><path class="cls-5" d="M948.3,298.11a5,5,0,0,0-5.63-4.33,5.19,5.19,0,0,0-3.83,6.13,5,5,0,0,0,5.63,4.33A5.19,5.19,0,0,0,948.3,298.11Z" transform="translate(-4 -4)"/><path class="cls-5" d="M963.22,305.91c-.69-4-4.19-6.7-7.82-6s-6,4.5-5.33,8.51,4.19,6.71,7.82,6S963.91,309.92,963.22,305.91Z" transform="translate(-4 -4)"/><path class="cls-5" d="M974.71,321.75c-.71-4.15-4.33-6.93-8.09-6.22s-6.21,4.66-5.5,8.8,4.33,6.93,8.08,6.22S975.42,325.9,974.71,321.75Z" transform="translate(-4 -4)"/><path class="cls-5" d="M989.34,337.3c-.9-5.24-5.47-8.76-10.21-7.85s-7.86,5.87-7,11.11,5.47,8.76,10.21,7.86S990.24,342.54,989.34,337.3Z" transform="translate(-4 -4)"/><path class="cls-5" d="M999.49,353.72c-1-5.7-6-9.52-11.12-8.54s-8.55,6.39-7.57,12.1,6,9.52,11.11,8.54S1000.46,359.43,999.49,353.72Z" transform="translate(-4 -4)"/><ellipse class="cls-5" cx="996.53" cy="365.28" rx="7.48" ry="8.25" transform="translate(-31.8 83.36) rotate(-4.95)"/><path class="cls-5" d="M834.69,233.36c.78,4.54-1.92,8.85-6,9.63s-8.06-2.27-8.84-6.8,1.92-8.85,6-9.63S833.91,228.83,834.69,233.36Z" transform="translate(-4 -4)"/><path class="cls-5" d="M815.74,234.31c1,5.59-2.37,10.91-7.43,11.87s-9.95-2.8-10.91-8.39,2.37-10.91,7.43-11.87S814.78,228.71,815.74,234.31Z" transform="translate(-4 -4)"/><path class="cls-5" d="M791,237.51c.82,4.79-2,9.34-6.37,10.17s-8.52-2.39-9.34-7.19,2-9.35,6.37-10.17S790.19,232.71,791,237.51Z" transform="translate(-4 -4)"/><path class="cls-5" d="M766.42,249.2c1.46,8.56-3.62,16.68-11.36,18.15s-15.21-4.27-16.67-12.82,3.62-16.68,11.36-18.15S765,240.65,766.42,249.2Z" transform="translate(-4 -4)"/><path class="cls-5" d="M731.28,257c1,5.89-2.49,11.48-7.82,12.49S713,266.51,712,260.62s2.49-11.48,7.82-12.49S730.27,251.07,731.28,257Z" transform="translate(-4 -4)"/><path class="cls-5" d="M717,272.1c1.24,7.22-3.05,14.07-9.59,15.32s-12.83-3.61-14.07-10.83,3.06-14.07,9.59-15.31S715.73,264.88,717,272.1Z" transform="translate(-4 -4)"/><path class="cls-5" d="M696.71,296.5c1.34,7.77-3.29,15.16-10.32,16.5s-13.83-3.88-15.16-11.66,3.29-15.16,10.33-16.49S695.38,288.73,696.71,296.5Z" transform="translate(-4 -4)"/><ellipse class="cls-5" cx="672.58" cy="323.15" rx="8.75" ry="9.65" transform="translate(-29.38 55.25) rotate(-4.95)"/><ellipse class="cls-5" cx="659.66" cy="334.17" rx="11.01" ry="12.15" transform="translate(-30.38 54.17) rotate(-4.95)"/><ellipse class="cls-5" cx="649.66" cy="362.09" rx="12.19" ry="13.44" transform="translate(-32.82 53.41) rotate(-4.95)"/><path class="cls-5" d="M654.8,386.44c1.32,7.72-3.27,15.05-10.25,16.37s-13.72-3.85-15-11.56,3.26-15.05,10.25-16.38S653.48,378.73,654.8,386.44Z" transform="translate(-4 -4)"/><path class="cls-5" d="M646.45,425c.9,5.22-2.21,10.18-6.93,11.07s-9.28-2.6-10.18-7.82,2.21-10.18,6.94-11.08S645.56,419.81,646.45,425Z" transform="translate(-4 -4)"/><path class="cls-5" d="M648.79,458.23c.91,5.34-2.26,10.41-7.09,11.33s-9.5-2.66-10.41-8,2.26-10.41,7.09-11.33S647.87,452.9,648.79,458.23Z" transform="translate(-4 -4)"/><path class="cls-5" d="M655.5,493.89c.76,4.4-1.86,8.59-5.85,9.34s-7.83-2.2-8.59-6.6,1.87-8.59,5.85-9.35S654.75,489.48,655.5,493.89Z" transform="translate(-4 -4)"/><ellipse class="cls-7" cx="1020.06" cy="359.63" rx="9.64" ry="10.63" transform="matrix(1, -0.09, 0.09, 1, -31.23, 85.37)"/><path class="cls-7" d="M996.08,581a8,8,0,0,0-11.84,2.25,10.07,10.07,0,0,0,2.24,13.08,8,8,0,0,0,11.84-2.25A10.07,10.07,0,0,0,996.08,581Z" transform="translate(-4 -4)"/><path class="cls-7" d="M995,595.9c-.73-4.25,1.8-8.29,5.65-9s7.56,2.12,8.29,6.37-1.8,8.3-5.65,9S995.77,600.15,995,595.9Z" transform="translate(-4 -4)"/><path class="cls-7" d="M545.81,595.86c-.62-3.59,1.52-7,4.77-7.62s6.38,1.8,7,5.39-1.52,7-4.77,7.62S546.42,599.45,545.81,595.86Z" transform="translate(-4 -4)"/><path class="cls-7" d="M556.35,586.45a4.79,4.79,0,0,1,3.54-5.65,4.58,4.58,0,0,1,5.19,4,4.78,4.78,0,0,1-3.54,5.66A4.58,4.58,0,0,1,556.35,586.45Z" transform="translate(-4 -4)"/><ellipse class="cls-7" cx="569.15" cy="580.35" rx="3.89" ry="4.29" transform="translate(-51.96 47.28) rotate(-4.95)"/><path class="cls-7" d="M342.39,386.32a6.2,6.2,0,0,1-4.58,7.31,5.93,5.93,0,0,1-6.71-5.16c-.59-3.45,1.46-6.72,4.58-7.31A5.93,5.93,0,0,1,342.39,386.32Z" transform="translate(-4 -4)"/><path class="cls-8" d="M849.11,1302.53l-.34-.21c-9.82-6-15.5-15.48-13.33-22.16,30.49-93.87,53-193.1,80.34-283.27,26.54-87.66,57.6-166.91,108.53-241.55,8.42-12.33,28.17-15.82,50.77-9,62.34,18.91,123.6,56.63,168.55,103.77,16.29,17.09,22.07,36.3,14.85,49.37C1214.77,978.6,1158,1042,1091.67,1105.18c-68.2,65-146.68,129.78-216.77,199.28C869.92,1309.4,858.93,1308.58,849.11,1302.53Z" transform="translate(-4 -4)"/><path class="cls-9" d="M992.72,1034.79c49.29-93.06,94.44-156.53,151-212.26,5.8-5.72,17.38-6.37,29.5-1.65q11.2,4.35,22.14,9.53a356.87,356.87,0,0,0-38.79-27.58,341.8,341.8,0,0,0-79.79-36.29c-12.12-3.68-22.86-1.78-27.37,4.83-44,64.4-76,135.75-107.11,238.57-11.88,39.14-22.61,79.17-34,121.56-12.13,45.24-24.61,91.78-38.64,137.29q5.52-5.32,11.11-10.6c19.8-37.52,38.46-75.79,56.65-113.09C956.19,1106.58,973.93,1070.21,992.72,1034.79Z" transform="translate(-4 -4)"/><path class="cls-10" d="M1258.48,899.52c7.22-13.07,1.44-32.28-14.85-49.37C1213,818.06,1174.87,790.34,1134,770a387.93,387.93,0,0,1,39.54,33c17.37,16.6,24.81,36.05,19.11,50-34.44,84.31-83,153.29-140.77,222.61-59.41,71.37-128.75,143.1-189.54,219.19-3.74,4.69-12.25,5.19-21,1.59a37,37,0,0,0,7.45,6l.34.21c9.82,6,20.81,6.87,25.79,1.93,70.09-69.5,148.57-134.25,216.77-199.28C1158,1042,1214.77,978.6,1258.48,899.52Z" transform="translate(-4 -4)"/><ellipse class="cls-10" cx="1161.91" cy="800.47" rx="10.91" ry="69.87" transform="translate(-132.9 1366.19) rotate(-58.38)"/><polygon class="cls-11" points="1175.94 799.51 1141.29 774.82 1258.87 665.24 1271.77 674.43 1175.94 799.51"/><polygon class="cls-12" points="1179.16 800.59 1141.04 782.23 1195.93 632.94 1210.13 639.77 1179.16 800.59"/><polygon class="cls-12" points="1168.94 795.2 1138.95 766.92 1299.12 694.56 1310.28 705.09 1168.94 795.2"/><polygon class="cls-13" points="1178.01 799.74 1139.37 788.51 1128.13 611.86 1151.7 618.71 1178.01 799.74"/><polygon class="cls-14" points="1178.06 799.67 1139.37 788.51 1222.07 643.63 1244.55 656.78 1178.06 799.67"/><path class="cls-10" d="M1005.2,953.22l-59.83-43.89q-2.58,6.74-5.06,13.54l63.63,32.39Z" transform="translate(-4 -4)"/><path class="cls-10" d="M1004.18,1038.73l-83.47-57.85q-2,6.48-4,13l86.24,46.85Z" transform="translate(-4 -4)"/><path class="cls-10" d="M937.82,1077.2l-37.72-26.14-2,7.26,38.48,20.92Z" transform="translate(-4 -4)"/><path class="cls-10" d="M921.9,1146.72l-40.21-27.86-2,7.62,41,22.27Z" transform="translate(-4 -4)"/><path class="cls-10" d="M1019.24,862.59l-41-28.45q-1.74,3.48-3.44,7l43.24,23.5Z" transform="translate(-4 -4)"/><path class="cls-10" d="M1104.09,848.65l-97.86-65.29q-2.85,4.7-5.62,9.41l102.23,57.91Z" transform="translate(-4 -4)"/><path class="cls-10" d="M899.48,1200.71l-33.83-22.57-1.47,5.32,34.05,19.29Z" transform="translate(-4 -4)"/><path class="cls-10" d="M866.54,1248.22,849,1236.52c-.39,1.28-.77,2.57-1.16,3.85l17.45,9.89Z" transform="translate(-4 -4)"/><path class="cls-9" d="M994.51,1144.1l30.49,22.37,6.77-6.08-36-18.32Z" transform="translate(-4 -4)"/><path class="cls-9" d="M1024.16,1075.75l56.91,39.44q3.79-3.56,7.55-7.13l-63.21-34.34Z" transform="translate(-4 -4)"/><path class="cls-9" d="M1105.33,1048.74l25.58,17.73c1.39-1.43,2.78-2.85,4.16-4.28l-28.49-15.48Z" transform="translate(-4 -4)"/><path class="cls-9" d="M1111.41,973.16l64.24,44.52c2.39-2.81,4.78-5.62,7.14-8.45l-70.13-38.1Z" transform="translate(-4 -4)"/><path class="cls-9" d="M930.63,1205.92,959,1225.58l4.81-4.34-31.93-17.35Z" transform="translate(-4 -4)"/><path class="cls-9" d="M890.84,1247.6l25.53,17,3.55-3.31-27.83-15.77Z" transform="translate(-4 -4)"/><path class="cls-9" d="M1143.68,925.23l68.88,46q2.51-3.42,5-6.87l-72.6-41.12Z" transform="translate(-4 -4)"/><path class="cls-9" d="M1177.87,875.69l-1.25,2,68.12,45.45c1.44-2.38,2.88-4.77,4.3-7.17Z" transform="translate(-4 -4)"/></g></svg>