<svg id="Layer_1" data-name="Layer 1" xmlns="http://www.w3.org/2000/svg" viewBox="0 0 356.18 334.81"><defs><style>.cls-1{fill:#89e065;}</style></defs><path class="cls-1" d="M1999,1766.76a91.37,91.37,0,0,1,12.66,1.17l.87.11c5.26,12.39,10.39,24.87,16.54,36.85a12.6,12.6,0,0,1,.26,2.68c-.09,9.58-11.59,14.71-14.6,23.26,1.29,5.64,5.44,10,8.75,14.55a112,112,0,0,0,42.07,33.32l.81.36c5.46,2.44,10,4.65,14.95,4.63l.84,0c7.75-5.75,13.2-13.85,19.11-21.31,10.86.83,20.47,6,30.26,10.13,5.51,2.5,11,5.13,16.42,7.79,0,.41,0,.83,0,1.24-.07,10.31-1.6,22.19-11,28.44a52.23,52.23,0,0,1-32.46,11.15,66.41,66.41,0,0,1-18.54-2.45c-17-5.07-33.61-11.06-48.14-20.7-21-14-38.85-32.37-53.64-52.66-8-11.56-15-24.88-14.92-39.29,0-1.09.06-2.19.16-3.29.44-9.31,4.83-17.87,10-25.49,4.82-3.84,9.21-9.11,15.61-10.18A33.14,33.14,0,0,1,1999,1766.76Z" transform="translate(-1879.47 -1677.62)"/><path class="cls-1" d="M2235.18,1824.15q.51,6.86.46,13.75c-.19,29-7.8,58-23.1,83.07a174.86,174.86,0,0,1-41.36,46.65c-32.87,26-73.39,39.18-113.81,39.63-28.31.29-56.47-5.61-81.64-17.88l-1-.49c-32.43,7-63.92,15.08-95.26,23.55,2.12-7.51,4.35-15,6.62-22.47,6.51-21.26,13-42.52,18.84-64a155.16,155.16,0,0,1-22.27-64.8q-.67-7.76-.64-15.55a161.28,161.28,0,0,1,10.72-57.12c9-21.92,22.17-42.31,39.41-58.79,22.3-21.86,50.63-37.24,80.51-45.78a197.14,197.14,0,0,1,30.84-5.46q8.13-.77,16.31-.86c5.43-.06,10.87.12,16.28.51a183.81,183.81,0,0,1,61.88,15.5c23.78,11.91,37.51,22.74,50.4,34.32,20.4,20.54,35.52,46.25,42.51,74.48C2232.17,1809.71,2233.53,1817,2235.18,1824.15Zm-31.8,39.66a129.18,129.18,0,0,0-10.18-78.88c-15.78-33.56-46.22-59.32-81.38-71.28a152.63,152.63,0,0,0-51.83-8,217.18,217.18,0,0,0-24.55,1.71c-37.25,6.81-72.69,26.13-95.2,56.48a133.49,133.49,0,0,0-28.28,72.14c-.13,2.24-.2,4.46-.22,6.69a130.41,130.41,0,0,0,22.08,74.11c2,2.33,2.35,5.14,2.33,8,0,1.22-.09,2.44-.17,3.65-5.73,14.3-9.37,29.33-13.75,44,17.22-4.12,34.32-8.74,51.5-13a7.26,7.26,0,0,1,2.5-.5c2.78,0,5.31,1.49,7.76,2.72a154.23,154.23,0,0,0,73.81,17.93c30.7-.34,61.36-9.47,86.63-27.22,30-20.65,52.34-52.86,59-88.58" transform="translate(-1879.47 -1677.62)"/></svg>