<svg xmlns="http://www.w3.org/2000/svg" viewBox="0 0 1500 1500"><defs><style>.cls-1{isolation:isolate;}.cls-2{fill:#fff;}.cls-3{fill:#ee655f;}.cls-17,.cls-4{fill:#f2f2f2;}.cls-16,.cls-4,.cls-8{mix-blend-mode:multiply;}.cls-5{fill:#ddcacc;}.cls-6{fill:#f6f5fa;}.cls-7{fill:#e9dee2;}.cls-8{fill:#e6e6e6;}.cls-9{fill:#e8a1c3;}.cls-10{fill:#d388af;}.cls-11{fill:#333;}.cls-11,.cls-21,.cls-22{mix-blend-mode:screen;}.cls-12{fill:#edecea;}.cls-13{fill:#cc4744;}.cls-14{fill:#ed4b40;}.cls-15{fill:#efb4d3;}.cls-18{fill:#e72700;}.cls-19{fill:#0f9d17;}.cls-20{fill:#f9cb03;}.cls-21{fill:#4d4d4d;}.cls-22{fill:#1a1a1a;}</style></defs><g class="cls-1"><g id="ƒŒƒCƒ__6" data-name="ƒŒƒCƒ„[_6"><rect class="cls-2" width="1500" height="1500" rx="418.14"/><path class="cls-3" d="M456.84,549.94l26.22,634.34s2.95,69.17,50.66,118.93,98.1,76,98.1,76,60.7,33.73,183.11,17.61,188.18-39.68,188.18-39.68,93.39-23.85,106.16-78.33,102.17-574.88,102.17-574.88Z" transform="translate(-4 -4)"/><path class="cls-4" d="M1082.07,1216.46c-12.77,54.48-106.16,78.32-106.16,78.32s-65.76,23.57-188.18,39.69-184-1.91-184-1.91S574.9,1329,541.44,1311c45.28,44.68,90.38,68.15,90.38,68.15s60.7,33.73,183.11,17.61,188.18-39.68,188.18-39.68,93.39-23.85,106.16-78.33c8.27-35.3,48.72-266.26,76.18-424.47C1139,1013.92,1088.74,1188,1082.07,1216.46Z" transform="translate(-4 -4)"/><path class="cls-5" d="M1290.17,732l2.09-29.58-14.81,1.39c-39.59-49.74-221.71-244-221.71-244s-37.55-43.65-131.19-26.68L451,492.87S423.3,498,404.44,512.64l-15.06.76-1.9,26.69c-1,9.65,2.06,21.07,11.33,34.55,39.57,57.54,151.63,196.09,151.63,196.09S607.54,841,744.5,828.36c120.35-11.07,504.86-66.72,504.86-66.72s39.44-6.19,40.8-29.69Z" transform="translate(-4 -4)"/><path class="cls-6" d="M926.63,404l-473.57,59.8s-96.16,17.82-52.17,81.78c39.57,57.53,151.63,196.08,151.63,196.08s57.1,70.24,194.05,57.63c120.35-11.07,504.87-66.72,504.87-66.72s63.56-10,32.1-52.67c-29-39.35-225.72-249.22-225.72-249.22S1020.27,387,926.63,404Z" transform="translate(-4 -4)"/><ellipse class="cls-7" cx="825.91" cy="599.53" rx="151.27" ry="346.16" transform="translate(165.03 1376.59) rotate(-85.91)"/><path class="cls-8" d="M835.44,482.39c-180.5-16.62-333,37.35-340.5,120.56a72.79,72.79,0,0,0,1.76,23.59c43.2,62,168.09,113.13,318.44,123.88,149.07,10.65,279-21.56,331.49-75.94a71.16,71.16,0,0,0,2-11.34C1156.15,579.94,1015.94,499,835.44,482.39Z" transform="translate(-4 -4)"/><path class="cls-9" d="M815.14,750.42c159,11.36,296.15-26.06,340.84-87.11C1141.4,587.11,1004.14,519,832.53,506.75s-317.15,35.62-342.4,109C525.69,682.52,656.14,739.06,815.14,750.42Z" transform="translate(-4 -4)"/><path class="cls-8" d="M527.16,506.11l-4.71,65.95,149.64,66.66,45.07-24.38L573.67,448.58,461.93,462.69C490.93,478.38,527.16,506.11,527.16,506.11Z" transform="translate(-4 -4)"/><path class="cls-10" d="M792.9,513.2c182.21,13,328.82,83.91,350.43,164.4A112.5,112.5,0,0,0,1156,663.31C1141.4,587.11,1004.14,519,832.53,506.75c-59-4.21-115-1.31-164,7.29A778.76,778.76,0,0,1,792.9,513.2Z" transform="translate(-4 -4)"/><path class="cls-11" d="M606.05,564.24s-74.08,51.25-15.73,98.5S735.1,717.06,735.1,717.06,568.51,663.87,606.05,564.24Z" transform="translate(-4 -4)"/><path class="cls-11" d="M660.52,543c1.8.13,280.8-11.34,342.34,76.52S861.37,726.08,861.37,726.08s257.16-2,147.28-126.79C904.92,481.49,660.52,543,660.52,543Z" transform="translate(-4 -4)"/><path class="cls-12" d="M1171.73,933.18h0S875.41,1200,705.09,1137.33,468.67,835.91,468.66,835.9l14.4,348.38s2.12,49.53,31.68,94.91c40.65,34.65,90.94,57,153.1,57.41C952.19,1338.56,1171.72,933.21,1171.73,933.18Z" transform="translate(-4 -4)"/><path class="cls-11" d="M788.21,569.78c3.46.24,77,8.49,42.85,49.13s-83.78,53.25-83.78,53.25S949.44,698,959.84,640.08C976.58,546.82,788.21,569.78,788.21,569.78Z" transform="translate(-4 -4)"/><path class="cls-11" d="M614.74,1369.13c10.55,6.64,17.08,10,17.08,10s60.7,33.73,183.11,17.61c7.35-1,14.47-2,21.41-3-53.83-6.87-94.61-14.2-106.9-17.23-26.21-6.46-37.81-46.3-36.25-72.58s4-98.38,11.9-166.66S713.66,975,719.6,934.15s-20.77-81.8-20.77-81.8S668.48,1047.52,674.55,1087s-.35,160.6-16.13,226C651.3,1342.46,633.37,1359,614.74,1369.13Z" transform="translate(-4 -4)"/><path class="cls-13" d="M468.7,391.8C578.11,493.7,645.19,639.91,687,649.21c56.85,12.63,52.22-23.09,52.22-23.09S546.67,280.35,423.38,201.55,271.8,156.91,271.8,156.91C198.89,240.58,359.29,289.91,468.7,391.8ZM308.64,175.2c6-11.8,29.64-11.25,52.81,1.22s37.09,32.14,31.1,43.94-29.65,11.25-52.82-1.22S302.64,187,308.64,175.2Z" transform="translate(-4 -4)"/><path class="cls-14" d="M485.62,376.66c109.41,101.9,174.55,260.05,216,271s43.25-26.49,43.25-26.49-181.28-356-304.57-434.8S273.62,155,273.62,155C217.42,210.64,376.2,274.77,485.62,376.66Zm-177-201.46c6-11.8,29.64-11.25,52.81,1.22s37.09,32.14,31.1,43.94-29.65,11.25-52.82-1.22S302.64,187,308.64,175.2Z" transform="translate(-4 -4)"/><path class="cls-13" d="M353.29,192.46c-17.59-9.47-35.44-12-45.65-7.58a14.61,14.61,0,0,1,1-9.68c6-11.8,29.64-11.25,52.81,1.22s37.09,32.14,31.1,43.94a14,14,0,0,1-7.17,6.36C383.12,215.55,370.89,201.93,353.29,192.46Z" transform="translate(-4 -4)"/><path class="cls-11" d="M449.52,211.25s-6.46,5-.83,11.7,51,36.63,82.5,74.16,13.44,2.4-9.05-25S466.25,202.69,449.52,211.25Z" transform="translate(-4 -4)"/><path class="cls-15" d="M737.61,607.22s11.84,54.69-77.77,28.23-8.9,22.16,36.68,24.56S763.68,643.7,737.61,607.22Z" transform="translate(-4 -4)"/><path class="cls-12" d="M765.43,998.16c-6.06,0-10.9-1-12.71-4-3.58-6.52,2.67-11.14,7.39-14.43a152.22,152.22,0,0,0,13.25-9.61,49.52,49.52,0,0,0,11.9-14.8c-4.43-10.9-7.51-14.3-10.46-27.54-2.31-10.13,1.43-28.18,15-29.74,15.58-1.65,12.29,10,11.23,20.8l-.77,10.78c4.63-8.19,6.88-15.38,10.86-20.61,8.14-10.76,27-13.36,23.5,4.8-1,5.31-3.68,11.11-6.23,16.46-7,14.67-13.32,26.67-22.11,38.51C797.9,980.56,792,985.85,781,994.34c-5.2,4.07-12.44,6.35-16.93,6.43Z" transform="translate(-4 -4)"/><path class="cls-12" d="M898.65,919.26c-2.61,24.42-10.29,30.79-28.76,34.51C854.51,956.7,839,952,841.13,925.6c1.38-17.34,10.19-35.54,30.76-38.2,21.29-2.75,28.79,11.55,26.75,32Z" transform="translate(-4 -4)"/><path class="cls-12" d="M909.47,958c-2.35-1.46-4.72-2.63-5.1-5.48-.56-6.29,3.42-9.49,10.07-15.6-7.38-5.94-12.56-10.25-10.13-28.15,2.09-12.95,10.49-25.47,24.82-25.83,3.61,0,6.74.67,10.77.93a4.41,4.41,0,0,0,4.26-2.95c1.37-3-.6-16,10.6-17,10.62-.94,6.41,17.46.84,24.74,4.13,6.89,7.29,13.17,5.69,21.44-1.62,8.57-8.23,14.1-14.6,18.29-5.77,4-11.32,6.8-12.4,9.81-1.28,3.76,5.5,1.82,7.26,1.47,13.25-3.4,19,7.35,15.84,19-2.56,9.53-10.92,19.45-25.91,22.91-13.36,3-28.66,2.73-28.18-8,.09-3.34,1.85-7.73,5.88-13.54Z" transform="translate(-4 -4)"/><path class="cls-12" d="M965.4,915.32c.7-11.78.94-39.39,16.78-42.8,12.92-2.79,13,5.86,11.61,17.58-.35,2.93-2.06,12.66-1.88,20.29.22,7.05,1.85,12.49,7.74,8.93,7.24-4.3,11-17,13-25.91,1.45-6.23,2.25-11.38,3.11-15.23,1.83-7.43,4.25-11,12.42-12.12,10.8-1.53,13.66,9,14.07,19.46a163.71,163.71,0,0,1-2.36,29c-1.74,10.16-5.36,20.4-13.55,21.77-9.66,1.84-12.92-5.15-12.87-11.94-6.64,10-14.47,16.54-27.89,18.23-14.73,2-20.19-14.71-20.65-26.5Z" transform="translate(-4 -4)"/><path class="cls-12" d="M1062.69,930.82c-14.3,4.11-16-18.8-16.19-28.17-.2-17.45,4.19-36.44,12.9-37,8-.64,10.7,1.94,11.74,7.6,5.8-6.3,12.61-10.7,21.25-12.27,8.33-1.4,15.19,7.78,14.77,15.77-.26,5.66-5.09,12.57-10.87,14.54-17.75,5.8-10.33-11.09-15.73-8.3-4.19,2.07-5.15,13.45-5.52,20.71-.45,10.31-.41,23.88-12.5,27.3Z" transform="translate(-4 -4)"/><path class="cls-12" d="M1130.78,819.14c11.8-1.36,10,8.09,7,34.86,8.87-2.76,15.83-1.11,14.38,7.15-1.17,6.2-8.73,9-16.78,10.31-.8,5.14-3,30.53,3.8,27.72,4.77-2,17.54-16.89,19.87-1,1.84,12.64-10.8,23.78-26.1,25.54-21.71,2.5-21.85-39.94-19.75-61.27C1116.18,833.38,1115.92,820.85,1130.78,819.14Z" transform="translate(-4 -4)"/><g class="cls-16"><path class="cls-17" d="M902.64,574h0l2,.49Z" transform="translate(-4 -4)"/><path class="cls-17" d="M987.17,640.26C990,600.44,932.3,582.38,910,576c32.1,9.36,56.28,28,49.81,64.08C953.46,675.59,875,679.6,815.2,677.4h0S982.07,713.08,987.17,640.26Z" transform="translate(-4 -4)"/></g><path class="cls-3" d="M494.91,1045.93c2.61,1.07,5.92,3.48,5.1,9-.7,4.6-6.23-1.92-6.17,2.52.05,2.84,6.18,5,4.79,15.68-.78,6.16-4.82,8.75-7.9,7.29-1.75-.7-4.27-4.05-4.12-7.89.38-9.53,6.67-.69,6.82-3.4.24-4.57-7.08-3.65-5.17-16.31.91-5.6,3.06-8.18,6.56-6.77Z" transform="translate(-4 -4)"/><path class="cls-3" d="M508.28,1032.94c3.25,2,2.58,6.75,1.3,20.61,2.47.6,4.34,3.14,3.79,7.28-.43,3.1-2.54,2.81-4.76,1.65-.32,2.61-1.39,15.88.53,16,1.34,0,5.1-5,5.45,4.15.27,7.31-3.38,10.38-7.59,7.73-6-3.76-5.25-26.87-4.29-38C504,1037.24,504.19,1030.37,508.28,1032.94Z" transform="translate(-4 -4)"/><path class="cls-3" d="M520.43,1098.21c-4-1.14-4-14-3.92-19.13.26-9.54,1.81-18.82,4.2-17.08,2.19,1.54,2.88,3.58,3.07,6.9,1.69-2.05,3.63-2.84,6-1.65s4,7.81,3.75,12c-.17,3-1.62,5.64-3.23,5.34-5-1-2.62-8.46-4.15-8.22-1.18.14-1.65,6.1-1.88,10-.31,5.49-.55,12.88-3.91,11.88Z" transform="translate(-4 -4)"/><path class="cls-3" d="M533.22,1097.93c.13-4.65,1.31-8.88,3.68-9.86,2.12-.84,2.93.07,4.8,2.13.27-4.4.06-7.41-2.45-6.83a7.78,7.78,0,0,1-2.13.43c-1.79-.09-1.75-4.16-1.28-6.1,1.24-5.07,3.77-5.8,6.65-3.27,3.46,3.06,4.7,16.34,4.44,22.27-.29,6.39-2.09,14-5.48,13.94s-8.46-2.36-8.28-12.58Z" transform="translate(-4 -4)"/><path class="cls-3" d="M567.52,1127.53c-3.38-3.16-4.23-8.27-4.81-14.16-1.93,4.07-4.12,8.38-7.39,6.65-4.76-2.6-4.08-9.15-5-18.16-1.25-12.48-2.33-21.34,2.61-19.51,5.72,2.07,5.3,13.75,6.64,20.77a84.27,84.27,0,0,0,3.9-8.77c1.37-3.31,2.9-3.7,4.17-2,.91,1.22,2,3.26,1.26,7.53a37.77,37.77,0,0,1-1.81,5.92c.15.89.78,3.85,1.25,6.07.53-1.66,1.55-4.71,3-8.38,1.65-4.33,3.72-8.64,5.88-6.56,2.63,2.46,1.56,9.24.62,13.61a71.36,71.36,0,0,1-2.5,8.61c-1.73,4.76-3.91,11.89-7.85,8.44Z" transform="translate(-4 -4)"/><path class="cls-3" d="M587.56,1098.63c-.74,2.67-2.47,10.47-1.38,11.72.81,1,.79-2.87,2.46-4,3.37-2,5.22,3.76,6,10,1,8.14.09,15.76-2.4,21.25-1.7,3.82-3.83,3.76-5.83,2.42s-3.89-4.13-5.21-9.13c-2.33-9-1.47-20.48-.8-29.84.64-9,.75-25.89,6-22s2.49,14.47,1.17,19.49Z" transform="translate(-4 -4)"/><path class="cls-3" d="M604.11,1151.45c-4.41-2.78-7.11-7.77-8.05-14a44.22,44.22,0,0,1,.55-14.8c1.92-8.73,5.27-11.66,8.32-9.74s6.86,7.27,6.22,16.17c-.32,4.45-1.82,7.35-4.07,7.78-2.42.4-4.08-2.73-4.76-4.44-.2,5.8.9,6.25,3.09,7.16a7.18,7.18,0,0,1,4.16,6.3c.31,4-2,7.73-5.54,5.49Z" transform="translate(-4 -4)"/><path class="cls-3" d="M615.53,1158.08c-4-1.15-4-14-3.91-19.14.26-9.53,1.81-18.81,4.19-17.07,2.2,1.54,2.89,3.58,3.07,6.9,1.7-2.06,3.64-2.84,6-1.66s4,7.82,3.75,12.06c-.18,3-1.62,5.63-3.23,5.34-5-1-2.62-8.46-4.15-8.22-1.18.14-1.65,6.09-1.88,10-.31,5.5-.55,12.89-3.91,11.89Z" transform="translate(-4 -4)"/><path class="cls-3" d="M632.9,1169c-4-1.15-4-14-3.92-19.14.26-9.53,1.81-18.82,4.2-17.07,2.19,1.54,2.88,3.58,3.07,6.9,1.69-2.06,3.63-2.84,6-1.66s4,7.81,3.75,12.06c-.17,3-1.62,5.63-3.23,5.34-4.95-1-2.62-8.46-4.15-8.22-1.18.13-1.65,6.09-1.88,10-.31,5.5-.54,12.88-3.91,11.89Z" transform="translate(-4 -4)"/><path class="cls-3" d="M643.27,1193.89a9.76,9.76,0,0,1-3.4-5.19c-.86-4.38.93-5.42,2.28-6.1a17.88,17.88,0,0,0,3.79-2.09,11.65,11.65,0,0,0,3.52-5.24c-1-7-1.79-9.55-2.36-17.44-.45-6,.9-15,4.63-12.63,4.29,2.78,3.18,8.33,2.69,14l-.4,5.67c1.41-3.36,2.16-6.74,3.34-8.64,2.42-3.92,7.6-.9,6.33,8.16a39.28,39.28,0,0,1-2,7.47c-2.17,6.33-4.12,11.36-6.74,15.72s-4.19,5.93-7.35,8a4.15,4.15,0,0,1-4.74-.5Z" transform="translate(-4 -4)"/><path class="cls-18" d="M615.69,1219c1.56-30-32.45-50.07-32.45-50.07s-34.13-18.49-36.8,10.86,8.16,37.73,12,57.61,17.84,28.37,17.84,28.37,13.94,8.56,20.25-5.55S614.12,1249,615.69,1219Z" transform="translate(-4 -4)"/><path class="cls-19" d="M583.28,1168.36s-16.16-9.15-27.28-5.68c0,0,1.28,3.56,14,8.35,0,0-3.17,2.12-4.54,11.27,0,0,10.63.26,12-5.2,0,0-.37,13.55,3.78,19.24,4.61-.73,6.13-13.63,6.13-13.63.54,6.56,10.38,17.89,10.38,17.89,0-9.93-2.65-15.34-2.65-15.34,12.4,9.43,14.07,7.54,14.07,7.54C599.44,1177.51,583.28,1168.36,583.28,1168.36Z" transform="translate(-4 -4)"/><path class="cls-19" d="M588.38,1152.69s4.4,4.29,4.47,7.87c0,0-7.36,2.8-7.9,10.92l-3.87-2.2S582.84,1153.68,588.38,1152.69Z" transform="translate(-4 -4)"/><path class="cls-20" d="M575.94,1199.57a.84.84,0,0,1-1.35.73,2.45,2.45,0,0,1-1.13-2.13c0-.8.81-3.34,1.5-3S576,1198.78,575.94,1199.57Z" transform="translate(-4 -4)"/><path class="cls-20" d="M567.43,1214.15a.83.83,0,0,1-1.34.73,2.47,2.47,0,0,1-1.13-2.14c0-.79.81-3.33,1.49-2.94S567.49,1213.35,567.43,1214.15Z" transform="translate(-4 -4)"/><path class="cls-20" d="M581.85,1230.68a.83.83,0,0,1-1.34.73,2.44,2.44,0,0,1-1.14-2.14c.06-.79.82-3.33,1.5-2.94S581.91,1229.89,581.85,1230.68Z" transform="translate(-4 -4)"/><path class="cls-20" d="M562.86,1225.16c.18.88-.2,1.52-.86,1.44a2.22,2.22,0,0,1-1.54-1.75c-.18-.88-.32-4,.34-3.88S562.67,1224.28,562.86,1225.16Z" transform="translate(-4 -4)"/><path class="cls-20" d="M578.46,1260.13a.83.83,0,0,1-1.34.73,2.44,2.44,0,0,1-1.14-2.13c.06-.8.81-3.34,1.5-3S578.51,1259.34,578.46,1260.13Z" transform="translate(-4 -4)"/><path class="cls-20" d="M572.91,1242a.84.84,0,0,1-1.34.74,2.46,2.46,0,0,1-1.14-2.14c.06-.8.81-3.34,1.5-2.95S573,1241.19,572.91,1242Z" transform="translate(-4 -4)"/><path class="cls-20" d="M556.2,1199.21c.13.87-.32,1.44-1,1.29a2.33,2.33,0,0,1-1.46-1.87c-.13-.86,0-3.86.63-3.7S556.06,1198.34,556.2,1199.21Z" transform="translate(-4 -4)"/><path class="cls-20" d="M558,1183c-.32.58-1.07.5-1.68-.16a2.17,2.17,0,0,1-.52-2.26c.33-.58,2-2.11,2.58-1.44S558.3,1182.41,558,1183Z" transform="translate(-4 -4)"/><path class="cls-20" d="M590.44,1206.28a2.45,2.45,0,0,0,1.13,2.14.84.84,0,0,0,1.35-.73c.05-.8-.3-4-1-4.35S590.49,1205.49,590.44,1206.28Z" transform="translate(-4 -4)"/><path class="cls-20" d="M591.86,1222.45a2.48,2.48,0,0,0,1.14,2.14.83.83,0,0,0,1.34-.73c.06-.8-.29-4-1-4.35S591.92,1221.66,591.86,1222.45Z" transform="translate(-4 -4)"/><path class="cls-20" d="M598.11,1240.05a2.22,2.22,0,0,0,.6,2.26c.62.64,1.36.67,1.65.06s.85-3.31.22-3.95S598.4,1239.44,598.11,1240.05Z" transform="translate(-4 -4)"/><path class="cls-20" d="M585.81,1253.08a2.48,2.48,0,0,0,1.13,2.14.84.84,0,0,0,1.35-.74c.05-.79-.3-4-1-4.35S585.86,1252.28,585.81,1253.08Z" transform="translate(-4 -4)"/><path class="cls-20" d="M606.22,1226a2.3,2.3,0,0,0,.73,2.25c.64.59,1.36.53,1.6-.13s.57-3.5-.07-4.09S606.45,1225.38,606.22,1226Z" transform="translate(-4 -4)"/><path class="cls-20" d="M606.79,1209.12a2.13,2.13,0,0,0,1.58,1.68c.65,0,1-.64.78-1.52s-1.53-4.09-2.18-4.13S606.58,1208.24,606.79,1209.12Z" transform="translate(-4 -4)"/><path class="cls-21" d="M555.82,1178.66s-5.93,3.08-4.22,21.56c0,0,1.35-7.83,3.2-7.36s3.48,7.22,2.23,9.52-2.76,1.23-2.76,1.23,2.09,13.5,10.82,13.78c0,0-3.33-8.67.22-9.66s8.48-1.08,10.41-5.12c0,0-4.82-1.59-2.48-7.21s4,1.64,4,1.64.57-6.35-3.06-8.74-12-6.28-14-8.86-.38,6.88-3.74,4.52S555.82,1178.66,555.82,1178.66Z" transform="translate(-4 -4)"/><path class="cls-8" d="M581.12,1239.33c-3.54-19.82,2.8-25.09-11.39-57.35a45.74,45.74,0,0,0-12.92-17.21c-6.12,1.23-9.4,4.37-10.37,15-2.67,29.35,8.16,37.73,12,57.61a45.94,45.94,0,0,0,13.2,24.61c.52,0,.83-.11.83-.11S584.66,1259.15,581.12,1239.33Z" transform="translate(-4 -4)"/><path class="cls-18" d="M567.06,1180c-14.18-32.27-43.45-24.76-43.45-24.76s-28.53,9.26-15.28,41.8,23.57,32.2,35.75,49.51,24.32,14.48,24.32,14.48,12.15-2.74,8.61-22.56S581.25,1212.29,567.06,1180Z" transform="translate(-4 -4)"/><path class="cls-19" d="M523.35,1154.65s-13.71,4-18.23,16.79c0,0,2.51,2.62,12.09-3,0,0-.72,4.83,3.11,15.43,0,0,6.12-8.56,4.16-15.37,0,0,6.61,14.31,11.81,16.73,2.23-4.58-3.4-19.17-3.4-19.17,3.6,6.33,14.84,9.85,14.84,9.85-5-10.25-9.2-13.65-9.2-13.65,11.73-.55,11.72-3.89,11.72-3.89C537.05,1150.67,523.35,1154.65,523.35,1154.65Z" transform="translate(-4 -4)"/><path class="cls-19" d="M518.34,1134.22s4.64.77,6.48,4.41c0,0-2.74,9,1,17.85l-3.28,1S515.72,1139.85,518.34,1134.22Z" transform="translate(-4 -4)"/><path class="cls-20" d="M534.9,1193c.37.87.19,1.71-.39,1.88s-1.34-.4-1.71-1.27-1.22-4.12-.64-4.29S534.53,1192.12,534.9,1193Z" transform="translate(-4 -4)"/><path class="cls-20" d="M537.44,1215.12c.37.86.19,1.7-.39,1.87s-1.35-.4-1.71-1.26-1.22-4.12-.64-4.29S537.07,1214.25,537.44,1215.12Z" transform="translate(-4 -4)"/><path class="cls-20" d="M553.87,1220.22c.37.86.2,1.7-.38,1.87s-1.35-.4-1.72-1.26-1.21-4.12-.63-4.29S553.51,1219.35,553.87,1220.22Z" transform="translate(-4 -4)"/><path class="cls-20" d="M540.39,1230.3a1.9,1.9,0,0,1,.24,2.2c-.41.46-1.19.22-1.74-.53s-2.18-3.83-1.76-4.29S539.85,1229.55,540.39,1230.3Z" transform="translate(-4 -4)"/><path class="cls-20" d="M566.77,1253.46c.37.87.19,1.71-.39,1.88s-1.35-.4-1.71-1.27-1.22-4.12-.64-4.29S566.4,1252.6,566.77,1253.46Z" transform="translate(-4 -4)"/><path class="cls-20" d="M554.52,1239.32c.36.87.19,1.71-.39,1.88s-1.35-.4-1.72-1.27-1.21-4.12-.63-4.28S554.15,1238.46,554.52,1239.32Z" transform="translate(-4 -4)"/><path class="cls-20" d="M523.6,1209c.51.78.55,1.75.09,2.14s-1.25.08-1.76-.71-2-4-1.51-4.34S523.09,1208.24,523.6,1209Z" transform="translate(-4 -4)"/><path class="cls-20" d="M516.44,1190.77c.11.87-.35,1.42-1,1.23a2.34,2.34,0,0,1-1.42-1.9c-.11-.86,0-3.82.73-3.63S516.34,1189.91,516.44,1190.77Z" transform="translate(-4 -4)"/><path class="cls-20" d="M546.45,1187.88c.37.86,1.13,1.43,1.71,1.26s.76-1,.39-1.87-2.16-3.85-2.74-3.68S546.08,1187,546.45,1187.88Z" transform="translate(-4 -4)"/><path class="cls-20" d="M555.38,1203.4c.37.87,1.14,1.43,1.72,1.26s.75-1,.38-1.87-2.16-3.85-2.74-3.68S555,1202.53,555.38,1203.4Z" transform="translate(-4 -4)"/><path class="cls-20" d="M567.75,1216.38a2.31,2.31,0,0,0,1.47,1.85c.67.14,1.1-.44,1-1.32s-1.18-4.12-1.86-4.26S567.61,1215.51,567.75,1216.38Z" transform="translate(-4 -4)"/><path class="cls-20" d="M567.37,1240.07c.36.87,1.13,1.43,1.71,1.27s.75-1,.39-1.88-2.16-3.85-2.74-3.68S567,1239.2,567.37,1240.07Z" transform="translate(-4 -4)"/><path class="cls-20" d="M565.27,1195.17a2.2,2.2,0,0,0,1.55,1.73c.66.07,1-.59.83-1.47s-1.43-4.1-2.09-4.17S565.07,1194.29,565.27,1195.17Z" transform="translate(-4 -4)"/><path class="cls-20" d="M557.09,1177.22c.57.73,1.34.92,1.73.42a2,2,0,0,0-.32-2.22c-.56-.73-2.92-3-3.3-2.46S556.53,1176.49,557.09,1177.22Z" transform="translate(-4 -4)"/><path class="cls-21" d="M513.05,1188.11s-1.79,8.1,8.46,25.78c0,0-3.17-9.21-1.89-10.27s5.59,4.57,6,8-.94,3.57-.94,3.57,8,12.21,13,5.25c0,0-6.24-6.19-4.73-10.17s4.23-8.16,3.29-13.93c0,0-3.52,2.36-5-5.4s3.08-1.61,3.08-1.61-2.88-7-6.12-6.48-10,3.52-12.32,2.44,3.24,7.42.16,7.77S513.05,1188.11,513.05,1188.11Z" transform="translate(-4 -4)"/><path class="cls-22" d="M497.9,1216.22s-19.24-488.54-8.73-449.56,166.32,65.8,155.69,180.7-11.69,406-35.52,395.43S502.19,1266.63,497.9,1216.22Z" transform="translate(-4 -4)"/></g></g></svg>