<svg id="Layer_1" data-name="Layer 1" xmlns="http://www.w3.org/2000/svg" viewBox="0 0 308.74 320.58"><defs><style>.cls-1{fill:#2d353a;}.cls-2{fill:#353d44;}.cls-3{fill:#647184;}.cls-4{fill:#ffe969;}.cls-5{fill:#f4b30f;}.cls-6{fill:#ffdd50;}.cls-7{fill:#feffca;}</style></defs><path class="cls-1" d="M350.76,109.77l-8.87-9.2a5.86,5.86,0,0,1,0-8L367.1,66.37a5.34,5.34,0,0,1,7.73,0l8.86,9.2a5.84,5.84,0,0,1,0,8l-25.2,26.17A5.33,5.33,0,0,1,350.76,109.77Z" transform="translate(-76.55 -64.71)"/><path class="cls-2" d="M355.88,119.59,332.43,95.25a5,5,0,0,1,0-6.92l10.78-11.19a4.6,4.6,0,0,1,6.66,0l23.45,24.34a5.06,5.06,0,0,1,0,6.93l-10.78,11.18A4.59,4.59,0,0,1,355.88,119.59Z" transform="translate(-76.55 -64.71)"/><polygon class="cls-3" points="273.44 36.66 273.44 36.66 258.38 21.03 117.78 167.02 31.08 267.27 41.21 277.79 41.21 277.79 51.34 288.31 147.89 198.28 288.49 52.29 273.44 36.66"/><polygon class="cls-2" points="279.59 43.05 138.99 189.05 42.44 279.07 51.34 288.31 147.89 198.28 288.49 52.29 279.59 43.05"/><polygon class="cls-4" points="40.37 256.72 31.13 267.32 41.21 277.79 41.21 277.79 51.34 288.31 61.5 278.67 40.37 256.72"/><path class="cls-3" d="M77.38,384.43a3.16,3.16,0,0,1,.06-4.33l16.92-17.56a2.87,2.87,0,0,1,4.17-.07,3.15,3.15,0,0,1-.07,4.33L81.55,384.36A2.88,2.88,0,0,1,77.38,384.43Z" transform="translate(-76.55 -64.71)"/><path class="cls-2" d="M77.17,380.45a3.12,3.12,0,0,0,.21,4,2.86,2.86,0,0,0,3.84.22Z" transform="translate(-76.55 -64.71)"/><polygon class="cls-4" points="157.61 188.19 127.5 156.93 117.77 167.03 147.88 198.29 157.61 188.19"/><polygon class="cls-3" points="51.06 288.02 46.41 283.19 31.08 267.27 24.15 274.47 39.48 290.39 44.13 295.22 44.41 295.5 51.34 288.31 51.06 288.02"/><polygon class="cls-2" points="26.34 276.75 4.29 306.1 13.95 316.12 42.22 293.23 26.34 276.75"/><polygon class="cls-5" points="147.89 198.28 138.99 189.05 148.71 178.96 157.61 188.19 147.89 198.28"/><polygon class="cls-5" points="52.61 269.43 42.88 279.53 51.34 288.31 61.5 278.67 52.61 269.43"/><polygon class="cls-3" points="293.34 33.22 276.75 15.98 282.98 9.51 299.58 26.74 293.34 33.22"/><path class="cls-6" d="M264.27,200.18l-8.73-9.06a1.4,1.4,0,0,1,0-1.91l72.89-75.68a1.25,1.25,0,0,1,1.83,0l8.73,9.06a1.38,1.38,0,0,1,0,1.91l-72.88,75.68A1.26,1.26,0,0,1,264.27,200.18Z" transform="translate(-76.55 -64.71)"/><path class="cls-2" d="M247.54,211.86l-3.25-3.37a5.6,5.6,0,0,1,.11-7.71l-4.91,5.1a5.61,5.61,0,0,0-.11,7.72l3.24,3.37a5.11,5.11,0,0,0,7.43-.12l4.92-5.1A5.12,5.12,0,0,1,247.54,211.86Z" transform="translate(-76.55 -64.71)"/><path class="cls-6" d="M247.08,212.23,243.94,209a5.6,5.6,0,0,1,0-7.71l81.69-84.83a5.12,5.12,0,0,1,7.43,0l3.14,3.26a5.61,5.61,0,0,1,0,7.72l-81.69,84.82A5.12,5.12,0,0,1,247.08,212.23Z" transform="translate(-76.55 -64.71)"/><path class="cls-7" d="M252.05,207.18l-3.25-3.37a5.6,5.6,0,0,1,.11-7.71L244,201.2a5.59,5.59,0,0,0-.1,7.71l3.24,3.38a5.13,5.13,0,0,0,7.43-.12l4.92-5.1A5.12,5.12,0,0,1,252.05,207.18Z" transform="translate(-76.55 -64.71)"/></svg>